<svg width="251" height="213" viewBox="0 0 251 213" fill="none" xmlns="http://www.w3.org/2000/svg">
<path d="M122.643 139.019C116.714 139.877 110.784 140.913 105.248 142.734C93.2814 146.699 83.7799 154.308 77.2789 162.988C70.7779 171.668 67.0272 181.383 64.1696 191.135C54.7038 194.493 43.5235 208.781 41.666 216.639C34.3792 247.43 39.88 260.217 73.4211 276.97C80.8508 280.685 187.761 298.688 216.873 275.899C235.519 261.325 242.663 253.609 243.341 229.855C244.02 206.137 253.593 180.883 239.162 159.88C236.411 155.879 233.125 152.022 228.91 148.842C216.408 139.341 197.691 136.733 180.117 136.055C160.935 135.305 141.575 136.305 122.643 139.019Z" fill="#990028"/>
<path d="M156.967 289.871C162.897 289.014 168.826 287.978 174.363 286.156C186.329 282.191 195.795 274.583 202.332 265.903C208.833 257.223 212.583 247.507 215.441 237.756C224.907 234.398 236.087 220.146 237.944 212.252C245.231 181.461 239.73 168.673 206.189 151.92C198.795 148.206 111.067 126.631 59.1658 157.85C50.9145 162.815 37.5909 172.638 36.9122 196.392C36.2335 220.11 25.9819 248.007 40.4128 269.011C43.1632 273.011 46.4494 276.869 50.6287 280.048C63.1307 289.55 81.848 292.157 99.4222 292.836C118.711 293.586 138.071 292.622 156.967 289.871Z" fill="#990028"/>
<path d="M63.2366 227.395C52.8063 233.396 42.5905 231.253 32.1602 237.254C28.4454 244.148 30.5171 262.829 34.8392 269.866C43.805 284.369 67.8445 286.333 75.0242 283.833C90.3124 278.511 94.956 269.331 108.922 261.151C139.677 243.076 173.397 230.11 202.688 209.785C217.44 199.534 235.764 202.07 245.444 186.996C250.195 179.602 244.909 166.886 237.515 156.812C231.799 149.061 224.87 140.703 215.297 139.881C205.295 139.024 188.185 144.739 179.755 150.169C171.325 155.598 163.967 162.492 155.894 168.421C136.391 182.781 113.03 191.282 93.7057 205.892C88.1691 210.071 82.9898 214.715 77.346 218.68C72.8453 221.859 68.0588 224.645 63.2366 227.395Z" fill="#222272"/>
<path d="M95.03 251.578C100.602 247.363 106.317 240.291 106.532 233.29C106.71 228.11 105.424 220.002 100.567 213.715C98.2804 210.786 95.78 209.143 95.7443 204.071C95.9943 203.035 96.2086 202.213 96.2801 201.82C102.71 168.779 97.1731 167.886 88.7789 163.957C82.8494 161.171 79.4917 165.993 78.0272 167.458C69.6687 175.816 67.1683 179.424 65.9538 185.175C65.4894 187.425 65.8109 190.033 64.3464 191.783C63.3462 192.962 61.7388 193.426 60.3457 194.105C59.3099 194.64 58.0597 195.426 56.7737 196.319C50.9514 199.463 45.7363 204.285 44.2717 205.321C42.0571 206.892 39.7353 207.893 35.699 212.358C30.0552 218.644 29.055 229.432 29.1979 232.075C29.698 241.612 34.6274 248.185 40.7712 251.471C50.8086 256.65 77.8843 264.58 95.03 251.578Z" fill="#F70032"/>
<path d="M185.404 178.384C179.796 182.563 174.045 189.6 173.723 196.565C173.509 201.709 174.724 209.889 179.51 216.211C181.76 219.176 184.261 220.819 184.261 225.891C183.975 226.927 183.761 227.749 183.689 228.142C176.974 261.147 182.546 262.076 190.869 266.041C196.763 268.862 200.156 264.076 201.656 262.611C210.086 254.289 212.587 250.752 213.873 245.001C214.373 242.751 214.051 240.179 215.552 238.429C216.552 237.25 218.159 236.786 219.552 236.107C220.588 235.607 221.838 234.821 223.124 233.928C228.982 230.821 234.233 226.034 235.698 224.998C237.912 223.427 240.27 222.462 244.342 218.033C250.057 211.782 251.093 200.994 250.986 198.387C250.557 188.85 245.699 182.241 239.555 178.919C229.661 173.669 202.621 165.524 185.404 178.384Z" fill="#F70032"/>
<path d="M111.678 149.212C115.786 153.32 122.144 154.034 127.967 154.356C131.431 154.534 134.932 154.642 138.397 154.713C140.826 154.749 143.255 154.749 145.612 154.284C148.97 153.641 152.078 152.141 155.114 150.569C160.972 147.569 166.758 144.39 172.402 140.996C174.01 140.032 175.617 139.068 176.939 137.746C179.904 134.888 181.261 130.781 182.082 126.744C184.976 112.528 182.332 97.811 179.689 83.523C179.332 81.5227 178.939 79.5223 177.975 77.7363C175.974 74.0572 171.795 72.164 167.759 71.0924C161.15 69.3421 154.221 69.235 147.434 69.5564C136.254 70.0565 125.002 71.7711 114.572 75.8432C114.714 78.8794 114.893 81.9513 115.036 84.9875C115.072 85.5947 115.107 86.2377 114.929 86.8092C114.607 87.8451 113.714 88.5595 112.857 89.2739C105.677 95.2749 101.212 103.812 96.926 112.135C95.1042 115.671 93.2111 119.457 93.5683 123.422C95.4257 124.351 97.676 124.387 99.5335 123.529C101.284 122.744 103.034 121.208 104.82 121.922C106.499 122.565 106.856 124.744 106.892 126.53C106.963 130.495 106.677 134.495 107.106 138.425C107.57 142.39 108.856 146.39 111.678 149.212Z" fill="#FFD6A1"/>
<path d="M121.142 93.1555C120.32 89.2263 119.892 85.44 120.606 82.7967C120.749 82.2609 120.749 81.6894 121.071 81.2965C121.606 80.6535 122.535 80.5464 123.357 80.5107C130.965 80.082 138.645 78.1531 146.182 79.189C160.648 81.1893 159.72 86.5116 159.862 88.119C159.898 88.6548 158.827 88.6905 158.398 89.012C158.219 89.1192 158.005 89.1549 157.791 89.1906C151.433 90.3337 145.11 91.4767 138.752 92.6555C136.537 93.0484 134.358 93.4413 132.108 93.7628C129 94.1914 126.286 95.4416 123.178 95.4773C122.785 95.5131 121.642 95.6202 121.142 93.1555Z" fill="#0C0A35"/>
<path d="M132.744 86.5921C141.388 82.8415 151.139 84.4131 159.819 88.128C159.855 89.0567 159.248 89.8783 158.641 90.5927C154.247 95.7364 147.925 99.1298 141.245 99.987C134.565 100.844 127.564 99.1298 122.028 95.2363C122.742 93.4146 125.957 89.5568 132.744 86.5921Z" fill="white"/>
<path d="M140.612 97.4099C142.719 97.3027 144.97 96.2311 145.97 94.0879C147.22 91.4803 146.005 87.7655 143.541 86.7296C142.326 86.2295 141.005 86.3009 139.719 86.5152C137.575 86.8724 135.182 87.8012 134.325 90.0873C133.611 91.9804 134.289 94.2665 135.611 95.6239C136.933 97.0169 138.826 97.517 140.612 97.4099Z" fill="#0C0A35"/>
<path d="M185.759 142.274C184.652 159.205 180.794 175.815 166.471 184.995C157.505 190.71 143.36 193.568 132.858 195.211C129.179 195.782 125.5 196.318 121.785 196.318C116.391 196.283 111.105 195.068 105.854 193.854C105.104 193.675 104.318 193.496 103.746 192.961C102.567 191.889 102.746 190.031 103.068 188.46C103.711 185.459 104.532 182.53 105.568 179.637C109.283 168.957 109.747 164.206 109.247 146.989C109.211 146.132 108.211 140.988 108.497 140.166C109.068 138.452 110.747 139.881 112.533 139.666C133.322 137.202 155.505 143.631 176.151 140.274C178.008 139.988 179.866 139.595 181.723 139.881C183.58 140.202 185.867 140.416 185.759 142.274Z" fill="#D6002B"/>
<path d="M99.2734 197.563C103.524 196.527 105.56 193.777 107.668 190.062C110.454 185.097 113.704 179.668 114.633 174.024C115.669 167.808 115.883 161.022 116.455 154.699C117.062 148.055 114.597 141.804 115.812 135.16C116.026 134.053 114.49 133.267 113.919 134.375C112.24 137.482 112.633 140.733 113.026 144.162C113.811 151.163 113.633 157.164 112.561 164.165C111.597 170.595 112.097 175.81 108.882 181.811C106.096 187.097 104.239 193.205 98.7377 196.349C98.059 196.67 98.5233 197.742 99.2734 197.563Z" fill="#0C0A35"/>
<path d="M104.563 200.82C108.421 197.462 112.135 195.069 115.279 190.818C118.958 185.818 120.851 179.424 122.208 173.458C125.209 160.135 123.78 147.347 121.601 134.095C121.423 133.023 119.958 133.273 119.672 134.095C118.101 138.346 119.387 142.346 120.244 146.668C121.744 154.098 120.601 162.921 119.422 170.315C118.351 177.066 116.1 183.389 112.493 189.175C109.921 193.247 105.456 195.783 103.67 200.284C103.455 200.82 104.206 201.106 104.563 200.82Z" fill="#0C0A35"/>
<path d="M113.456 201.498C123.779 195.068 128.065 184.96 130.851 173.386C132.352 167.064 133.316 160.598 133.566 154.097C133.852 146.382 130.28 139.381 131.387 131.63C131.566 130.379 130.03 129.558 129.28 130.737C127.101 134.201 127.779 137.809 128.565 141.703C130.28 150.204 130.637 157.312 129.208 165.956C127.029 179.244 122.279 190.925 113.063 200.962C112.777 201.248 113.134 201.712 113.456 201.498Z" fill="#0C0A35"/>
<path d="M120.889 203.89C131.498 197.174 136.499 185.387 138.499 173.528C140.642 160.954 142.178 146.845 138.57 134.414C138.356 133.7 137.284 133.664 137.106 134.414C135.999 139.344 137.213 144.38 137.535 149.381C138.035 156.382 137.07 163.633 136.07 170.563C135.248 176.492 134.213 182.35 131.605 187.816C128.783 193.709 123.425 197.71 120.175 203.247C119.96 203.64 120.46 204.175 120.889 203.89Z" fill="#0C0A35"/>
<path d="M130.493 202.889C141.102 197.031 144.603 186.244 147.103 175.17C148.496 169.134 149.21 163.133 149.282 156.917C149.353 150.095 147.674 143.594 147.282 136.879C147.174 135.057 144.746 134.735 144.138 136.45C142.638 140.736 144.46 145.237 144.888 149.631C145.496 156.239 145.317 162.811 144.353 169.419C143.531 174.885 142.352 180.457 140.816 185.743C138.78 192.816 133.351 196.281 129.815 202.21C129.565 202.639 130.065 203.103 130.493 202.889Z" fill="#0C0A35"/>
<path d="M139.708 202.853C149.138 199.245 152.853 186.601 154.961 177.742C156.425 171.562 157.033 165.169 157.604 158.882C158.318 150.916 159.497 141.451 157.247 133.699C157.033 133.021 156.068 133.021 155.889 133.699C154.318 139.129 154.818 144.951 154.604 150.559C154.318 158.096 153.818 165.669 152.746 173.134C151.067 184.85 146.96 193.316 139.315 202.21C139.101 202.46 139.315 202.996 139.708 202.853Z" fill="#0C0A35"/>
<path d="M149.849 200.639C159.101 195.245 162.958 185.636 164.244 175.17C165.995 160.668 169.031 144.915 166.816 130.342C166.709 129.556 165.566 129.52 165.209 130.127C163.101 133.771 163.994 137.593 163.994 141.701C163.994 148.916 163.387 156.132 162.566 163.311C160.958 177.242 159.994 189.673 149.599 200.281C149.385 200.46 149.635 200.782 149.849 200.639Z" fill="#0C0A35"/>
<path d="M163.253 194.959C170.218 188.279 173.647 177.778 175.183 168.491C175.969 163.597 176.112 158.668 175.755 153.703C175.398 148.702 175.933 143.201 173.612 138.664C173.112 137.7 171.933 138.307 171.826 139.164C170.683 148.023 172.54 156.774 171.718 165.669C171.218 170.991 169.932 176.17 168.146 181.207C166.646 185.493 165.753 191.173 163.038 194.816C162.967 194.923 163.146 195.066 163.253 194.959Z" fill="#0C0A35"/>
<path d="M177.575 182.353C182.218 175.602 183.147 168.672 184.004 160.6C184.754 153.277 185.29 143.776 182.075 136.989C181.79 136.346 180.79 136.56 180.611 137.167C178.861 143.74 180.611 151.205 180.361 157.992C180.075 166.208 177.36 174.03 177.039 182.175C177.075 182.496 177.432 182.567 177.575 182.353Z" fill="#0C0A35"/>
<path d="M167.615 148.951C164.007 144.986 160.328 139.986 161.507 134.735C162.293 131.341 164.972 128.77 167.043 125.948C169.115 123.126 170.58 119.197 168.722 116.268C167.258 113.946 164.364 113.124 162.15 111.517C158.613 108.909 157.077 103.873 158.613 99.7292C159.506 97.3002 161.257 95.3356 162.364 93.0138C164.65 88.2273 163.971 82.4049 161.507 77.6899C159.042 72.9749 155.006 69.2957 150.684 66.2238C157.328 66.5453 163.686 66.4381 170.33 66.7953C173.937 66.9739 177.545 67.1525 181.01 68.1884C187.332 70.0815 192.655 74.9752 195.155 81.0833C196.62 84.691 197.12 88.656 198.477 92.3351C199.513 95.157 201.085 97.7646 202.513 100.408C210.336 114.946 214.622 131.306 223.695 145.094C224.303 146.022 224.91 147.237 224.267 148.094C223.874 148.594 223.195 148.773 222.552 148.88C215.337 150.094 207.978 148.951 200.656 149.166C193.405 149.38 186.261 150.916 179.045 151.416C174.795 151.738 170.472 152.095 167.615 148.951Z" fill="#D6002B"/>
<path d="M185.121 59.62C185.906 51.2258 185.121 38.5452 183.763 28.1864C182.906 21.7211 181.084 15.0771 180.62 10.5764C179.87 2.96806 174.798 4.4683 174.547 6.7901C172.761 24.0071 173.905 32.5799 170.761 46.2964C170.011 49.5827 164.939 49.3326 164.189 46.7965C162.188 40.1883 161.938 34.2231 161.152 27.5434C159.652 14.8985 158.366 7.57594 156.116 4.78978C155.08 3.50386 152.794 3.3967 152.222 4.96838C146.972 19.7207 153.687 46.1178 145.293 49.2255C143.65 49.8327 141.864 48.654 141.506 46.9751C138.577 33.4372 142.221 18.1491 135.613 5.86138C135.184 5.07554 134.613 4.25398 133.755 4.1111C132.469 3.89678 131.505 5.28986 131.005 6.50434C125.397 20.0779 131.933 45.6892 126.647 50.3328C124.682 52.0831 123.111 51.0115 122.861 48.4039C120.646 25.3288 118.61 9.89774 113.931 8.00458C111.323 6.9687 110.144 15.0414 110.251 18.1848C110.752 34.6517 111.68 51.0829 112.609 67.5141C112.502 67.1569 112.538 66.9069 112.716 67.2284C112.895 67.5498 113.323 67.5498 113.681 67.5141C136.22 65.9424 158.759 64.335 181.263 62.7634C182.12 62.6919 182.906 62.4419 183.656 62.0132C184.371 61.4417 185.049 60.4416 185.121 59.62Z" fill="#F70032"/>
<path d="M112.17 75.7614C114.527 78.6547 172.715 72.618 185.181 71.9751C186.396 71.9036 187.468 71.1535 187.932 70.0462C189.003 67.5101 188.289 65.2597 187.646 62.545C187.539 62.0092 187.36 61.4377 186.967 61.0447C186.325 60.4018 185.289 60.4018 184.36 60.4732C166.321 61.6163 148.247 62.7593 130.208 63.9023L114.777 64.8668C113.599 64.9382 112.455 65.224 111.455 65.8312C108.848 67.4029 109.348 69.5104 109.848 71.4035C110.312 73.0467 111.134 74.4397 112.17 75.7614Z" fill="#0C0A35"/>
<path d="M113.275 8.10556C114.418 8.10556 115.382 7.14112 115.382 5.99808C115.382 4.85504 114.418 3.89059 113.275 3.89059C112.132 3.89059 111.167 4.85504 111.167 5.99808C111.167 7.14112 112.132 8.10556 113.275 8.10556Z" fill="#0C0A35"/>
<path d="M133.533 5.32952C136.248 5.32952 136.248 1.11456 133.533 1.11456C130.819 1.11456 130.819 5.32952 133.533 5.32952Z" fill="#0C0A35"/>
<path d="M154.042 4.42928C155.256 4.42928 156.256 3.42912 156.256 2.21464C156.256 1.00016 155.256 5.75427e-09 154.042 3.71629e-09C152.827 1.67831e-09 151.827 1.00016 151.827 2.21464C151.827 3.3934 152.863 4.42928 154.042 4.42928Z" fill="#0C0A35"/>
<path d="M177.048 6.14187C178.299 6.14187 179.334 5.10599 179.334 3.8915C179.334 2.6413 178.299 1.64114 177.048 1.64114C175.834 1.64114 174.798 2.67702 174.798 3.8915C174.798 5.10599 175.834 6.14187 177.048 6.14187Z" fill="#0C0A35"/>
<path d="M115.954 45.3379C114.775 50.8388 116.275 56.4468 116.632 61.9834C116.74 63.9123 119.49 63.9123 119.597 61.9834C119.99 56.4111 117.74 51.0174 117.24 45.5165C117.168 44.8021 116.097 44.552 115.954 45.3379Z" fill="#0C0A35"/>
<path d="M134.319 44.5031C133.569 47.5393 133.247 50.6112 133.39 53.7188C133.497 56.1478 133.39 59.6841 135.355 61.3986C136.14 62.113 137.391 61.8273 137.712 60.7914C138.427 58.3624 137.212 55.2191 137.033 52.7187C136.819 49.9682 136.498 47.2178 135.855 44.5388C135.64 43.7887 134.497 43.7887 134.319 44.5031Z" fill="#0C0A35"/>
<path d="M155.115 43.4687C155.758 48.4338 155.865 53.3988 156.151 58.3996C156.294 60.7214 159.723 60.7572 159.794 58.3996C159.901 53.2202 158.544 48.148 157.258 43.1829C156.972 42.0042 154.972 42.2185 155.115 43.4687Z" fill="#0C0A35"/>
<path d="M178.221 43.1819C175.756 46.4681 176.006 52.2191 176.292 56.0768C176.471 58.7201 180.328 58.7915 180.435 56.0768C180.507 54.1122 180.364 52.1119 180.257 50.183C180.15 48.0398 180.328 45.8609 180.15 43.7177C180.078 42.6104 178.828 42.3603 178.221 43.1819Z" fill="#0C0A35"/>
<path d="M164.102 70.6102C166.317 73.2892 167.531 78.0757 168.388 81.2905C170.067 87.5058 166.995 92.9352 165.852 98.829C164.602 105.33 171.567 108.688 175.461 112.474C184.355 121.083 167.245 132.799 166.245 141.622C165.495 148.23 171.639 156.731 176.997 159.91C177.497 160.196 178.176 159.589 177.818 159.089C174.854 155.088 171.353 152.088 169.388 147.265C166.209 139.55 172.103 135.085 176.032 129.548C179.39 124.833 182.783 116.903 178.247 111.652C175.854 108.866 172.675 107.045 170.031 104.508C165.424 100.115 171.103 92.828 171.21 88.0058C171.389 81.9691 169.889 73.7178 164.209 70.3959C164.102 70.3959 164.031 70.5388 164.102 70.6102Z" fill="#0C0A35"/>
<path d="M172.066 71.4356C181.96 77.7938 173.745 86.6881 174.817 95.0466C175.067 96.9754 176.924 98.69 178.174 100.012C182.032 104.084 185.925 106.834 187.711 112.514C191.319 123.944 179.21 129.945 175.817 139.375C173.459 145.912 175.531 152.484 181.675 156.128C182.425 156.556 183.389 155.663 182.889 154.913C181.853 153.342 180.746 151.877 179.639 150.413C176.102 145.698 178.531 140.982 181.103 136.625C183.568 132.445 187.426 129.373 189.605 125.051C192.891 118.55 191.641 109.585 186.89 104.155C183.818 100.619 176.96 96.9397 177.96 91.3674C178.603 87.8311 180.032 85.1164 180.103 81.4372C180.174 76.615 177.888 70.3283 172.245 70.6498C171.816 70.6498 171.673 71.1856 172.066 71.4356Z" fill="#0C0A35"/>
<path d="M180.249 69.5062C182.142 70.935 184.571 76.4359 185.393 78.4362C186.786 81.901 184 88.6521 184.5 92.6528C184.857 95.689 186.643 97.5821 188.858 99.511C193.358 103.404 197.252 106.048 199.145 111.977C204.682 129.409 176.141 145.697 195.93 160.556C197.002 161.378 198.538 159.771 197.788 158.699C193.18 152.198 190.465 147.733 194.001 139.66C195.787 135.66 198.538 132.088 200.002 127.908C202.967 119.621 203.574 111.727 198.359 104.297C196.037 101.011 192.43 98.868 189.501 96.1533C184.25 91.2597 189.679 84.7944 188.536 79.3292C187.929 76.4002 184.464 68.1488 180.285 68.9704C180.035 69.0775 180.071 69.399 180.249 69.5062Z" fill="#0C0A35"/>
<path d="M196.899 69.8638C190.97 71.0426 191.648 80.2226 191.756 84.8305C191.97 94.6535 200.293 97.654 206.401 103.905C209.973 107.548 208.758 112.692 208.365 117.336C207.758 124.873 204.508 131.124 201.864 138.018C198.721 146.126 200.828 159.307 211.259 160.521C212.08 160.628 212.223 159.592 211.83 159.092C206.972 152.949 202.936 149.805 204.686 141.197C205.722 136.124 208.723 131.302 210.187 126.301C211.902 120.3 213.652 111.335 211.402 105.262C209.401 99.8329 202.614 96.5824 198.364 93.2961C194.649 90.4028 194.47 86.295 194.363 82.1158C194.292 79.6868 193.792 71.3283 196.971 70.2567C197.256 70.1496 197.185 69.7924 196.899 69.8638Z" fill="#0C0A35"/>
<path d="M223.469 123.697C214.932 117.803 203.287 150.844 216.039 158.417C216.539 158.702 217.218 158.095 216.86 157.595C212.61 151.666 212.181 145.057 213.753 138.092C214.86 133.234 218.182 126.197 223.361 124.804C223.862 124.661 223.897 123.983 223.469 123.697Z" fill="#0C0A35"/>
<path d="M227.325 131.405C223.288 130.619 219.931 135.513 218.645 138.799C216.43 144.515 217.538 150.837 221.538 155.481C221.824 155.802 222.503 155.552 222.431 155.123C221.931 150.623 219.824 146.765 220.574 142.121C221.324 137.549 224.467 135.192 227.503 132.12C227.718 131.905 227.646 131.477 227.325 131.405Z" fill="#0C0A35"/>
<path d="M104.065 125.804C102.958 130.412 103.708 135.413 106.137 139.485C106.887 140.735 107.887 141.986 109.28 142.414C110.495 142.771 111.816 142.486 112.995 142.021C118.353 139.985 122.246 134.52 122.389 128.769C124.175 135.949 131.784 140.235 139.106 141.486C146.393 142.736 153.966 141.878 161.253 143.129C160.538 138.735 157.788 134.985 155.109 131.448C152.537 127.983 149.822 124.447 146.036 122.375C142.178 120.268 137.606 119.982 133.212 119.768C125.14 119.339 116.924 118.911 109.03 120.732C108.101 120.947 107.173 121.197 106.422 121.732C105.101 122.625 104.458 124.233 104.065 125.804Z" fill="#D6002B"/>
<path d="M118.113 116.314C117.756 118.636 117.899 120.601 118.042 122.994C118.399 128.816 115.006 134.031 111.183 137.996C107.004 142.318 104.432 146.676 104.79 152.856C104.825 153.535 105.647 153.749 106.04 153.213C108.612 149.57 109.112 145.319 112.112 141.818C114.005 139.604 116.006 137.675 117.72 135.317C122.149 129.138 120.649 122.851 118.649 116.314C118.542 116.1 118.149 116.029 118.113 116.314Z" fill="#0C0A35"/>
<path d="M113.396 116.518C113.075 118.697 113.039 120.84 113.003 123.055C112.932 127.662 109.36 131.02 106.538 134.306C103.609 137.7 100.537 142.058 101.466 146.737C101.573 147.308 102.537 147.487 102.787 146.916C105.216 141.343 108.395 137.378 112.075 132.556C116.397 126.841 115.111 123.305 114.218 116.661C114.182 116.196 113.468 115.982 113.396 116.518Z" fill="#0C0A35"/>
<path d="M110.536 117.338C109.75 119.303 109.25 121.267 108.642 123.303C107.785 126.161 105.713 127.875 103.427 129.554C101.213 131.162 98.855 132.983 98.1763 135.734C98.0692 136.198 98.605 136.52 98.9622 136.198C101.713 133.519 105.213 131.912 107.928 129.233C111.107 126.089 110.464 121.481 111.036 117.445C111.071 117.124 110.643 117.016 110.536 117.338Z" fill="#0C0A35"/>
<path d="M122.677 116.312C120.748 123.17 127.07 129.814 130.892 134.887C134.75 140.03 142.894 147.603 149.967 146.46C150.61 146.353 150.61 145.424 150.145 145.138C144.002 141.316 138.215 138.673 133.357 132.993C129.106 128.028 124.856 122.742 123.177 116.312C123.07 116.098 122.748 116.098 122.677 116.312Z" fill="#0C0A35"/>
<path d="M127.542 115.489C124.899 119.561 132.614 126.634 134.615 129.456C136.901 132.671 139.401 135.885 142.687 138.1C145.688 140.1 148.831 141.851 151.653 144.137C153.832 145.923 155.261 148.459 157.404 150.281C157.904 150.709 158.761 150.316 158.547 149.638C156.44 142.494 150.046 139.35 144.259 135.457C140.008 132.599 137.151 128.277 134.079 124.312C131.971 121.633 128.685 119.097 128.006 115.596C127.935 115.346 127.613 115.346 127.542 115.489Z" fill="#0C0A35"/>
<path d="M135.364 115.738C133.65 121.953 139.901 126.847 144.044 130.526C147.438 133.527 150.581 136.42 153.653 139.813C157.404 143.957 159.368 147.815 161.833 152.672C162.083 153.208 162.94 153.065 163.083 152.494C164.834 144.671 159.404 140.742 154.582 135.527C148.831 129.276 138.365 124.525 136.293 115.738C136.186 115.274 135.507 115.309 135.364 115.738Z" fill="#0C0A35"/>
<path d="M99.2394 125.769C103.526 122.804 108.277 120.697 113.527 120.411C116.456 120.268 119.528 119.339 121.564 117.125C124.994 113.374 121.1 108.623 117.064 107.873C115.956 107.659 115.492 109.302 116.599 109.588C118.957 110.159 121.314 111.088 121.386 113.91C121.493 116.946 117.599 118.232 115.278 118.768C112.063 119.482 109.098 119.232 105.99 120.625C103.311 121.84 100.775 123.161 99.0608 125.59C98.9893 125.733 99.1323 125.84 99.2394 125.769Z" fill="#0C0A35"/>
<path d="M115.715 41.2289C117.215 41.2289 117.215 38.8714 115.715 38.8714C114.179 38.8714 114.179 41.2289 115.715 41.2289Z" fill="#0C0A35"/>
<path d="M114.923 37.0022C114.995 37.0022 115.066 37.0022 115.102 36.9665C116.531 36.7879 116.531 34.9304 115.102 34.7518C115.031 34.7518 114.995 34.7518 114.923 34.7161C113.459 34.5375 113.459 37.1808 114.923 37.0022Z" fill="#0C0A35"/>
<path d="M114.562 32.7575C115.919 32.7575 115.919 30.65 114.562 30.65C113.204 30.65 113.204 32.7575 114.562 32.7575Z" fill="#0C0A35"/>
<path d="M135.079 40.7607C136.972 40.7607 136.972 37.8317 135.079 37.8317C133.186 37.8317 133.186 40.7607 135.079 40.7607Z" fill="#0C0A35"/>
<path d="M135.072 35.5075C135.036 35.5433 135.036 35.5433 135.001 35.579C134.679 35.6147 134.358 35.6504 134 35.7219C134.036 35.7219 134.108 35.7219 134.143 35.7576C135.179 35.9362 136.215 35.1146 135.894 34.0073C135.608 33.0071 134.251 32.5785 133.5 33.3643C132.929 34.0073 132.857 34.936 133.5 35.5075C134.001 35.9005 134.608 35.9005 135.072 35.5075Z" fill="#0C0A35"/>
<path d="M134.326 31.1871C136.112 31.1871 136.112 28.4009 134.326 28.4009C132.504 28.4009 132.504 31.1871 134.326 31.1871Z" fill="#0C0A35"/>
<path d="M156.184 38.9097C156.22 38.9097 156.256 38.874 156.291 38.874C157.256 38.5168 157.935 37.5881 157.613 36.5165C157.327 35.5521 156.256 34.8734 155.256 35.1949C155.22 35.1949 155.184 35.2306 155.148 35.2306C154.148 35.5521 153.541 36.5522 153.827 37.5881C154.113 38.5168 155.22 39.2669 156.184 38.9097Z" fill="#0C0A35"/>
<path d="M156.613 33.078C156.649 33.0423 156.685 32.9708 156.685 32.9351C157.47 31.4349 155.613 30.0418 154.399 31.1491C154.363 31.1848 154.327 31.2205 154.256 31.2563C152.684 32.7565 155.577 35.0069 156.613 33.078Z" fill="#0C0A35"/>
<path d="M156.253 28.1887C156.253 28.1172 156.289 28.0815 156.325 28.0101C156.968 26.1526 153.467 26.1526 154.11 28.0101C154.146 28.0815 154.146 28.1172 154.182 28.1887C154.503 29.2246 155.896 29.2246 156.253 28.1887Z" fill="#0C0A35"/>
<path d="M178.37 39.3614C180.906 39.3614 180.906 35.4322 178.37 35.4322C175.834 35.4322 175.834 39.3614 178.37 39.3614Z" fill="#0C0A35"/>
<path d="M178.367 33.6163C180.367 33.6163 180.367 30.5087 178.367 30.5087C176.366 30.5087 176.366 33.6163 178.367 33.6163Z" fill="#0C0A35"/>
<path d="M178.038 29.3579C178.11 29.3936 178.145 29.3936 178.217 29.4293C178.967 29.7151 179.753 28.965 179.753 28.2506C179.753 27.5362 178.967 26.786 178.217 27.0718C178.145 27.1075 178.11 27.1075 178.038 27.1433C176.967 27.6076 176.967 28.9292 178.038 29.3579Z" fill="#0C0A35"/>
<path d="M81.065 254.326C78.7075 254.04 77.9573 251.325 80.8864 242.86C83.8154 234.394 84.1012 227.286 82.8867 222.249C81.6365 217.213 80.0648 209.104 84.1369 209.211C88.209 209.318 91.281 216.32 91.8882 223.249C92.5669 230.536 90.9951 236.358 89.5663 241.788C88.1732 247.217 83.6012 254.611 81.065 254.326Z" fill="#990028"/>
<path d="M64.1698 252.12C61.2407 252.263 58.8832 250.906 60.062 240.083C61.2407 229.26 65.2056 207.935 69.492 206.72C73.7784 205.541 74.7786 207.935 74.7786 211.792C74.7786 215.686 69.5635 251.906 64.1698 252.12Z" fill="#990028"/>
<path d="M86.3125 213.036C86.0625 212.893 85.8124 212.786 85.4909 212.786C83.7406 212.607 83.2763 214.964 84.9551 215.464C85.2409 215.536 85.5266 215.572 85.8124 215.536C87.134 215.357 87.4556 213.714 86.3125 213.036Z" fill="#0C0A35"/>
<path d="M69.4457 209.858C69.41 209.894 69.3742 209.894 69.3742 209.93C68.5527 210.644 68.4099 212.037 69.5529 212.573C69.5886 212.573 69.6243 212.609 69.6601 212.609C70.7674 213.109 72.0532 212.287 71.9461 211.073C71.8389 209.965 70.3745 209.072 69.4457 209.858Z" fill="#0C0A35"/>
<path d="M42.0182 247.15C44.3757 247.328 46.0188 245.542 46.4832 236.576C46.9475 227.646 49.3409 220.931 52.3771 216.716C55.4133 212.501 59.9496 205.607 56.0919 204.178C52.2698 202.785 46.8047 208.072 43.6256 214.287C40.2679 220.788 39.6607 226.789 38.8391 232.326C37.9104 238.255 39.3392 246.935 42.0182 247.15Z" fill="#990028"/>
<path d="M47.9121 212.788C48.948 212.36 50.0553 212.681 50.6983 213.61C51.1984 214.36 51.0198 215.431 50.2339 215.932C49.3052 216.539 48.1622 216.432 47.3406 215.646C46.4119 214.717 46.6977 213.288 47.9121 212.788Z" fill="#0C0A35"/>
<path d="M52.6684 206.924C52.9542 206.888 53.2399 206.888 53.5257 206.995C55.2402 207.495 54.7759 209.853 52.9899 209.674C52.6684 209.638 52.4541 209.567 52.1684 209.424C51.0253 208.745 51.3468 207.102 52.6684 206.924Z" fill="#0C0A35"/>
<path d="M166.727 190.929C162.477 187.393 156.369 192.858 153.868 196.251C152.225 198.502 151.689 202.038 154.511 203.645C157.155 205.146 160.334 204.038 162.763 202.645C165.584 201.038 168.442 198.894 170.514 196.394C172.55 193.858 173.371 189.607 169.621 188.071C165.763 186.5 162.227 189.036 159.333 191.393C156.69 193.536 153.154 197.001 153.225 200.645C153.297 203.967 157.869 204.967 159.441 202.145C161.155 199.073 163.906 195.394 167.335 194.287C167.156 194.358 166.406 194.144 167.192 194.322C165.977 194.001 165.727 191.393 165.62 191.929C165.799 191.179 165.477 192.036 165.37 192.179C165.442 192.036 164.727 192.858 164.584 193.036C163.263 194.429 161.691 195.608 160.048 196.68C158.583 197.644 158.333 197.93 156.833 197.966C157.69 197.966 158.262 198.68 158.583 199.43C158.655 199.573 158.512 200.645 158.655 200.002C158.762 199.466 158.869 199.287 159.369 198.502C160.191 197.108 161.369 195.858 162.513 194.715C162.941 194.287 165.12 191.822 165.799 192.108C166.549 192.429 167.406 191.5 166.727 190.929Z" fill="#0C0A35"/>
<path d="M137.542 203.682C135.256 205.218 134.077 206.29 132.898 208.862C131.648 211.577 131.755 215.113 132.898 217.863C135.113 223.221 140.793 224.864 145.936 222.935C150.187 221.328 152.545 216.577 153.187 212.398C153.973 207.362 150.687 203.147 146.258 201.289C141.686 199.36 135.47 200.325 132.363 204.361C129.719 207.826 130.112 212.398 131.648 216.22C133.149 220.042 136.971 222.935 141.078 223.043C146.901 223.186 150.58 218.399 151.473 213.148C152.152 209.219 149.901 205.683 146.401 204.147C142.936 202.647 137.685 204.504 136.078 207.897C134.684 210.826 134.827 215.22 137.935 217.113C141.793 219.435 145.115 216.434 146.258 212.791C147.294 209.433 143.65 206.219 140.471 207.933C138.685 208.898 137.328 210.255 136.078 211.862C134.792 213.541 135.47 216.47 137.292 217.506C137.399 217.577 137.542 217.649 137.649 217.72C139.9 218.935 142.436 218.078 143.364 215.684C142.829 217.077 143.686 214.541 143.507 213.863C143.436 213.505 143.329 213.148 143.15 212.827C144.757 216.399 141.971 216.399 144.257 215.184C142.329 213.577 140.4 211.969 138.471 210.326C137.971 212.005 140.257 208.397 142.936 210.791C143.543 211.326 143.293 211.934 143.293 211.362C143.293 212.112 143.186 211.827 143.15 211.827C142.829 212.148 143.686 211.862 143.865 211.898C143.257 211.719 143.15 210.898 143.364 211.791C143.436 212.112 143.222 212.862 143.079 213.327C142.757 214.327 142.079 214.684 141.471 214.863C140.9 215.006 141.578 214.97 140.614 214.863C141.007 214.898 140.864 214.934 140.257 214.541C139.792 214.256 139.471 213.755 138.971 212.755C138.721 212.219 138.507 211.255 138.507 210.576C138.507 209.505 138.399 210.433 138.721 209.398C138.614 209.755 138.935 209.076 139.007 209.005C139.221 208.826 139.435 208.755 139.292 208.79C140.042 208.54 140.435 208.54 141.257 208.54C142.4 208.576 143.9 209.005 144.4 209.469C144.972 210.005 145.043 210.576 145.043 211.184C145.043 212.219 144.686 213.184 144.079 214.148C143.043 215.827 141.971 216.256 140.543 215.541C137.756 214.113 137.506 207.79 139.185 205.611C140.078 204.54 138.649 202.968 137.542 203.682Z" fill="#0C0A35"/>
<path d="M141.65 213.686C144.901 213.829 145.115 208.757 141.864 208.614C138.614 208.507 138.4 213.543 141.65 213.686Z" fill="#F70032"/>
<path d="M135.113 204.541C135.863 204.577 135.899 203.434 135.149 203.398C134.435 203.362 134.399 204.505 135.113 204.541Z" fill="#F70032"/>
<path d="M133.151 208.504C133.866 208.54 133.937 207.397 133.187 207.397C132.473 207.361 132.437 208.469 133.151 208.504Z" fill="#F70032"/>
<path d="M133.116 213.038C134.08 213.073 134.151 211.573 133.187 211.537C132.223 211.502 132.151 213.002 133.116 213.038Z" fill="#F70032"/>
<path d="M151.215 211.043C151.894 211.079 151.965 210.007 151.251 209.971C150.572 209.936 150.501 211.007 151.215 211.043Z" fill="#F70032"/>
<path d="M149.573 206.613C150.466 206.649 150.502 205.292 149.644 205.256C148.751 205.22 148.716 206.577 149.573 206.613Z" fill="#F70032"/>
<path d="M145.651 203.716C146.687 203.751 146.759 202.144 145.723 202.072C144.687 202.072 144.615 203.68 145.651 203.716Z" fill="#F70032"/>
<path d="M140.755 203.041C140.791 203.041 140.862 203.041 140.898 203.041C141.684 202.969 141.719 201.933 140.933 201.826C140.898 201.826 140.826 201.826 140.791 201.791C139.969 201.648 139.933 203.112 140.755 203.041Z" fill="#F70032"/>
<path d="M209.589 207.968C209.518 207.968 209.482 207.969 209.41 208.004C207.017 208.326 207.267 211.719 209.661 211.755C209.732 211.755 209.768 211.755 209.839 211.755C212.304 211.755 212.018 207.647 209.589 207.968Z" fill="#0C0A35"/>
<path d="M210.731 201.209C210.267 201.066 209.838 201.173 209.41 201.459C208.624 201.995 208.481 203.566 209.553 203.924C209.588 203.924 209.624 203.959 209.66 203.959C210.303 204.174 210.946 204.174 211.446 203.638C212.017 202.995 211.874 202.138 211.339 201.53C211.16 201.352 210.981 201.28 210.731 201.209Z" fill="#0C0A35"/>
<path d="M211.513 195.393C211.442 195.393 211.37 195.358 211.335 195.358C209.692 195.036 209.191 197.537 210.835 197.894C210.906 197.894 210.942 197.929 211.013 197.929C212.621 198.287 213.156 195.715 211.513 195.393Z" fill="#0C0A35"/>
<path d="M212.15 190.455C210.935 190.205 210.578 192.062 211.757 192.312C212.971 192.562 213.328 190.669 212.15 190.455Z" fill="#0C0A35"/>
<path d="M198.44 186.531C198.369 186.603 198.297 186.638 198.226 186.71C197.511 187.317 198.19 188.317 199.012 187.889C199.083 187.853 199.19 187.817 199.262 187.781C200.119 187.353 199.19 185.924 198.44 186.531Z" fill="#0C0A35"/>
<path d="M196.835 190.421C196.549 190.136 196.227 189.993 195.834 189.886C194.227 189.457 193.655 192.207 195.334 192.422C195.727 192.493 196.049 192.493 196.442 192.315C197.263 191.993 197.477 191.029 196.835 190.421Z" fill="#0C0A35"/>
<path d="M193.12 194.457C191.12 194.064 190.477 197.171 192.477 197.564C194.513 197.993 195.12 194.849 193.12 194.457Z" fill="#0C0A35"/>
<path d="M191.44 200.781C189.511 200.388 188.904 203.389 190.833 203.782C192.762 204.139 193.369 201.174 191.44 200.781Z" fill="#0C0A35"/>
<path d="M190.369 206.067C188.547 205.71 187.976 208.532 189.798 208.889C191.619 209.246 192.191 206.424 190.369 206.067Z" fill="#0C0A35"/>
<path d="M199.368 175.782C201.726 176.103 202.44 178.818 199.44 187.248C196.439 195.678 196.082 202.822 197.296 207.858C198.475 212.895 200.011 221.039 195.939 220.86C191.867 220.717 188.866 213.716 188.295 206.751C187.688 199.464 189.295 193.677 190.76 188.248C192.224 182.818 196.832 175.424 199.368 175.782Z" fill="#990028"/>
<path d="M216.226 178.066C219.155 177.958 221.512 179.316 220.226 190.139C218.94 200.962 214.797 222.251 210.51 223.43C206.224 224.573 205.224 222.18 205.26 218.322C205.367 214.429 210.832 178.28 216.226 178.066Z" fill="#990028"/>
<path d="M195.233 187.097C195.626 187.312 195.983 187.347 196.447 187.347C197.805 187.347 198.198 185.276 196.983 184.74C196.554 184.561 196.233 184.49 195.769 184.526C194.411 184.597 194.018 186.49 195.233 187.097Z" fill="#0C0A35"/>
<path d="M194.798 190.928C193.69 190.714 192.619 191.428 192.369 192.536C192.154 193.643 192.869 194.715 193.976 194.965C195.083 195.179 196.191 194.465 196.405 193.357C196.619 192.25 195.905 191.178 194.798 190.928Z" fill="#0C0A35"/>
<path d="M191.933 202.461C192.004 202.497 192.076 202.532 192.147 202.568C193.29 203.211 194.755 202.425 195.005 201.175C195.255 199.961 194.219 198.639 192.897 198.782C192.826 198.782 192.754 198.817 192.647 198.817C190.754 199.068 190.254 201.532 191.933 202.461Z" fill="#0C0A35"/>
<path d="M191.649 209.744C192.435 210.565 193.578 210.673 194.542 210.065C195.292 209.565 195.507 208.494 195.007 207.744C194.364 206.815 193.292 206.458 192.22 206.922C191.042 207.422 190.756 208.851 191.649 209.744Z" fill="#0C0A35"/>
<path d="M211.476 214.359C211.512 214.323 211.548 214.287 211.583 214.287C212.333 213.68 212.476 212.894 212.048 212.037C212.012 212.001 212.012 211.965 211.976 211.93C211.262 210.501 209.047 211.179 208.762 212.537C208.476 213.93 210.226 215.394 211.476 214.359Z" fill="#0C0A35"/>
<path d="M212.619 207.854C212.905 207.747 213.191 207.604 213.476 207.461C214.298 206.997 214.584 205.854 214.298 205.032C213.977 204.103 213.119 203.603 212.155 203.603C212.012 203.603 211.869 203.603 211.726 203.639C210.547 203.853 209.619 204.675 209.69 205.961C209.869 207.354 211.298 208.354 212.619 207.854Z" fill="#0C0A35"/>
<path d="M213.401 196.569C210.686 196.033 209.829 200.248 212.543 200.784C215.294 201.32 216.151 197.105 213.401 196.569Z" fill="#0C0A35"/>
<path d="M214.764 189.996C212.693 189.568 212.05 192.782 214.122 193.211C216.193 193.64 216.836 190.389 214.764 189.996Z" fill="#0C0A35"/>
<path d="M215.768 185.073C214.054 184.716 213.518 187.395 215.233 187.716C216.947 188.073 217.483 185.394 215.768 185.073Z" fill="#0C0A35"/>
<path d="M216.795 183.026C216.831 182.99 216.867 182.99 216.902 182.954C217.26 182.74 217.331 182.24 217.117 181.883C217.081 181.847 217.081 181.811 217.045 181.776C216.617 181.133 215.581 181.311 215.402 182.097C215.259 182.883 216.152 183.454 216.795 183.026Z" fill="#0C0A35"/>
<path d="M198.078 180.527C196.649 180.241 196.185 182.455 197.613 182.741C199.042 183.027 199.507 180.812 198.078 180.527Z" fill="#0C0A35"/>
<path d="M238.367 183.249C236.009 183.035 234.366 184.821 233.83 193.787C233.294 202.717 230.83 209.432 227.794 213.611C224.722 217.791 220.149 224.685 223.971 226.113C227.758 227.542 233.294 222.291 236.509 216.112C239.903 209.611 240.581 203.646 241.439 198.109C242.367 192.144 241.046 183.464 238.367 183.249Z" fill="#990028"/>
<path d="M237.766 195.285C237.301 195.321 236.98 195.214 236.551 195.071C235.301 194.571 235.73 192.463 237.087 192.463C237.551 192.463 237.873 192.535 238.301 192.713C239.48 193.32 239.123 195.214 237.766 195.285Z" fill="#0C0A35"/>
<path d="M236.659 198.992C237.767 199.207 238.481 200.314 238.267 201.421C238.052 202.529 236.945 203.243 235.838 203.029C234.73 202.814 234.016 201.707 234.23 200.6C234.444 199.492 235.552 198.778 236.659 198.992Z" fill="#0C0A35"/>
<path d="M234.807 210.745C234.735 210.745 234.628 210.78 234.557 210.78C233.271 210.923 232.199 209.637 232.485 208.387C232.735 207.172 234.2 206.351 235.343 206.994C235.414 207.03 235.486 207.065 235.557 207.101C237.2 208.065 236.7 210.53 234.807 210.745Z" fill="#0C0A35"/>
<path d="M237.698 188.141C239.127 188.427 238.699 190.677 237.234 190.356C235.805 190.07 236.27 187.855 237.698 188.141Z" fill="#0C0A35"/>
<path d="M192.58 167.204C192.508 167.168 192.437 167.132 192.365 167.096C191.222 166.454 189.758 167.275 189.508 168.49C189.258 169.704 190.329 171.026 191.615 170.847C191.687 170.847 191.794 170.811 191.865 170.811C193.758 170.597 194.258 168.132 192.58 167.204Z" fill="#0C0A35"/>
<path d="M201.579 161.571C201.508 161.535 201.436 161.499 201.365 161.463C200.222 160.82 198.757 161.642 198.507 162.857C198.257 164.071 199.329 165.393 200.615 165.214C200.686 165.214 200.758 165.178 200.865 165.178C202.758 164.964 203.258 162.535 201.579 161.571Z" fill="#0C0A35"/>
<path d="M210.545 156.273C210.474 156.237 210.403 156.201 210.331 156.166C209.188 155.523 207.724 156.344 207.473 157.559C207.223 158.773 208.295 160.095 209.581 159.916C209.652 159.916 209.76 159.881 209.831 159.881C211.76 159.666 212.224 157.202 210.545 156.273Z" fill="#0C0A35"/>
<path d="M219.054 152.057C218.982 152.022 218.911 151.986 218.839 151.95C217.696 151.307 216.232 152.129 215.982 153.343C215.732 154.558 216.803 155.879 218.089 155.701C218.161 155.701 218.232 155.665 218.339 155.665C220.232 155.451 220.733 152.986 219.054 152.057Z" fill="#0C0A35"/>
<path d="M57.5427 81.7475C58.2236 81.5651 58.949 81.6605 59.5594 82.0129C60.1699 82.3653 60.6153 82.9457 60.7976 83.6267L82.1907 163.467C82.7612 165.596 82.4123 167.759 81.3886 169.532C80.3649 171.305 78.6663 172.689 76.537 173.259L52.3867 83.1291L57.5427 81.7475Z" fill="#990028"/>
<path d="M86.9213 117.255C96.4991 100.666 90.8152 79.4533 74.2261 69.8756C57.6369 60.2978 36.4244 65.9817 26.8466 82.5708C17.2688 99.16 22.9527 120.373 39.5419 129.95C56.1311 139.528 77.3436 133.844 86.9213 117.255Z" fill="#F70032"/>
<path d="M47.9111 66.4262C56.4905 64.1274 65.9446 65.0942 74.2261 69.8755C90.7887 79.438 96.4838 100.692 86.9213 117.255C82.1402 125.536 74.436 131.101 65.8567 133.399L47.9111 66.4262Z" fill="#990028"/>
<path d="M77.6761 111.917C84.3059 100.434 80.3715 85.7506 68.8883 79.1208C57.4051 72.4909 42.7216 76.4254 36.0918 87.9086C29.462 99.3918 33.3964 114.075 44.8796 120.705C56.3628 127.335 71.0463 123.4 77.6761 111.917Z" fill="#E1FAFF"/>
<path d="M77.6761 111.917C74.3666 117.65 69.0337 121.501 63.095 123.093L50.673 76.7332C56.6117 75.1419 63.156 75.8112 68.8883 79.1208C80.3532 85.74 84.2953 100.452 77.6761 111.917Z" fill="#C7F5FF"/>
<path d="M88.8512 200.565C89.7442 200.636 90.6372 200.707 91.5302 200.493C93.3877 200.029 94.7093 198.279 95.2808 196.421C95.8523 194.564 95.8523 192.635 96.0309 190.706C96.2809 188.027 96.9596 185.384 97.9598 182.883C98.8885 180.597 100.103 178.418 100.424 175.989C101.067 170.917 97.6383 166.273 94.2449 162.416C90.8157 158.451 87.0652 157.701 83.5646 148.949C81.7786 144.52 81.1713 142.234 80.2783 141.734C78.8852 140.984 77.5994 142.698 76.9921 143.52C76.3849 146.663 76.0635 146.842 77.1351 151.878C77.778 154.95 77.3136 156.2 80.1355 163.487C81.1 165.952 80.7785 164.523 82.1358 166.809C79.9212 169.131 77.5637 167.309 74.5632 168.488C71.5985 169.667 70.6697 173.382 70.4197 176.561C70.1696 180.026 70.2411 183.49 70.634 186.92C71.0984 190.92 72.2414 195.207 75.4562 197.636C78.0281 199.564 81.4571 199.922 84.6719 200.207C86.0293 200.315 87.4581 200.422 88.8512 200.565Z" fill="#FCC07E"/>
<path d="M75.4586 167.918C74.8863 165.782 76.1538 163.586 78.2896 163.014C80.4255 162.442 82.6209 163.709 83.1932 165.845L89.8075 190.53C90.3798 192.666 89.1123 194.861 86.9764 195.434C84.8405 196.006 82.6451 194.738 82.0728 192.602L75.4586 167.918Z" fill="#990028"/>
<path d="M86.1691 171.947C85.669 173.555 84.0259 174.769 82.347 174.805C80.8468 174.841 79.4537 174.055 78.1677 173.269C77.1319 172.662 76.096 172.055 75.0959 171.447C73.2384 170.34 71.381 169.233 70.0593 167.554C68.7377 165.875 68.0947 163.482 69.0234 161.553C69.6307 160.267 71.4881 155.873 76.4175 158.338C79.0608 159.66 82.7756 164.446 85.5618 167.982C86.2762 168.947 86.562 170.769 86.1691 171.947Z" fill="#FFD6A1"/>
<path d="M78.8613 173.305C79.9686 174.913 83.3263 175.77 85.1123 174.841C87.1483 173.77 87.7199 171.019 86.1482 169.341C86.041 169.198 85.7552 169.305 85.791 169.483C85.9338 170.769 85.7552 173.055 84.3264 173.555C82.8976 174.056 80.6473 173.52 79.3614 172.841C79.0399 172.698 78.6469 173.02 78.8613 173.305Z" fill="#0C0A35"/>
<path d="M77.931 172.637C79.5742 174.602 82.6819 176.781 82.1103 179.746C81.6103 182.461 77.7882 180.782 76.3237 180.532C75.9308 180.46 75.645 180.817 75.8236 181.175C76.9309 183.496 81.7531 182.996 83.1105 181.139C84.1821 179.639 83.7177 177.745 82.9676 176.209C82.0389 174.245 80.0743 173.173 78.2526 172.245C77.9669 172.066 77.7167 172.387 77.931 172.637Z" fill="#0C0A35"/>
<path d="M76.9638 182.059C77.8211 183.024 79.0713 183.381 79.9643 184.274C81.0002 185.274 81.7504 187.346 80.7145 188.56C79.2857 190.203 76.6424 189.203 74.8921 188.917C74.5706 188.882 74.3206 189.167 74.4635 189.453C75.6422 191.846 80.0358 191.025 81.6075 189.453C82.6434 188.417 82.6076 186.596 82.0361 185.345C81.6432 184.488 81.1073 183.774 80.4287 183.166C79.5714 182.381 78.3569 182.238 77.4639 181.523C77.1067 181.273 76.6423 181.702 76.9638 182.059Z" fill="#0C0A35"/>
<path d="M76.9282 196.285C78.9642 196.892 81.3932 196.499 81.9647 194.142C82.5362 191.82 80.8217 190.391 78.8214 189.712C78.3213 189.534 76.071 189.034 76.3568 190.284C76.6425 191.463 78.3928 191.713 79.3572 192.07C80.4646 192.498 81.1075 193.534 80.2145 194.642C79.5715 195.463 77.8569 195.606 76.9282 195.892C76.7496 195.963 76.7496 196.249 76.9282 196.285Z" fill="#0C0A35"/>
<path d="M82.4483 178.76C81.666 176.621 80.9003 175.493 78.8001 173.652L76.6112 172.193L73.6927 170.734L75.152 180.219C75.152 180.219 78.8001 182.408 80.989 181.678C83.1779 180.948 82.4483 178.76 82.4483 178.76Z" fill="#FCC07E"/>
<path d="M81.7186 187.515C81.7186 186.056 80.1973 184.308 79.5297 183.867L77.3408 187.515L74.4223 188.974H76.6112L78.8001 189.704C78.8001 189.704 81.7186 188.974 81.7186 187.515Z" fill="#FCC07E"/>
</svg>
