<svg width="58" height="58" viewBox="0 0 58 58" fill="none" xmlns="http://www.w3.org/2000/svg">
<path d="M28.5482 0.5H29.4517C34.4564 0.5 38.1798 0.500389 41.1301 0.741431C44.0744 0.981997 46.2046 1.45977 48.0307 2.39024C51.294 4.05294 53.9471 6.70603 55.6098 9.96926C56.5402 11.7954 57.018 13.9256 57.2586 16.8699C57.4996 19.8202 57.5 23.5436 57.5 28.5482V29.4517C57.5 34.4564 57.4996 38.1798 57.2586 41.1301C57.018 44.0744 56.5402 46.2046 55.6098 48.0307C53.9471 51.294 51.294 53.9471 48.0307 55.6098C46.2046 56.5402 44.0744 57.018 41.1301 57.2586C38.1798 57.4996 34.4564 57.5 29.4517 57.5H28.5483C23.5436 57.5 19.8202 57.4996 16.87 57.2586C13.9256 57.018 11.7954 56.5402 9.96926 55.6098C6.70603 53.9471 4.05294 51.294 2.39024 48.0307C1.45977 46.2046 0.981997 44.0744 0.741431 41.1301C0.500389 38.1798 0.5 34.4564 0.5 29.4517V28.5483C0.5 23.5436 0.500389 19.8202 0.741431 16.87C0.981997 13.9256 1.45977 11.7954 2.39024 9.96926C4.05294 6.70603 6.70603 4.05294 9.96926 2.39024C11.7954 1.45977 13.9256 0.981997 16.8699 0.741431C19.8202 0.500389 23.5436 0.5 28.5482 0.5Z" fill="url(#paint0_linear)" stroke="url(#paint1_linear)"/>
<mask id="mask0" mask-type="alpha" maskUnits="userSpaceOnUse" x="0" y="0" width="58" height="58">
<path d="M28.5482 0.5H29.4517C34.4564 0.5 38.1798 0.500389 41.1301 0.741431C44.0744 0.981997 46.2046 1.45977 48.0307 2.39024C51.294 4.05294 53.9471 6.70603 55.6098 9.96926C56.5402 11.7954 57.018 13.9256 57.2586 16.8699C57.4996 19.8202 57.5 23.5436 57.5 28.5482V29.4517C57.5 34.4564 57.4996 38.1798 57.2586 41.1301C57.018 44.0744 56.5402 46.2046 55.6098 48.0307C53.9471 51.294 51.294 53.9471 48.0307 55.6098C46.2046 56.5402 44.0744 57.018 41.1301 57.2586C38.1798 57.4996 34.4564 57.5 29.4517 57.5H28.5483C23.5436 57.5 19.8202 57.4996 16.87 57.2586C13.9256 57.018 11.7954 56.5402 9.96926 55.6098C6.70603 53.9471 4.05294 51.294 2.39024 48.0307C1.45977 46.2046 0.981997 44.0744 0.741431 41.1301C0.500389 38.1798 0.5 34.4564 0.5 29.4517V28.5483C0.5 23.5436 0.500389 19.8202 0.741431 16.87C0.981997 13.9256 1.45977 11.7954 2.39024 9.96926C4.05294 6.70603 6.70603 4.05294 9.96926 2.39024C11.7954 1.45977 13.9256 0.981997 16.8699 0.741431C19.8202 0.500389 23.5436 0.5 28.5482 0.5Z" stroke="url(#paint2_linear)"/>
</mask>
<g mask="url(#mask0)">
<g filter="url(#filter0_f)">
<path d="M11.8208 5.7989C11.8208 3.5817 13.6182 1.7843 15.8354 1.7843H43.9376C46.1548 1.7843 47.9522 3.5817 47.9522 5.7989V5.7989C47.9522 8.0161 46.1548 9.8135 43.9376 9.8135H15.8354C13.6182 9.8135 11.8208 8.0161 11.8208 5.7989V5.7989Z" fill="#202538"/>
</g>
<g filter="url(#filter1_f)">
<path d="M54.9475 47.0978C53.9841 47.0978 53.2031 46.3168 53.2031 45.3534V12.4286C53.2031 11.4652 53.9841 10.6842 54.9475 10.6842V10.6842C55.9109 10.6842 56.6918 11.4652 56.6918 12.4286V45.3534C56.6918 46.3168 55.9109 47.0978 54.9475 47.0978V47.0978Z" fill="#202538"/>
</g>
<g filter="url(#filter2_f)">
<path d="M5.01861 47.0601C3.72524 47.0601 2.67676 46.0116 2.67676 44.7182L2.67676 13.0475C2.67676 11.7541 3.72524 10.7056 5.01861 10.7056V10.7056C6.31197 10.7056 7.36046 11.7541 7.36046 13.0475L7.36046 44.7182C7.36046 46.0116 6.31197 47.0601 5.01861 47.0601V47.0601Z" fill="#D8D8DA"/>
</g>
<g filter="url(#filter3_f)">
<path d="M2.94531 14.8398C2.75762 14.8398 2.60547 14.6877 2.60547 14.5L2.60547 11.1016C2.60547 10.9139 2.75762 10.7617 2.94531 10.7617V10.7617C3.133 10.7617 3.28516 10.9139 3.28516 11.1016V14.5C3.28516 14.6877 3.133 14.8398 2.94531 14.8398V14.8398Z" fill="#202538"/>
</g>
<g filter="url(#filter4_f)">
<path d="M51.4563 12.1688C50.4719 12.418 49.4718 11.8221 49.2225 10.8377L48.6265 8.4841C48.3772 7.49968 48.9732 6.49957 49.9576 6.2503V6.2503C50.942 6.00103 51.9421 6.59698 52.1914 7.5814L52.7874 9.93496C53.0367 10.9194 52.4407 11.9195 51.4563 12.1688V12.1688Z" fill="#202538"/>
</g>
<g filter="url(#filter5_f)">
<path d="M5.92989 11.0428C5.22702 10.758 4.88805 9.95743 5.17279 9.25456L6.43398 6.1413C6.71871 5.43843 7.51933 5.09946 8.2222 5.3842V5.3842C8.92508 5.66894 9.26404 6.46955 8.97931 7.17243L7.71812 10.2857C7.43338 10.9886 6.63276 11.3275 5.92989 11.0428V11.0428Z" fill="#202538"/>
</g>
<g filter="url(#filter6_f)">
<path d="M11.4572 53.3685C11.0634 53.6505 10.5155 53.5599 10.2334 53.166L8.73292 51.0708C8.45087 50.677 8.54149 50.129 8.93532 49.847V49.847C9.32916 49.565 9.87707 49.6556 10.1591 50.0494L11.6597 52.1447C11.9417 52.5385 11.8511 53.0864 11.4572 53.3685V53.3685Z" fill="#202538"/>
</g>
</g>
<path d="M26.1894 27.0834C25.2257 27.2257 24.2619 27.3977 23.3621 27.7002C21.4172 28.3585 19.873 29.6218 18.8163 31.0631C17.7597 32.5043 17.1501 34.1175 16.6857 35.7366C15.1472 36.2942 13.3301 38.6665 13.0282 39.9713C11.8439 45.0838 12.7379 47.2071 18.1893 49.9887C19.3969 50.6055 36.7729 53.5948 41.5044 49.8108C44.5349 47.391 45.6961 46.1099 45.8064 42.1658C45.9167 38.2276 47.4725 34.0345 45.1271 30.5471C44.6801 29.8828 44.146 29.2423 43.4609 28.7144C41.429 27.1368 38.3869 26.7038 35.5305 26.5911C32.4129 26.4666 29.2663 26.6326 26.1894 27.0834Z" fill="#990028"/>
<path d="M31.7682 52.1297C32.7319 51.9874 33.6956 51.8154 34.5955 51.5129C36.5404 50.8546 38.0788 49.5913 39.1412 48.15C40.1979 46.7088 40.8074 45.0956 41.2719 43.4765C42.8104 42.9189 44.6275 40.5525 44.9294 39.2418C46.1137 34.1293 45.2197 32.006 39.7683 29.2244C38.5665 28.6076 24.3081 25.0253 15.8726 30.2089C14.5315 31.0333 12.366 32.6643 12.2557 36.6084C12.1454 40.5466 10.4792 45.1786 12.8247 48.666C13.2717 49.3303 13.8058 49.9708 14.4851 50.4987C16.517 52.0763 19.5591 52.5093 22.4154 52.622C25.5504 52.7465 28.6971 52.5864 31.7682 52.1297Z" fill="#990028"/>
<path d="M16.534 41.7565C14.8388 42.7529 13.1784 42.3971 11.4832 43.3935C10.8794 44.5381 11.2161 47.64 11.9186 48.8084C13.3758 51.2164 17.2829 51.5426 18.4498 51.1274C20.9346 50.2437 21.6893 48.7194 23.9593 47.3613C28.9579 44.3602 34.4383 42.2073 39.1989 38.8326C41.5965 37.1304 44.5748 37.5515 46.1481 35.0486C46.9202 33.8209 46.061 31.7095 44.8593 30.037C43.9304 28.7499 42.8041 27.3621 41.2482 27.2257C39.6227 27.0833 36.8418 28.0323 35.4717 28.9338C34.1016 29.8353 32.9056 30.98 31.5936 31.9645C28.4237 34.3488 24.6269 35.7603 21.4861 38.1861C20.5862 38.88 19.7444 39.651 18.8272 40.3094C18.0957 40.8372 17.3177 41.2998 16.534 41.7565Z" fill="#222272"/>
<path d="M21.7017 45.7717C22.6074 45.0719 23.5362 43.8975 23.5711 42.7351C23.6001 41.8751 23.3911 40.5288 22.6016 39.4849C22.23 38.9986 21.8236 38.7257 21.8178 37.8835C21.8584 37.7116 21.8933 37.5751 21.9049 37.5099C22.9499 32.0238 22.05 31.8755 20.6857 31.2231C19.722 30.7605 19.1763 31.5612 18.9383 31.8043C17.5798 33.1922 17.1734 33.7912 16.976 34.7461C16.9005 35.1197 16.9527 35.5527 16.7147 35.8433C16.5522 36.039 16.2909 36.1161 16.0645 36.2288C15.8961 36.3178 15.6929 36.4483 15.4839 36.5965C14.5376 37.1185 13.69 37.9191 13.452 38.0911C13.0921 38.3521 12.7147 38.5182 12.0587 39.2595C11.1414 40.3034 10.9788 42.0945 11.0021 42.5334C11.0833 44.117 11.8845 45.2083 12.8831 45.7539C14.5144 46.6139 18.915 47.9306 21.7017 45.7717Z" fill="#F70032"/>
<path d="M36.39 33.6192C35.4785 34.3132 34.5438 35.4816 34.4916 36.6381C34.4567 37.4922 34.6541 38.8503 35.4321 39.9001C35.7978 40.3924 36.2042 40.6652 36.2042 41.5074C36.1578 41.6794 36.1229 41.8158 36.1113 41.8811C35.0199 47.3613 35.9255 47.5155 37.2782 48.1738C38.2362 48.6423 38.7877 47.8476 39.0315 47.6044C40.4016 46.2225 40.808 45.6354 41.017 44.6805C41.0983 44.3068 41.046 43.8798 41.2899 43.5892C41.4524 43.3935 41.7137 43.3164 41.9401 43.2037C42.1085 43.1206 42.3116 42.9902 42.5206 42.8419C43.4728 42.3259 44.3262 41.5311 44.5642 41.3591C44.9241 41.0982 45.3073 40.938 45.9691 40.2026C46.898 39.1647 47.0664 37.3735 47.049 36.9406C46.9793 35.357 46.1898 34.2598 45.1912 33.7082C43.5831 32.8364 39.1883 31.4841 36.39 33.6192Z" fill="#F70032"/>
<path d="M24.4075 28.7737C25.0752 29.4557 26.1086 29.5743 27.0549 29.6277C27.618 29.6574 28.187 29.6752 28.7501 29.687C29.1449 29.693 29.5397 29.693 29.9228 29.6158C30.4685 29.5091 30.9736 29.26 31.4671 28.999C32.4192 28.5008 33.3597 27.973 34.277 27.4095C34.5382 27.2494 34.7995 27.0893 35.0143 26.8698C35.4962 26.3953 35.7168 25.7133 35.8503 25.0431C36.3206 22.6826 35.8909 20.239 35.4613 17.8666C35.4033 17.5345 35.3394 17.2024 35.1827 16.9058C34.8575 16.2949 34.1783 15.9806 33.5223 15.8027C32.4482 15.512 31.322 15.4942 30.2189 15.5476C28.4018 15.6307 26.573 15.9153 24.8778 16.5915C24.901 17.0956 24.93 17.6057 24.9533 18.1098C24.9591 18.2106 24.9649 18.3174 24.9359 18.4123C24.8836 18.5843 24.7385 18.7029 24.5991 18.8215C23.4322 19.8179 22.7065 21.2354 22.0099 22.6173C21.7138 23.2045 21.4061 23.8332 21.4641 24.4915C21.766 24.6457 22.1318 24.6516 22.4337 24.5093C22.7181 24.3788 23.0026 24.1238 23.2929 24.2424C23.5658 24.3492 23.6238 24.711 23.6296 25.0075C23.6412 25.6658 23.5948 26.3301 23.6644 26.9825C23.7399 27.6408 23.9489 28.3051 24.4075 28.7737Z" fill="#FFD6A1"/>
<path d="M25.9458 19.468C25.8122 18.8156 25.7426 18.1869 25.8587 17.748C25.8819 17.659 25.8819 17.5642 25.9342 17.4989C26.0212 17.3922 26.1722 17.3744 26.3057 17.3684C27.5423 17.2973 28.7905 16.977 30.0155 17.149C32.3667 17.4811 32.2158 18.3648 32.239 18.6317C32.2448 18.7207 32.0706 18.7266 32.001 18.78C31.9719 18.7978 31.9371 18.8037 31.9023 18.8097C30.8689 18.9994 29.8413 19.1892 28.8079 19.385C28.448 19.4502 28.0938 19.5154 27.7281 19.5688C27.223 19.64 26.7818 19.8476 26.2767 19.8535C26.2128 19.8594 26.0271 19.8772 25.9458 19.468Z" fill="#0C0A35"/>
<path d="M27.831 18.3767C29.236 17.7539 30.8209 18.0149 32.2316 18.6317C32.2374 18.7859 32.1387 18.9223 32.04 19.0409C31.326 19.895 30.2984 20.4584 29.2127 20.6008C28.1271 20.7431 26.9892 20.4584 26.0894 19.812C26.2055 19.5095 26.728 18.8689 27.831 18.3767Z" fill="white"/>
<path d="M29.1102 20.1737C29.4528 20.1559 29.8185 19.978 29.9811 19.6222C30.1843 19.1892 29.9869 18.5724 29.5863 18.4004C29.3889 18.3173 29.1741 18.3292 28.9651 18.3648C28.6168 18.4241 28.2278 18.5783 28.0885 18.9579C27.9724 19.2722 28.0827 19.6518 28.2975 19.8772C28.5123 20.1085 28.82 20.1915 29.1102 20.1737Z" fill="#0C0A35"/>
<path d="M36.4476 27.623C36.2676 30.4343 35.6406 33.1922 33.3126 34.7164C31.8554 35.6654 29.5564 36.1398 27.8495 36.4127C27.2516 36.5076 26.6536 36.5965 26.0498 36.5965C25.1732 36.5906 24.314 36.3889 23.4605 36.1873C23.3386 36.1576 23.2109 36.128 23.118 36.039C22.9264 35.8611 22.9555 35.5527 23.0077 35.2917C23.1122 34.7935 23.2457 34.3072 23.4141 33.8268C24.0179 32.0534 24.0933 31.2646 24.0121 28.4059C24.0063 28.2635 23.8437 27.4095 23.8901 27.2731C23.983 26.9884 24.2559 27.2256 24.5462 27.19C27.925 26.7808 31.5303 27.8484 34.8859 27.2909C35.1878 27.2434 35.4896 27.1782 35.7915 27.2256C36.0934 27.279 36.465 27.3146 36.4476 27.623Z" fill="#D6002B"/>
<path d="M22.3911 36.8043C23.082 36.6323 23.4129 36.1756 23.7554 35.5588C24.2083 34.7344 24.7366 33.8329 24.8875 32.8958C25.0559 31.8638 25.0907 30.7369 25.1836 29.6871C25.2823 28.584 24.8817 27.5461 25.0791 26.4429C25.1139 26.259 24.8643 26.1286 24.7714 26.3124C24.4985 26.8284 24.5624 27.3681 24.6263 27.9375C24.754 29.1 24.725 30.0964 24.5508 31.2588C24.394 32.3264 24.4753 33.1923 23.9528 34.1887C23.5 35.0665 23.1981 36.0807 22.304 36.6026C22.1937 36.656 22.2692 36.8339 22.3911 36.8043Z" fill="#0C0A35"/>
<path d="M23.2509 37.344C23.8779 36.7865 24.4817 36.3891 24.9926 35.6833C25.5905 34.853 25.8982 33.7914 26.1188 32.8009C26.6065 30.5887 26.3743 28.4654 26.0201 26.265C25.9911 26.0871 25.7531 26.1286 25.7067 26.265C25.4512 26.9708 25.6602 27.635 25.7995 28.3527C26.0434 29.5863 25.8576 31.0513 25.666 32.279C25.4918 33.3999 25.1261 34.4497 24.5397 35.4105C24.1217 36.0866 23.396 36.5077 23.1058 37.255C23.0709 37.344 23.1928 37.3915 23.2509 37.344Z" fill="#0C0A35"/>
<path d="M24.6966 37.4566C26.3744 36.389 27.071 34.7106 27.5239 32.7889C27.7677 31.7392 27.9244 30.6657 27.9651 29.5862C28.0115 28.3051 27.431 27.1427 27.611 25.8557C27.64 25.6481 27.3903 25.5117 27.2684 25.7074C26.9143 26.2827 27.0246 26.8817 27.1523 27.5282C27.431 28.9398 27.489 30.12 27.2568 31.5553C26.9027 33.7616 26.1305 35.701 24.6327 37.3676C24.5863 37.4151 24.6443 37.4922 24.6966 37.4566Z" fill="#0C0A35"/>
<path d="M25.9047 37.8538C27.629 36.7388 28.4417 34.7816 28.7669 32.8125C29.1152 30.7248 29.3648 28.3821 28.7785 26.3181C28.7436 26.1995 28.5695 26.1936 28.5405 26.3181C28.3605 27.1366 28.5579 27.9729 28.6101 28.8032C28.6914 29.9657 28.5346 31.1697 28.3721 32.3203C28.2386 33.3048 28.0702 34.2775 27.6464 35.1849C27.1878 36.1635 26.3169 36.8278 25.7886 37.7471C25.7538 37.8123 25.8351 37.9013 25.9047 37.8538Z" fill="#0C0A35"/>
<path d="M27.4659 37.6878C29.1902 36.7151 29.7591 34.9239 30.1655 33.0853C30.3919 32.083 30.508 31.0866 30.5196 30.0546C30.5312 28.9218 30.2584 27.8424 30.1945 26.7274C30.1771 26.4249 29.7823 26.3715 29.6836 26.6562C29.4398 27.3679 29.7359 28.1152 29.8056 28.8447C29.9042 29.9419 29.8752 31.0332 29.7185 32.1305C29.5849 33.0379 29.3933 33.9631 29.1437 34.8409C28.8128 36.0152 27.9304 36.5905 27.3556 37.5751C27.315 37.6462 27.3962 37.7233 27.4659 37.6878Z" fill="#0C0A35"/>
<path d="M28.9634 37.682C30.496 37.0829 31.0998 34.9834 31.4424 33.5125C31.6804 32.4864 31.7791 31.4248 31.872 30.381C31.9881 29.0584 32.1797 27.4866 31.8139 26.1996C31.7791 26.0869 31.6223 26.0869 31.5933 26.1996C31.3378 27.1011 31.4191 28.0679 31.3843 28.999C31.3379 30.2505 31.2566 31.5078 31.0824 32.7474C30.8095 34.6928 30.1419 36.0984 28.8995 37.5752C28.8647 37.6167 28.8995 37.7057 28.9634 37.682Z" fill="#0C0A35"/>
<path d="M30.6116 37.3142C32.1152 36.4186 32.7422 34.8232 32.9512 33.0854C33.2357 30.6775 33.7291 28.0619 33.3692 25.6421C33.3518 25.5116 33.166 25.5057 33.108 25.6065C32.7654 26.2115 32.9106 26.8461 32.9106 27.5281C32.9106 28.7262 32.8119 29.9242 32.6783 31.1164C32.4171 33.4294 32.2603 35.4934 30.5709 37.2549C30.5361 37.2846 30.5767 37.3379 30.6116 37.3142Z" fill="#0C0A35"/>
<path d="M32.7899 36.3712C33.922 35.2621 34.4794 33.5184 34.729 31.9763C34.8567 31.1638 34.8799 30.3453 34.8219 29.5209C34.7638 28.6906 34.8509 27.7772 34.4736 27.024C34.3923 26.8639 34.2007 26.9647 34.1833 27.107C33.9975 28.5779 34.2994 30.031 34.1659 31.5078C34.0846 32.3915 33.8756 33.2515 33.5853 34.0878C33.3415 34.7995 33.1963 35.7425 32.7551 36.3474C32.7435 36.3652 32.7725 36.389 32.7899 36.3712Z" fill="#0C0A35"/>
<path d="M35.1174 34.2776C35.8721 33.1567 36.023 32.0061 36.1623 30.6657C36.2843 29.4498 36.3714 27.8722 35.8489 26.7453C35.8024 26.6386 35.6399 26.6742 35.6108 26.775C35.3264 27.8663 35.6108 29.1058 35.5702 30.2327C35.5237 31.5968 35.0825 32.8957 35.0303 34.248C35.0361 34.3014 35.0941 34.3132 35.1174 34.2776Z" fill="#0C0A35"/>
<path d="M33.4989 28.7322C32.9125 28.0738 32.3146 27.2435 32.5062 26.3717C32.6339 25.8082 33.0693 25.3812 33.406 24.9126C33.7427 24.4441 33.9808 23.7917 33.6789 23.3054C33.4408 22.9198 32.9706 22.7834 32.6106 22.5165C32.0359 22.0836 31.7863 21.2473 32.0359 20.5593C32.181 20.156 32.4655 19.8298 32.6455 19.4443C33.017 18.6496 32.9067 17.6828 32.5062 16.8999C32.1056 16.117 31.4495 15.5062 30.7471 14.9961C31.8269 15.0495 32.8603 15.0317 33.9401 15.091C34.5265 15.1206 35.1128 15.1503 35.676 15.3223C36.7036 15.6366 37.5686 16.4492 37.975 17.4634C38.213 18.0624 38.2943 18.7207 38.5149 19.3316C38.6833 19.8002 38.9387 20.2331 39.1709 20.672C40.4423 23.0859 41.139 25.8023 42.6136 28.0916C42.7123 28.2458 42.811 28.4475 42.7065 28.5898C42.6427 28.6729 42.5323 28.7025 42.4278 28.7203C41.2551 28.922 40.0592 28.7322 38.869 28.7678C37.6905 28.8034 36.5294 29.0584 35.3567 29.1414C34.6658 29.1948 33.9633 29.2541 33.4989 28.7322Z" fill="#D6002B"/>
<path d="M36.3438 13.8987C36.4716 12.505 36.3439 10.3995 36.1232 8.6795C35.9839 7.60599 35.6878 6.50284 35.6124 5.75554C35.4904 4.49224 34.666 4.74134 34.6254 5.12685C34.3351 7.98557 34.5209 9.409 34.01 11.6865C33.8881 12.2321 33.0637 12.1906 32.9418 11.7695C32.6167 10.6723 32.576 9.68183 32.4483 8.57274C32.2045 6.47318 31.9955 5.25734 31.6297 4.79472C31.4614 4.58121 31.0898 4.56341 30.9969 4.82438C30.1435 7.27386 31.235 11.6568 29.8707 12.1728C29.6036 12.2737 29.3133 12.0779 29.2553 11.7992C28.7792 9.55135 29.3714 7.0129 28.2974 4.97265C28.2277 4.84217 28.1348 4.70576 27.9955 4.68203C27.7865 4.64645 27.6297 4.87775 27.5484 5.07941C26.637 7.33317 27.6994 11.5857 26.8402 12.3567C26.5208 12.6473 26.2654 12.4694 26.2248 12.0364C25.8648 8.20502 25.5339 5.64285 24.7734 5.32851C24.3496 5.15651 24.158 6.4969 24.1754 7.01883C24.2567 9.753 24.4076 12.4812 24.5586 15.2095C24.5412 15.1502 24.547 15.1086 24.576 15.162C24.605 15.2154 24.6747 15.2154 24.7327 15.2095C28.396 14.9485 32.0594 14.6816 35.7168 14.4207C35.8562 14.4088 35.9839 14.3673 36.1058 14.2961C36.2219 14.2012 36.3322 14.0351 36.3438 13.8987Z" fill="#F70032"/>
<path d="M24.4875 16.5796C24.8707 17.0601 34.3279 16.0577 36.354 15.951C36.5514 15.9391 36.7256 15.8146 36.8011 15.6307C36.9752 15.2096 36.8591 14.8359 36.7546 14.3852C36.7372 14.2962 36.7082 14.2013 36.6443 14.1361C36.5398 14.0293 36.3715 14.0293 36.2205 14.0412C33.2887 14.231 30.3511 14.4208 27.4193 14.6106L24.9113 14.7707C24.7197 14.7826 24.5339 14.83 24.3714 14.9308C23.9476 15.1918 24.0289 15.5417 24.1101 15.8561C24.1856 16.1289 24.3191 16.3602 24.4875 16.5796Z" fill="#0C0A35"/>
<path d="M24.6667 5.34634C24.8525 5.34634 25.0093 5.1862 25.0093 4.99641C25.0093 4.80662 24.8525 4.64648 24.6667 4.64648C24.481 4.64648 24.3242 4.80662 24.3242 4.99641C24.3242 5.1862 24.481 5.34634 24.6667 5.34634Z" fill="#0C0A35"/>
<path d="M27.9598 4.88381C28.401 4.88381 28.401 4.18396 27.9598 4.18396C27.5186 4.18396 27.5186 4.88381 27.9598 4.88381Z" fill="#0C0A35"/>
<path d="M31.2926 4.73544C31.4899 4.73544 31.6525 4.56937 31.6525 4.36772C31.6525 4.16607 31.4899 4 31.2926 4C31.0952 4 30.9326 4.16607 30.9326 4.36772C30.9326 4.56344 31.101 4.73544 31.2926 4.73544Z" fill="#0C0A35"/>
<path d="M35.0318 5.02013C35.235 5.02013 35.4033 4.84813 35.4033 4.64648C35.4033 4.43889 35.235 4.27283 35.0318 4.27283C34.8344 4.27283 34.666 4.44482 34.666 4.64648C34.666 4.84813 34.8344 5.02013 35.0318 5.02013Z" fill="#0C0A35"/>
<path d="M25.1025 11.5264C24.9109 12.4397 25.1547 13.3709 25.2128 14.2902C25.2302 14.6105 25.6772 14.6105 25.6946 14.2902C25.7585 13.365 25.3927 12.4694 25.3115 11.556C25.2998 11.4374 25.1257 11.3959 25.1025 11.5264Z" fill="#0C0A35"/>
<path d="M28.087 11.39C27.9651 11.8941 27.9128 12.4042 27.936 12.9202C27.9535 13.3235 27.936 13.9107 28.2553 14.1953C28.3831 14.314 28.5863 14.2665 28.6385 14.0945C28.7546 13.6912 28.5572 13.1693 28.5282 12.7541C28.4934 12.2974 28.4411 11.8407 28.3366 11.3959C28.3018 11.2714 28.116 11.2714 28.087 11.39Z" fill="#0C0A35"/>
<path d="M31.467 11.2179C31.5715 12.0423 31.5889 12.8667 31.6354 13.6971C31.6586 14.0826 32.2159 14.0885 32.2275 13.6971C32.2449 12.8371 32.0243 11.9949 31.8153 11.1705C31.7689 10.9748 31.4438 11.0104 31.467 11.2179Z" fill="#0C0A35"/>
<path d="M35.2224 11.1707C34.8218 11.7163 34.8625 12.6712 34.9089 13.3117C34.938 13.7506 35.5649 13.7625 35.5824 13.3117C35.594 12.9855 35.5708 12.6534 35.5533 12.3331C35.5359 11.9773 35.5649 11.6155 35.5359 11.2596C35.5243 11.0758 35.3211 11.0342 35.2224 11.1707Z" fill="#0C0A35"/>
<path d="M32.928 15.7253C33.288 16.1701 33.4853 16.9649 33.6247 17.4986C33.8975 18.5306 33.3983 19.4321 33.2125 20.4107C33.0093 21.4902 34.1414 22.0477 34.7742 22.6764C36.2198 24.1057 33.4389 26.0511 33.2763 27.516C33.1544 28.6132 34.153 30.0248 35.0238 30.5527C35.1051 30.6001 35.2154 30.4993 35.1573 30.4162C34.6755 29.752 34.1065 29.2538 33.7872 28.4531C33.2705 27.172 34.2285 26.4306 34.8671 25.5113C35.4128 24.7285 35.9643 23.4118 35.227 22.5399C34.838 22.0773 34.3213 21.7749 33.8917 21.3538C33.1428 20.6242 34.0659 19.4143 34.0833 18.6137C34.1123 17.6113 33.8685 16.2413 32.9454 15.6897C32.928 15.6897 32.9164 15.7134 32.928 15.7253Z" fill="#0C0A35"/>
<path d="M34.2225 15.8617C35.8306 16.9174 34.4954 18.3942 34.6695 19.7821C34.7102 20.1023 35.0121 20.387 35.2153 20.6065C35.8423 21.2826 36.4751 21.7393 36.7653 22.6823C37.3517 24.5802 35.3836 25.5766 34.8321 27.1424C34.4489 28.2277 34.7856 29.319 35.7842 29.924C35.9061 29.9952 36.0629 29.8469 35.9816 29.7223C35.8132 29.4614 35.6332 29.2182 35.4533 28.975C34.8785 28.1921 35.2733 27.4093 35.6913 26.6857C36.0919 25.9918 36.7189 25.4817 37.073 24.7641C37.6071 23.6846 37.4039 22.196 36.6318 21.2944C36.1325 20.7073 35.0179 20.0964 35.1804 19.1712C35.2849 18.584 35.5171 18.1333 35.5287 17.5224C35.5404 16.7217 35.1688 15.6778 34.2515 15.7312C34.1819 15.7312 34.1586 15.8202 34.2225 15.8617Z" fill="#0C0A35"/>
<path d="M35.5525 15.5417C35.8602 15.7789 36.255 16.6923 36.3885 17.0244C36.6149 17.5997 36.1621 18.7207 36.2434 19.385C36.3014 19.8891 36.5917 20.2034 36.9517 20.5237C37.6832 21.1702 38.316 21.6091 38.6237 22.5936C39.5235 25.4879 34.8849 28.1924 38.1012 30.6597C38.2753 30.7961 38.525 30.5292 38.403 30.3513C37.6541 29.2719 37.2129 28.5305 37.7877 27.1901C38.0779 26.5258 38.525 25.9327 38.763 25.2388C39.2448 23.8628 39.3435 22.5521 38.4959 21.3185C38.1186 20.7728 37.5322 20.4169 37.0562 19.9662C36.2027 19.1537 37.0852 18.0802 36.8994 17.1727C36.8007 16.6864 36.2376 15.3163 35.5583 15.4527C35.5177 15.4705 35.5235 15.5239 35.5525 15.5417Z" fill="#0C0A35"/>
<path d="M38.2587 15.6009C37.295 15.7966 37.4053 17.3209 37.4227 18.086C37.4576 19.717 38.8103 20.2152 39.803 21.2531C40.3836 21.8581 40.1862 22.7121 40.1223 23.4832C40.0236 24.7346 39.4953 25.7725 39.0657 26.9172C38.5548 28.2635 38.8973 30.452 40.5926 30.6537C40.7261 30.6715 40.7493 30.4995 40.6854 30.4164C39.8959 29.3963 39.2399 28.8744 39.5243 27.445C39.6927 26.6028 40.1804 25.8022 40.4184 24.9718C40.6971 23.9754 40.9815 22.4868 40.6158 21.4785C40.2907 20.577 39.1876 20.0373 38.4968 19.4916C37.893 19.0112 37.864 18.3292 37.8465 17.6352C37.8349 17.2319 37.7536 15.8441 38.2703 15.6662C38.3168 15.6484 38.3052 15.5891 38.2587 15.6009Z" fill="#0C0A35"/>
<path d="M42.5768 24.5388C41.1893 23.5602 39.2967 29.0464 41.3692 30.3037C41.4505 30.3512 41.5608 30.2504 41.5028 30.1673C40.8119 29.1828 40.7422 28.0856 40.9977 26.929C41.1777 26.1224 41.7176 24.954 42.5594 24.7227C42.6407 24.699 42.6465 24.5863 42.5768 24.5388Z" fill="#0C0A35"/>
<path d="M43.2037 25.8199C42.5477 25.6894 42.002 26.5019 41.793 27.0476C41.433 27.9965 41.613 29.0463 42.2632 29.8173C42.3097 29.8707 42.42 29.8292 42.4084 29.758C42.3271 29.0107 41.9846 28.3702 42.1065 27.5992C42.2284 26.84 42.7393 26.4486 43.2328 25.9385C43.2676 25.9029 43.256 25.8317 43.2037 25.8199Z" fill="#0C0A35"/>
<path d="M23.1701 24.8889C22.9902 25.654 23.1121 26.4843 23.5068 27.1605C23.6288 27.3681 23.7913 27.5756 24.0177 27.6468C24.2151 27.7061 24.4299 27.6587 24.6215 27.5816C25.4923 27.2435 26.1251 26.3361 26.1484 25.3812C26.4386 26.5733 27.6752 27.285 28.8654 27.4926C30.0497 27.7002 31.2805 27.5578 32.4648 27.7654C32.3487 27.0359 31.9017 26.4132 31.4662 25.826C31.0482 25.2507 30.607 24.6635 29.9916 24.3195C29.3646 23.9696 28.6215 23.9222 27.9074 23.8866C26.5954 23.8154 25.2601 23.7442 23.9771 24.0467C23.8261 24.0823 23.6752 24.1238 23.5533 24.2128C23.3385 24.3611 23.234 24.628 23.1701 24.8889Z" fill="#D6002B"/>
<path d="M25.4536 23.3112C25.3955 23.6967 25.4187 24.0229 25.4419 24.4203C25.5 25.387 24.9485 26.253 24.3273 26.9113C23.648 27.6289 23.23 28.3525 23.2881 29.3786C23.2939 29.4913 23.4274 29.5268 23.4913 29.4379C23.9093 28.8329 23.9906 28.1271 24.4782 27.5459C24.7859 27.1782 25.111 26.8579 25.3897 26.4665C26.1096 25.4404 25.8657 24.3966 25.5406 23.3112C25.5232 23.2756 25.4594 23.2638 25.4536 23.3112Z" fill="#0C0A35"/>
<path d="M24.6872 23.3468C24.6349 23.7086 24.6292 24.0644 24.6233 24.4321C24.6117 25.1972 24.0312 25.7547 23.5725 26.3004C23.0965 26.8638 22.5972 27.5874 22.7481 28.3644C22.7656 28.4593 22.9223 28.4889 22.9629 28.394C23.3577 27.4688 23.8744 26.8104 24.4724 26.0098C25.1749 25.0608 24.9659 24.4737 24.8207 23.3705C24.8149 23.2934 24.6988 23.2578 24.6872 23.3468Z" fill="#0C0A35"/>
<path d="M24.2219 23.4833C24.0942 23.8095 24.0129 24.1357 23.9142 24.4737C23.7749 24.9482 23.4382 25.2329 23.0666 25.5117C22.7067 25.7786 22.3235 26.081 22.2132 26.5377C22.1958 26.6148 22.2829 26.6682 22.3409 26.6148C22.7879 26.17 23.3569 25.9031 23.7981 25.4583C24.3148 24.9364 24.2103 24.1713 24.3032 23.5011C24.309 23.4477 24.2393 23.4299 24.2219 23.4833Z" fill="#0C0A35"/>
<path d="M26.1949 23.3111C25.8814 24.4499 26.9089 25.553 27.5301 26.3952C28.1571 27.2493 29.4808 28.5066 30.6303 28.3168C30.7348 28.299 30.7348 28.1448 30.6593 28.0974C29.6608 27.4628 28.7203 27.0239 27.9307 26.0809C27.2398 25.2565 26.549 24.3787 26.2761 23.3111C26.2587 23.2755 26.2065 23.2755 26.1949 23.3111Z" fill="#0C0A35"/>
<path d="M26.9856 23.1748C26.556 23.851 27.81 25.0253 28.1351 25.4938C28.5067 26.0276 28.9131 26.5614 29.4472 26.9291C29.9349 27.2613 30.4457 27.5519 30.9044 27.9315C31.2585 28.228 31.4908 28.6491 31.8391 28.9516C31.9204 29.0228 32.0597 28.9575 32.0249 28.8448C31.6823 27.6586 30.6431 27.1367 29.7026 26.4902C29.0118 26.0158 28.5473 25.2981 28.0481 24.6398C27.7055 24.195 27.1714 23.7739 27.0611 23.1926C27.0495 23.1511 26.9972 23.1511 26.9856 23.1748Z" fill="#0C0A35"/>
<path d="M28.2572 23.2172C27.9786 24.2492 28.9945 25.0618 29.668 25.6727C30.2195 26.1709 30.7304 26.6513 31.2297 27.2147C31.8393 27.9027 32.1586 28.5432 32.5592 29.3499C32.5998 29.4388 32.7391 29.4151 32.7623 29.3202C33.0468 28.0213 32.1644 27.3689 31.3806 26.503C30.4459 25.4651 28.7449 24.6763 28.4082 23.2172C28.3908 23.1401 28.2805 23.1461 28.2572 23.2172Z" fill="#0C0A35"/>
<path d="M22.3857 24.8829C23.0823 24.3907 23.8545 24.0407 24.7079 23.9933C25.184 23.9696 25.6832 23.8154 26.0141 23.4476C26.5715 22.8249 25.9387 22.0361 25.2826 21.9115C25.1027 21.8759 25.0272 22.1488 25.2072 22.1962C25.5903 22.2911 25.9735 22.4453 25.9851 22.9138C26.0025 23.418 25.3697 23.6315 24.9924 23.7205C24.4699 23.8391 23.988 23.7976 23.4829 24.0289C23.0475 24.2305 22.6353 24.45 22.3566 24.8533C22.345 24.877 22.3683 24.8948 22.3857 24.8829Z" fill="#0C0A35"/>
<path d="M25.0632 10.8444C25.307 10.8444 25.307 10.453 25.0632 10.453C24.8136 10.453 24.8136 10.8444 25.0632 10.8444Z" fill="#0C0A35"/>
<path d="M24.9349 10.1447C24.9465 10.1447 24.9581 10.1447 24.9639 10.1388C25.1961 10.1091 25.1961 9.8007 24.9639 9.77104C24.9523 9.77104 24.9465 9.77104 24.9349 9.76511C24.6968 9.73546 24.6968 10.1743 24.9349 10.1447Z" fill="#0C0A35"/>
<path d="M24.8764 9.43879C25.097 9.43879 25.097 9.08887 24.8764 9.08887C24.6558 9.08887 24.6558 9.43879 24.8764 9.43879Z" fill="#0C0A35"/>
<path d="M28.2108 10.7673C28.5184 10.7673 28.5184 10.281 28.2108 10.281C27.9031 10.281 27.9031 10.7673 28.2108 10.7673Z" fill="#0C0A35"/>
<path d="M28.2094 9.89541C28.2036 9.90134 28.2036 9.90134 28.1978 9.90727C28.1455 9.9132 28.0933 9.91913 28.0352 9.93099C28.041 9.93099 28.0527 9.93099 28.0585 9.93692C28.2268 9.96658 28.3952 9.83017 28.3429 9.6463C28.2965 9.48024 28.0759 9.40907 27.954 9.53955C27.8611 9.6463 27.8495 9.80051 27.954 9.89541C28.0352 9.96065 28.1339 9.96065 28.2094 9.89541Z" fill="#0C0A35"/>
<path d="M28.0883 9.17795C28.3786 9.17795 28.3786 8.71533 28.0883 8.71533C27.7922 8.71533 27.7922 9.17795 28.0883 9.17795Z" fill="#0C0A35"/>
<path d="M31.6408 10.4588C31.6466 10.4588 31.6524 10.4529 31.6582 10.4529C31.8149 10.3936 31.9252 10.2394 31.873 10.0615C31.8265 9.90133 31.6524 9.78864 31.4898 9.84202C31.484 9.84202 31.4782 9.84795 31.4724 9.84795C31.3098 9.90133 31.2112 10.0674 31.2576 10.2394C31.304 10.3936 31.484 10.5182 31.6408 10.4588Z" fill="#0C0A35"/>
<path d="M31.7106 9.49225C31.7164 9.48632 31.7222 9.47445 31.7222 9.46852C31.8499 9.21942 31.548 8.98812 31.3506 9.17198C31.3448 9.17791 31.339 9.18384 31.3274 9.18977C31.0719 9.43887 31.5422 9.81252 31.7106 9.49225Z" fill="#0C0A35"/>
<path d="M31.6522 8.67954C31.6522 8.66768 31.658 8.66175 31.6638 8.64989C31.7683 8.34148 31.1994 8.34148 31.3039 8.64989C31.3097 8.66175 31.3097 8.66768 31.3155 8.67954C31.3678 8.85154 31.5942 8.85154 31.6522 8.67954Z" fill="#0C0A35"/>
<path d="M35.2466 10.5359C35.6588 10.5359 35.6588 9.88354 35.2466 9.88354C34.8345 9.88354 34.8345 10.5359 35.2466 10.5359Z" fill="#0C0A35"/>
<path d="M35.2468 9.58106C35.5719 9.58106 35.5719 9.06506 35.2468 9.06506C34.9217 9.06506 34.9217 9.58106 35.2468 9.58106Z" fill="#0C0A35"/>
<path d="M35.1931 8.87527C35.2047 8.88121 35.2105 8.88121 35.2221 8.88714C35.3441 8.93458 35.4718 8.81003 35.4718 8.69142C35.4718 8.5728 35.3441 8.44825 35.2221 8.49569C35.2105 8.50162 35.2047 8.50163 35.1931 8.50756C35.019 8.58466 35.019 8.8041 35.1931 8.87527Z" fill="#0C0A35"/>
<path d="M17.858 39.8468H17.8522C17.8116 39.8468 17.7767 39.8527 17.7361 39.8527C17.7419 39.8527 17.7477 39.8527 17.7535 39.8527C17.7187 39.835 17.6838 39.8172 17.6432 39.7994C17.707 39.8527 17.7651 39.8765 17.8464 39.8705C17.8057 39.8646 17.7709 39.8527 17.7303 39.8468C17.7361 39.8527 17.7477 39.8587 17.7535 39.8587C17.9277 39.9536 18.0902 39.7638 18.0438 39.5977C18.0438 39.6036 18.0438 39.6036 18.0438 39.6096C18.0263 39.4791 17.9218 39.3723 17.7883 39.3842C17.6548 39.3961 17.5561 39.4969 17.5445 39.6333C17.5329 39.7934 17.707 39.9773 17.858 39.8468Z" fill="#0C0A35"/>
<path d="M17.731 40.8905C17.7426 40.8905 17.7484 40.8905 17.76 40.8846C18.149 40.8253 18.1083 40.2618 17.7136 40.2618C17.7019 40.2618 17.6961 40.2618 17.6845 40.2618C17.2898 40.2678 17.3362 40.9498 17.731 40.8905Z" fill="#0C0A35"/>
<path d="M17.5512 42.0174C17.6267 42.0352 17.6964 42.0174 17.766 41.9759C17.8937 41.8869 17.9112 41.626 17.7428 41.5666C17.737 41.5666 17.7312 41.5607 17.7254 41.5607C17.6209 41.5251 17.5164 41.5251 17.4351 41.62C17.3422 41.7268 17.3654 41.8751 17.4583 41.97C17.4815 41.9937 17.5164 42.0055 17.5512 42.0174Z" fill="#0C0A35"/>
<path d="M17.4285 42.9782C17.4401 42.9782 17.4517 42.9841 17.4575 42.9841C17.7246 43.0316 17.8001 42.6223 17.5388 42.563C17.5272 42.563 17.5156 42.5571 17.5098 42.5571C17.2486 42.5037 17.1673 42.9308 17.4285 42.9782Z" fill="#0C0A35"/>
<path d="M17.3357 43.8025C17.5331 43.844 17.5911 43.5296 17.3937 43.4941C17.2022 43.4585 17.1383 43.7669 17.3357 43.8025Z" fill="#0C0A35"/>
<path d="M19.5653 44.4314C19.5769 44.4196 19.5885 44.4136 19.6001 44.4018C19.7162 44.301 19.6059 44.1349 19.4724 44.2061C19.4608 44.212 19.4492 44.2179 19.4317 44.2298C19.2924 44.301 19.4492 44.5382 19.5653 44.4314Z" fill="#0C0A35"/>
<path d="M19.8203 43.7908C19.8668 43.8382 19.919 43.856 19.9829 43.8738C20.2441 43.945 20.3312 43.4883 20.0642 43.4527C19.9945 43.4468 19.9423 43.4409 19.8842 43.4705C19.7507 43.5298 19.7216 43.69 19.8203 43.7908Z" fill="#0C0A35"/>
<path d="M20.425 43.1147C20.7501 43.18 20.8546 42.658 20.5237 42.5928C20.1928 42.5275 20.0941 43.0495 20.425 43.1147Z" fill="#0C0A35"/>
<path d="M20.685 42.0649C20.9985 42.1301 21.0914 41.6319 20.7779 41.5667C20.4644 41.5014 20.3715 41.9996 20.685 42.0649Z" fill="#0C0A35"/>
<path d="M20.8537 41.1811C21.1497 41.2404 21.2426 40.7719 20.9407 40.7126C20.6447 40.6533 20.5576 41.1218 20.8537 41.1811Z" fill="#0C0A35"/>
<path d="M19.432 46.2285C19.0488 46.1811 18.9269 45.7303 19.4029 44.3247C19.879 42.919 19.9254 41.7388 19.728 40.9025C19.5248 40.0663 19.2694 38.7199 19.9312 38.7377C20.5931 38.7555 21.0923 39.918 21.191 41.0686C21.3013 42.2785 21.0459 43.2452 20.8137 44.1467C20.5873 45.0482 19.8442 46.276 19.432 46.2285Z" fill="#990028"/>
<path d="M16.6858 45.8607C16.2098 45.8844 15.8266 45.6591 16.0182 43.862C16.2098 42.0649 16.8542 38.5241 17.5508 38.3225C18.2475 38.1268 18.4101 38.5241 18.4101 39.1647C18.4101 39.8111 17.5624 45.8251 16.6858 45.8607Z" fill="#990028"/>
<path d="M20.0929 44.3366C20.0291 44.301 19.971 44.295 19.8956 44.295C19.6749 44.295 19.6111 44.639 19.8143 44.728C19.884 44.7577 19.9362 44.7695 20.0117 44.7636C20.2323 44.7517 20.2903 44.4374 20.0929 44.3366Z" fill="#0C0A35"/>
<path d="M20.1578 43.7018C20.3377 43.7374 20.5119 43.6129 20.5467 43.435C20.5816 43.2511 20.4597 43.0732 20.2855 43.0376C20.1055 43.002 19.9313 43.1265 19.8965 43.3045C19.8559 43.4824 19.9778 43.6663 20.1578 43.7018Z" fill="#0C0A35"/>
<path d="M20.6058 41.7803C20.5942 41.7744 20.5826 41.7685 20.571 41.7625C20.3852 41.6558 20.1472 41.7922 20.1065 41.9938C20.0659 42.1955 20.24 42.4149 20.449 42.3853C20.4607 42.3853 20.4781 42.3793 20.4897 42.3793C20.8032 42.3438 20.8786 41.9345 20.6058 41.7803Z" fill="#0C0A35"/>
<path d="M20.6395 40.5703C20.506 40.4398 20.326 40.422 20.1693 40.5229C20.0474 40.6059 20.0125 40.7838 20.0938 40.9084C20.1983 41.0626 20.3725 41.116 20.5466 41.0448C20.744 40.9558 20.7905 40.7245 20.6395 40.5703Z" fill="#0C0A35"/>
<path d="M20.285 39.3723C20.2444 39.3486 20.2037 39.3308 20.1515 39.3308C19.867 39.3012 19.7915 39.6926 20.0644 39.7756C20.1108 39.7875 20.1573 39.7934 20.2037 39.7875C20.4185 39.7579 20.4708 39.485 20.285 39.3723Z" fill="#0C0A35"/>
<path d="M17.5436 38.8443C17.5378 38.8503 17.532 38.8503 17.532 38.8562C17.3985 38.9748 17.3752 39.2061 17.561 39.2951C17.5668 39.2951 17.5726 39.301 17.5784 39.301C17.7584 39.384 17.9674 39.2476 17.95 39.046C17.9326 38.8621 17.6946 38.7138 17.5436 38.8443Z" fill="#0C0A35"/>
<path d="M17.4169 39.835C17.4111 39.8409 17.4053 39.8468 17.3995 39.8468C17.2834 39.9477 17.2543 40.0782 17.3298 40.2205C17.3298 40.2264 17.3356 40.2324 17.3414 40.2383C17.4634 40.4755 17.8175 40.3628 17.8581 40.1315C17.8988 39.9002 17.6143 39.663 17.4169 39.835Z" fill="#0C0A35"/>
<path d="M17.2367 40.9145C17.1902 40.9323 17.138 40.956 17.0973 40.9857C16.9638 41.0628 16.9174 41.2526 16.9638 41.389C17.016 41.5432 17.1612 41.6262 17.3121 41.6203C17.3353 41.6203 17.3586 41.6203 17.3818 41.6144C17.5734 41.5788 17.7243 41.4424 17.7069 41.2289C17.6895 40.9976 17.4515 40.8315 17.2367 40.9145Z" fill="#0C0A35"/>
<path d="M17.1222 42.7945C17.5634 42.8835 17.697 42.1837 17.2557 42.0947C16.8145 41.9998 16.681 42.7056 17.1222 42.7945Z" fill="#0C0A35"/>
<path d="M16.9117 43.8857C17.2484 43.9509 17.3529 43.4172 17.0162 43.3519C16.6737 43.2807 16.575 43.8205 16.9117 43.8857Z" fill="#0C0A35"/>
<path d="M16.7545 44.704C17.0331 44.7574 17.1144 44.3185 16.8415 44.2592C16.5629 44.2058 16.4758 44.6506 16.7545 44.704Z" fill="#0C0A35"/>
<path d="M19.6359 45.4336C19.8681 45.481 19.9378 45.1074 19.7055 45.0659C19.4733 45.0184 19.4036 45.3861 19.6359 45.4336Z" fill="#0C0A35"/>
<path d="M13.0857 45.0363C13.4689 45.0659 13.7359 44.7694 13.8114 43.2807C13.8869 41.798 14.2759 40.683 14.7693 39.9831C15.2628 39.2833 16.0001 38.1386 15.3731 37.9014C14.7519 37.6701 13.8637 38.5478 13.347 39.5798C12.8012 40.6592 12.7026 41.6556 12.569 42.5749C12.4181 43.5595 12.6503 45.0007 13.0857 45.0363Z" fill="#990028"/>
<path d="M13.1675 43.0316C13.243 43.0257 13.2952 43.0376 13.3649 43.0672C13.5681 43.1503 13.4984 43.5002 13.2836 43.5002C13.2082 43.5002 13.1559 43.4942 13.0862 43.4587C12.8888 43.3638 12.9469 43.0494 13.1675 43.0316Z" fill="#0C0A35"/>
<path d="M13.3416 42.4147C13.1617 42.3791 13.0456 42.1953 13.0804 42.0173C13.1152 41.8335 13.2952 41.7149 13.4694 41.7504C13.6493 41.786 13.7654 41.9699 13.7306 42.1478C13.7016 42.3317 13.5216 42.4503 13.3416 42.4147Z" fill="#0C0A35"/>
<path d="M13.6319 40.4636C13.6435 40.4636 13.6609 40.4576 13.6725 40.4576C13.8815 40.4339 14.0557 40.6474 14.0151 40.8491C13.9744 41.0507 13.7364 41.1871 13.5506 41.0804C13.539 41.0744 13.5274 41.0685 13.5158 41.0626C13.2429 40.9143 13.3184 40.5051 13.6319 40.4636Z" fill="#0C0A35"/>
<path d="M14.0436 39.3306C14.2119 39.2595 14.3919 39.3128 14.4964 39.4671C14.5777 39.5916 14.5487 39.7695 14.4209 39.8526C14.27 39.9534 14.0842 39.9356 13.9507 39.8051C13.7997 39.6509 13.8462 39.4137 14.0436 39.3306Z" fill="#0C0A35"/>
<path d="M14.8166 38.358C14.863 38.3521 14.9094 38.3521 14.9559 38.3699C15.2346 38.4529 15.1591 38.8444 14.8688 38.8147C14.8166 38.8088 14.7817 38.7969 14.7353 38.7732C14.5495 38.6605 14.6018 38.3877 14.8166 38.358Z" fill="#0C0A35"/>
<path d="M13.191 44.2239C12.9588 44.1764 13.0285 43.8087 13.2607 43.8561C13.4929 43.8977 13.4233 44.2713 13.191 44.2239Z" fill="#0C0A35"/>
<path d="M33.3544 35.7009C32.6635 35.1138 31.6707 36.0212 31.2644 36.5846C30.9973 36.9583 30.9102 37.5454 31.3689 37.8123C31.7985 38.0614 32.3152 37.8776 32.7099 37.6463C33.1686 37.3794 33.633 37.0235 33.9697 36.6084C34.3007 36.1873 34.4342 35.4815 33.8246 35.2264C33.1976 34.9655 32.6229 35.3866 32.1526 35.778C31.723 36.1339 31.1482 36.7092 31.1599 37.3141C31.1715 37.8657 31.9146 38.0318 32.17 37.5632C32.4487 37.0532 32.8957 36.4423 33.4531 36.2584C33.424 36.2703 33.3021 36.2347 33.4298 36.2644C33.2324 36.211 33.1918 35.778 33.1744 35.867C33.2034 35.7424 33.1512 35.8848 33.1337 35.9085C33.1454 35.8848 33.0292 36.0212 33.006 36.0508C32.7912 36.2821 32.5358 36.4779 32.2687 36.6558C32.0307 36.8159 31.9901 36.8634 31.7462 36.8693C31.8856 36.8693 31.9784 36.9879 32.0307 37.1125C32.0423 37.1362 32.0191 37.3141 32.0423 37.2074C32.0597 37.1184 32.0771 37.0888 32.1584 36.9583C32.2919 36.727 32.4835 36.5194 32.6693 36.3296C32.739 36.2584 33.0931 35.8492 33.2034 35.8966C33.3253 35.95 33.4647 35.7958 33.3544 35.7009Z" fill="#0C0A35"/>
<path d="M26.4102 40.6591C25.9516 40.5167 25.2839 40.9497 24.924 41.2047C24.4305 41.5547 24.0125 41.9995 23.9661 42.64C23.9487 42.8713 24.117 43.1382 24.3434 43.1975C25.4987 43.4881 26.9734 42.2545 27.2985 41.1632C27.3914 40.8607 27.2288 40.5286 26.9327 40.4337C26.3405 40.2439 25.7368 40.5642 25.2723 40.92C24.8311 41.2581 24.1983 41.8453 24.2157 42.468C24.2273 42.8535 24.6569 43.2568 25.0343 42.9959C25.0575 42.984 25.0749 42.9662 25.0982 42.9544C25.3594 42.7764 25.4639 42.4206 25.2317 42.1596C25.2143 42.1418 25.1969 42.124 25.1853 42.1062C25.2259 42.296 25.2665 42.4799 25.3072 42.6697C25.4407 42.3613 25.6207 42.1418 25.8761 41.9164C26.0387 41.7741 26.4334 41.5013 26.5786 41.5428C26.4567 41.2996 26.3347 41.0565 26.2128 40.8133C26.1083 41.1632 25.7948 41.436 25.5336 41.6673C25.3536 41.8215 24.9066 42.1774 24.6744 42.1359C24.8021 42.3197 24.9298 42.5095 25.0517 42.6934C25.0691 41.8809 26.2941 41.6495 26.5612 40.9912C26.625 40.8607 26.5321 40.7006 26.4102 40.6591Z" fill="#0C0A35"/>
<path d="M28.611 37.8181C28.2395 38.0732 28.0479 38.2511 27.8563 38.6781C27.6531 39.1289 27.6705 39.7161 27.8563 40.1727C28.2162 41.0624 29.1393 41.3352 29.9753 41.0149C30.6662 40.748 31.0493 39.9592 31.1538 39.2653C31.2816 38.429 30.7475 37.7292 30.0276 37.4208C29.2845 37.1005 28.2743 37.2606 27.7692 37.9308C27.3396 38.5061 27.4035 39.2653 27.6531 39.8999C27.8969 40.5345 28.5181 41.0149 29.1858 41.0327C30.1321 41.0565 30.73 40.2617 30.8752 39.3899C30.9855 38.7374 30.6197 38.1503 30.0508 37.8952C29.4876 37.6461 28.6342 37.9546 28.373 38.518C28.1466 39.0043 28.1698 39.7338 28.6749 40.0482C29.3019 40.4337 29.8418 39.9355 30.0276 39.3305C30.1959 38.773 29.6038 38.2392 29.0871 38.5239C28.7968 38.6841 28.5762 38.9094 28.373 39.1763C28.164 39.4551 28.2743 39.9414 28.5704 40.1134C28.5878 40.1253 28.611 40.1372 28.6284 40.149C28.9942 40.3507 29.4064 40.2083 29.5573 39.811C29.4702 40.0423 29.6096 39.6212 29.5805 39.5085C29.5689 39.4492 29.5515 39.3899 29.5225 39.3365C29.7837 39.9296 29.3309 39.9296 29.7025 39.7279C29.389 39.461 29.0754 39.1941 28.7619 38.9213C28.6807 39.2001 29.0522 38.601 29.4876 38.9984C29.5863 39.0874 29.5457 39.1882 29.5457 39.0933C29.5457 39.2179 29.5283 39.1704 29.5225 39.1704C29.4702 39.2238 29.6096 39.1763 29.6386 39.1823C29.5399 39.1526 29.5225 39.0162 29.5573 39.1645C29.5689 39.2179 29.5341 39.3424 29.5109 39.4195C29.4586 39.5856 29.3483 39.6449 29.2496 39.6745C29.1567 39.6983 29.267 39.6923 29.1103 39.6745C29.1741 39.6805 29.1509 39.6864 29.0522 39.6212C28.9768 39.5737 28.9245 39.4907 28.8432 39.3246C28.8026 39.2356 28.7678 39.0755 28.7678 38.9628C28.7678 38.7849 28.7503 38.9391 28.8026 38.7671C28.7852 38.8264 28.8374 38.7137 28.849 38.7019C28.8839 38.6722 28.9187 38.6603 28.8955 38.6663C29.0174 38.6248 29.0813 38.6248 29.2148 38.6248C29.4006 38.6307 29.6444 38.7019 29.7257 38.779C29.8186 38.8679 29.8302 38.9628 29.8302 39.0636C29.8302 39.2356 29.7721 39.3958 29.6734 39.5559C29.5051 39.8347 29.3309 39.9058 29.0987 39.7872C28.6458 39.55 28.6052 38.5002 28.8781 38.1384C29.0232 37.9605 28.791 37.6995 28.611 37.8181Z" fill="#0C0A35"/>
<path d="M29.2787 39.4788C29.807 39.5026 29.8418 38.6604 29.3135 38.6366C28.7852 38.6188 28.7504 39.4551 29.2787 39.4788Z" fill="#F70032"/>
<path d="M28.2161 37.9606C28.338 37.9665 28.3438 37.7767 28.2219 37.7708C28.1058 37.7648 28.1 37.9546 28.2161 37.9606Z" fill="#F70032"/>
<path d="M27.8972 38.6189C28.0133 38.6249 28.0249 38.4351 27.903 38.4351C27.7869 38.4291 27.7811 38.613 27.8972 38.6189Z" fill="#F70032"/>
<path d="M27.8917 39.3723C28.0485 39.3782 28.0601 39.1291 27.9033 39.1232C27.7466 39.1172 27.7349 39.3663 27.8917 39.3723Z" fill="#F70032"/>
<path d="M28.18 40.0543C28.3309 40.0602 28.3425 39.8171 28.1916 39.8111C28.0349 39.8052 28.029 40.0484 28.18 40.0543Z" fill="#F70032"/>
<path d="M28.7147 40.671C28.7205 40.671 28.7321 40.6651 28.7379 40.6651C28.8192 40.6354 28.825 40.5346 28.7437 40.499C28.7379 40.4931 28.7321 40.4931 28.7205 40.4872C28.5753 40.416 28.5637 40.7244 28.7147 40.671Z" fill="#F70032"/>
<path d="M29.4705 40.8548C29.4763 40.8548 29.4879 40.8489 29.4938 40.8489C29.6041 40.8252 29.6099 40.6591 29.5054 40.6235C29.4996 40.6235 29.488 40.6176 29.4821 40.6176C29.2906 40.5583 29.2789 40.8964 29.4705 40.8548Z" fill="#F70032"/>
<path d="M30.2068 40.5465C30.3345 40.5524 30.3403 40.3508 30.2125 40.3449C30.0906 40.3389 30.0848 40.5406 30.2068 40.5465Z" fill="#F70032"/>
<path d="M30.6721 39.9119C30.794 39.9178 30.7998 39.728 30.6779 39.7221C30.5618 39.7161 30.556 39.9059 30.6721 39.9119Z" fill="#F70032"/>
<path d="M30.8331 39.0401C30.9434 39.0461 30.955 38.8681 30.8389 38.8622C30.7286 38.8563 30.717 39.0342 30.8331 39.0401Z" fill="#F70032"/>
<path d="M30.5663 38.3046C30.7115 38.3105 30.7173 38.0851 30.5779 38.0792C30.4328 38.0733 30.427 38.2987 30.5663 38.3046Z" fill="#F70032"/>
<path d="M29.9287 37.8243C30.0971 37.8303 30.1087 37.5634 29.9403 37.5515C29.772 37.5515 29.7604 37.8184 29.9287 37.8243Z" fill="#F70032"/>
<path d="M29.1334 37.7114C29.1392 37.7114 29.1508 37.7114 29.1566 37.7114C29.2844 37.6996 29.2902 37.5276 29.1624 37.5098C29.1566 37.5098 29.145 37.5098 29.1392 37.5038C29.0057 37.4801 28.9999 37.7233 29.1334 37.7114Z" fill="#F70032"/>
<path d="M19.9374 17.5106C19.8619 17.5344 19.798 17.5818 19.7458 17.6352C19.589 17.7953 19.502 18.0326 19.5252 18.2639C19.5426 18.4952 19.6703 18.7087 19.8503 18.8392C19.949 18.9104 20.0709 18.9578 20.1928 18.94C20.4599 18.9044 20.605 18.6019 20.6747 18.3291C20.7153 18.1512 20.756 17.8902 20.4657 17.6648C20.3089 17.5522 20.1174 17.4573 19.9374 17.5106Z" fill="#990028"/>
<path d="M20.4759 17.9674C20.8243 18.0208 21.1668 18.0979 21.5093 18.2046C21.1319 18.4419 20.6849 18.5427 20.2495 18.5012C20.3076 18.341 20.1392 18.1157 20.2669 18.003C20.3192 17.9496 20.4005 17.9555 20.4759 17.9674Z" fill="#990028"/>
<path d="M16.9986 23.4061C17.7301 23.584 18.5429 23.5544 19.1931 23.1748C19.8491 22.7893 20.302 22.0123 20.18 21.2531C20.1336 20.9625 20.0059 20.6838 19.8201 20.4525C19.6401 20.2271 19.4369 19.9899 19.1699 19.895C17.9217 19.4383 16.2091 20.233 15.6691 20.9447C15.553 21.093 15.4543 21.2531 15.4021 21.437C15.2628 21.8937 15.4427 22.4097 15.7678 22.7596C16.0871 23.0977 16.54 23.2934 16.9986 23.4061Z" fill="#990028"/>
<path d="M13.5094 20.2984C12.3541 20.4407 11.46 21.5142 11.2278 22.6767C10.9956 23.8391 11.3265 25.0491 11.849 26.1107C11.878 26.17 11.907 26.2293 11.9593 26.2649C12.5689 25.5413 15.9129 22.6114 16.5457 21.4846C16.3251 21.188 16.0406 21.0041 15.7213 20.8262C14.9782 20.4229 14.3454 20.1975 13.5094 20.2984Z" fill="#990028"/>
<path d="M19.5837 21.9886C19.4909 21.9708 19.4096 21.9115 19.3399 21.8521C18.6955 21.3243 17.7028 20.7727 17.5576 19.9424C18.2311 19.5391 19.3922 18.1809 19.9031 17.5759C20.1643 18.5783 20.2746 20.577 20.1933 21.609C20.1817 21.7691 20.054 21.6149 19.9785 21.7573C19.8973 21.9055 19.7405 22.0123 19.5837 21.9886Z" fill="#990028"/>
<path d="M19.5124 17.1844C19.4486 17.0124 19.2454 16.9472 19.0654 16.9412C18.9029 16.9353 18.7287 16.9709 18.6358 17.1073C18.5661 17.2141 18.5719 17.3564 18.6242 17.4691C18.6764 17.5818 18.7751 17.6708 18.8854 17.7301C18.6997 17.653 18.4384 17.7419 18.3978 17.9436C18.3571 18.1156 18.4848 18.2876 18.6358 18.3765C18.7867 18.4655 18.9609 18.4892 19.1235 18.5545C19.3034 18.6256 19.4602 18.7324 19.6227 18.8451C19.7679 18.5545 19.913 18.2638 20.064 17.9732C20.1278 17.8427 20.1975 17.7123 20.2555 17.5759C20.3136 17.4335 20.3659 17.2912 20.3717 17.137C20.3775 16.9828 20.331 16.8226 20.2207 16.7218C20.1801 16.6862 20.1336 16.6566 20.0872 16.6388C19.9188 16.5676 19.7156 16.5735 19.5763 16.6921C19.4428 16.8048 19.4021 17.0361 19.5124 17.1844Z" fill="#990028"/>
<path d="M16.453 21.7277C16.9929 22.2675 17.7012 22.7241 18.4617 22.3268C18.9726 22.0599 19.7099 21.4075 19.4255 20.7491C19.3964 20.6839 19.2861 20.6839 19.2571 20.7491C19.0307 21.2473 18.903 21.6388 18.4153 21.9531C17.7941 22.3564 17.0742 22.0539 16.5517 21.6328C16.482 21.5735 16.3892 21.6625 16.453 21.7277Z" fill="#0C0A35"/>
<path d="M14.5549 21.0694C13.4461 20.2331 12.4707 21.6091 12.1108 22.5937C11.6289 23.9044 12.1108 25.6481 13.1848 26.4962C13.2545 26.5496 13.3532 26.4606 13.3242 26.3835C13.0281 25.482 12.4882 24.8237 12.4359 23.8273C12.372 22.5996 13.1558 21.0398 14.5259 21.1643C14.5782 21.1643 14.584 21.0931 14.5549 21.0694Z" fill="#0C0A35"/>
<path d="M14.531 21.6567C12.8416 21.7991 12.8938 24.7645 14.1072 25.4881C14.1827 25.5355 14.2814 25.4584 14.2581 25.3695C14.1072 24.8238 13.8343 24.3375 13.7298 23.7741C13.5731 22.9259 13.9098 22.2913 14.5716 21.8109C14.6239 21.7694 14.6181 21.6508 14.531 21.6567Z" fill="#0C0A35"/>
<path d="M14.7874 22.2139C13.9281 22.8189 14.1313 24.2482 15.1241 24.61C15.217 24.6456 15.2692 24.5329 15.2344 24.4618C14.9209 23.7441 14.2533 23.151 14.9151 22.38C14.9848 22.297 14.8861 22.1428 14.7874 22.2139Z" fill="#0C0A35"/>
<path d="M20.1405 37.0592C20.2856 37.0711 20.4307 37.0829 20.5759 37.0473C20.8778 36.9702 21.0926 36.6796 21.1855 36.3712C21.2783 36.0628 21.2783 35.7425 21.3074 35.4223C21.348 34.9774 21.4583 34.5385 21.6209 34.1234C21.7718 33.7438 21.9692 33.382 22.0215 32.9787C22.126 32.1365 21.5686 31.3655 21.0171 30.7249C20.4598 30.0666 19.8502 29.9421 19.2812 28.489C18.991 27.7535 18.8923 27.3739 18.7471 27.2909C18.5207 27.1664 18.3117 27.4511 18.213 27.5875C18.1143 28.1094 18.0621 28.139 18.2362 28.9753C18.3407 29.4854 18.2653 29.693 18.7239 30.9029C18.8807 31.3121 18.8284 31.0749 19.049 31.4544C18.6891 31.84 18.3059 31.5375 17.8182 31.7332C17.3364 31.9289 17.1854 32.5457 17.1448 33.0736C17.1042 33.6489 17.1158 34.2242 17.1796 34.7936C17.2551 35.4578 17.4409 36.1696 17.9634 36.5729C18.3814 36.8931 18.9387 36.9524 19.4612 36.9999C19.6818 37.0177 19.9141 37.0355 20.1405 37.0592Z" fill="#FCC07E"/>
<path d="M18.6365 32.5575C18.9036 32.8837 19.4087 33.2455 19.3158 33.7377C19.2345 34.1885 18.6133 33.9097 18.3753 33.8682C18.3114 33.8563 18.265 33.9157 18.294 33.975C18.474 34.3605 19.2577 34.2774 19.4783 33.969C19.6525 33.7199 19.577 33.4056 19.4551 33.1506C19.3042 32.8244 18.9849 32.6464 18.6888 32.4922C18.6423 32.4626 18.6017 32.516 18.6365 32.5575Z" fill="#0C0A35"/>
<path d="M18.479 34.1232C18.6183 34.2834 18.8215 34.3427 18.9666 34.4909C19.135 34.657 19.2569 35.001 19.0886 35.2026C18.8564 35.4755 18.4267 35.3094 18.1423 35.262C18.09 35.256 18.0494 35.3035 18.0726 35.3509C18.2642 35.7483 18.9783 35.6119 19.2337 35.3509C19.4021 35.1789 19.3963 34.8764 19.3034 34.6689C19.2395 34.5265 19.1524 34.4079 19.0421 34.3071C18.9028 34.1766 18.7054 34.1529 18.5603 34.0343C18.5022 33.9927 18.4267 34.0639 18.479 34.1232Z" fill="#0C0A35"/>
<path d="M18.4734 36.4837C18.8043 36.5845 19.1991 36.5193 19.292 36.1278C19.3849 35.7423 19.1062 35.5051 18.7811 35.3924C18.6998 35.3627 18.3341 35.2797 18.3805 35.4873C18.427 35.683 18.7114 35.7245 18.8682 35.7838C19.0482 35.855 19.1527 36.027 19.0075 36.2109C18.903 36.3473 18.6243 36.371 18.4734 36.4185C18.4444 36.4303 18.4444 36.4778 18.4734 36.4837Z" fill="#0C0A35"/>
<path d="M18.6705 31.7746C18.3919 31.7865 18.09 31.3595 18.0551 31.0985C18.0029 30.6893 18.09 30.9384 18.0377 30.5291C17.8926 29.3904 17.6894 27.5993 17.6662 26.4487C17.6487 25.4641 17.5094 24.4796 17.5907 23.501C17.6023 23.3468 17.7474 23.1748 17.8229 23.0384C17.8984 22.9019 18.0609 22.7952 18.2235 22.813C18.0145 25.0074 18.2119 26.6978 18.328 29.4794C18.3628 30.2445 18.6996 31.0096 18.6705 31.7746Z" fill="#990028"/>
<path d="M19.4673 32.0533C19.386 32.3202 19.1189 32.5219 18.8461 32.5278C18.6022 32.5337 18.3758 32.4033 18.1668 32.2728C17.9984 32.172 17.8301 32.0711 17.6675 31.9703C17.3656 31.7864 17.0638 31.6026 16.8489 31.3238C16.6341 31.0451 16.5296 30.6477 16.6806 30.3274C16.7793 30.1139 17.0812 29.3844 17.8823 29.7936C18.3119 30.0131 18.9157 30.8078 19.3686 31.395C19.4847 31.5551 19.5311 31.8576 19.4673 32.0533Z" fill="#FFD6A1"/>
<path d="M18.3498 32.4032C18.5298 32.6701 19.0755 32.8125 19.3658 32.6582C19.6967 32.4803 19.7896 32.0236 19.5341 31.7449C19.5167 31.7212 19.4703 31.7389 19.4761 31.7686C19.4993 31.9821 19.4703 32.3617 19.238 32.4447C19.0058 32.5278 18.6401 32.4388 18.4311 32.3261C18.3788 32.3024 18.3149 32.3558 18.3498 32.4032Z" fill="#0C0A35"/>
<path d="M19.961 18.2462C20.1642 18.2462 20.1642 17.9259 19.961 17.9259C19.7578 17.9259 19.7578 18.2462 19.961 18.2462Z" fill="#0C0A35"/>
<path d="M21.5152 51.5901C21.6952 48.7788 22.3222 46.0209 24.6502 44.4967C26.1074 43.5477 28.4064 43.0733 30.1133 42.8004C30.7112 42.7055 31.3092 42.6166 31.913 42.6166C32.7896 42.6225 33.6488 42.8242 34.5023 43.0258C34.6242 43.0555 34.7519 43.0851 34.8448 43.1741C35.0364 43.352 35.0073 43.6604 34.9493 43.9214C34.8448 44.4196 34.7113 44.9059 34.5429 45.3863C33.9333 47.1597 33.8637 47.9485 33.9449 50.8072C33.9507 50.9496 34.1133 51.8036 34.0668 51.94C33.974 52.2247 33.7011 51.9875 33.4108 52.0231C30.032 52.4323 26.4267 51.3647 23.0711 51.9222C22.7692 51.9697 22.4673 52.0349 22.1655 51.9875C21.8694 51.94 21.4978 51.8985 21.5152 51.5901Z" fill="#D6002B"/>
<path d="M35.5652 42.4148C34.8744 42.5868 34.5435 43.0435 34.2009 43.6603C33.7481 44.4847 33.2198 45.3862 33.0688 46.3233C32.9005 47.3553 32.8656 48.4822 32.7728 49.532C32.6741 50.6351 33.0747 51.673 32.8773 52.7762C32.8424 52.9601 33.0863 53.0905 33.185 52.9067C33.4578 52.3907 33.394 51.851 33.3301 51.2816C33.2024 50.1191 33.2314 49.1227 33.4056 47.9603C33.5623 46.8927 33.481 46.0268 34.0035 45.0304C34.4564 44.1526 34.7525 43.1384 35.6523 42.6165C35.7684 42.5572 35.6929 42.3792 35.5652 42.4148Z" fill="#0C0A35"/>
<path d="M34.7114 41.8751C34.0844 42.4326 33.4806 42.83 32.9697 43.5358C32.3717 44.3661 32.064 45.4277 31.8434 46.4182C31.3558 48.6304 31.588 50.7537 31.9421 52.9541C31.9712 53.132 32.2034 53.0905 32.2556 52.9541C32.5111 52.2483 32.3021 51.5841 32.1628 50.8664C31.9189 49.6328 32.1047 48.1678 32.2963 46.9401C32.4705 45.8251 32.8362 44.7694 33.4225 43.8086C33.8347 43.1325 34.5662 42.7114 34.8565 41.9641C34.8914 41.8692 34.7694 41.8217 34.7114 41.8751Z" fill="#0C0A35"/>
<path d="M33.2653 41.7626C31.5875 42.8302 30.8909 44.5087 30.438 46.4303C30.1942 47.4801 30.0374 48.5536 29.9968 49.633C29.9504 50.9141 30.5309 52.0766 30.3509 53.3636C30.3219 53.5712 30.5716 53.7076 30.6935 53.5118C31.0476 52.9365 30.9373 52.3316 30.8096 51.691C30.5309 50.2795 30.4729 49.0992 30.7051 47.6639C31.0592 45.4576 31.8314 43.5182 33.3292 41.8516C33.3698 41.8041 33.3176 41.727 33.2653 41.7626Z" fill="#0C0A35"/>
<path d="M32.057 41.3591C30.3328 42.4741 29.52 44.4313 29.1891 46.4004C28.8408 48.4881 28.5911 50.8308 29.1775 52.8948C29.2123 53.0134 29.3865 53.0193 29.4155 52.8948C29.5955 52.0763 29.4039 51.24 29.3459 50.4097C29.2646 49.2472 29.4271 48.0432 29.5839 46.8926C29.7174 45.9081 29.8858 44.9354 30.3096 44.028C30.7682 43.0494 31.6391 42.3851 32.1674 41.4658C32.208 41.4006 32.1267 41.3175 32.057 41.3591Z" fill="#0C0A35"/>
<path d="M30.4965 41.5312C28.7723 42.5039 28.2033 44.295 27.7969 46.1336C27.5705 47.136 27.4544 48.1324 27.4486 49.1643C27.437 50.2972 27.7099 51.3766 27.7737 52.4916C27.7911 52.7941 28.1859 52.8475 28.2846 52.5628C28.5284 51.8511 28.2323 51.1038 28.1627 50.3743C28.064 49.2711 28.093 48.1857 28.2556 47.0885C28.3891 46.1811 28.5807 45.2558 28.8303 44.3721C29.1612 43.1978 30.0437 42.6225 30.6184 41.638C30.6475 41.5668 30.5662 41.4897 30.4965 41.5312Z" fill="#0C0A35"/>
<path d="M29 41.5372C27.4673 42.1362 26.8636 44.2357 26.5152 45.7066C26.2772 46.7327 26.1785 47.7943 26.0856 48.8382C25.9695 50.1608 25.7779 51.7325 26.1437 53.0195C26.1785 53.1322 26.3353 53.1322 26.3643 53.0195C26.6197 52.118 26.5384 51.1572 26.5733 50.2201C26.6197 48.9686 26.701 47.7113 26.8752 46.4717C27.148 44.5264 27.8157 43.1207 29.0581 41.6439C29.0987 41.6024 29.0639 41.5134 29 41.5372Z" fill="#0C0A35"/>
<path d="M27.3496 41.899C25.8459 42.7946 25.2189 44.396 25.0157 46.1278C24.7313 48.5358 24.2378 51.1513 24.5977 53.5711C24.6152 53.7016 24.8009 53.7076 24.859 53.6067C25.2015 53.0018 25.0564 52.3672 25.0564 51.6851C25.0564 50.4871 25.1551 49.289 25.2886 48.0969C25.5498 45.7838 25.7066 43.7198 27.396 41.9583C27.425 41.9287 27.3844 41.8812 27.3496 41.899Z" fill="#0C0A35"/>
<path d="M25.1734 42.8419C24.0413 43.9509 23.484 45.6946 23.2343 47.2367C23.1066 48.0492 23.0834 48.8677 23.1414 49.6921C23.1995 50.5224 23.1124 51.4358 23.4898 52.189C23.5653 52.3492 23.7626 52.2483 23.7801 52.106C23.9658 50.6351 23.6581 49.182 23.7975 47.7052C23.8788 46.8215 24.0878 45.9615 24.378 45.1253C24.6219 44.4136 24.767 43.4705 25.2082 42.8656C25.2198 42.8478 25.1908 42.83 25.1734 42.8419Z" fill="#0C0A35"/>
<path d="M22.8456 44.9415C22.0908 46.0624 21.9399 47.2131 21.8006 48.5534C21.6786 49.7693 21.5858 51.3469 22.1141 52.4738C22.1605 52.5806 22.3231 52.545 22.3521 52.4442C22.6366 51.3529 22.3521 50.1133 22.3927 48.9864C22.4392 47.6223 22.8804 46.3175 22.9327 44.9652C22.9268 44.9118 22.8688 44.9059 22.8456 44.9415Z" fill="#0C0A35"/>
<path d="M40.1872 39.5738H40.193C40.2336 39.5738 40.2685 39.5679 40.3091 39.5679C40.3033 39.5679 40.2975 39.5679 40.2917 39.5679C40.3265 39.5857 40.3614 39.6035 40.3962 39.6213C40.3323 39.5679 40.2743 39.5442 40.193 39.5501C40.2336 39.556 40.2685 39.5679 40.3091 39.5738C40.3033 39.5679 40.2917 39.562 40.2859 39.562C40.1175 39.4611 39.9492 39.6509 39.9956 39.8229C39.9956 39.817 39.9956 39.817 39.9956 39.8111C40.013 39.9415 40.1117 40.0483 40.2453 40.0364C40.3788 40.0246 40.4775 39.9297 40.4949 39.7873C40.5065 39.6331 40.3382 39.4433 40.1872 39.5738Z" fill="#0C0A35"/>
<path d="M40.3208 38.53C40.3091 38.53 40.3033 38.53 40.2917 38.5359C39.9028 38.5893 39.9434 39.1527 40.3324 39.1586C40.344 39.1586 40.3498 39.1586 40.3614 39.1586C40.762 39.1586 40.7155 38.4766 40.3208 38.53Z" fill="#0C0A35"/>
<path d="M40.5063 37.4093C40.4309 37.3855 40.3612 37.4033 40.2915 37.4508C40.1638 37.5397 40.1406 37.8007 40.3148 37.86C40.3206 37.86 40.3264 37.8659 40.3322 37.8659C40.4367 37.9015 40.5412 37.9015 40.6225 37.8126C40.7153 37.7058 40.6921 37.5635 40.605 37.4626C40.576 37.433 40.547 37.4211 40.5063 37.4093Z" fill="#0C0A35"/>
<path d="M40.6339 36.4424C40.6223 36.4424 40.6107 36.4365 40.6049 36.4365C40.3378 36.3831 40.2565 36.7983 40.5236 36.8576C40.5352 36.8576 40.541 36.8635 40.5526 36.8635C40.8139 36.9228 40.901 36.4958 40.6339 36.4424Z" fill="#0C0A35"/>
<path d="M40.737 35.6238C40.5396 35.5823 40.4815 35.8907 40.6731 35.9322C40.8705 35.9738 40.9286 35.6594 40.737 35.6238Z" fill="#0C0A35"/>
<path d="M38.5085 34.9716C38.4969 34.9835 38.4853 34.9894 38.4737 35.0013C38.3576 35.1021 38.4679 35.2682 38.6014 35.197C38.613 35.1911 38.6304 35.1851 38.642 35.1792C38.7814 35.108 38.6304 34.8708 38.5085 34.9716Z" fill="#0C0A35"/>
<path d="M38.2476 35.618C38.2011 35.5705 38.1489 35.5468 38.085 35.529C37.8238 35.4578 37.7309 35.9145 38.0037 35.9501C38.0676 35.962 38.1199 35.962 38.1837 35.9323C38.3172 35.8789 38.3521 35.7188 38.2476 35.618Z" fill="#0C0A35"/>
<path d="M37.6441 36.288C37.319 36.2228 37.2145 36.7388 37.5396 36.804C37.8705 36.8752 37.9692 36.3533 37.6441 36.288Z" fill="#0C0A35"/>
<path d="M37.3713 37.3379C37.0578 37.2727 36.9591 37.7709 37.2726 37.8361C37.5861 37.8954 37.6848 37.4031 37.3713 37.3379Z" fill="#0C0A35"/>
<path d="M37.1967 38.2159C36.9006 38.1566 36.8078 38.6251 37.1039 38.6844C37.3999 38.7437 37.4928 38.2752 37.1967 38.2159Z" fill="#0C0A35"/>
<path d="M38.66 33.1863C39.0432 33.2397 39.1593 33.6904 38.6716 35.0901C38.1839 36.4898 38.1259 37.676 38.3233 38.5123C38.5149 39.3485 38.7645 40.7008 38.1027 40.6711C37.4408 40.6474 36.9532 39.4849 36.8603 38.3284C36.7616 37.1185 37.0228 36.1577 37.2609 35.2562C37.4989 34.3547 38.2478 33.127 38.66 33.1863Z" fill="#990028"/>
<path d="M41.3996 33.5659C41.8757 33.5481 42.2589 33.7734 42.0499 35.5705C41.8409 37.3676 41.1674 40.9024 40.4708 41.0982C39.7741 41.288 39.6115 40.8906 39.6173 40.25C39.6348 39.6036 40.523 33.6014 41.3996 33.5659Z" fill="#990028"/>
<path d="M37.9879 35.0663C38.0517 35.1019 38.1098 35.1078 38.1853 35.1078C38.4059 35.1078 38.4697 34.7639 38.2723 34.6749C38.2027 34.6452 38.1504 34.6334 38.075 34.6393C37.8543 34.6512 37.7905 34.9655 37.9879 35.0663Z" fill="#0C0A35"/>
<path d="M37.9166 35.7011C37.7366 35.6655 37.5624 35.7842 37.5218 35.968C37.487 36.1519 37.6031 36.3298 37.783 36.3713C37.963 36.4069 38.143 36.2883 38.1778 36.1044C38.2126 35.9206 38.0965 35.7426 37.9166 35.7011Z" fill="#0C0A35"/>
<path d="M37.451 37.6167C37.4626 37.6226 37.4742 37.6285 37.4859 37.6345C37.6716 37.7412 37.9097 37.6108 37.9503 37.4032C37.9909 37.2015 37.8226 36.9821 37.6078 37.0058C37.5962 37.0058 37.5846 37.0117 37.5671 37.0117C37.2594 37.0532 37.1782 37.4625 37.451 37.6167Z" fill="#0C0A35"/>
<path d="M37.405 38.8267C37.5327 38.9631 37.7185 38.9809 37.8752 38.8801C37.9972 38.797 38.032 38.6191 37.9507 38.4946C37.8462 38.3404 37.6721 38.281 37.4979 38.3582C37.3063 38.4412 37.2599 38.6784 37.405 38.8267Z" fill="#0C0A35"/>
<path d="M37.7535 40.0246C37.7942 40.0483 37.8348 40.0661 37.887 40.0721C38.1715 40.1076 38.247 39.7103 37.9741 39.6272C37.9277 39.6154 37.887 39.6094 37.8348 39.6154C37.6258 39.645 37.5736 39.9178 37.7535 40.0246Z" fill="#0C0A35"/>
<path d="M40.4938 40.5764C40.4996 40.5704 40.5054 40.5704 40.5054 40.5645C40.6447 40.4518 40.6621 40.2146 40.4821 40.1256C40.4763 40.1256 40.4705 40.1197 40.4647 40.1197C40.2906 40.0367 40.0758 40.1671 40.0874 40.3747C40.099 40.5586 40.337 40.7069 40.4938 40.5764Z" fill="#0C0A35"/>
<path d="M40.6279 39.5918C40.6337 39.5859 40.6395 39.5799 40.6453 39.5799C40.7672 39.4791 40.7905 39.3486 40.7208 39.2063C40.715 39.2003 40.715 39.1944 40.7092 39.1885C40.5931 38.9513 40.2331 39.0639 40.1867 39.2893C40.1402 39.5206 40.4247 39.7638 40.6279 39.5918Z" fill="#0C0A35"/>
<path d="M40.8136 38.5122C40.86 38.4944 40.9065 38.4707 40.9529 38.4469C41.0865 38.3698 41.1329 38.18 41.0865 38.0436C41.0342 37.8894 40.8949 37.8064 40.7381 37.8064C40.7149 37.8064 40.6917 37.8064 40.6685 37.8123C40.4769 37.8479 40.3259 37.9843 40.3375 38.1978C40.3666 38.4291 40.5988 38.5952 40.8136 38.5122Z" fill="#0C0A35"/>
<path d="M40.9404 36.6383C40.4992 36.5493 40.3599 37.2492 40.8011 37.3381C41.2481 37.4271 41.3875 36.7273 40.9404 36.6383Z" fill="#0C0A35"/>
<path d="M41.1618 35.5468C40.8251 35.4756 40.7206 36.0094 41.0574 36.0806C41.3941 36.1518 41.4986 35.612 41.1618 35.5468Z" fill="#0C0A35"/>
<path d="M41.3249 34.7285C41.0463 34.6691 40.9592 35.114 41.2379 35.1673C41.5165 35.2267 41.6036 34.7818 41.3249 34.7285Z" fill="#0C0A35"/>
<path d="M41.4926 34.3904C41.4984 34.3844 41.5042 34.3844 41.51 34.3785C41.568 34.3429 41.5796 34.2599 41.5448 34.2006C41.539 34.1946 41.539 34.1887 41.5332 34.1828C41.4635 34.076 41.2952 34.1057 41.2661 34.2362C41.2429 34.3666 41.3881 34.4615 41.4926 34.3904Z" fill="#0C0A35"/>
<path d="M38.4498 33.9752C38.2176 33.9277 38.1421 34.2954 38.3743 34.3429C38.6066 34.3903 38.682 34.0226 38.4498 33.9752Z" fill="#0C0A35"/>
<path d="M44.998 34.4258C44.6148 34.3902 44.3477 34.6868 44.2607 36.1755C44.1736 37.6582 43.773 38.7732 43.2795 39.4671C42.7802 40.1611 42.0371 41.3057 42.6583 41.543C43.2737 41.7802 44.1736 40.9084 44.6961 39.8823C45.2476 38.8029 45.3579 37.8124 45.4972 36.8931C45.6482 35.9026 45.4334 34.4614 44.998 34.4258Z" fill="#990028"/>
<path d="M44.9001 36.4246C44.8247 36.4305 44.7724 36.4127 44.7028 36.389C44.4996 36.306 44.5692 35.9561 44.7898 35.9561C44.8653 35.9561 44.9176 35.9679 44.9872 35.9976C45.1788 36.0984 45.1208 36.4127 44.9001 36.4246Z" fill="#0C0A35"/>
<path d="M44.7203 37.0415C44.9003 37.077 45.0164 37.2609 44.9815 37.4448C44.9467 37.6286 44.7667 37.7472 44.5868 37.7117C44.4068 37.6761 44.2907 37.4922 44.3255 37.3084C44.3603 37.1245 44.5403 37.0059 44.7203 37.0415Z" fill="#0C0A35"/>
<path d="M44.4196 38.9927C44.408 38.9927 44.3906 38.9986 44.379 38.9986C44.17 39.0223 43.9958 38.8088 44.0422 38.6013C44.0829 38.3996 44.3209 38.2632 44.5067 38.3699C44.5183 38.3759 44.5299 38.3818 44.5415 38.3877C44.8086 38.5479 44.7273 38.9571 44.4196 38.9927Z" fill="#0C0A35"/>
<path d="M43.9954 40.1254C43.827 40.1966 43.647 40.1432 43.5425 39.989C43.4613 39.8644 43.4961 39.6865 43.618 39.6035C43.769 39.5026 43.9547 39.5204 44.0883 39.6568C44.2392 39.8051 44.1928 40.0424 43.9954 40.1254Z" fill="#0C0A35"/>
<path d="M43.2174 41.0863C43.1651 41.0923 43.1245 41.0923 43.0781 41.0745C42.8052 40.9914 42.8807 40.6 43.1651 40.6297C43.2174 40.6356 43.2522 40.6474 43.2987 40.6771C43.4844 40.7898 43.4264 41.0626 43.2174 41.0863Z" fill="#0C0A35"/>
<path d="M44.8893 35.2382C45.1215 35.2857 45.0518 35.6593 44.8138 35.6059C44.5816 35.5585 44.657 35.1908 44.8893 35.2382Z" fill="#0C0A35"/>
<path d="M37.5565 31.7627C37.5449 31.7568 37.5333 31.7509 37.5217 31.7449C37.3359 31.6382 37.0978 31.7746 37.0572 31.9763C37.0166 32.1779 37.1907 32.3974 37.3997 32.3677C37.4113 32.3677 37.4288 32.3618 37.4404 32.3618C37.7481 32.3262 37.8293 31.9169 37.5565 31.7627Z" fill="#0C0A35"/>
<path d="M18.4867 47.9782C18.475 47.9723 18.4634 47.9663 18.4518 47.9604C18.2661 47.8536 18.028 47.9901 17.9874 48.1917C17.9467 48.3934 18.1209 48.6128 18.3299 48.5832C18.3415 48.5832 18.3531 48.5832 18.3705 48.5772C18.6782 48.5416 18.7595 48.1383 18.4867 47.9782Z" fill="#0C0A35"/>
<path d="M15.5604 49.3007C15.5488 49.2948 15.5372 49.2888 15.5255 49.2829C15.3398 49.1762 15.1017 49.3126 15.0611 49.5142C15.0205 49.7159 15.1946 49.9353 15.4036 49.9057C15.4152 49.9057 15.4268 49.8997 15.4443 49.8997C15.7519 49.8641 15.8332 49.4549 15.5604 49.3007Z" fill="#0C0A35"/>
<path d="M19.8314 47.2663C19.8198 47.2603 19.8081 47.2544 19.7965 47.2485C19.6108 47.1417 19.3727 47.2781 19.3321 47.4798C19.2915 47.6814 19.4656 47.9009 19.6746 47.8712C19.6862 47.8712 19.6979 47.8712 19.7153 47.8653C20.023 47.8297 20.1042 47.4205 19.8314 47.2663Z" fill="#0C0A35"/>
<path d="M17.1107 48.684C17.0991 48.6781 17.0875 48.6721 17.0759 48.6662C16.8901 48.5595 16.652 48.6959 16.6114 48.8975C16.5708 49.0992 16.7449 49.3186 16.9539 49.289C16.9655 49.289 16.983 49.283 16.9946 49.283C17.3023 49.2474 17.3777 48.8382 17.1107 48.684Z" fill="#0C0A35"/>
<path d="M39.0189 30.8256C39.0073 30.8197 38.9957 30.8137 38.9841 30.8078C38.7983 30.7011 38.5602 30.8375 38.5196 31.0391C38.479 31.2408 38.6531 31.4602 38.8621 31.4306C38.8738 31.4306 38.8854 31.4246 38.9028 31.4246C39.2105 31.389 39.2918 30.9857 39.0189 30.8256Z" fill="#0C0A35"/>
<path d="M40.4764 29.9479C40.4648 29.942 40.4532 29.9361 40.4416 29.9301C40.2558 29.8234 40.0178 29.9598 39.9771 30.1614C39.9365 30.3631 40.1106 30.5825 40.3196 30.5529C40.3313 30.5529 40.3487 30.5469 40.3603 30.5469C40.6738 30.5114 40.7493 30.1021 40.4764 29.9479Z" fill="#0C0A35"/>
<path d="M41.8592 29.2481C41.8476 29.2422 41.836 29.2362 41.8244 29.2303C41.6386 29.1235 41.4006 29.26 41.3599 29.4616C41.3193 29.6633 41.4935 29.8827 41.7025 29.8531C41.7141 29.8531 41.7257 29.8471 41.7431 29.8471C42.0508 29.8115 42.1321 29.4023 41.8592 29.2481Z" fill="#0C0A35"/>
<defs>
<filter id="filter0_f" x="-41.1792" y="-51.2157" width="142.131" height="114.029" filterUnits="userSpaceOnUse" color-interpolation-filters="sRGB">
<feFlood flood-opacity="0" result="BackgroundImageFix"/>
<feBlend mode="normal" in="SourceGraphic" in2="BackgroundImageFix" result="shape"/>
<feGaussianBlur stdDeviation="26.5" result="effect1_foregroundBlur"/>
</filter>
<filter id="filter1_f" x="16.2031" y="-26.3158" width="77.4887" height="110.414" filterUnits="userSpaceOnUse" color-interpolation-filters="sRGB">
<feFlood flood-opacity="0" result="BackgroundImageFix"/>
<feBlend mode="normal" in="SourceGraphic" in2="BackgroundImageFix" result="shape"/>
<feGaussianBlur stdDeviation="18.5" result="effect1_foregroundBlur"/>
</filter>
<filter id="filter2_f" x="-34.3232" y="-26.2943" width="78.6837" height="110.354" filterUnits="userSpaceOnUse" color-interpolation-filters="sRGB">
<feFlood flood-opacity="0" result="BackgroundImageFix"/>
<feBlend mode="normal" in="SourceGraphic" in2="BackgroundImageFix" result="shape"/>
<feGaussianBlur stdDeviation="18.5" result="effect1_foregroundBlur"/>
</filter>
<filter id="filter3_f" x="-15.3945" y="-7.23828" width="36.6797" height="40.0781" filterUnits="userSpaceOnUse" color-interpolation-filters="sRGB">
<feFlood flood-opacity="0" result="BackgroundImageFix"/>
<feBlend mode="normal" in="SourceGraphic" in2="BackgroundImageFix" result="shape"/>
<feGaussianBlur stdDeviation="9" result="effect1_foregroundBlur"/>
</filter>
<filter id="filter4_f" x="30.1753" y="-12.201" width="41.0636" height="42.8212" filterUnits="userSpaceOnUse" color-interpolation-filters="sRGB">
<feFlood flood-opacity="0" result="BackgroundImageFix"/>
<feBlend mode="normal" in="SourceGraphic" in2="BackgroundImageFix" result="shape"/>
<feGaussianBlur stdDeviation="9" result="effect1_foregroundBlur"/>
</filter>
<filter id="filter5_f" x="-13.3428" y="-13.1313" width="40.8376" height="42.6897" filterUnits="userSpaceOnUse" color-interpolation-filters="sRGB">
<feFlood flood-opacity="0" result="BackgroundImageFix"/>
<feBlend mode="normal" in="SourceGraphic" in2="BackgroundImageFix" result="shape"/>
<feGaussianBlur stdDeviation="9" result="effect1_foregroundBlur"/>
</filter>
<filter id="filter6_f" x="-9.77783" y="31.3363" width="39.9481" height="40.5428" filterUnits="userSpaceOnUse" color-interpolation-filters="sRGB">
<feFlood flood-opacity="0" result="BackgroundImageFix"/>
<feBlend mode="normal" in="SourceGraphic" in2="BackgroundImageFix" result="shape"/>
<feGaussianBlur stdDeviation="9" result="effect1_foregroundBlur"/>
</filter>
<linearGradient id="paint0_linear" x1="0" y1="29" x2="58" y2="29" gradientUnits="userSpaceOnUse">
<stop stop-color="#6F7797"/>
<stop offset="1" stop-color="#2A3355"/>
</linearGradient>
<linearGradient id="paint1_linear" x1="29" y1="0" x2="29" y2="58" gradientUnits="userSpaceOnUse">
<stop stop-color="#475263"/>
<stop offset="1" stop-color="#545D69" stop-opacity="0"/>
</linearGradient>
<linearGradient id="paint2_linear" x1="29" y1="0" x2="29" y2="58" gradientUnits="userSpaceOnUse">
<stop stop-color="#475263"/>
<stop offset="1" stop-color="#545D69" stop-opacity="0"/>
</linearGradient>
</defs>
</svg>
