<svg width="38" height="46" viewBox="0 0 38 46" fill="none" xmlns="http://www.w3.org/2000/svg">
<path d="M11.4005 24.087C11.5605 23.9402 11.6712 23.7446 11.8558 23.6406C12.1203 23.4877 12.4587 23.555 12.7355 23.6712C13.0185 23.7874 13.2831 23.9586 13.5846 24.0075C14.089 24.087 14.5874 23.8057 14.9381 23.4449C15.2949 23.0841 15.5471 22.6316 15.8732 22.2464C16.1008 21.9712 16.3654 21.7266 16.593 21.4453C17.2821 20.5769 17.522 19.3723 17.2328 18.3021C16.9437 17.232 16.1439 16.3147 15.1226 15.8561C15.0242 15.8133 14.9196 15.7705 14.815 15.7766C14.6858 15.7827 14.5689 15.8439 14.4582 15.9111C14.169 16.0762 13.886 16.2413 13.6153 16.4309C12.7356 17.0485 12.0465 17.9169 11.6466 18.9075C11.5236 19.2072 11.4251 19.5313 11.2036 19.7697C10.9391 20.0572 10.5392 20.1733 10.1885 20.3446C9.46872 20.6992 8.89656 21.3352 8.62586 22.0874C8.37362 22.7906 8.4536 23.7079 9.08728 24.1053C9.30876 24.246 9.5733 24.301 9.83785 24.3438C10.3792 24.4294 11.0006 24.4539 11.4005 24.087Z" fill="#990028"/>
<path d="M9.08734 25.3774C8.72436 24.4601 8.69361 23.3655 9.17348 22.4849C9.6349 21.6227 10.7977 21.1763 11.5605 20.6198C12.7479 19.7576 13.0125 18.5346 13.2032 17.1587C13.2093 17.1097 13.1478 17.0731 13.117 17.122C12.5264 18.1554 12.5941 19.25 11.6651 20.1428C10.9761 20.8094 10.0409 21.1641 9.33343 21.8123C8.39214 22.6684 8.18297 24.4418 9.03198 25.4079C9.05043 25.4385 9.09965 25.4141 9.08734 25.3774Z" fill="#0C0A35"/>
<path d="M9.65331 24.9739C9.57948 23.9221 9.78865 23.1271 10.6684 22.4728C11.2652 22.0264 11.9112 21.6412 12.5325 21.2376C13.4 20.6689 14.1383 19.8678 14.0398 18.7793C14.0275 18.6753 13.8983 18.657 13.8614 18.7548C13.4308 19.8005 13.0063 20.4059 12.0588 21.048C11.4436 21.4638 10.8222 21.8735 10.2316 22.3261C9.37031 22.9865 9.13651 23.9955 9.54871 24.9861C9.56717 25.035 9.65946 25.035 9.65331 24.9739Z" fill="#0C0A35"/>
<path d="M10.1517 25.2368C10.4716 23.653 11.4867 23.0354 12.7602 22.2037C13.5846 21.6656 14.3475 21.0174 14.5013 20.0023C14.5198 19.8983 14.3906 19.8372 14.329 19.9289C13.8553 20.6199 13.6277 21.1764 12.914 21.7023C12.3357 22.1242 11.6405 22.4239 11.1053 22.9008C10.4101 23.5185 9.89944 24.2767 10.0471 25.2368C10.0594 25.2857 10.1394 25.2857 10.1517 25.2368Z" fill="#0C0A35"/>
<path d="M11.4005 25.1944C11.6773 23.9041 12.3972 23.2192 13.5845 22.73C14.3536 22.412 14.8396 21.721 15.1226 20.9627C15.1472 20.8954 15.0549 20.8282 14.9996 20.8649C14.5627 21.1584 14.3966 21.6721 14.0398 22.0573C13.603 22.5282 12.8586 22.5649 12.3725 22.9746C11.7573 23.4944 11.1298 24.3505 11.3144 25.1944C11.3205 25.231 11.3882 25.231 11.4005 25.1944Z" fill="#0C0A35"/>
<path d="M12.6495 25.2187C12.8587 23.3413 15.4672 23.0172 15.7379 21.0359C15.7502 20.9564 15.6456 20.9014 15.6026 20.9809C15.3073 21.5129 15.0489 22.0144 14.6244 22.4608C14.2675 22.8399 13.8246 23.1028 13.4185 23.4208C12.9202 23.8122 12.0712 24.5644 12.5757 25.237C12.6003 25.2737 12.6434 25.2615 12.6495 25.2187Z" fill="#0C0A35"/>
<path d="M6.54639 27.9576C6.50948 27.7925 6.97706 27.395 7.13086 27.3339C8.16444 26.9058 11.7573 26.6979 12.8463 26.4288C13.9291 26.1598 15.3564 25.5238 15.7993 24.5026C16.1254 23.7627 16.0393 22.9004 15.7993 22.1238C15.7317 21.8976 15.6455 21.6652 15.6517 21.4267C15.6579 21.1576 15.7747 20.9069 15.9224 20.6806C16.3408 20.0324 16.9744 19.5555 17.6327 19.1458C18.7463 18.4609 20.0321 17.9227 21.3364 18.0512C21.847 18.1001 22.3515 18.2591 22.7514 18.5832C23.6127 19.2803 23.7296 20.5217 23.7849 21.6224C23.8465 22.7231 23.625 24.5637 24.5847 25.1202C25.4891 25.6461 31.6167 26.5389 28.2269 26.6123C28.0854 26.6184 25.7475 26.7346 25.6737 26.8569C24.9354 28.0432 23.3604 27.5234 22.3884 28.5324C21.6563 29.2968 20.8319 30.0184 19.8414 30.3853C18.8509 30.7522 17.7681 30.7339 16.716 30.7155C16.1316 30.7033 15.5409 30.6911 14.9872 30.5198C13.5907 30.0857 12.6556 28.7159 11.2836 28.2206C10.7607 28.0249 6.5587 28.0371 6.54639 27.9576Z" fill="#FFD6A1"/>
<path d="M35.3572 43.6616C34.8589 41.9249 34.7112 40.1393 34.9142 38.3659C34.9573 38.0051 35.0126 37.6382 35.1541 37.2958C35.5602 36.299 36.643 35.4918 37.0798 34.5012C37.4366 33.7001 37.332 32.7951 36.8029 32.0429C36.2677 31.2908 35.3141 30.6915 34.1944 30.4163C34.0714 30.3857 33.9422 30.3551 33.8376 30.294C33.6715 30.1962 33.6099 30.0433 33.5484 29.8965C33.3269 29.3278 33.1731 29.1321 32.9517 28.5634C32.7548 28.0498 32.398 27.64 32.0411 27.1692C31.6843 26.6983 31.1552 26.3987 30.5031 26.1296C29.3957 25.671 28.4359 25.5426 27.187 25.7566C26.3134 25.9095 25.6244 26.0318 24.843 26.3375C24.0617 26.6433 20.6164 28.2149 19.9274 28.6674C18.2786 29.7375 15.5101 29.7864 13.769 28.7897C13.0123 28.3616 12.4524 27.7685 11.6403 27.3954C10.6252 26.9307 9.78852 26.631 8.58268 26.6372C7.14306 26.6433 5.76497 27.3159 5.41429 27.5177C4.23306 28.1904 3.79625 28.7713 3.41482 29.8109C3.05184 30.8077 2.68886 31.8105 2.32588 32.8073C2.08594 33.4616 1.846 34.122 1.74141 34.7947C1.65528 35.3512 1.65529 35.9077 1.65529 36.4641C1.65529 38.4515 1.66143 40.4512 1.95058 42.4264C1.9875 42.6832 2.03672 42.9461 2.22744 43.1663C2.42431 43.3803 2.8119 43.5332 3.15028 43.4476C4.7437 43.0501 6.75547 43.1296 8.42888 42.9645C10.5945 42.7504 12.7908 42.8483 14.9687 42.9461C17.3435 43.0501 19.7182 43.1602 22.0991 43.2641C24.3078 43.362 26.5226 43.4659 28.7312 43.5638C29.5064 43.6005 30.2877 43.631 31.0383 43.7594C31.5428 43.8451 32.035 43.9674 32.5456 44.0285C33.4684 44.1569 34.5082 43.949 35.3572 43.6616Z" fill="#B70027"/>
<path d="M21.687 21.5246C21.9085 21.916 22.1299 22.3746 21.9638 22.7843C21.8777 22.9922 21.7054 23.1512 21.527 23.298C19.9151 24.6127 17.688 25.1508 15.6455 24.7106C15.9962 24.2397 16.0085 23.4386 16.0823 23.4508C18.0572 23.7016 20.272 22.8944 21.4532 21.3044C21.5639 21.3228 21.6316 21.4267 21.687 21.5246Z" fill="#990028"/>
<path d="M17.6081 28.2144C17.4051 28.3611 17.1036 28.3061 16.919 28.1349C16.7406 27.9636 16.6668 27.7007 16.673 27.45C16.6791 27.1992 16.7529 26.9608 16.8329 26.7223C16.9313 26.4165 17.0236 26.1108 17.1221 25.805C17.2143 25.5115 17.3128 25.2057 17.522 24.9856C17.5589 24.9428 17.6204 24.9061 17.6635 24.9428C17.6758 24.955 17.6819 24.9795 17.6881 24.9978C17.8788 25.8967 18.0757 26.8262 17.8726 27.719C17.8296 27.9086 17.7619 28.1043 17.6081 28.2144Z" fill="#0C0A35"/>
<path d="M14.0027 26.6248C13.8489 26.4719 13.8613 26.2151 13.972 26.0255C14.0827 25.842 14.2612 25.7136 14.4396 25.5913C14.7841 25.3528 15.1963 25.0899 15.5039 24.8025C15.6762 24.6374 15.7315 24.8208 15.7315 24.9676C15.6823 25.3589 15.5347 25.5913 15.3685 25.9521C15.2024 26.3129 14.9071 26.6309 14.5196 26.7226C14.3411 26.7715 14.1319 26.7593 14.0027 26.6248Z" fill="#0C0A35"/>
<path d="M20.2105 26.7591C20.4381 26.8936 20.758 26.808 20.961 26.6368C21.1025 26.5084 21.0964 26.0742 21.0595 25.8846C20.9241 25.1141 20.5673 24.8756 20.1366 24.4965C20.0567 24.4292 19.9336 24.3559 19.8536 24.4292C19.8167 24.4659 19.8106 24.5271 19.8106 24.5821C19.8106 24.9918 19.7921 25.4015 19.8167 25.8113C19.8536 26.3433 19.9582 26.6123 20.2105 26.7591Z" fill="#0C0A35"/>
<path d="M13.4922 8.61542C13.4122 8.54815 13.3015 8.63376 13.24 8.71937C12.594 9.63052 12.8954 10.8719 12.7355 11.9726C12.6494 12.578 12.3418 13.269 11.9788 13.7582C11.5112 14.4003 10.8714 14.8651 10.7299 15.6172C10.7053 15.7579 10.8222 15.8618 10.9575 15.8985C11.2836 15.9902 11.7881 15.9291 12.0157 16.1309C12.1141 16.2165 12.108 16.3816 12.1141 16.51C12.1387 17.1399 11.9173 17.782 12.0588 18.3996C12.2249 19.1456 12.8832 19.6838 13.1723 20.3931C13.3138 20.7417 13.363 21.1269 13.4553 21.4938C13.5845 22.0075 13.8121 22.4906 14.1197 22.9248C14.3904 23.31 14.9995 23.4812 15.4425 23.31C16.1869 23.0226 16.8329 22.5517 17.4666 22.0809C18.3586 21.4266 19.2815 20.7355 19.7798 19.7571C19.9213 19.4819 20.0259 19.1884 20.1612 18.9194C20.555 18.1489 21.2194 17.5435 21.6808 16.8035C22.2961 15.8251 22.5237 14.6571 22.6283 13.5075C22.6775 12.9755 22.7082 12.4374 22.616 11.9053C22.456 10.9942 21.9331 10.1687 21.2256 9.56937C20.5181 8.97009 19.6383 8.59708 18.7216 8.41974C17.9403 8.27298 17.1343 8.26686 16.3345 8.26686C15.6701 8.26686 15.0057 8.26074 14.3412 8.26074C14.089 8.27297 13.5353 8.35247 13.4922 8.61542Z" fill="#FFD6A1"/>
<path d="M18.2971 9.05612C18.3278 9.07446 18.3463 9.09893 18.3648 9.12951C18.537 9.38634 18.7093 9.64317 18.8816 9.9C18.0572 10.3036 17.1405 10.5604 16.2176 10.5299C15.2948 10.4993 14.3658 10.1691 13.7137 9.52087C13.9475 9.30684 14.1813 9.09281 14.4212 8.87878C15.5286 9.52698 16.9559 9.60037 18.1248 9.08058C18.1802 9.05612 18.2417 9.03166 18.2971 9.05612Z" fill="#0C0A35"/>
<path d="M19.5522 14.5961C19.343 14.4188 19.0846 14.2965 18.8139 14.2598C18.5063 14.2231 18.1926 14.3209 17.928 14.4799C17.5281 14.7245 17.2082 15.1526 17.2267 15.6173C17.2513 16.186 17.7619 16.6324 18.3095 16.822C18.7094 16.9565 19.1769 16.981 19.5153 16.7364C19.7429 16.5713 19.8721 16.3022 19.9644 16.0332C20.0752 15.7152 20.1736 15.122 19.5522 14.5961Z" fill="#F70032"/>
<path d="M12.5263 17.3912C12.6617 17.0548 12.8278 16.7797 13.1908 16.7491C13.566 16.7185 13.8244 17.1221 13.7629 17.434C13.5783 18.3512 13.3076 19.03 12.8831 19.8678C12.6309 19.721 11.5235 18.2534 11.5481 17.5624C11.5543 17.3728 11.5912 17.1771 11.7204 17.0426C11.8496 16.9081 12.071 16.8653 12.2433 16.9386C12.4217 17.012 12.5386 17.2016 12.5263 17.3912Z" fill="#F70032"/>
<path d="M27.3409 17.3114C27.3717 18.033 27.3963 18.7729 27.1564 19.4517C27.0395 19.7819 26.861 20.0876 26.7749 20.4301C26.6888 20.7664 26.7134 21.1639 26.9595 21.4146C27.101 21.5553 27.2917 21.6348 27.4455 21.7632C27.8823 22.1178 27.9315 22.7966 27.6855 23.2981C27.4394 23.7995 26.9656 24.1542 26.4796 24.4294C25.5998 24.9247 24.5847 25.2304 23.5758 25.1448C22.5668 25.0592 21.5701 24.5394 21.041 23.6833C20.8319 23.3348 20.6965 22.9373 20.715 22.5337C20.7396 22.1301 20.8442 21.6714 21.1456 21.4024C21.9823 20.6563 22.7452 20.9315 22.7268 20.1304C22.7145 19.5495 21.9085 19.4822 21.6255 19.4456C20.7027 19.3355 18.9678 18.143 20.5181 16.4858C20.8996 16.0761 21.3733 15.7704 21.847 15.4646C21.97 15.3851 22.0931 15.2995 22.1669 15.1772C22.3945 14.792 21.9885 14.315 21.5578 14.1743C21.1272 14.0398 20.6411 14.0704 20.2536 13.8441C19.7798 13.5689 19.5768 12.988 19.5399 12.4438C19.503 11.8995 19.5891 11.3492 19.5153 10.811C19.4476 10.3157 19.2446 9.83262 18.9308 9.44125C18.7955 9.26391 18.6294 9.10492 18.4202 9.0132C18.2356 8.92758 18.0265 8.90924 17.8234 8.89701C17.1036 8.84197 16.3838 8.81139 15.664 8.80527C15.2826 8.80527 14.8888 8.8114 14.5504 8.98262C13.443 9.53909 13.3446 11.4287 12.268 12.0402C11.7819 12.3153 11.1298 12.3215 10.5946 12.1625C9.90552 11.9668 9.51176 11.4592 9.25337 10.7927C8.915 9.91211 9.53638 8.87866 10.3977 8.4873C10.853 8.27938 11.4497 8.24269 11.7143 7.82075C12.0957 7.20924 11.702 6.99521 11.8496 6.5855C12.0772 5.94953 12.9816 5.4114 13.6645 5.36248C14.3228 5.31968 15.0734 5.33802 15.3502 5.9373C15.4117 6.07183 15.4548 6.21859 15.5225 6.35312C15.787 6.85456 16.4576 7.02578 17.0113 6.89737C17.565 6.77507 18.0388 6.4265 18.5063 6.1024C18.9739 5.7783 19.4784 5.46643 20.0505 5.42363C20.5243 5.39305 20.9918 5.55817 21.4102 5.78442C22.9175 6.62219 23.7788 8.24269 24.5478 9.78369C25.1138 10.9272 25.6737 12.0769 26.0613 13.2876C26.4981 14.6452 27.2856 15.8927 27.3409 17.3114Z" fill="#D6002B"/>
<path d="M11.6466 18.1309C11.9234 18.5712 12.7417 18.4305 13.1662 18.3572C13.7752 18.2532 14.532 17.9597 14.9072 17.4521C14.9319 17.4215 14.8888 17.3726 14.858 17.3849C14.3536 17.5928 13.9044 17.8679 13.3692 18.0147C12.7786 18.1737 12.2495 18.0636 11.665 18.0881C11.6466 18.0881 11.6343 18.1125 11.6466 18.1309Z" fill="#0C0A35"/>
<path d="M15.9346 23.2064C17.0605 22.9068 17.9034 22.0507 18.7585 21.3108C19.423 20.7359 19.8844 19.996 20.0628 19.1277C20.0751 19.0726 19.9951 19.0543 19.9767 19.1032C19.6444 19.9899 19.2322 20.4608 18.5309 21.0784C18.0879 21.4759 17.6388 21.8733 17.1651 22.2341C16.759 22.5399 16.273 22.7295 15.8608 23.023C15.7685 23.0902 15.8239 23.2309 15.9346 23.2064Z" fill="#0C0A35"/>
<path d="M13.8614 11.4841C13.8921 11.6492 13.9721 11.8877 14.1874 11.8632C14.2182 11.8571 14.2244 11.8204 14.2121 11.7959C14.1505 11.6614 13.9967 11.5819 13.9229 11.4596C13.9106 11.4229 13.8552 11.4413 13.8614 11.4841Z" fill="#0C0A35"/>
<path d="M16.0208 10.7134C15.9654 10.7868 15.9777 10.8663 15.9777 10.958C15.9777 11.1109 16.2177 11.1109 16.2115 10.958C16.2115 10.8724 16.2177 10.7929 16.1684 10.7134C16.1315 10.6584 16.0638 10.6584 16.0208 10.7134Z" fill="#0C0A35"/>
<path d="M14.778 11.0313C14.7657 11.1352 14.8211 11.2086 14.8826 11.282C14.9749 11.3982 15.1594 11.2514 15.0856 11.1291C15.0364 11.0496 14.981 10.9762 14.8826 10.9579C14.8272 10.9456 14.7841 10.9762 14.778 11.0313Z" fill="#0C0A35"/>
<path d="M18.174 11.8937C18.2602 11.9365 18.3217 11.8754 18.3955 11.8203C18.4939 11.7408 18.5555 11.6613 18.5739 11.539C18.5801 11.4901 18.5247 11.4779 18.4878 11.4901C18.4017 11.5268 18.3524 11.588 18.2971 11.6614C18.2417 11.7286 18.1556 11.7592 18.1556 11.8509C18.1494 11.8631 18.1556 11.8815 18.174 11.8937Z" fill="#0C0A35"/>
<path d="M17.2389 11.2457C17.3004 11.1356 17.3927 11.0561 17.4235 10.9216C17.4296 10.891 17.405 10.8665 17.3743 10.8726C17.2082 10.9093 17.0974 11.0072 17.042 11.1601C16.9928 11.2762 17.1774 11.3496 17.2389 11.2457Z" fill="#0C0A35"/>
<path d="M14.3843 13.2749C14.4458 13.1832 14.5197 13.1037 14.5935 13.0303C14.655 12.9692 14.6981 12.9325 14.6981 12.8469C14.6981 12.8224 14.6735 12.7979 14.6488 12.7979C14.452 12.7918 14.3289 13.0792 14.2859 13.2382C14.2736 13.2933 14.3535 13.3238 14.3843 13.2749Z" fill="#0C0A35"/>
<path d="M15.4117 13.5753C15.4917 13.4652 15.5532 13.2757 15.4978 13.1472C15.4794 13.1044 15.4486 13.0922 15.4055 13.1106C15.2456 13.1778 15.2394 13.4102 15.264 13.557C15.2764 13.6303 15.3748 13.6181 15.4117 13.5753Z" fill="#0C0A35"/>
<path d="M16.2669 13.6669C16.3592 13.563 16.4453 13.355 16.3161 13.2511C16.2792 13.2205 16.2361 13.2205 16.1992 13.2511C16.07 13.355 16.1562 13.563 16.2423 13.6669C16.2485 13.6791 16.2608 13.6791 16.2669 13.6669Z" fill="#0C0A35"/>
<path d="M17.6819 13.2815C17.6819 13.202 17.6388 13.1286 17.6142 13.0491C17.5834 12.9635 17.5588 12.9085 17.4604 12.884C17.4358 12.8779 17.4112 12.884 17.3989 12.9085C17.3558 12.9941 17.3743 13.043 17.4112 13.1286C17.4481 13.2081 17.4727 13.2999 17.5588 13.3427C17.6142 13.3794 17.6819 13.3427 17.6819 13.2815Z" fill="#0C0A35"/>
<path d="M18.5863 13.0248C18.6293 12.9025 18.4817 12.7252 18.3832 12.6702C18.2664 12.609 18.1618 12.7313 18.211 12.8414C18.2479 12.9209 18.5124 13.2266 18.5863 13.0248Z" fill="#0C0A35"/>
<path d="M18.9 12.334C17.3927 13.453 15.1902 13.5448 13.5968 12.5541C13.9475 11.9243 14.5442 11.4351 15.2394 11.2149C15.9285 10.9948 16.7037 11.0498 17.3558 11.3678C17.565 11.4717 17.7619 11.594 17.9587 11.7225C18.2663 11.9304 18.5801 12.1322 18.9 12.334Z" fill="white"/>
<path d="M16.6975 11.8568C16.5253 11.6428 16.2053 11.5083 15.8547 11.5755C15.584 11.6306 15.3071 11.918 15.3071 12.187C15.3071 12.4561 15.5225 12.6885 15.7685 12.7986C15.9654 12.8903 16.1992 12.927 16.4084 12.8597C16.6175 12.7986 17.1159 12.3705 16.6975 11.8568Z" fill="#0C0A35"/>
<path d="M12.5877 6.08401C12.2986 6.36531 12.3232 6.69552 12.3109 7.08689C12.274 8.57897 11.1051 8.84804 9.99151 9.40452C8.90871 9.94265 9.00101 11.2329 9.46242 12.138C9.50549 12.2236 9.62853 12.1624 9.61623 12.0768C9.4009 10.9577 9.30245 9.94876 10.6559 9.43509C11.1235 9.25776 11.4865 9.12322 11.8802 8.81135C12.8954 8.01639 12.2986 7.14804 12.7169 6.16351C12.7477 6.08402 12.637 6.03509 12.5877 6.08401Z" fill="#0C0A35"/>
<path d="M13.1907 6.6036C13.0615 7.83274 12.6616 8.64604 11.6711 9.39209C11.1851 9.75899 10.6375 9.99137 10.1822 10.4072C9.49934 11.0309 9.57316 12.2662 10.1023 12.9327C10.1576 13.0061 10.2622 12.9266 10.2438 12.8471C9.95461 11.5874 10.0346 10.768 11.265 10.077C11.6772 9.8446 12.0525 9.58777 12.4217 9.29424C13.2707 8.60935 13.3691 7.61259 13.2891 6.6036C13.283 6.54245 13.1968 6.54245 13.1907 6.6036Z" fill="#0C0A35"/>
<path d="M14.1628 6.15703C13.8306 7.19659 13.9844 8.18723 13.3876 9.17788C12.9016 9.98507 11.9726 10.3398 11.2958 10.9574C10.6868 11.52 10.3115 12.8347 10.8898 13.5013C10.9944 13.6236 11.1789 13.4646 11.1051 13.3361C10.1146 11.5995 12.5078 10.6577 13.406 9.66098C14.3043 8.6581 14.292 7.42896 14.2735 6.16925C14.2674 6.1081 14.1812 6.09588 14.1628 6.15703Z" fill="#0C0A35"/>
<path d="M11.6649 13.2202C11.5173 11.7587 13.7198 10.5357 14.5257 9.48392C15.2332 8.56054 15.1902 7.12961 15.1286 6.04724C15.1163 5.83321 14.8087 5.83321 14.7964 6.04724C14.7534 6.80551 14.7964 7.54544 14.6611 8.30371C14.4703 9.36774 13.609 10.1444 12.8646 10.8598C12.1571 11.5447 11.3389 12.1501 11.548 13.2386C11.5603 13.2997 11.6711 13.2875 11.6649 13.2202Z" fill="#0C0A35"/>
<path d="M15.7685 6.0038C15.5039 6.43797 15.6516 7.05559 15.6393 7.5448C15.6147 8.33976 15.061 9.06746 15.1225 9.85019C15.1286 9.94804 15.2517 9.98473 15.3071 9.89912C15.8731 9.043 16.4145 6.93941 15.8054 6.0038C15.7869 5.99157 15.7746 5.99157 15.7685 6.0038Z" fill="#0C0A35"/>
<path d="M16.9375 6.13272C16.5684 6.5302 16.4699 7.00718 16.4146 7.53308C16.3469 8.16294 16.2239 8.92732 16.593 9.48379C16.6299 9.53883 16.7406 9.5266 16.7283 9.4471C16.6607 8.92732 16.636 8.432 16.6791 7.9061C16.7222 7.31294 16.6791 6.71977 17.0175 6.19999C17.0544 6.14495 16.9806 6.08991 16.9375 6.13272Z" fill="#0C0A35"/>
<path d="M18.2047 6.28533C17.7002 6.50547 17.6633 7.30044 17.5957 7.76518C17.4542 8.71302 17.4172 9.5508 18.0017 10.358C18.0571 10.4314 18.1678 10.3886 18.1493 10.2968C18.0817 9.99108 17.9402 9.70979 17.8479 9.40403C17.7064 8.93929 17.8233 8.31554 17.8909 7.84468C17.9525 7.41051 17.9525 6.71338 18.2601 6.35871C18.3031 6.3159 18.2539 6.26087 18.2047 6.28533Z" fill="#0C0A35"/>
<path d="M19.4599 6.68936C18.9493 6.35303 18.7832 7.44152 18.7401 7.71058C18.5925 8.63396 18.4387 10.0343 19.1892 10.7314C19.2323 10.7742 19.3123 10.7314 19.2938 10.6703C19.0293 9.85698 18.9678 9.14152 19.017 8.29763C19.0416 7.91238 18.9801 6.83612 19.4538 6.7077C19.4661 6.7077 19.4661 6.69547 19.4599 6.68936Z" fill="#0C0A35"/>
<path d="M20.1551 6.88475C20.0259 8.59698 19.6383 10.9513 20.4135 12.5718C20.9241 13.648 22.1054 14.2106 23.2374 13.6725C23.3173 13.6358 23.2743 13.5074 23.1943 13.5074C22.5975 13.5196 22.0315 13.5074 21.4655 13.2689C20.7026 12.9509 20.5242 11.8258 20.4566 11.1225C20.3212 9.71604 20.3151 8.29734 20.2043 6.88475C20.1982 6.85417 20.1551 6.85417 20.1551 6.88475Z" fill="#0C0A35"/>
<path d="M20.9118 7.06831C20.395 8.32191 20.7149 9.78342 20.9549 11.0737C21.1764 12.2784 22.3883 12.9449 23.5388 12.8043C23.5942 12.7982 23.6188 12.7126 23.5511 12.7003C22.1484 12.4068 21.3301 11.887 21.1148 10.3582C20.9672 9.26975 20.7765 8.18127 20.9487 7.08055C20.9549 7.04997 20.918 7.04385 20.9118 7.06831Z" fill="#0C0A35"/>
<path d="M23.8649 14.9018C22.8743 15.3115 21.0102 16.1065 20.9425 17.409C20.8626 18.9256 22.6529 18.7176 23.5265 19.4331C24.677 20.3748 22.2468 21.7568 21.7362 22.191C21.3486 22.5212 21.0533 23.0777 21.0164 23.5791C20.9241 24.7288 21.5762 25.805 22.7636 25.9885C22.8313 26.0007 22.8744 25.9151 22.8128 25.8784C21.1148 24.8327 21.1025 23.1817 22.7083 22.032C23.4219 21.5184 24.1663 20.9619 24.2094 20.0263C24.2463 19.2313 23.4465 18.8461 22.8128 18.6504C22.4499 18.5342 22.1176 18.4547 21.767 18.2957C20.635 17.782 21.6008 16.7363 21.9823 16.3572C22.5483 15.8007 23.2927 15.4583 23.8772 14.914C23.8772 14.9018 23.871 14.8957 23.8649 14.9018Z" fill="#0C0A35"/>
<path d="M24.6216 15.2012C23.5819 15.1829 22.5606 16.0818 22.1607 16.999C21.8654 17.6778 22.6652 18.057 23.1512 18.2526C24.4617 18.7785 25.8951 19.9282 24.5047 21.3958C23.9818 21.9462 23.2866 22.258 22.7882 22.8512C21.9392 23.8602 22.456 25.071 23.2497 25.9149C23.3296 26.0005 23.4527 25.8904 23.4035 25.7987C22.8436 24.6674 22.413 23.7807 23.5204 22.6983C23.9018 22.3253 24.3878 22.0379 24.7877 21.6832C25.3968 21.1512 25.526 20.4296 25.3906 19.6713C25.2553 18.9498 24.5786 18.4177 23.9387 18.1548C23.465 17.9591 22.1484 17.8185 22.5545 16.9073C22.8928 16.1429 23.8833 15.5926 24.6401 15.348C24.7262 15.3235 24.7139 15.2012 24.6216 15.2012Z" fill="#0C0A35"/>
<path d="M24.4063 15.9294C23.7788 16.0945 23.0344 16.4737 23.4097 17.2136C23.5573 17.5132 24.1725 17.6906 24.4309 17.8312C25.4399 18.3693 25.8829 18.9319 25.9505 20.1121C26.0613 22.0323 24.5724 22.4114 23.8034 23.824C23.2743 24.7963 24.1479 25.9031 24.7693 26.5758C24.837 26.6492 24.9416 26.5575 24.8985 26.478C24.4432 25.6157 23.7788 24.833 24.3325 23.824C24.5786 23.3715 25.1446 23.0168 25.5199 22.6683C26.1659 22.0751 26.3504 21.3046 26.4119 20.4607C26.4612 19.7636 26.3627 18.7913 25.8336 18.2654C25.5568 17.9963 25.2615 17.8006 24.917 17.6172C24.7201 17.5132 24.5048 17.4215 24.3017 17.342C23.465 17.0179 23.748 16.333 24.4248 15.9722C24.4432 15.9478 24.4309 15.9233 24.4063 15.9294Z" fill="#0C0A35"/>
<path d="M25.5813 25.8848C25.3044 25.3895 25.2614 24.8881 25.4521 24.3683C25.5567 23.9219 25.8335 23.5183 26.0858 23.1391C26.4611 22.5827 27.0332 22.173 27.4331 21.6348C28.0422 20.8154 27.8514 19.7697 27.4208 18.9381C27.3839 18.8708 27.2547 18.8953 27.267 18.9809C27.4023 20.0999 27.5623 21.0172 26.7256 21.9406C26.3257 22.3809 25.9381 22.76 25.6182 23.2615C25.0891 24.087 24.7876 25.2061 25.4521 26.0194C25.4828 26.0561 25.5505 26.0438 25.569 26.0071C25.5936 25.946 25.5936 25.9521 25.5813 25.8848C25.5874 25.8848 25.5874 25.8848 25.5813 25.8848Z" fill="#0C0A35"/>
<path d="M26.4856 25.4077C26.3072 25.1997 26.461 24.3803 26.4918 24.1724C26.5841 23.5915 27.0639 23.1512 27.4823 22.7782C28.1529 22.1728 28.522 21.5613 28.5343 20.644C28.5343 20.5828 28.4482 20.5584 28.4174 20.6134C28.1037 21.2249 27.9806 21.8426 27.4577 22.3562C27.0393 22.7659 26.6333 23.0962 26.3503 23.6098C26.1042 24.0562 25.9442 25.0285 26.2949 25.4505C26.3134 25.4749 26.3503 25.481 26.3811 25.4749C26.4118 25.4688 26.4426 25.4627 26.4672 25.4566C26.4979 25.4566 26.5041 25.4199 26.4856 25.4077Z" fill="#0C0A35"/>
<path d="M26.9102 19.709C27.3409 19.7579 27.63 19.3054 27.8946 18.963C28.6144 18.0151 29.0574 17.4525 30.1155 16.3763C30.3801 16.1072 30.6508 15.8504 30.8538 15.5324C30.9153 15.4284 30.9769 15.3184 30.9707 15.1961C30.9646 15.031 30.8477 14.8964 30.7308 14.7802C30.0663 14.1198 29.3158 13.5572 28.7128 12.8417C28.1099 12.1202 27.1563 10.5792 27.064 10.2489C26.5226 8.37772 26.3565 7.54607 27.4762 4.42125C27.587 4.1155 27.3778 3.78528 27.0517 3.76694C26.012 3.7119 24.9354 3.64463 23.9141 3.60183C23.7788 3.59571 23.6372 3.64463 23.545 3.74247C23.262 4.05434 23.0713 4.59859 22.8805 4.9288C22.6775 5.27125 22.0807 5.87665 21.7485 6.75111C20.8441 9.11765 21.2625 11.2151 22.2899 13.5328C22.9851 15.1043 23.7541 16.2784 25.3291 17.905C25.5629 18.1496 26.8426 19.5867 26.9102 19.709Z" fill="#B70027"/>
<path d="M26.6334 4.86113C26.8549 4.86113 27.0333 4.67768 27.0333 4.46365C27.0333 4.24962 26.8487 4.06616 26.6334 4.06616C26.4181 4.06616 26.2335 4.24962 26.2335 4.46365C26.2335 4.68379 26.4119 4.86113 26.6334 4.86113Z" fill="#0C0A35"/>
<path d="M26.0859 6.23085C26.3012 6.23085 26.4796 6.05351 26.4796 5.83949C26.4796 5.62546 26.3012 5.44812 26.0859 5.44812C25.8706 5.44812 25.6921 5.62546 25.6921 5.83949C25.6921 6.0474 25.8706 6.23085 26.0859 6.23085Z" fill="#0C0A35"/>
<path d="M25.8151 7.69258C26.3011 7.69258 26.3011 6.94043 25.8151 6.94043C25.3229 6.94043 25.3229 7.69258 25.8151 7.69258Z" fill="#0C0A35"/>
<path d="M25.7967 9.28844C26.3381 9.28844 26.3381 8.45679 25.7967 8.45679C25.2553 8.45679 25.2553 9.28844 25.7967 9.28844Z" fill="#0C0A35"/>
<path d="M26.0735 10.7196C26.2889 10.7196 26.4673 10.5423 26.4673 10.3283C26.4673 10.1142 26.2889 9.93689 26.0735 9.93689C25.8582 9.93689 25.6798 10.1142 25.6798 10.3283C25.6798 10.5423 25.8582 10.7196 26.0735 10.7196Z" fill="#0C0A35"/>
<path d="M26.5903 12.0098C26.7811 12.0098 26.9472 11.8508 26.9472 11.6551C26.9472 11.4655 26.7872 11.3004 26.5903 11.3004C26.3996 11.3004 26.2335 11.4594 26.2335 11.6551C26.2335 11.8508 26.3935 12.0098 26.5903 12.0098Z" fill="#0C0A35"/>
<path d="M27.2609 13.1713C27.7654 13.1713 27.7654 12.3947 27.2609 12.3947C26.7564 12.3947 26.7564 13.1713 27.2609 13.1713Z" fill="#0C0A35"/>
<path d="M28.0422 14.2237C28.2699 14.2237 28.4606 14.0342 28.4606 13.8079C28.4606 13.5817 28.2699 13.3921 28.0422 13.3921C27.8146 13.3921 27.6239 13.5817 27.6239 13.8079C27.6239 14.0342 27.8146 14.2237 28.0422 14.2237Z" fill="#0C0A35"/>
<path d="M28.9651 15.1102C29.1988 15.1102 29.3896 14.9207 29.3896 14.6883C29.3896 14.4559 29.1988 14.2664 28.9651 14.2664C28.7313 14.2664 28.5406 14.4559 28.5406 14.6883C28.5406 14.9146 28.7313 15.1102 28.9651 15.1102Z" fill="#0C0A35"/>
<path d="M30.2262 15.6539L30.2323 15.6478C30.3677 15.5377 30.3677 15.2686 30.2323 15.1647C30.2262 15.1647 30.2262 15.1586 30.2262 15.1586C30.1278 15.0791 30.017 15.0302 29.8817 15.0668C29.7279 15.1096 29.6233 15.2503 29.6233 15.4093C29.6233 15.5316 29.691 15.6478 29.8017 15.715C29.9493 15.7945 30.1032 15.7517 30.2262 15.6539Z" fill="#0C0A35"/>
<path d="M21.7978 4.78811C20.2536 7.6622 20.9611 10.8665 22.0685 13.759C22.5914 15.1226 23.2928 16.2356 24.394 17.2018C25.4399 18.1251 26.1412 19.6417 27.4024 20.2899C27.7162 20.4489 28.0423 20.4061 28.3068 20.1737C28.3437 20.137 28.3806 20.1064 28.4237 20.0697C28.6513 19.8679 28.6698 19.4215 28.4237 19.2197C27.507 18.4615 26.7995 17.5809 26.0182 16.682C25.5998 16.1989 24.1233 14.2421 23.8895 13.655C23.102 11.7226 22.5976 10.1755 22.573 8.75681C22.5422 6.88559 22.7391 6.05393 22.5422 4.60465C22.4991 4.3784 21.8962 4.59854 21.7978 4.78811Z" fill="#0C0A35"/>
<path d="M11.7449 7.20325C11.5973 6.98922 11.4619 6.54282 10.8529 5.17915C10.5391 4.48203 10.3484 3.69319 10.3914 2.9288C10.4345 2.23168 10.6068 2.06657 10.816 1.81585C11.0128 1.58347 11.3635 1.5529 11.6588 1.63239C11.9541 1.71189 12.2125 1.87088 12.5017 1.96872C13.1107 2.17664 13.8244 2.04822 14.3289 1.65074C14.8949 1.20433 15.1963 0.458292 15.8423 0.140306C16.6114 -0.23883 17.6019 0.195342 18.0756 0.904694C18.2048 1.10038 18.3155 1.31441 18.5062 1.45506C18.8385 1.69966 19.4537 1.73635 19.829 1.56513C20.2042 1.3939 20.4873 1.15541 20.8933 1.08815C21.3486 1.01477 21.8961 1.00254 22.296 1.23491C24.1355 2.29283 23.7479 3.59534 23.6372 4.08455C23.5203 4.60434 22.8928 5.39318 22.0561 6.84857C21.5516 7.72303 21.3978 8.22447 21.164 8.1572C18.943 7.55181 17.4788 7.36836 14.6857 7.24606C14.0274 7.22771 11.8926 7.41116 11.7449 7.20325Z" fill="#F70032"/>
<path d="M16.2854 1.81551C17.0175 1.53422 17.5343 2.09681 17.6573 2.68386C17.7434 3.1058 17.6635 3.53997 17.5712 3.96191C17.4727 4.43277 17.362 4.89752 17.239 5.35615C17.1713 5.59464 17.0975 5.83925 16.9498 6.04105L16.9436 6.04716C16.7099 6.3468 16.2362 6.27342 16.0762 5.93097C15.7686 5.27666 15.5655 4.57343 15.4856 3.85184C15.4179 3.25868 15.4364 2.6166 15.8424 2.1335C15.9531 1.99286 16.1131 1.88278 16.2854 1.81551Z" fill="#0C0A35"/>
<path d="M21.8838 3.02104C22.1853 3.14946 22.296 3.55306 22.2037 3.86493C22.1115 4.18291 21.8654 4.42751 21.6254 4.65377C21.2748 4.97176 20.1981 6.23758 19.7859 6.47607C19.7859 6.47607 19.7798 6.47607 19.7798 6.48219C19.5583 6.61061 19.306 6.38435 19.3983 6.14586C19.749 5.28974 20.4688 4.0178 20.8626 3.48579C20.9856 3.32679 21.1209 3.1678 21.2994 3.07607C21.4778 2.97212 21.6992 2.94154 21.8838 3.02104Z" fill="#0C0A35"/>
<path d="M11.9234 2.81835C12.0895 2.74497 12.2802 2.70828 12.4525 2.76332C12.6309 2.82447 12.8954 2.9223 12.9877 3.63777C13.0615 4.19424 13.2523 6.23057 12.9508 6.28561C12.5324 6.35899 11.708 4.02914 11.6404 3.27087C11.6342 3.17914 11.6342 3.08129 11.6834 2.99568C11.7388 2.91619 11.8311 2.86116 11.9234 2.81835Z" fill="#0C0A35"/>
<path d="M14.5812 26.362C14.9319 26.362 14.9319 25.8239 14.5812 25.8239C14.2306 25.8239 14.2306 26.362 14.5812 26.362Z" fill="#F70032"/>
<path d="M17.3004 27.8606C17.7003 27.8606 17.7003 27.2491 17.3004 27.2491C16.9005 27.243 16.9005 27.8606 17.3004 27.8606Z" fill="#F70032"/>
<path d="M20.4812 26.4353C20.8688 26.4353 20.8688 25.8361 20.4812 25.8361C20.0874 25.8361 20.0874 26.4353 20.4812 26.4353Z" fill="#F70032"/>
<path d="M16.1684 25.1572C16.4637 25.1572 16.4637 24.7047 16.1684 24.7047C15.8731 24.7047 15.8731 25.1572 16.1684 25.1572Z" fill="#F70032"/>
<path d="M16.882 25.1874C17.2143 25.1874 17.2143 24.6737 16.882 24.6737C16.5498 24.6737 16.5498 25.1874 16.882 25.1874Z" fill="#F70032"/>
<path d="M18.3894 25.0712C18.7401 25.0712 18.7401 24.5331 18.3894 24.5331C18.0387 24.5392 18.0387 25.0712 18.3894 25.0712Z" fill="#F70032"/>
<path d="M19.1831 24.8696C19.5399 24.8696 19.5399 24.3192 19.1831 24.3192C18.8262 24.3253 18.8262 24.8696 19.1831 24.8696Z" fill="#F70032"/>
<path d="M18.697 30.0675C17.7988 29.9941 16.8206 30.575 17.0544 31.584C17.3066 32.6541 18.7401 32.697 19.5399 32.3178C19.9705 32.116 20.3519 31.6329 20.3089 31.1437C20.2597 30.4894 19.6691 30.1042 19.0538 30.0308C18.5986 29.9757 18.0264 30.1653 17.725 30.5139C17.5219 30.7462 17.4235 31.0398 17.5158 31.3455C17.6204 31.7002 17.9464 31.8898 18.2725 31.9998C18.5986 32.1099 18.9616 31.8775 19.0538 31.5596C19.1523 31.2171 18.9369 30.8991 18.6109 30.7829C18.4694 30.734 18.5986 30.789 18.6355 30.8196C18.7401 30.9052 18.7585 31.0948 18.7339 31.2171C18.7278 31.2416 18.5986 31.425 18.6785 31.3455C18.5617 31.4556 18.7032 31.3394 18.7462 31.3149C18.617 31.3822 18.7647 31.3088 18.7954 31.3027C18.8324 31.2905 18.8693 31.2844 18.9 31.2783C18.8262 31.2844 18.8201 31.2905 18.8939 31.2844C18.9308 31.2844 19.0846 31.3088 18.9369 31.2783C18.98 31.2905 19.0169 31.3027 19.0538 31.3149C19.0108 31.2966 19.0169 31.3027 19.0784 31.3333C19.2261 31.4128 19.0108 31.2599 19.1153 31.3639C19.0969 31.3455 19.0231 31.1621 19.0538 31.2721C19.0477 31.2416 19.0477 31.211 19.0415 31.1804C19.0415 31.2477 19.0415 31.2355 19.0477 31.1315C19.0292 31.1926 19.0354 31.1865 19.0661 31.0948C19.0292 31.1498 19.0354 31.1437 19.0908 31.0765C19.06 31.1132 19.0231 31.1498 18.9862 31.1804C19.0907 31.0826 18.9246 31.211 18.8939 31.2293C19.0108 31.1682 18.8508 31.2416 18.8324 31.2477C18.7954 31.2599 18.7524 31.266 18.7155 31.2783C18.777 31.2721 18.7708 31.2721 18.6909 31.2783C18.6293 31.2844 18.5678 31.2844 18.5124 31.2844C18.4878 31.2844 18.3033 31.266 18.4632 31.2905C18.414 31.2844 18.3709 31.2721 18.3217 31.2599C18.211 31.2293 18.4263 31.3211 18.2725 31.2416C18.2294 31.2171 18.1433 31.1376 18.2787 31.2538C18.1495 31.1437 18.3156 31.3272 18.2664 31.2477C18.2356 31.2049 18.211 31.1009 18.2725 31.2844C18.2171 31.1315 18.2725 31.4006 18.2664 31.2966C18.2602 31.1743 18.2356 31.4617 18.2602 31.3455C18.2725 31.2966 18.3279 31.211 18.2417 31.3761C18.2664 31.3333 18.334 31.2538 18.2171 31.3944C18.3217 31.2721 18.1372 31.4372 18.2294 31.3761C18.2602 31.3516 18.3832 31.3027 18.2233 31.37C18.2787 31.3455 18.3402 31.3333 18.4017 31.3211C18.2417 31.3516 18.4078 31.3211 18.4448 31.3211C18.5247 31.3149 18.6047 31.3211 18.6847 31.3272C19.0292 31.3577 19.3184 31.0214 19.3184 30.6973C19.3307 30.3365 19.0415 30.098 18.697 30.0675Z" fill="#0C0A35"/>
<path d="M18.697 31.7737C18.9492 31.7982 19.1215 31.6636 19.2568 31.4741C19.3614 31.3334 19.3614 31.0705 19.2568 30.9298C19.1215 30.7403 18.9431 30.6057 18.697 30.6302C18.3832 30.6608 18.1248 30.8687 18.1248 31.205C18.1187 31.5352 18.3832 31.7431 18.697 31.7737Z" fill="#F70032"/>
<path d="M16.1623 30.716C15.9408 30.6121 15.7686 30.6121 15.5471 30.716C15.1841 30.8811 15.1657 31.4132 15.4241 31.6639C15.6578 31.8962 16.0516 31.8962 16.2854 31.6639C16.5438 31.4132 16.5253 30.8811 16.1623 30.716Z" fill="#0C0A35"/>
<path d="M13.7321 30.9913C13.7383 30.9975 13.7445 30.9975 13.7445 31.0036C13.9721 31.1442 14.2858 31.0097 14.3535 30.759C14.4335 30.4593 14.1505 30.1658 13.8429 30.2514C13.8367 30.2514 13.8306 30.2514 13.8244 30.2575C13.4861 30.3554 13.4307 30.8079 13.7321 30.9913Z" fill="#0C0A35"/>
<path d="M12.1818 30.4406C12.6617 30.4406 12.6617 29.7007 12.1818 29.7007C11.6958 29.7007 11.6958 30.4406 12.1818 30.4406Z" fill="#0C0A35"/>
<path d="M10.4714 29.8967C10.8959 29.8967 10.8959 29.2424 10.4714 29.2424C10.0469 29.2424 10.0469 29.8967 10.4714 29.8967Z" fill="#0C0A35"/>
<path d="M9.08101 29.4378C9.40092 29.4378 9.40092 28.9425 9.08101 28.9425C8.75494 28.9425 8.75494 29.4378 9.08101 29.4378Z" fill="#0C0A35"/>
<path d="M21.4225 31.0398C21.5148 30.9847 21.6317 30.8869 21.6748 30.783C21.804 30.4955 21.6994 30.1959 21.3918 30.092C21.238 30.0369 21.035 30.0736 20.8996 30.1531C20.6597 30.2999 20.5674 30.6056 20.715 30.8563C20.8565 31.0948 21.1826 31.1927 21.4225 31.0398Z" fill="#0C0A35"/>
<path d="M22.9359 30.3976C22.9482 30.3976 22.9666 30.3976 22.979 30.3976C23.2312 30.4037 23.4342 30.1836 23.4342 29.939C23.4342 29.7005 23.225 29.4742 22.979 29.4803C22.9666 29.4803 22.9482 29.4803 22.9359 29.4803C22.6898 29.4865 22.4806 29.6821 22.4806 29.9329C22.4806 30.1836 22.6898 30.3915 22.9359 30.3976Z" fill="#0C0A35"/>
<path d="M24.8369 29.7743C24.843 29.7682 24.8492 29.762 24.8615 29.7559C25.0953 29.5847 25.0953 29.2973 24.8615 29.1261C24.8553 29.12 24.8492 29.1138 24.8369 29.1077C24.5969 28.9304 24.2586 29.175 24.2586 29.4379C24.2586 29.707 24.5969 29.9516 24.8369 29.7743Z" fill="#0C0A35"/>
<path d="M26.5227 29.1992C26.535 29.1931 26.5473 29.1931 26.5596 29.187C26.9349 29.0891 26.9349 28.5327 26.5596 28.4348C26.5473 28.4287 26.535 28.4287 26.5227 28.4226C26.2704 28.3553 26.012 28.5449 26.012 28.8078C26.012 29.0769 26.2704 29.2665 26.5227 29.1992Z" fill="#0C0A35"/>
<path d="M27.8701 28.6793C28.27 28.6793 28.27 28.0616 27.8701 28.0616C27.4702 28.0616 27.4702 28.6793 27.8701 28.6793Z" fill="#0C0A35"/>
<path d="M29.2666 28.1354C29.6665 28.1354 29.6665 27.5178 29.2666 27.5178C28.8667 27.5178 28.8667 28.1354 29.2666 28.1354Z" fill="#0C0A35"/>
<path d="M30.8477 27.835C31.2476 27.835 31.2476 27.2174 30.8477 27.2174C30.4478 27.2174 30.4478 27.835 30.8477 27.835Z" fill="#0C0A35"/>
<path d="M7.31533 34.4035C7.30918 34.4279 7.29688 34.4524 7.29073 34.4769C7.61065 34.6114 7.7952 34.9661 7.83827 35.3085C7.88134 35.651 7.7952 35.9934 7.70292 36.3236C7.27226 37.883 6.68165 39.3995 5.93723 40.8366C5.60501 40.9222 5.26048 40.8366 4.92826 40.7571C3.67321 40.4452 2.41815 40.1333 1.1631 39.8215C0.984685 39.7787 0.800132 39.7297 0.677088 39.6013C0.480216 39.3995 0.49866 39.0815 0.529421 38.8064C0.701684 37.3938 1.02161 35.9995 1.48303 34.6481C1.6799 34.0672 1.98135 33.419 2.57197 33.2355C2.89803 33.1377 3.24256 33.1988 3.57478 33.2661C4.93442 33.5351 6.09719 33.7308 7.31533 34.4035Z" fill="#FFD6A1"/>
<path d="M5.67267 28.3191C4.81751 28.1662 3.79623 27.9766 2.99029 28.2946C2.17819 28.6126 1.50761 29.2363 1.09541 30.0007C0.830864 30.4899 0.68321 31.1076 0.96006 31.5845C1.18154 31.9637 1.61834 32.1594 1.97517 32.4223C2.32585 32.6914 1.9198 33.6086 1.71677 34C2.99028 34.5076 4.45453 34.905 5.77111 35.2903C7.21688 35.7122 7.87517 36.3054 7.97975 35.804C8.13971 35.0335 8.2935 34.4892 8.50268 34.1773C8.84105 33.6698 9.27786 33.5353 9.75774 33.15C10.3053 32.7036 10.3914 31.8597 10.1207 31.2115C9.84387 30.5633 9.28403 30.0741 8.69341 29.6827C7.96745 29.1997 6.88466 28.5331 5.67267 28.3191Z" fill="#F70032"/>
<path d="M4.49762 28.6922C3.6363 28.258 2.60888 29.3343 2.17208 29.9763C1.74757 30.6001 1.7045 32.1044 2.51044 32.4224C3.00262 32.6181 3.4948 32.1289 3.40252 31.6396C3.3533 31.3767 3.15644 30.8691 3.31024 30.5695C3.63631 29.9274 4.11618 29.536 4.55298 28.9979C4.62066 28.9123 4.59605 28.7472 4.49762 28.6922Z" fill="#990028"/>
<path d="M5.88801 28.9184C5.31586 28.9612 4.93442 29.4993 4.6022 29.9213C4.11002 30.5511 3.80857 31.3277 3.66707 32.1044C3.52557 32.8565 4.84215 33.1133 5.00211 32.3612C5.13131 31.7558 5.2851 31.1749 5.49428 30.6C5.67269 30.1231 6.06029 29.6889 6.13412 29.1874C6.15257 29.0651 6.02336 28.9123 5.88801 28.9184Z" fill="#990028"/>
<path d="M6.79866 29.4561C6.34954 30.5018 5.94349 31.5719 5.50669 32.6237C5.19292 33.3697 6.42337 33.7917 6.70638 33.0273C6.96477 32.3302 7.1924 31.6269 7.34006 30.8992C7.43234 30.4161 7.53078 29.7741 7.14934 29.3888C7.03245 29.2665 6.86018 29.3093 6.79866 29.4561Z" fill="#990028"/>
<path d="M8.09048 30.1294C8.09048 30.692 8.29965 31.1873 8.10278 31.7438C7.94897 32.1779 7.59831 32.5448 7.28454 32.875C7.13074 33.034 6.98923 33.2786 7.06921 33.511C7.15534 33.7556 7.24147 33.9268 7.51217 34.0063C7.71519 34.0675 8.00435 34.0491 8.16431 33.8779C8.64418 33.3459 9.17943 32.7161 9.22865 31.9639C9.28402 31.1995 9.00717 30.3495 8.2689 30.0132C8.18892 29.9704 8.09048 30.0438 8.09048 30.1294Z" fill="#990028"/>
<path d="M2.42434 33.2785C2.3259 33.3213 2.27053 33.462 2.22746 33.5537C2.16594 33.6883 2.14133 33.8228 2.19055 33.9634C2.23362 34.0857 2.41818 34.0796 2.47971 33.9818C2.57814 33.8289 2.66426 33.4131 2.48585 33.2847C2.47354 33.2663 2.44279 33.2663 2.42434 33.2785Z" fill="#990028"/>
<path d="M3.1134 33.5166C3.02111 33.486 2.88576 33.5839 2.83654 33.6573C2.75041 33.7918 2.68888 33.9875 2.75656 34.1342C2.81808 34.2749 2.99035 34.2504 3.07648 34.1587C3.15031 34.0731 3.17491 33.8896 3.18722 33.7734C3.19337 33.7123 3.19337 33.5472 3.1134 33.5166Z" fill="#990028"/>
<path d="M3.64865 33.7124C3.5256 33.7185 3.45178 33.7858 3.40256 33.8958C3.3595 33.9876 3.31643 34.1404 3.32258 34.2444C3.33488 34.4217 3.56252 34.5379 3.67326 34.3606C3.72863 34.275 3.73479 34.1771 3.75324 34.0793C3.76555 33.9876 3.79015 33.902 3.76554 33.8102C3.74708 33.7613 3.70402 33.7063 3.64865 33.7124Z" fill="#990028"/>
<path d="M4.20236 33.9141C3.96858 33.908 3.90705 34.2872 3.87629 34.4523C3.83938 34.6785 4.20852 34.7091 4.24543 34.4706C4.25774 34.3728 4.42999 33.9264 4.20236 33.9141Z" fill="#990028"/>
<path d="M4.66991 34.1649C4.54071 34.281 4.39921 34.6113 4.55301 34.7519C4.63299 34.8253 4.73142 34.8375 4.81755 34.7703C4.91599 34.703 4.90985 34.5807 4.92215 34.4767C4.94061 34.3667 4.92215 34.2688 4.86062 34.1771C4.82371 34.1159 4.71912 34.1221 4.66991 34.1649Z" fill="#990028"/>
<path d="M5.40205 34.324C5.17442 34.3302 5.09444 34.642 5.11289 34.8194C5.13135 35.0089 5.40205 34.9906 5.46357 34.8438C5.49434 34.7521 5.60507 34.3179 5.40205 34.324Z" fill="#990028"/>
<path d="M5.86967 34.5322C5.74048 34.6178 5.69127 34.7829 5.68512 34.9357C5.67281 35.1865 6.02348 35.1926 6.06655 34.9602C6.09116 34.8196 6.08502 34.6422 5.96197 34.5444C5.93736 34.5199 5.89428 34.5138 5.86967 34.5322Z" fill="#990028"/>
<path d="M6.43568 34.752C6.31264 34.8621 6.24496 35.0944 6.31263 35.2473C6.34339 35.3146 6.42338 35.339 6.49105 35.3085C6.66331 35.229 6.71869 34.9538 6.63256 34.7887C6.6018 34.7214 6.49721 34.697 6.43568 34.752Z" fill="#990028"/>
<path d="M6.94012 34.9356C6.80477 35.0824 6.774 35.327 6.89089 35.4921C6.94626 35.5716 7.08162 35.5716 7.14929 35.5104C7.29079 35.382 7.30311 35.0885 7.15545 34.9478C7.10623 34.8989 7.00164 34.8683 6.94012 34.9356Z" fill="#990028"/>
<path d="M7.62913 35.1616C7.46917 35.1372 7.37689 35.4001 7.36459 35.5163C7.34613 35.6692 7.57376 35.7426 7.64758 35.6142C7.70295 35.5224 7.81369 35.1861 7.62913 35.1616Z" fill="#990028"/>
<path d="M19.183 34.5255C19.2999 34.5683 19.4045 34.5499 19.509 34.4888C19.7121 34.3787 19.7121 34.0607 19.509 33.9506C19.3983 33.8895 19.2999 33.8711 19.183 33.914C18.8754 34.024 18.8754 34.4215 19.183 34.5255Z" fill="#990028"/>
<path d="M22.6651 36.9104C22.6712 36.9043 22.6774 36.8921 22.6835 36.886C22.825 36.7025 22.825 36.519 22.6835 36.3356C22.6774 36.3295 22.6712 36.3172 22.6651 36.3111C22.5728 36.1949 22.3882 36.1644 22.2529 36.2011C22.0683 36.25 21.9391 36.4212 21.9391 36.6047C21.9391 36.7514 22.0191 36.8921 22.1483 36.9716C22.3021 37.0633 22.5482 37.0572 22.6651 36.9104Z" fill="#990028"/>
<path d="M24.7693 33.7186C24.8308 33.7186 24.8923 33.7125 24.9477 33.6881C25.2922 33.5596 25.2922 33.1132 24.9477 32.9909C24.8862 32.9665 24.8308 32.9665 24.7693 32.9604C24.2833 32.9542 24.2833 33.7309 24.7693 33.7186Z" fill="#990028"/>
<path d="M28.3375 36.458C28.5652 36.458 28.7559 36.2684 28.7559 36.0422C28.7559 35.8159 28.5652 35.6263 28.3375 35.6263C28.1099 35.6263 27.9192 35.8159 27.9192 36.0422C27.9192 36.2684 28.1099 36.458 28.3375 36.458Z" fill="#990028"/>
<path d="M29.488 31.9936C29.5864 32.1343 29.7156 32.2199 29.894 32.2016C30.2385 32.171 30.3247 31.7857 30.0601 31.5839C29.974 31.5228 29.8756 31.4861 29.771 31.4983C29.6541 31.5105 29.5495 31.5534 29.488 31.6634C29.4265 31.7613 29.4203 31.9019 29.488 31.9936Z" fill="#990028"/>
<path d="M32.1765 34.7942C32.5149 34.7942 32.5149 34.2744 32.1765 34.2744C31.8382 34.2744 31.8382 34.7942 32.1765 34.7942Z" fill="#990028"/>
<path d="M12.1817 15.8623C12.3786 15.8623 12.3786 15.5565 12.1817 15.5565C11.9787 15.5565 11.9787 15.8623 12.1817 15.8623Z" fill="#0C0A35"/>
<path d="M19.1645 39.5153C19.0476 39.4725 18.9431 39.4908 18.8385 39.552C18.6354 39.662 18.6354 39.98 18.8385 40.0901C18.9492 40.1451 19.0476 40.1696 19.1645 40.1268C19.4721 40.0228 19.4721 39.6253 19.1645 39.5153Z" fill="#990028"/>
<path d="M15.6824 37.1366C15.6763 37.1427 15.6701 37.1488 15.664 37.161C15.5225 37.3445 15.5225 37.5279 15.664 37.7114C15.6701 37.7175 15.6763 37.7297 15.6824 37.7359C15.7747 37.852 15.9654 37.8826 16.0946 37.8459C16.273 37.797 16.4084 37.6258 16.4084 37.4362C16.4084 37.2895 16.3284 37.1488 16.1992 37.0754C16.0454 36.9837 15.7993 36.9898 15.6824 37.1366Z" fill="#990028"/>
<path d="M13.5784 40.3286C13.5169 40.3286 13.4553 40.3348 13.4 40.3592C13.0555 40.4815 13.0555 40.934 13.4 41.0563C13.4615 41.0747 13.5169 41.0808 13.5784 41.0869C14.0644 41.093 14.0644 40.3164 13.5784 40.3286Z" fill="#990028"/>
<path d="M10.01 37.583C9.78239 37.583 9.59167 37.7726 9.59167 37.9988C9.59167 38.2251 9.78239 38.4147 10.01 38.4147C10.2377 38.4147 10.4284 38.2251 10.4284 37.9988C10.4284 37.7726 10.2377 37.583 10.01 37.583Z" fill="#990028"/>
<path d="M8.86573 42.0469C8.76729 41.9063 8.63809 41.8207 8.45968 41.839C8.11515 41.8696 8.02901 42.2548 8.29355 42.4566C8.37969 42.5178 8.47812 42.5545 8.58271 42.5423C8.6996 42.53 8.8042 42.4872 8.86573 42.3833C8.9211 42.2854 8.92725 42.1386 8.86573 42.0469Z" fill="#990028"/>
<path d="M5.61131 38.5989C5.27294 38.5989 5.27294 39.1187 5.61131 39.1187C5.94968 39.1187 5.94968 38.5989 5.61131 38.5989Z" fill="#990028"/>
<path d="M13.0493 34.0729C12.6063 34.0729 12.6063 34.7578 13.0493 34.7578C13.4923 34.7578 13.4923 34.0729 13.0493 34.0729Z" fill="#990028"/>
<path d="M11.9541 32.0795C11.5112 32.0795 11.5112 32.7644 11.9541 32.7644C12.4033 32.7644 12.4033 32.0795 11.9541 32.0795Z" fill="#990028"/>
<path d="M10.3608 34.2994C9.91781 34.2994 9.91781 34.9843 10.3608 34.9843C10.8037 34.9843 10.8037 34.2994 10.3608 34.2994Z" fill="#990028"/>
<path d="M0.517181 43.3436C0.0373076 41.6131 -0.122662 39.3382 0.504865 38.9652C2.70736 37.6688 5.14365 37.198 7.60454 36.5008C11.2713 35.4613 14.169 34.8987 17.8726 33.9814C19.8782 33.4861 21.6685 32.7523 23.2496 32.2142C26.9902 30.9483 29.9987 29.1321 32.6872 27.6401C33.8315 27.0041 37.8366 31.0829 37.9781 34.1649C37.9842 34.3055 37.9842 34.4462 37.9227 34.5746C37.8304 34.7703 37.6151 34.8681 37.4182 34.9537C31.8197 37.357 27.1625 38.5433 21.244 40.017C19.6937 40.4023 16.8083 41.3501 15.2702 41.7843C11.9111 42.7321 8.74271 43.8023 5.69121 45.49C5.29131 45.7102 4.87911 45.9426 4.42385 45.9915C3.864 46.0465 3.31643 45.8202 2.81195 45.5756C1.81529 45.0864 0.812488 44.4016 0.517181 43.3436Z" fill="#222272"/>
<path d="M20.0012 35.3082C20.4011 34.978 20.9487 34.6539 21.4163 34.8802C21.7669 35.0514 22.2037 35.6262 22.1607 36.0115C22.1176 36.3967 21.9084 36.7453 21.6993 37.0694C21.2009 37.8276 20.3519 38.3902 19.7182 39.0384C19.6444 39.1118 19.5583 39.1913 19.4537 39.2035C19.3676 39.2158 19.2814 39.173 19.2015 39.1363C18.4878 38.7755 17.8726 38.2312 17.4173 37.5708C17.1282 37.1489 16.9005 36.6597 16.8944 36.146C16.8882 35.6323 17.1405 35.0942 17.6019 34.8679C17.9833 34.6784 18.457 34.7334 18.8139 34.9597C19.1707 35.192 19.4045 35.5834 19.4722 35.9992C19.5275 35.724 19.7674 35.5039 20.0012 35.3082Z" fill="#F70032"/>
<path d="M19.4229 37.4303C19.7859 37.4303 19.7859 36.8677 19.4229 36.8677C19.06 36.8677 19.06 37.4303 19.4229 37.4303Z" fill="#0C0A35"/>
<path d="M15.59 36.3657C14.5749 36.0294 12.9754 35.2528 12.114 36.3168C11.9664 36.5003 12.0464 36.7938 12.3109 36.7938C12.8215 36.7999 13.3014 36.6103 13.812 36.6042C14.3965 36.5981 14.9687 36.6226 15.547 36.6654C15.7315 36.6837 15.7439 36.4208 15.59 36.3657Z" fill="#0C0A35"/>
<path d="M15.2395 37.73C14.1997 37.9685 13.16 38.1703 12.1387 38.4883C11.4743 38.6962 10.5638 38.9286 10.2931 39.6379C10.2438 39.7664 10.3669 39.8764 10.4838 39.8825C11.1728 39.9498 12.0034 39.5279 12.6555 39.3138C13.5845 39.0081 14.4458 38.5617 15.3933 38.2926C15.7562 38.1887 15.6086 37.6505 15.2395 37.73Z" fill="#0C0A35"/>
<path d="M24.2094 35.5224C25.243 35.2656 26.2827 35.0454 27.2917 34.7152C27.9561 34.4951 28.8666 34.2505 29.1189 33.5411C29.1619 33.4127 29.0451 33.3026 28.9282 33.2965C28.2391 33.2415 27.4147 33.6757 26.7687 33.9019C25.8459 34.2199 24.9907 34.6847 24.0495 34.9721C23.6988 35.076 23.8464 35.6141 24.2094 35.5224Z" fill="#0C0A35"/>
<path d="M16.0946 39.2341C15.6517 39.6744 15.0364 39.9679 14.4581 40.188C13.9413 40.3837 13.3015 40.5549 13.08 41.1053C13.0185 41.2643 13.1477 41.4049 13.2831 41.46C13.8614 41.6923 14.6427 41.2459 15.1472 40.9769C15.7747 40.6467 16.2054 40.188 16.5007 39.5459C16.6176 39.2891 16.3161 39.02 16.0946 39.2341Z" fill="#0C0A35"/>
<path d="M23.2804 34.238C23.7296 33.9689 24.1787 33.6937 24.6339 33.443C25.1076 33.1801 25.5875 33.0272 25.9136 32.5747C25.9751 32.4829 25.9136 32.3301 25.809 32.3117C25.2184 32.2078 24.7262 32.4585 24.2217 32.7398C23.6557 33.0516 23.2251 33.443 23.0651 34.079C23.0343 34.1952 23.1697 34.3052 23.2804 34.238Z" fill="#0C0A35"/>
<path d="M24.1725 36.7638C24.4616 37.2897 25.3906 37.2714 25.9197 37.2959C26.5534 37.3264 27.6792 37.1613 28.0853 36.6477C28.153 36.5559 28.1653 36.4153 28.0484 36.3541C27.4332 36.0239 26.5903 36.507 25.9259 36.5498C25.3845 36.5865 24.5724 36.2135 24.1786 36.721C24.1602 36.7333 24.1663 36.7516 24.1725 36.7638Z" fill="#0C0A35"/>
<path d="M9.48712 40.3593C10.127 40.3593 10.127 39.3748 9.48712 39.3748C8.84729 39.3748 8.84729 40.3593 9.48712 40.3593Z" fill="#990028"/>
<path d="M7.88755 40.8058C8.51507 40.8058 8.51507 39.8396 7.88755 39.8396C7.26002 39.8396 7.26002 40.8058 7.88755 40.8058Z" fill="#990028"/>
<path d="M6.42947 41.2461C6.9278 41.2461 6.9278 40.4817 6.42947 40.4817C5.93729 40.4817 5.93729 41.2461 6.42947 41.2461Z" fill="#990028"/>
<path d="M5.15594 41.6737C5.61736 41.6737 5.61736 40.9583 5.15594 40.9583C4.68838 40.9644 4.68838 41.6737 5.15594 41.6737Z" fill="#990028"/>
<path d="M3.96858 42.1024C4.39923 42.1024 4.39923 41.442 3.96858 41.442C3.53792 41.442 3.53792 42.1024 3.96858 42.1024Z" fill="#990028"/>
<path d="M30.4416 33.3879C30.4416 33.3695 30.4416 33.3451 30.4354 33.3267C30.3924 32.7641 29.6049 32.7641 29.5557 33.3267C29.5557 33.3451 29.5557 33.3695 29.5495 33.3879C29.5065 33.9566 30.4847 33.9566 30.4416 33.3879Z" fill="#990028"/>
<path d="M31.3214 33.2355C31.8813 33.2355 31.8813 32.3672 31.3214 32.3672C30.7554 32.3672 30.7554 33.2355 31.3214 33.2355Z" fill="#990028"/>
<path d="M32.7979 32.4892C32.804 32.477 32.8102 32.4647 32.8225 32.4586C32.9579 32.2629 32.7794 32 32.5579 32C32.3365 32 32.1581 32.2629 32.2934 32.4586C32.2996 32.4709 32.3057 32.4831 32.318 32.4892C32.4288 32.6665 32.6748 32.6665 32.7979 32.4892Z" fill="#990028"/>
<path d="M33.7392 32.3183C34.1698 32.3183 34.1698 31.6579 33.7392 31.6579C33.3085 31.6518 33.3085 32.3183 33.7392 32.3183Z" fill="#990028"/>
<path d="M34.9696 31.7923C35.3141 31.7923 35.3141 31.2664 34.9696 31.2664C34.6251 31.2664 34.6251 31.7923 34.9696 31.7923Z" fill="#990028"/>
</svg>
