<svg width="61" height="60" viewBox="0 0 61 60" fill="none" xmlns="http://www.w3.org/2000/svg">
<rect x="1.25" y="1.25" width="57.6473" height="56.8145" rx="28.4073" fill="black" stroke="#EB5757" stroke-width="2.5"/>
<path d="M24 23H30.3239C31.8352 23 33.1676 23.2933 34.321 23.88C35.4877 24.4533 36.3892 25.2667 37.0256 26.32C37.6752 27.3733 38 28.6 38 30C38 31.4 37.6752 32.6267 37.0256 33.68C36.3892 34.7333 35.4877 35.5533 34.321 36.14C33.1676 36.7133 31.8352 37 30.3239 37H24V23ZM30.1648 34.34C31.5568 34.34 32.6638 33.9533 33.4858 33.18C34.321 32.3933 34.7386 31.3333 34.7386 30C34.7386 28.6667 34.321 27.6133 33.4858 26.84C32.6638 26.0533 31.5568 25.66 30.1648 25.66H27.2216V34.34H30.1648Z" fill="#EB5757"/>
<path d="M40.3318 44.2233C40.7565 44.9243 40.5324 45.837 39.8311 46.2617C36.8739 48.0531 33.4744 49 30 49C24.925 49 20.1535 47.0236 16.565 43.435C12.9764 39.8464 11 35.075 11 30C11 24.925 12.9764 20.1535 16.565 16.565C20.1535 12.9764 24.925 11 30 11C35.075 11 39.8464 12.9764 43.435 16.565C47.0236 20.1535 49 24.925 49 30C49 33.7504 47.887 37.3978 45.7808 40.5478C45.3253 41.2294 44.4034 41.4126 43.7218 40.9568C43.0405 40.5011 42.8572 39.5791 43.313 38.8978C45.0913 36.2376 46.0312 33.161 46.0312 30C46.0312 21.1604 38.8396 13.9688 30 13.9688C21.1604 13.9688 13.9688 21.1604 13.9688 30C13.9688 38.8396 21.1604 46.0312 30 46.0312C32.9319 46.0312 35.7998 45.2328 38.2931 43.7226C38.9941 43.2979 39.9068 43.522 40.3318 44.2233Z" fill="#EB5757"/>
</svg>
