<svg width="62" height="75" viewBox="0 0 62 75" fill="none" xmlns="http://www.w3.org/2000/svg">
<g filter="url(#filter0_d)">
<rect x="4" y="4" width="42" height="63" rx="5" fill="white"/>
<path d="M6.80566 12.5795C6.80566 9.81812 9.04424 7.57954 11.8057 7.57954H38.4084C41.1698 7.57954 43.4084 9.81812 43.4084 12.5795V12.656H6.80566V12.5795Z" fill="#EB5757"/>
<path d="M43.4084 58.4209C43.4084 61.1823 41.1699 63.4209 38.4084 63.4209L11.8057 63.4209C9.04427 63.4209 6.8057 61.1823 6.8057 58.4209L6.8057 58.3444L43.4084 58.3445L43.4084 58.4209Z" fill="#EB5757"/>
<rect x="6.80566" y="17.7328" width="36.6027" height="5.07645" fill="#EB5757"/>
<rect x="6.80566" y="27.8855" width="36.6027" height="5.07645" fill="#EB5757"/>
<rect x="6.80566" y="38.039" width="36.6027" height="5.07645" fill="#EB5757"/>
<rect x="6.80566" y="48.1917" width="36.6027" height="5.07645" fill="#EB5757"/>
<ellipse cx="8.8703" cy="58.4497" rx="2.06463" ry="2.1072" fill="#191D2B"/>
<ellipse cx="17.1288" cy="58.4497" rx="2.06463" ry="2.1072" fill="#191D2B"/>
<ellipse cx="32.9577" cy="58.4497" rx="2.06463" ry="2.1072" fill="#191D2B"/>
<ellipse cx="24.6992" cy="58.4497" rx="2.06463" ry="2.1072" fill="#191D2B"/>
<ellipse cx="41.2162" cy="58.4497" rx="2.06463" ry="2.1072" fill="#191D2B"/>
<ellipse cx="8.8703" cy="12.5504" rx="2.06463" ry="2.1072" fill="#191D2B"/>
<ellipse cx="17.1288" cy="12.5504" rx="2.06463" ry="2.1072" fill="#191D2B"/>
<ellipse cx="32.9577" cy="12.5504" rx="2.06463" ry="2.1072" fill="#191D2B"/>
<ellipse cx="24.6992" cy="12.5504" rx="2.06463" ry="2.1072" fill="#191D2B"/>
<ellipse cx="41.2162" cy="12.5504" rx="2.06463" ry="2.1072" fill="#191D2B"/>
<ellipse cx="8.20856" cy="45.578" rx="1.40289" ry="1.43182" fill="#191D2B"/>
<ellipse cx="13.8201" cy="45.578" rx="1.40289" ry="1.43182" fill="#191D2B"/>
<ellipse cx="19.4317" cy="45.578" rx="1.40289" ry="1.43182" fill="#191D2B"/>
<ellipse cx="25.0433" cy="45.578" rx="1.40289" ry="1.43182" fill="#191D2B"/>
<ellipse cx="30.6548" cy="45.578" rx="1.40289" ry="1.43182" fill="#191D2B"/>
<ellipse cx="41.878" cy="45.578" rx="1.40289" ry="1.43182" fill="#191D2B"/>
<ellipse cx="36.2664" cy="45.578" rx="1.40289" ry="1.43182" fill="#191D2B"/>
<ellipse cx="8.20856" cy="35.5" rx="1.4029" ry="1.43182" fill="#191D2B"/>
<ellipse cx="13.8199" cy="35.5" rx="1.4029" ry="1.43182" fill="#191D2B"/>
<ellipse cx="19.4317" cy="35.5" rx="1.4029" ry="1.43182" fill="#191D2B"/>
<ellipse cx="25.0433" cy="35.5" rx="1.4029" ry="1.43182" fill="#191D2B"/>
<ellipse cx="30.6549" cy="35.5" rx="1.4029" ry="1.43182" fill="#191D2B"/>
<ellipse cx="41.878" cy="35.5" rx="1.4029" ry="1.43182" fill="#191D2B"/>
<ellipse cx="36.2664" cy="35.5" rx="1.4029" ry="1.43182" fill="#191D2B"/>
<ellipse cx="8.20856" cy="25.4773" rx="1.40289" ry="1.43182" fill="#191D2B"/>
<ellipse cx="13.8201" cy="25.4773" rx="1.40289" ry="1.43182" fill="#191D2B"/>
<ellipse cx="19.4317" cy="25.4773" rx="1.40289" ry="1.43182" fill="#191D2B"/>
<ellipse cx="25.0433" cy="25.4773" rx="1.40289" ry="1.43182" fill="#191D2B"/>
<ellipse cx="30.6548" cy="25.4773" rx="1.40289" ry="1.43182" fill="#191D2B"/>
<ellipse cx="41.878" cy="25.4773" rx="1.40289" ry="1.43182" fill="#191D2B"/>
<ellipse cx="36.2664" cy="25.4773" rx="1.40289" ry="1.43182" fill="#191D2B"/>
</g>
<g filter="url(#filter1_d)">
<rect x="8" y="4" width="42" height="63" rx="5" fill="white"/>
<path d="M10.8057 12.5795C10.8057 9.81812 13.0442 7.57954 15.8057 7.57954H42.4084C45.1698 7.57954 47.4084 9.81812 47.4084 12.5795V12.656H10.8057V12.5795Z" fill="#EB5757"/>
<path d="M47.4084 58.4209C47.4084 61.1823 45.1699 63.4209 42.4084 63.4209L15.8057 63.4209C13.0443 63.4209 10.8057 61.1823 10.8057 58.4209L10.8057 58.3444L47.4084 58.3445L47.4084 58.4209Z" fill="#EB5757"/>
<rect x="10.8057" y="17.7328" width="36.6027" height="5.07645" fill="#EB5757"/>
<rect x="10.8057" y="27.8855" width="36.6027" height="5.07645" fill="#EB5757"/>
<rect x="10.8057" y="38.039" width="36.6027" height="5.07645" fill="#EB5757"/>
<rect x="10.8057" y="48.1917" width="36.6027" height="5.07645" fill="#EB5757"/>
<ellipse cx="12.8703" cy="58.4497" rx="2.06463" ry="2.1072" fill="#191D2B"/>
<ellipse cx="21.1288" cy="58.4497" rx="2.06463" ry="2.1072" fill="#191D2B"/>
<ellipse cx="36.9577" cy="58.4497" rx="2.06463" ry="2.1072" fill="#191D2B"/>
<ellipse cx="28.6992" cy="58.4497" rx="2.06463" ry="2.1072" fill="#191D2B"/>
<ellipse cx="45.2162" cy="58.4497" rx="2.06463" ry="2.1072" fill="#191D2B"/>
<ellipse cx="12.8703" cy="12.5504" rx="2.06463" ry="2.1072" fill="#191D2B"/>
<ellipse cx="21.1288" cy="12.5504" rx="2.06463" ry="2.1072" fill="#191D2B"/>
<ellipse cx="36.9577" cy="12.5504" rx="2.06463" ry="2.1072" fill="#191D2B"/>
<ellipse cx="28.6992" cy="12.5504" rx="2.06463" ry="2.1072" fill="#191D2B"/>
<ellipse cx="45.2162" cy="12.5504" rx="2.06463" ry="2.1072" fill="#191D2B"/>
<ellipse cx="12.2086" cy="45.578" rx="1.40289" ry="1.43182" fill="#191D2B"/>
<ellipse cx="17.8201" cy="45.578" rx="1.40289" ry="1.43182" fill="#191D2B"/>
<ellipse cx="23.4317" cy="45.578" rx="1.40289" ry="1.43182" fill="#191D2B"/>
<ellipse cx="29.0433" cy="45.578" rx="1.40289" ry="1.43182" fill="#191D2B"/>
<ellipse cx="34.6548" cy="45.578" rx="1.40289" ry="1.43182" fill="#191D2B"/>
<ellipse cx="45.878" cy="45.578" rx="1.40289" ry="1.43182" fill="#191D2B"/>
<ellipse cx="40.2664" cy="45.578" rx="1.40289" ry="1.43182" fill="#191D2B"/>
<ellipse cx="12.2086" cy="35.5" rx="1.4029" ry="1.43182" fill="#191D2B"/>
<ellipse cx="17.8199" cy="35.5" rx="1.4029" ry="1.43182" fill="#191D2B"/>
<ellipse cx="23.4317" cy="35.5" rx="1.4029" ry="1.43182" fill="#191D2B"/>
<ellipse cx="29.0433" cy="35.5" rx="1.4029" ry="1.43182" fill="#191D2B"/>
<ellipse cx="34.6549" cy="35.5" rx="1.4029" ry="1.43182" fill="#191D2B"/>
<ellipse cx="45.878" cy="35.5" rx="1.4029" ry="1.43182" fill="#191D2B"/>
<ellipse cx="40.2664" cy="35.5" rx="1.4029" ry="1.43182" fill="#191D2B"/>
<ellipse cx="12.2086" cy="25.4773" rx="1.40289" ry="1.43182" fill="#191D2B"/>
<ellipse cx="17.8201" cy="25.4773" rx="1.40289" ry="1.43182" fill="#191D2B"/>
<ellipse cx="23.4317" cy="25.4773" rx="1.40289" ry="1.43182" fill="#191D2B"/>
<ellipse cx="29.0433" cy="25.4773" rx="1.40289" ry="1.43182" fill="#191D2B"/>
<ellipse cx="34.6548" cy="25.4773" rx="1.40289" ry="1.43182" fill="#191D2B"/>
<ellipse cx="45.878" cy="25.4773" rx="1.40289" ry="1.43182" fill="#191D2B"/>
<ellipse cx="40.2664" cy="25.4773" rx="1.40289" ry="1.43182" fill="#191D2B"/>
</g>
<g filter="url(#filter2_d)">
<rect x="12" y="4" width="42" height="63" rx="5" fill="white"/>
<path d="M14.8057 12.5795C14.8057 9.81812 17.0442 7.57954 19.8057 7.57954H46.4084C49.1698 7.57954 51.4084 9.81812 51.4084 12.5795V12.656H14.8057V12.5795Z" fill="#EB5757"/>
<path d="M51.4084 58.4209C51.4084 61.1823 49.1699 63.4209 46.4084 63.4209L19.8057 63.4209C17.0443 63.4209 14.8057 61.1823 14.8057 58.4209L14.8057 58.3444L51.4084 58.3445L51.4084 58.4209Z" fill="#EB5757"/>
<rect x="14.8057" y="17.7328" width="36.6027" height="5.07645" fill="#EB5757"/>
<rect x="14.8057" y="27.8855" width="36.6027" height="5.07645" fill="#EB5757"/>
<rect x="14.8057" y="38.039" width="36.6027" height="5.07645" fill="#EB5757"/>
<rect x="14.8057" y="48.1917" width="36.6027" height="5.07645" fill="#EB5757"/>
<ellipse cx="16.8703" cy="58.4497" rx="2.06463" ry="2.1072" fill="#191D2B"/>
<ellipse cx="25.1288" cy="58.4497" rx="2.06463" ry="2.1072" fill="#191D2B"/>
<ellipse cx="40.9577" cy="58.4497" rx="2.06463" ry="2.1072" fill="#191D2B"/>
<ellipse cx="32.6992" cy="58.4497" rx="2.06463" ry="2.1072" fill="#191D2B"/>
<ellipse cx="49.2162" cy="58.4497" rx="2.06463" ry="2.1072" fill="#191D2B"/>
<ellipse cx="16.8703" cy="12.5504" rx="2.06463" ry="2.1072" fill="#191D2B"/>
<ellipse cx="25.1288" cy="12.5504" rx="2.06463" ry="2.1072" fill="#191D2B"/>
<ellipse cx="40.9577" cy="12.5504" rx="2.06463" ry="2.1072" fill="#191D2B"/>
<ellipse cx="32.6992" cy="12.5504" rx="2.06463" ry="2.1072" fill="#191D2B"/>
<ellipse cx="49.2162" cy="12.5504" rx="2.06463" ry="2.1072" fill="#191D2B"/>
<ellipse cx="16.2086" cy="45.578" rx="1.40289" ry="1.43182" fill="#191D2B"/>
<ellipse cx="21.8201" cy="45.578" rx="1.40289" ry="1.43182" fill="#191D2B"/>
<ellipse cx="27.4317" cy="45.578" rx="1.40289" ry="1.43182" fill="#191D2B"/>
<ellipse cx="33.0433" cy="45.578" rx="1.40289" ry="1.43182" fill="#191D2B"/>
<ellipse cx="38.6548" cy="45.578" rx="1.40289" ry="1.43182" fill="#191D2B"/>
<ellipse cx="49.878" cy="45.578" rx="1.40289" ry="1.43182" fill="#191D2B"/>
<ellipse cx="44.2664" cy="45.578" rx="1.40289" ry="1.43182" fill="#191D2B"/>
<ellipse cx="16.2086" cy="35.5" rx="1.4029" ry="1.43182" fill="#191D2B"/>
<ellipse cx="21.8199" cy="35.5" rx="1.4029" ry="1.43182" fill="#191D2B"/>
<ellipse cx="27.4317" cy="35.5" rx="1.4029" ry="1.43182" fill="#191D2B"/>
<ellipse cx="33.0433" cy="35.5" rx="1.4029" ry="1.43182" fill="#191D2B"/>
<ellipse cx="38.6549" cy="35.5" rx="1.4029" ry="1.43182" fill="#191D2B"/>
<ellipse cx="49.878" cy="35.5" rx="1.4029" ry="1.43182" fill="#191D2B"/>
<ellipse cx="44.2664" cy="35.5" rx="1.4029" ry="1.43182" fill="#191D2B"/>
<ellipse cx="16.2086" cy="25.4773" rx="1.40289" ry="1.43182" fill="#191D2B"/>
<ellipse cx="21.8201" cy="25.4773" rx="1.40289" ry="1.43182" fill="#191D2B"/>
<ellipse cx="27.4317" cy="25.4773" rx="1.40289" ry="1.43182" fill="#191D2B"/>
<ellipse cx="33.0433" cy="25.4773" rx="1.40289" ry="1.43182" fill="#191D2B"/>
<ellipse cx="38.6548" cy="25.4773" rx="1.40289" ry="1.43182" fill="#191D2B"/>
<ellipse cx="49.878" cy="25.4773" rx="1.40289" ry="1.43182" fill="#191D2B"/>
<ellipse cx="44.2664" cy="25.4773" rx="1.40289" ry="1.43182" fill="#191D2B"/>
</g>
<defs>
<filter id="filter0_d" x="0" y="0" width="54" height="75" filterUnits="userSpaceOnUse" color-interpolation-filters="sRGB">
<feFlood flood-opacity="0" result="BackgroundImageFix"/>
<feColorMatrix in="SourceAlpha" type="matrix" values="0 0 0 0 0 0 0 0 0 0 0 0 0 0 0 0 0 0 127 0"/>
<feOffset dx="2" dy="2"/>
<feGaussianBlur stdDeviation="3"/>
<feColorMatrix type="matrix" values="0 0 0 0 0 0 0 0 0 0 0 0 0 0 0 0 0 0 0.15 0"/>
<feBlend mode="normal" in2="BackgroundImageFix" result="effect1_dropShadow"/>
<feBlend mode="normal" in="SourceGraphic" in2="effect1_dropShadow" result="shape"/>
</filter>
<filter id="filter1_d" x="4" y="0" width="54" height="75" filterUnits="userSpaceOnUse" color-interpolation-filters="sRGB">
<feFlood flood-opacity="0" result="BackgroundImageFix"/>
<feColorMatrix in="SourceAlpha" type="matrix" values="0 0 0 0 0 0 0 0 0 0 0 0 0 0 0 0 0 0 127 0"/>
<feOffset dx="2" dy="2"/>
<feGaussianBlur stdDeviation="3"/>
<feColorMatrix type="matrix" values="0 0 0 0 0 0 0 0 0 0 0 0 0 0 0 0 0 0 0.15 0"/>
<feBlend mode="normal" in2="BackgroundImageFix" result="effect1_dropShadow"/>
<feBlend mode="normal" in="SourceGraphic" in2="effect1_dropShadow" result="shape"/>
</filter>
<filter id="filter2_d" x="8" y="0" width="54" height="75" filterUnits="userSpaceOnUse" color-interpolation-filters="sRGB">
<feFlood flood-opacity="0" result="BackgroundImageFix"/>
<feColorMatrix in="SourceAlpha" type="matrix" values="0 0 0 0 0 0 0 0 0 0 0 0 0 0 0 0 0 0 127 0"/>
<feOffset dx="2" dy="2"/>
<feGaussianBlur stdDeviation="3"/>
<feColorMatrix type="matrix" values="0 0 0 0 0 0 0 0 0 0 0 0 0 0 0 0 0 0 0.15 0"/>
<feBlend mode="normal" in2="BackgroundImageFix" result="effect1_dropShadow"/>
<feBlend mode="normal" in="SourceGraphic" in2="effect1_dropShadow" result="shape"/>
</filter>
</defs>
</svg>
