<svg width="36" height="48" viewBox="0 0 36 48" fill="none" xmlns="http://www.w3.org/2000/svg">
<path d="M15.2114 22.2298C14.2636 22.3668 13.3158 22.5324 12.4308 22.8236C10.5181 23.4574 8.99935 24.6735 7.9602 26.061C6.92104 27.4484 6.32152 29.0014 5.86475 30.5602C4.35169 31.0969 2.56458 33.3807 2.26768 34.6368C1.10291 39.5586 1.98219 41.6026 7.34355 44.2804C8.53115 44.8742 25.6201 47.7519 30.2735 44.1091C33.2539 41.7796 34.3959 40.5463 34.5043 36.7494C34.6128 32.9582 36.143 28.9215 33.8363 25.5642C33.3967 24.9247 32.8714 24.3081 32.1976 23.7999C30.1993 22.2812 27.2074 21.8644 24.3983 21.7559C21.3322 21.636 18.2376 21.7958 15.2114 22.2298Z" fill="#990028"/>
<path d="M20.6979 46.3425C21.6457 46.2055 22.5935 46.0399 23.4785 45.7487C25.3912 45.115 26.9042 43.8988 27.9491 42.5114C28.9883 41.1239 29.5878 39.5709 30.0446 38.0122C31.5576 37.4755 33.3447 35.1973 33.6416 33.9355C34.8064 29.0138 33.9271 26.9697 28.5658 24.2919C27.3839 23.6981 13.361 20.2495 5.06485 25.2397C3.74592 26.0333 1.61622 27.6035 1.50773 31.4004C1.39925 35.1916 -0.239411 39.6508 2.06729 43.0081C2.50693 43.6476 3.03221 44.2642 3.70024 44.7724C5.69861 46.2912 8.69047 46.708 11.4996 46.8164C14.5828 46.9363 17.6775 46.7822 20.6979 46.3425Z" fill="#990028"/>
<path d="M5.71562 36.3562C4.04841 37.3154 2.41546 36.9728 0.748241 37.932C0.154438 39.034 0.485598 42.0201 1.17646 43.1449C2.60959 45.4631 6.45218 45.7771 7.59982 45.3774C10.0435 44.5267 10.7858 43.0593 13.0183 41.7518C17.9343 38.8627 23.3242 36.7901 28.0061 33.5413C30.3642 31.9027 33.2932 32.308 34.8405 29.8986C35.5999 28.7167 34.7549 26.684 33.573 25.0739C32.6595 23.8349 31.5518 22.4989 30.0216 22.3675C28.4229 22.2305 25.688 23.1441 24.3405 24.0119C22.993 24.8798 21.8168 25.9818 20.5264 26.9296C17.409 29.2248 13.6749 30.5837 10.586 32.919C9.70096 33.587 8.87307 34.3293 7.97094 34.963C7.25152 35.4712 6.48643 35.9165 5.71562 36.3562Z" fill="#222272"/>
<path d="M10.7976 40.2216C11.6883 39.5479 12.6019 38.4174 12.6361 37.2983C12.6647 36.4704 12.4591 35.1743 11.6826 34.1694C11.3172 33.7012 10.9175 33.4386 10.9118 32.6278C10.9518 32.4622 10.986 32.3309 10.9974 32.2681C12.0252 26.9867 11.1402 26.8439 9.79843 26.2159C8.85063 25.7705 8.31392 26.5413 8.07982 26.7754C6.74376 28.1115 6.34409 28.6881 6.14996 29.6074C6.07573 29.9671 6.12711 30.3839 5.89302 30.6637C5.73315 30.8521 5.47622 30.9263 5.25354 31.0348C5.08796 31.1205 4.88812 31.2461 4.68257 31.3888C3.7519 31.8913 2.91829 32.6621 2.6842 32.8276C2.3302 33.0789 1.95908 33.2387 1.31389 33.9524C0.411762 34.9573 0.251888 36.6816 0.274726 37.1042C0.354661 38.6286 1.1426 39.6792 2.12466 40.2045C3.72907 41.0324 8.05699 42.2999 10.7976 40.2216Z" fill="#F70032"/>
<path d="M25.2434 28.5219C24.347 29.1899 23.4278 30.3147 23.3764 31.4281C23.3421 32.2503 23.5363 33.5578 24.3014 34.5684C24.6611 35.0423 25.0607 35.3049 25.0607 36.1157C25.0151 36.2813 24.9808 36.4126 24.9694 36.4754C23.896 41.7511 24.7867 41.8996 26.117 42.5333C27.0591 42.9844 27.6015 42.2193 27.8413 41.9852C29.1888 40.6549 29.5885 40.0896 29.794 39.1704C29.874 38.8107 29.8226 38.3996 30.0624 38.1198C30.2223 37.9314 30.4792 37.8571 30.7019 37.7487C30.8675 37.6687 31.0673 37.5431 31.2728 37.4004C32.2092 36.9036 33.0485 36.1385 33.2826 35.973C33.6366 35.7217 34.0135 35.5676 34.6644 34.8596C35.5779 33.8604 35.7435 32.1361 35.7264 31.7193C35.6578 30.1948 34.8813 29.1385 33.8993 28.6075C32.3177 27.7682 27.9955 26.4664 25.2434 28.5219Z" fill="#F70032"/>
<path d="M13.4588 23.8589C14.1154 24.5155 15.1317 24.6297 16.0624 24.6811C16.6162 24.7096 17.1758 24.7268 17.7296 24.7382C18.1179 24.7439 18.5061 24.7439 18.8829 24.6697C19.4197 24.5669 19.9164 24.3271 20.4017 24.0759C21.3381 23.5963 22.2631 23.0881 23.1652 22.5457C23.4221 22.3915 23.6791 22.2374 23.8903 22.0261C24.3642 21.5693 24.5812 20.9127 24.7125 20.2675C25.175 17.9951 24.7525 15.6427 24.33 13.3589C24.2729 13.0391 24.21 12.7194 24.0559 12.4339C23.7361 11.8458 23.0681 11.5432 22.4229 11.3719C21.3666 11.0921 20.259 11.075 19.1741 11.1264C17.387 11.2063 15.5885 11.4804 13.9213 12.1313C13.9441 12.6166 13.9726 13.1076 13.9955 13.593C14.0012 13.69 14.0069 13.7928 13.9784 13.8842C13.927 14.0497 13.7842 14.1639 13.6472 14.2781C12.4996 15.2373 11.7859 16.6019 11.1007 17.9323C10.8095 18.4976 10.5069 19.1028 10.564 19.7365C10.8609 19.885 11.2206 19.8907 11.5175 19.7537C11.7973 19.6281 12.0771 19.3825 12.3625 19.4967C12.6309 19.5995 12.688 19.9478 12.6937 20.2333C12.7051 20.8671 12.6594 21.5065 12.7279 22.1346C12.8022 22.7684 13.0077 23.4078 13.4588 23.8589Z" fill="#FFD6A1"/>
<path d="M14.9714 14.8986C14.8401 14.2706 14.7716 13.6653 14.8858 13.2428C14.9086 13.1572 14.9086 13.0658 14.96 13.003C15.0457 12.9003 15.1941 12.8831 15.3254 12.8774C16.5416 12.8089 17.7692 12.5006 18.9739 12.6662C21.2863 12.9859 21.1379 13.8366 21.1607 14.0936C21.1664 14.1792 20.9951 14.1849 20.9266 14.2363C20.898 14.2534 20.8638 14.2591 20.8295 14.2649C19.8132 14.4476 18.8026 14.6303 17.7863 14.8187C17.4323 14.8815 17.084 14.9443 16.7243 14.9957C16.2275 15.0642 15.7936 15.264 15.2969 15.2698C15.2341 15.2755 15.0514 15.2926 14.9714 14.8986Z" fill="#0C0A35"/>
<path d="M16.8259 13.8496C18.2077 13.2501 19.7664 13.5013 21.1538 14.0951C21.1595 14.2435 21.0625 14.3749 20.9654 14.489C20.2631 15.3112 19.2525 15.8536 18.1848 15.9907C17.1171 16.1277 15.998 15.8536 15.113 15.2313C15.2272 14.9401 15.7411 14.3235 16.8259 13.8496Z" fill="white"/>
<path d="M18.0835 15.5787C18.4204 15.5615 18.7801 15.3903 18.94 15.0477C19.1398 14.6309 18.9457 14.0371 18.5517 13.8715C18.3576 13.7916 18.1463 13.803 17.9408 13.8372C17.5982 13.8943 17.2157 14.0428 17.0787 14.4082C16.9645 14.7108 17.0729 15.0762 17.2842 15.2932C17.4955 15.5159 17.7981 15.5958 18.0835 15.5787Z" fill="#0C0A35"/>
<path d="M25.3001 22.7499C25.1231 25.4563 24.5065 28.1113 22.2169 29.5787C20.7838 30.4922 18.5227 30.949 16.8441 31.2116C16.256 31.303 15.6679 31.3886 15.0741 31.3886C14.212 31.3829 13.3669 31.1888 12.5276 30.9947C12.4077 30.9661 12.2821 30.9376 12.1907 30.8519C12.0023 30.6806 12.0309 30.3837 12.0823 30.1325C12.185 29.6529 12.3163 29.1847 12.4819 28.7222C13.0757 27.015 13.15 26.2556 13.07 23.5036C13.0643 23.3666 12.9044 22.5444 12.9501 22.4131C13.0415 22.139 13.3098 22.3674 13.5953 22.3331C16.9183 21.9392 20.464 22.9669 23.7642 22.4302C24.0611 22.3845 24.358 22.3217 24.6549 22.3674C24.9518 22.4188 25.3172 22.453 25.3001 22.7499Z" fill="#D6002B"/>
<path d="M11.4758 31.5876C12.1553 31.422 12.4807 30.9824 12.8176 30.3886C13.263 29.595 13.7825 28.7271 13.931 27.825C14.0966 26.8315 14.1308 25.7467 14.2222 24.7361C14.3193 23.6741 13.9253 22.6749 14.1194 21.6129C14.1537 21.4359 13.9082 21.3103 13.8168 21.4873C13.5484 21.984 13.6113 22.5036 13.6741 23.0517C13.7997 24.1708 13.7711 25.13 13.5998 26.2491C13.4457 27.2768 13.5256 28.1105 13.0117 29.0697C12.5664 29.9147 12.2695 30.8911 11.3902 31.3935C11.2817 31.4449 11.3559 31.6162 11.4758 31.5876Z" fill="#0C0A35"/>
<path d="M12.3213 32.1081C12.9379 31.5714 13.5317 31.1889 14.0342 30.5094C14.6223 29.7101 14.9249 28.6881 15.1418 27.7346C15.6215 25.6049 15.3931 23.5608 15.0448 21.4425C15.0162 21.2712 14.7821 21.3112 14.7365 21.4425C14.4852 22.122 14.6908 22.7615 14.8278 23.4523C15.0676 24.6399 14.8849 26.0502 14.6965 27.2321C14.5252 28.3112 14.1655 29.3218 13.5888 30.2468C13.1777 30.8977 12.464 31.3031 12.1785 32.0225C12.1443 32.1081 12.2642 32.1538 12.3213 32.1081Z" fill="#0C0A35"/>
<path d="M13.7428 32.2165C15.3929 31.1888 16.0781 29.5729 16.5234 27.723C16.7632 26.7124 16.9174 25.679 16.9574 24.6398C17.003 23.4065 16.4321 22.2874 16.6091 21.0484C16.6376 20.8486 16.3921 20.7173 16.2722 20.9057C15.9239 21.4595 16.0324 22.0362 16.158 22.6586C16.4321 24.0174 16.4892 25.1537 16.2608 26.5354C15.9125 28.6594 15.1531 30.5264 13.68 32.1309C13.6343 32.1765 13.6914 32.2508 13.7428 32.2165Z" fill="#0C0A35"/>
<path d="M14.931 32.5989C16.6268 31.5255 17.4261 29.6413 17.7458 27.7457C18.0884 25.7359 18.3339 23.4806 17.7573 21.4936C17.723 21.3794 17.5517 21.3737 17.5232 21.4936C17.3462 22.2816 17.5403 23.0866 17.5917 23.886C17.6716 25.0051 17.5175 26.1641 17.3576 27.2718C17.2263 28.2196 17.0607 29.156 16.6439 30.0295C16.1928 30.9716 15.3364 31.6111 14.8168 32.4961C14.7825 32.5589 14.8625 32.6446 14.931 32.5989Z" fill="#0C0A35"/>
<path d="M16.4661 32.4389C18.1619 31.5025 18.7214 29.7782 19.1211 28.0082C19.3438 27.0433 19.458 26.084 19.4694 25.0906C19.4808 24 19.2124 22.9609 19.1496 21.8875C19.1325 21.5963 18.7443 21.5449 18.6472 21.8189C18.4074 22.5041 18.6986 23.2235 18.7671 23.9258C18.8642 24.9821 18.8356 26.0327 18.6815 27.0889C18.5501 27.9625 18.3617 28.8532 18.1162 29.6983C17.7907 30.8288 16.9229 31.3826 16.3576 32.3304C16.3177 32.3989 16.3976 32.4731 16.4661 32.4389Z" fill="#0C0A35"/>
<path d="M17.939 32.4332C19.4464 31.8565 20.0402 29.8353 20.3771 28.4193C20.6112 27.4316 20.7082 26.4095 20.7996 25.4046C20.9138 24.1314 21.1022 22.6183 20.7425 21.3793C20.7082 21.2709 20.554 21.2709 20.5255 21.3793C20.2743 22.2472 20.3542 23.1779 20.32 24.0743C20.2743 25.279 20.1943 26.4895 20.023 27.6828C19.7547 29.5555 19.0981 30.9087 17.8762 32.3304C17.842 32.3704 17.8762 32.456 17.939 32.4332Z" fill="#0C0A35"/>
<path d="M19.5601 32.0792C21.0389 31.217 21.6556 29.6811 21.8611 28.0082C22.1409 25.6901 22.6262 23.1721 22.2722 20.8426C22.2551 20.717 22.0724 20.7113 22.0153 20.8083C21.6784 21.3907 21.8212 22.0016 21.8212 22.6582C21.8212 23.8116 21.7241 24.9649 21.5928 26.1126C21.3358 28.3393 21.1817 30.3263 19.5202 32.0221C19.4859 32.0506 19.5259 32.102 19.5601 32.0792Z" fill="#0C0A35"/>
<path d="M21.7025 31.1714C22.8159 30.1037 23.364 28.425 23.6096 26.9405C23.7352 26.1583 23.758 25.3704 23.7009 24.5767C23.6438 23.7774 23.7295 22.8981 23.3583 22.173C23.2784 22.0188 23.09 22.1159 23.0729 22.2529C22.8901 23.6689 23.187 25.0678 23.0557 26.4895C22.9758 27.3402 22.7702 28.1681 22.4847 28.9732C22.2449 29.6583 22.1022 30.5662 21.6683 31.1485C21.6569 31.1657 21.6854 31.1885 21.7025 31.1714Z" fill="#0C0A35"/>
<path d="M23.9919 29.1563C24.7341 28.0771 24.8826 26.9695 25.0196 25.6791C25.1395 24.5086 25.2252 22.9898 24.7113 21.905C24.6656 21.8022 24.5058 21.8365 24.4772 21.9336C24.1974 22.9841 24.4772 24.1774 24.4372 25.2623C24.3916 26.5755 23.9576 27.8259 23.9063 29.1277C23.912 29.1791 23.9691 29.1905 23.9919 29.1563Z" fill="#0C0A35"/>
<path d="M22.4 23.8173C21.8233 23.1835 21.2352 22.3842 21.4236 21.5449C21.5492 21.0024 21.9775 20.5913 22.3086 20.1403C22.6398 19.6892 22.8739 19.0612 22.577 18.593C22.3429 18.2218 21.8804 18.0905 21.5264 17.8336C20.9611 17.4168 20.7156 16.6117 20.9611 15.9494C21.1039 15.5611 21.3837 15.2471 21.5607 14.876C21.9261 14.1109 21.8176 13.1802 21.4236 12.4265C21.0297 11.6729 20.3845 11.0848 19.6936 10.5938C20.7556 10.6451 21.7719 10.628 22.8339 10.6851C23.4106 10.7137 23.9873 10.7422 24.5411 10.9078C25.5517 11.2104 26.4024 11.9926 26.8021 12.969C27.0362 13.5456 27.1161 14.1794 27.3331 14.7675C27.4987 15.2186 27.7499 15.6354 27.9783 16.0579C29.2287 18.3817 29.9139 20.9967 31.3641 23.2007C31.4612 23.3491 31.5583 23.5432 31.4555 23.6803C31.3927 23.7602 31.2842 23.7887 31.1814 23.8059C30.0281 24 28.8519 23.8173 27.6814 23.8516C26.5223 23.8858 25.3804 24.1313 24.2271 24.2113C23.5476 24.2626 22.8567 24.3197 22.4 23.8173Z" fill="#D6002B"/>
<path d="M25.1981 9.53823C25.3237 8.19647 25.1981 6.16954 24.9811 4.51374C24.8441 3.4803 24.5529 2.4183 24.4787 1.69889C24.3588 0.482732 23.548 0.722538 23.508 1.09366C23.2226 3.84572 23.4053 5.21603 22.9028 7.40853C22.7829 7.93382 21.9722 7.89385 21.8523 7.48847C21.5325 6.43218 21.4925 5.47867 21.3669 4.41097C21.1271 2.38975 20.9216 1.21928 20.5619 0.773924C20.3963 0.568377 20.0309 0.551248 19.9395 0.802473C19.1002 3.16056 20.1736 7.37999 18.8318 7.87673C18.5692 7.97379 18.2837 7.78537 18.2266 7.51702C17.7584 5.35306 18.3408 2.90933 17.2845 0.945214C17.216 0.819602 17.1247 0.68828 16.9876 0.665441C16.7821 0.631183 16.6279 0.853859 16.548 1.04799C15.6516 3.21765 16.6964 7.31147 15.8514 8.05372C15.5374 8.3335 15.2862 8.16221 15.2462 7.7454C14.8922 4.05697 14.5667 1.5904 13.8188 1.28779C13.402 1.12221 13.2136 2.41259 13.2307 2.91504C13.3106 5.54719 13.4591 8.17363 13.6075 10.8001C13.5904 10.743 13.5961 10.703 13.6247 10.7544C13.6532 10.8058 13.7217 10.8058 13.7788 10.8001C17.3816 10.5488 20.9844 10.2919 24.5815 10.0407C24.7185 10.0293 24.8441 9.9893 24.964 9.92078C25.0782 9.82943 25.1867 9.66955 25.1981 9.53823Z" fill="#F70032"/>
<path d="M13.5373 12.1183C13.9141 12.5808 23.2152 11.6159 25.2078 11.5131C25.402 11.5017 25.5732 11.3818 25.6475 11.2048C25.8188 10.7994 25.7046 10.4397 25.6018 10.0058C25.5847 9.92013 25.5561 9.82877 25.4933 9.76597C25.3905 9.66319 25.225 9.66319 25.0765 9.67461C22.1931 9.85732 19.304 10.04 16.4207 10.2227L13.9541 10.3769C13.7657 10.3883 13.583 10.434 13.4231 10.5311C13.0063 10.7823 13.0863 11.1192 13.1662 11.4218C13.2404 11.6844 13.3717 11.9071 13.5373 12.1183Z" fill="#0C0A35"/>
<path d="M13.7139 1.30393C13.8966 1.30393 14.0508 1.14977 14.0508 0.967058C14.0508 0.784349 13.8966 0.630188 13.7139 0.630188C13.5312 0.630188 13.3771 0.784349 13.3771 0.967058C13.3771 1.14977 13.5312 1.30393 13.7139 1.30393Z" fill="#0C0A35"/>
<path d="M16.9522 0.8602C17.3861 0.8602 17.3861 0.186462 16.9522 0.186462C16.5182 0.186462 16.5182 0.8602 16.9522 0.8602Z" fill="#0C0A35"/>
<path d="M20.2303 0.716297C20.4245 0.716297 20.5843 0.556427 20.5843 0.362299C20.5843 0.168171 20.4245 0.00830078 20.2303 0.00830078C20.0362 0.00830078 19.8763 0.168171 19.8763 0.362299C19.8763 0.550718 20.0419 0.716297 20.2303 0.716297Z" fill="#0C0A35"/>
<path d="M23.9078 0.990046C24.1076 0.990046 24.2732 0.824466 24.2732 0.630338C24.2732 0.4305 24.1076 0.27063 23.9078 0.27063C23.7137 0.27063 23.5481 0.43621 23.5481 0.630338C23.5481 0.824466 23.7137 0.990046 23.9078 0.990046Z" fill="#0C0A35"/>
<path d="M14.1422 7.25531C13.9537 8.1346 14.1936 9.03101 14.2507 9.91601C14.2678 10.2243 14.7074 10.2243 14.7245 9.91601C14.7873 9.0253 14.4276 8.16315 14.3477 7.28386C14.3363 7.16967 14.165 7.1297 14.1422 7.25531Z" fill="#0C0A35"/>
<path d="M17.0777 7.12181C16.9578 7.60713 16.9064 8.09816 16.9292 8.5949C16.9464 8.98315 16.9292 9.54841 17.2433 9.82247C17.3689 9.93666 17.5687 9.89099 17.6201 9.72541C17.7343 9.33715 17.5402 8.8347 17.5116 8.43503C17.4774 7.99538 17.426 7.55574 17.3232 7.12752C17.289 7.00762 17.1062 7.00762 17.0777 7.12181Z" fill="#0C0A35"/>
<path d="M20.4018 6.95647C20.5046 7.75011 20.5217 8.54375 20.5674 9.3431C20.5902 9.71423 21.1383 9.71994 21.1498 9.3431C21.1669 8.5152 20.9499 7.70443 20.7444 6.91079C20.6987 6.72237 20.379 6.75663 20.4018 6.95647Z" fill="#0C0A35"/>
<path d="M24.0952 6.91069C23.7012 7.43598 23.7412 8.35523 23.7869 8.97187C23.8154 9.39439 24.4321 9.40581 24.4492 8.97187C24.4606 8.65784 24.4378 8.3381 24.4206 8.02978C24.4035 7.6872 24.4321 7.33891 24.4035 6.99633C24.3921 6.81934 24.1922 6.77937 24.0952 6.91069Z" fill="#0C0A35"/>
<path d="M21.8383 11.2949C22.1923 11.7232 22.3865 12.4883 22.5235 13.0021C22.7918 13.9956 22.3008 14.8635 22.1181 15.8056C21.9183 16.8447 23.0316 17.3814 23.654 17.9866C25.0757 19.3627 22.3408 21.2354 22.1809 22.6457C22.061 23.702 23.0431 25.0609 23.8995 25.569C23.9794 25.6147 24.0879 25.5177 24.0308 25.4377C23.5569 24.7982 22.9974 24.3186 22.6834 23.5478C22.1752 22.3146 23.1173 21.6008 23.7454 20.7159C24.2821 19.9622 24.8245 18.6946 24.0994 17.8553C23.7168 17.41 23.2087 17.1188 22.7861 16.7134C22.0496 16.0111 22.9574 14.8463 22.9746 14.0755C23.0031 13.1106 22.7633 11.7917 21.8555 11.2607C21.8383 11.2607 21.8269 11.2835 21.8383 11.2949Z" fill="#0C0A35"/>
<path d="M23.1114 11.4268C24.693 12.4431 23.3798 13.8648 23.5511 15.2009C23.591 15.5092 23.8879 15.7833 24.0878 15.9945C24.7044 16.6454 25.3267 17.0851 25.6122 17.9929C26.1889 19.82 24.2533 20.7792 23.7109 22.2866C23.3341 23.3314 23.6652 24.382 24.6473 24.9644C24.7672 25.0329 24.9214 24.8902 24.8414 24.7703C24.6758 24.519 24.4988 24.2849 24.3218 24.0508C23.7566 23.2972 24.1448 22.5435 24.5559 21.8469C24.9499 21.1789 25.5666 20.6879 25.9148 19.997C26.4401 18.9578 26.2403 17.5247 25.4809 16.6569C24.9899 16.0916 23.8936 15.5035 24.0535 14.6128C24.1563 14.0475 24.3847 13.6136 24.3961 13.0255C24.4075 12.2547 24.0421 11.2498 23.14 11.3012C23.0714 11.3012 23.0486 11.3869 23.1114 11.4268Z" fill="#0C0A35"/>
<path d="M24.4194 11.1184C24.7221 11.3468 25.1103 12.2261 25.2416 12.5458C25.4643 13.0997 25.019 14.1788 25.0989 14.8183C25.156 15.3036 25.4415 15.6062 25.7955 15.9145C26.5149 16.5369 27.1372 16.9594 27.4399 17.9072C28.3248 20.6935 23.7628 23.2971 26.926 25.6723C27.0973 25.8036 27.3428 25.5467 27.2229 25.3754C26.4863 24.3362 26.0524 23.6225 26.6177 22.3322C26.9031 21.6927 27.3428 21.1217 27.5769 20.4537C28.0508 19.129 28.1478 17.8672 27.3142 16.6796C26.9431 16.1543 26.3664 15.8117 25.8982 15.3778C25.0589 14.5956 25.9268 13.5621 25.7441 12.6886C25.647 12.2204 25.0932 10.9014 24.4252 11.0328C24.3852 11.0499 24.3909 11.1013 24.4194 11.1184Z" fill="#0C0A35"/>
<path d="M27.0808 11.1756C26.133 11.364 26.2415 12.8314 26.2586 13.568C26.2928 15.1381 27.6232 15.6177 28.5995 16.6169C29.1705 17.1993 28.9764 18.0215 28.9136 18.7638C28.8165 19.9685 28.2969 20.9677 27.8744 22.0696C27.372 23.3657 27.7088 25.4726 29.376 25.6667C29.5074 25.6838 29.5302 25.5183 29.4674 25.4383C28.6909 24.4563 28.0457 23.9538 28.3255 22.5778C28.491 21.767 28.9707 20.9962 29.2048 20.1969C29.4788 19.2377 29.7586 17.8045 29.3989 16.8339C29.0791 15.966 27.9943 15.4464 27.3149 14.9212C26.7211 14.4587 26.6925 13.8021 26.6754 13.134C26.664 12.7458 26.584 11.4097 27.0922 11.2384C27.1379 11.2213 27.1264 11.1642 27.0808 11.1756Z" fill="#0C0A35"/>
<path d="M31.3277 19.7805C29.9631 18.8385 28.1017 24.1199 30.1401 25.3303C30.22 25.376 30.3285 25.2789 30.2714 25.199C29.592 24.2512 29.5235 23.1949 29.7747 22.0815C29.9517 21.305 30.4827 20.1802 31.3106 19.9575C31.3905 19.9347 31.3962 19.8262 31.3277 19.7805Z" fill="#0C0A35"/>
<path d="M31.9441 21.0127C31.2989 20.8871 30.7622 21.6693 30.5567 22.1946C30.2027 23.1082 30.3797 24.1188 31.0192 24.861C31.0649 24.9124 31.1733 24.8724 31.1619 24.8039C31.082 24.0845 30.7451 23.4679 30.865 22.7256C30.9849 21.9948 31.4874 21.6179 31.9727 21.1269C32.007 21.0927 31.9955 21.0241 31.9441 21.0127Z" fill="#0C0A35"/>
<path d="M12.2419 20.1173C12.0649 20.8539 12.1848 21.6532 12.5731 22.3041C12.693 22.504 12.8528 22.7038 13.0755 22.7723C13.2696 22.8294 13.4809 22.7837 13.6693 22.7095C14.5258 22.3841 15.1481 21.5105 15.1709 20.5912C15.4564 21.7389 16.6726 22.424 17.8431 22.6239C19.0078 22.8237 20.2183 22.6867 21.383 22.8865C21.2688 22.1842 20.8292 21.5847 20.401 21.0195C19.9899 20.4656 19.556 19.9004 18.9507 19.5692C18.3341 19.2323 17.6032 19.1867 16.901 19.1524C15.6106 19.0839 14.2974 19.0154 13.0355 19.3066C12.8871 19.3408 12.7386 19.3808 12.6187 19.4664C12.4075 19.6092 12.3047 19.8661 12.2419 20.1173Z" fill="#D6002B"/>
<path d="M14.4874 18.6004C14.4303 18.9716 14.4531 19.2856 14.476 19.6681C14.5331 20.5988 13.9907 21.4324 13.3797 22.0662C12.7117 22.7571 12.3006 23.4536 12.3577 24.4414C12.3634 24.5499 12.4947 24.5842 12.5575 24.4985C12.9686 23.9161 13.0486 23.2367 13.5282 22.6771C13.8308 22.3231 14.1505 22.0148 14.4246 21.638C15.1326 20.6502 14.8928 19.6453 14.573 18.6004C14.5559 18.5662 14.4931 18.5548 14.4874 18.6004Z" fill="#0C0A35"/>
<path d="M13.7334 18.6329C13.6821 18.9812 13.6764 19.3238 13.6706 19.6778C13.6592 20.4143 13.0882 20.951 12.6372 21.4763C12.169 22.0187 11.678 22.7153 11.8264 23.4633C11.8436 23.5546 11.9977 23.5832 12.0377 23.4918C12.4259 22.6011 12.9341 21.9673 13.5222 21.1965C14.2131 20.283 14.0075 19.7177 13.8648 18.6557C13.8591 18.5815 13.7449 18.5473 13.7334 18.6329Z" fill="#0C0A35"/>
<path d="M13.2761 18.7641C13.1505 19.0781 13.0706 19.3921 12.9735 19.7176C12.8365 20.1743 12.5053 20.4484 12.1399 20.7168C11.7859 20.9737 11.409 21.2649 11.3006 21.7045C11.2834 21.7788 11.3691 21.8301 11.4262 21.7788C11.8658 21.3505 12.4254 21.0936 12.8593 20.6654C13.3675 20.1629 13.2647 19.4264 13.356 18.7812C13.3617 18.7298 13.2932 18.7127 13.2761 18.7641Z" fill="#0C0A35"/>
<path d="M15.2168 18.6001C14.9085 19.6963 15.9191 20.7583 16.5301 21.5691C17.1467 22.3913 18.4485 23.6018 19.579 23.419C19.6818 23.4019 19.6818 23.2535 19.6076 23.2078C18.6255 22.5969 17.7005 22.1743 16.924 21.2665C16.2446 20.4729 15.5651 19.6278 15.2968 18.6001C15.2796 18.5658 15.2283 18.5658 15.2168 18.6001Z" fill="#0C0A35"/>
<path d="M15.9945 18.4686C15.572 19.1195 16.8053 20.25 17.1251 20.701C17.4905 21.2149 17.8902 21.7288 18.4154 22.0828C18.8951 22.4025 19.3975 22.6823 19.8486 23.0477C20.1968 23.3332 20.4252 23.7386 20.7678 24.0298C20.8478 24.0983 20.9848 24.0355 20.9505 23.927C20.6137 22.7851 19.5916 22.2826 18.6667 21.6602C17.9872 21.2035 17.5304 20.5126 17.0394 19.8788C16.7025 19.4506 16.1773 19.0452 16.0688 18.4857C16.0574 18.4457 16.006 18.4457 15.9945 18.4686Z" fill="#0C0A35"/>
<path d="M17.2449 18.5084C16.9708 19.5019 17.97 20.2841 18.6323 20.8722C19.1747 21.3518 19.6772 21.8143 20.1682 22.3567C20.7677 23.019 21.0817 23.6356 21.4757 24.4122C21.5157 24.4978 21.6527 24.475 21.6755 24.3836C21.9553 23.1332 21.0874 22.5051 20.3166 21.6715C19.3974 20.6723 17.7245 19.913 17.3933 18.5084C17.3762 18.4342 17.2677 18.4399 17.2449 18.5084Z" fill="#0C0A35"/>
<path d="M11.4705 20.1118C12.1556 19.6379 12.915 19.301 13.7543 19.2553C14.2225 19.2325 14.7136 19.084 15.039 18.73C15.5871 18.1305 14.9648 17.3711 14.3196 17.2512C14.1426 17.217 14.0684 17.4796 14.2454 17.5253C14.6222 17.6167 14.999 17.7651 15.0104 18.2162C15.0276 18.7015 14.4052 18.907 14.0341 18.9927C13.5202 19.1069 13.0463 19.0669 12.5496 19.2896C12.1214 19.4837 11.716 19.695 11.4419 20.0832C11.4305 20.1061 11.4533 20.1232 11.4705 20.1118Z" fill="#0C0A35"/>
<path d="M14.1039 6.59846C14.3437 6.59846 14.3437 6.22162 14.1039 6.22162C13.8584 6.22162 13.8584 6.59846 14.1039 6.59846Z" fill="#0C0A35"/>
<path d="M13.9775 5.92283C13.9889 5.92283 14.0003 5.92283 14.006 5.91712C14.2344 5.88857 14.2344 5.59167 14.006 5.56313C13.9946 5.56313 13.9889 5.56313 13.9775 5.55742C13.7434 5.52887 13.7434 5.95138 13.9775 5.92283Z" fill="#0C0A35"/>
<path d="M13.9197 5.2444C14.1367 5.2444 14.1367 4.90753 13.9197 4.90753C13.7027 4.90753 13.7027 5.2444 13.9197 5.2444Z" fill="#0C0A35"/>
<path d="M17.1992 6.52367C17.5019 6.52367 17.5019 6.05548 17.1992 6.05548C16.8966 6.05548 16.8966 6.52367 17.1992 6.52367Z" fill="#0C0A35"/>
<path d="M17.1981 5.68399C17.1924 5.6897 17.1924 5.6897 17.1867 5.69541C17.1353 5.70112 17.0839 5.70683 17.0268 5.71825C17.0325 5.71825 17.0439 5.71825 17.0497 5.72396C17.2152 5.7525 17.3808 5.62118 17.3294 5.44418C17.2837 5.28431 17.0668 5.2158 16.9469 5.34141C16.8555 5.44418 16.8441 5.59263 16.9469 5.68399C17.0268 5.74679 17.1239 5.74679 17.1981 5.68399Z" fill="#0C0A35"/>
<path d="M17.0787 4.99327C17.3642 4.99327 17.3642 4.54791 17.0787 4.54791C16.7876 4.54791 16.7876 4.99327 17.0787 4.99327Z" fill="#0C0A35"/>
<path d="M20.5728 6.22774C20.5786 6.22774 20.5843 6.22203 20.59 6.22203C20.7441 6.16494 20.8526 6.01649 20.8012 5.8452C20.7556 5.69104 20.5843 5.58255 20.4244 5.63394C20.4187 5.63394 20.413 5.63965 20.4073 5.63965C20.2474 5.69104 20.1503 5.85091 20.196 6.01649C20.2417 6.16494 20.4187 6.28484 20.5728 6.22774Z" fill="#0C0A35"/>
<path d="M20.6414 5.29563C20.6471 5.28992 20.6528 5.27851 20.6528 5.2728C20.7784 5.03299 20.4815 4.81031 20.2874 4.98731C20.2816 4.99302 20.2759 4.99873 20.2645 5.00444C20.0133 5.24425 20.4758 5.60396 20.6414 5.29563Z" fill="#0C0A35"/>
<path d="M20.5839 4.51404C20.5839 4.50262 20.5896 4.49691 20.5953 4.48549C20.6981 4.18859 20.1385 4.18859 20.2413 4.48549C20.247 4.49691 20.247 4.50262 20.2527 4.51404C20.3041 4.67962 20.5268 4.67962 20.5839 4.51404Z" fill="#0C0A35"/>
<path d="M24.1191 6.3C24.5245 6.3 24.5245 5.67194 24.1191 5.67194C23.7137 5.67194 23.7137 6.3 24.1191 6.3Z" fill="#0C0A35"/>
<path d="M24.1185 5.38157C24.4382 5.38157 24.4382 4.88483 24.1185 4.88483C23.7987 4.88483 23.7987 5.38157 24.1185 5.38157Z" fill="#0C0A35"/>
<path d="M24.0661 4.70093C24.0775 4.70664 24.0832 4.70664 24.0946 4.71235C24.2145 4.75803 24.3401 4.63813 24.3401 4.52394C24.3401 4.40974 24.2145 4.28984 24.0946 4.33552C24.0832 4.34123 24.0775 4.34123 24.0661 4.34694C23.8948 4.42116 23.8948 4.63242 24.0661 4.70093Z" fill="#0C0A35"/>
<path d="M7.01735 34.5186L7.01165 34.5186C6.97168 34.5186 6.93742 34.5243 6.89745 34.5243C6.90316 34.5243 6.90887 34.5243 6.91458 34.5243C6.88032 34.5072 6.84606 34.4901 6.80609 34.4729C6.8689 34.5243 6.926 34.5472 7.00593 34.5414C6.96597 34.5357 6.9317 34.5243 6.89173 34.5186C6.89744 34.5243 6.90887 34.53 6.91458 34.53C7.08587 34.6214 7.24574 34.4387 7.20006 34.2788C7.20006 34.2845 7.20006 34.2845 7.20006 34.2902C7.18293 34.1646 7.08016 34.0618 6.94883 34.0733C6.81751 34.0847 6.72046 34.1817 6.70904 34.3131C6.69762 34.4672 6.8689 34.6442 7.01735 34.5186Z" fill="#0C0A35"/>
<path d="M6.89243 35.5231C6.90384 35.5231 6.90956 35.5231 6.92098 35.5174C7.30353 35.4603 7.26355 34.9179 6.8753 34.9179C6.86388 34.9179 6.85818 34.9179 6.84676 34.9179C6.4585 34.9236 6.50417 35.5802 6.89243 35.5231Z" fill="#0C0A35"/>
<path d="M6.71556 36.6067C6.78978 36.6239 6.85829 36.6067 6.92681 36.5668C7.05242 36.4811 7.06956 36.2299 6.90398 36.1728C6.89827 36.1728 6.89256 36.1671 6.88686 36.1671C6.78408 36.1328 6.68131 36.1328 6.60137 36.2242C6.51002 36.3269 6.53285 36.4697 6.6242 36.561C6.64704 36.5839 6.6813 36.5953 6.71556 36.6067Z" fill="#0C0A35"/>
<path d="M6.59531 37.5319C6.60673 37.5319 6.61814 37.5376 6.62385 37.5376C6.88649 37.5833 6.96073 37.1893 6.70379 37.1322C6.69237 37.1322 6.68096 37.1265 6.67525 37.1265C6.41832 37.0751 6.33837 37.4862 6.59531 37.5319Z" fill="#0C0A35"/>
<path d="M6.50374 38.3271C6.69787 38.3671 6.75497 38.0645 6.56084 38.0302C6.37243 37.996 6.30962 38.2928 6.50374 38.3271Z" fill="#0C0A35"/>
<path d="M8.69668 38.931C8.70809 38.9196 8.71951 38.9139 8.73093 38.9024C8.84512 38.8054 8.73664 38.6455 8.60532 38.714C8.5939 38.7197 8.58249 38.7254 8.56536 38.7369C8.42833 38.8054 8.58248 39.0338 8.69668 38.931Z" fill="#0C0A35"/>
<path d="M8.94766 38.3138C8.99333 38.3595 9.04472 38.3766 9.10753 38.3937C9.36446 38.4623 9.45011 38.0226 9.18747 37.9884C9.11895 37.9827 9.06757 37.9769 9.01047 38.0055C8.87915 38.0626 8.85059 38.2167 8.94766 38.3138Z" fill="#0C0A35"/>
<path d="M9.54197 37.6633C9.86171 37.7261 9.96448 37.2236 9.63903 37.1608C9.31358 37.098 9.21652 37.6005 9.54197 37.6633Z" fill="#0C0A35"/>
<path d="M9.79763 36.6526C10.106 36.7154 10.1973 36.2358 9.88897 36.173C9.58065 36.1101 9.48931 36.5898 9.79763 36.6526Z" fill="#0C0A35"/>
<path d="M9.96343 35.8029C10.2546 35.8599 10.346 35.4089 10.0491 35.3518C9.75788 35.2947 9.67224 35.7458 9.96343 35.8029Z" fill="#0C0A35"/>
<path d="M8.56539 40.6608C8.18856 40.6151 8.06864 40.1812 8.53684 38.828C9.00503 37.4748 9.0507 36.3386 8.85657 35.5335C8.65674 34.7285 8.40552 33.4324 9.05642 33.4495C9.70732 33.4666 10.1984 34.5857 10.2954 35.6934C10.4039 36.8582 10.1527 37.7888 9.92428 38.6567C9.7016 39.5246 8.97078 40.7065 8.56539 40.6608Z" fill="#990028"/>
<path d="M5.86474 40.3083C5.39655 40.3311 5.01972 40.1141 5.20814 38.3841C5.39656 36.6541 6.03032 33.2454 6.71547 33.0513C7.40063 32.8629 7.56051 33.2454 7.56051 33.8621C7.56051 34.4844 6.7269 40.274 5.86474 40.3083Z" fill="#990028"/>
<path d="M9.21558 38.84C9.15278 38.8058 9.09568 38.8 9.02146 38.8C8.80449 38.8 8.7417 39.1312 8.94153 39.2169C9.01005 39.2454 9.06143 39.2568 9.13566 39.2511C9.35262 39.2397 9.40971 38.9371 9.21558 38.84Z" fill="#0C0A35"/>
<path d="M9.2793 38.2293C9.4563 38.2635 9.62758 38.1436 9.66183 37.9723C9.69609 37.7953 9.5762 37.624 9.40491 37.5898C9.22791 37.5555 9.05661 37.6754 9.02236 37.8467C8.98239 38.018 9.1023 38.195 9.2793 38.2293Z" fill="#0C0A35"/>
<path d="M9.71939 36.3788C9.70797 36.3731 9.69655 36.3674 9.68513 36.3617C9.50242 36.2589 9.26833 36.3902 9.22836 36.5843C9.1884 36.7785 9.35968 36.9897 9.56523 36.9612C9.57665 36.9612 9.59377 36.9555 9.60519 36.9555C9.91351 36.9212 9.98774 36.5272 9.71939 36.3788Z" fill="#0C0A35"/>
<path d="M9.75296 35.214C9.62164 35.0883 9.44464 35.0712 9.29048 35.1683C9.17058 35.2482 9.13632 35.4195 9.21625 35.5394C9.31902 35.6879 9.49031 35.7392 9.6616 35.6707C9.85573 35.5851 9.90141 35.3624 9.75296 35.214Z" fill="#0C0A35"/>
<path d="M9.40416 34.0608C9.36419 34.038 9.32422 34.0208 9.27283 34.0208C8.99306 33.9923 8.91883 34.3691 9.18719 34.449C9.23287 34.4605 9.27854 34.4662 9.32421 34.4605C9.53547 34.4319 9.58687 34.1693 9.40416 34.0608Z" fill="#0C0A35"/>
<path d="M6.70806 33.553C6.70235 33.5587 6.69663 33.5587 6.69663 33.5644C6.56531 33.6786 6.54248 33.9013 6.72519 33.9869C6.7309 33.9869 6.73661 33.9926 6.74232 33.9926C6.91932 34.0726 7.12486 33.9412 7.10773 33.7471C7.0906 33.5701 6.85651 33.4274 6.70806 33.553Z" fill="#0C0A35"/>
<path d="M6.58374 34.5061C6.57803 34.5118 6.57232 34.5175 6.56661 34.5175C6.45241 34.6146 6.42385 34.7402 6.49808 34.8772C6.49808 34.8829 6.5038 34.8886 6.50951 34.8943C6.62941 35.1227 6.97769 35.0142 7.01766 34.7915C7.05762 34.5689 6.77786 34.3405 6.58374 34.5061Z" fill="#0C0A35"/>
<path d="M6.40667 35.5449C6.36099 35.5621 6.30959 35.5849 6.26963 35.6135C6.1383 35.6877 6.09264 35.8704 6.13831 36.0017C6.1897 36.1502 6.33243 36.2301 6.48088 36.2244C6.50372 36.2244 6.52657 36.2244 6.54941 36.2187C6.73783 36.1844 6.88628 36.0531 6.86915 35.8476C6.85202 35.6249 6.61793 35.465 6.40667 35.5449Z" fill="#0C0A35"/>
<path d="M6.29337 37.3554C6.72731 37.4411 6.85864 36.7674 6.4247 36.6817C5.99077 36.5904 5.85944 37.2698 6.29337 37.3554Z" fill="#0C0A35"/>
<path d="M6.08673 38.4052C6.41789 38.468 6.52066 37.9541 6.1895 37.8913C5.85263 37.8228 5.75557 38.3424 6.08673 38.4052Z" fill="#0C0A35"/>
<path d="M5.93183 39.1939C6.20589 39.2452 6.28582 38.8227 6.01747 38.7656C5.7434 38.7142 5.65776 39.1425 5.93183 39.1939Z" fill="#0C0A35"/>
<path d="M8.76619 39.8958C8.99458 39.9415 9.06311 39.5818 8.83472 39.5418C8.60633 39.4962 8.5378 39.8502 8.76619 39.8958Z" fill="#0C0A35"/>
<path d="M2.32398 39.5137C2.70081 39.5423 2.96346 39.2568 3.03768 37.8237C3.11191 36.3963 3.49447 35.3228 3.97979 34.6491C4.46511 33.9754 5.19022 32.8734 4.57358 32.645C3.96265 32.4223 3.08908 33.2674 2.58092 34.2608C2.04421 35.3 1.94715 36.2592 1.81583 37.1442C1.66737 38.092 1.89575 39.4795 2.32398 39.5137Z" fill="#990028"/>
<path d="M2.4043 37.5829C2.47852 37.5772 2.52991 37.5886 2.59842 37.6172C2.79826 37.6971 2.72975 38.034 2.51849 38.034C2.44427 38.034 2.39287 38.0283 2.32435 37.994C2.13023 37.9026 2.18733 37.6 2.4043 37.5829Z" fill="#0C0A35"/>
<path d="M2.57549 36.99C2.39849 36.9557 2.28431 36.7787 2.31857 36.6074C2.35283 36.4304 2.52982 36.3162 2.7011 36.3505C2.8781 36.3847 2.9923 36.5617 2.95805 36.733C2.9295 36.91 2.75249 37.0242 2.57549 36.99Z" fill="#0C0A35"/>
<path d="M2.86121 35.1108C2.87263 35.1108 2.88976 35.1051 2.90118 35.1051C3.10673 35.0822 3.27802 35.2878 3.23805 35.4819C3.19808 35.676 2.96399 35.8074 2.78128 35.7046C2.76986 35.6989 2.75845 35.6932 2.74703 35.6875C2.47867 35.5447 2.55289 35.1508 2.86121 35.1108Z" fill="#0C0A35"/>
<path d="M3.26615 34.0212C3.43173 33.9527 3.60873 34.0041 3.71151 34.1525C3.79144 34.2724 3.76289 34.4437 3.63728 34.5236C3.48883 34.6207 3.30612 34.6036 3.1748 34.478C3.02635 34.3295 3.07203 34.1011 3.26615 34.0212Z" fill="#0C0A35"/>
<path d="M4.02636 33.0839C4.07203 33.0781 4.1177 33.0781 4.16338 33.0953C4.43744 33.1752 4.36322 33.552 4.07774 33.5235C4.02635 33.5178 3.99211 33.5064 3.94643 33.4835C3.76372 33.3751 3.8151 33.1124 4.02636 33.0839Z" fill="#0C0A35"/>
<path d="M2.4277 38.7306C2.19931 38.6849 2.26782 38.3309 2.49621 38.3766C2.72459 38.4166 2.65608 38.7763 2.4277 38.7306Z" fill="#0C0A35"/>
<path d="M22.258 30.5272C21.5785 29.962 20.6022 30.8356 20.2025 31.378C19.9398 31.7377 19.8542 32.3029 20.3053 32.5599C20.7278 32.7997 21.2359 32.6227 21.6242 32.4C22.0753 32.1431 22.532 31.8005 22.8632 31.4008C23.1886 30.9954 23.32 30.316 22.7204 30.0705C22.1038 29.8192 21.5386 30.2246 21.0761 30.6015C20.6536 30.944 20.0883 31.4979 20.0997 32.0803C20.1111 32.6113 20.842 32.7711 21.0932 32.3201C21.3673 31.829 21.8069 31.2409 22.355 31.064C22.3265 31.0754 22.2066 31.0411 22.3322 31.0697C22.1381 31.0183 22.0981 30.6015 22.081 30.6871C22.1095 30.5672 22.0581 30.7042 22.041 30.7271C22.0524 30.7042 21.9382 30.8356 21.9154 30.8641C21.7041 31.0868 21.4529 31.2752 21.1903 31.4465C20.9562 31.6007 20.9162 31.6463 20.6764 31.652C20.8134 31.652 20.9048 31.7662 20.9562 31.8861C20.9676 31.909 20.9448 32.0803 20.9676 31.9775C20.9847 31.8918 21.0018 31.8633 21.0818 31.7377C21.2131 31.515 21.4015 31.3152 21.5842 31.1325C21.6527 31.064 22.001 30.67 22.1095 30.7157C22.2294 30.767 22.3664 30.6186 22.258 30.5272Z" fill="#0C0A35"/>
<path d="M15.4285 35.3005C14.9775 35.1634 14.3209 35.5803 13.9669 35.8258C13.4815 36.1626 13.0705 36.5909 13.0248 37.2075C13.0076 37.4302 13.1732 37.6871 13.3959 37.7442C14.5321 38.024 15.9824 36.8364 16.3021 35.7858C16.3935 35.4946 16.2336 35.1749 15.9424 35.0835C15.36 34.9008 14.7662 35.2091 14.3094 35.5517C13.8755 35.8772 13.2532 36.4424 13.2703 37.0419C13.2817 37.413 13.7042 37.8013 14.0754 37.5501C14.0982 37.5387 14.1153 37.5215 14.1381 37.5101C14.3951 37.3388 14.4979 36.9962 14.2695 36.745C14.2523 36.7279 14.2352 36.7108 14.2238 36.6936C14.2638 36.8763 14.3037 37.0533 14.3437 37.236C14.475 36.9391 14.652 36.7279 14.9032 36.5109C15.0631 36.3739 15.4514 36.1112 15.5941 36.1512C15.4742 35.9171 15.3543 35.683 15.2344 35.4489C15.1316 35.7858 14.8233 36.0484 14.5664 36.2711C14.3894 36.4196 13.9497 36.7621 13.7214 36.7222C13.847 36.8992 13.9726 37.0819 14.0925 37.2589C14.1096 36.4767 15.3143 36.254 15.577 35.6202C15.6398 35.4946 15.5484 35.3404 15.4285 35.3005Z" fill="#0C0A35"/>
<path d="M17.5928 32.5658C17.2274 32.8113 17.0389 32.9826 16.8505 33.3937C16.6507 33.8276 16.6678 34.3929 16.8505 34.8325C17.2045 35.689 18.1124 35.9516 18.9346 35.6433C19.614 35.3864 19.9908 34.627 20.0936 33.959C20.2192 33.1539 19.6939 32.4802 18.9859 32.1833C18.2551 31.8749 17.2616 32.0291 16.7649 32.6743C16.3424 33.2281 16.4052 33.959 16.6507 34.5699C16.8905 35.1808 17.5014 35.6433 18.158 35.6604C19.0887 35.6833 19.6768 34.9182 19.8195 34.0789C19.928 33.4508 19.5683 32.8856 19.0088 32.64C18.4549 32.4002 17.6156 32.6971 17.3587 33.2396C17.136 33.7077 17.1588 34.41 17.6556 34.7126C18.2722 35.0838 18.8032 34.6042 18.9859 34.0218C19.1515 33.4851 18.5691 32.9712 18.061 33.2453C17.7755 33.3994 17.5585 33.6164 17.3587 33.8733C17.1531 34.1417 17.2616 34.6099 17.5528 34.7754C17.5699 34.7869 17.5928 34.7983 17.6099 34.8097C17.9696 35.0038 18.375 34.8668 18.5235 34.4843C18.4378 34.7069 18.5748 34.3015 18.5463 34.1931C18.5349 34.136 18.5177 34.0789 18.4892 34.0275C18.7461 34.5984 18.3008 34.5984 18.6662 34.4043C18.3579 34.1474 18.0495 33.8905 17.7412 33.6278C17.6613 33.8962 18.0267 33.3195 18.4549 33.702C18.552 33.7877 18.512 33.8847 18.512 33.7934C18.512 33.9133 18.4949 33.8676 18.4892 33.8676C18.4378 33.919 18.5748 33.8733 18.6034 33.879C18.5063 33.8505 18.4892 33.7192 18.5235 33.8619C18.5349 33.9133 18.5006 34.0332 18.4778 34.1074C18.4264 34.2673 18.3179 34.3244 18.2209 34.3529C18.1295 34.3758 18.238 34.3701 18.0838 34.3529C18.1466 34.3586 18.1238 34.3644 18.0267 34.3015C17.9525 34.2559 17.9011 34.1759 17.8212 34.0161C17.7812 33.9304 17.7469 33.7763 17.7469 33.6678C17.7469 33.4965 17.7298 33.6449 17.7812 33.4794C17.7641 33.5365 17.8155 33.428 17.8269 33.4166C17.8611 33.388 17.8954 33.3766 17.8726 33.3823C17.9925 33.3423 18.0553 33.3423 18.1866 33.3423C18.3693 33.348 18.6091 33.4166 18.689 33.4908C18.7804 33.5764 18.7918 33.6678 18.7918 33.7648C18.7918 33.9304 18.7347 34.0846 18.6376 34.2387C18.4721 34.5071 18.3008 34.5756 18.0724 34.4614C17.627 34.233 17.5871 33.2224 17.8554 32.8741C17.9982 32.7028 17.7698 32.4516 17.5928 32.5658Z" fill="#0C0A35"/>
<path d="M18.2494 34.1649C18.769 34.1877 18.8033 33.3769 18.2837 33.3541C17.7641 33.337 17.7299 34.142 18.2494 34.1649Z" fill="#F70032"/>
<path d="M17.2047 32.703C17.3246 32.7088 17.3303 32.526 17.2104 32.5203C17.0962 32.5146 17.0905 32.6973 17.2047 32.703Z" fill="#F70032"/>
<path d="M16.8911 33.3366C17.0053 33.3423 17.0167 33.1596 16.8968 33.1596C16.7826 33.1538 16.7769 33.3308 16.8911 33.3366Z" fill="#F70032"/>
<path d="M16.8852 34.0612C17.0394 34.0669 17.0508 33.8271 16.8966 33.8214C16.7425 33.8157 16.731 34.0555 16.8852 34.0612Z" fill="#F70032"/>
<path d="M17.1694 34.7186C17.3178 34.7243 17.3293 34.4902 17.1808 34.4845C17.0266 34.4788 17.0209 34.7129 17.1694 34.7186Z" fill="#F70032"/>
<path d="M17.6949 35.3123C17.7006 35.3123 17.7121 35.3066 17.7178 35.3066C17.7977 35.2781 17.8034 35.181 17.7235 35.1467C17.7178 35.141 17.7121 35.141 17.7007 35.1353C17.5579 35.0668 17.5465 35.3637 17.6949 35.3123Z" fill="#F70032"/>
<path d="M18.4381 35.4893C18.4438 35.4893 18.4552 35.4836 18.4609 35.4836C18.5694 35.4607 18.5751 35.3009 18.4724 35.2666C18.4666 35.2666 18.4552 35.2609 18.4495 35.2609C18.2611 35.2038 18.2497 35.5292 18.4381 35.4893Z" fill="#F70032"/>
<path d="M19.1624 35.1914C19.2881 35.1971 19.2938 35.003 19.1681 34.9973C19.0482 34.9915 19.0425 35.1857 19.1624 35.1914Z" fill="#F70032"/>
<path d="M19.6199 34.5807C19.7399 34.5864 19.7456 34.4037 19.6257 34.398C19.5115 34.3923 19.5058 34.575 19.6199 34.5807Z" fill="#F70032"/>
<path d="M19.7784 33.7424C19.8869 33.7481 19.8983 33.5768 19.7841 33.5711C19.6756 33.5654 19.6642 33.7366 19.7784 33.7424Z" fill="#F70032"/>
<path d="M19.5159 33.0343C19.6587 33.04 19.6644 32.823 19.5273 32.8173C19.3846 32.8116 19.3789 33.0286 19.5159 33.0343Z" fill="#F70032"/>
<path d="M18.889 32.5711C19.0546 32.5768 19.066 32.3198 18.9004 32.3084C18.7348 32.3084 18.7234 32.5653 18.889 32.5711Z" fill="#F70032"/>
<path d="M18.1063 32.4633C18.112 32.4633 18.1234 32.4633 18.1291 32.4633C18.2548 32.4518 18.2605 32.2863 18.1348 32.2691C18.1291 32.2691 18.1177 32.2691 18.112 32.2634C17.9807 32.2406 17.975 32.4747 18.1063 32.4633Z" fill="#F70032"/>
<path d="M9.06223 13.0161C8.98801 13.039 8.92519 13.0846 8.87381 13.136C8.71964 13.2902 8.63401 13.5186 8.65685 13.7412C8.67398 13.9639 8.79959 14.1695 8.97659 14.2951C9.07366 14.3636 9.19356 14.4093 9.31346 14.3921C9.5761 14.3579 9.71884 14.0667 9.78735 13.804C9.82732 13.6328 9.8673 13.3815 9.58181 13.1646C9.42765 13.0561 9.23923 12.9647 9.06223 13.0161Z" fill="#990028"/>
<path d="M9.5919 13.455C9.93448 13.5064 10.2713 13.5806 10.6082 13.6834C10.2371 13.9118 9.79746 14.0088 9.36923 13.9689C9.42633 13.8147 9.26075 13.5977 9.38636 13.4893C9.43775 13.4379 9.51767 13.4436 9.5919 13.455Z" fill="#990028"/>
<path d="M6.17189 18.6896C6.89131 18.8609 7.69066 18.8323 8.33014 18.4669C8.97533 18.0958 9.42067 17.3478 9.30077 16.617C9.25509 16.3372 9.12948 16.0689 8.94677 15.8462C8.76977 15.6292 8.56994 15.4008 8.30729 15.3095C7.07972 14.8698 5.39537 15.6349 4.86438 16.3201C4.75018 16.4628 4.65312 16.617 4.60174 16.794C4.46471 17.2336 4.64171 17.7304 4.96145 18.0673C5.27548 18.3927 5.72083 18.5811 6.17189 18.6896Z" fill="#990028"/>
<path d="M2.74059 15.6984C1.60437 15.8354 0.725088 16.8689 0.496703 17.988C0.268317 19.1071 0.593771 20.2718 1.10764 21.2939C1.13619 21.351 1.16472 21.4081 1.21611 21.4423C1.81562 20.7457 5.10439 17.9252 5.72674 16.8403C5.50978 16.5549 5.22999 16.3779 4.91596 16.2066C4.18513 15.8183 3.56278 15.6013 2.74059 15.6984Z" fill="#990028"/>
<path d="M8.71422 17.3267C8.62286 17.3095 8.54294 17.2524 8.47442 17.1953C7.84065 16.6872 6.8643 16.1562 6.72156 15.3568C7.38388 14.9686 8.52581 13.6611 9.02826 13.0787C9.28519 14.0436 9.39368 15.9678 9.31374 16.9612C9.30232 17.1154 9.17671 16.9669 9.10249 17.104C9.02255 17.2467 8.86838 17.3495 8.71422 17.3267Z" fill="#990028"/>
<path d="M8.64428 12.7003C8.58147 12.5347 8.38164 12.4719 8.20464 12.4662C8.04477 12.4605 7.87347 12.4947 7.78212 12.6261C7.7136 12.7288 7.71932 12.8659 7.7707 12.9744C7.82209 13.0828 7.91916 13.1685 8.02764 13.2256C7.84494 13.1514 7.588 13.237 7.54804 13.4311C7.50807 13.5967 7.63367 13.7623 7.78212 13.8479C7.93057 13.9336 8.10187 13.9564 8.26174 14.0192C8.43874 14.0877 8.59289 14.1905 8.75276 14.299C8.8955 14.0192 9.03825 13.7394 9.1867 13.4597C9.24951 13.3341 9.31802 13.2085 9.37511 13.0771C9.43221 12.9401 9.4836 12.8031 9.48931 12.6546C9.49502 12.5062 9.44934 12.352 9.34086 12.2549C9.30089 12.2207 9.2552 12.1921 9.20953 12.175C9.04395 12.1065 8.84412 12.1122 8.70709 12.2264C8.57577 12.3349 8.5358 12.5576 8.64428 12.7003Z" fill="#990028"/>
<path d="M5.63529 17.0734C6.16629 17.593 6.86286 18.0326 7.61083 17.6501C8.11328 17.3932 8.8384 16.7651 8.55863 16.1313C8.53008 16.0685 8.42159 16.0685 8.39304 16.1313C8.17037 16.6109 8.04477 16.9878 7.56516 17.2904C6.95422 17.6786 6.24622 17.3875 5.73235 16.9821C5.66383 16.925 5.57249 17.0106 5.63529 17.0734Z" fill="#0C0A35"/>
<path d="M3.76879 16.4396C2.67825 15.6345 1.71903 16.9592 1.36503 17.907C0.891131 19.1688 1.36504 20.8474 2.42132 21.6639C2.48984 21.7153 2.58689 21.6297 2.55835 21.5554C2.26715 20.6876 1.73616 20.0538 1.68477 19.0946C1.62196 17.9127 2.39277 16.411 3.74025 16.5309C3.79163 16.5309 3.79734 16.4624 3.76879 16.4396Z" fill="#0C0A35"/>
<path d="M3.74565 17.0042C2.08414 17.1413 2.13552 19.9961 3.32884 20.6927C3.40306 20.7383 3.50013 20.6641 3.4773 20.5785C3.32884 20.0532 3.06049 19.585 2.95772 19.0426C2.80355 18.2261 3.1347 17.6152 3.7856 17.1527C3.83699 17.1127 3.83129 16.9985 3.74565 17.0042Z" fill="#0C0A35"/>
<path d="M3.99791 17.541C3.15289 18.1233 3.35272 19.4994 4.32906 19.8476C4.42042 19.8819 4.47181 19.7734 4.43755 19.7049C4.12923 19.014 3.47263 18.4431 4.12353 17.7008C4.19204 17.6209 4.09498 17.4724 3.99791 17.541Z" fill="#0C0A35"/>
<path d="M9.26161 31.835C9.40435 31.8464 9.54709 31.8578 9.68983 31.8236C9.98673 31.7493 10.198 31.4696 10.2893 31.1727C10.3807 30.8758 10.3807 30.5674 10.4092 30.2591C10.4492 29.8309 10.5577 29.4084 10.7176 29.0087C10.866 28.6433 11.0601 28.295 11.1115 27.9067C11.2143 27.096 10.6662 26.3537 10.1238 25.7371C9.57563 25.1033 8.97612 24.9834 8.41658 23.5845C8.13109 22.8765 8.03402 22.5111 7.89128 22.4312C7.6686 22.3113 7.46307 22.5853 7.366 22.7167C7.26894 23.2191 7.21756 23.2477 7.38885 24.0527C7.49162 24.5438 7.41739 24.7436 7.86845 25.9084C8.02261 26.3023 7.97123 26.0739 8.18819 26.4394C7.83419 26.8105 7.45736 26.5193 6.97775 26.7077C6.50385 26.8961 6.3554 27.4899 6.31543 27.9981C6.27546 28.5519 6.28688 29.1058 6.34969 29.6539C6.42391 30.2934 6.60662 30.9785 7.12049 31.3668C7.53159 31.6751 8.0797 31.7322 8.59357 31.7779C8.81054 31.795 9.03893 31.8121 9.26161 31.835Z" fill="#FCC07E"/>
<path d="M7.78245 27.5011C8.04509 27.8152 8.54184 28.1635 8.45049 28.6374C8.37055 29.0713 7.75962 28.8029 7.52553 28.763C7.46272 28.7515 7.41703 28.8086 7.44558 28.8657C7.62258 29.2369 8.39339 29.1569 8.61036 28.86C8.78164 28.6202 8.70741 28.3176 8.58751 28.0721C8.43906 27.7581 8.12504 27.5868 7.83385 27.4383C7.78817 27.4098 7.74819 27.4612 7.78245 27.5011Z" fill="#0C0A35"/>
<path d="M7.62792 29.0071C7.76495 29.1613 7.96479 29.2184 8.10753 29.3611C8.27311 29.521 8.39303 29.8522 8.22745 30.0463C7.99906 30.3089 7.57654 30.1491 7.29677 30.1034C7.24538 30.0977 7.20542 30.1433 7.22826 30.189C7.41668 30.5716 8.11896 30.4402 8.37019 30.189C8.53577 30.0234 8.53005 29.7323 8.4387 29.5324C8.37589 29.3954 8.29024 29.2812 8.18176 29.1841C8.04473 29.0585 7.85061 29.0357 7.70787 28.9215C7.65077 28.8815 7.57654 28.95 7.62792 29.0071Z" fill="#0C0A35"/>
<path d="M7.62219 31.281C7.94764 31.3781 8.33589 31.3153 8.42725 30.9384C8.5186 30.5673 8.24454 30.3389 7.9248 30.2305C7.84486 30.2019 7.48517 30.122 7.53085 30.3218C7.57652 30.5102 7.8563 30.5502 8.01046 30.6073C8.18745 30.6758 8.29022 30.8414 8.14748 31.0184C8.04471 31.1497 7.77064 31.1725 7.62219 31.2182C7.59364 31.2296 7.59364 31.2753 7.62219 31.281Z" fill="#0C0A35"/>
<path d="M7.81683 26.7469C7.54276 26.7583 7.24585 26.3472 7.21159 26.096C7.1602 25.702 7.24585 25.9418 7.19446 25.5479C7.05172 24.4516 6.85189 22.7273 6.82905 21.6196C6.81192 20.6718 6.67489 19.724 6.75482 18.7819C6.76624 18.6335 6.90898 18.4679 6.98321 18.3366C7.05743 18.2053 7.2173 18.1025 7.37717 18.1196C7.17163 20.2322 7.36575 21.8594 7.47994 24.5373C7.5142 25.2738 7.84538 26.0103 7.81683 26.7469Z" fill="#990028"/>
<path d="M8.59961 27.0158C8.51968 27.2728 8.25703 27.4669 7.98868 27.4726C7.74887 27.4783 7.52619 27.3527 7.32064 27.2271C7.15506 27.13 6.98949 27.033 6.82962 26.9359C6.53272 26.7589 6.23581 26.5819 6.02456 26.3136C5.8133 26.0452 5.71052 25.6627 5.85897 25.3543C5.95604 25.1488 6.25294 24.4465 7.04087 24.8405C7.46339 25.0517 8.05719 25.8168 8.50254 26.3821C8.61674 26.5362 8.66242 26.8274 8.59961 27.0158Z" fill="#FFD6A1"/>
<path d="M7.50147 27.3525C7.67847 27.6095 8.21518 27.7465 8.50066 27.5981C8.82611 27.4268 8.91747 26.9871 8.66625 26.7188C8.64912 26.6959 8.60344 26.7131 8.60915 26.7416C8.63199 26.9472 8.60344 27.3126 8.37505 27.3925C8.14666 27.4724 7.78696 27.3868 7.58142 27.2783C7.53003 27.2555 7.46722 27.3069 7.50147 27.3525Z" fill="#0C0A35"/>
<path d="M9.08506 13.7239C9.2849 13.7239 9.2849 13.4156 9.08506 13.4156C8.88522 13.4156 8.88522 13.7239 9.08506 13.7239Z" fill="#0C0A35"/>
<path d="M10.6145 45.8228C10.7915 43.1164 11.4081 40.4614 13.6977 38.994C15.1308 38.0805 17.3918 37.6237 19.0705 37.3611C19.6586 37.2697 20.2466 37.1841 20.8405 37.1841C21.7026 37.1898 22.5476 37.3839 23.3869 37.578C23.5069 37.6066 23.6325 37.6351 23.7238 37.7208C23.9122 37.8921 23.8837 38.189 23.8266 38.4402C23.7238 38.9198 23.5925 39.388 23.4269 39.8505C22.8274 41.5577 22.7589 42.3171 22.8388 45.0691C22.8445 45.2061 23.0044 46.0283 22.9587 46.1596C22.8674 46.4337 22.599 46.2053 22.3135 46.2396C18.9905 46.6335 15.4448 45.6058 12.1447 46.1425C11.8478 46.1882 11.5509 46.251 11.2539 46.2053C10.9628 46.1596 10.5973 46.1197 10.6145 45.8228Z" fill="#D6002B"/>
<path d="M24.4322 36.9901C23.7527 37.1557 23.4273 37.5954 23.0904 38.1892C22.645 38.9828 22.1255 39.8507 21.977 40.7528C21.8114 41.7463 21.7772 42.8311 21.6858 43.8417C21.5888 44.9037 21.9827 45.9029 21.7886 46.9649C21.7543 47.1419 21.9942 47.2675 22.0912 47.0905C22.3596 46.5938 22.2968 46.0742 22.234 45.5261C22.1083 44.407 22.1369 43.4478 22.3082 42.3287C22.4623 41.3009 22.3824 40.4673 22.8963 39.5081C23.3416 38.6631 23.6328 37.6867 24.5178 37.1843C24.632 37.1272 24.5578 36.9559 24.4322 36.9901Z" fill="#0C0A35"/>
<path d="M23.5923 36.4704C22.9756 37.0072 22.3818 37.3897 21.8794 38.0692C21.2913 38.8685 20.9887 39.8905 20.7717 40.844C20.2921 42.9737 20.5205 45.0178 20.8688 47.1361C20.8973 47.3074 21.1257 47.2674 21.1771 47.1361C21.4283 46.4566 21.2228 45.8171 21.0857 45.1263C20.8459 43.9387 21.0287 42.5284 21.2171 41.3465C21.3884 40.2731 21.7481 39.2568 22.3247 38.3318C22.7301 37.6809 23.4495 37.2755 23.735 36.5561C23.7693 36.4647 23.6494 36.4191 23.5923 36.4704Z" fill="#0C0A35"/>
<path d="M22.1706 36.3619C20.5205 37.3896 19.8354 39.0055 19.39 40.8554C19.1502 41.866 18.9961 42.8994 18.9561 43.9386C18.9104 45.1719 19.4814 46.291 19.3044 47.53C19.2759 47.7298 19.5214 47.8611 19.6413 47.6727C19.9896 47.1189 19.8811 46.5365 19.7554 45.9199C19.4814 44.561 19.4243 43.4247 19.6527 42.043C20.001 39.919 20.7604 38.052 22.2335 36.4475C22.2734 36.4019 22.222 36.3276 22.1706 36.3619Z" fill="#0C0A35"/>
<path d="M20.9821 35.9737C19.2863 37.0471 18.487 38.9313 18.1615 40.8269C17.8189 42.8367 17.5734 45.092 18.1501 47.0789C18.1843 47.1931 18.3556 47.1989 18.3842 47.0789C18.5612 46.291 18.3728 45.486 18.3157 44.6866C18.2357 43.5675 18.3956 42.4085 18.5498 41.3008C18.6811 40.353 18.8467 39.4166 19.2635 38.543C19.7145 37.6009 20.571 36.9615 21.0906 36.0765C21.1305 36.0137 21.0506 35.9337 20.9821 35.9737Z" fill="#0C0A35"/>
<path d="M19.4469 36.1393C17.7511 37.0757 17.1916 38.8 16.7919 40.57C16.5692 41.5349 16.455 42.4941 16.4493 43.4876C16.4379 44.5782 16.7063 45.6173 16.7691 46.6907C16.7862 46.9819 17.1745 47.0333 17.2715 46.7592C17.5113 46.0741 17.2201 45.3547 17.1516 44.6524C17.0545 43.5904 17.0831 42.5455 17.243 41.4892C17.3743 40.6157 17.5627 39.725 17.8082 38.8742C18.1337 37.7437 19.0015 37.1899 19.5668 36.2421C19.5953 36.1736 19.5154 36.0993 19.4469 36.1393Z" fill="#0C0A35"/>
<path d="M17.9754 36.1452C16.4681 36.7218 15.8743 38.7431 15.5317 40.159C15.2976 41.1468 15.2005 42.1688 15.1092 43.1737C14.995 44.447 14.8066 45.96 15.1663 47.199C15.2005 47.3075 15.3547 47.3075 15.3832 47.199C15.6345 46.3312 15.5545 45.4062 15.5888 44.5041C15.6345 43.2994 15.7144 42.0889 15.8857 40.8956C16.154 39.0228 16.8106 37.6696 18.0325 36.2479C18.0725 36.208 18.0382 36.1223 17.9754 36.1452Z" fill="#0C0A35"/>
<path d="M16.3524 36.4927C14.8736 37.3548 14.257 38.8964 14.0572 40.5637C13.7774 42.8818 13.2921 45.3997 13.6461 47.7293C13.6632 47.8549 13.8459 47.8606 13.903 47.7635C14.2399 47.1811 14.0971 46.5702 14.0971 45.9136C14.0971 44.7603 14.1942 43.6069 14.3255 42.4593C14.5824 40.2325 14.7366 38.2456 16.3981 36.5498C16.4267 36.5212 16.3867 36.4756 16.3524 36.4927Z" fill="#0C0A35"/>
<path d="M14.2119 37.4009C13.0986 38.4686 12.5504 40.1472 12.3049 41.6317C12.1793 42.4139 12.1565 43.2019 12.2136 43.9955C12.2707 44.7948 12.185 45.6741 12.5562 46.3993C12.6304 46.5534 12.8245 46.4564 12.8416 46.3193C13.0243 44.9033 12.7217 43.5045 12.8588 42.0828C12.9387 41.232 13.1443 40.4041 13.4297 39.5991C13.6695 38.9139 13.8123 38.0061 14.2462 37.4237C14.2576 37.4066 14.2291 37.3894 14.2119 37.4009Z" fill="#0C0A35"/>
<path d="M11.923 39.4229C11.1808 40.502 11.0323 41.6097 10.8953 42.9001C10.7754 44.0706 10.6841 45.5893 11.2036 46.6741C11.2493 46.7769 11.4092 46.7427 11.4377 46.6456C11.7175 45.595 11.4377 44.4017 11.4777 43.3169C11.5234 42.0037 11.9573 40.7475 12.0087 39.4457C12.003 39.3944 11.9459 39.3886 11.923 39.4229Z" fill="#0C0A35"/>
<path d="M28.9777 34.2543L28.9834 34.2543C29.0234 34.2543 29.0577 34.2486 29.0976 34.2486C29.0919 34.2486 29.0862 34.2486 29.0805 34.2486C29.1148 34.2657 29.149 34.2829 29.1833 34.3C29.1205 34.2486 29.0634 34.2258 28.9834 34.2315C29.0234 34.2372 29.0577 34.2486 29.0976 34.2543C29.0919 34.2486 29.0805 34.2429 29.0748 34.2429C28.9092 34.1458 28.7436 34.3285 28.7893 34.4941C28.7893 34.4884 28.7893 34.4884 28.7893 34.4827C28.8064 34.6083 28.9035 34.7111 29.0348 34.6997C29.1661 34.6883 29.2632 34.5969 29.2804 34.4599C29.2918 34.3114 29.1262 34.1287 28.9777 34.2543Z" fill="#0C0A35"/>
<path d="M29.1092 33.2509C29.0978 33.2509 29.0921 33.2509 29.0807 33.2566C28.6981 33.3079 28.7381 33.8504 29.1207 33.8561C29.1321 33.8561 29.1378 33.8561 29.1492 33.8561C29.5432 33.8561 29.4975 33.1995 29.1092 33.2509Z" fill="#0C0A35"/>
<path d="M29.2919 32.1704C29.2177 32.1475 29.1491 32.1646 29.0806 32.2103C28.955 32.296 28.9322 32.5472 29.1035 32.6043C29.1092 32.6043 29.1149 32.61 29.1206 32.61C29.2234 32.6442 29.3261 32.6442 29.4061 32.5586C29.4974 32.4558 29.4746 32.3188 29.389 32.2217C29.3604 32.1932 29.3319 32.1818 29.2919 32.1704Z" fill="#0C0A35"/>
<path d="M29.4168 31.2408C29.4054 31.2408 29.394 31.2351 29.3883 31.2351C29.1257 31.1838 29.0457 31.5834 29.3084 31.6405C29.3198 31.6405 29.3255 31.6462 29.3369 31.6462C29.5938 31.7033 29.6795 31.2922 29.4168 31.2408Z" fill="#0C0A35"/>
<path d="M29.5185 30.4514C29.3244 30.4114 29.2673 30.7083 29.4557 30.7483C29.6499 30.7883 29.707 30.4856 29.5185 30.4514Z" fill="#0C0A35"/>
<path d="M27.3272 29.8242C27.3158 29.8356 27.3043 29.8413 27.2929 29.8528C27.1787 29.9498 27.2872 30.1097 27.4185 30.0412C27.43 30.0355 27.4471 30.0298 27.4585 30.024C27.5955 29.9555 27.4471 29.7271 27.3272 29.8242Z" fill="#0C0A35"/>
<path d="M27.0705 30.446C27.0249 30.4004 26.9735 30.3775 26.9107 30.3604C26.6537 30.2919 26.5624 30.7315 26.8307 30.7658C26.8935 30.7772 26.9449 30.7772 27.0077 30.7486C27.1391 30.6973 27.1733 30.5431 27.0705 30.446Z" fill="#0C0A35"/>
<path d="M26.4767 31.0911C26.157 31.0283 26.0542 31.525 26.374 31.5879C26.6994 31.6564 26.7965 31.1539 26.4767 31.0911Z" fill="#0C0A35"/>
<path d="M26.2083 32.102C25.8999 32.0392 25.8029 32.5188 26.1112 32.5816C26.4195 32.6387 26.5166 32.1648 26.2083 32.102Z" fill="#0C0A35"/>
<path d="M26.0371 32.9469C25.7459 32.8898 25.6545 33.3409 25.9457 33.398C26.2369 33.4551 26.3282 33.004 26.0371 32.9469Z" fill="#0C0A35"/>
<path d="M27.4755 28.1059C27.8523 28.1573 27.9665 28.5913 27.4869 29.9387C27.0073 31.2862 26.9502 32.4281 27.1443 33.2332C27.3327 34.0383 27.5783 35.3401 26.9274 35.3115C26.2765 35.2887 25.7969 34.1696 25.7055 33.0562C25.6084 31.8914 25.8654 30.9665 26.0995 30.0986C26.3336 29.2307 27.0701 28.0488 27.4755 28.1059Z" fill="#990028"/>
<path d="M30.17 28.4711C30.6382 28.454 31.015 28.6709 30.8095 30.401C30.6039 32.131 29.9416 35.5339 29.2565 35.7224C28.5713 35.9051 28.4114 35.5225 28.4171 34.9059C28.4343 34.2835 29.3078 28.5054 30.17 28.4711Z" fill="#990028"/>
<path d="M26.8144 29.9147C26.8772 29.949 26.9343 29.9547 27.0085 29.9547C27.2255 29.9547 27.2883 29.6235 27.0942 29.5379C27.0257 29.5093 26.9743 29.4979 26.9001 29.5036C26.6831 29.515 26.6203 29.8177 26.8144 29.9147Z" fill="#0C0A35"/>
<path d="M26.7449 30.5271C26.5679 30.4928 26.3966 30.607 26.3567 30.784C26.3224 30.961 26.4366 31.1323 26.6136 31.1723C26.7906 31.2065 26.9676 31.0923 27.0018 30.9153C27.0361 30.7383 26.9219 30.567 26.7449 30.5271Z" fill="#0C0A35"/>
<path d="M26.287 32.3706C26.2984 32.3763 26.3099 32.382 26.3213 32.3877C26.504 32.4905 26.7381 32.3648 26.7781 32.165C26.818 31.9709 26.6525 31.7596 26.4412 31.7825C26.4298 31.7825 26.4184 31.7882 26.4012 31.7882C26.0986 31.8281 26.0187 32.2221 26.287 32.3706Z" fill="#0C0A35"/>
<path d="M26.2416 33.5347C26.3672 33.666 26.5499 33.6832 26.7041 33.5861C26.824 33.5062 26.8583 33.3349 26.7783 33.215C26.6755 33.0665 26.5043 33.0094 26.333 33.0836C26.1445 33.1636 26.0989 33.392 26.2416 33.5347Z" fill="#0C0A35"/>
<path d="M26.5845 34.6885C26.6244 34.7113 26.6644 34.7285 26.7158 34.7342C26.9956 34.7684 27.0698 34.3859 26.8014 34.306C26.7558 34.2945 26.7158 34.2888 26.6644 34.2945C26.4589 34.3231 26.4075 34.5857 26.5845 34.6885Z" fill="#0C0A35"/>
<path d="M29.2793 35.2208C29.285 35.2151 29.2907 35.2151 29.2907 35.2094C29.4277 35.1009 29.4448 34.8725 29.2678 34.7869C29.2621 34.7869 29.2564 34.7812 29.2507 34.7812C29.0794 34.7012 28.8682 34.8268 28.8796 35.0267C28.891 35.2037 29.1251 35.3464 29.2793 35.2208Z" fill="#0C0A35"/>
<path d="M29.4109 34.2723C29.4166 34.2665 29.4223 34.2608 29.428 34.2608C29.548 34.1638 29.5708 34.0382 29.5023 33.9011C29.4966 33.8954 29.4966 33.8897 29.4909 33.884C29.3767 33.6556 29.0227 33.7641 28.977 33.9811C28.9313 34.2037 29.2111 34.4378 29.4109 34.2723Z" fill="#0C0A35"/>
<path d="M29.5936 33.2325C29.6392 33.2154 29.6849 33.1926 29.7306 33.1697C29.8619 33.0955 29.9076 32.9128 29.8619 32.7815C29.8105 32.633 29.6735 32.5531 29.5193 32.5531C29.4965 32.5531 29.4737 32.5531 29.4508 32.5588C29.2624 32.5931 29.114 32.7244 29.1254 32.9299C29.1539 33.1526 29.3823 33.3125 29.5936 33.2325Z" fill="#0C0A35"/>
<path d="M29.7185 31.4286C29.2845 31.343 29.1475 32.0167 29.5814 32.1024C30.0211 32.188 30.1581 31.5143 29.7185 31.4286Z" fill="#0C0A35"/>
<path d="M29.9365 30.3781C29.6053 30.3096 29.5026 30.8234 29.8337 30.892C30.1649 30.9605 30.2677 30.4409 29.9365 30.3781Z" fill="#0C0A35"/>
<path d="M30.0969 29.5911C29.8229 29.534 29.7372 29.9622 30.0113 30.0136C30.2854 30.0707 30.371 29.6425 30.0969 29.5911Z" fill="#0C0A35"/>
<path d="M30.2611 29.264C30.2668 29.2583 30.2726 29.2583 30.2783 29.2526C30.3354 29.2183 30.3468 29.1384 30.3125 29.0813C30.3068 29.0756 30.3068 29.0698 30.3011 29.0641C30.2326 28.9614 30.067 28.9899 30.0384 29.1155C30.0156 29.2411 30.1584 29.3325 30.2611 29.264Z" fill="#0C0A35"/>
<path d="M27.2692 28.8644C27.0409 28.8187 26.9666 29.1727 27.195 29.2184C27.4234 29.2641 27.4976 28.9101 27.2692 28.8644Z" fill="#0C0A35"/>
<path d="M33.7092 29.2996C33.3324 29.2654 33.0697 29.5509 32.9841 30.984C32.8984 32.4114 32.5045 33.4848 32.0191 34.1528C31.5281 34.8209 30.7973 35.9228 31.4082 36.1512C32.0134 36.3796 32.8984 35.5403 33.4123 34.5525C33.9547 33.5134 34.0632 32.5598 34.2002 31.6748C34.3487 30.7213 34.1374 29.3339 33.7092 29.2996Z" fill="#990028"/>
<path d="M33.6132 31.2235C33.5389 31.2292 33.4875 31.212 33.419 31.1892C33.2192 31.1093 33.2877 30.7724 33.5047 30.7724C33.5789 30.7724 33.6303 30.7838 33.6988 30.8124C33.8872 30.9094 33.8301 31.212 33.6132 31.2235Z" fill="#0C0A35"/>
<path d="M33.4362 31.8161C33.6132 31.8503 33.7274 32.0273 33.6931 32.2043C33.6589 32.3813 33.4819 32.4955 33.3049 32.4613C33.1279 32.427 33.0137 32.25 33.0479 32.073C33.0822 31.896 33.2592 31.7818 33.4362 31.8161Z" fill="#0C0A35"/>
<path d="M33.1402 33.6946C33.1287 33.6946 33.1116 33.7003 33.1002 33.7003C32.8947 33.7231 32.7234 33.5176 32.769 33.3177C32.809 33.1236 33.0431 32.9923 33.2258 33.0951C33.2372 33.1008 33.2487 33.1065 33.2601 33.1122C33.5227 33.2663 33.4428 33.6603 33.1402 33.6946Z" fill="#0C0A35"/>
<path d="M32.7229 34.7861C32.5573 34.8546 32.3803 34.8032 32.2775 34.6547C32.1976 34.5348 32.2319 34.3636 32.3518 34.2836C32.5002 34.1866 32.6829 34.2037 32.8142 34.335C32.9627 34.4777 32.917 34.7061 32.7229 34.7861Z" fill="#0C0A35"/>
<path d="M31.9578 35.711C31.9064 35.7167 31.8664 35.7167 31.8207 35.6995C31.5524 35.6196 31.6266 35.2428 31.9064 35.2713C31.9578 35.277 31.992 35.2884 32.0377 35.317C32.2204 35.4255 32.1633 35.6881 31.9578 35.711Z" fill="#0C0A35"/>
<path d="M33.6024 30.0816C33.8307 30.1273 33.7622 30.487 33.5282 30.4356C33.2998 30.3899 33.374 30.0359 33.6024 30.0816Z" fill="#0C0A35"/>
<path d="M26.3903 26.7347C26.3789 26.729 26.3675 26.7233 26.356 26.7176C26.1733 26.6148 25.9392 26.7462 25.8993 26.9403C25.8593 27.1344 26.0306 27.3457 26.2361 27.3171C26.2475 27.3171 26.2647 27.3114 26.2761 27.3114C26.5787 27.2772 26.6587 26.8832 26.3903 26.7347Z" fill="#0C0A35"/>
<path d="M7.63542 42.3447C7.624 42.339 7.61258 42.3333 7.60116 42.3276C7.41845 42.2248 7.18435 42.3561 7.14438 42.5503C7.10441 42.7444 7.2757 42.9557 7.48125 42.9271C7.49267 42.9271 7.50409 42.9271 7.52122 42.9214C7.82383 42.8871 7.90377 42.4989 7.63542 42.3447Z" fill="#0C0A35"/>
<path d="M4.7576 43.6191C4.74618 43.6134 4.73476 43.6077 4.72334 43.602C4.54063 43.4992 4.30654 43.6306 4.26657 43.8247C4.22661 44.0188 4.39789 44.2301 4.60344 44.2015C4.61486 44.2015 4.62627 44.1958 4.6434 44.1958C4.94601 44.1616 5.02595 43.7676 4.7576 43.6191Z" fill="#0C0A35"/>
<path d="M8.95805 41.6602C8.94663 41.6545 8.9352 41.6488 8.92378 41.6431C8.74107 41.5403 8.50698 41.6716 8.46701 41.8658C8.42704 42.0599 8.59833 42.2711 8.80388 42.2426C8.8153 42.2426 8.82672 42.2426 8.84385 42.2369C9.14646 42.2026 9.2264 41.8087 8.95805 41.6602Z" fill="#0C0A35"/>
<path d="M6.28203 43.0251C6.27061 43.0194 6.25919 43.0137 6.24777 43.008C6.06506 42.9052 5.83095 43.0366 5.79099 43.2307C5.75102 43.4248 5.92231 43.6361 6.12785 43.6075C6.13927 43.6075 6.15641 43.6018 6.16783 43.6018C6.47044 43.5676 6.54467 43.1736 6.28203 43.0251Z" fill="#0C0A35"/>
<path d="M27.8289 25.8344C27.8175 25.8287 27.8061 25.823 27.7946 25.8173C27.6119 25.7145 27.3778 25.8458 27.3379 26.04C27.2979 26.2341 27.4692 26.4453 27.6747 26.4168C27.6862 26.4168 27.6976 26.4111 27.7147 26.4111C28.0173 26.3768 28.0973 25.9886 27.8289 25.8344Z" fill="#0C0A35"/>
<path d="M29.2621 24.9876C29.2507 24.9819 29.2393 24.9762 29.2279 24.9705C29.0452 24.8677 28.8111 24.999 28.7711 25.1932C28.7311 25.3873 28.9024 25.5985 29.108 25.57C29.1194 25.57 29.1365 25.5643 29.1479 25.5643C29.4562 25.53 29.5305 25.1361 29.2621 24.9876Z" fill="#0C0A35"/>
<path d="M30.6221 24.3138C30.6107 24.3081 30.5993 24.3024 30.5878 24.2967C30.4051 24.1939 30.171 24.3252 30.1311 24.5193C30.0911 24.7135 30.2624 24.9247 30.4679 24.8962C30.4794 24.8962 30.4908 24.8905 30.5079 24.8905C30.8105 24.8562 30.8905 24.4622 30.6221 24.3138Z" fill="#0C0A35"/>
</svg>
