<svg width="1280" height="493" viewBox="0 0 1280 493" fill="none" xmlns="http://www.w3.org/2000/svg">
<g opacity="0.3">
<g opacity="0.3">
<path opacity="0.2" d="M-121 217.925L5.61948 268.256L26.8147 134.276L-99.86 83.9443L-121 217.925Z" fill="#FDEDC9"/>
<path opacity="0.2" d="M88.5088 172.84L85.7715 219.782L132.047 212.103L134.778 165.143L88.5088 172.84Z" fill="#FDEDC9"/>
<path opacity="0.2" d="M143.712 360.484C120.138 324.719 117.098 306.579 117.098 306.579H117.051C117.051 306.579 105.966 321.25 68.4998 341.922C38.4711 358.515 14.3358 372.015 7.97457 397.89C2.40849 420.483 16.2067 443.311 38.7517 448.889C54.5612 452.779 70.932 449.732 80.9884 439.608C74.7675 455.263 64.8514 478.607 53.0645 483.154L91.8867 492.716C83.561 483.247 85.619 457.935 87.3496 441.201C91.5125 454.842 104.656 465.201 120.419 469.091C142.964 474.669 165.742 460.842 171.309 438.248C177.717 412.374 162.609 389.171 143.712 360.484Z" fill="#FDEDC9"/>
<path opacity="0.2" d="M457.93 86.0277C445.076 79.9205 441.063 75.2875 441.063 75.2875L441.05 75.2955C441.05 75.2955 440.487 81.3748 433.554 93.7018C428 103.589 423.565 111.582 426.282 120.032C428.65 127.413 436.504 131.526 443.813 129.23C448.935 127.614 453.007 123.929 454.071 119.319C455.048 124.84 456.324 133.183 453.802 136.505L466.381 132.539C462.392 131.281 458.564 123.731 456.137 118.677C459.682 121.837 465.181 122.519 470.289 120.911C477.599 118.614 481.595 110.762 479.226 103.381C476.523 94.9226 468.236 90.9284 457.93 86.0277Z" fill="#FDEDC9"/>
<path opacity="0.2" d="M422.593 432.142C418.007 418.67 418.53 412.563 418.53 412.563L418.515 412.559C418.515 412.559 413.765 416.396 400.095 420.021C389.136 422.936 380.314 425.331 376.151 433.17C372.513 440.014 375.041 448.512 381.784 452.149C386.514 454.693 391.994 455.043 396.041 452.591C392.764 457.141 387.674 463.874 383.534 464.383L395.149 470.633C393.269 466.896 396.011 458.888 397.941 453.624C398.148 458.369 401.494 462.785 406.209 465.326C412.952 468.963 421.367 466.352 425.006 459.508C429.183 451.672 426.267 442.947 422.593 432.142Z" fill="#FDEDC9"/>
<path opacity="0.2" d="M536.715 259.835C516.615 266.655 501.481 284.639 505.979 303.323C496.983 286.367 473.65 282.864 454.066 290.992C432.794 299.773 419.582 323.222 430.217 351.342C439.869 376.753 466.529 388.291 496.374 399.454C526.782 410.805 544.446 419.774 551.474 423.37C554.332 416.037 561.641 397.679 576.915 369.092C591.908 341.019 604.231 314.814 594.579 289.403C583.99 261.237 558.502 252.362 536.715 259.835Z" fill="#FDEDC9"/>
<path opacity="0.2" d="M18.0384 24.4941C10.9883 22.0579 2.89166 23.805 0.0832451 29.9832C1.27013 23.3162 -4.43557 17.3051 -11.6267 15.3447C-19.4272 13.2025 -28.1775 16.8873 -31.3327 27.0198C-34.1727 36.1849 -29.2887 45.153 -23.4407 54.7045C-17.4775 64.4293 -14.5289 70.7403 -13.3619 73.2593C-10.9784 71.8319 -4.96895 68.2924 5.46775 63.6203C15.715 59.0308 24.8168 54.3858 27.6567 45.2207C30.835 35.0853 25.6979 27.112 18.0384 24.4941Z" fill="#FDEDC9"/>
<path opacity="0.2" d="M357.702 151.875C338.074 154.416 331.921 166.259 330.752 165.344C329.582 164.429 347.939 150.858 344.329 122.904C341.176 98.4053 318.751 81.1242 294.242 84.3263C269.732 87.5284 252.545 109.841 255.698 134.34C259.257 162.04 280.411 170.884 279.444 172.155C278.478 173.426 269.071 163.362 250.104 165.802C225.594 168.953 208.306 191.367 211.509 215.866C211.509 215.917 211.509 215.967 211.56 216.018C211.56 216.069 211.56 216.12 211.56 216.171C211.916 219.119 212.628 221.914 213.543 224.608C220.255 244.278 240.138 257.188 261.596 254.443C286.106 251.292 303.395 228.877 300.191 204.379C300.039 203.108 299.784 201.888 299.53 200.669C301.666 201.533 304.157 202.854 306.751 203.362C307.513 222.219 308.581 270.606 299.784 282.855L339.498 277.722C327.853 268.116 316.565 220.949 312.497 202.549C314.785 201.38 316.972 199.449 318.802 198.026C318.853 199.296 318.955 200.618 319.107 201.939C322.26 226.438 344.685 243.719 369.194 240.517C390.653 237.721 406.569 220.186 408.094 199.449C408.298 196.603 408.247 193.705 407.891 190.808C407.891 190.757 407.891 190.707 407.891 190.656C407.891 190.605 407.891 190.554 407.891 190.452C404.636 166.005 382.212 148.724 357.702 151.875Z" fill="#FDEDC9"/>
<path opacity="0.2" d="M281.055 357.19C274.465 353.985 270.176 356.37 269.998 355.851C269.82 355.333 278.236 354.896 282.742 345.583C286.694 337.424 283.225 327.567 274.989 323.573C266.753 319.579 256.941 322.937 252.988 331.096C248.517 340.32 253.29 347.33 252.735 347.523C252.18 347.717 251.291 342.718 244.926 339.616C236.7 335.606 226.835 338.974 222.898 347.144C222.888 347.159 222.878 347.175 222.883 347.201C222.873 347.216 222.863 347.232 222.853 347.247C222.37 348.224 222.028 349.227 221.769 350.24C219.891 357.639 223.452 365.639 230.651 369.154C238.877 373.163 248.741 369.795 252.678 361.626C252.887 361.205 253.053 360.779 253.22 360.353C253.708 361.052 254.214 361.963 254.915 362.646C251.357 368.588 241.952 383.655 236.763 385.628L250.097 392.116C248.423 386.804 254.416 370.036 256.858 363.563C257.802 363.669 258.868 363.52 259.721 363.455C259.481 363.855 259.247 364.282 259.028 364.718C255.076 372.877 258.545 382.734 266.781 386.728C273.99 390.228 282.448 388.078 287.093 382.023C287.728 381.191 288.295 380.292 288.768 379.33C288.778 379.315 288.788 379.299 288.799 379.283C288.809 379.268 288.819 379.252 288.84 379.221C292.75 371.057 289.281 361.2 281.055 357.19Z" fill="#FDEDC9"/>
</g>
<g opacity="0.3">
<path opacity="0.2" d="M1400 217.925L1273.38 268.256L1252.19 134.276L1378.86 83.9443L1400 217.925Z" fill="#FDEDC9"/>
<path opacity="0.2" d="M1190.49 172.84L1193.23 219.782L1146.95 212.103L1144.22 165.143L1190.49 172.84Z" fill="#FDEDC9"/>
<path opacity="0.2" d="M1135.29 360.484C1158.86 324.719 1161.9 306.579 1161.9 306.579H1161.95C1161.95 306.579 1173.03 321.25 1210.5 341.922C1240.53 358.515 1264.66 372.015 1271.03 397.89C1276.59 420.483 1262.79 443.311 1240.25 448.889C1224.44 452.779 1208.07 449.732 1198.01 439.608C1204.23 455.263 1214.15 478.607 1225.94 483.154L1187.11 492.716C1195.44 483.247 1193.38 457.935 1191.65 441.201C1187.49 454.842 1174.34 465.201 1158.58 469.091C1136.04 474.669 1113.26 460.842 1107.69 438.248C1101.28 412.374 1116.39 389.171 1135.29 360.484Z" fill="#FDEDC9"/>
<path opacity="0.2" d="M821.07 86.0277C833.924 79.9205 837.937 75.2875 837.937 75.2875L837.95 75.2955C837.95 75.2955 838.513 81.3748 845.446 93.7018C851 103.589 855.435 111.582 852.718 120.032C850.35 127.413 842.496 131.526 835.187 129.23C830.065 127.614 825.993 123.929 824.929 119.319C823.952 124.84 822.676 133.183 825.198 136.505L812.619 132.539C816.608 131.281 820.436 123.731 822.863 118.677C819.318 121.837 813.819 122.519 808.711 120.911C801.401 118.614 797.405 110.762 799.774 103.381C802.477 94.9226 810.764 90.9284 821.07 86.0277Z" fill="#FDEDC9"/>
<path opacity="0.2" d="M856.407 432.142C860.993 418.67 860.47 412.563 860.47 412.563L860.485 412.559C860.485 412.559 865.235 416.396 878.905 420.021C889.864 422.936 898.686 425.331 902.849 433.17C906.487 440.014 903.959 448.512 897.216 452.149C892.486 454.693 887.006 455.043 882.959 452.591C886.236 457.141 891.326 463.874 895.466 464.383L883.851 470.633C885.731 466.896 882.989 458.888 881.059 453.624C880.852 458.369 877.506 462.785 872.791 465.326C866.048 468.963 857.633 466.352 853.994 459.508C849.817 451.672 852.733 442.947 856.407 432.142Z" fill="#FDEDC9"/>
<path opacity="0.2" d="M742.285 259.835C762.385 266.655 777.519 284.639 773.021 303.323C782.017 286.367 805.35 282.864 824.934 290.992C846.206 299.773 859.418 323.222 848.783 351.342C839.131 376.753 812.471 388.291 782.626 399.454C752.218 410.805 734.554 419.774 727.526 423.37C724.668 416.037 717.359 397.679 702.085 369.092C687.092 341.019 674.769 314.814 684.421 289.403C695.01 261.237 720.498 252.362 742.285 259.835Z" fill="#FDEDC9"/>
<path opacity="0.2" d="M1260.96 24.4941C1268.01 22.0579 1276.11 23.805 1278.92 29.9832C1277.73 23.3162 1283.44 17.3051 1290.63 15.3447C1298.43 13.2025 1307.18 16.8873 1310.33 27.0198C1313.17 36.1849 1308.29 45.153 1302.44 54.7045C1296.48 64.4293 1293.53 70.7403 1292.36 73.2593C1289.98 71.8319 1283.97 68.2924 1273.53 63.6203C1263.28 59.0308 1254.18 54.3858 1251.34 45.2207C1248.16 35.0853 1253.3 27.112 1260.96 24.4941Z" fill="#FDEDC9"/>
<path opacity="0.2" d="M921.298 151.875C940.926 154.416 947.079 166.259 948.248 165.344C949.418 164.429 931.061 150.858 934.671 122.904C937.824 98.4053 960.249 81.1242 984.758 84.3263C1009.27 87.5284 1026.46 109.841 1023.3 134.34C1019.74 162.04 998.589 170.884 999.556 172.155C1000.52 173.426 1009.93 163.362 1028.9 165.802C1053.41 168.953 1070.69 191.367 1067.49 215.866C1067.49 215.917 1067.49 215.967 1067.44 216.018C1067.44 216.069 1067.44 216.12 1067.44 216.171C1067.08 219.119 1066.37 221.914 1065.46 224.608C1058.74 244.278 1038.86 257.188 1017.4 254.443C992.894 251.292 975.605 228.877 978.809 204.379C978.961 203.108 979.216 201.888 979.47 200.669C977.334 201.533 974.843 202.854 972.249 203.362C971.487 222.219 970.419 270.606 979.216 282.855L939.502 277.722C951.147 268.116 962.435 220.949 966.503 202.549C964.215 201.38 962.028 199.449 960.198 198.026C960.147 199.296 960.045 200.618 959.893 201.939C956.74 226.438 934.315 243.719 909.806 240.517C888.347 237.721 872.431 220.186 870.906 199.449C870.702 196.603 870.753 193.705 871.109 190.808C871.109 190.757 871.109 190.707 871.109 190.656C871.109 190.605 871.109 190.554 871.109 190.452C874.364 166.005 896.788 148.724 921.298 151.875Z" fill="#FDEDC9"/>
<path opacity="0.2" d="M997.945 357.19C1004.54 353.985 1008.82 356.37 1009 355.851C1009.18 355.333 1000.76 354.896 996.258 345.583C992.306 337.424 995.775 327.567 1004.01 323.573C1012.25 319.579 1022.06 322.937 1026.01 331.096C1030.48 340.32 1025.71 347.33 1026.26 347.523C1026.82 347.717 1027.71 342.718 1034.07 339.616C1042.3 335.606 1052.16 338.974 1056.1 347.144C1056.11 347.159 1056.12 347.175 1056.12 347.201C1056.13 347.216 1056.14 347.232 1056.15 347.247C1056.63 348.224 1056.97 349.227 1057.23 350.24C1059.11 357.639 1055.55 365.639 1048.35 369.154C1040.12 373.163 1030.26 369.795 1026.32 361.626C1026.11 361.205 1025.95 360.779 1025.78 360.353C1025.29 361.052 1024.79 361.963 1024.09 362.646C1027.64 368.588 1037.05 383.655 1042.24 385.628L1028.9 392.116C1030.58 386.804 1024.58 370.036 1022.14 363.563C1021.2 363.669 1020.13 363.52 1019.28 363.455C1019.52 363.855 1019.75 364.282 1019.97 364.718C1023.92 372.877 1020.46 382.734 1012.22 386.728C1005.01 390.228 996.552 388.078 991.907 382.023C991.272 381.191 990.705 380.292 990.232 379.33C990.222 379.315 990.212 379.299 990.201 379.283C990.191 379.268 990.181 379.252 990.16 379.221C986.25 371.057 989.719 361.2 997.945 357.19Z" fill="#FDEDC9"/>
</g>
</g>
</svg>
