<svg width="342" height="525" viewBox="0 0 342 525" fill="none" xmlns="http://www.w3.org/2000/svg">
    <defs>
        <linearGradient id="paint0_linear" x1="170.273" y1="523.944" x2="170.788" y2="-2.37079e-05" gradientUnits="userSpaceOnUse">
            <stop stop-color="#044325"/>
            <stop offset="1" stop-color="#3BC382"/>
        </linearGradient>
        <linearGradient id="paint1_linear" x1="171" y1="0.345703" x2="170.484" y2="524.289" gradientUnits="userSpaceOnUse">
            <stop stop-color="#044325"/>
            <stop offset="1" stop-color="#3BC482" stop-opacity="0"/>
        </linearGradient>
    </defs>
    <path d="M0.355225 357.57C0.355225 449.456 76.6723 523.944 170.814 523.944C264.956 523.944 341.273 449.456 341.273 357.57L341.273 166.373C341.273 74.4878 264.956 0 170.814 0C76.6723 0 0.355225 74.4878 0.355225 166.373L0.355225 357.57Z" fill="url(#paint0_linear)"/>
    <path d="M340.918 166.719C340.918 74.8335 264.601 0.345703 170.459 0.345703C76.317 0.345703 0 74.8335 0 166.719V357.916C0 449.801 76.317 524.289 170.459 524.289C264.601 524.289 340.918 449.801 340.918 357.916V166.719Z" fill="url(#paint1_linear)"/>
    <path d="M7.85632 357.57C7.85632 445.412 80.8149 516.622 170.814 516.622C260.813 516.622 333.771 445.412 333.771 357.57L333.771 166.373C333.771 78.5314 260.813 7.3215 170.814 7.3215C80.8149 7.3215 7.85632 78.5314 7.85632 166.373L7.85632 357.57Z" stroke="#0C0D16" stroke-width="15" />
    <path d="M48.392 331.69C48.392 397.389 102.959 450.649 170.272 450.649C237.584 450.649 292.151 397.389 292.151 331.69L292.151 192.253C292.151 126.555 237.584 73.2951 170.272 73.2951C102.959 73.2951 48.392 126.555 48.392 192.253V331.69Z" stroke="white" stroke-opacity="0.2" stroke-width="2.77241"/>
</svg>
