<svg width="34" height="34" viewBox="0 0 34 34" fill="none" xmlns="http://www.w3.org/2000/svg">
<path d="M16.662 11.4911L18.4562 17.6699L16.662 23.1294L13.9708 24.9235L11.2795 23.1294L9.48535 17.1369L11.2795 11.4911L13.6463 9.6969L16.662 11.4911Z" fill="#FAB672"/>
<path d="M22.0446 11.4911V23.1294L19.3534 24.9235L16.6621 23.1294V11.4911L19.3534 9.6969L22.0446 11.4911Z" fill="#CD7F32"/>
<path d="M16.626 2L16.6619 2.05388C16.6619 2.05388 16.6799 2.03594 16.7158 2.01794C16.6979 2 16.644 2 16.626 2V2Z" fill="#964B00"/>
<path d="M16.6623 23.1295L18.4565 27.2158L16.6623 32.6206L11.5852 26.8317L11.2798 23.1295H16.6623Z" fill="#CD7F32"/>
<path d="M11.2796 11.4911V23.1294L8.1398 24.9235L5.08971 23.1294C5.03594 23.0217 5 22.8782 5 22.7525V11.868C5 11.7424 5.03594 11.5988 5.08971 11.4911L8.1398 9.69696L11.2796 11.4911Z" fill="#CD7F32"/>
<path d="M28.324 11.868V22.7526C28.324 22.8782 28.2881 23.0218 28.2343 23.1294L25.1842 24.9236L22.0444 23.1294V11.4911L25.1842 9.69696L28.2343 11.4911C28.2881 11.5988 28.324 11.7424 28.324 11.868Z" fill="#B0671D"/>
<path d="M16.6623 2.05389L18.4565 8.07083L16.6623 11.4911H11.2798L11.8645 7.3202L16.6623 2.05389Z" fill="#CD7F32"/>
<path d="M22.0446 11.4911H16.6621V2.05389L21.4609 7.32188L22.0446 11.4911Z" fill="#B0671D"/>
<path d="M22.0446 23.1295L21.7727 26.7725L16.6621 32.6206V23.1295H22.0446Z" fill="#B0671D"/>
<path d="M28.2345 11.4911H22.0446L16.6621 2.05389C16.6621 2.05389 16.6801 2.03595 16.716 2.01794C16.8954 2.01794 17.0927 2.08965 17.2362 2.2153L28.0013 11.1862C28.1089 11.2579 28.1806 11.3655 28.2345 11.4911Z" fill="#964B00"/>
<path d="M28.2345 23.1295C28.1806 23.255 28.1089 23.3627 28.0013 23.4344L17.2362 32.4053C17.0747 32.5489 16.8774 32.6206 16.6621 32.6206L22.0446 23.1295H28.2345Z" fill="#964B00"/>
<path d="M16.6622 32.6206C16.4469 32.6206 16.2496 32.5489 16.0881 32.4053L5.32309 23.4344C5.21544 23.3627 5.14373 23.255 5.08984 23.1295H11.2797L16.6622 32.6206Z" fill="#B0671D"/>
<path d="M16.6622 2.05388L11.2797 11.4911H5.08984C5.14373 11.3655 5.21544 11.2579 5.32309 11.1862L16.0881 2.2153C16.2317 2.07171 16.4469 2 16.6264 2L16.6622 2.05388Z" fill="#B0671D"/>
</svg>
