<svg width="34" height="34" viewBox="0 0 34 34" fill="none" xmlns="http://www.w3.org/2000/svg">
<path d="M17 4L16.4364 7.43367L11.7266 11.8L7.77148 7.46661L7.82428 4.104C7.92975 4.03472 8.05268 4 8.21094 4H17Z" fill="#ECF2FF"/>
<path d="M26.1757 4.104L26.0087 7.9L22.2734 11.8L17.8789 7.9L17 4H25.7891C25.9473 4 26.0703 4.03472 26.1757 4.104Z" fill="#D9E5FF"/>
<path d="M22.2734 11.8L17 13.5333L11.7266 11.8L17 4L22.2734 11.8Z" fill="#D9E5FF"/>
<path d="M22.2734 11.8L17 4V13.5333L22.2734 11.8Z" fill="#BFD6FF"/>
<path d="M22.2734 11.8L21.7712 19.5998L17 30L12.2288 19.5998L11.7266 11.8H22.2734Z" fill="#ECF2FF"/>
<path d="M17 30L21.7712 19.5998L22.2734 11.8H17V30Z" fill="#D9E5FF"/>
<path d="M32 11.7999L27.1074 13.5333L22.2734 11.7999L26.1757 4.10394C26.3516 4.17322 26.457 4.29461 26.4922 4.34661C28.4082 6.85994 29.9082 8.76661 31.8243 11.2799C31.9297 11.4013 32 11.5746 32 11.7999Z" fill="#BFD6FF"/>
<path d="M11.7266 11.7999L6.89258 13.5333L2 11.7999C2 11.5746 2.07025 11.4013 2.17572 11.2799C4.0918 8.76661 5.5918 6.85994 7.50775 4.34661C7.54297 4.29455 7.64844 4.17322 7.82428 4.10394L11.7266 11.7999Z" fill="#D9E5FF"/>
<path d="M32 11.8C32 11.9733 31.9472 12.164 31.8066 12.3373C26.7266 18.612 22.7831 23.396 17.6855 29.6706C17.5977 29.792 17.3691 30 17 30L22.2734 11.8H32Z" fill="#B3C5FF"/>
<path d="M17 30C16.6308 30 16.4023 29.792 16.3145 29.6706C11.2169 23.396 7.27344 18.612 2.19336 12.3373C2.05279 12.164 2 11.9733 2 11.8H11.7266L17 30Z" fill="#BFD6FF"/>
</svg>
