<svg width="34" height="34" viewBox="0 0 34 34" fill="none" xmlns="http://www.w3.org/2000/svg">
<path d="M24.0312 9.96875L25.7891 17.0001L24.0312 24.0312L17 25.7891L9.96875 24.0312L8.21094 17.0001L9.96875 9.96875L17 8.21094L24.0312 9.96875Z" fill="#99FFCC"/>
<path d="M24.0312 24.0312L25.7891 17.0001L24.0312 9.96875L17 8.21094V25.7891L24.0312 24.0312Z" fill="#80ECC6"/>
<path d="M9.96875 9.96875V24.0312L6.50803 22.7129L2 17L6.0135 11.7267L9.96875 9.96875Z" fill="#80ECC6"/>
<path d="M24.0312 24.0312L22.2734 27.9863L17 32L11.7265 27.9862L9.96875 24.0312H24.0312Z" fill="#80ECC6"/>
<path d="M24.0312 9.96875H9.96875L11.7266 6.01367L17 2L22.2734 6.01367L24.0312 9.96875Z" fill="#80ECC6"/>
<path d="M32 17L27.9863 22.2734L24.0312 24.0312V9.96875L27.9864 11.7266L32 17Z" fill="#68D9C0"/>
<path d="M16.9999 32H16.8769L4.57221 30.1836C4.37885 30.1484 4.20301 30.0605 4.08008 29.9199L5.36533 25.119L9.96869 24.0312L16.9999 32Z" fill="#4FC6B9"/>
<path d="M9.96875 24.0312L4.08014 29.9199C3.93945 29.7969 3.85162 29.6211 3.81641 29.4277L2 17.123V17L9.96875 24.0312Z" fill="#4FC6B9"/>
<path d="M17 32L22.2734 27.9863L24.0312 24.0312H17V32Z" fill="#68D9C0"/>
<path d="M24.0312 9.96875L22.2734 6.01367L17 2V9.96875H24.0312Z" fill="#68D9C0"/>
<path d="M29.9199 4.08014L28.6694 8.84621L24.0312 9.96875L17 2H17.123L29.4277 3.81641C29.6211 3.85162 29.7969 3.93945 29.9199 4.08014Z" fill="#4FC6B9"/>
<path d="M16.9999 2L9.96869 9.96875L4.96502 8.4807L4.08008 4.08014C4.20301 3.93945 4.37885 3.85162 4.57221 3.81641L16.8769 2H16.9999Z" fill="#68D9C0"/>
<path d="M32 16.877V17L24.0312 9.96875L29.9199 4.08014C30.0605 4.20307 30.1484 4.37891 30.1836 4.57227L32 16.877Z" fill="#36B3B3"/>
<path d="M9.96875 9.96875L2 17V16.877L3.81641 4.57227C3.85162 4.37891 3.93945 4.20307 4.08014 4.08014L9.96875 9.96875Z" fill="#4FC6B9"/>
<path d="M29.9199 29.9199C29.7969 30.0605 29.6211 30.1484 29.4277 30.1836L17.123 32H17L24.0312 24.0312L28.8651 25.3494L29.9199 29.9199Z" fill="#4FC6B9"/>
<path d="M32 17V17.123L30.1836 29.4277C30.1484 29.6211 30.0605 29.7969 29.9199 29.9199L24.0312 24.0312L32 17Z" fill="#36B3B3"/>
</svg>
