<svg width="34" height="34" viewBox="0 0 34 34" fill="none" xmlns="http://www.w3.org/2000/svg">
<path d="M12.7565 24.0312L9.96875 21.2435V12.7565L12.7565 9.96875H21.2435L24.0312 12.7565V21.2435L21.2435 24.0312H12.7565Z" fill="#FFF480"/>
<path d="M17 9.96875V24.0312H21.2435L24.0312 21.2435V12.7565L21.2435 9.96875H17Z" fill="#FFE566"/>
<path d="M11.7266 13.4844V20.5156L6.89258 23.8848L3.44721 23.2754C2.55084 21.377 2 19.2325 2 17C2 14.7675 2.55084 12.623 3.44721 10.7246L6.89252 10.1152L11.7266 13.4844Z" fill="#FFE566"/>
<path d="M23.2754 30.5528C21.3769 31.4492 19.2325 32 17 32C14.7675 32 12.623 31.4492 10.7246 30.5528L10.4258 26.1757L13.4844 22.2734H20.5156L23.8848 27.1074L23.2754 30.5528Z" fill="#FFE566"/>
<path d="M32 17C32 19.2325 31.4492 21.377 30.5528 23.2754L27.1075 23.8848L22.2734 20.5156V13.4844L27.1074 10.1152L30.5528 10.7246C31.4492 12.623 32 14.7675 32 17Z" fill="#FFC24D"/>
<path d="M23.2754 3.44721L23.8848 6.89258L20.5156 11.7266H13.4844L10.1152 6.89264L10.7246 3.44721C12.623 2.55084 14.7675 2 17 2C19.2325 2 21.377 2.55084 23.2754 3.44721Z" fill="#FFE566"/>
<path d="M13.4844 11.7266L11.7266 13.4844L3.44727 10.7246C4.92389 7.52539 7.52539 4.92383 10.7246 3.44727L13.4844 11.7266Z" fill="#FFC24D"/>
<path d="M13.4844 22.2734L10.7246 30.5528C7.52539 29.0762 4.92383 26.4747 3.44727 23.2755L11.7266 20.5156L13.4844 22.2734Z" fill="#FFC24D"/>
<path d="M17 22.2734V32C19.2325 32 21.377 31.4492 23.2754 30.5528L23.8847 27.1074L20.5156 22.2734H17Z" fill="#FFC24D"/>
<path d="M20.5156 11.7266L23.8848 6.89258L23.2755 3.44721C21.377 2.55084 19.2325 2 17 2V11.7266H20.5156Z" fill="#FFC24D"/>
<path d="M30.5528 10.7246L22.2734 13.4844L20.5156 11.7266L23.2754 3.4472C26.4746 4.92383 29.0762 7.52539 30.5528 10.7246Z" fill="#FF9833"/>
<path d="M30.5528 23.2754C29.0762 26.4746 26.4747 29.0762 23.2755 30.5527L20.5156 22.2734L22.2734 20.5156L30.5528 23.2754Z" fill="#FF9833"/>
</svg>
