<svg width="34" height="34" viewBox="0 0 34 34" fill="none" xmlns="http://www.w3.org/2000/svg">
<path d="M14.5143 27.5469L6.45312 19.4857V14.5143L14.5143 6.45312H19.4857L27.5469 14.5143V19.4857L19.4857 27.5469H14.5143Z" fill="#787878"/>
<path d="M17 6.45312V27.5469H19.4857L27.5469 19.4857V14.5143L19.4857 6.45312H17Z" fill="#BFBFBF"/>
<path d="M15.2421 25.7891L15.9716 28.9238L13.2031 31.9472C13.0801 31.9121 12.957 31.8417 12.8691 31.7363L2.26367 21.1308C2.1582 21.0429 2.08783 20.9199 2.05273 20.7968L5.13471 18.0283L8.21088 18.7578L15.2421 25.7891Z" fill="#BFBFBF"/>
<path d="M31.9472 20.7968C31.9121 20.9199 31.8417 21.0429 31.7363 21.1308L21.1308 31.7363C21.0429 31.8417 20.9199 31.9121 20.7968 31.9472L18.0283 28.9238L18.7578 25.7891L25.7891 18.7578L28.8654 18.0284L31.9472 20.7968Z" fill="#8F8F8F"/>
<path d="M31.9472 13.2032L28.8652 15.9717L25.7891 15.2422L18.7578 8.21094L18.0283 5.13477L20.7968 2.0528C20.9199 2.08789 21.0429 2.15826 21.1308 2.26373L31.7363 12.8692C31.8417 12.957 31.9121 13.0801 31.9472 13.2032Z" fill="#8F8F8F"/>
<path d="M15.2421 8.21094L8.21088 15.2422L5.43916 16.0735L2.05273 13.2032C2.08783 13.0801 2.1582 12.9571 2.26367 12.8692L12.8691 2.26373C12.957 2.15826 13.0801 2.08789 13.2031 2.0528L16.0717 5.43418L15.2421 8.21094Z" fill="#BFBFBF"/>
<path d="M8.21094 15.2422V18.7578L2.05279 20.7968C2.01758 20.709 2 20.6035 2 20.5156V13.4844C2 13.3965 2.01758 13.291 2.05279 13.2032L8.21094 15.2422Z" fill="#8F8F8F"/>
<path d="M20.7968 2.05279L18.7578 8.21094H15.2421L13.2031 2.05279C13.291 2.01758 13.3964 2 13.4843 2H20.5156C20.6035 2 20.7089 2.01758 20.7968 2.05279Z" fill="#8F8F8F"/>
<path d="M32 13.4844V20.5156C32 20.6035 31.9824 20.709 31.9472 20.7968L25.7891 18.7578V15.2422L31.9472 13.2032C31.9824 13.291 32 13.3965 32 13.4844Z" fill="#696868"/>
<path d="M20.7968 31.9472C20.7089 31.9824 20.6035 32 20.5156 32H13.4843C13.3964 32 13.291 31.9824 13.2031 31.9472L15.2421 25.7891H18.7578L20.7968 31.9472Z" fill="#8F8F8F"/>
<path d="M17 25.7891V32H20.5156C20.6035 32 20.709 31.9824 20.7968 31.9472L18.7578 25.7891H17Z" fill="#696868"/>
<path d="M17 2V8.21094H18.7578L20.7968 2.05279C20.709 2.01758 20.6035 2 20.5156 2H17Z" fill="#696868"/>
</svg>
