<svg width="34" height="34" viewBox="0 0 34 34" fill="none" xmlns="http://www.w3.org/2000/svg">
<path d="M22.2736 11.7266L26.0024 13.0449L31.0492 11.7266C29.5331 7.67892 26.3209 4.46705 22.2736 2.95105L20.9556 8.56251L22.2736 11.7266Z" fill="#4895FF"/>
<path d="M31.0492 22.2728C31.6634 20.633 32 18.8566 32 17C32 15.1433 31.6634 13.367 31.0493 11.7272L26.668 14.0117L24.0312 17L25.5547 20.5156L31.0492 22.2728Z" fill="#4895FF"/>
<path d="M11.7268 22.2734L7.9835 21.2188L2.95117 22.2734C4.46728 26.3211 7.67951 29.533 11.7268 31.049L13.0158 26.2804L11.7268 22.2734Z" fill="#66CCFF"/>
<path d="M22.2728 31.049C20.6327 31.6637 18.8573 32 17.0005 32H16.9999C15.1437 32 13.3671 31.6637 11.7271 31.049L13.7187 26.2807L16.9999 24.0312L17.0005 24.0318L20.2226 26.2807L22.2728 31.049Z" fill="#66CCFF"/>
<path d="M22.2728 31.049C20.6327 31.6637 18.8573 32 17.0005 32V24.0319L20.2226 26.2807L22.2728 31.049Z" fill="#4895FF"/>
<path d="M22.2736 22.2736L22.2734 22.2734L21.3359 25.8477L22.2734 31.0491C26.3211 29.5329 29.5329 26.3207 31.049 22.2734L25.4961 21.5117L22.2734 22.2734L22.2736 22.2736Z" fill="#4895FF"/>
<path d="M9.96875 17L7.56641 13.0449L2.9508 11.7272C2.33662 13.3671 2 15.1435 2 17C2 18.8567 2.33662 20.6331 2.95074 22.2728L6.86328 20.6914L9.96875 17Z" fill="#66CCFF"/>
<path d="M22.2728 2.95098L20.6913 6.80469L17.0005 9.96816L16.9999 9.96875L13.3671 6.74609L11.7271 2.95098C13.3671 2.33633 15.1431 2 16.9999 2H17.0005C18.8567 2 20.6327 2.33633 22.2728 2.95098Z" fill="#66CCFF"/>
<path d="M22.2728 2.95098L20.6913 6.80469L17.0005 9.96816V2C18.8567 2 20.6327 2.33633 22.2728 2.95098Z" fill="#4895FF"/>
<path d="M11.7267 11.7266L13.0158 7.53712L11.7267 2.95093C7.67904 4.4671 4.46723 7.67933 2.95117 11.7266L9.32436 13.0449L11.7267 11.7266Z" fill="#66CCFF"/>
<path d="M17 17L13.4258 18.9043L11.7266 22.2734V31.049L11.7272 31.0492L17 24.0312L17.8789 20.8086L17 17Z" fill="#80EAFF"/>
<path d="M17 17L20.9554 15.0957L22.2734 11.7266V2.95104L22.2728 2.95081L17 9.96876L16.0625 12.7227L17 17Z" fill="#80EAFF"/>
<path d="M24.0312 17L20.9554 16.2969L17 17L19.168 20.4863L22.2734 22.2734H31.049L31.0492 22.2728L24.0312 17Z" fill="#80EAFF"/>
<path d="M16.9999 17L15.0077 12.6348L11.7264 11.7266H2.95092L2.95068 11.7272L9.96863 17L12.8104 17.8203L16.9999 17Z" fill="#80EAFF"/>
<path d="M22.2734 11.7266L17 17H24.0312L31.0493 11.7272L31.049 11.7266H22.2734Z" fill="#66CCFF"/>
<path d="M17 17V24.0312L22.2729 31.0493L22.2734 31.0491V22.2734L17 17Z" fill="#66CCFF"/>
<path d="M16.9999 17H9.96869L2.95068 22.2728L2.95092 22.2734H11.7265L16.9999 17Z" fill="#F0F7FF"/>
<path d="M17 17V9.96875L11.7271 2.95074L11.7266 2.95092V11.7266L17 17Z" fill="#F0F7FF"/>
</svg>
