<svg width="34" height="34" viewBox="0 0 34 34" fill="none" xmlns="http://www.w3.org/2000/svg">
<path d="M23.0469 5.97266L19.803 9.84271L17 9.91016L13.9238 9.66488L10.9531 5.97266C11.0234 5.84961 11.1114 5.74414 11.2343 5.65625L16.5078 2.14062C16.666 2.05279 16.8243 2 17 2C17.1757 2 17.334 2.05279 17.4922 2.14068L22.7657 5.65631C22.8886 5.74414 22.9766 5.84961 23.0469 5.97266Z" fill="#E3E5EB"/>
<path d="M19.803 9.84277L23.0469 5.97266C22.9766 5.84961 22.8886 5.74414 22.7657 5.65625L17.4922 2.14062C17.334 2.05279 17.1757 2 17 2V9.91016L19.803 9.84277Z" fill="#DBDFE8"/>
<path d="M23.0469 28.0273C22.9766 28.1504 22.8886 28.2559 22.7657 28.3438L17.4922 31.8594C17.334 31.9648 17.1583 32.0001 16.9824 32.0001C16.8067 32.0001 16.6484 31.9473 16.5078 31.8594L11.2343 28.3438C11.1114 28.2559 11.0234 28.1504 10.9531 28.0273L13.9238 24.3351L17 24.0898L20.0762 24.3351L23.0469 28.0273Z" fill="#DBDFE8"/>
<path d="M17.4922 31.8593L22.7657 28.3437C22.8886 28.2558 22.9766 28.1503 23.0469 28.0273L20.0762 24.3351L17 24.0898V31.998C17.1699 31.9956 17.3394 31.9613 17.4922 31.8593Z" fill="#BDC3D6"/>
<path d="M9.91016 17L9.66488 20.0762L5.97266 23.0469C5.84961 22.9766 5.74414 22.8886 5.65625 22.7657L2.14062 17.4922C2.05279 17.334 2 17.1757 2 17C2 16.8243 2.05279 16.666 2.14068 16.5078L5.65631 11.2343C5.7442 11.1114 5.84967 11.0234 5.97271 10.9531L9.66494 13.9238L9.91016 17Z" fill="#DBDFE8"/>
<path d="M17 9.91015L18.7578 13.2646L17 17L11.7266 15.2422L10.8477 10.8477V6.39453C10.8477 6.25385 10.8829 6.11334 10.9531 5.97266L17 9.91015Z" fill="#DBDFE8"/>
<path d="M32.0001 16.9648C32.0001 17.123 31.9473 17.2988 31.8594 17.457L28.3438 22.7657C28.2559 22.8886 28.1504 22.9766 28.0273 23.0469C27.9043 23.1171 27.7462 23.1523 27.6055 23.1523L24.0898 20.0762V17L24.3351 13.9238L28.0273 10.9531C28.1504 11.0234 28.2559 11.1114 28.3438 11.2343L31.8594 16.4727C31.9473 16.6133 32.0001 16.7891 32.0001 16.9648Z" fill="#CCD3DF"/>
<path d="M28.0273 10.9531L24.0898 17L20.0762 18.7578L17 17L18.3184 12.166L23.1523 10.8477H27.6055C27.7462 10.8477 27.8867 10.8829 28.0273 10.9531Z" fill="#DBDFE8"/>
<path d="M23.1523 23.1523V27.6055C23.1523 27.7462 23.1171 27.8867 23.0469 28.0273L17 24.0898L15.2422 20.9551L17 17L21.834 20.0762L23.1523 23.1523Z" fill="#DBDFE8"/>
<path d="M17 17L15.8618 21.6539L10.8477 23.1523H6.39453C6.25385 23.1523 6.11334 23.1171 5.97266 23.0469L9.91015 17L12.899 15.2422L17 17Z" fill="#CCD3DF"/>
<path d="M17 17H9.91015L5.97266 10.9531C6.11334 10.8829 6.25385 10.8477 6.39453 10.8477H10.8477L17 17Z" fill="#E3E5EB"/>
<path d="M27.6055 23.1523H23.1523L17 17H24.0898L27.6055 23.1523Z" fill="#BDC3D6"/>
<path d="M17 17V24.0898L10.9531 28.0273C10.8829 27.8867 10.8477 27.7462 10.8477 27.6055V23.1523L17 17Z" fill="#E3E5EB"/>
<path d="M23.1523 6.39453V10.8477L17 17V9.91015L23.0469 5.97266C23.1171 6.11334 23.1523 6.25385 23.1523 6.39453Z" fill="#BDC3D6"/>
</svg>
