<svg width="58" height="88" viewBox="0 0 58 88" fill="none" xmlns="http://www.w3.org/2000/svg">
<path d="M53.0914 88H4.90859C2.19948 88 0 85.8107 0 83.1141V4.88592C0 2.18932 2.19948 0 4.90859 0H53.0914C55.8005 0 58 2.18932 58 4.88592V83.1141C58.0089 85.8107 55.8094 88 53.0914 88Z" fill="white"/>
<path d="M7.58203 16.5445C7.58203 16.6869 7.52837 16.8916 7.52837 17.0339C7.52837 17.1763 7.52838 17.3276 7.54626 17.47C7.5999 17.9595 7.77872 18.4312 8.1453 18.7605C7.81449 18.7783 6.97403 18.7783 6.63428 18.7605C7.00086 18.4312 7.17969 17.9595 7.23333 17.47C7.25122 17.3276 7.25121 17.1852 7.25121 17.0339C7.25121 16.8916 7.19756 16.6869 7.19756 16.5445H7.58203Z" fill="#0C0A35"/>
<path d="M7.48379 16.9005C7.62684 16.9183 7.70731 17.0518 7.95766 17.3366C8.19012 17.5857 8.42258 17.8527 8.94116 17.915C9.20938 17.9506 9.55809 17.8082 9.71903 17.5946C9.85314 17.4167 9.9336 17.1942 9.98725 16.9717C10.0945 16.5623 10.0588 16.1529 9.85314 15.7791C9.64749 15.4053 9.10209 15.2451 8.77128 15.4409C8.59246 15.5477 8.52987 15.6812 8.36893 15.7079C8.31529 15.7168 8.27059 15.6723 8.28847 15.6189C8.35106 15.3697 8.52987 15.3341 8.61928 15.0404C8.71763 14.6845 8.77128 14.4086 8.26165 13.9636C7.87719 13.6254 6.92945 13.6521 6.51816 13.9636C6.09794 14.2751 6.06217 14.5688 6.16052 14.9158C6.24099 15.1917 6.40193 15.3252 6.47346 15.5566C6.50028 15.6367 6.41982 15.7168 6.33935 15.6812C6.22312 15.6367 6.15158 15.521 5.99959 15.432C5.65983 15.2362 5.11443 15.3964 4.91773 15.7702C4.71208 16.144 4.67633 16.5534 4.78362 16.9628C4.83726 17.1853 4.91773 17.3989 5.05185 17.5857C5.21279 17.7993 5.57042 17.9417 5.82971 17.9061C6.35722 17.8438 6.58075 17.5768 6.81322 17.3277C7.07251 17.0518 7.15297 16.9183 7.28709 16.8916H7.48379V16.9005Z" fill="#0C0A35"/>
<path d="M6.1959 11.4984V12.2549H3.12021V11.4984H4.24676V5.21525C3.52255 5.96282 2.77152 6.5502 1.99365 6.97739V5.94502C3.06657 5.38434 3.89806 4.71687 4.49711 3.9426H5.23921V11.4984H6.1959Z" fill="#0C0A35"/>
<path d="M9.74549 12.424C8.79775 12.424 8.04671 12.0146 7.48343 11.2047C6.92015 10.3949 6.63403 9.3803 6.63403 8.16995C6.63403 6.98629 6.90227 5.98063 7.43873 5.16186C7.97518 4.34309 8.73516 3.9337 9.70972 3.9337C10.729 3.9337 11.5069 4.36089 12.0433 5.21525C12.5708 6.06962 12.8391 7.06639 12.8391 8.21444C12.8391 9.3358 12.5708 10.3148 12.0254 11.1602C11.48 12.0057 10.7201 12.424 9.74549 12.424ZM9.75443 11.623C10.4429 11.623 10.9525 11.3115 11.2923 10.6886C11.6231 10.0656 11.793 9.28241 11.793 8.33904C11.793 7.30668 11.6231 6.45231 11.2833 5.76703C10.9436 5.08176 10.4161 4.74357 9.70972 4.74357C9.03021 4.74357 8.52058 5.05506 8.18083 5.67804C7.85001 6.30101 7.68014 7.11978 7.68014 8.14325C7.68014 9.20231 7.85895 10.0478 8.20765 10.6797C8.55635 11.3115 9.06598 11.623 9.75443 11.623Z" fill="#0C0A35"/>
<path d="M50.4183 71.4555C50.4183 71.3131 50.4719 71.1084 50.4719 70.966C50.4719 70.8237 50.4719 70.6724 50.454 70.53C50.4004 70.0405 50.2216 69.5688 49.855 69.2395C50.1858 69.2217 51.0262 69.2217 51.366 69.2395C50.9994 69.5688 50.8206 70.0405 50.767 70.53C50.7491 70.6724 50.7491 70.8148 50.7491 70.966C50.7491 71.1084 50.8027 71.3131 50.8027 71.4555H50.4183Z" fill="#0C0A35"/>
<path d="M50.5166 71.0995C50.3735 71.0817 50.2931 70.9482 50.0427 70.6634C49.8103 70.4142 49.5778 70.1472 49.0592 70.0849C48.791 70.0494 48.4423 70.1917 48.2814 70.4053C48.1472 70.5833 48.0668 70.8058 48.0131 71.0283C47.9058 71.4377 47.9416 71.8471 48.1472 72.2209C48.3529 72.5947 48.8983 72.7549 49.2291 72.5591C49.4079 72.4523 49.4705 72.3188 49.6314 72.2921C49.6851 72.2832 49.7298 72.3277 49.7119 72.3811C49.6493 72.6303 49.4705 72.6659 49.3811 72.9595C49.2827 73.3155 49.2291 73.5914 49.7387 74.0364C50.1232 74.3746 51.0709 74.3479 51.4822 74.0364C51.9024 73.7249 51.9382 73.4312 51.8398 73.0841C51.7594 72.8083 51.5984 72.6748 51.5269 72.4434C51.5001 72.3633 51.5806 72.2832 51.661 72.3188C51.7773 72.3633 51.8488 72.479 52.0008 72.568C52.3406 72.7727 52.8859 72.6036 53.0826 72.2298C53.2883 71.856 53.324 71.4466 53.2168 71.0372C53.1631 70.8147 53.0826 70.6011 52.9485 70.4142C52.7876 70.2006 52.4299 70.0583 52.1706 70.0939C51.6521 70.1561 51.4196 70.4231 51.1872 70.6723C50.9279 70.9482 50.8474 71.0817 50.7133 71.1084H50.5166V71.0995Z" fill="#0C0A35"/>
<path d="M51.8037 76.5018V75.7453H54.8794V76.5018H53.7528V82.7938C54.477 82.0463 55.2281 81.4589 56.0059 81.0317V82.0552C54.933 82.6158 54.1015 83.2833 53.5025 84.0576H52.7604V76.5018H51.8037Z" fill="#0C0A35"/>
<path d="M48.2542 75.5761C49.202 75.5761 49.953 75.9855 50.5163 76.7954C51.0796 77.6052 51.3657 78.6198 51.3657 79.8302C51.3657 81.0138 51.0974 82.0195 50.561 82.8383C50.0245 83.657 49.2645 84.0664 48.29 84.0664C47.2707 84.0664 46.4929 83.6392 45.9564 82.7848C45.4289 81.9305 45.1606 80.9337 45.1606 79.7857C45.1606 78.6643 45.4289 77.6853 45.9743 76.8399C46.5197 75.9944 47.2797 75.5761 48.2542 75.5761ZM48.2542 76.386C47.5658 76.386 47.0561 76.6975 46.7164 77.3204C46.3856 77.9434 46.2157 78.7266 46.2157 79.67C46.2157 80.7023 46.3856 81.5567 46.7253 82.242C47.0651 82.9272 47.5926 83.2654 48.2989 83.2654C48.9784 83.2654 49.4881 82.9539 49.8278 82.331C50.1586 81.708 50.3285 80.8892 50.3285 79.8658C50.3285 78.8067 50.1497 77.9612 49.801 77.3293C49.4434 76.6975 48.9337 76.386 48.2542 76.386Z" fill="#0C0A35"/>
<path d="M19.3033 12.3795C19.3033 12.7444 19.4552 13.2695 19.4463 13.6343C19.4463 14.0081 19.4463 14.373 19.4016 14.7379C19.2585 15.9928 18.8115 17.1853 17.8638 18.0308C18.7221 18.0842 20.8679 18.0842 21.7263 18.0308C20.7785 17.1853 20.3315 15.9928 20.1884 14.7379C20.1526 14.373 20.1437 13.9992 20.1437 13.6343C20.1437 13.2695 20.2868 12.7444 20.2868 12.3795H19.3033Z" fill="#0C0A35"/>
<path d="M19.5626 13.2872C19.205 13.3406 18.9994 13.6877 18.3377 14.3908C17.7476 15.0316 17.1575 15.7079 15.8253 15.877C15.1458 15.9571 14.2428 15.5922 13.8315 15.0494C13.4828 14.5866 13.2861 14.0259 13.143 13.4652C12.8659 12.4151 12.9642 11.3738 13.4917 10.4215C14.0103 9.46926 15.4051 9.05098 16.2634 9.56716C16.7194 9.84305 16.8714 10.1723 17.3006 10.2524C17.4347 10.2791 17.542 10.1545 17.5062 10.0299C17.3363 9.38917 16.8803 9.30907 16.6658 8.5437C16.4154 7.63593 16.2724 6.93286 17.5688 5.8026C18.5613 4.93043 20.9753 5.01943 22.0214 5.8026C23.0854 6.60357 23.1927 7.34224 22.9334 8.25001C22.7367 8.96198 22.3254 9.29127 22.1287 9.89645C22.0661 10.1011 22.2628 10.2969 22.4595 10.2168C22.7635 10.0922 22.9334 9.81635 23.3268 9.57606C24.1851 9.05988 25.5799 9.47816 26.0985 10.4304C26.617 11.3827 26.7243 12.424 26.4472 13.4741C26.3041 14.0348 26.1074 14.5955 25.7587 15.0583C25.3474 15.6011 24.4444 15.966 23.7649 15.8859C22.4327 15.7257 21.8426 15.0405 21.2525 14.3997C20.5998 13.6966 20.3941 13.3495 20.0276 13.2961H19.5626V13.2872Z" fill="#0C0A35"/>
<path d="M37.7036 12.3795C37.7036 12.7444 37.8467 13.2695 37.8467 13.6343C37.8467 14.0081 37.8467 14.373 37.802 14.7379C37.6679 15.9928 37.2119 17.1853 36.2642 18.0308C37.1225 18.0842 39.2683 18.0842 40.1266 18.0308C39.1789 17.1853 38.7319 15.9928 38.5888 14.7379C38.5441 14.373 38.5441 13.9992 38.5441 13.6343C38.5441 13.2695 38.6961 12.7444 38.6872 12.3795H37.7036Z" fill="#0C0A35"/>
<path d="M37.963 13.2872C37.6054 13.3406 37.3998 13.6877 36.7381 14.3908C36.148 15.0316 35.5579 15.7079 34.2257 15.877C33.5462 15.9571 32.6432 15.5922 32.2319 15.0494C31.8832 14.5866 31.6865 14.0259 31.5434 13.4652C31.2662 12.4151 31.3646 11.3738 31.8921 10.4215C32.4107 9.46926 33.8055 9.05098 34.6638 9.56716C35.1287 9.84305 35.2718 10.1723 35.701 10.2524C35.8261 10.2791 35.9424 10.1545 35.9066 10.0299C35.7367 9.38917 35.2807 9.30907 35.0662 8.5437C34.8158 7.63593 34.6727 6.93286 35.9692 5.8026C36.9616 4.93043 39.3757 5.01943 40.4218 5.8026C41.4858 6.60357 41.593 7.34224 41.3338 8.25001C41.1371 8.96198 40.7258 9.29127 40.5291 9.89645C40.4665 10.1011 40.6632 10.2969 40.8599 10.2168C41.1639 10.0922 41.3338 9.81635 41.7272 9.57606C42.5855 9.05988 43.9803 9.47816 44.4989 10.4304C45.0174 11.3827 45.1247 12.424 44.8476 13.4741C44.7045 14.0348 44.5078 14.5955 44.1591 15.0583C43.7478 15.6011 42.8448 15.966 42.1653 15.8859C40.8331 15.7257 40.243 15.0405 39.6529 14.3997C39.0002 13.6966 38.7945 13.3495 38.4279 13.2961H37.963V13.2872Z" fill="#0C0A35"/>
<path d="M38.7052 75.6294C38.7052 75.2645 38.5532 74.7395 38.5622 74.3746C38.5622 74.0008 38.5622 73.6359 38.6069 73.271C38.7499 72.0162 39.197 70.8236 40.1447 69.9781C39.2864 69.9247 37.1406 69.9247 36.2822 69.9781C37.23 70.8236 37.677 72.0162 37.8201 73.271C37.8558 73.6359 37.8648 74.0097 37.8648 74.3746C37.8648 74.7395 37.7217 75.2645 37.7217 75.6294H38.7052Z" fill="#0C0A35"/>
<path d="M38.437 74.7127C38.7946 74.6593 39.0002 74.3122 39.6619 73.6092C40.252 72.9684 40.8421 72.292 42.1743 72.1318C42.8538 72.0517 43.7568 72.4166 44.1681 72.9595C44.5168 73.4223 44.7135 73.983 44.8566 74.5436C45.1337 75.5938 45.0354 76.6351 44.5079 77.5873C43.9893 78.5396 42.5945 78.9579 41.7362 78.4417C41.2802 78.1658 41.1282 77.8365 40.699 77.7564C40.5649 77.7297 40.4576 77.8543 40.4934 77.9789C40.6633 78.6197 41.1192 78.6998 41.3338 79.4652C41.5842 80.3729 41.7273 81.076 40.4308 82.2063C39.4384 83.0784 37.0243 82.9894 35.9782 82.2063C34.9142 81.4053 34.8069 80.6666 35.0662 79.7588C35.2629 79.0469 35.6742 78.7176 35.8709 78.1124C35.9335 77.9077 35.7368 77.7119 35.5401 77.792C35.2361 77.9166 35.0662 78.1925 34.6728 78.4328C33.8145 78.949 32.4197 78.5307 31.9011 77.5784C31.3826 76.6262 31.2753 75.5849 31.5524 74.5347C31.6955 73.9741 31.8922 73.4134 32.2409 72.9506C32.6522 72.4077 33.5552 72.0428 34.2347 72.1229C35.5669 72.2831 36.157 72.9684 36.7471 73.6003C37.3998 74.3033 37.6055 74.6504 37.9721 74.7038H38.437V74.7127Z" fill="#0C0A35"/>
<path d="M20.296 75.6294C20.296 75.2645 20.1441 74.7395 20.153 74.3746C20.153 74.0008 20.153 73.6359 20.1977 73.271C20.3408 72.0162 20.7878 70.8236 21.7355 69.9781C20.8772 69.9247 18.7314 69.9247 17.873 69.9781C18.8208 70.8236 19.2678 72.0162 19.4109 73.271C19.4556 73.6359 19.4556 74.0097 19.4556 74.3746C19.4556 74.7395 19.3125 75.2645 19.3125 75.6294H20.296Z" fill="#0C0A35"/>
<path d="M20.0366 74.7127C20.3942 74.6593 20.5999 74.3122 21.2615 73.6092C21.8516 72.9684 22.4417 72.292 23.7739 72.1318C24.4534 72.0517 25.3565 72.4166 25.7677 72.9595C26.1164 73.4223 26.3131 73.983 26.4562 74.5436C26.7334 75.5938 26.635 76.6351 26.1075 77.5873C25.5889 78.5396 24.1941 78.9579 23.3358 78.4417C22.8798 78.1658 22.7278 77.8365 22.2986 77.7564C22.1645 77.7297 22.0572 77.8543 22.093 77.9789C22.2629 78.6197 22.7189 78.6998 22.9335 79.4652C23.1838 80.3729 23.3268 81.076 22.0304 82.2063C21.038 83.0784 18.6239 82.9894 17.5778 82.2063C16.5138 81.4053 16.4066 80.6666 16.6658 79.7588C16.8625 79.0469 17.2738 78.7176 17.4705 78.1124C17.5331 77.9077 17.3364 77.7119 17.1397 77.792C16.8357 77.9166 16.6658 78.1925 16.2724 78.4328C15.4141 78.949 14.0193 78.5307 13.5007 77.5784C12.9822 76.6262 12.8749 75.5849 13.152 74.5347C13.2951 73.9741 13.4918 73.4134 13.8405 72.9506C14.2518 72.4077 15.1548 72.0428 15.8343 72.1229C17.1665 72.2831 17.7566 72.9684 18.3467 73.6003C18.9994 74.3033 19.2051 74.6504 19.5716 74.7038H20.0366V74.7127Z" fill="#0C0A35"/>
<path d="M19.3033 37.5744C19.3033 37.9393 19.4552 38.4644 19.4463 38.8293C19.4463 39.1941 19.4463 39.5679 19.4016 39.9328C19.2585 41.1877 18.8115 42.3802 17.8638 43.2257C18.7221 43.2791 20.8679 43.2791 21.7263 43.2257C20.7785 42.3802 20.3315 41.1877 20.1884 39.9328C20.1526 39.5679 20.1437 39.1941 20.1437 38.8293C20.1437 38.4644 20.2868 37.9393 20.2868 37.5744H19.3033Z" fill="#0C0A35"/>
<path d="M19.5626 38.4911C19.205 38.5445 18.9994 38.8916 18.3377 39.5946C17.7476 40.2354 17.1575 40.9118 15.8253 41.0809C15.1458 41.161 14.2428 40.7961 13.8315 40.2532C13.4828 39.7904 13.2861 39.2298 13.143 38.6691C12.8659 37.6189 12.9642 36.5777 13.4917 35.6254C14.0103 34.6731 15.4051 34.2548 16.2634 34.771C16.7194 35.0469 16.8714 35.3762 17.3006 35.4563C17.4347 35.483 17.542 35.3584 17.5062 35.2338C17.3363 34.593 16.8803 34.5129 16.6658 33.7476C16.4154 32.8398 16.2724 32.1367 17.5688 31.0065C18.5613 30.1343 20.9753 30.2233 22.0214 31.0065C23.0854 31.8074 23.1927 32.5461 22.9334 33.4539C22.7367 34.1658 22.3254 34.4951 22.1287 35.1003C22.0661 35.305 22.2628 35.5008 22.4595 35.4207C22.7635 35.2961 22.9334 35.0202 23.3268 34.7799C24.1851 34.2637 25.5799 34.682 26.0985 35.6343C26.617 36.5866 26.7243 37.6278 26.4472 38.678C26.3041 39.2387 26.1074 39.7993 25.7587 40.2621C25.3474 40.805 24.4444 41.1699 23.7649 41.0898C22.4327 40.9296 21.8426 40.2443 21.2525 39.6035C20.5998 38.9005 20.3941 38.5534 20.0276 38.5H19.5626V38.4911Z" fill="#0C0A35"/>
<path d="M37.7036 37.5744C37.7036 37.9393 37.8467 38.4644 37.8467 38.8293C37.8467 39.1941 37.8467 39.5679 37.802 39.9328C37.6679 41.1877 37.2119 42.3802 36.2642 43.2257C37.1225 43.2791 39.2683 43.2791 40.1266 43.2257C39.1789 42.3802 38.7319 41.1877 38.5888 39.9328C38.5441 39.5679 38.5441 39.1941 38.5441 38.8293C38.5441 38.4644 38.6961 37.9393 38.6872 37.5744H37.7036Z" fill="#0C0A35"/>
<path d="M37.963 38.4911C37.6054 38.5445 37.3998 38.8916 36.7381 39.5946C36.148 40.2354 35.5579 40.9118 34.2257 41.0809C33.5462 41.161 32.6432 40.7961 32.2319 40.2532C31.8832 39.7904 31.6865 39.2298 31.5434 38.6691C31.2662 37.6189 31.3646 36.5777 31.8921 35.6254C32.4107 34.6731 33.8055 34.2548 34.6638 34.771C35.1287 35.0469 35.2718 35.3762 35.701 35.4563C35.8261 35.483 35.9424 35.3584 35.9066 35.2338C35.7367 34.593 35.2807 34.5129 35.0662 33.7476C34.8158 32.8398 34.6727 32.1367 35.9692 31.0065C36.9616 30.1343 39.3757 30.2233 40.4218 31.0065C41.4858 31.8074 41.593 32.5461 41.3338 33.4539C41.1371 34.1658 40.7258 34.4951 40.5291 35.1003C40.4665 35.305 40.6632 35.5008 40.8599 35.4207C41.1639 35.2961 41.3338 35.0202 41.7272 34.7799C42.5855 34.2637 43.9803 34.682 44.4989 35.6343C45.0174 36.5866 45.1247 37.6278 44.8476 38.678C44.7045 39.2387 44.5078 39.7993 44.1591 40.2621C43.7478 40.805 42.8448 41.1699 42.1653 41.0898C40.8331 40.9296 40.243 40.2443 39.6529 39.6035C39.0002 38.9005 38.7945 38.5534 38.4279 38.5H37.963V38.4911Z" fill="#0C0A35"/>
<path d="M38.7052 51.1198C38.7052 50.7549 38.5532 50.2298 38.5622 49.8649C38.5622 49.4911 38.5622 49.1263 38.6069 48.7614C38.7499 47.5065 39.197 46.314 40.1447 45.4685C39.2864 45.4151 37.1406 45.4151 36.2822 45.4685C37.23 46.314 37.677 47.5065 37.8201 48.7614C37.8558 49.1263 37.8648 49.5 37.8648 49.8649C37.8648 50.2298 37.7217 50.7549 37.7217 51.1198H38.7052Z" fill="#0C0A35"/>
<path d="M38.437 50.212C38.7946 50.1586 39.0002 49.8115 39.6619 49.1084C40.252 48.4676 40.8421 47.7913 42.1743 47.6222C42.8538 47.5421 43.7568 47.907 44.1681 48.4498C44.5168 48.9126 44.7135 49.4733 44.8566 50.034C45.1337 51.0842 45.0354 52.1254 44.5079 53.0777C43.9893 54.0299 42.5945 54.4482 41.7362 53.932C41.2802 53.6562 41.1282 53.3269 40.699 53.2468C40.5649 53.2201 40.4576 53.3447 40.4934 53.4693C40.6633 54.11 41.1192 54.1901 41.3338 54.9555C41.5842 55.8633 41.7273 56.5664 40.4308 57.6966C39.4384 58.5688 37.0243 58.4798 35.9782 57.6966C34.9142 56.8956 34.8069 56.157 35.0662 55.2492C35.2629 54.5372 35.6742 54.2079 35.8709 53.6028C35.9335 53.3981 35.7368 53.2023 35.5401 53.2824C35.2361 53.407 35.0662 53.6829 34.6728 53.9232C33.8145 54.4393 32.4197 54.021 31.9011 53.0688C31.3826 52.1165 31.2753 51.0753 31.5524 50.0251C31.6955 49.4644 31.8922 48.9037 32.2409 48.441C32.6522 47.8981 33.5552 47.5332 34.2347 47.6133C35.5669 47.7735 36.157 48.4587 36.7471 49.0995C37.3998 49.8026 37.6055 50.1497 37.9721 50.2031H38.437V50.212Z" fill="#0C0A35"/>
<path d="M20.296 51.1198C20.296 50.7549 20.1441 50.2298 20.153 49.8649C20.153 49.4911 20.153 49.1263 20.1977 48.7614C20.3408 47.5065 20.7878 46.314 21.7355 45.4685C20.8772 45.4151 18.7314 45.4151 17.873 45.4685C18.8208 46.314 19.2678 47.5065 19.4109 48.7614C19.4556 49.1263 19.4556 49.5 19.4556 49.8649C19.4556 50.2298 19.3125 50.7549 19.3125 51.1198H20.296Z" fill="#0C0A35"/>
<path d="M20.0366 50.212C20.3942 50.1586 20.5999 49.8115 21.2615 49.1084C21.8516 48.4676 22.4417 47.7913 23.7739 47.6222C24.4534 47.5421 25.3565 47.907 25.7677 48.4498C26.1164 48.9126 26.3131 49.4733 26.4562 50.034C26.7334 51.0842 26.635 52.1254 26.1075 53.0777C25.5889 54.0299 24.1941 54.4482 23.3358 53.932C22.8798 53.6562 22.7278 53.3269 22.2986 53.2468C22.1645 53.2201 22.0572 53.3447 22.093 53.4693C22.2629 54.11 22.7189 54.1901 22.9335 54.9555C23.1838 55.8633 23.3268 56.5664 22.0304 57.6966C21.038 58.5688 18.6239 58.4798 17.5778 57.6966C16.5138 56.8956 16.4066 56.157 16.6658 55.2492C16.8625 54.5372 17.2738 54.2079 17.4705 53.6028C17.5331 53.3981 17.3364 53.2023 17.1397 53.2824C16.8357 53.407 16.6658 53.6829 16.2724 53.9232C15.4141 54.4393 14.0193 54.021 13.5007 53.0688C12.9822 52.1165 12.8749 51.0753 13.152 50.0251C13.2951 49.4644 13.4918 48.9037 13.8405 48.441C14.2518 47.8981 15.1548 47.5332 15.8343 47.6133C17.1665 47.7735 17.7566 48.4587 18.3467 49.0995C18.9994 49.8026 19.2051 50.1497 19.5716 50.2031H20.0366V50.212Z" fill="#0C0A35"/>
<path d="M28.9331 24.9547C28.9331 25.3196 29.0762 25.8446 29.0762 26.2095C29.0762 26.5833 29.0762 26.9482 29.0315 27.3131C28.8974 28.5679 28.4414 29.7605 27.4937 30.606C28.352 30.6594 30.4978 30.6594 31.3562 30.606C30.4084 29.7605 29.9614 28.5679 29.8183 27.3131C29.7736 26.9482 29.7736 26.5744 29.7736 26.2095C29.7736 25.8446 29.9167 25.3196 29.9167 24.9547H28.9331Z" fill="#0C0A35"/>
<path d="M29.1924 25.8714C28.8347 25.9248 28.6291 26.2719 27.9764 26.975C27.3863 27.6157 26.7962 28.2921 25.464 28.4612C24.7845 28.5413 23.8814 28.1764 23.4701 27.6335C23.1214 27.1707 22.9248 26.6101 22.7817 26.0494C22.5045 24.9992 22.6029 23.958 23.1304 23.0057C23.649 22.0534 25.0437 21.6351 25.9021 22.1513C26.367 22.4272 26.519 22.7565 26.9392 22.8366C27.0733 22.8633 27.1806 22.7387 27.1449 22.6141C26.975 21.9733 26.519 21.8932 26.3044 21.1279C26.0541 20.2201 25.911 19.517 27.2075 18.3868C28.1999 17.5146 30.614 17.6036 31.6601 18.3868C32.724 19.1877 32.8313 19.9264 32.572 20.8342C32.3753 21.5461 31.964 21.8754 31.7673 22.4806C31.7048 22.6853 31.9015 22.8811 32.0982 22.801C32.4022 22.6764 32.572 22.4005 32.9654 22.1602C33.8238 21.644 35.2186 22.0623 35.7371 23.0146C36.2557 23.9669 36.363 25.0081 36.0858 26.0583C35.9338 26.619 35.7461 27.1796 35.3974 27.6424C34.9861 28.1853 34.0831 28.5502 33.4035 28.4701C32.0713 28.3099 31.4812 27.6246 30.8911 26.9839C30.2384 26.2808 30.0328 25.9337 29.6752 25.8803H29.1924V25.8714Z" fill="#0C0A35"/>
<path d="M29.067 63.0453C29.067 62.6804 28.924 62.1553 28.924 61.7904C28.924 61.4166 28.924 61.0517 28.9687 60.6868C29.1028 59.432 29.5588 58.2394 30.5065 57.394C29.6482 57.3406 27.5024 57.3406 26.644 57.394C27.5918 58.2394 28.0388 59.432 28.1819 60.6868C28.2266 61.0517 28.2266 61.4255 28.2266 61.7904C28.2266 62.1553 28.0746 62.6804 28.0835 63.0453H29.067Z" fill="#0C0A35"/>
<path d="M28.8076 62.1375C29.1652 62.0841 29.3709 61.737 30.0325 61.034C30.6226 60.3932 31.2127 59.7168 32.5449 59.5566C33.2244 59.4765 34.1274 59.8414 34.5387 60.3843C34.8874 60.8471 35.0841 61.4078 35.2272 61.9684C35.5044 63.0186 35.406 64.0599 34.8785 65.0121C34.3599 65.9644 32.9651 66.3827 32.1068 65.8665C31.6419 65.5906 31.4899 65.2613 31.0696 65.1812C30.9355 65.1545 30.8282 65.2791 30.864 65.4037C31.0339 66.0445 31.4899 66.1246 31.7045 66.89C31.9548 67.7977 32.0978 68.5008 30.8014 69.6311C29.809 70.5032 27.3949 70.4142 26.3488 69.6311C25.2848 68.8301 25.1775 68.0914 25.4368 67.1836C25.6335 66.4717 26.0448 66.1424 26.2415 65.5372C26.3041 65.3325 26.1074 65.1367 25.9107 65.2168C25.6067 65.3414 25.4368 65.6173 25.0434 65.8576C24.1851 66.3738 22.7903 65.9555 22.2717 65.0032C21.7532 64.051 21.6459 63.0097 21.923 61.9595C22.075 61.3989 22.2628 60.8382 22.6115 60.3754C23.0228 59.8325 23.9258 59.4676 24.6053 59.5477C25.9375 59.7079 26.5276 60.3932 27.1177 61.0251C27.7704 61.7281 27.9761 62.0752 28.3337 62.1286H28.8076V62.1375Z" fill="#0C0A35"/>
</svg>
