<svg width="58" height="88" viewBox="0 0 58 88" fill="none" xmlns="http://www.w3.org/2000/svg">
<path d="M53.0899 88H4.91011C2.20016 88 0 85.8096 0 83.1116V4.88839C0 2.19043 2.20016 0 4.91011 0H53.0899C55.7999 0 58 2.19043 58 4.88839V83.1116C58 85.8185 55.7999 88 53.0899 88Z" fill="white"/>
<path d="M7.40547 17.8796C7.47702 17.8796 7.53963 17.8618 7.59329 17.8262C8.02259 17.5412 9.12267 16.3837 9.4357 16.0631C9.4983 16.0008 9.5609 15.9296 9.55196 15.8405C9.54301 15.7693 9.48935 15.7159 9.44464 15.6713C8.96167 15.1994 8.46083 14.7453 8.0047 14.2467C7.80793 14.033 7.58434 13.7837 7.4323 13.7747H7.36075C7.21765 13.7837 6.98511 14.033 6.78835 14.2467C6.34116 14.7453 5.83137 15.1994 5.34841 15.6713C5.30369 15.7159 5.25003 15.7782 5.24109 15.8405C5.23215 15.9296 5.29476 16.0008 5.35736 16.0631C5.67934 16.3837 6.77941 17.5412 7.19977 17.8262C7.26237 17.8618 7.33392 17.8796 7.40547 17.8796Z" fill="#D6002B"/>
<path d="M50.6304 73.9047C50.7019 73.9047 50.7645 73.8869 50.8182 73.8513C51.2475 73.5663 52.3476 72.4177 52.6695 72.0882C52.7321 72.0259 52.7947 71.9547 52.7858 71.8656C52.7769 71.7944 52.7232 71.741 52.6785 71.6965C52.1955 71.2245 51.6947 70.7704 51.2475 70.2718C51.0507 70.0581 50.8182 69.8088 50.6751 69.7999H50.6035C50.4604 69.8088 50.2279 70.0581 50.0311 70.2718C49.5839 70.7704 49.0742 71.2245 48.6001 71.6965C48.5465 71.7499 48.5017 71.8033 48.4928 71.8656C48.4839 71.9547 48.5465 72.0259 48.6091 72.0882C48.931 72.4088 50.0311 73.5663 50.4515 73.8513C50.4962 73.8869 50.5678 73.9047 50.6304 73.9047Z" fill="#D6002B"/>
<path d="M6.20681 11.5043V12.2611H3.13911V11.5043H4.26603V5.209C3.54159 5.95696 2.79031 6.54463 2.01221 6.97203V5.94805C3.08545 5.38709 3.91721 4.71927 4.5075 3.94461H5.24089V11.4954H6.20681V11.5043Z" fill="#D6002B"/>
<path d="M9.74864 12.4303C8.80955 12.4303 8.04934 12.0207 7.48588 11.2105C6.92243 10.4002 6.63623 9.3851 6.63623 8.18304C6.63623 6.99878 6.90454 5.99261 7.44116 5.18233C7.97778 4.36314 8.73801 3.95355 9.71287 3.95355C10.7325 3.95355 11.5106 4.38095 12.0382 5.23575C12.5659 6.09056 12.8342 7.08782 12.8342 8.23646C12.8342 9.35839 12.5659 10.3378 12.0204 11.1837C11.4837 12.0029 10.7235 12.4303 9.74864 12.4303ZM9.75759 11.6201C10.4463 11.6201 10.9561 11.3084 11.2959 10.6851C11.6268 10.0618 11.7968 9.27825 11.7968 8.33441C11.7968 7.30152 11.6268 6.44672 11.287 5.7611C10.9471 5.07548 10.4284 4.73712 9.71287 4.73712C9.03315 4.73712 8.52335 5.04877 8.18349 5.67206C7.85257 6.29535 7.68264 7.11454 7.68264 8.13852C7.68264 9.19811 7.86151 10.044 8.21032 10.6673C8.56807 11.3084 9.07787 11.6201 9.75759 11.6201Z" fill="#D6002B"/>
<path d="M51.8022 76.5048V75.748H54.8699V76.5048H53.743V82.7912C54.4675 82.0432 55.2187 81.4555 55.9969 81.0281V82.0521C54.9236 82.6131 54.0918 83.2809 53.5015 84.0556H52.7682V76.5048H51.8022Z" fill="#D6002B"/>
<path d="M48.2604 75.5787C49.1995 75.5787 49.9597 75.9883 50.5232 76.7985C51.0866 77.6177 51.3728 78.6239 51.3728 79.826C51.3728 81.0102 51.1045 82.0164 50.5679 82.8267C50.0312 83.6459 49.271 84.0465 48.2962 84.0465C47.2766 84.0465 46.4985 83.6191 45.9708 82.7733C45.4431 81.9185 45.1748 80.9212 45.1748 79.7725C45.1748 78.6506 45.4431 77.6712 45.9887 76.8253C46.5253 75.9972 47.2855 75.5787 48.2604 75.5787ZM48.2514 76.3801C47.5628 76.3801 47.053 76.6917 46.7131 77.315C46.3822 77.9383 46.2123 78.7219 46.2123 79.6657C46.2123 80.6986 46.3822 81.5534 46.7221 82.239C47.0619 82.9246 47.5807 83.263 48.2962 83.263C48.9759 83.263 49.4857 82.9513 49.8255 82.328C50.1565 81.7048 50.3264 80.8856 50.3264 79.8616C50.3264 78.802 50.1475 77.9561 49.7987 77.3328C49.441 76.7006 48.9312 76.3801 48.2514 76.3801Z" fill="#D6002B"/>
<path d="M19.9445 18.5831C20.1681 18.5831 20.3827 18.5207 20.5705 18.3961C21.9747 17.47 25.5969 13.668 26.6523 12.5994C26.849 12.3947 27.0547 12.1453 27.019 11.8693C26.9921 11.6467 26.8222 11.4597 26.6612 11.2994C25.0871 9.7323 23.4236 8.25421 21.9389 6.60694C21.3039 5.8946 20.5437 5.07542 20.0697 5.04871H19.8282C19.3542 5.08432 18.594 5.8946 17.959 6.60694C16.4743 8.26311 14.8108 9.74121 13.2367 11.2994C13.0757 11.4597 12.9058 11.6378 12.8789 11.8693C12.8521 12.1453 13.0489 12.3947 13.2456 12.5994C14.301 13.668 17.9232 17.47 19.3274 18.3961C19.5062 18.5207 19.7209 18.5831 19.9445 18.5831Z" fill="#D6002B"/>
<path d="M38.0645 18.5831C38.2881 18.5831 38.5027 18.5207 38.6905 18.3961C40.0947 17.47 43.7169 13.668 44.7723 12.5994C44.9691 12.3947 45.1747 12.1453 45.139 11.8693C45.1121 11.6467 44.9422 11.4597 44.7812 11.2994C43.2071 9.7323 41.5436 8.25421 40.0589 6.60694C39.415 5.8946 38.6637 5.07542 38.1897 5.04871H37.9482C37.4742 5.08432 36.714 5.8946 36.079 6.60694C34.5943 8.26311 32.9308 9.74121 31.3567 11.2994C31.1957 11.4597 31.0258 11.6378 30.999 11.8693C30.9632 12.1453 31.1689 12.3947 31.3656 12.5994C32.421 13.668 36.0432 17.47 37.4474 18.3961C37.6173 18.5207 37.8409 18.5831 38.0645 18.5831Z" fill="#D6002B"/>
<path d="M19.9445 42.3661C20.1681 42.3661 20.3827 42.3037 20.5705 42.1791C21.9747 41.2531 25.5969 37.451 26.6523 36.3825C26.849 36.1777 27.0547 35.9284 27.019 35.6523C26.9921 35.4297 26.8222 35.2516 26.6612 35.0825C25.0871 33.5153 23.4236 32.0372 21.9389 30.39C21.3039 29.6776 20.5437 28.8584 20.0697 28.8317H19.8282C19.3542 28.8673 18.594 29.6776 17.959 30.39C16.4743 32.0461 14.8108 33.5242 13.2367 35.0825C13.0757 35.2427 12.9058 35.4208 12.8789 35.6523C12.8521 35.9373 13.0489 36.1777 13.2456 36.3825C14.301 37.451 17.9232 41.2531 19.3274 42.1791C19.5062 42.3127 19.7209 42.3661 19.9445 42.3661Z" fill="#D6002B"/>
<path d="M38.0645 42.3661C38.2881 42.3661 38.5027 42.3037 38.6905 42.1791C40.0947 41.2531 43.7169 37.451 44.7723 36.3825C44.9691 36.1777 45.1747 35.9284 45.139 35.6523C45.1121 35.4297 44.9422 35.2516 44.7812 35.0825C43.2071 33.5153 41.5436 32.0372 40.0589 30.39C39.415 29.6776 38.6637 28.8584 38.1897 28.8317H37.9482C37.4742 28.8673 36.714 29.6776 36.079 30.39C34.5943 32.0461 32.9308 33.5242 31.3567 35.0825C31.1957 35.2427 31.0258 35.4208 30.999 35.6523C30.9632 35.9373 31.1689 36.1777 31.3656 36.3825C32.421 37.451 36.0432 41.2531 37.4474 42.1791C37.6173 42.3127 37.8409 42.3661 38.0645 42.3661Z" fill="#D6002B"/>
<path d="M29.0045 30.7016C29.2281 30.7016 29.4428 30.6393 29.6306 30.5147C31.0348 29.5886 34.657 25.7865 35.7123 24.718C35.9091 24.5132 36.1148 24.2728 36.079 23.9879C36.0522 23.7653 35.8822 23.5783 35.7212 23.418C34.1472 21.8509 32.4836 20.3728 30.999 18.7255C30.355 18.0132 29.6037 17.194 29.1297 17.1673H28.8883C28.4142 17.2029 27.654 18.0132 27.019 18.7255C25.5344 20.3817 23.8708 21.8598 22.2967 23.418C22.1357 23.5783 21.9658 23.7564 21.939 23.9879C21.9122 24.2728 22.1089 24.5132 22.3146 24.718C23.37 25.7865 26.9922 29.5886 28.3964 30.5147C28.5663 30.6393 28.7809 30.7016 29.0045 30.7016Z" fill="#D6002B"/>
<path d="M38.0644 69.4169C37.8408 69.4169 37.6262 69.4793 37.4383 69.6039C36.0342 70.53 32.412 74.332 31.3566 75.4005C31.1599 75.6053 30.9541 75.8547 30.9899 76.1307C31.0168 76.3533 31.1867 76.5403 31.3477 76.7005C32.9218 78.2677 34.5853 79.7458 36.07 81.3931C36.705 82.1054 37.4652 82.9246 37.9392 82.9513H38.1807C38.6547 82.9157 39.4149 82.1054 40.0499 81.3931C41.5346 79.7458 43.1981 78.2588 44.7722 76.7005C44.9332 76.5403 45.1031 76.3622 45.13 76.1307C45.1568 75.8457 44.96 75.6053 44.7633 75.4005C43.7079 74.332 40.0857 70.53 38.6815 69.6039C38.5026 69.4793 38.288 69.4169 38.0644 69.4169Z" fill="#D6002B"/>
<path d="M19.9443 69.4169C19.7207 69.4169 19.5061 69.4793 19.3182 69.6039C17.9141 70.53 14.2919 74.332 13.2365 75.4005C13.0397 75.6053 12.834 75.8547 12.8698 76.1307C12.8966 76.3533 13.0666 76.5403 13.2275 76.7005C14.8016 78.2677 16.4652 79.7458 17.9498 81.3931C18.5938 82.1054 19.3451 82.9246 19.8191 82.9513H20.0605C20.5346 82.9157 21.2948 82.1054 21.9298 81.3931C23.4145 79.7458 25.078 78.2588 26.6521 76.7005C26.8131 76.5403 26.983 76.3622 27.0098 76.1307C27.0456 75.8457 26.8399 75.6053 26.6431 75.4005C25.5878 74.332 21.9656 70.53 20.5614 69.6039C20.3915 69.4793 20.1679 69.4169 19.9443 69.4169Z" fill="#D6002B"/>
<path d="M38.0644 45.6339C37.8408 45.6339 37.6262 45.6962 37.4383 45.8209C36.0342 46.7469 32.412 50.5579 31.3566 51.6175C31.1599 51.8223 30.9541 52.0716 30.9899 52.3477C31.0168 52.5703 31.1867 52.7573 31.3477 52.9175C32.9218 54.4847 34.5853 55.9628 36.07 57.61C36.705 58.3224 37.4652 59.1415 37.9392 59.1683H38.1807C38.6547 59.1415 39.4149 58.3224 40.0499 57.61C41.5346 55.9628 43.1981 54.4758 44.7722 52.9175C44.9332 52.7573 45.1031 52.5792 45.13 52.3477C45.1568 52.0627 44.96 51.8223 44.7633 51.6175C43.7079 50.549 40.0857 46.7469 38.6815 45.8209C38.5026 45.6962 38.288 45.6339 38.0644 45.6339Z" fill="#D6002B"/>
<path d="M19.9443 45.6339C19.7207 45.6339 19.5061 45.6962 19.3182 45.8209C17.9141 46.7469 14.2919 50.5579 13.2365 51.6175C13.0397 51.8223 12.834 52.0716 12.8698 52.3477C12.8966 52.5703 13.0666 52.7573 13.2275 52.9175C14.8016 54.4847 16.4652 55.9628 17.9498 57.61C18.5938 58.3224 19.3451 59.1415 19.8191 59.1683H20.0605C20.5346 59.1415 21.2948 58.3224 21.9298 57.61C23.4145 55.9628 25.078 54.4758 26.6521 52.9175C26.8131 52.7573 26.983 52.5792 27.0098 52.3477C27.0456 52.0627 26.8399 51.8223 26.6431 51.6175C25.5878 50.549 21.9656 46.7469 20.5614 45.8209C20.3915 45.6962 20.1679 45.6339 19.9443 45.6339Z" fill="#D6002B"/>
<path d="M29.0045 57.3073C28.7809 57.3073 28.5663 57.3696 28.3784 57.4943C26.9743 58.4203 23.3521 62.2224 22.2967 63.2909C22.0999 63.4957 21.8942 63.745 21.9211 64.021C21.9479 64.2436 22.1178 64.4306 22.2788 64.5909C23.8529 66.158 25.5165 67.6361 27.0011 69.2834C27.6451 69.9957 28.3963 70.8149 28.8703 70.8416H29.1118C29.5858 70.806 30.3461 69.9957 30.9811 69.2834C32.4657 67.6272 34.1292 66.1491 35.7033 64.5909C35.8643 64.4306 36.0343 64.2525 36.0611 64.021C36.0969 63.7361 35.8912 63.4957 35.6944 63.2909C34.648 62.2224 31.0168 58.4203 29.6127 57.4943C29.4427 57.3696 29.2281 57.3073 29.0045 57.3073Z" fill="#D6002B"/>
</svg>
