<svg width="58" height="88" viewBox="0 0 58 88" fill="none" xmlns="http://www.w3.org/2000/svg">
<path d="M53.0899 88H4.91011C2.20016 88 0 85.8096 0 83.1116V4.88839C0 2.19043 2.20016 0 4.91011 0H53.0899C55.7999 0 58 2.19043 58 4.88839V83.1116C58 85.8185 55.7999 88 53.0899 88Z" fill="white"/>
<path d="M6.20681 11.5042V12.2611H3.13911V11.5042H4.26603V5.20897C3.54159 5.95692 2.79031 6.5446 2.01221 6.972V5.94802C3.08545 5.38706 3.91721 4.71924 4.5075 3.94458H5.24089V11.4953H6.20681V11.5042Z" fill="#D6002B"/>
<path d="M9.74864 12.4303C8.80955 12.4303 8.04934 12.0207 7.48588 11.2104C6.92243 10.4001 6.63623 9.38504 6.63623 8.18298C6.63623 6.99872 6.90454 5.99255 7.44116 5.18227C7.97778 4.36308 8.73801 3.95349 9.71287 3.95349C10.7325 3.95349 11.5106 4.38089 12.0382 5.23569C12.5659 6.09049 12.8342 7.08776 12.8342 8.2364C12.8342 9.35833 12.5659 10.3378 12.0204 11.1837C11.4837 12.0029 10.7235 12.4303 9.74864 12.4303ZM9.75759 11.62C10.4463 11.62 10.9561 11.3083 11.2959 10.6851C11.6268 10.0618 11.7968 9.27819 11.7968 8.33435C11.7968 7.30146 11.6268 6.44666 11.287 5.76104C10.9471 5.07542 10.4284 4.73706 9.71287 4.73706C9.03315 4.73706 8.52335 5.04871 8.18349 5.672C7.85257 6.29529 7.68264 7.11448 7.68264 8.13846C7.68264 9.19805 7.86151 10.0439 8.21032 10.6672C8.56807 11.3083 9.07787 11.62 9.75759 11.62Z" fill="#D6002B"/>
<path d="M51.8022 76.5048V75.748H54.8699V76.5048H53.743V82.7912C54.4675 82.0432 55.2187 81.4556 55.9969 81.0282V82.0521C54.9236 82.6131 54.0918 83.2809 53.5015 84.0556H52.7682V76.5048H51.8022Z" fill="#D6002B"/>
<path d="M48.2604 75.5787C49.1995 75.5787 49.9597 75.9883 50.5232 76.7985C51.0866 77.6177 51.3728 78.6239 51.3728 79.826C51.3728 81.0102 51.1045 82.0164 50.5679 82.8267C50.0312 83.6459 49.271 84.0465 48.2962 84.0465C47.2766 84.0465 46.4985 83.6191 45.9708 82.7733C45.4431 81.9185 45.1748 80.9212 45.1748 79.7725C45.1748 78.6506 45.4431 77.6712 45.9887 76.8253C46.5253 75.9972 47.2855 75.5787 48.2604 75.5787ZM48.2514 76.3801C47.5628 76.3801 47.053 76.6917 46.7131 77.315C46.3822 77.9383 46.2123 78.7219 46.2123 79.6657C46.2123 80.6986 46.3822 81.5534 46.7221 82.239C47.0619 82.9246 47.5807 83.263 48.2962 83.263C48.9759 83.263 49.4857 82.9513 49.8255 82.328C50.1565 81.7048 50.3264 80.8856 50.3264 79.8616C50.3264 78.802 50.1475 77.9561 49.7987 77.3328C49.441 76.7006 48.9312 76.3801 48.2514 76.3801Z" fill="#D6002B"/>
<path d="M39.5181 14.6409C40.1275 14.0902 40.8109 13.668 41.4573 13.1907C42.1775 12.6584 42.9532 12.1811 43.5257 11.5019C44.0059 10.9328 44.2275 10.3821 44.4676 9.68458C44.7077 8.98702 44.7261 7.50013 44.3383 6.87599C43.2117 5.07703 40.0721 3.51669 37.9852 7.4634C37.9483 7.51847 37.8929 7.55519 37.8375 7.55519C37.7821 7.55519 37.7267 7.51847 37.6897 7.4634C35.6213 3.51669 32.4632 5.07703 31.3366 6.87599C30.9488 7.50013 30.9673 8.98702 31.2073 9.68458C31.4474 10.3821 31.6691 10.9328 32.1492 11.5019C32.7218 12.1811 33.4974 12.6584 34.2177 13.1907C34.8825 13.6863 35.5474 14.1086 36.1569 14.6409C36.4708 14.9163 37.819 16.3665 37.819 16.3665C37.819 16.3665 39.2226 14.9163 39.5181 14.6409Z" fill="#D6002B"/>
<path d="M22.1235 14.6409C22.733 14.0902 23.4163 13.668 24.0627 13.1907C24.783 12.6584 25.5586 12.1811 26.1312 11.5019C26.6113 10.9328 26.833 10.3821 27.0731 9.68458C27.3131 8.98702 27.3316 7.50013 26.9438 6.87599C25.8172 5.07703 22.6776 3.51669 20.5907 7.4634C20.5537 7.51847 20.4984 7.55519 20.443 7.55519C20.3876 7.55519 20.3321 7.51847 20.2952 7.4634C18.2267 3.51669 15.0687 5.07703 13.9421 6.87599C13.5543 7.50013 13.5727 8.98702 13.8128 9.68458C14.0529 10.3821 14.2745 10.9328 14.7547 11.5019C15.3272 12.1811 16.1029 12.6584 16.8231 13.1907C17.488 13.6863 18.1529 14.1086 18.7623 14.6409C19.0763 14.9163 20.4245 16.3665 20.4245 16.3665C20.4245 16.3665 21.828 14.9163 22.1235 14.6409Z" fill="#D6002B"/>
<path d="M39.5181 40.6409C40.1275 40.0902 40.8109 39.668 41.4573 39.1907C42.1775 38.6584 42.9532 38.1811 43.5257 37.5019C44.0059 36.9328 44.2275 36.3821 44.4676 35.6846C44.7077 34.987 44.7261 33.5001 44.3383 32.876C43.2117 31.077 40.0721 29.5167 37.9852 33.4634C37.9483 33.5185 37.8929 33.5552 37.8375 33.5552C37.7821 33.5552 37.7267 33.5185 37.6897 33.4634C35.6213 29.5167 32.4632 31.077 31.3366 32.876C30.9488 33.5001 30.9673 34.987 31.2073 35.6846C31.4474 36.3821 31.6691 36.9328 32.1492 37.5019C32.7218 38.1811 33.4974 38.6584 34.2177 39.1907C34.8825 39.6863 35.5474 40.1086 36.1569 40.6409C36.4708 40.9163 37.819 42.3665 37.819 42.3665C37.819 42.3665 39.2226 40.9163 39.5181 40.6409Z" fill="#D6002B"/>
<path d="M22.1235 40.6409C22.733 40.0902 23.4163 39.668 24.0627 39.1907C24.783 38.6584 25.5586 38.1811 26.1312 37.5019C26.6113 36.9328 26.833 36.3821 27.0731 35.6846C27.3131 34.987 27.3316 33.5001 26.9438 32.876C25.8172 31.077 22.6776 29.5167 20.5907 33.4634C20.5537 33.5185 20.4984 33.5552 20.443 33.5552C20.3876 33.5552 20.3321 33.5185 20.2952 33.4634C18.2267 29.5167 15.0687 31.077 13.9421 32.876C13.5543 33.5001 13.5727 34.987 13.8128 35.6846C14.0529 36.3821 14.2745 36.9328 14.7547 37.5019C15.3272 38.1811 16.1029 38.6584 16.8231 39.1907C17.488 39.6863 18.1529 40.1086 18.7623 40.6409C19.0763 40.9163 20.4245 42.3665 20.4245 42.3665C20.4245 42.3665 21.828 40.9163 22.1235 40.6409Z" fill="#D6002B"/>
<path d="M18.7622 47.7255C18.1528 48.2762 17.4694 48.6985 16.823 49.1757C16.1028 49.7081 15.3271 50.1854 14.7546 50.8646C14.2744 51.4336 14.0528 51.9843 13.8127 52.6819C13.5726 53.3794 13.5541 54.8663 13.942 55.4905C15.0685 57.2894 18.2081 58.8498 20.2951 54.9031C20.332 54.848 20.3874 54.8113 20.4428 54.8113C20.4982 54.8113 20.5536 54.848 20.5906 54.9031C22.659 58.8498 25.8171 57.2894 26.9436 55.4905C27.3315 54.8663 27.313 53.3794 27.0729 52.6819C26.8328 51.9843 26.6112 51.4336 26.131 50.8646C25.5585 50.1854 24.7829 49.7081 24.0626 49.1757C23.3977 48.6801 22.7329 48.2579 22.1234 47.7255C21.8094 47.4502 20.4613 46 20.4613 46C20.4613 46 19.0577 47.4502 18.7622 47.7255Z" fill="#D6002B"/>
<path d="M36.1568 47.7255C35.5473 48.2762 34.8639 48.6985 34.2176 49.1757C33.4973 49.7081 32.7216 50.1854 32.1491 50.8646C31.6689 51.4336 31.4473 51.9843 31.2072 52.6819C30.9671 53.3794 30.9487 54.8663 31.3365 55.4905C32.4631 57.2894 35.6027 58.8498 37.6896 54.9031C37.7265 54.848 37.7819 54.8113 37.8373 54.8113C37.8927 54.8113 37.9482 54.848 37.9851 54.9031C40.0535 58.8498 43.2116 57.2894 44.3382 55.4905C44.726 54.8663 44.7075 53.3794 44.4675 52.6819C44.2274 51.9843 44.0057 51.4336 43.5256 50.8646C42.953 50.1854 42.1774 49.7081 41.4571 49.1757C40.7923 48.6801 40.1274 48.2579 39.5179 47.7255C39.204 47.4502 37.8558 46 37.8558 46C37.8558 46 36.4522 47.4502 36.1568 47.7255Z" fill="#D6002B"/>
<path d="M18.759 72.7255C18.1496 73.2762 17.4662 73.6985 16.8198 74.1757C16.0996 74.7081 15.3239 75.1854 14.7514 75.8646C14.2712 76.4336 14.0496 76.9843 13.8095 77.6819C13.5694 78.3794 13.551 79.8663 13.9388 80.4905C15.0654 82.2894 18.205 83.8498 20.2919 79.9031C20.3288 79.848 20.3842 79.8113 20.4396 79.8113C20.495 79.8113 20.5504 79.848 20.5874 79.9031C22.6558 83.8498 25.8139 82.2894 26.9405 80.4905C27.3283 79.8663 27.3098 78.3794 27.0698 77.6819C26.8297 76.9843 26.608 76.4336 26.1279 75.8646C25.5553 75.1854 24.7797 74.7081 24.0594 74.1757C23.3946 73.6801 22.7297 73.2579 22.1202 72.7255C21.8063 72.4502 20.4581 71 20.4581 71C20.4581 71 19.0545 72.4502 18.759 72.7255Z" fill="#D6002B"/>
<path d="M30.1235 27.6409C30.733 27.0902 31.4163 26.668 32.0627 26.1907C32.783 25.6584 33.5586 25.1811 34.1312 24.5019C34.6113 23.9328 34.833 23.3821 35.0731 22.6846C35.3131 21.987 35.3316 20.5001 34.9438 19.876C33.8172 18.077 30.6776 16.5167 28.5907 20.4634C28.5537 20.5185 28.4984 20.5552 28.443 20.5552C28.3876 20.5552 28.3321 20.5185 28.2952 20.4634C26.2267 16.5167 23.0687 18.077 21.9421 19.876C21.5543 20.5001 21.5727 21.987 21.8128 22.6846C22.0529 23.3821 22.2745 23.9328 22.7547 24.5019C23.3272 25.1811 24.1029 25.6584 24.8231 26.1907C25.488 26.6863 26.1529 27.1086 26.7623 27.6409C27.0763 27.9163 28.4245 29.3665 28.4245 29.3665C28.4245 29.3665 29.828 27.9163 30.1235 27.6409Z" fill="#D6002B"/>
<path d="M26.7625 60.7255C26.153 61.2762 25.4697 61.6985 24.8233 62.1757C24.103 62.7081 23.3273 63.1854 22.7548 63.8646C22.2747 64.4336 22.053 64.9843 21.8129 65.6819C21.5728 66.3794 21.5544 67.8663 21.9422 68.4905C23.0688 70.2894 26.2084 71.8498 28.2953 67.9031C28.3322 67.848 28.3876 67.8113 28.443 67.8113C28.4984 67.8113 28.5539 67.848 28.5908 67.9031C30.6592 71.8498 33.8173 70.2894 34.9439 68.4905C35.3317 67.8663 35.3133 66.3794 35.0732 65.6819C34.8331 64.9843 34.6115 64.4336 34.1313 63.8646C33.5588 63.1854 32.7831 62.7081 32.0628 62.1757C31.398 61.6801 30.7331 61.2579 30.1236 60.7255C29.8097 60.4502 28.4615 59 28.4615 59C28.4615 59 27.058 60.4502 26.7625 60.7255Z" fill="#D6002B"/>
<path d="M36.1536 72.7255C35.5441 73.2762 34.8608 73.6985 34.2144 74.1757C33.4941 74.7081 32.7185 75.1854 32.1459 75.8646C31.6658 76.4336 31.4441 76.9843 31.204 77.6819C30.964 78.3794 30.9455 79.8663 31.3333 80.4905C32.4599 82.2894 35.5995 83.8498 37.6864 79.9031C37.7234 79.848 37.7787 79.8113 37.8341 79.8113C37.8895 79.8113 37.945 79.848 37.9819 79.9031C40.0504 83.8498 43.2084 82.2894 44.335 80.4905C44.7228 79.8663 44.7044 78.3794 44.4643 77.6819C44.2242 76.9843 44.0026 76.4336 43.5224 75.8646C42.9499 75.1854 42.1742 74.7081 41.454 74.1757C40.7891 73.6801 40.1242 73.2579 39.5148 72.7255C39.2008 72.4502 37.8526 71 37.8526 71C37.8526 71 36.4491 72.4502 36.1536 72.7255Z" fill="#D6002B"/>
<path d="M7.9646 17.7781C8.20344 17.5623 8.47123 17.3968 8.72454 17.2098C9.00679 17.0012 9.31076 16.8141 9.53512 16.548C9.72329 16.325 9.81014 16.1092 9.90423 15.8358C9.99831 15.5624 10.0055 14.9797 9.85356 14.7352C9.41208 14.0302 8.18173 13.4187 7.36392 14.9654C7.34944 14.9869 7.32774 15.0013 7.30603 15.0013C7.28431 15.0013 7.26259 14.9869 7.24812 14.9654C6.43753 13.4187 5.19995 14.0302 4.75847 14.7352C4.60649 14.9797 4.61372 15.5624 4.7078 15.8358C4.80189 16.1092 4.88874 16.325 5.07692 16.548C5.30127 16.8141 5.60524 17.0012 5.88749 17.2098C6.14804 17.404 6.40859 17.5695 6.64743 17.7781C6.77046 17.886 7.29878 18.4543 7.29878 18.4543C7.29878 18.4543 7.84881 17.886 7.9646 17.7781Z" fill="#D6002B"/>
<path d="M49.6475 69.6761C49.4086 69.892 49.1408 70.0574 48.8875 70.2445C48.6053 70.4531 48.3013 70.6401 48.0769 70.9063C47.8888 71.1293 47.8019 71.3451 47.7078 71.6184C47.6137 71.8918 47.6065 72.4745 47.7585 72.7191C48.2 73.424 49.4303 74.0355 50.2481 72.4889C50.2626 72.4673 50.2843 72.4529 50.306 72.4529C50.3277 72.4529 50.3495 72.4673 50.3639 72.4889C51.1745 74.0355 52.4121 73.424 52.8536 72.7191C53.0056 72.4745 52.9983 71.8918 52.9043 71.6184C52.8102 71.3451 52.7233 71.1293 52.5351 70.9063C52.3108 70.6401 52.0068 70.4531 51.7246 70.2445C51.464 70.0502 51.2035 69.8848 50.9646 69.6761C50.8416 69.5682 50.3133 68.9999 50.3133 68.9999C50.3133 68.9999 49.7633 69.5682 49.6475 69.6761Z" fill="#D6002B"/>
</svg>
