<svg width="58" height="88" viewBox="0 0 58 88" fill="none" xmlns="http://www.w3.org/2000/svg">
<path d="M53.0873 88H4.91264C2.20253 88 0 85.8072 0 83.1091V4.89089C0 2.19278 2.19347 0 4.91264 0H53.0873C55.7975 0 58 2.18376 58 4.89089V83.1091C58 85.8072 55.7975 88 53.0873 88Z" fill="white"/>
<path d="M50.3137 71.6398C50.3137 71.4955 50.3681 71.2879 50.3681 71.1435C50.3681 70.9992 50.3681 70.8458 50.35 70.7014C50.2956 70.196 50.1143 69.7178 49.7336 69.3839C50.0781 69.3658 50.9301 69.3658 51.2745 69.3839C50.8938 69.7178 50.7125 70.196 50.6582 70.7014C50.64 70.8458 50.64 70.9992 50.64 71.1435C50.64 71.2879 50.6944 71.4955 50.6944 71.6398H50.3137Z" fill="#0C0A35"/>
<path d="M50.4408 71.0894C50.1417 70.6292 49.6069 70.3043 49.0449 70.3224C48.492 70.3404 47.9482 70.7465 47.8394 71.2879C47.7488 71.7662 47.9754 72.2535 48.3108 72.6054C48.6461 72.9573 49.0993 73.1919 49.5072 73.4626C49.9241 73.7334 50.5042 74.4101 50.5042 74.4101C50.5042 74.4101 51.1387 73.7514 51.5012 73.4717C51.891 73.1739 52.3714 72.9573 52.6977 72.5964C53.0331 72.2444 53.2596 71.7481 53.169 71.2789C53.0602 70.7375 52.5255 70.3404 51.9635 70.3133C51.4106 70.2953 50.8758 70.6201 50.5677 71.0804H50.4408V71.0894Z" fill="#0C0A35"/>
<path d="M7.49594 15.9631C7.49594 16.1075 7.44155 16.315 7.44155 16.4594C7.44155 16.6038 7.44155 16.7572 7.45968 16.9015C7.51406 17.3979 7.69535 17.8851 8.07603 18.219C7.7316 18.2371 6.87959 18.2371 6.53516 18.219C6.91584 17.8851 7.09713 17.4069 7.15151 16.9015C7.16964 16.7572 7.16964 16.6038 7.16964 16.4594C7.16964 16.315 7.11525 16.1075 7.11525 15.9631H7.49594Z" fill="#0C0A35"/>
<path d="M7.36892 16.5135C7.66803 16.9737 8.2028 17.2986 8.76477 17.2806C9.31767 17.2625 9.8615 16.8564 9.97027 16.315C10.0609 15.8368 9.83431 15.3495 9.49894 14.9975C9.16358 14.6456 8.71039 14.411 8.30251 14.1403C7.88557 13.8696 7.30548 13.1928 7.30548 13.1928C7.30548 13.1928 6.671 13.8515 6.30844 14.1313C5.91869 14.429 5.43831 14.6456 5.11201 15.0066C4.77665 15.3585 4.55004 15.8548 4.64068 16.324C4.74945 16.8655 5.28422 17.2625 5.84619 17.2896C6.39908 17.3076 6.93385 16.9828 7.24202 16.5226H7.36892V16.5135Z" fill="#0C0A35"/>
<path d="M6.19955 11.5063V12.2643H3.12689V11.5063H4.25082V5.21673C3.5257 5.9657 2.77339 6.55225 1.9939 6.97637V5.94766C3.0725 5.38818 3.90638 4.72042 4.49553 3.9534H5.22972V11.5063H6.19955Z" fill="#0C0A35"/>
<path d="M9.75269 12.4258C8.81004 12.4258 8.05775 12.0197 7.49578 11.2075C6.93382 10.3954 6.65283 9.38474 6.65283 8.17555C6.65283 6.98441 6.91568 5.99179 7.45952 5.17063C7.99429 4.35848 8.75565 3.94339 9.73456 3.94339C10.7588 3.94339 11.5383 4.36751 12.064 5.22477C12.5897 6.073 12.8616 7.07465 12.8616 8.22067C12.8616 9.33962 12.5897 10.3232 12.0459 11.1624C11.4839 12.0016 10.7225 12.4258 9.75269 12.4258ZM9.75269 11.6226C10.4415 11.6226 10.9582 11.3068 11.2845 10.6842C11.6199 10.0615 11.783 9.27645 11.783 8.33798C11.783 7.30926 11.6108 6.452 11.2754 5.7662C10.931 5.08039 10.4144 4.73748 9.70737 4.73748C9.02757 4.73748 8.52 5.05332 8.18464 5.67596C7.84927 6.2986 7.68612 7.11976 7.68612 8.13945C7.68612 9.19524 7.85833 10.0435 8.21183 10.6751C8.56532 11.3068 9.0729 11.6226 9.75269 11.6226Z" fill="#0C0A35"/>
<path d="M51.8003 76.4947V75.7367H54.8729V76.4947H53.749V82.7843C54.4741 82.0353 55.2264 81.4488 56.0059 81.0246V82.0533C54.9273 82.6128 54.1025 83.2806 53.5043 84.0566H52.7701V76.5037H51.8003V76.4947Z" fill="#0C0A35"/>
<path d="M48.2564 75.5742C49.1991 75.5742 49.9513 75.9803 50.5133 76.7924C51.0753 77.6046 51.3562 78.6152 51.3562 79.8244C51.3562 81.0065 51.0843 82.0082 50.5496 82.8293C50.0148 83.6415 49.2534 84.0566 48.2745 84.0566C47.2503 84.0566 46.4708 83.6325 45.9451 82.7752C45.4194 81.927 45.1475 80.9253 45.1475 79.7793C45.1475 78.6604 45.4194 77.6768 45.9632 76.8376C46.5161 75.9893 47.2775 75.5742 48.2564 75.5742ZM48.2473 76.3773C47.5585 76.3773 47.0418 76.6841 46.7155 77.3158C46.3802 77.9385 46.217 78.7235 46.217 79.662C46.217 80.6907 46.3892 81.548 46.7246 82.2338C47.069 82.9196 47.5857 83.2625 48.2926 83.2625C48.9724 83.2625 49.4891 82.9467 49.8154 82.324C50.1508 81.7014 50.3139 80.8802 50.3139 79.8605C50.3139 78.8047 50.1417 77.9565 49.7882 77.3248C49.4438 76.6932 48.9271 76.3773 48.2473 76.3773Z" fill="#0C0A35"/>
<path d="M20.6566 11.4693C20.6566 11.8392 20.5116 12.3536 20.5116 12.7236C20.5116 13.0936 20.5116 13.4635 20.5569 13.8335C20.6929 15.0878 21.1461 16.288 22.0978 17.1272C21.2458 17.1813 19.0976 17.1813 18.2366 17.1272C19.1792 16.288 19.6324 15.0878 19.7774 13.8335C19.8137 13.4635 19.8228 13.0936 19.8228 12.7236C19.8228 12.3536 19.6777 11.8392 19.6777 11.4693H20.6566Z" fill="#0C0A35"/>
<path d="M20.3393 12.8499C21.1007 14.0049 22.4331 14.8171 23.8198 14.772C25.2066 14.7268 26.5571 13.7162 26.8291 12.3626C27.0647 11.1715 26.4846 9.94423 25.6508 9.05088C24.8169 8.15752 23.6748 7.57098 22.6597 6.90322C21.6173 6.21741 20.158 4.52094 20.158 4.52094C20.158 4.52094 18.5628 6.18131 17.6654 6.8581C16.6956 7.59805 15.4901 8.15752 14.6653 9.05088C13.8314 9.94423 13.2513 11.1715 13.487 12.3626C13.7589 13.7162 15.1094 14.7268 16.4962 14.772C17.883 14.8171 19.2244 14.0049 19.9767 12.8499H20.3393Z" fill="#0C0A35"/>
<path d="M38.3492 11.4693C38.3492 11.8392 38.2043 12.3536 38.2043 12.7236C38.2043 13.0936 38.2042 13.4635 38.2496 13.8335C38.3855 15.0878 38.8387 16.288 39.7904 17.1272C38.9384 17.1813 36.7812 17.1813 35.9292 17.1272C36.8718 16.288 37.3251 15.0878 37.4701 13.8335C37.5063 13.4635 37.5154 13.0936 37.5154 12.7236C37.5154 12.3536 37.3704 11.8392 37.3704 11.4693H38.3492Z" fill="#0C0A35"/>
<path d="M38.0322 12.8499C38.7935 14.0049 40.1259 14.8171 41.5127 14.772C42.8995 14.7268 44.25 13.7162 44.5219 12.3626C44.7576 11.1715 44.1775 9.94423 43.3436 9.05088C42.5097 8.15752 41.3677 7.57098 40.3525 6.90322C39.3102 6.21741 37.8509 4.52094 37.8509 4.52094C37.8509 4.52094 36.2556 6.18131 35.3583 6.8581C34.3885 7.59805 33.183 8.15752 32.3582 9.05088C31.5243 9.94423 30.9442 11.1715 31.1798 12.3626C31.4518 13.7162 32.8023 14.7268 34.1891 14.772C35.5759 14.8171 36.9173 14.0049 37.6696 12.8499H38.0322Z" fill="#0C0A35"/>
<path d="M20.6386 36.2848C20.6295 36.6547 20.4664 37.1691 20.4573 37.53C20.4482 37.9 20.4392 38.27 20.4754 38.64C20.5842 39.8943 21.0011 41.1035 21.9347 41.9697C21.0736 41.9968 18.9255 41.9427 18.0735 41.8705C19.0433 41.0493 19.5237 39.8672 19.6959 38.6129C19.7412 38.2429 19.7594 37.8729 19.7684 37.503C19.7775 37.142 19.6415 36.6096 19.6506 36.2487L20.6386 36.2848Z" fill="#0C0A35"/>
<path d="M20.2939 37.6653C21.0191 38.8384 22.3424 39.6867 23.7292 39.6776C25.1159 39.6686 26.4937 38.694 26.7928 37.3405C27.0556 36.1584 26.5027 34.9131 25.696 34.0017C24.8893 33.0903 23.7564 32.4766 22.7593 31.7818C21.7351 31.0689 20.3211 29.3364 20.3211 29.3364C20.3211 29.3364 18.6806 30.9516 17.7742 31.6194C16.7862 32.3323 15.5716 32.8647 14.7196 33.731C13.8676 34.5972 13.2513 35.8154 13.4597 37.0156C13.6954 38.3782 15.0187 39.4159 16.4055 39.4972C17.7923 39.5784 19.1519 38.7933 19.9404 37.6563L20.2939 37.6653Z" fill="#0C0A35"/>
<path d="M38.3312 36.7178C38.3221 37.0878 38.159 37.6022 38.1499 37.9631C38.1409 38.3331 38.1318 38.7031 38.1681 39.073C38.2768 40.3273 38.7028 41.5365 39.6273 42.4028C38.7663 42.4299 36.6181 42.3757 35.7661 42.3036C36.736 41.4824 37.2163 40.3003 37.3885 39.046C37.4339 38.676 37.452 38.306 37.4611 37.936C37.4701 37.5661 37.3342 37.0427 37.3432 36.6817L38.3312 36.7178Z" fill="#0C0A35"/>
<path d="M37.9778 38.0985C38.7029 39.2716 40.0262 40.1198 41.413 40.1108C42.7998 40.1018 44.1775 39.1272 44.4766 37.7736C44.7394 36.5825 44.1956 35.3462 43.3799 34.4348C42.5732 33.5234 41.4402 32.9098 40.4432 32.215C39.4189 31.5021 38.005 29.7695 38.005 29.7695C38.005 29.7695 36.3644 31.3848 35.458 32.0525C34.47 32.7654 33.2555 33.2978 32.4035 34.1641C31.5515 35.0304 30.9351 36.2486 31.1436 37.4488C31.3792 38.8114 32.7026 39.8491 34.0894 39.9303C35.4761 40.0115 36.8357 39.2355 37.6243 38.0895L37.9778 38.0985Z" fill="#0C0A35"/>
<path d="M29.5028 24.0935C29.5028 24.4635 29.3578 24.9779 29.3578 25.3478C29.3578 25.7178 29.3578 26.0878 29.4031 26.4578C29.5391 27.7121 29.9923 28.9122 30.944 29.7515C30.092 29.7966 27.9348 29.7966 27.0828 29.7515C28.0254 28.9122 28.4786 27.7121 28.6236 26.4578C28.6599 26.0878 28.6689 25.7178 28.6689 25.3478C28.6689 24.9779 28.5239 24.4635 28.5239 24.0935H29.5028Z" fill="#0C0A35"/>
<path d="M29.1857 25.4832C29.9471 26.6382 31.2795 27.4504 32.6663 27.4053C34.053 27.3601 35.4036 26.3495 35.6755 24.9959C35.9112 23.8048 35.3311 22.5775 34.4972 21.6842C33.6633 20.7908 32.5212 20.2043 31.5061 19.5365C30.4637 18.8507 29.0045 17.1542 29.0045 17.1542C29.0045 17.1542 27.4092 18.8146 26.5119 19.4914C25.542 20.2313 24.3365 20.7908 23.5117 21.6842C22.6778 22.5775 22.0977 23.8048 22.3334 24.9959C22.6053 26.3495 23.9558 27.3601 25.3426 27.4053C26.7294 27.4504 28.0709 26.6382 28.8232 25.4832H29.1857Z" fill="#0C0A35"/>
<path d="M37.3523 76.5307C37.3523 76.1608 37.4973 75.6464 37.4973 75.2764C37.4973 74.9065 37.4973 74.5365 37.452 74.1665C37.316 72.9122 36.8628 71.712 35.9111 70.8728C36.7631 70.8187 38.9203 70.8187 39.7724 70.8728C38.8297 71.712 38.3765 72.9122 38.2315 74.1665C38.1953 74.5365 38.1952 74.9065 38.1862 75.2764C38.1862 75.6464 38.3312 76.1608 38.3312 76.5307H37.3523Z" fill="#0C0A35"/>
<path d="M37.6696 75.15C36.9082 73.9949 35.5759 73.1828 34.1891 73.2279C32.8023 73.273 31.4518 74.2837 31.1798 75.6373C30.9442 76.8284 31.5243 78.0557 32.3582 78.949C33.192 79.8424 34.3341 80.4289 35.3493 81.0967C36.3916 81.7825 37.8509 83.479 37.8509 83.479C37.8509 83.479 39.4461 81.8186 40.3435 81.1418C41.3133 80.4018 42.5188 79.8424 43.3436 78.949C44.1684 78.0557 44.7576 76.8284 44.5219 75.6373C44.25 74.2837 42.8995 73.273 41.5127 73.2279C40.1259 73.1828 38.7845 73.9949 38.0322 75.15H37.6696Z" fill="#0C0A35"/>
<path d="M19.6594 76.5307C19.6594 76.1608 19.8044 75.6464 19.8044 75.2764C19.8044 74.9065 19.8045 74.5365 19.7591 74.1665C19.6232 72.9122 19.17 71.712 18.2183 70.8728C19.0703 70.8187 21.2275 70.8187 22.0795 70.8728C21.1369 71.712 20.6837 72.9122 20.5386 74.1665C20.5024 74.5365 20.4933 74.9065 20.4933 75.2764C20.4933 75.6464 20.6383 76.1608 20.6383 76.5307H19.6594Z" fill="#0C0A35"/>
<path d="M19.9767 75.15C19.2154 73.9949 17.883 73.1828 16.4962 73.2279C15.1094 73.273 13.7589 74.2837 13.487 75.6373C13.2513 76.8284 13.8314 78.0557 14.6653 78.949C15.4992 79.8424 16.6412 80.4289 17.6564 81.0967C18.6987 81.7825 20.158 83.479 20.158 83.479C20.158 83.479 21.7533 81.8186 22.6506 81.1418C23.6204 80.4018 24.8259 79.8424 25.6508 78.949C26.4846 78.0557 27.0647 76.8284 26.8291 75.6373C26.5571 74.2837 25.2066 73.273 23.8198 73.2279C22.4331 73.1828 21.0916 73.9949 20.3393 75.15H19.9767Z" fill="#0C0A35"/>
<path d="M37.3616 51.7153C37.3706 51.3453 37.5338 50.8309 37.5429 50.47C37.5519 50.1 37.561 49.73 37.5247 49.3601C37.416 48.0967 36.999 46.8966 36.0654 46.0303C36.9265 46.0032 39.0747 46.0574 39.9267 46.1295C38.9568 46.9507 38.4764 48.1328 38.3042 49.3871C38.2589 49.7571 38.2408 50.1271 38.2317 50.4971C38.2227 50.867 38.3586 51.3904 38.3495 51.7514L37.3616 51.7153Z" fill="#0C0A35"/>
<path d="M37.7151 50.3436C36.99 49.1705 35.6666 48.3223 34.2798 48.3313C32.8931 48.3403 31.5153 49.3149 31.2162 50.6685C30.9534 51.8596 31.5063 53.0959 32.313 54.0073C33.1197 54.9187 34.2526 55.5323 35.2497 56.2271C36.2739 56.94 37.6879 58.6726 37.6879 58.6726C37.6879 58.6726 39.3284 57.0573 40.2348 56.3896C41.2228 55.6767 42.4374 55.1443 43.2894 54.278C44.1414 53.4117 44.7577 52.1935 44.5493 50.9933C44.3136 49.6307 42.9903 48.593 41.6035 48.5118C40.2167 48.4306 38.8571 49.2066 38.0685 50.3526L37.7151 50.3436Z" fill="#0C0A35"/>
<path d="M19.6777 51.2822C19.6868 50.9122 19.8499 50.3978 19.859 50.0369C19.8681 49.6669 19.8771 49.2969 19.8409 48.927C19.7321 47.6727 19.3151 46.4635 18.3906 45.5972C19.2517 45.5701 21.3999 45.6243 22.2519 45.6964C21.282 46.5176 20.8016 47.6997 20.6294 48.954C20.575 49.324 20.566 49.694 20.5569 50.064C20.5478 50.4339 20.6838 50.9573 20.6747 51.3183L19.6777 51.2822Z" fill="#0C0A35"/>
<path d="M20.0314 49.9015C19.3063 48.7284 17.983 47.8801 16.5962 47.8892C15.2094 47.8982 13.8317 48.8728 13.5326 50.2263C13.2697 51.4084 13.8136 52.6537 14.6293 53.5651C15.436 54.4765 16.569 55.0902 17.566 55.785C18.5902 56.4979 20.0042 58.2304 20.0042 58.2304C20.0042 58.2304 21.6448 56.6152 22.5512 55.9474C23.5391 55.2345 24.7537 54.7021 25.6057 53.8358C26.4577 52.9696 27.0741 51.7514 26.8656 50.5602C26.6299 49.1976 25.3066 48.1599 23.9198 48.0787C22.5331 47.9975 21.1735 48.7825 20.3849 49.9195L20.0314 49.9015Z" fill="#0C0A35"/>
<path d="M28.5059 63.8974C28.5059 63.5275 28.6509 63.0131 28.6509 62.6431C28.6509 62.2732 28.6509 61.9032 28.6056 61.5332C28.4696 60.2789 28.0164 59.0787 27.0647 58.2395C27.9167 58.1854 30.0648 58.1854 30.9259 58.2395C29.9833 59.0787 29.5301 60.2789 29.3851 61.5332C29.3488 61.9032 29.3397 62.2732 29.3397 62.6431C29.3397 63.0131 29.4848 63.5275 29.4848 63.8974H28.5059Z" fill="#0C0A35"/>
<path d="M28.8232 62.5167C28.0618 61.3616 26.7294 60.5495 25.3426 60.5946C23.9558 60.6397 22.6053 61.6504 22.3334 63.004C22.0977 64.1951 22.6778 65.4223 23.5117 66.3157C24.3456 67.2091 25.4876 67.7956 26.5028 68.4634C27.5452 69.1492 29.0045 70.8457 29.0045 70.8457C29.0045 70.8457 30.5997 69.1853 31.497 68.5085C32.4669 67.7685 33.6724 67.2091 34.4972 66.3157C35.3311 65.4223 35.9112 64.1951 35.6755 63.004C35.4036 61.6504 34.053 60.6397 32.6663 60.5946C31.2795 60.5495 29.938 61.3616 29.1857 62.5167H28.8232Z" fill="#0C0A35"/>
</svg>
