<svg width="58" height="88" viewBox="0 0 58 88" fill="none" xmlns="http://www.w3.org/2000/svg">
<path d="M53.0998 88H4.90915C2.19786 88 0 85.8123 0 83.1136V4.8864C0 2.18767 2.19786 0 4.90915 0H53.0908C55.8021 0 58 2.18767 58 4.8864V83.1136C58.009 85.8123 55.8111 88 53.0998 88Z" fill="white"/>
<path d="M28.5091 12.382C28.5091 12.7496 28.6532 13.2696 28.6532 13.6372C28.6532 14.0048 28.6532 14.3814 28.6082 14.74C28.4731 15.9952 28.0137 17.1877 27.0679 18.0305C27.9236 18.0843 30.0674 18.0843 30.9231 18.0305C29.9773 17.1877 29.5269 15.9952 29.3828 14.74C29.3468 14.3724 29.3378 14.0048 29.3378 13.6372C29.3378 13.2696 29.4819 12.7496 29.4819 12.382H28.5091Z" fill="#0C0A35"/>
<path d="M28.7704 13.2875C28.41 13.3413 28.2029 13.682 27.5543 14.3903C26.9598 15.0268 26.3743 15.7082 25.0412 15.8696C24.3656 15.9503 23.4559 15.5917 23.0415 15.0448C22.6902 14.5785 22.5011 14.0227 22.3569 13.4578C22.0777 12.4088 22.1858 11.3688 22.6992 10.4094C23.2127 9.45903 24.6088 9.03764 25.4736 9.55766C25.933 9.8356 26.0861 10.1673 26.5094 10.248C26.6355 10.2749 26.7527 10.1494 26.7166 10.0239C26.5455 9.37834 26.0951 9.30661 25.8789 8.53555C25.6267 7.62999 25.4826 6.93066 26.7797 5.79199C27.7705 4.9223 30.1845 5.00299 31.2294 5.79199C32.2923 6.59892 32.4004 7.32516 32.1392 8.23071C31.941 8.94798 31.5267 9.27075 31.3375 9.87146C31.2745 10.0777 31.4726 10.2749 31.6708 10.1942C31.9771 10.0687 32.1482 9.79077 32.5445 9.55766C33.4093 9.0466 34.7964 9.45903 35.3189 10.4094C35.8413 11.3688 35.9404 12.4088 35.6612 13.4578C35.5171 14.0137 35.3189 14.5785 34.9766 15.0448C34.5712 15.5917 33.6615 15.9593 32.9769 15.8696C31.6438 15.7082 31.0583 15.0268 30.4638 14.3903C29.8062 13.682 29.6081 13.3413 29.2478 13.2875H28.7704Z" fill="#0C0A35"/>
<path d="M7.59338 16.5421C7.59338 16.6855 7.53933 16.8918 7.53933 17.0352C7.53933 17.1787 7.53933 17.3221 7.55735 17.4656C7.61139 17.9587 7.79155 18.4249 8.16086 18.7567C7.82758 18.7746 6.98987 18.7746 6.64758 18.7567C7.01689 18.4249 7.19705 17.9587 7.25109 17.4656C7.26911 17.3221 7.2691 17.1787 7.2691 17.0352C7.2691 16.8918 7.21506 16.6855 7.21506 16.5421H7.59338Z" fill="#0C0A35"/>
<path d="M7.48529 16.9007C7.62941 16.9186 7.71048 17.0531 7.96269 17.331C8.19689 17.5821 8.42208 17.851 8.94452 17.9138C9.20574 17.9497 9.56605 17.8062 9.72819 17.591C9.8633 17.4117 9.94437 17.1876 9.99842 16.9724C10.1065 16.56 10.0705 16.1565 9.8633 15.7799C9.66513 15.4123 9.11566 15.242 8.78238 15.4482C8.60223 15.5558 8.53918 15.6903 8.37704 15.7172C8.323 15.7261 8.28697 15.6813 8.29598 15.6275C8.35903 15.3765 8.53918 15.3496 8.62025 15.0447C8.71933 14.6861 8.77338 14.4171 8.26895 13.9688C7.88162 13.6281 6.93582 13.664 6.53048 13.9688C6.11613 14.2826 6.0711 14.5695 6.17018 14.9282C6.25125 15.2061 6.40438 15.3316 6.48545 15.5737C6.51247 15.6544 6.4314 15.7351 6.35934 15.6992C6.24224 15.6544 6.17018 15.5379 6.01705 15.4482C5.68377 15.2509 5.13431 15.4123 4.93614 15.7799C4.72896 16.1565 4.69293 16.56 4.80102 16.9724C4.85507 17.1876 4.93614 17.4117 5.07125 17.591C5.23339 17.8062 5.58468 17.9497 5.85491 17.9138C6.37735 17.851 6.60255 17.5821 6.83674 17.331C7.08896 17.0531 7.17002 16.9186 7.31415 16.9007H7.48529Z" fill="#0C0A35"/>
<path d="M10.2867 11.4136V12.2653H4.47681V11.4136C6.77375 9.7011 8.14291 8.58037 8.58428 8.03345C9.02565 7.48653 9.25084 6.94858 9.25084 6.41959C9.25084 5.92647 9.06168 5.52301 8.69237 5.21817C8.32305 4.91333 7.89069 4.76091 7.41329 4.76091C6.91787 4.76091 6.4765 4.93126 6.08917 5.263C5.70184 5.6037 5.48566 6.05199 5.44062 6.63477L4.48582 6.34787C4.88215 4.75194 5.86398 3.95398 7.4223 3.95398C8.26901 3.95398 8.95359 4.19606 9.47603 4.67125C10.0075 5.14644 10.2687 5.72922 10.2687 6.41959C10.2687 6.89478 10.1426 7.35204 9.89038 7.78241C9.63817 8.22173 9.16977 8.74175 8.47619 9.35143C7.7826 9.96111 6.88184 10.6515 5.7739 11.4136H10.2867Z" fill="#0C0A35"/>
<path d="M50.3976 71.4579C50.3976 71.3145 50.4516 71.1083 50.4516 70.9648C50.4516 70.8214 50.4516 70.6779 50.4336 70.5344C50.3795 70.0413 50.1994 69.5751 49.8301 69.2434C50.1634 69.2254 51.0011 69.2254 51.3434 69.2434C50.974 69.5751 50.7939 70.0413 50.7398 70.5344C50.7218 70.6779 50.7218 70.8214 50.7218 70.9648C50.7218 71.1083 50.7759 71.3145 50.7759 71.4579H50.3976Z" fill="#0C0A35"/>
<path d="M50.4966 71.0992C50.3525 71.0813 50.2715 70.9468 50.0192 70.6689C49.785 70.4178 49.5598 70.1489 49.0374 70.0861C48.7762 70.0502 48.4159 70.1937 48.2537 70.4089C48.1186 70.5882 48.0466 70.8123 47.9835 71.0275C47.8754 71.4399 47.9115 71.8434 48.1186 72.22C48.3168 72.5876 48.8663 72.7579 49.1995 72.5517C49.3797 72.4441 49.4427 72.3096 49.6049 72.2827C49.6589 72.2738 49.695 72.3186 49.686 72.3724C49.6229 72.6234 49.4427 72.6503 49.3617 72.9552C49.2626 73.3048 49.2086 73.5828 49.713 74.0311C50.1003 74.3718 51.0461 74.3359 51.4515 74.0311C51.8658 73.7173 51.9108 73.4304 51.8118 73.0717C51.7307 72.7938 51.5775 72.6683 51.4965 72.4262C51.4695 72.3455 51.5505 72.2648 51.6226 72.3007C51.7397 72.3455 51.8117 72.462 51.9649 72.5517C52.2982 72.749 52.8476 72.5876 53.0458 72.22C53.253 71.8434 53.289 71.4399 53.1809 71.0275C53.1269 70.8123 53.0458 70.5882 52.9107 70.4089C52.7485 70.1937 52.3973 70.0502 52.127 70.0861C51.6046 70.1489 51.3794 70.4178 51.1452 70.6689C50.884 70.9468 50.8119 71.0813 50.6678 71.0992H50.4966Z" fill="#0C0A35"/>
<path d="M47.7493 76.5863V75.7346H53.5592V76.5863C51.2622 78.2988 49.8931 79.4196 49.4517 79.9665C49.0103 80.5134 48.7851 81.0513 48.7851 81.5803C48.7851 82.0735 48.9743 82.4769 49.3436 82.7818C49.7129 83.0866 50.1453 83.239 50.6227 83.239C51.1181 83.239 51.5595 83.0687 51.9468 82.7369C52.3341 82.3962 52.5503 81.9479 52.5954 81.3652L53.5502 81.6521C53.1538 83.248 52.172 84.0459 50.6137 84.0459C49.767 84.0459 49.0824 83.8039 48.56 83.3287C48.0285 82.8535 47.7673 82.2707 47.7673 81.5803C47.7673 81.1051 47.8934 80.6479 48.1456 80.2175C48.3978 79.7782 48.8662 79.2582 49.5598 78.6485C50.2534 78.0388 51.1541 77.3484 52.2621 76.5863H47.7493Z" fill="#0C0A35"/>
<path d="M29.5 75.6271C29.5 75.2595 29.3559 74.7395 29.3559 74.3719C29.3559 74.0043 29.3559 73.6367 29.4009 73.2691C29.536 72.0139 29.9954 70.8214 30.9412 69.9786C30.0855 69.9248 27.9417 69.9248 27.0859 69.9786C28.0317 70.8214 28.4821 72.0139 28.6262 73.2691C28.6623 73.6367 28.6713 74.0043 28.6713 74.3719C28.6713 74.7395 28.5272 75.2595 28.5272 75.6271H29.5Z" fill="#0C0A35"/>
<path d="M29.2388 74.7126C29.5991 74.6588 29.8062 74.3181 30.4548 73.6098C31.0493 72.9733 31.6348 72.2918 32.9679 72.1305C33.6435 72.0498 34.5532 72.4084 34.9676 72.9553C35.3189 73.4215 35.5081 73.9774 35.6522 74.5423C35.9314 75.5913 35.8233 76.6313 35.3099 77.5907C34.7965 78.5411 33.4003 78.9625 32.5355 78.4424C32.0762 78.1645 31.923 77.8328 31.4997 77.7521C31.3736 77.7252 31.2565 77.8507 31.2925 77.9762C31.4636 78.6218 31.914 78.6935 32.1302 79.4645C32.3824 80.3701 32.5265 81.0694 31.2294 82.2081C30.2386 83.0778 27.8246 82.9971 26.7797 82.2081C25.7168 81.4012 25.6087 80.6749 25.8699 79.7694C26.0681 79.0521 26.4824 78.7293 26.6716 78.1286C26.7346 77.9224 26.5365 77.7252 26.3383 77.8059C26.0321 77.9314 25.8609 78.2093 25.4646 78.4424C24.5998 78.9535 23.2127 78.5321 22.6902 77.5907C22.1678 76.6313 22.0687 75.5913 22.3479 74.5423C22.4921 73.9864 22.6902 73.4215 23.0325 72.9553C23.4379 72.4084 24.3476 72.0498 25.0322 72.1305C26.3653 72.2918 26.9508 72.9733 27.5453 73.6098C28.2029 74.3181 28.401 74.6588 28.7614 74.7126H29.2388Z" fill="#0C0A35"/>
</svg>
