<svg width="58" height="88" viewBox="0 0 58 88" fill="none" xmlns="http://www.w3.org/2000/svg">
<path d="M53.0901 88H4.90991C2.1982 88 0 85.8119 0 83.1126V4.88739C0 2.18812 2.1982 0 4.90991 0H53.0901C55.8018 0 58 2.18812 58 4.88739V83.1126C58 85.8119 55.8018 88 53.0901 88Z" fill="white"/>
<path d="M7.39636 17.8816C7.45942 17.8816 7.53149 17.8636 7.58554 17.8278C8.00897 17.5498 9.11708 16.3929 9.43239 16.0701C9.49546 16.0073 9.55852 15.9356 9.5405 15.8459C9.53149 15.7741 9.47744 15.7203 9.43239 15.6755C8.95492 15.2002 8.45041 14.7518 7.99996 14.2496C7.80176 14.0344 7.57654 13.7833 7.43239 13.7744H7.36032C7.21618 13.7833 6.98194 14.0344 6.79275 14.2496C6.3423 14.7518 5.8378 15.2002 5.36032 15.6755C5.31527 15.7203 5.26122 15.7831 5.25221 15.8459C5.2432 15.9356 5.30626 16.0073 5.36032 16.0701C5.67563 16.3929 6.78374 17.5498 7.20717 17.8278C7.26122 17.8636 7.32428 17.8816 7.39636 17.8816Z" fill="#D6002B"/>
<path d="M50.6307 73.9027C50.6938 73.9027 50.7659 73.8848 50.8199 73.8489C51.2433 73.5709 52.3514 72.4141 52.6668 72.0913C52.7298 72.0285 52.7929 71.9567 52.7749 71.8671C52.7659 71.7953 52.7118 71.7415 52.6668 71.6967C52.1893 71.2214 51.6848 70.773 51.2343 70.2708C51.0361 70.0556 50.8109 69.8045 50.6668 69.7955H50.5947C50.4506 69.8045 50.2163 70.0556 50.0271 70.2708C49.5767 70.773 49.0722 71.2214 48.5947 71.6967C48.5496 71.7415 48.4956 71.8043 48.4866 71.8671C48.4776 71.9567 48.5406 72.0285 48.5947 72.0913C48.91 72.4141 50.0181 73.5709 50.4415 73.8489C50.4956 73.8848 50.5677 73.9027 50.6307 73.9027Z" fill="#D6002B"/>
<path d="M10.2792 11.4159V12.2589H4.46838V11.4159C6.76568 9.70307 8.12604 8.5821 8.57649 8.03507C9.01793 7.48805 9.24315 6.94998 9.24315 6.42089C9.24315 5.92767 9.05397 5.52412 8.6846 5.21922C8.31523 4.91432 7.8828 4.76187 7.40532 4.76187C6.90983 4.76187 6.46838 4.93225 6.081 5.26406C5.69361 5.60483 5.47739 6.05321 5.43235 6.63611L4.47739 6.34915C4.87379 4.7529 5.85577 3.95477 7.41433 3.95477C8.26117 3.95477 8.94586 4.1969 9.46838 4.67219C9.99991 5.14748 10.2612 5.73038 10.2612 6.42089C10.2612 6.89618 10.1351 7.35353 9.8828 7.78398C9.63055 8.2234 9.16207 8.74352 8.46838 9.35333C7.77469 9.96313 6.87378 10.6536 5.76568 11.4159H10.2792Z" fill="#D6002B"/>
<path d="M47.7478 76.5931V75.7501H53.5586V76.5931C51.2613 78.3059 49.901 79.4269 49.4505 79.9739C49.0091 80.5209 48.7838 81.059 48.7838 81.5881C48.7838 82.0813 48.973 82.4849 49.3424 82.7898C49.7118 83.0947 50.1442 83.2471 50.6217 83.2471C51.1172 83.2471 51.5586 83.0767 51.946 82.7449C52.3334 82.4131 52.5496 81.9558 52.5947 81.3729L53.5496 81.6598C53.1532 83.2561 52.1712 84.0542 50.6127 84.0542C49.7658 84.0542 49.0811 83.8121 48.5586 83.3368C48.0271 82.8615 47.7658 82.2786 47.7658 81.5881C47.7658 81.1128 47.8919 80.6554 48.1442 80.225C48.3964 79.7856 48.8649 79.2655 49.5586 78.6557C50.2523 78.0459 51.1532 77.3553 52.2523 76.5931H47.7478Z" fill="#D6002B"/>
<path d="M29 18.59C29.2252 18.59 29.4415 18.5273 29.6216 18.4107C31.027 17.4781 34.6487 13.6758 35.7027 12.6086C35.9009 12.4113 36.1081 12.1602 36.0721 11.8732C36.0451 11.6491 35.8739 11.4697 35.7117 11.3083C34.1352 9.73893 32.4685 8.25926 30.982 6.60921C30.3424 5.90076 29.5856 5.07573 29.1081 5.04883H28.8649C28.3874 5.07573 27.6307 5.90076 26.991 6.60921C25.5045 8.25926 23.8379 9.73893 22.2613 11.3083C22.0991 11.4697 21.9279 11.6491 21.9009 11.8732C21.8739 12.1512 22.0721 12.4023 22.2703 12.6086C23.3243 13.6758 26.946 17.4781 28.3514 18.4107C28.5586 18.5273 28.7748 18.59 29 18.59Z" fill="#D6002B"/>
<path d="M29 69.419C28.7748 69.419 28.5586 69.4817 28.3784 69.5983C26.973 70.531 23.3514 74.3333 22.2973 75.4004C22.0991 75.5977 21.8919 75.8488 21.9279 76.1268C21.955 76.351 22.1261 76.5304 22.2883 76.6918C23.8649 78.2611 25.5315 79.7318 27.018 81.3908C27.6577 82.0993 28.4144 82.9243 28.8919 82.9512H29.1351C29.6126 82.9243 30.3694 82.0993 31.009 81.3908C32.4955 79.7408 34.1622 78.2611 35.7388 76.6918C35.9009 76.5304 36.0721 76.351 36.0991 76.1268C36.1261 75.8488 35.9279 75.5977 35.7297 75.4004C34.6757 74.3333 31.0541 70.531 29.6487 69.5983C29.4415 69.4817 29.2252 69.419 29 69.419Z" fill="#D6002B"/>
</svg>
