<svg width="58" height="88" viewBox="0 0 58 88" fill="none" xmlns="http://www.w3.org/2000/svg">
<path d="M53.0901 88H4.90991C2.1982 88 0 85.8119 0 83.1126V4.88739C0 2.18812 2.1982 0 4.90991 0H53.0901C55.8018 0 58 2.18812 58 4.88739V83.1126C58 85.8119 55.8018 88 53.0901 88Z" fill="white"/>
<path d="M10.2792 11.4159V12.2589H4.46838V11.4159C6.76568 9.70307 8.12604 8.5821 8.57649 8.03507C9.01793 7.48805 9.24315 6.94998 9.24315 6.42089C9.24315 5.92767 9.05397 5.52412 8.6846 5.21922C8.31523 4.91432 7.8828 4.76187 7.40532 4.76187C6.90983 4.76187 6.46838 4.93225 6.081 5.26406C5.69361 5.60483 5.47739 6.05321 5.43235 6.63611L4.47739 6.34915C4.87379 4.7529 5.85577 3.95477 7.41433 3.95477C8.26117 3.95477 8.94586 4.1969 9.46838 4.67219C9.99991 5.14748 10.2612 5.73038 10.2612 6.42089C10.2612 6.89618 10.1351 7.35353 9.8828 7.78398C9.63055 8.2234 9.16207 8.74352 8.46838 9.35333C7.77469 9.96313 6.87378 10.6536 5.76568 11.4159H10.2792Z" fill="#D6002B"/>
<path d="M47.7478 76.5931V75.7501H53.5586V76.5931C51.2613 78.3059 49.901 79.4269 49.4505 79.9739C49.0091 80.5209 48.7838 81.059 48.7838 81.5881C48.7838 82.0813 48.973 82.4849 49.3424 82.7898C49.7118 83.0947 50.1442 83.2471 50.6217 83.2471C51.1172 83.2471 51.5586 83.0767 51.946 82.7449C52.3334 82.4131 52.5496 81.9558 52.5947 81.3729L53.5496 81.6598C53.1532 83.2561 52.1712 84.0542 50.6127 84.0542C49.7658 84.0542 49.0811 83.8121 48.5586 83.3368C48.0271 82.8615 47.7658 82.2786 47.7658 81.5881C47.7658 81.1128 47.8919 80.6554 48.1442 80.225C48.3964 79.7856 48.8649 79.2655 49.5586 78.6557C50.2523 78.0459 51.1532 77.3553 52.2523 76.5931H47.7478Z" fill="#D6002B"/>
<path d="M7.88453 17.7781C8.12336 17.5623 8.39115 17.3968 8.64446 17.2098C8.92672 17.0012 9.23068 16.8141 9.45504 16.548C9.64321 16.325 9.73006 16.1092 9.82415 15.8358C9.91823 15.5624 9.92547 14.9797 9.77348 14.7352C9.332 14.0302 8.10166 13.4187 7.28384 14.9654C7.26936 14.9869 7.24766 15.0013 7.22595 15.0013C7.20424 15.0013 7.18251 14.9869 7.16804 14.9654C6.35746 13.4187 5.11987 14.0302 4.67839 14.7352C4.52641 14.9797 4.53364 15.5624 4.62773 15.8358C4.72181 16.1092 4.80867 16.325 4.99684 16.548C5.22119 16.8141 5.52516 17.0012 5.80742 17.2098C6.06796 17.404 6.32852 17.5695 6.56735 17.7781C6.69038 17.886 7.2187 18.4543 7.2187 18.4543C7.2187 18.4543 7.76873 17.886 7.88453 17.7781Z" fill="#D6002B"/>
<path d="M49.5674 69.6761C49.3285 69.892 49.0608 70.0574 48.8074 70.2445C48.5252 70.4531 48.2212 70.6401 47.9969 70.9063C47.8087 71.1293 47.7218 71.3451 47.6278 71.6184C47.5337 71.8918 47.5264 72.4745 47.6784 72.7191C48.1199 73.424 49.3502 74.0355 50.1681 72.4889C50.1825 72.4673 50.2042 72.4529 50.226 72.4529C50.2477 72.4529 50.2694 72.4673 50.2839 72.4889C51.0944 74.0355 52.332 73.424 52.7735 72.7191C52.9255 72.4745 52.9183 71.8918 52.8242 71.6184C52.7301 71.3451 52.6432 71.1293 52.4551 70.9063C52.2307 70.6401 51.9267 70.4531 51.6445 70.2445C51.3839 70.0502 51.1234 69.8848 50.8846 69.6761C50.7615 69.5682 50.2332 68.9999 50.2332 68.9999C50.2332 68.9999 49.6832 69.5682 49.5674 69.6761Z" fill="#D6002B"/>
<path d="M30.5163 15.1783C31.1597 14.5969 31.8812 14.1511 32.5636 13.6472C33.324 13.0852 34.1429 12.5813 34.7473 11.8643C35.2542 11.2635 35.4882 10.6821 35.7417 9.94569C35.9952 9.20925 36.0147 7.63948 35.6052 6.98056C34.4159 5.08132 31.1012 3.43401 28.898 7.6007C28.859 7.65884 28.8006 7.69761 28.7421 7.69761C28.6836 7.69761 28.625 7.65884 28.586 7.6007C26.4023 3.43401 23.0682 5.08132 21.8789 6.98056C21.4694 7.63948 21.4889 9.20925 21.7424 9.94569C21.9958 10.6821 22.2298 11.2635 22.7368 11.8643C23.3412 12.5813 24.1601 13.0852 24.9205 13.6472C25.6224 14.1705 26.3243 14.6163 26.9678 15.1783C27.2992 15.469 28.7225 17 28.7225 17C28.7225 17 30.2043 15.469 30.5163 15.1783Z" fill="#D6002B"/>
<path d="M26.9677 72.8217C26.3243 73.4031 25.6028 73.8489 24.9204 74.3528C24.16 74.9148 23.3411 75.4187 22.7367 76.1357C22.2298 76.7365 21.9958 77.3179 21.7423 78.0543C21.4888 78.7907 21.4694 80.3605 21.8788 81.0194C23.0682 82.9187 26.3828 84.566 28.586 80.3993C28.625 80.3412 28.6835 80.3024 28.7419 80.3024C28.8004 80.3024 28.859 80.3412 28.898 80.3993C31.0817 84.566 34.4158 82.9187 35.6052 81.0194C36.0146 80.3605 35.9951 78.7907 35.7417 78.0543C35.4882 77.3179 35.2542 76.7365 34.7473 76.1357C34.1428 75.4187 33.3239 74.9148 32.5635 74.3528C31.8616 73.8295 31.1597 73.3837 30.5162 72.8217C30.1848 72.531 28.7615 71 28.7615 71C28.7615 71 27.2797 72.531 26.9677 72.8217Z" fill="#D6002B"/>
</svg>
