<svg width="58" height="88" viewBox="0 0 58 88" fill="none" xmlns="http://www.w3.org/2000/svg">
<path d="M53.0874 88H4.91264C2.20253 88 0 85.8072 0 83.1091V4.89089C0.00906392 2.19278 2.20253 0 4.91264 0H53.0874C55.7975 0 58 2.19278 58 4.89089V83.1091C58 85.8072 55.7975 88 53.0874 88Z" fill="white"/>
<path d="M50.3137 71.6398C50.3137 71.4955 50.3681 71.2879 50.3681 71.1435C50.3681 70.9992 50.3681 70.8458 50.35 70.7014C50.2956 70.196 50.1143 69.7268 49.7336 69.3839C50.0781 69.3658 50.9301 69.3658 51.2745 69.3839C50.8938 69.7178 50.7125 70.196 50.6582 70.7014C50.64 70.8458 50.64 70.9992 50.64 71.1435C50.64 71.2879 50.7035 71.4955 50.6944 71.6398H50.3137Z" fill="#0C0A35"/>
<path d="M50.4407 71.0894C50.1416 70.6292 49.6068 70.3043 49.0449 70.3224C48.492 70.3404 47.9481 70.7465 47.8484 71.2879C47.7578 71.7662 47.9844 72.2535 48.3198 72.6054C48.6551 72.9573 49.1083 73.1919 49.5162 73.4626C49.9332 73.7334 50.5132 74.4101 50.5132 74.4101C50.5132 74.4101 51.1477 73.7514 51.5103 73.4717C51.9 73.1739 52.3804 72.9573 52.7067 72.5964C53.0421 72.2444 53.2687 71.7481 53.178 71.2789C53.0693 70.7375 52.5345 70.3314 51.9816 70.3133C51.4287 70.2953 50.8939 70.6201 50.5858 71.0804H50.4407V71.0894Z" fill="#0C0A35"/>
<path d="M7.49593 15.9631C7.49593 16.1075 7.44155 16.315 7.44155 16.4594C7.44155 16.6038 7.44154 16.7572 7.45967 16.9015C7.51406 17.4069 7.69533 17.8851 8.07602 18.219C7.73159 18.2371 6.87959 18.2371 6.53516 18.219C6.91584 17.8851 7.09712 17.4069 7.1515 16.9015C7.16963 16.7572 7.16963 16.6038 7.16963 16.4594C7.16963 16.315 7.11525 16.1075 7.11525 15.9631H7.49593Z" fill="#0C0A35"/>
<path d="M7.36905 16.5135C7.66816 16.9737 8.20293 17.2986 8.76489 17.2806C9.31779 17.2625 9.86163 16.8564 9.97039 16.315C10.061 15.8368 9.83443 15.3495 9.49906 14.9975C9.1637 14.6456 8.7105 14.411 8.30263 14.1403C7.88569 13.8696 7.3056 13.1928 7.3056 13.1928C7.3056 13.1928 6.67113 13.8515 6.30857 14.1313C5.91882 14.429 5.43843 14.6456 5.11213 15.0066C4.77677 15.3585 4.55017 15.8548 4.64081 16.324C4.74957 16.8655 5.28434 17.2715 5.84631 17.2896C6.39921 17.3076 6.93398 16.9828 7.24215 16.5226H7.36905V16.5135Z" fill="#0C0A35"/>
<path d="M10.2875 11.4151V12.2633H4.47754V11.4151C6.77071 9.70057 8.13936 8.58162 8.58349 8.03117C9.02762 7.48974 9.24516 6.94831 9.24516 6.41591C9.24516 5.9196 9.05482 5.51353 8.69226 5.20672C8.32064 4.89991 7.89464 4.74651 7.40519 4.74651C6.90667 4.74651 6.46254 4.91796 6.08186 5.25184C5.70117 5.58572 5.48364 6.04593 5.43832 6.62346L4.4866 6.33469C4.88542 4.73748 5.86432 3.94339 7.42331 3.94339C8.26626 3.94339 8.95512 4.17801 9.48082 4.65627C9.99747 5.14355 10.2603 5.72108 10.2603 6.40688C10.2603 6.87612 10.1334 7.33633 9.8887 7.76948C9.63491 8.20262 9.16359 8.726 8.47473 9.33962C7.77681 9.94421 6.87948 10.639 5.77368 11.4061H10.2875V11.4151Z" fill="#0C0A35"/>
<path d="M47.7397 76.5849V75.7367H53.5497V76.5849C51.2565 78.2995 49.8879 79.4184 49.4438 79.9689C48.9996 80.5103 48.7821 81.0517 48.7821 81.5841C48.7821 82.0804 48.9724 82.4865 49.335 82.7933C49.7066 83.1001 50.1326 83.2535 50.6221 83.2535C51.1206 83.2535 51.5647 83.0821 51.9454 82.7482C52.3261 82.4143 52.5436 81.9541 52.5889 81.3766L53.5407 81.6653C53.1418 83.2625 52.1629 84.0566 50.6039 84.0566C49.761 84.0566 49.0721 83.822 48.5464 83.3438C48.0207 82.8655 47.7579 82.2789 47.7579 81.5931C47.7579 81.1239 47.8848 80.6637 48.1295 80.2305C48.3833 79.7974 48.8546 79.274 49.5435 78.6604C50.2414 78.0558 51.1387 77.361 52.2445 76.594H47.7397V76.5849Z" fill="#0C0A35"/>
<path d="M29.5031 11.4693C29.5031 11.8392 29.3581 12.3536 29.3581 12.7236C29.3581 13.0936 29.358 13.4635 29.4034 13.8335C29.5393 15.0878 29.9925 16.288 30.9442 17.1272C30.0922 17.1813 27.9441 17.1813 27.083 17.1272C28.0257 16.288 28.4788 15.0878 28.6239 13.8335C28.6601 13.4635 28.6692 13.0936 28.6692 12.7236C28.6692 12.3626 28.5242 11.8392 28.5242 11.4693H29.5031Z" fill="#0C0A35"/>
<path d="M29.1859 12.8499C29.9472 14.0049 31.2796 14.8171 32.6664 14.772C34.0532 14.7268 35.4037 13.7162 35.6756 12.3626C35.9113 11.1715 35.3312 9.94423 34.4973 9.05088C33.6634 8.15752 32.5214 7.57098 31.5062 6.90322C30.4639 6.21741 29.0046 4.52094 29.0046 4.52094C29.0046 4.52094 27.4093 6.18131 26.512 6.8581C25.5422 7.59805 24.3367 8.15752 23.5118 9.05088C22.678 9.94423 22.0979 11.1715 22.3335 12.3626C22.6055 13.7162 23.956 14.7268 25.3428 14.772C26.7295 14.8171 28.071 14.0049 28.8233 12.8499H29.1859Z" fill="#0C0A35"/>
<path d="M28.506 76.5307C28.506 76.1698 28.651 75.6464 28.651 75.2764C28.651 74.9065 28.651 74.5365 28.6057 74.1665C28.4697 72.9122 28.0165 71.712 27.0648 70.8728C27.9168 70.8187 30.074 70.8187 30.926 70.8728C29.9834 71.712 29.5302 72.9122 29.3852 74.1665C29.3489 74.5365 29.3399 74.9065 29.3399 75.2764C29.3399 75.6464 29.4849 76.1608 29.4849 76.5307H28.506Z" fill="#0C0A35"/>
<path d="M28.8233 75.1501C28.0619 73.995 26.7295 73.1738 25.3428 73.228C23.956 73.2731 22.6055 74.2838 22.3335 75.6373C22.0979 76.8285 22.678 78.0557 23.5118 78.9491C24.3457 79.8424 25.4878 80.429 26.5029 81.0967C27.5453 81.7825 29.0046 83.479 29.0046 83.479C29.0046 83.479 30.5998 81.8186 31.4972 81.1419C32.467 80.4019 33.6725 79.8424 34.4973 78.9491C35.3312 78.0557 35.9113 76.8285 35.6756 75.6373C35.4037 74.2838 34.0532 73.2731 32.6664 73.228C31.2796 73.1829 29.9382 73.995 29.1859 75.1501H28.8233Z" fill="#0C0A35"/>
</svg>
