<svg width="58" height="88" viewBox="0 0 58 88" fill="none" xmlns="http://www.w3.org/2000/svg">
<path d="M53.0909 88H4.90914C2.19785 88 0 85.8123 0 83.1136V4.8864C0 2.18767 2.19785 0 4.90914 0H53.0909C55.8021 0 58 2.18767 58 4.8864V83.1136C58 85.8123 55.8021 88 53.0909 88Z" fill="white"/>
<path d="M28.9324 44.7577C28.9324 45.1253 29.0766 45.6453 29.0766 46.0129C29.0766 46.3805 29.0766 46.757 29.0315 47.1157C28.8964 48.3709 28.437 49.5634 27.4912 50.4062C28.3469 50.46 30.4908 50.46 31.3465 50.4062C30.4007 49.5634 29.9503 48.3709 29.8062 47.1157C29.7701 46.7481 29.7611 46.3805 29.7611 46.0129C29.7611 45.6453 29.9053 45.1253 29.9053 44.7577H28.9324Z" fill="#0C0A35"/>
<path d="M29.1937 45.6722C28.8334 45.726 28.6262 46.0667 27.9777 46.775C27.3832 47.4115 26.7977 48.0929 25.4645 48.2543C24.789 48.335 23.8792 47.9764 23.4649 47.4295C23.1136 46.9632 22.9244 46.4074 22.7803 45.8425C22.501 44.7935 22.6091 43.7535 23.1226 42.7941C23.636 41.8437 25.0322 41.4223 25.8969 41.9424C26.3563 42.2203 26.5094 42.552 26.9328 42.6327C27.0589 42.6596 27.176 42.5341 27.14 42.4086C26.9688 41.763 26.5184 41.6913 26.3023 40.9202C26.05 40.0147 25.9059 39.3154 27.203 38.1767C28.1939 37.307 30.6079 37.3877 31.6528 38.1767C32.7157 38.9836 32.8238 39.7099 32.5625 40.6244C32.3644 41.3416 31.95 41.6644 31.7609 42.2651C31.6978 42.4713 31.896 42.6686 32.0941 42.5879C32.4004 42.4624 32.5715 42.1844 32.9679 41.9513C33.8326 41.4403 35.2198 41.8617 35.7422 42.8031C36.2647 43.7624 36.3638 44.8025 36.0845 45.8515C35.9404 46.4074 35.7422 46.9722 35.3999 47.4384C34.9946 47.9854 34.0848 48.353 33.4003 48.2633C32.0671 48.1019 31.4816 47.4205 30.8871 46.7839C30.2296 46.0756 30.0314 45.7349 29.6711 45.6811H29.1937V45.6722Z" fill="#0C0A35"/>
<path d="M7.58435 16.5421C7.58435 16.6855 7.53031 16.8918 7.53031 17.0352C7.53031 17.1787 7.5303 17.3221 7.54831 17.4656C7.60236 17.9587 7.78252 18.4249 8.15184 18.7567C7.81855 18.7746 6.98084 18.7746 6.63855 18.7567C7.00786 18.4249 7.18801 17.9587 7.24206 17.4656C7.26007 17.3221 7.26008 17.1787 7.26008 17.0352C7.26008 16.8918 7.20603 16.6855 7.20603 16.5421H7.58435Z" fill="#0C0A35"/>
<path d="M7.48539 16.9007C7.62951 16.9186 7.71058 17.0531 7.96279 17.331C8.19699 17.5821 8.42218 17.851 8.94462 17.9138C9.20584 17.9497 9.56615 17.8062 9.72829 17.591C9.8634 17.4117 9.94446 17.1876 9.99851 16.9724C10.1066 16.56 10.0706 16.1565 9.8634 15.7799C9.65622 15.4123 9.11577 15.242 8.78249 15.4482C8.60234 15.5558 8.53929 15.6903 8.37715 15.7172C8.3231 15.7261 8.28706 15.6813 8.29607 15.6275C8.35912 15.3765 8.53928 15.3496 8.62034 15.0447C8.71943 14.6861 8.77347 14.4171 8.26905 13.9688C7.88172 13.6281 6.93593 13.664 6.53059 13.9688C6.11624 14.2826 6.07119 14.5695 6.17027 14.9282C6.25134 15.2061 6.41348 15.3316 6.48555 15.5737C6.51257 15.6544 6.43151 15.7351 6.35044 15.6992C6.23334 15.6544 6.16127 15.5379 6.00814 15.4482C5.67486 15.2509 5.1254 15.4123 4.92723 15.7799C4.72006 16.1565 4.68402 16.56 4.79211 16.9724C4.84616 17.1876 4.92723 17.4117 5.06234 17.591C5.22448 17.8062 5.57577 17.9497 5.846 17.9138C6.36844 17.851 6.60265 17.5821 6.82784 17.331C7.08005 17.0531 7.16112 16.9186 7.30524 16.9007H7.48539Z" fill="#0C0A35"/>
<path d="M6.20632 8.42794V7.62101H7.14311C7.82769 7.62101 8.3141 7.47755 8.61135 7.19961C8.90861 6.92167 9.05273 6.58097 9.05273 6.1775C9.05273 5.73817 8.89059 5.38851 8.55731 5.1285C8.23304 4.86849 7.81868 4.74296 7.32326 4.74296C6.40448 4.74296 5.76495 5.18229 5.41365 6.06991L4.48587 5.8099C5.01732 4.56365 5.99014 3.93604 7.41334 3.93604C8.21502 3.93604 8.85455 4.15122 9.34997 4.57261C9.84539 4.99401 10.0886 5.50506 10.0886 6.10578C10.0886 6.572 9.94448 6.9665 9.64722 7.31617C9.34997 7.65687 8.97166 7.87205 8.51227 7.96171C9.03471 8.03344 9.47609 8.25758 9.85441 8.61622C10.2327 8.97485 10.4129 9.44108 10.4129 10.0059C10.4129 10.6873 10.1336 11.2611 9.58418 11.7184C9.02571 12.1846 8.26906 12.4177 7.29624 12.4177C6.53059 12.4177 5.87305 12.2384 5.32358 11.8708C4.77412 11.5122 4.40481 11.028 4.19763 10.4273L5.15244 10.1135C5.44068 11.0998 6.15228 11.5839 7.27823 11.5839C8.01686 11.5839 8.53929 11.4315 8.86357 11.1177C9.18784 10.8039 9.34997 10.4273 9.34997 9.99696C9.34997 9.53074 9.16081 9.14521 8.77349 8.8583C8.38616 8.57139 7.84571 8.41897 7.15213 8.41897H6.20632V8.42794Z" fill="#0C0A35"/>
<path d="M50.3885 71.4579C50.3885 71.3145 50.4426 71.1083 50.4426 70.9648C50.4426 70.8214 50.4426 70.6779 50.4246 70.5344C50.3705 70.0413 50.1904 69.5751 49.821 69.2434C50.1543 69.2254 50.992 69.2254 51.3343 69.2434C50.965 69.5751 50.7849 70.0413 50.7308 70.5344C50.7128 70.6779 50.7128 70.8214 50.7128 70.9648C50.7128 71.1083 50.7668 71.3145 50.7668 71.4579H50.3885Z" fill="#0C0A35"/>
<path d="M50.4876 71.0992C50.3435 71.0813 50.2624 70.9468 50.0102 70.6689C49.776 70.4178 49.5508 70.1489 49.0284 70.0861C48.7672 70.0502 48.4069 70.1937 48.2447 70.4089C48.1096 70.5882 48.0375 70.8123 47.9745 71.0275C47.8664 71.4399 47.9024 71.8434 48.1096 72.22C48.3078 72.5876 48.8572 72.7579 49.1905 72.5517C49.3707 72.4441 49.4337 72.3096 49.5959 72.2827C49.6499 72.2738 49.6859 72.3186 49.6769 72.3724C49.6139 72.6234 49.4337 72.6503 49.3526 72.9552C49.2536 73.3048 49.1995 73.5828 49.7039 74.0311C50.0913 74.3718 51.0371 74.3359 51.4424 74.0311C51.8568 73.7173 51.9018 73.4304 51.8027 73.0717C51.7216 72.7938 51.5685 72.6683 51.4875 72.4262C51.4604 72.3455 51.5415 72.2648 51.6226 72.3007C51.7397 72.3455 51.8117 72.462 51.9649 72.5517C52.2981 72.749 52.8476 72.5876 53.0458 72.22C53.2529 71.8434 53.289 71.4399 53.1809 71.0275C53.1268 70.8123 53.0458 70.5882 52.9106 70.4089C52.7485 70.1937 52.3972 70.0502 52.127 70.0861C51.6046 70.1489 51.3794 70.4178 51.1452 70.6689C50.8839 70.9468 50.8119 71.0813 50.6678 71.0992H50.4876Z" fill="#0C0A35"/>
<path d="M51.8117 79.572V80.3789H50.875C50.1904 80.3789 49.704 80.5223 49.4067 80.8003C49.1095 81.0782 48.9654 81.4189 48.9654 81.8224C48.9654 82.2617 49.1275 82.6114 49.4608 82.8714C49.785 83.1314 50.1994 83.2569 50.6948 83.2569C51.6136 83.2569 52.2531 82.8176 52.6044 81.93L53.5232 82.19C52.9918 83.4362 52.0189 84.0639 50.5957 84.0639C49.794 84.0639 49.1545 83.8487 48.6591 83.4273C48.1637 83.0059 47.9205 82.4948 47.9205 81.8941C47.9205 81.4279 48.0646 81.0334 48.3618 80.6837C48.6591 80.343 49.0374 80.1278 49.4968 80.0382C48.9744 79.9575 48.533 79.7423 48.1547 79.3837C47.7763 79.025 47.5962 78.5588 47.5962 77.994C47.5962 77.3126 47.8754 76.7387 48.4339 76.2725C48.9924 75.8063 49.749 75.5732 50.7218 75.5732C51.4875 75.5732 52.145 75.7525 52.6945 76.1201C53.244 76.4787 53.6133 76.9629 53.8205 77.5636L52.8656 77.8774C52.5774 76.8912 51.8658 76.407 50.7399 76.407C50.0012 76.407 49.4788 76.5594 49.1545 76.8732C48.8302 77.187 48.6681 77.5636 48.6681 77.994C48.6681 78.4602 48.8573 78.8457 49.2446 79.1326C49.6319 79.4195 50.1724 79.572 50.866 79.572H51.8117Z" fill="#0C0A35"/>
<path d="M28.5001 12.382C28.5001 12.7496 28.6442 13.2696 28.6442 13.6372C28.6442 14.0048 28.6442 14.3814 28.5991 14.74C28.464 15.9952 28.0046 17.1877 27.0588 18.0305C27.9146 18.0843 30.0584 18.0843 30.9141 18.0305C29.9683 17.1877 29.5179 15.9952 29.3738 14.74C29.3378 14.3724 29.3288 14.0048 29.3288 13.6372C29.3288 13.2696 29.4729 12.7496 29.4729 12.382H28.5001Z" fill="#0C0A35"/>
<path d="M28.7613 13.2875C28.401 13.3413 28.1938 13.682 27.5363 14.3903C26.9418 15.0268 26.3563 15.7082 25.0231 15.8696C24.3476 15.9503 23.4378 15.5917 23.0234 15.0448C22.6721 14.5785 22.483 14.0227 22.3389 13.4578C22.0596 12.4088 22.1677 11.3688 22.6812 10.4094C23.1946 9.45903 24.5908 9.03764 25.4555 9.55766C25.9149 9.8356 26.068 10.1673 26.4914 10.248C26.6175 10.2749 26.7346 10.1494 26.6986 10.0239C26.5274 9.37834 26.077 9.30661 25.8608 8.53555C25.6086 7.62999 25.4645 6.93066 26.7616 5.79199C27.7524 4.9223 30.1665 5.00299 31.2114 5.79199C32.2743 6.59892 32.3824 7.32516 32.1211 8.23071C31.923 8.94798 31.5086 9.27075 31.3194 9.87146C31.2564 10.0777 31.4546 10.2749 31.6527 10.1942C31.959 10.0687 32.1301 9.79077 32.5265 9.55766C33.3912 9.0466 34.7784 9.45903 35.3008 10.4094C35.8233 11.3688 35.9223 12.4088 35.6431 13.4578C35.499 14.0137 35.3008 14.5785 34.9585 15.0448C34.5532 15.5917 33.6434 15.9593 32.9588 15.8696C31.6257 15.7082 31.0402 15.0268 30.4457 14.3903C29.7882 13.682 29.59 13.3413 29.2297 13.2875H28.7613Z" fill="#0C0A35"/>
<path d="M29.4909 75.6271C29.4909 75.2595 29.3468 74.7395 29.3468 74.3719C29.3468 74.0043 29.3468 73.6367 29.3919 73.2691C29.527 72.0139 29.9864 70.8214 30.9322 69.9786C30.0764 69.9248 27.9326 69.9248 27.0769 69.9786C28.0227 70.8214 28.4731 72.0139 28.6172 73.2691C28.6622 73.6367 28.6622 74.0043 28.6622 74.3719C28.6622 74.7395 28.5181 75.2595 28.5181 75.6271H29.4909Z" fill="#0C0A35"/>
<path d="M29.2388 74.7126C29.5991 74.6588 29.8062 74.3181 30.4548 73.6098C31.0493 72.9733 31.6348 72.2918 32.9679 72.1305C33.6435 72.0498 34.5532 72.4084 34.9676 72.9553C35.3189 73.4215 35.5081 73.9774 35.6522 74.5423C35.9314 75.5913 35.8233 76.6313 35.3099 77.5907C34.7965 78.5411 33.4003 78.9625 32.5355 78.4424C32.0762 78.1645 31.923 77.8328 31.4997 77.7521C31.3736 77.7252 31.2565 77.8507 31.2925 77.9762C31.4636 78.6218 31.914 78.6935 32.1302 79.4645C32.3824 80.3701 32.5265 81.0694 31.2294 82.2081C30.2386 83.0778 27.8246 82.9971 26.7797 82.2081C25.7168 81.4012 25.6087 80.6749 25.8699 79.7694C26.0681 79.0521 26.4824 78.7293 26.6716 78.1286C26.7346 77.9224 26.5365 77.7252 26.3383 77.8059C26.032 77.9314 25.8609 78.2093 25.4646 78.4424C24.5998 78.9535 23.2127 78.5321 22.6902 77.5907C22.1678 76.6313 22.0687 75.5913 22.3479 74.5423C22.4921 73.9864 22.6902 73.4215 23.0325 72.9553C23.4379 72.4084 24.3476 72.0498 25.0322 72.1305C26.3653 72.2918 26.9508 72.9733 27.5453 73.6098C28.2029 74.3181 28.4011 74.6588 28.7704 74.7126H29.2388Z" fill="#0C0A35"/>
</svg>
