<svg width="58" height="88" viewBox="0 0 58 88" fill="none" xmlns="http://www.w3.org/2000/svg">
<path d="M53.0901 88H4.90991C2.1982 88 0 85.8119 0 83.1126V4.88739C0 2.18812 2.1982 0 4.90991 0H53.0901C55.8018 0 58 2.18812 58 4.88739V83.1126C58 85.8119 55.8018 88 53.0901 88Z" fill="white"/>
<path d="M7.52244 17.747C7.58551 17.747 7.65758 17.7291 7.71164 17.6932C8.13506 17.4063 9.24317 16.2584 9.55849 15.9356C9.62155 15.8728 9.68461 15.801 9.66659 15.7114C9.65758 15.6396 9.60353 15.5858 9.55849 15.541C9.08101 15.0657 8.57649 14.6173 8.12604 14.1151C7.92785 13.8999 7.70263 13.6488 7.55849 13.6398H7.48641C7.34227 13.6488 7.10803 13.8999 6.91884 14.1151C6.46839 14.6173 5.96389 15.0657 5.48641 15.541C5.44137 15.5858 5.38732 15.6396 5.37831 15.7114C5.3693 15.7921 5.43236 15.8728 5.48641 15.9356C5.80173 16.2584 6.90984 17.4152 7.33326 17.6932C7.38731 17.7291 7.45938 17.747 7.52244 17.747Z" fill="#D6002B"/>
<path d="M50.7657 73.7683C50.8288 73.7683 50.9009 73.7504 50.9549 73.7145C51.3783 73.4365 52.4865 72.2797 52.8018 71.9568C52.8648 71.8941 52.9279 71.8223 52.9099 71.7326C52.9009 71.6609 52.8468 71.6071 52.8018 71.5623C52.3243 71.087 51.8198 70.6386 51.3693 70.1364C51.1711 69.9212 50.9459 69.6701 50.8018 69.6611H50.7297C50.5856 69.6701 50.3513 69.9212 50.1621 70.1364C49.7117 70.6386 49.2072 71.087 48.7297 71.5623C48.6847 71.6071 48.6306 71.6699 48.6216 71.7326C48.6126 71.8223 48.6756 71.8941 48.7297 71.9568C49.045 72.2797 50.1531 73.4365 50.5765 73.7145C50.6306 73.7504 50.6937 73.7683 50.7657 73.7683Z" fill="#D6002B"/>
<path d="M6.34229 8.29512V7.48803H7.27923C7.96392 7.48803 8.45039 7.34455 8.74769 7.06655C9.04499 6.78855 9.18914 6.44778 9.18914 6.04423C9.18914 5.60481 9.02697 5.25507 8.69364 4.99501C8.36931 4.73495 7.9549 4.6094 7.45941 4.6094C6.54049 4.6094 5.90084 5.04882 5.54949 5.93662L4.63058 5.67656C5.16211 4.43005 6.13508 3.80231 7.55851 3.80231C8.36031 3.80231 8.99994 4.01753 9.49544 4.43901C9.99094 4.8605 10.2342 5.37165 10.2342 5.97249C10.2342 6.43881 10.09 6.83339 9.79274 7.18313C9.49544 7.5239 9.11707 7.73913 8.65761 7.8288C9.18013 7.90054 9.62156 8.12474 9.99994 8.48344C10.3693 8.84215 10.5585 9.30847 10.5585 9.87344C10.5585 10.555 10.2792 11.1289 9.72967 11.5863C9.17111 12.0526 8.41436 12.2857 7.44139 12.2857C6.67562 12.2857 6.01796 12.1064 5.46841 11.7477C4.91886 11.389 4.54949 10.9047 4.34229 10.3039L5.29724 9.99002C5.58553 10.9765 6.29724 11.4607 7.42337 11.4607C8.1621 11.4607 8.68464 11.3083 9.00896 10.9944C9.33328 10.6805 9.49544 10.3039 9.49544 9.87344C9.49544 9.40712 9.30625 9.02151 8.91886 8.73454C8.53148 8.44757 7.99093 8.29512 7.29724 8.29512H6.34229Z" fill="#D6002B"/>
<path d="M51.9459 79.4448V80.2519H51.009C50.3243 80.2519 49.8378 80.3954 49.5405 80.6734C49.2432 80.9514 49.0991 81.2922 49.0991 81.6957C49.0991 82.1352 49.2613 82.4849 49.5946 82.745C49.9189 83.005 50.3333 83.1306 50.8288 83.1306C51.7478 83.1306 52.3874 82.6912 52.7387 81.8034L53.6577 82.0634C53.1261 83.3099 52.1532 83.9377 50.7297 83.9377C49.9279 83.9377 49.2883 83.7224 48.7928 83.301C48.2973 82.8795 48.0541 82.3683 48.0541 81.7675C48.0541 81.3101 48.1982 80.9066 48.4955 80.5568C48.7928 80.2161 49.1712 80.0008 49.6306 79.9112C49.1081 79.8394 48.6667 79.6152 48.2883 79.2565C47.9189 78.8978 47.7297 78.4315 47.7297 77.8665C47.7297 77.185 48.009 76.6111 48.5586 76.1537C49.1171 75.6874 49.8739 75.4542 50.8469 75.4542C51.6126 75.4542 52.2703 75.6336 52.8198 76.0013C53.3694 76.3689 53.7387 76.8442 53.9459 77.4451L52.991 77.7589C52.7027 76.7725 51.991 76.2882 50.8649 76.2882C50.1261 76.2882 49.6036 76.4407 49.2793 76.7545C48.955 77.0684 48.7928 77.445 48.7928 77.8755C48.7928 78.3418 48.982 78.7274 49.3694 79.0144C49.7568 79.3014 50.2973 79.4538 50.991 79.4538H51.9459V79.4448Z" fill="#D6002B"/>
<path d="M29.1352 18.4555C29.3604 18.4555 29.5766 18.3927 29.7568 18.2761C31.1622 17.3435 34.7838 13.5412 35.8379 12.474C36.0361 12.2678 36.2433 12.0257 36.2072 11.7387C36.1802 11.5145 36.009 11.3351 35.8469 11.1737C34.2703 9.60438 32.6036 8.12471 31.1171 6.47466C30.4775 5.76621 29.7207 4.94118 29.2433 4.91428H29C28.5226 4.94118 27.7658 5.76621 27.1262 6.47466C25.6397 8.12471 23.973 9.60438 22.3964 11.1737C22.2343 11.3351 22.0631 11.5145 22.0361 11.7387C22.009 12.0167 22.2072 12.2678 22.4054 12.474C23.4595 13.5412 27.0811 17.3435 28.4865 18.2761C28.6937 18.3927 28.9099 18.4555 29.1352 18.4555Z" fill="#D6002B"/>
<path d="M29.1261 69.2844C28.9009 69.2844 28.6847 69.3472 28.5045 69.4638C27.0991 70.3964 23.4775 74.1987 22.4234 75.2659C22.2252 75.4632 22.018 75.7143 22.054 75.9923C22.0811 76.2164 22.2522 76.3958 22.4144 76.5572C23.991 78.1266 25.6576 79.6062 27.1441 81.2563C27.7838 81.9647 28.5405 82.7898 29.018 82.8167H29.2612C29.7387 82.7898 30.4955 81.9647 31.1351 81.2563C32.6216 79.6062 34.2883 78.1266 35.8649 76.5572C36.027 76.3958 36.1982 76.2164 36.2252 75.9923C36.2522 75.7143 36.054 75.4632 35.8558 75.2659C34.8018 74.1987 31.1802 70.3964 29.7748 69.4638C29.5766 69.3472 29.3604 69.2844 29.1261 69.2844Z" fill="#D6002B"/>
<path d="M28.8649 50.6406C29.0901 50.6406 29.3063 50.5778 29.4865 50.4612C30.8919 49.5286 34.5135 45.7263 35.5676 44.6591C35.7658 44.4529 35.973 44.2107 35.937 43.9238C35.9099 43.6996 35.7388 43.5202 35.5766 43.3588C34 41.7895 32.3334 40.3188 30.8469 38.6597C30.2072 37.9513 29.4505 37.1263 28.973 37.0994H28.7298C28.2523 37.1263 27.4955 37.9513 26.8559 38.6597C25.3694 40.3098 23.7027 41.7895 22.1262 43.3588C21.964 43.5202 21.7928 43.6996 21.7658 43.9238C21.7388 44.2018 21.937 44.4529 22.1352 44.6591C23.1892 45.7263 26.8108 49.5286 28.2162 50.4612C28.4235 50.5778 28.6397 50.6406 28.8649 50.6406Z" fill="#D6002B"/>
</svg>
