<svg width="58" height="88" viewBox="0 0 58 88" fill="none" xmlns="http://www.w3.org/2000/svg">
<path d="M53.0901 88H4.90991C2.1982 88 0 85.8119 0 83.1126V4.88739C0 2.18812 2.1982 0 4.90991 0H53.0901C55.8018 0 58 2.18812 58 4.88739V83.1126C58 85.8119 55.8018 88 53.0901 88Z" fill="white"/>
<path d="M6.34229 8.29512V7.48803H7.27923C7.96392 7.48803 8.45039 7.34455 8.74769 7.06655C9.04499 6.78855 9.18914 6.44778 9.18914 6.04423C9.18914 5.60481 9.02697 5.25507 8.69364 4.99501C8.36931 4.73495 7.9549 4.6094 7.45941 4.6094C6.54049 4.6094 5.90084 5.04882 5.54949 5.93662L4.63058 5.67656C5.16211 4.43005 6.13508 3.80231 7.55851 3.80231C8.36031 3.80231 8.99994 4.01753 9.49544 4.43901C9.99094 4.8605 10.2342 5.37165 10.2342 5.97249C10.2342 6.43881 10.09 6.83339 9.79274 7.18313C9.49544 7.5239 9.11707 7.73913 8.65761 7.8288C9.18013 7.90054 9.62156 8.12474 9.99994 8.48344C10.3693 8.84215 10.5585 9.30847 10.5585 9.87344C10.5585 10.555 10.2792 11.1289 9.72967 11.5863C9.17111 12.0526 8.41436 12.2857 7.44139 12.2857C6.67562 12.2857 6.01796 12.1064 5.46841 11.7477C4.91886 11.389 4.54949 10.9047 4.34229 10.3039L5.29724 9.99002C5.58553 10.9765 6.29724 11.4607 7.42337 11.4607C8.1621 11.4607 8.68464 11.3083 9.00896 10.9944C9.33328 10.6805 9.49544 10.3039 9.49544 9.87344C9.49544 9.40712 9.30625 9.02151 8.91886 8.73454C8.53148 8.44757 7.99093 8.29512 7.29724 8.29512H6.34229Z" fill="#D6002B"/>
<path d="M51.9459 79.4448V80.2519H51.009C50.3243 80.2519 49.8378 80.3954 49.5405 80.6734C49.2432 80.9514 49.0991 81.2922 49.0991 81.6957C49.0991 82.1352 49.2613 82.4849 49.5946 82.745C49.9189 83.005 50.3333 83.1306 50.8288 83.1306C51.7478 83.1306 52.3874 82.6912 52.7387 81.8034L53.6577 82.0634C53.1261 83.3099 52.1532 83.9377 50.7297 83.9377C49.9279 83.9377 49.2883 83.7224 48.7928 83.301C48.2973 82.8795 48.0541 82.3683 48.0541 81.7675C48.0541 81.3101 48.1982 80.9066 48.4955 80.5568C48.7928 80.2161 49.1712 80.0008 49.6306 79.9112C49.1081 79.8394 48.6667 79.6152 48.2883 79.2565C47.9189 78.8978 47.7297 78.4315 47.7297 77.8665C47.7297 77.185 48.009 76.6111 48.5586 76.1537C49.1171 75.6874 49.8739 75.4542 50.8469 75.4542C51.6126 75.4542 52.2703 75.6336 52.8198 76.0013C53.3694 76.3689 53.7387 76.8442 53.9459 77.4451L52.991 77.7589C52.7027 76.7725 51.991 76.2882 50.8649 76.2882C50.1261 76.2882 49.6036 76.4407 49.2793 76.7545C48.955 77.0684 48.7928 77.445 48.7928 77.8755C48.7928 78.3418 48.982 78.7274 49.3694 79.0144C49.7568 79.3014 50.2973 79.4538 50.991 79.4538H51.9459V79.4448Z" fill="#D6002B"/>
<path d="M31.0764 48.1783C31.7198 47.5969 32.4412 47.1511 33.1236 46.6472C33.884 46.0852 34.7029 45.5813 35.3074 44.8643C35.8143 44.2635 36.0483 43.6821 36.3018 42.9457C36.5552 42.2093 36.5747 40.6395 36.1653 39.9806C34.9759 38.0813 31.6613 36.434 29.4581 40.6007C29.4191 40.6588 29.3606 40.6976 29.3021 40.6976C29.2436 40.6976 29.1851 40.6588 29.1461 40.6007C26.9624 36.434 23.6283 38.0813 22.4389 39.9806C22.0295 40.6395 22.0489 42.2093 22.3024 42.9457C22.5559 43.6821 22.7899 44.2635 23.2968 44.8643C23.9012 45.5813 24.7201 46.0852 25.4805 46.6472C26.1825 47.1705 26.8844 47.6163 27.5278 48.1783C27.8593 48.469 29.2826 50 29.2826 50C29.2826 50 30.7644 48.469 31.0764 48.1783Z" fill="#D6002B"/>
<path d="M31.0764 15.1783C31.7198 14.5969 32.4412 14.1511 33.1236 13.6472C33.884 13.0852 34.7029 12.5813 35.3074 11.8643C35.8143 11.2635 36.0483 10.6821 36.3018 9.94569C36.5552 9.20925 36.5747 7.63948 36.1653 6.98056C34.9759 5.08132 31.6613 3.43401 29.4581 7.6007C29.4191 7.65884 29.3606 7.69761 29.3021 7.69761C29.2436 7.69761 29.1851 7.65884 29.1461 7.6007C26.9624 3.43401 23.6283 5.08132 22.4389 6.98056C22.0295 7.63948 22.0489 9.20925 22.3024 9.94569C22.5559 10.6821 22.7899 11.2635 23.2968 11.8643C23.9012 12.5813 24.7201 13.0852 25.4805 13.6472C26.1825 14.1705 26.8844 14.6163 27.5278 15.1783C27.8593 15.469 29.2826 17 29.2826 17C29.2826 17 30.7644 15.469 31.0764 15.1783Z" fill="#D6002B"/>
<path d="M27.5277 72.8217C26.8842 73.4031 26.1628 73.8489 25.4804 74.3528C24.72 74.9148 23.9011 75.4187 23.2966 76.1357C22.7897 76.7365 22.5557 77.3179 22.3022 78.0543C22.0488 78.7907 22.0293 80.3605 22.4387 81.0194C23.6281 82.9187 26.9427 84.566 29.1459 80.3993C29.1849 80.3412 29.2434 80.3024 29.3019 80.3024C29.3604 80.3024 29.4189 80.3412 29.4579 80.3993C31.6416 84.566 34.9757 82.9187 36.1651 81.0194C36.5745 80.3605 36.5551 78.7907 36.3016 78.0543C36.0481 77.3179 35.8141 76.7365 35.3072 76.1357C34.7028 75.4187 33.8839 74.9148 33.1235 74.3528C32.4215 73.8295 31.7196 73.3837 31.0762 72.8217C30.7447 72.531 29.3214 71 29.3214 71C29.3214 71 27.8396 72.531 27.5277 72.8217Z" fill="#D6002B"/>
<path d="M8.44458 17.7781C8.68342 17.5623 8.95121 17.3968 9.20452 17.2098C9.48677 17.0012 9.79074 16.8141 10.0151 16.548C10.2033 16.325 10.2901 16.1092 10.3842 15.8358C10.4783 15.5624 10.4855 14.9797 10.3335 14.7352C9.89206 14.0302 8.66171 13.4187 7.8439 14.9654C7.82942 14.9869 7.80772 15.0013 7.78601 15.0013C7.76429 15.0013 7.74257 14.9869 7.7281 14.9654C6.91751 13.4187 5.67993 14.0302 5.23845 14.7352C5.08647 14.9797 5.0937 15.5624 5.18778 15.8358C5.28187 16.1092 5.36873 16.325 5.5569 16.548C5.78125 16.8141 6.08522 17.0012 6.36747 17.2098C6.62802 17.404 6.88857 17.5695 7.12741 17.7781C7.25044 17.886 7.77876 18.4543 7.77876 18.4543C7.77876 18.4543 8.32879 17.886 8.44458 17.7781Z" fill="#D6002B"/>
<path d="M50.1274 69.6761C49.8886 69.892 49.6208 70.0574 49.3675 70.2445C49.0852 70.4531 48.7813 70.6401 48.5569 70.9063C48.3688 71.1293 48.2819 71.3451 48.1878 71.6184C48.0937 71.8918 48.0865 72.4745 48.2385 72.7191C48.68 73.424 49.9103 74.0355 50.7281 72.4889C50.7426 72.4673 50.7643 72.4529 50.786 72.4529C50.8077 72.4529 50.8295 72.4673 50.8439 72.4889C51.6545 74.0355 52.8921 73.424 53.3336 72.7191C53.4856 72.4745 53.4783 71.8918 53.3842 71.6184C53.2902 71.3451 53.2033 71.1293 53.0151 70.9063C52.7908 70.6401 52.4868 70.4531 52.2045 70.2445C51.944 70.0502 51.6834 69.8848 51.4446 69.6761C51.3216 69.5682 50.7933 68.9999 50.7933 68.9999C50.7933 68.9999 50.2432 69.5682 50.1274 69.6761Z" fill="#D6002B"/>
</svg>
