<svg width="58" height="88" viewBox="0 0 58 88" fill="none" xmlns="http://www.w3.org/2000/svg">
<path d="M53.0873 88H4.91264C2.20253 88 0 85.8072 0 83.1091V4.89089C0 2.19278 2.20253 0 4.91264 0H53.0873C55.7975 0 58 2.19278 58 4.89089V83.1091C57.9909 85.8072 55.7975 88 53.0873 88Z" fill="white"/>
<path d="M50.3137 71.6398C50.3137 71.4955 50.3681 71.2879 50.3681 71.1435C50.3681 70.9992 50.3681 70.8458 50.35 70.7014C50.2956 70.196 50.1143 69.7268 49.7336 69.3839C50.0781 69.3658 50.9301 69.3658 51.2745 69.3839C50.8938 69.7178 50.7125 70.196 50.6582 70.7014C50.64 70.8458 50.64 70.9992 50.64 71.1435C50.64 71.2879 50.6944 71.4955 50.6944 71.6398H50.3137Z" fill="#0C0A35"/>
<path d="M50.4407 71.0894C50.1416 70.6292 49.6069 70.3043 49.0449 70.3224C48.492 70.3404 47.9481 70.7465 47.8484 71.2879C47.7578 71.7662 47.9844 72.2535 48.3198 72.6054C48.6551 72.9573 49.1083 73.1919 49.5162 73.4626C49.9332 73.7334 50.5132 74.4101 50.5132 74.4101C50.5132 74.4101 51.1477 73.7514 51.5103 73.4717C51.9 73.1739 52.3804 72.9573 52.7067 72.5964C53.0421 72.2444 53.2687 71.7481 53.178 71.2789C53.0693 70.7375 52.5345 70.3314 51.9816 70.3133C51.4287 70.2953 50.8939 70.6201 50.5858 71.0804H50.4407V71.0894Z" fill="#0C0A35"/>
<path d="M7.49594 15.9631C7.49594 16.1075 7.43248 16.315 7.44155 16.4594C7.44155 16.6038 7.44155 16.7572 7.45968 16.9015C7.51406 17.4069 7.69535 17.8851 8.07603 18.219C7.7316 18.2371 6.87959 18.2371 6.53516 18.219C6.91584 17.8851 7.09713 17.4069 7.15151 16.9015C7.16964 16.7572 7.16964 16.6038 7.16964 16.4594C7.16964 16.315 7.11526 16.1075 7.11526 15.9631H7.49594Z" fill="#0C0A35"/>
<path d="M7.36893 16.5135C7.66804 16.9737 8.2028 17.2986 8.76477 17.2806C9.31767 17.2625 9.8615 16.8564 9.97027 16.315C10.0609 15.8368 9.83431 15.3495 9.49894 14.9975C9.16358 14.6456 8.71039 14.411 8.30251 14.1403C7.88557 13.8696 7.30548 13.1928 7.30548 13.1928C7.30548 13.1928 6.671 13.8515 6.30844 14.1313C5.91869 14.429 5.43831 14.6456 5.11201 15.0066C4.77665 15.3585 4.55004 15.8548 4.64068 16.324C4.74945 16.8655 5.28422 17.2715 5.84619 17.2896C6.39908 17.3076 6.93386 16.9828 7.24204 16.5226H7.36893V16.5135Z" fill="#0C0A35"/>
<path d="M6.21773 8.42822V7.62511H7.15131C7.83111 7.62511 8.32055 7.48975 8.61966 7.21001C8.90971 6.93027 9.0638 6.58737 9.0638 6.19032C9.0638 5.74816 8.90064 5.40525 8.57434 5.14356C8.24804 4.88187 7.83111 4.75554 7.34166 4.75554C6.42621 4.75554 5.78266 5.19771 5.43823 6.09106L4.51371 5.82937C5.03942 4.58409 6.01832 3.95242 7.44135 3.95242C8.23898 3.95242 8.88253 4.15997 9.38104 4.59311C9.87049 5.01723 10.1152 5.53159 10.1152 6.12716C10.1152 6.58737 9.97019 6.99344 9.67108 7.33634C9.37197 7.67925 9.00036 7.89582 8.52903 7.98606C9.04568 8.05825 9.49887 8.27482 9.87049 8.63577C10.2421 8.99672 10.4324 9.45693 10.4324 10.0254C10.4324 10.7022 10.1515 11.2797 9.59857 11.74C9.04567 12.2002 8.2843 12.4348 7.31446 12.4348C6.54402 12.4348 5.89142 12.2543 5.34759 11.8934C4.80375 11.5324 4.42307 11.0541 4.2146 10.4496L5.16631 10.1337C5.45636 11.1173 6.16335 11.6046 7.29634 11.6046C8.03052 11.6046 8.55622 11.4512 8.88252 11.1354C9.20883 10.8195 9.36291 10.4496 9.36291 10.0164C9.36291 9.54717 9.17257 9.16817 8.78282 8.87039C8.39307 8.58163 7.85829 8.43725 7.16037 8.43725H6.21773V8.42822Z" fill="#0C0A35"/>
<path d="M51.8095 79.5718V80.3749H50.8759C50.1961 80.3749 49.7066 80.5193 49.4075 80.799C49.1175 81.0788 48.9634 81.4217 48.9634 81.8187C48.9634 82.2609 49.1265 82.6038 49.4528 82.8655C49.7791 83.1272 50.1961 83.2535 50.6855 83.2535C51.601 83.2535 52.2445 82.8113 52.589 81.927L53.5135 82.1887C52.9878 83.434 52.0089 84.0656 50.5858 84.0656C49.7882 84.0656 49.1447 83.8581 48.6461 83.434C48.1567 83.0098 47.912 82.4955 47.912 81.8999C47.912 81.4397 48.057 81.0336 48.3561 80.6907C48.6552 80.3478 49.0359 80.1313 49.4982 80.041C48.9815 79.9688 48.5283 79.7523 48.1567 79.3913C47.7851 79.0304 47.5947 78.5701 47.5947 78.0016C47.5947 77.3249 47.8757 76.7473 48.4286 76.2871C48.9815 75.8269 49.7429 75.5923 50.7127 75.5923C51.4831 75.5923 52.1357 75.7728 52.6796 76.1337C53.2234 76.4947 53.6041 76.9729 53.8126 77.5775L52.8609 77.8934C52.5708 76.9098 51.8638 76.4225 50.7308 76.4225C49.9967 76.4225 49.471 76.5759 49.1447 76.8917C48.8274 77.2075 48.6643 77.5775 48.6643 78.0107C48.6643 78.4799 48.8546 78.8589 49.2444 79.1567C49.6341 79.4454 50.1689 79.5898 50.8668 79.5898H51.8095V79.5718Z" fill="#0C0A35"/>
<path d="M29.4938 11.4693C29.4938 11.8392 29.3488 12.3536 29.3488 12.7236C29.3488 13.0936 29.3488 13.4635 29.3941 13.8335C29.53 15.0878 29.9833 16.288 30.935 17.1272C30.083 17.1813 27.9257 17.1813 27.0737 17.1272C28.0164 16.288 28.4696 15.0878 28.6146 13.8335C28.6508 13.4635 28.6599 13.0936 28.6599 12.7236C28.6599 12.3626 28.5149 11.8392 28.5149 11.4693H29.4938Z" fill="#0C0A35"/>
<path d="M29.1767 12.8499C29.9381 14.0049 31.2705 14.8171 32.6572 14.772C34.044 14.7268 35.3945 13.7162 35.6665 12.3626C35.9021 11.1715 35.322 9.94423 34.4882 9.05088C33.6543 8.15752 32.5122 7.57098 31.4971 6.90322C30.4547 6.21741 28.9954 4.52094 28.9954 4.52094C28.9954 4.52094 27.4002 6.18131 26.5028 6.8581C25.533 7.59805 24.3275 8.15752 23.5027 9.05088C22.6688 9.94423 22.0887 11.1715 22.3244 12.3626C22.5963 13.7162 23.9468 14.7268 25.3336 14.772C26.7204 14.8171 28.0618 14.0049 28.8141 12.8499H29.1767Z" fill="#0C0A35"/>
<path d="M28.4968 76.5307C28.4968 76.1698 28.6418 75.6464 28.6418 75.2764C28.6418 74.9065 28.6418 74.5365 28.5965 74.1665C28.4606 72.9122 28.0074 71.712 27.0557 70.8728C27.9077 70.8187 30.0649 70.8187 30.9169 70.8728C29.9742 71.712 29.521 72.9122 29.376 74.1665C29.3398 74.5365 29.3307 74.9065 29.3307 75.2764C29.3307 75.6464 29.4757 76.1608 29.4757 76.5307H28.4968Z" fill="#0C0A35"/>
<path d="M28.8141 75.1501C28.0528 73.995 26.7204 73.1738 25.3336 73.228C23.9468 73.2731 22.5963 74.2838 22.3244 75.6373C22.0887 76.8285 22.6688 78.0557 23.5027 78.9491C24.3366 79.8424 25.4786 80.429 26.4938 81.0967C27.5361 81.7825 28.9954 83.479 28.9954 83.479C28.9954 83.479 30.5907 81.8186 31.488 81.1419C32.4578 80.4019 33.6633 79.8424 34.4882 78.9491C35.322 78.0557 35.9021 76.8285 35.6665 75.6373C35.3945 74.2838 34.044 73.2731 32.6572 73.228C31.2705 73.1829 29.929 73.995 29.1767 75.1501H28.8141Z" fill="#0C0A35"/>
<path d="M29.4938 44.6226C29.4938 44.9926 29.3488 45.5069 29.3488 45.8769C29.3488 46.2469 29.3488 46.6168 29.3941 46.9868C29.53 48.2411 29.9833 49.4413 30.935 50.2805C30.083 50.3346 27.9257 50.3346 27.0737 50.2805C28.0164 49.4413 28.4696 48.2411 28.6146 46.9868C28.6508 46.6168 28.6599 46.2469 28.6599 45.8769C28.6599 45.5069 28.5149 44.9926 28.5149 44.6226H29.4938Z" fill="#0C0A35"/>
<path d="M29.1767 46.0123C29.9381 47.1674 31.2705 47.9795 32.6572 47.9344C34.044 47.8893 35.3945 46.8786 35.6665 45.525C35.9021 44.3339 35.322 43.1066 34.4882 42.2133C33.6543 41.3199 32.5122 40.7334 31.4971 40.0656C30.4547 39.3798 28.9954 37.6833 28.9954 37.6833C28.9954 37.6833 27.4002 39.3437 26.5028 40.0205C25.533 40.7605 24.3275 41.3199 23.5027 42.2133C22.6688 43.1066 22.0887 44.3339 22.3244 45.525C22.5963 46.8786 23.9468 47.8893 25.3336 47.9344C26.7204 47.9795 28.0618 47.1674 28.8141 46.0123H29.1767Z" fill="#0C0A35"/>
</svg>
