<svg width="58" height="88" viewBox="0 0 58 88" fill="none" xmlns="http://www.w3.org/2000/svg">
<path d="M53.0908 88H4.90914C2.19785 88 0 85.8123 0 83.1136V4.8864C0 2.18767 2.19785 0 4.90914 0H53.0908C55.8021 0 58 2.18767 58 4.8864V83.1136C58 85.8123 55.8021 88 53.0908 88Z" fill="white"/>
<path d="M7.58435 16.5421C7.58435 16.6855 7.53031 16.8918 7.53031 17.0352C7.53031 17.1787 7.53031 17.3221 7.54833 17.4656C7.60237 17.9587 7.78252 18.4249 8.15184 18.7567C7.81855 18.7746 6.98084 18.7746 6.63855 18.7567C7.00786 18.4249 7.18801 17.9587 7.24206 17.4656C7.26007 17.3221 7.26008 17.1787 7.26008 17.0352C7.26008 16.8918 7.20603 16.6855 7.20603 16.5421H7.58435Z" fill="#0C0A35"/>
<path d="M7.48539 16.9007C7.62951 16.9186 7.71058 17.0531 7.96279 17.331C8.19699 17.5821 8.42218 17.851 8.94462 17.9138C9.20584 17.9497 9.56615 17.8062 9.72829 17.591C9.8634 17.4117 9.94448 17.1876 9.99852 16.9724C10.1066 16.56 10.0706 16.1565 9.8634 15.7799C9.66523 15.4123 9.11578 15.242 8.77349 15.4482C8.59333 15.5558 8.53027 15.6903 8.36813 15.7172C8.31409 15.7261 8.27806 15.6813 8.28707 15.6275C8.35012 15.3765 8.53027 15.3496 8.61134 15.0447C8.71043 14.6861 8.76447 14.4171 8.26005 13.9688C7.87272 13.6281 6.92693 13.664 6.52158 13.9688C6.10723 14.2826 6.06219 14.5695 6.16127 14.9282C6.24234 15.2061 6.39547 15.3316 6.47654 15.5737C6.50357 15.6544 6.4225 15.7351 6.35044 15.6992C6.23334 15.6544 6.16127 15.5379 6.00814 15.4482C5.67486 15.2509 5.1254 15.4123 4.92723 15.7799C4.72006 16.1565 4.68402 16.56 4.79211 16.9724C4.84616 17.1876 4.92723 17.4117 5.06234 17.591C5.22448 17.8062 5.57578 17.9497 5.84601 17.9138C6.36845 17.851 6.60265 17.5821 6.82784 17.331C7.08906 17.0531 7.16112 16.9186 7.30524 16.9007H7.48539Z" fill="#0C0A35"/>
<path d="M50.3885 71.4579C50.3885 71.3145 50.4425 71.1083 50.4425 70.9648C50.4425 70.8214 50.4426 70.6779 50.4245 70.5344C50.3705 70.0413 50.1904 69.5751 49.821 69.2434C50.1543 69.2254 50.992 69.2254 51.3343 69.2434C50.965 69.5751 50.7848 70.0413 50.7308 70.5344C50.7128 70.6779 50.7128 70.8214 50.7128 70.9648C50.7128 71.1083 50.7668 71.3145 50.7668 71.4579H50.3885Z" fill="#0C0A35"/>
<path d="M50.4876 71.0992C50.3435 71.0813 50.2624 70.9468 50.0102 70.6689C49.776 70.4178 49.5508 70.1489 49.0284 70.0861C48.7672 70.0502 48.4069 70.1937 48.2447 70.4089C48.1096 70.5882 48.0285 70.8123 47.9745 71.0275C47.8664 71.4399 47.9024 71.8434 48.1096 72.22C48.3078 72.5876 48.8572 72.7579 49.1995 72.5517C49.3797 72.4441 49.4427 72.3096 49.6049 72.2827C49.6589 72.2738 49.6949 72.3186 49.6859 72.3724C49.6229 72.6234 49.4427 72.6503 49.3617 72.9552C49.2626 73.3048 49.2085 73.5828 49.7129 74.0311C50.1003 74.3718 51.0461 74.3359 51.4514 74.0311C51.8658 73.7173 51.9108 73.4304 51.8117 73.0717C51.7307 72.7938 51.5775 72.6683 51.4965 72.4262C51.4694 72.3455 51.5505 72.2648 51.6226 72.3007C51.7397 72.3455 51.8117 72.462 51.9649 72.5517C52.2981 72.749 52.8476 72.5876 53.0458 72.22C53.253 71.8434 53.289 71.4399 53.1809 71.0275C53.1268 70.8123 53.0458 70.5882 52.9107 70.4089C52.7485 70.1937 52.3972 70.0502 52.127 70.0861C51.6046 70.1489 51.3794 70.4178 51.1452 70.6689C50.884 70.9468 50.8119 71.0813 50.6678 71.0992H50.4876Z" fill="#0C0A35"/>
<path d="M19.2943 12.382C19.2943 12.7496 19.4384 13.2696 19.4384 13.6372C19.4384 14.0048 19.4384 14.3814 19.3933 14.74C19.2582 15.9952 18.7988 17.1877 17.853 18.0305C18.7088 18.0843 20.8526 18.0843 21.7083 18.0305C20.7625 17.1877 20.3121 15.9952 20.168 14.74C20.132 14.3724 20.1229 14.0048 20.1229 13.6372C20.1229 13.2696 20.2671 12.7496 20.2671 12.382H19.2943Z" fill="#0C0A35"/>
<path d="M19.5555 13.2875C19.1952 13.3413 18.988 13.682 18.3305 14.3903C17.736 15.0268 17.1504 15.7082 15.8173 15.8696C15.1418 15.9503 14.232 15.5917 13.8176 15.0448C13.4663 14.5785 13.2772 14.0227 13.1331 13.4578C12.8538 12.4088 12.9619 11.3688 13.4754 10.4094C13.9888 9.45903 15.385 9.03764 16.2497 9.55766C16.7091 9.8356 16.8622 10.1673 17.2856 10.248C17.4117 10.2749 17.5288 10.1494 17.4927 10.0239C17.3216 9.37834 16.8712 9.30661 16.655 8.53555C16.4028 7.62999 16.2587 6.93066 17.5558 5.79199C18.5466 4.9223 20.9607 5.00299 22.0055 5.79199C23.0684 6.59892 23.1765 7.32516 22.9153 8.23071C22.7172 8.94798 22.3028 9.27075 22.1136 9.87146C22.0506 10.0777 22.2488 10.2749 22.4469 10.1942C22.7532 10.0687 22.9243 9.79077 23.3207 9.55766C24.1854 9.0466 25.5726 9.45903 26.095 10.4094C26.6174 11.3688 26.7165 12.4088 26.4373 13.4578C26.2932 14.0137 26.095 14.5785 25.7527 15.0448C25.3384 15.5917 24.4376 15.9593 23.753 15.8696C22.4199 15.7082 21.8344 15.0268 21.2399 14.3903C20.5824 13.682 20.3752 13.3413 20.0149 13.2875H19.5555Z" fill="#0C0A35"/>
<path d="M37.706 12.382C37.706 12.7496 37.8501 13.2696 37.8501 13.6372C37.8501 14.0048 37.8501 14.3814 37.8051 14.74C37.67 15.9952 37.2106 17.1877 36.2648 18.0305C37.1205 18.0843 39.2643 18.0843 40.12 18.0305C39.1742 17.1877 38.7239 15.9952 38.5797 14.74C38.5437 14.3724 38.5347 14.0048 38.5347 13.6372C38.5347 13.2696 38.6788 12.7496 38.6788 12.382H37.706Z" fill="#0C0A35"/>
<path d="M37.9671 13.2875C37.6068 13.3413 37.3996 13.682 36.7421 14.3903C36.1476 15.0268 35.5621 15.7082 34.2289 15.8696C33.5534 15.9503 32.6436 15.5917 32.2293 15.0448C31.878 14.5785 31.6888 14.0227 31.5447 13.4578C31.2654 12.4088 31.3735 11.3688 31.887 10.4094C32.4004 9.45903 33.7966 9.03764 34.6613 9.55766C35.1207 9.8356 35.2738 10.1673 35.6972 10.248C35.8233 10.2749 35.9404 10.1494 35.9044 10.0239C35.7332 9.37834 35.2828 9.30661 35.0667 8.53555C34.8144 7.62999 34.6703 6.93066 35.9674 5.79199C36.9583 4.9223 39.3723 5.00299 40.4172 5.79199C41.4801 6.59892 41.5882 7.32516 41.3269 8.23071C41.1288 8.94798 40.7144 9.27075 40.5253 9.87146C40.4622 10.0777 40.6604 10.2749 40.8585 10.1942C41.1648 10.0687 41.336 9.79077 41.7323 9.55766C42.597 9.0466 43.9842 9.45903 44.5066 10.4094C45.0291 11.3688 45.1281 12.4088 44.8489 13.4578C44.7048 14.0137 44.5066 14.5785 44.1644 15.0448C43.75 15.5917 42.8492 15.9593 42.1647 15.8696C40.8315 15.7082 40.246 15.0268 39.6515 14.3903C38.994 13.682 38.7868 13.3413 38.4265 13.2875H37.9671Z" fill="#0C0A35"/>
<path d="M38.6966 75.6271C38.6966 75.2595 38.5525 74.7395 38.5525 74.3719C38.5525 74.0043 38.5525 73.6367 38.5975 73.2691C38.7326 72.0139 39.192 70.8214 40.1378 69.9786C39.2821 69.9248 37.1383 69.9248 36.2826 69.9786C37.2284 70.8214 37.6788 72.0139 37.8229 73.2691C37.8589 73.6367 37.8679 74.0043 37.8679 74.3719C37.8679 74.7395 37.7238 75.2595 37.7238 75.6271H38.6966Z" fill="#0C0A35"/>
<path d="M38.4353 74.7126C38.7956 74.6588 39.0028 74.3181 39.6604 73.6098C40.2549 72.9733 40.8403 72.2918 42.1735 72.1305C42.849 72.0498 43.7588 72.4084 44.1732 72.9553C44.5245 73.4215 44.7136 73.9774 44.8578 74.5423C45.137 75.5913 45.0289 76.6313 44.5155 77.5907C44.002 78.5411 42.6059 78.9625 41.7411 78.4424C41.2817 78.1645 41.1286 77.8328 40.7052 77.7521C40.5791 77.7252 40.462 77.8507 40.4981 77.9762C40.6692 78.6218 41.1196 78.6935 41.3358 79.4645C41.588 80.3701 41.7321 81.0694 40.435 82.2081C39.4442 83.0778 37.0301 82.9971 35.9852 82.2081C34.9224 81.4012 34.8143 80.6749 35.0755 79.7694C35.2736 79.0521 35.688 78.7293 35.8772 78.1286C35.9402 77.9224 35.7421 77.7252 35.5439 77.8059C35.2376 77.9314 35.0665 78.2093 34.6701 78.4424C33.8054 78.9535 32.4182 78.5321 31.8958 77.5907C31.3734 76.6313 31.2743 75.5913 31.5535 74.5423C31.6976 73.9864 31.8958 73.4215 32.2381 72.9553C32.6434 72.4084 33.5532 72.0498 34.2378 72.1305C35.5709 72.2918 36.1564 72.9733 36.7509 73.6098C37.4085 74.3181 37.6156 74.6588 37.9759 74.7126H38.4353Z" fill="#0C0A35"/>
<path d="M20.2942 75.6271C20.2942 75.2595 20.15 74.7395 20.15 74.3719C20.15 74.0043 20.15 73.6367 20.1951 73.2691C20.3302 72.0139 20.7896 70.8214 21.7354 69.9786C20.8797 69.9248 18.7358 69.9248 17.8801 69.9786C18.8259 70.8214 19.2763 72.0139 19.4204 73.2691C19.4565 73.6367 19.4655 74.0043 19.4655 74.3719C19.4655 74.7395 19.3213 75.2595 19.3213 75.6271H20.2942Z" fill="#0C0A35"/>
<path d="M20.0329 74.7126C20.3932 74.6588 20.6003 74.3181 21.2579 73.6098C21.8524 72.9733 22.4379 72.2918 23.771 72.1305C24.4466 72.0498 25.3564 72.4084 25.7707 72.9553C26.122 73.4215 26.3112 73.9774 26.4553 74.5423C26.7345 75.5913 26.6264 76.6313 26.113 77.5907C25.5996 78.5411 24.2034 78.9625 23.3386 78.4424C22.8793 78.1645 22.7261 77.8328 22.3028 77.7521C22.1767 77.7252 22.0596 77.8507 22.0956 77.9762C22.2667 78.6218 22.7171 78.6935 22.9333 79.4645C23.1855 80.3701 23.3296 81.0694 22.0325 82.2081C21.0417 83.0778 18.6277 82.9971 17.5828 82.2081C16.5199 81.4012 16.4118 80.6749 16.673 79.7694C16.8712 79.0521 17.2855 78.7293 17.4747 78.1286C17.5377 77.9224 17.3396 77.7252 17.1414 77.8059C16.8352 77.9314 16.664 78.2093 16.2677 78.4424C15.4029 78.9535 14.0158 78.5321 13.4933 77.5907C12.9709 76.6313 12.8718 75.5913 13.151 74.5423C13.2952 73.9864 13.4933 73.4215 13.8356 72.9553C14.25 72.4084 15.1507 72.0498 15.8353 72.1305C17.1684 72.2918 17.7539 72.9733 18.3484 73.6098C19.006 74.3181 19.2132 74.6588 19.5735 74.7126H20.0329Z" fill="#0C0A35"/>
<path d="M9.23426 11.5541L8.25471 11.5496L8.25547 9.60844L4.20164 9.60398L4.20667 8.91766L7.96793 3.23458L9.23767 3.23871L9.23627 8.80934L10.5604 8.8117L10.5591 9.61528L9.23503 9.61291L9.23426 11.5541ZM8.24795 8.81418L8.25065 4.96795C8.25067 4.68807 8.25918 4.38985 8.26681 4.06458C8.09553 4.37708 7.94968 4.63459 7.81991 4.82838L5.25521 8.81155L8.24795 8.81418Z" fill="#0C0A35"/>
<path d="M48.7836 76.1604L49.7631 76.1649L49.7624 78.106L53.8162 78.1105L53.8112 78.7968L50.0499 84.4799L48.7802 84.4758L48.7816 78.9051L47.4574 78.9028L47.4587 78.0992L48.7828 78.1016L48.7836 76.1604ZM49.7699 78.9003L49.7672 82.7465C49.7672 83.0264 49.7586 83.3246 49.751 83.6499C49.9223 83.3374 50.0681 83.0799 50.1979 82.8861L52.7626 78.9029L49.7699 78.9003Z" fill="#0C0A35"/>
</svg>
