<svg width="58" height="88" viewBox="0 0 58 88" fill="none" xmlns="http://www.w3.org/2000/svg">
<path d="M53.0901 88H4.90991C2.1982 88 0 85.8119 0 83.1126V4.88739C0 2.18812 2.1982 0 4.90991 0H53.0901C55.8018 0 58 2.18812 58 4.88739V83.1126C58 85.8119 55.8018 88 53.0901 88Z" fill="white"/>
<path d="M7.38745 17.8816C7.45952 17.8816 7.52257 17.8636 7.57663 17.8278C8.00005 17.5498 9.10816 16.3929 9.42348 16.0701C9.48654 16.0073 9.5496 15.9356 9.53158 15.8459C9.52257 15.7741 9.46852 15.7203 9.42348 15.6755C8.946 15.2002 8.4415 14.7518 7.99105 14.2496C7.79285 14.0344 7.56762 13.7833 7.42348 13.7744H7.3514C7.20726 13.7833 6.97303 14.0344 6.78384 14.2496C6.33339 14.7518 5.82888 15.2002 5.3514 15.6755C5.30636 15.7203 5.25231 15.7831 5.2433 15.8459C5.23429 15.9356 5.29735 16.0073 5.3514 16.0701C5.67573 16.3929 6.77483 17.5498 7.19825 17.8278C7.2523 17.8636 7.32438 17.8816 7.38745 17.8816Z" fill="#D6002B"/>
<path d="M50.6307 73.9027C50.7028 73.9027 50.7659 73.8848 50.8199 73.8489C51.2433 73.5709 52.3514 72.4141 52.6667 72.0913C52.7298 72.0285 52.7929 71.9567 52.7749 71.8671C52.7658 71.7953 52.7118 71.7415 52.6667 71.6967C52.1893 71.2214 51.6848 70.773 51.2343 70.2708C51.0361 70.0556 50.8109 69.8045 50.6667 69.7955H50.5947C50.4505 69.8045 50.2163 70.0556 50.0271 70.2708C49.5767 70.773 49.0722 71.2214 48.5947 71.6967C48.5496 71.7415 48.4956 71.8043 48.4866 71.8671C48.4776 71.9567 48.5406 72.0285 48.5947 72.0913C48.919 72.4141 50.0181 73.5709 50.4415 73.8489C50.4956 73.8848 50.5586 73.9027 50.6307 73.9027Z" fill="#D6002B"/>
<path d="M19.9369 18.59C20.1621 18.59 20.3783 18.5273 20.5585 18.4107C21.9639 17.4781 25.5856 13.6758 26.6396 12.6086C26.8378 12.4113 27.045 12.1602 27.009 11.8732C26.982 11.6491 26.8108 11.4697 26.6486 11.3083C25.072 9.73893 23.4054 8.25926 21.9189 6.60921C21.2792 5.90076 20.5225 5.07573 20.045 5.04883H19.8018C19.3243 5.07573 18.5675 5.90076 17.9279 6.60921C16.4414 8.25926 14.7747 9.73893 13.1982 11.3083C13.036 11.4697 12.8648 11.6491 12.8378 11.8732C12.8108 12.1512 13.009 12.4023 13.2072 12.6086C14.2612 13.6758 17.8828 17.4781 19.2882 18.4107C19.4955 18.5273 19.7117 18.59 19.9369 18.59Z" fill="#D6002B"/>
<path d="M38.063 18.59C38.2882 18.59 38.5045 18.5273 38.6846 18.4107C40.09 17.4781 43.7117 13.6758 44.7657 12.6086C44.9639 12.4113 45.1711 12.1602 45.1351 11.8732C45.1081 11.6491 44.9369 11.4697 44.7747 11.3083C43.1981 9.73893 41.5315 8.25926 40.045 6.60921C39.4053 5.90076 38.6486 5.07573 38.1711 5.04883H37.9279C37.4504 5.07573 36.6936 5.90076 36.054 6.60921C34.5675 8.25926 32.9008 9.73893 31.3243 11.3083C31.1621 11.4697 30.9909 11.6491 30.9639 11.8732C30.9369 12.1512 31.1351 12.4023 31.3333 12.6086C32.3873 13.6758 36.009 17.4781 37.4144 18.4107C37.6126 18.5273 37.8378 18.59 38.063 18.59Z" fill="#D6002B"/>
<path d="M38.054 69.419C37.8287 69.419 37.6125 69.4817 37.4323 69.5983C36.0269 70.531 32.4053 74.3333 31.3513 75.4004C31.1531 75.5977 30.9459 75.8488 30.9819 76.1268C31.0089 76.351 31.1801 76.5304 31.3423 76.6918C32.9188 78.2611 34.5855 79.7318 36.072 81.3908C36.7116 82.0993 37.4684 82.9243 37.9459 82.9512H38.1891C38.6666 82.9243 39.4233 82.0993 40.063 81.3908C41.5495 79.7408 43.2161 78.2611 44.7927 76.6918C44.9549 76.5304 45.126 76.351 45.1531 76.1268C45.1891 75.8488 44.9819 75.5977 44.7837 75.4004C43.7296 74.3333 40.108 70.531 38.7026 69.5983C38.4954 69.4817 38.2792 69.419 38.054 69.419Z" fill="#D6002B"/>
<path d="M19.9369 69.419C19.7117 69.419 19.4955 69.4817 19.3153 69.5983C17.9099 70.531 14.2882 74.3333 13.2342 75.4004C13.036 75.5977 12.8288 75.8488 12.8648 76.1268C12.8919 76.351 13.063 76.5304 13.2252 76.6918C14.8018 78.2611 16.4684 79.7318 17.9549 81.3908C18.5946 82.0993 19.3513 82.9243 19.8288 82.9512H20.072C20.5495 82.9243 21.3063 82.0993 21.9459 81.3908C23.4324 79.7408 25.0991 78.2611 26.6756 76.6918C26.8378 76.5304 27.009 76.351 27.036 76.1268C27.063 75.8488 26.8648 75.5977 26.6666 75.4004C25.6126 74.3333 21.9909 70.531 20.5855 69.5983C20.3783 69.4817 20.1621 69.419 19.9369 69.419Z" fill="#D6002B"/>
<path d="M9.91189 11.5478L8.92925 11.5465L8.92401 9.60847L4.86773 9.6169L4.86141 8.92618L8.60896 3.23061L9.88002 3.23065L9.89589 8.79352L11.221 8.79166L11.2224 9.59921L9.89733 9.60106L9.91189 11.5478ZM8.92289 8.80988L8.91336 4.96069C8.91257 4.68254 8.92015 4.38616 8.92678 4.06289C8.75746 4.37395 8.60424 4.6306 8.48483 4.82325L5.93929 8.81639L8.92289 8.80988Z" fill="#D6002B"/>
<path d="M48.0958 76.4572L49.0784 76.456L49.0886 78.394L53.1448 78.3753L53.1526 79.057L49.4195 84.7621L48.1484 84.7653L48.1181 79.1935L46.793 79.1987L46.7895 78.3912L48.1146 78.386L48.0958 76.4572ZM49.0917 79.1926L49.111 83.0417C49.1125 83.3199 49.1057 83.6163 49.0999 83.9396C49.2684 83.6281 49.421 83.371 49.5399 83.1781L52.0753 79.1785L49.0917 79.1926Z" fill="#D6002B"/>
</svg>
