<svg width="58" height="88" viewBox="0 0 58 88" fill="none" xmlns="http://www.w3.org/2000/svg">
<path d="M53.0901 88H4.90991C2.1982 88 0 85.8119 0 83.1126V4.88739C0 2.18812 2.1982 0 4.90991 0H53.0901C55.8018 0 58 2.18812 58 4.88739V83.1126C58 85.8119 55.8018 88 53.0901 88Z" fill="white"/>
<path d="M9.91189 11.5477L8.92925 11.5464L8.92401 9.60841L4.86773 9.61684L4.86141 8.92612L8.60896 3.23055L9.88002 3.23059L9.89589 8.79346L11.221 8.7916L11.2224 9.59914L9.89733 9.601L9.91189 11.5477ZM8.92289 8.80982L8.91336 4.96063C8.91257 4.68248 8.92015 4.3861 8.92678 4.06283C8.75746 4.37389 8.60424 4.63054 8.48483 4.82319L5.93929 8.81633L8.92289 8.80982Z" fill="#D6002B"/>
<path d="M48.0958 76.4572L49.0784 76.4559L49.0886 78.3939L53.1448 78.3752L53.1526 79.057L49.4195 84.762L48.1484 84.7652L48.1181 79.1934L46.793 79.1986L46.7895 78.3911L48.1146 78.3859L48.0958 76.4572ZM49.0917 79.1925L49.111 83.0417C49.1125 83.3198 49.1057 83.6162 49.0999 83.9395C49.2684 83.628 49.421 83.371 49.5399 83.178L52.0753 79.1785L49.0917 79.1925Z" fill="#D6002B"/>
<path d="M18.0876 72.8217C17.4442 73.4031 16.7227 73.8489 16.0403 74.3528C15.2799 74.9148 14.461 75.4187 13.8566 76.1357C13.3496 76.7365 13.1156 77.3179 12.8622 78.0543C12.6087 78.7907 12.5892 80.3605 12.9987 81.0194C14.188 82.9187 17.5026 84.566 19.7059 80.3993C19.7449 80.3412 19.8033 80.3024 19.8618 80.3024C19.9203 80.3024 19.9788 80.3412 20.0178 80.3993C22.2016 84.566 25.5357 82.9187 26.725 81.0194C27.1345 80.3605 27.115 78.7907 26.8615 78.0543C26.6081 77.3179 26.3741 76.7365 25.8671 76.1357C25.2627 75.4187 24.4438 74.9148 23.6834 74.3528C22.9815 73.8295 22.2795 73.3837 21.6361 72.8217C21.3047 72.531 19.8813 71 19.8813 71C19.8813 71 18.3996 72.531 18.0876 72.8217Z" fill="#D6002B"/>
<path d="M36.4515 72.8217C35.8081 73.4031 35.0866 73.8489 34.4042 74.3528C33.6438 74.9148 32.8249 75.4187 32.2205 76.1357C31.7135 76.7365 31.4795 77.3179 31.2261 78.0543C30.9726 78.7907 30.9531 80.3605 31.3626 81.0194C32.5519 82.9187 35.8665 84.566 38.0698 80.3993C38.1088 80.3412 38.1672 80.3024 38.2257 80.3024C38.2842 80.3024 38.3427 80.3412 38.3817 80.3993C40.5655 84.566 43.8996 82.9187 45.0889 81.0194C45.4984 80.3605 45.4789 78.7907 45.2254 78.0543C44.9719 77.3179 44.738 76.7365 44.231 76.1357C43.6266 75.4187 42.8077 74.9148 42.0473 74.3528C41.3454 73.8295 40.6434 73.3837 40 72.8217C39.6685 72.531 38.2452 71 38.2452 71C38.2452 71 36.7634 72.531 36.4515 72.8217Z" fill="#D6002B"/>
<path d="M40.0001 15.1783C40.6435 14.5969 41.3649 14.1511 42.0473 13.6472C42.8078 13.0852 43.6266 12.5813 44.2311 11.8643C44.738 11.2635 44.972 10.6821 45.2255 9.94569C45.4789 9.20925 45.4984 7.63948 45.089 6.98056C43.8996 5.08132 40.585 3.43401 38.3818 7.6007C38.3428 7.65884 38.2843 7.69761 38.2258 7.69761C38.1673 7.69761 38.1088 7.65884 38.0698 7.6007C35.8861 3.43401 32.552 5.08132 31.3626 6.98056C30.9532 7.63948 30.9727 9.20925 31.2261 9.94569C31.4796 10.6821 31.7136 11.2635 32.2205 11.8643C32.8249 12.5813 33.6438 13.0852 34.4042 13.6472C35.1062 14.1705 35.8081 14.6163 36.4515 15.1783C36.783 15.469 38.2063 17 38.2063 17C38.2063 17 39.6881 15.469 40.0001 15.1783Z" fill="#D6002B"/>
<path d="M21.6362 15.1783C22.2796 14.5969 23.001 14.1511 23.6835 13.6472C24.4439 13.0852 25.2628 12.5813 25.8672 11.8643C26.3741 11.2635 26.6081 10.6821 26.8616 9.94569C27.115 9.20925 27.1345 7.63948 26.7251 6.98056C25.5357 5.08132 22.2211 3.43401 20.0179 7.6007C19.9789 7.65884 19.9204 7.69761 19.8619 7.69761C19.8034 7.69761 19.7449 7.65884 19.7059 7.6007C17.5222 3.43401 14.1881 5.08132 12.9987 6.98056C12.5893 7.63948 12.6088 9.20925 12.8622 9.94569C13.1157 10.6821 13.3497 11.2635 13.8566 11.8643C14.4611 12.5813 15.2799 13.0852 16.0404 13.6472C16.7423 14.1705 17.4442 14.6163 18.0876 15.1783C18.4191 15.469 19.8424 17 19.8424 17C19.8424 17 21.3242 15.469 21.6362 15.1783Z" fill="#D6002B"/>
<path d="M8.0044 17.7781C8.24323 17.5623 8.51103 17.3968 8.76433 17.2098C9.04659 17.0012 9.35055 16.8141 9.57491 16.548C9.76308 16.325 9.84994 16.1092 9.94402 15.8358C10.0381 15.5624 10.0453 14.9797 9.89335 14.7352C9.45188 14.0302 8.22153 13.4187 7.40371 14.9654C7.38924 14.9869 7.36753 15.0013 7.34582 15.0013C7.32411 15.0013 7.30239 14.9869 7.28791 14.9654C6.47733 13.4187 5.23974 14.0302 4.79827 14.7352C4.64628 14.9797 4.65351 15.5624 4.7476 15.8358C4.84168 16.1092 4.92854 16.325 5.11671 16.548C5.34107 16.8141 5.64503 17.0012 5.92729 17.2098C6.18783 17.404 6.44839 17.5695 6.68722 17.7781C6.81026 17.886 7.33858 18.4543 7.33858 18.4543C7.33858 18.4543 7.8886 17.886 8.0044 17.7781Z" fill="#D6002B"/>
<path d="M49.6873 69.6761C49.4484 69.892 49.1806 70.0574 48.9273 70.2445C48.6451 70.4531 48.3411 70.6401 48.1167 70.9063C47.9286 71.1293 47.8417 71.3451 47.7476 71.6184C47.6535 71.8918 47.6463 72.4745 47.7983 72.7191C48.2398 73.424 49.4701 74.0355 50.2879 72.4889C50.3024 72.4673 50.3241 72.4529 50.3458 72.4529C50.3675 72.4529 50.3893 72.4673 50.4037 72.4889C51.2143 74.0355 52.4519 73.424 52.8934 72.7191C53.0454 72.4745 53.0381 71.8918 52.9441 71.6184C52.85 71.3451 52.7631 71.1293 52.5749 70.9063C52.3506 70.6401 52.0466 70.4531 51.7644 70.2445C51.5038 70.0502 51.2433 69.8848 51.0044 69.6761C50.8814 69.5682 50.3531 68.9999 50.3531 68.9999C50.3531 68.9999 49.803 69.5682 49.6873 69.6761Z" fill="#D6002B"/>
</svg>
