<svg width="58" height="88" viewBox="0 0 58 88" fill="none" xmlns="http://www.w3.org/2000/svg">
<path d="M53.0873 88H4.91264C2.20253 88 0 85.8072 0 83.1091V4.89089C0 2.19278 2.20253 0 4.91264 0H53.0873C55.7975 0 58 2.19278 58 4.89089V83.1091C58 85.8072 55.7975 88 53.0873 88Z" fill="white"/>
<path d="M20.6566 11.4693C20.6566 11.8392 20.5116 12.3536 20.5116 12.7236C20.5116 13.0936 20.5116 13.4635 20.5569 13.8335C20.6929 15.0878 21.1461 16.288 22.0978 17.1272C21.2458 17.1813 19.0886 17.1813 18.2366 17.1272C19.1792 16.288 19.6324 15.0878 19.7774 13.8335C19.8137 13.4635 19.8228 13.0936 19.8228 12.7236C19.8228 12.3626 19.6777 11.8392 19.6777 11.4693H20.6566Z" fill="#0C0A35"/>
<path d="M20.3393 12.8499C21.1007 14.0049 22.4331 14.8171 23.8198 14.772C25.2066 14.7268 26.5571 13.7162 26.8291 12.3626C27.0647 11.1715 26.4846 9.94423 25.6507 9.05088C24.8169 8.15752 23.6748 7.57098 22.6597 6.90322C21.6173 6.21741 20.158 4.52094 20.158 4.52094C20.158 4.52094 18.5628 6.18131 17.6654 6.8581C16.6956 7.59805 15.4901 8.15752 14.6653 9.05088C13.8314 9.94423 13.2513 11.1715 13.487 12.3626C13.7589 13.7162 15.1094 14.7268 16.4962 14.772C17.883 14.8171 19.2244 14.0049 19.9767 12.8499H20.3393Z" fill="#0C0A35"/>
<path d="M38.3493 11.4693C38.3493 11.8392 38.2043 12.3536 38.2043 12.7236C38.2043 13.0936 38.2042 13.4635 38.2496 13.8335C38.3855 15.0878 38.8387 16.288 39.7904 17.1272C38.9384 17.1813 36.7812 17.1813 35.9292 17.1272C36.8718 16.288 37.3251 15.0878 37.4701 13.8335C37.5063 13.4635 37.5154 13.0936 37.5154 12.7236C37.5154 12.3626 37.3704 11.8392 37.3704 11.4693H38.3493Z" fill="#0C0A35"/>
<path d="M38.0322 12.8499C38.7935 14.0049 40.1259 14.8171 41.5127 14.772C42.8995 14.7268 44.25 13.7162 44.5219 12.3626C44.7576 11.1715 44.1775 9.94423 43.3436 9.05088C42.5097 8.15752 41.3677 7.57098 40.3525 6.90322C39.3102 6.21741 37.8509 4.52094 37.8509 4.52094C37.8509 4.52094 36.2556 6.18131 35.3583 6.8581C34.3885 7.59805 33.183 8.15752 32.3581 9.05088C31.5243 9.94423 30.9442 11.1715 31.1798 12.3626C31.4518 13.7162 32.8023 14.7268 34.1891 14.772C35.5758 14.8171 36.9173 14.0049 37.6696 12.8499H38.0322Z" fill="#0C0A35"/>
<path d="M50.3137 71.6398C50.3137 71.4955 50.3772 71.2879 50.3681 71.1435C50.3681 70.9992 50.3681 70.8458 50.35 70.7014C50.2956 70.196 50.1143 69.7268 49.7336 69.3839C50.0781 69.3658 50.9301 69.3658 51.2745 69.3839C50.8938 69.7178 50.7125 70.196 50.6582 70.7014C50.64 70.8458 50.64 70.9992 50.64 71.1435C50.64 71.2879 50.7035 71.4955 50.6944 71.6398H50.3137Z" fill="#0C0A35"/>
<path d="M50.4408 71.0894C50.1416 70.6292 49.6069 70.3043 49.0449 70.3224C48.492 70.3404 47.9482 70.7465 47.8394 71.2879C47.7488 71.7662 47.9754 72.2535 48.3107 72.6054C48.6461 72.9573 49.0993 73.1919 49.5072 73.4626C49.9241 73.7334 50.5042 74.4101 50.5042 74.4101C50.5042 74.4101 51.1387 73.7514 51.5012 73.4717C51.891 73.1739 52.3714 72.9573 52.6977 72.5964C53.033 72.2444 53.2596 71.7481 53.169 71.2789C53.0602 70.7375 52.5254 70.3314 51.9635 70.3133C51.4106 70.2953 50.8758 70.6201 50.5676 71.0804H50.4408V71.0894Z" fill="#0C0A35"/>
<path d="M7.49593 15.9631C7.49593 16.1075 7.43248 16.315 7.44155 16.4594C7.44155 16.6038 7.44154 16.7572 7.45967 16.9015C7.51405 17.4069 7.69533 17.8851 8.07602 18.219C7.73159 18.2371 6.87959 18.2371 6.53516 18.219C6.91584 17.8851 7.09711 17.4069 7.1515 16.9015C7.16962 16.7572 7.16963 16.6038 7.16963 16.4594C7.16963 16.315 7.10618 16.1075 7.11525 15.9631H7.49593Z" fill="#0C0A35"/>
<path d="M7.36896 16.5135C7.66807 16.9737 8.20283 17.2986 8.76479 17.2806C9.32676 17.2625 9.86153 16.8564 9.96124 16.315C10.0519 15.8368 9.82527 15.3495 9.48991 14.9975C9.15454 14.6456 8.70136 14.411 8.29348 14.1403C7.87654 13.8696 7.29644 13.1928 7.29644 13.1928C7.29644 13.1928 6.66196 13.8515 6.29941 14.1313C5.90966 14.429 5.42928 14.6456 5.10298 15.0066C4.76761 15.3585 4.54101 15.8548 4.63165 16.324C4.74042 16.8655 5.27519 17.2715 5.82809 17.2896C6.38099 17.3076 6.91576 16.9828 7.22393 16.5226H7.36896V16.5135Z" fill="#0C0A35"/>
<path d="M9.91395 11.5541L8.93439 11.5496L8.93515 9.60846L4.88132 9.604L4.88635 8.91767L8.64762 3.2346L9.91735 3.23872L9.91596 8.80935L11.2401 8.81172L11.2388 9.61529L9.91471 9.61293L9.91395 11.5541ZM8.92763 8.8142L8.93033 4.96797C8.93036 4.68808 8.93887 4.38987 8.94649 4.06459C8.77522 4.3771 8.62937 4.63461 8.4996 4.8284L5.93489 8.81157L8.92763 8.8142Z" fill="#0C0A35"/>
<path d="M49.4632 76.1604L50.4428 76.1649L50.442 78.106L54.4959 78.1105L54.4908 78.7968L50.7296 84.4799L49.4598 84.4758L49.4612 78.9051L48.1371 78.9028L48.1384 78.0992L49.4625 78.1016L49.4632 76.1604ZM50.4496 78.9003L50.4469 82.7465C50.4468 83.0264 50.4383 83.3246 50.4307 83.6499C50.602 83.3374 50.7478 83.0799 50.8776 82.8861L53.4423 78.9029L50.4496 78.9003Z" fill="#0C0A35"/>
<path d="M37.3523 76.5307C37.3523 76.1698 37.4973 75.6464 37.4973 75.2764C37.4973 74.9065 37.4973 74.5365 37.452 74.1665C37.316 72.9122 36.8628 71.712 35.9111 70.8728C36.7631 70.8187 38.9203 70.8187 39.7723 70.8728C38.8297 71.712 38.3765 72.9122 38.2315 74.1665C38.1952 74.5365 38.1862 74.9065 38.1862 75.2764C38.1862 75.6464 38.3312 76.1608 38.3312 76.5307H37.3523Z" fill="#0C0A35"/>
<path d="M37.6696 75.1501C36.9082 73.995 35.5758 73.1738 34.1891 73.228C32.8023 73.2731 31.4518 74.2838 31.1798 75.6373C30.9442 76.8285 31.5243 78.0557 32.3581 78.9491C33.192 79.8424 34.3341 80.429 35.3492 81.0967C36.3916 81.7825 37.8509 83.479 37.8509 83.479C37.8509 83.479 39.4461 81.8186 40.3435 81.1419C41.3133 80.4019 42.5188 79.8424 43.3436 78.9491C44.1775 78.0557 44.7576 76.8285 44.5219 75.6373C44.25 74.2838 42.8995 73.2731 41.5127 73.228C40.1259 73.1829 38.7845 73.995 38.0322 75.1501H37.6696Z" fill="#0C0A35"/>
<path d="M19.6595 76.5307C19.6595 76.1698 19.8046 75.6464 19.8046 75.2764C19.8046 74.9065 19.8046 74.5365 19.7592 74.1665C19.6233 72.9122 19.1701 71.712 18.2184 70.8728C19.0704 70.8187 21.2276 70.8187 22.0796 70.8728C21.137 71.712 20.6838 72.9122 20.5387 74.1665C20.5025 74.5365 20.5025 74.9065 20.4934 75.2764C20.4934 75.6464 20.6384 76.1608 20.6384 76.5307H19.6595Z" fill="#0C0A35"/>
<path d="M19.9767 75.1501C19.2154 73.995 17.883 73.1738 16.4962 73.228C15.1094 73.2731 13.7589 74.2838 13.487 75.6373C13.2513 76.8285 13.8314 78.0557 14.6653 78.9491C15.4992 79.8424 16.6412 80.429 17.6564 81.0967C18.6987 81.7825 20.158 83.479 20.158 83.479C20.158 83.479 21.7533 81.8186 22.6506 81.1419C23.6204 80.4019 24.8259 79.8424 25.6507 78.9491C26.4846 78.0557 27.0647 76.8285 26.8291 75.6373C26.5571 74.2838 25.2066 73.2731 23.8198 73.228C22.4331 73.1829 21.0916 73.995 20.3393 75.1501H19.9767Z" fill="#0C0A35"/>
</svg>
