<svg width="58" height="88" viewBox="0 0 58 88" fill="none" xmlns="http://www.w3.org/2000/svg">
<path d="M53.0908 88H4.90916C2.19787 88 0 85.8123 0 83.1136V4.8864C0 2.18767 2.19787 0 4.90916 0H53.0908C55.8021 0 58 2.18767 58 4.8864V83.1136C58 85.8123 55.8021 88 53.0908 88Z" fill="white"/>
<path d="M7.58437 16.5421C7.58437 16.6855 7.53032 16.8918 7.53032 17.0352C7.53032 17.1787 7.53031 17.3221 7.54833 17.4656C7.60237 17.9587 7.78251 18.4249 8.15182 18.7567C7.81854 18.7746 6.98084 18.7746 6.63855 18.7567C7.00786 18.4249 7.18803 17.9587 7.24207 17.4656C7.26009 17.3221 7.26008 17.1787 7.26008 17.0352C7.26008 16.8918 7.20603 16.6855 7.20603 16.5421H7.58437Z" fill="#0C0A35"/>
<path d="M7.48536 16.9007C7.62949 16.9186 7.71055 17.0531 7.96277 17.331C8.19696 17.5821 8.42215 17.851 8.94459 17.9138C9.20581 17.9497 9.56611 17.8062 9.72825 17.591C9.86336 17.4117 9.94445 17.1876 9.99849 16.9724C10.1066 16.56 10.0706 16.1565 9.86338 15.7799C9.65621 15.4123 9.11573 15.242 8.77344 15.4482C8.59329 15.5558 8.53026 15.6903 8.36812 15.7172C8.31407 15.7261 8.27805 15.6813 8.28705 15.6275C8.35011 15.3765 8.53025 15.3496 8.61131 15.0447C8.7104 14.6861 8.76446 14.4171 8.26003 13.9688C7.8727 13.6281 6.92689 13.664 6.52154 13.9688C6.10719 14.2826 6.06216 14.5695 6.16124 14.9282C6.24231 15.2061 6.40445 15.3316 6.47652 15.5737C6.50354 15.6544 6.42248 15.7351 6.34141 15.6992C6.22431 15.6544 6.15224 15.5379 5.99911 15.4482C5.66583 15.2509 5.11636 15.4123 4.91819 15.7799C4.71101 16.1565 4.67499 16.56 4.78308 16.9724C4.83713 17.1876 4.91821 17.4117 5.05333 17.591C5.21546 17.8062 5.56676 17.9497 5.83698 17.9138C6.35942 17.851 6.58461 17.5821 6.81881 17.331C7.08003 17.0531 7.15209 16.9186 7.29621 16.9007H7.48536Z" fill="#0C0A35"/>
<path d="M9.83626 4.1153L9.7552 4.99395H5.72879L5.55765 7.63888C6.16116 7.04713 6.83673 6.75126 7.55734 6.75126C8.32298 6.75126 8.98954 7.02024 9.54801 7.54922C10.1065 8.07821 10.3857 8.75961 10.3857 9.58447C10.3857 10.4183 10.0794 11.1087 9.47593 11.6377C8.87242 12.1756 8.1338 12.4356 7.25105 12.4356C6.56648 12.4356 5.95398 12.2563 5.41352 11.8977C4.88207 11.539 4.52176 11.0728 4.35962 10.508L5.22434 10.2121C5.58465 11.1625 6.26022 11.6287 7.25105 11.6287C7.8996 11.6287 8.42205 11.4404 8.80938 11.0549C9.19671 10.6693 9.38588 10.1762 9.38588 9.58447C9.38588 8.95686 9.19672 8.47271 8.8184 8.12304C8.44008 7.77337 7.98067 7.59405 7.44922 7.59405C6.67457 7.59405 6.03504 7.96165 5.52161 8.70582L4.71093 8.53547L4.97213 4.13323H9.83626V4.1153Z" fill="#0C0A35"/>
<path d="M50.3885 71.4579C50.3885 71.3145 50.4426 71.1083 50.4426 70.9648C50.4426 70.8214 50.4426 70.6779 50.4246 70.5344C50.3705 70.0413 50.1904 69.5751 49.821 69.2434C50.1543 69.2254 50.992 69.2254 51.3343 69.2434C50.965 69.5751 50.7849 70.0413 50.7308 70.5344C50.7128 70.6779 50.7128 70.8214 50.7128 70.9648C50.7128 71.1083 50.7669 71.3145 50.7669 71.4579H50.3885Z" fill="#0C0A35"/>
<path d="M50.4876 71.0992C50.3435 71.0813 50.2624 70.9468 50.0102 70.6689C49.776 70.4178 49.5508 70.1489 49.0284 70.0861C48.7671 70.0502 48.4068 70.1937 48.2447 70.4089C48.1096 70.5882 48.0285 70.8123 47.9745 71.0275C47.8664 71.4399 47.9024 71.8434 48.1096 72.22C48.3078 72.5876 48.8572 72.7579 49.1995 72.5517C49.3797 72.4441 49.4427 72.3096 49.6049 72.2827C49.6589 72.2738 49.6949 72.3186 49.6859 72.3724C49.6229 72.6234 49.4427 72.6503 49.3616 72.9552C49.2626 73.3048 49.2085 73.5828 49.7129 74.0311C50.1003 74.3718 51.0461 74.3359 51.4514 74.0311C51.8658 73.7173 51.9108 73.4304 51.8117 73.0717C51.7306 72.7938 51.5775 72.6683 51.4965 72.4262C51.4694 72.3455 51.5505 72.2648 51.6226 72.3007C51.7397 72.3455 51.8117 72.462 51.9649 72.5517C52.2981 72.749 52.8476 72.5876 53.0458 72.22C53.2529 71.8434 53.289 71.4399 53.1809 71.0275C53.1268 70.8123 53.0458 70.5882 52.9106 70.4089C52.7485 70.1937 52.3972 70.0502 52.127 70.0861C51.6045 70.1489 51.3794 70.4178 51.1452 70.6689C50.8839 70.9468 50.8119 71.0813 50.6678 71.0992H50.4876Z" fill="#0C0A35"/>
<path d="M48.1817 83.8845L48.2627 83.0059H52.2891L52.4603 80.3609C51.8568 80.9527 51.1812 81.2486 50.4606 81.2486C49.6949 81.2486 49.0284 80.9796 48.4699 80.4506C47.9114 79.9216 47.6322 79.2402 47.6322 78.4154C47.6322 77.5815 47.9385 76.8912 48.542 76.3622C49.1455 75.8242 49.8931 75.5642 50.7669 75.5642C51.4514 75.5642 52.0639 75.7435 52.6044 76.1022C53.1358 76.4608 53.4962 76.927 53.6583 77.4919L52.7936 77.7877C52.4333 76.8374 51.7577 76.3711 50.7669 76.3711C50.1183 76.3711 49.5959 76.5594 49.2085 76.945C48.8212 77.3305 48.632 77.8236 48.632 78.4154C48.632 79.043 48.8212 79.5271 49.1995 79.8768C49.5778 80.2265 50.0372 80.4058 50.5687 80.4058C51.3433 80.4058 51.9829 80.0382 52.4963 79.294L53.307 79.4644L53.0458 83.8666H48.1817V83.8845Z" fill="#0C0A35"/>
<path d="M19.2944 12.382C19.2944 12.7496 19.4385 13.2696 19.4385 13.6372C19.4385 14.0048 19.4385 14.3814 19.3934 14.74C19.2583 15.9952 18.7989 17.1877 17.8531 18.0305C18.7089 18.0843 20.8527 18.0843 21.7084 18.0305C20.7626 17.1877 20.3122 15.9952 20.1681 14.74C20.1321 14.3724 20.1231 14.0048 20.1231 13.6372C20.1231 13.2696 20.2672 12.7496 20.2672 12.382H19.2944Z" fill="#0C0A35"/>
<path d="M19.5555 13.2875C19.1952 13.3413 18.988 13.682 18.3304 14.3903C17.7359 15.0268 17.1504 15.7082 15.8173 15.8696C15.1417 15.9503 14.232 15.5917 13.8176 15.0448C13.4663 14.5785 13.2772 14.0227 13.1331 13.4578C12.8538 12.4088 12.9619 11.3688 13.4753 10.4094C13.9888 9.45903 15.385 9.03764 16.2497 9.55766C16.7091 9.8356 16.8622 10.1673 17.2856 10.248C17.4117 10.2749 17.5288 10.1494 17.4927 10.0239C17.3216 9.37834 16.8712 9.30661 16.655 8.53555C16.4028 7.62999 16.2587 6.93066 17.5558 5.79199C18.5466 4.9223 20.9607 5.00299 22.0055 5.79199C23.0684 6.59892 23.1765 7.32516 22.9153 8.23071C22.7171 8.94798 22.3028 9.27075 22.1136 9.87146C22.0506 10.0777 22.2488 10.2749 22.4469 10.1942C22.7532 10.0687 22.9243 9.79077 23.3207 9.55766C24.1854 9.0466 25.5726 9.45903 26.095 10.4094C26.6174 11.3688 26.7165 12.4088 26.4373 13.4578C26.2932 14.0137 26.095 14.5785 25.7527 15.0448C25.3384 15.5917 24.4376 15.9593 23.753 15.8696C22.4199 15.7082 21.8344 15.0268 21.2399 14.3903C20.5824 13.682 20.3842 13.3413 20.0239 13.2875H19.5555Z" fill="#0C0A35"/>
<path d="M37.7059 12.382C37.7059 12.7496 37.85 13.2696 37.85 13.6372C37.85 14.0048 37.85 14.3814 37.8049 14.74C37.6698 15.9952 37.2104 17.1877 36.2646 18.0305C37.1204 18.0843 39.2642 18.0843 40.1199 18.0305C39.1741 17.1877 38.7237 15.9952 38.5796 14.74C38.5436 14.3724 38.5346 14.0048 38.5346 13.6372C38.5346 13.2696 38.6787 12.7496 38.6787 12.382H37.7059Z" fill="#0C0A35"/>
<path d="M37.967 13.2875C37.6067 13.3413 37.3995 13.682 36.742 14.3903C36.1475 15.0268 35.562 15.7082 34.2288 15.8696C33.5533 15.9503 32.6435 15.5917 32.2291 15.0448C31.8778 14.5785 31.6887 14.0227 31.5446 13.4578C31.2653 12.4088 31.3734 11.3688 31.8869 10.4094C32.4003 9.45903 33.7965 9.03764 34.6612 9.55766C35.1206 9.8356 35.2737 10.1673 35.6971 10.248C35.8232 10.2749 35.9403 10.1494 35.9043 10.0239C35.7331 9.37834 35.2827 9.30661 35.0665 8.53555C34.8143 7.62999 34.6702 6.93066 35.9673 5.79199C36.9581 4.9223 39.3722 5.00299 40.4171 5.79199C41.48 6.59892 41.5881 7.32516 41.3358 8.23071C41.1377 8.94798 40.7233 9.27075 40.5342 9.87146C40.4711 10.0777 40.6693 10.2749 40.8674 10.1942C41.1737 10.0687 41.3448 9.79077 41.7412 9.55766C42.6059 9.0466 43.9931 9.45903 44.5155 10.4094C45.038 11.3688 45.137 12.4088 44.8578 13.4578C44.7137 14.0137 44.5155 14.5785 44.1732 15.0448C43.7589 15.5917 42.8581 15.9593 42.1736 15.8696C40.8404 15.7082 40.2549 15.0268 39.6604 14.3903C39.0029 13.682 38.8047 13.3413 38.4444 13.2875H37.967Z" fill="#0C0A35"/>
<path d="M38.6967 75.6271C38.6967 75.2595 38.5526 74.7395 38.5526 74.3719C38.5526 74.0043 38.5526 73.6367 38.5977 73.2691C38.7328 72.0139 39.1922 70.8214 40.138 69.9786C39.2822 69.9248 37.1384 69.9248 36.2827 69.9786C37.2285 70.8214 37.6789 72.0139 37.823 73.2691C37.859 73.6367 37.8681 74.0043 37.8681 74.3719C37.8681 74.7395 37.7239 75.2595 37.7239 75.6271H38.6967Z" fill="#0C0A35"/>
<path d="M38.4354 74.7126C38.7957 74.6588 39.0029 74.3181 39.6514 73.6098C40.2459 72.9733 40.8314 72.2918 42.1646 72.1305C42.8401 72.0498 43.7499 72.4084 44.1643 72.9553C44.5156 73.4215 44.7047 73.9774 44.8489 74.5423C45.1281 75.5913 45.02 76.6313 44.5066 77.5907C43.9931 78.5411 42.597 78.9625 41.7322 78.4424C41.2728 78.1645 41.1197 77.8328 40.6963 77.7521C40.5702 77.7252 40.4531 77.8507 40.4892 77.9762C40.6603 78.6218 41.1107 78.6935 41.3269 79.4645C41.5791 80.3701 41.7142 81.0694 40.4261 82.2081C39.4353 83.0778 37.0212 82.9971 35.9764 82.2081C34.9135 81.4012 34.8054 80.6749 35.0666 79.7694C35.2647 79.0521 35.6791 78.7293 35.8683 78.1286C35.9313 77.9224 35.7332 77.7252 35.535 77.8059C35.2287 77.9314 35.0576 78.2093 34.6612 78.4424C33.7965 78.9535 32.4093 78.5321 31.8869 77.5907C31.3644 76.6313 31.2654 75.5913 31.5446 74.5423C31.6887 73.9864 31.8869 73.4215 32.2292 72.9553C32.6345 72.4084 33.5443 72.0498 34.2289 72.1305C35.562 72.2918 36.1475 72.9733 36.742 73.6098C37.3996 74.3181 37.5977 74.6588 37.967 74.7126H38.4354Z" fill="#0C0A35"/>
<path d="M20.2943 75.6271C20.2943 75.2595 20.1502 74.7395 20.1502 74.3719C20.1502 74.0043 20.1502 73.6367 20.1952 73.2691C20.3303 72.0139 20.7897 70.8214 21.7355 69.9786C20.8798 69.9248 18.736 69.9248 17.8802 69.9786C18.826 70.8214 19.2764 72.0139 19.4205 73.2691C19.4566 73.6367 19.4656 74.0043 19.4656 74.3719C19.4656 74.7395 19.3215 75.2595 19.3215 75.6271H20.2943Z" fill="#0C0A35"/>
<path d="M20.0329 74.7126C20.3932 74.6588 20.6004 74.3181 21.249 73.6098C21.8435 72.9733 22.429 72.2918 23.7621 72.1305C24.4377 72.0498 25.3474 72.4084 25.7618 72.9553C26.1131 73.4215 26.3023 73.9774 26.4464 74.5423C26.7256 75.5913 26.6175 76.6313 26.1041 77.5907C25.5907 78.5411 24.1945 78.9625 23.3297 78.4424C22.8703 78.1645 22.7172 77.8328 22.2939 77.7521C22.1678 77.7252 22.0506 77.8507 22.0867 77.9762C22.2578 78.6218 22.7082 78.6935 22.9244 79.4645C23.1766 80.3701 23.3207 81.0694 22.0236 82.2081C21.0328 83.0778 18.6188 82.9971 17.5739 82.2081C16.511 81.4012 16.4029 80.6749 16.6641 79.7694C16.8623 79.0521 17.2766 78.7293 17.4658 78.1286C17.5289 77.9224 17.3307 77.7252 17.1325 77.8059C16.8262 77.9314 16.6551 78.2093 16.2588 78.4424C15.394 78.9535 14.0069 78.5321 13.4844 77.5907C12.962 76.6313 12.8629 75.5913 13.1421 74.5423C13.2863 73.9864 13.4844 73.4215 13.8267 72.9553C14.2411 72.4084 15.1418 72.0498 15.8264 72.1305C17.1595 72.2918 17.745 72.9733 18.3395 73.6098C18.9971 74.3181 19.2043 74.6588 19.5646 74.7126H20.0329Z" fill="#0C0A35"/>
<path d="M28.9324 44.7577C28.9324 45.1253 29.0766 45.6453 29.0766 46.0129C29.0766 46.3805 29.0766 46.757 29.0315 47.1157C28.8964 48.3709 28.437 49.5634 27.4912 50.4062C28.3469 50.46 30.4998 50.46 31.3465 50.4062C30.4007 49.5634 29.9503 48.3709 29.8062 47.1157C29.7611 46.7481 29.7611 46.3805 29.7611 46.0129C29.7611 45.6453 29.9053 45.1253 29.9053 44.7577H28.9324Z" fill="#0C0A35"/>
<path d="M29.1937 45.6722C28.8334 45.726 28.6262 46.0667 27.9777 46.775C27.3832 47.4115 26.7976 48.0929 25.4645 48.2543C24.789 48.335 23.8792 47.9764 23.4648 47.4295C23.1135 46.9632 22.9244 46.4074 22.7803 45.8425C22.501 44.7935 22.6091 43.7535 23.1226 42.7941C23.645 41.8437 25.0322 41.4223 25.8969 41.9424C26.3563 42.2203 26.5094 42.552 26.9328 42.6327C27.0589 42.6596 27.176 42.5341 27.14 42.4086C26.9688 41.763 26.5184 41.6913 26.3023 40.9202C26.05 40.0147 25.9059 39.3154 27.203 38.1767C28.1939 37.307 30.6079 37.3877 31.6528 38.1767C32.7157 38.9836 32.8237 39.7099 32.5625 40.6244C32.3644 41.3416 31.95 41.6644 31.7609 42.2651C31.6978 42.4713 31.896 42.6686 32.0941 42.5879C32.4004 42.4624 32.5715 42.1844 32.9679 41.9513C33.8326 41.4403 35.2198 41.8617 35.7422 42.8031C36.2646 43.7624 36.3637 44.8025 36.0845 45.8515C35.9404 46.4074 35.7422 46.9722 35.3999 47.4384C34.9856 47.9854 34.0848 48.353 33.4003 48.2633C32.0671 48.1019 31.4816 47.4205 30.8871 46.7839C30.2296 46.0756 30.0314 45.7349 29.6711 45.6811H29.1937V45.6722Z" fill="#0C0A35"/>
</svg>
