<svg width="58" height="88" viewBox="0 0 58 88" fill="none" xmlns="http://www.w3.org/2000/svg">
<path d="M53.0991 88H4.90992C2.19821 88 0 85.8119 0 83.1126V4.88739C0 2.18812 2.19821 0 4.90992 0H53.0901C55.8018 0 58 2.18812 58 4.88739V83.1126C58.009 85.8119 55.8108 88 53.0991 88Z" fill="white"/>
<path d="M7.39648 17.8816C7.45954 17.8816 7.53163 17.8636 7.58569 17.8278C8.00911 17.5498 9.11721 16.3929 9.43252 16.0701C9.49558 16.0073 9.55864 15.9356 9.54062 15.8459C9.53162 15.7741 9.47757 15.7203 9.43252 15.6755C8.95504 15.2002 8.45054 14.7518 8.00009 14.2496C7.80189 14.0344 7.57667 13.7833 7.43252 13.7744H7.36046C7.21632 13.7833 6.98208 14.0344 6.79289 14.2496C6.34244 14.7518 5.83794 15.2002 5.36046 15.6755C5.31542 15.7203 5.26134 15.7831 5.25233 15.8459C5.24332 15.9356 5.30641 16.0073 5.36046 16.0701C5.67578 16.3929 6.78387 17.5498 7.2073 17.8278C7.26135 17.8636 7.33341 17.8816 7.39648 17.8816Z" fill="#D6002B"/>
<path d="M50.6396 73.9027C50.7027 73.9027 50.7748 73.8848 50.8289 73.8489C51.2523 73.5709 52.3604 72.4141 52.6757 72.0913C52.7387 72.0285 52.8018 71.9567 52.7838 71.8671C52.7748 71.7953 52.7207 71.7415 52.6757 71.6967C52.1982 71.2214 51.6937 70.773 51.2433 70.2708C51.0451 70.0556 50.8198 69.8045 50.6757 69.7955H50.6036C50.4595 69.8045 50.2252 70.0556 50.0361 70.2708C49.5856 70.773 49.0811 71.2214 48.6036 71.6967C48.5586 71.7415 48.5045 71.8043 48.4955 71.8671C48.4865 71.9567 48.5496 72.0285 48.6036 72.0913C48.9189 72.4141 50.027 73.5709 50.4505 73.8489C50.5045 73.8848 50.5676 73.9027 50.6396 73.9027Z" fill="#D6002B"/>
<path d="M9.84678 4.11615L9.76571 4.99498H5.7477L5.57652 7.64045C6.18013 7.04859 6.84679 6.75265 7.57652 6.75265C8.34229 6.75265 9.00895 7.02168 9.56751 7.55078C10.1261 8.07987 10.4053 8.76142 10.4053 9.57748C10.4053 10.4115 10.0991 11.102 9.49545 11.6311C8.89184 12.1691 8.15309 12.4292 7.27921 12.4292C6.59453 12.4292 5.98194 12.2499 5.44139 11.8911C4.90986 11.5324 4.5585 11.0661 4.38733 10.5011L5.25219 10.2052C5.61255 11.1558 6.28822 11.6221 7.27921 11.6221C7.92786 11.6221 8.45039 11.4338 8.83778 11.0482C9.22517 10.6626 9.41437 10.1693 9.41437 9.57748C9.41437 8.94974 9.22518 8.46548 8.8468 8.11574C8.46842 7.766 8.00894 7.58665 7.47741 7.58665C6.70264 7.58665 6.06301 7.95432 5.5495 8.69864L4.72968 8.51929L4.99094 4.11615H9.84678Z" fill="#D6002B"/>
<path d="M48.1892 83.8928L48.2702 83.014H52.2883L52.4595 80.3685C51.8559 80.9604 51.1802 81.2563 50.4595 81.2563C49.6937 81.2563 49.027 80.9873 48.4684 80.4582C47.9099 79.9291 47.6306 79.2476 47.6306 78.4225C47.6306 77.5885 47.9369 76.898 48.5405 76.3689C49.1441 75.8398 49.8829 75.5708 50.7567 75.5708C51.4414 75.5708 52.054 75.7502 52.5946 76.1089C53.1261 76.4676 53.4775 76.9339 53.6486 77.4989L52.7838 77.7948C52.4234 76.8442 51.7477 76.3779 50.7567 76.3779C50.1081 76.3779 49.5856 76.5662 49.1982 76.9518C48.8108 77.3374 48.6216 77.8307 48.6216 78.4225C48.6216 79.0503 48.8108 79.5345 49.1892 79.8843C49.5676 80.234 50.027 80.4134 50.5585 80.4134C51.3333 80.4134 51.973 80.0457 52.4865 79.3014L53.2973 79.4718L53.036 83.8749H48.1892V83.8928Z" fill="#D6002B"/>
<path d="M19.9459 18.59C20.1711 18.59 20.3873 18.5273 20.5675 18.4107C21.9729 17.4781 25.5945 13.6758 26.6485 12.6086C26.8467 12.4113 27.0539 12.1602 27.0179 11.8732C26.9909 11.6491 26.8197 11.4697 26.6576 11.3083C25.081 9.73893 23.4143 8.25926 21.9278 6.60921C21.2882 5.90076 20.5314 5.07573 20.054 5.04883H19.8107C19.3332 5.07573 18.5765 5.90076 17.9368 6.60921C16.4504 8.25926 14.7837 9.73893 13.2071 11.3083C13.045 11.4697 12.8738 11.6491 12.8468 11.8732C12.8107 12.1512 13.0179 12.4023 13.2161 12.6086C14.2702 13.6758 17.8918 17.4781 19.2972 18.4107C19.5044 18.5273 19.7206 18.59 19.9459 18.59Z" fill="#D6002B"/>
<path d="M38.072 18.59C38.2972 18.59 38.5134 18.5273 38.6936 18.4107C40.099 17.4781 43.7206 13.6758 44.7747 12.6086C44.9729 12.4113 45.18 12.1602 45.144 11.8732C45.117 11.6491 44.9458 11.4697 44.7837 11.3083C43.2071 9.73893 41.5404 8.25926 40.0539 6.60921C39.4143 5.90076 38.6575 5.07573 38.1801 5.04883H37.9368C37.4593 5.07573 36.7026 5.90076 36.0629 6.60921C34.5765 8.25926 32.9098 9.73893 31.3332 11.3083C31.1711 11.4697 30.9999 11.6491 30.9729 11.8732C30.9368 12.1512 31.144 12.4023 31.3422 12.6086C32.3963 13.6758 36.0179 17.4781 37.4233 18.4107C37.6215 18.5273 37.8377 18.59 38.072 18.59Z" fill="#D6002B"/>
<path d="M38.9548 69.419C38.7296 69.419 38.5134 69.4817 38.3332 69.5983C36.9278 70.531 33.3062 74.3333 32.2521 75.4004C32.0539 75.5977 31.8467 75.8488 31.8828 76.1268C31.9098 76.351 32.081 76.5304 32.2431 76.6918C33.8197 78.2611 35.4864 79.7318 36.9729 81.3908C37.6125 82.0993 38.3692 82.9243 38.8467 82.9512H39.09C39.5675 82.9243 40.3242 82.0993 40.9638 81.3908C42.4503 79.7408 44.117 78.2611 45.6936 76.6918C45.8557 76.5304 46.0269 76.351 46.0539 76.1268C46.0809 75.8488 45.8827 75.5977 45.6845 75.4004C44.6305 74.3333 41.0089 70.531 39.6035 69.5983C39.3963 69.4817 39.18 69.419 38.9548 69.419Z" fill="#D6002B"/>
<path d="M20.8287 69.419C20.6035 69.419 20.3873 69.4817 20.2071 69.5983C18.8017 70.531 15.1801 74.3333 14.126 75.4004C13.9279 75.5977 13.7206 75.8488 13.7567 76.1268C13.7837 76.351 13.9549 76.5304 14.1171 76.6918C15.6936 78.2611 17.3603 79.7318 18.8468 81.3908C19.4864 82.0993 20.2432 82.9243 20.7206 82.9512H20.9639C21.4414 82.9243 22.1981 82.0993 22.8378 81.3908C24.3243 79.7408 25.9909 78.2611 27.5675 76.6918C27.7297 76.5304 27.9008 76.351 27.9278 76.1268C27.9549 75.8488 27.7567 75.5977 27.5585 75.4004C26.5044 74.3333 22.8828 70.531 21.4774 69.5983C21.2792 69.4817 21.054 69.419 20.8287 69.419Z" fill="#D6002B"/>
<path d="M28.7387 50.7661C28.9639 50.7661 29.1802 50.7034 29.3603 50.5868C30.7657 49.6541 34.3874 45.8518 35.4414 44.7847C35.6396 44.5874 35.8468 44.3363 35.8108 44.0493C35.7838 43.8251 35.6126 43.6458 35.4504 43.4844C33.8739 41.915 32.2072 40.4354 30.7207 38.7853C30.0811 38.0768 29.3243 37.2518 28.8468 37.2249H28.6036C28.1261 37.2518 27.3694 38.0768 26.7297 38.7853C25.2432 40.4354 23.5766 41.915 22 43.4844C21.8378 43.6458 21.6666 43.8251 21.6396 44.0493C21.6036 44.3273 21.8108 44.5784 22.009 44.7847C23.063 45.8518 26.6847 49.6541 28.0901 50.5868C28.2973 50.7123 28.5135 50.7661 28.7387 50.7661Z" fill="#D6002B"/>
</svg>
