<svg width="58" height="88" viewBox="0 0 58 88" fill="none" xmlns="http://www.w3.org/2000/svg">
<path d="M53.0991 88H4.90992C2.19821 88 0 85.8119 0 83.1126V4.88739C0 2.18812 2.19821 0 4.90992 0H53.0901C55.8018 0 58 2.18812 58 4.88739V83.1126C58.009 85.8119 55.8108 88 53.0991 88Z" fill="white"/>
<path d="M9.84678 4.11615L9.76571 4.99498H5.7477L5.57652 7.64045C6.18013 7.04859 6.84679 6.75265 7.57652 6.75265C8.34229 6.75265 9.00895 7.02168 9.56751 7.55078C10.1261 8.07987 10.4053 8.76142 10.4053 9.57748C10.4053 10.4115 10.0991 11.102 9.49545 11.6311C8.89184 12.1691 8.15309 12.4292 7.27921 12.4292C6.59453 12.4292 5.98194 12.2499 5.44139 11.8911C4.90986 11.5324 4.5585 11.0661 4.38733 10.5011L5.25219 10.2052C5.61255 11.1558 6.28822 11.6221 7.27921 11.6221C7.92786 11.6221 8.45039 11.4338 8.83778 11.0482C9.22517 10.6626 9.41437 10.1693 9.41437 9.57748C9.41437 8.94974 9.22518 8.46548 8.8468 8.11574C8.46842 7.766 8.00894 7.58665 7.47741 7.58665C6.70264 7.58665 6.06301 7.95432 5.5495 8.69864L4.72968 8.51929L4.99094 4.11615H9.84678Z" fill="#D6002B"/>
<path d="M48.1892 83.8928L48.2702 83.014H52.2883L52.4595 80.3685C51.8559 80.9604 51.1802 81.2563 50.4595 81.2563C49.6937 81.2563 49.027 80.9873 48.4684 80.4582C47.9099 79.9291 47.6306 79.2476 47.6306 78.4225C47.6306 77.5885 47.9369 76.898 48.5405 76.3689C49.1441 75.8398 49.8829 75.5708 50.7567 75.5708C51.4414 75.5708 52.054 75.7502 52.5946 76.1089C53.1261 76.4676 53.4775 76.9339 53.6486 77.4989L52.7838 77.7948C52.4234 76.8442 51.7477 76.3779 50.7567 76.3779C50.1081 76.3779 49.5856 76.5662 49.1982 76.9518C48.8108 77.3374 48.6216 77.8307 48.6216 78.4225C48.6216 79.0503 48.8108 79.5345 49.1892 79.8843C49.5676 80.234 50.027 80.4134 50.5585 80.4134C51.3333 80.4134 51.973 80.0457 52.4865 79.3014L53.2973 79.4718L53.036 83.8749H48.1892V83.8928Z" fill="#D6002B"/>
<path d="M31.2062 48.1783C31.8497 47.5969 32.5711 47.1511 33.2535 46.6472C34.0139 46.0852 34.8328 45.5813 35.4372 44.8643C35.9442 44.2635 36.1782 43.6821 36.4316 42.9457C36.6851 42.2093 36.7046 40.6395 36.2951 39.9806C35.1058 38.0813 31.7912 36.434 29.588 40.6007C29.549 40.6588 29.4905 40.6976 29.432 40.6976C29.3735 40.6976 29.315 40.6588 29.276 40.6007C27.0923 36.434 23.7582 38.0813 22.5688 39.9806C22.1593 40.6395 22.1788 42.2093 22.4323 42.9457C22.6858 43.6821 22.9198 44.2635 23.4267 44.8643C24.0311 45.5813 24.85 46.0852 25.6104 46.6472C26.3123 47.1705 27.0143 47.6163 27.6577 48.1783C27.9892 48.469 29.4125 50 29.4125 50C29.4125 50 30.8943 48.469 31.2062 48.1783Z" fill="#D6002B"/>
<path d="M8.57447 17.7781C8.8133 17.5623 9.08109 17.3968 9.3344 17.2098C9.61666 17.0012 9.92062 16.8141 10.145 16.548C10.3331 16.325 10.42 16.1092 10.5141 15.8358C10.6082 15.5624 10.6154 14.9797 10.4634 14.7352C10.0219 14.0302 8.7916 13.4187 7.97378 14.9654C7.9593 14.9869 7.9376 15.0013 7.91589 15.0013C7.89418 15.0013 7.87245 14.9869 7.85798 14.9654C7.0474 13.4187 5.80981 14.0302 5.36833 14.7352C5.21635 14.9797 5.22358 15.5624 5.31767 15.8358C5.41175 16.1092 5.49861 16.325 5.68678 16.548C5.91114 16.8141 6.2151 17.0012 6.49736 17.2098C6.7579 17.404 7.01846 17.5695 7.25729 17.7781C7.38032 17.886 7.90865 18.4543 7.90865 18.4543C7.90865 18.4543 8.45867 17.886 8.57447 17.7781Z" fill="#D6002B"/>
<path d="M50.2573 69.6761C50.0185 69.892 49.7507 70.0574 49.4974 70.2445C49.2151 70.4531 48.9112 70.6401 48.6868 70.9063C48.4986 71.1293 48.4118 71.3451 48.3177 71.6184C48.2236 71.8918 48.2164 72.4745 48.3684 72.7191C48.8098 73.424 50.0402 74.0355 50.858 72.4889C50.8725 72.4673 50.8942 72.4529 50.9159 72.4529C50.9376 72.4529 50.9593 72.4673 50.9738 72.4889C51.7844 74.0355 53.022 73.424 53.4635 72.7191C53.6154 72.4745 53.6082 71.8918 53.5141 71.6184C53.42 71.3451 53.3332 71.1293 53.145 70.9063C52.9207 70.6401 52.6167 70.4531 52.3344 70.2445C52.0739 70.0502 51.8133 69.8848 51.5745 69.6761C51.4515 69.5682 50.9231 68.9999 50.9231 68.9999C50.9231 68.9999 50.3731 69.5682 50.2573 69.6761Z" fill="#D6002B"/>
<path d="M17.6577 72.8217C17.0142 73.4031 16.2928 73.8489 15.6104 74.3528C14.85 74.9148 14.0311 75.4187 13.4266 76.1357C12.9197 76.7365 12.6857 77.3179 12.4322 78.0543C12.1788 78.7907 12.1593 80.3605 12.5687 81.0194C13.7581 82.9187 17.0727 84.566 19.2759 80.3993C19.3149 80.3412 19.3734 80.3024 19.4319 80.3024C19.4904 80.3024 19.5489 80.3412 19.5879 80.3993C21.7716 84.566 25.1057 82.9187 26.2951 81.0194C26.7045 80.3605 26.6851 78.7907 26.4316 78.0543C26.1781 77.3179 25.9441 76.7365 25.4372 76.1357C24.8328 75.4187 24.0139 74.9148 23.2535 74.3528C22.5516 73.8295 21.8496 73.3837 21.2062 72.8217C20.8747 72.531 19.4514 71 19.4514 71C19.4514 71 17.9696 72.531 17.6577 72.8217Z" fill="#D6002B"/>
<path d="M36.0215 72.8217C35.3781 73.4031 34.6567 73.8489 33.9743 74.3528C33.2139 74.9148 32.395 75.4187 31.7905 76.1357C31.2836 76.7365 31.0496 77.3179 30.7961 78.0543C30.5427 78.7907 30.5232 80.3605 30.9326 81.0194C32.122 82.9187 35.4366 84.566 37.6398 80.3993C37.6788 80.3412 37.7373 80.3024 37.7958 80.3024C37.8543 80.3024 37.9128 80.3412 37.9518 80.3993C40.1355 84.566 43.4696 82.9187 44.659 81.0194C45.0684 80.3605 45.049 78.7907 44.7955 78.0543C44.542 77.3179 44.308 76.7365 43.8011 76.1357C43.1967 75.4187 42.3778 74.9148 41.6174 74.3528C40.9154 73.8295 40.2135 73.3837 39.5701 72.8217C39.2386 72.531 37.8153 71 37.8153 71C37.8153 71 36.3335 72.531 36.0215 72.8217Z" fill="#D6002B"/>
<path d="M39.5701 15.1783C40.2135 14.5969 40.935 14.1511 41.6174 13.6472C42.3778 13.0852 43.1967 12.5813 43.8011 11.8643C44.3081 11.2635 44.5421 10.6821 44.7955 9.94569C45.049 9.20925 45.0685 7.63948 44.659 6.98056C43.4697 5.08132 40.1551 3.43401 37.9518 7.6007C37.9129 7.65884 37.8544 7.69761 37.7959 7.69761C37.7374 7.69761 37.6789 7.65884 37.6399 7.6007C35.4561 3.43401 32.122 5.08132 30.9327 6.98056C30.5232 7.63948 30.5427 9.20925 30.7962 9.94569C31.0497 10.6821 31.2837 11.2635 31.7906 11.8643C32.395 12.5813 33.2139 13.0852 33.9743 13.6472C34.6762 14.1705 35.3782 14.6163 36.0216 15.1783C36.3531 15.469 37.7764 17 37.7764 17C37.7764 17 39.2582 15.469 39.5701 15.1783Z" fill="#D6002B"/>
<path d="M21.2062 15.1783C21.8497 14.5969 22.5711 14.1511 23.2535 13.6472C24.0139 13.0852 24.8328 12.5813 25.4372 11.8643C25.9442 11.2635 26.1782 10.6821 26.4316 9.94569C26.6851 9.20925 26.7046 7.63948 26.2951 6.98056C25.1058 5.08132 21.7912 3.43401 19.588 7.6007C19.549 7.65884 19.4905 7.69761 19.432 7.69761C19.3735 7.69761 19.315 7.65884 19.276 7.6007C17.0923 3.43401 13.7582 5.08132 12.5688 6.98056C12.1593 7.63948 12.1788 9.20925 12.4323 9.94569C12.6858 10.6821 12.9198 11.2635 13.4267 11.8643C14.0311 12.5813 14.85 13.0852 15.6104 13.6472C16.3123 14.1705 17.0143 14.6163 17.6577 15.1783C17.9892 15.469 19.4125 17 19.4125 17C19.4125 17 20.8943 15.469 21.2062 15.1783Z" fill="#D6002B"/>
</svg>
