<svg width="58" height="88" viewBox="0 0 58 88" fill="none" xmlns="http://www.w3.org/2000/svg">
<path d="M53.0874 88H4.91263C2.20252 88 0 85.8072 0 83.1091V4.89089C0 2.19278 2.20252 0 4.91263 0H53.0874C55.7975 0 58 2.19278 58 4.89089V83.1091C58 85.8072 55.7975 88 53.0874 88Z" fill="white"/>
<path d="M50.3137 71.6398C50.3137 71.4955 50.3772 71.2879 50.3681 71.1435C50.3681 70.9992 50.3681 70.8458 50.35 70.7014C50.2956 70.196 50.1143 69.7268 49.7336 69.3839C50.0781 69.3658 50.9301 69.3658 51.2745 69.3839C50.8938 69.7178 50.7125 70.196 50.6582 70.7014C50.64 70.8458 50.64 70.9992 50.64 71.1435C50.64 71.2879 50.7035 71.4955 50.6944 71.6398H50.3137Z" fill="#0C0A35"/>
<path d="M50.4408 71.0894C50.1416 70.6292 49.6069 70.3043 49.0449 70.3224C48.492 70.3404 47.9482 70.7465 47.8394 71.2879C47.7488 71.7662 47.9754 72.2535 48.3107 72.6054C48.6461 72.9573 49.0993 73.1919 49.5072 73.4626C49.9241 73.7334 50.5042 74.4101 50.5042 74.4101C50.5042 74.4101 51.1387 73.7514 51.5012 73.4717C51.891 73.1739 52.3714 72.9573 52.6977 72.5964C53.033 72.2444 53.2596 71.7481 53.169 71.2789C53.0602 70.7375 52.5254 70.3314 51.9635 70.3133C51.4106 70.2953 50.8758 70.6201 50.5677 71.0804H50.4408V71.0894Z" fill="#0C0A35"/>
<path d="M7.49594 15.9631C7.49594 16.1075 7.43251 16.315 7.43251 16.4594C7.43251 16.6038 7.4325 16.7572 7.45063 16.9015C7.50502 17.4069 7.68629 17.8851 8.06697 18.219C7.72254 18.2371 6.87055 18.2371 6.52612 18.219C6.90681 17.8851 7.08808 17.4069 7.14246 16.9015C7.16059 16.7572 7.16058 16.6038 7.16058 16.4594C7.16058 16.315 7.09714 16.1075 7.1062 15.9631H7.49594Z" fill="#0C0A35"/>
<path d="M7.36893 16.5135C7.66804 16.9737 8.20279 17.2986 8.76476 17.2806C9.31765 17.2625 9.86151 16.8564 9.97027 16.315C10.0609 15.8368 9.83432 15.3495 9.49896 14.9975C9.16359 14.6456 8.71039 14.411 8.30251 14.1403C7.88557 13.8696 7.30548 13.1928 7.30548 13.1928C7.30548 13.1928 6.671 13.8515 6.30844 14.1313C5.91869 14.429 5.4383 14.6456 5.112 15.0066C4.77663 15.3585 4.55004 15.8548 4.64068 16.324C4.74945 16.8655 5.28424 17.2715 5.8462 17.2896C6.3991 17.3076 6.93387 16.9828 7.23298 16.5226H7.36893V16.5135Z" fill="#0C0A35"/>
<path d="M9.84347 4.1149L9.7619 4.99021H5.73752L5.5653 7.63418C6.17258 7.03861 6.84333 6.74082 7.56845 6.74082C8.33888 6.74082 9.00055 7.00251 9.55345 7.53492C10.1154 8.06732 10.3873 8.7441 10.3873 9.56527C10.3873 10.4045 10.0882 11.0903 9.48092 11.6227C8.87364 12.1551 8.13041 12.4258 7.26028 12.4258C6.57142 12.4258 5.96412 12.2453 5.42935 11.8844C4.89458 11.5234 4.54108 11.0632 4.37793 10.4947L5.24809 10.1969C5.61064 11.1444 6.28136 11.6137 7.27839 11.6137C7.931 11.6137 8.44763 11.4242 8.82832 11.0361C9.209 10.6481 9.40842 10.1608 9.40842 9.56527C9.40842 8.94263 9.21807 8.45534 8.83739 8.10341C8.4567 7.75149 8.0035 7.58003 7.46873 7.58003C6.68923 7.58003 6.05476 7.95001 5.54718 8.68996L4.74051 8.51851L5.00334 4.1149H9.84347Z" fill="#0C0A35"/>
<path d="M48.1837 83.8851L48.2653 83.0098H52.2897L52.4619 80.3658C51.8546 80.9614 51.1839 81.2592 50.4588 81.2592C49.6883 81.2592 49.0267 80.9975 48.4738 80.4651C47.9118 79.9327 47.6399 79.2559 47.6399 78.4348C47.6399 77.5955 47.939 76.9097 48.5463 76.3773C49.1536 75.8449 49.8968 75.5742 50.767 75.5742C51.4558 75.5742 52.0631 75.7547 52.5979 76.1156C53.1326 76.4766 53.4861 76.9368 53.6493 77.5053L52.7791 77.8031C52.4166 76.8556 51.7458 76.3864 50.7488 76.3864C50.0962 76.3864 49.5796 76.5759 49.1989 76.9639C48.8182 77.3519 48.6188 77.8392 48.6188 78.4348C48.6188 79.0574 48.8091 79.5447 49.1898 79.8966C49.5705 80.2485 50.0237 80.42 50.5585 80.42C51.338 80.42 51.9724 80.05 52.48 79.3101L53.2867 79.4815L53.0239 83.8851H48.1837Z" fill="#0C0A35"/>
<path d="M20.6474 11.4693C20.6474 11.8392 20.5023 12.3536 20.5023 12.7236C20.5023 13.0936 20.5023 13.4635 20.5477 13.8335C20.6836 15.0878 21.1368 16.288 22.0885 17.1272C21.2365 17.1813 19.0793 17.1813 18.2273 17.1272C19.1699 16.288 19.6231 15.0878 19.7682 13.8335C19.8044 13.4635 19.8135 13.0936 19.8135 12.7236C19.8135 12.3626 19.6685 11.8392 19.6685 11.4693H20.6474Z" fill="#0C0A35"/>
<path d="M20.3303 12.8499C21.0916 14.0049 22.424 14.8171 23.8108 14.772C25.1976 14.7268 26.5481 13.7162 26.82 12.3626C27.0557 11.1715 26.4756 9.94423 25.6417 9.05088C24.8079 8.15752 23.6658 7.57098 22.6506 6.90322C21.6083 6.21741 20.149 4.52094 20.149 4.52094C20.149 4.52094 18.5538 6.18131 17.6564 6.8581C16.6866 7.59805 15.4811 8.15752 14.6562 9.05088C13.8224 9.94423 13.2423 11.1715 13.4779 12.3626C13.7499 13.7162 15.1004 14.7268 16.4872 14.772C17.874 14.8171 19.2154 14.0049 19.9677 12.8499H20.3303Z" fill="#0C0A35"/>
<path d="M38.3401 11.4693C38.3401 11.8392 38.1951 12.3536 38.1951 12.7236C38.1951 13.0936 38.1951 13.4635 38.2404 13.8335C38.3764 15.0878 38.8295 16.288 39.7813 17.1272C38.9292 17.1813 36.7721 17.1813 35.92 17.1272C36.8627 16.288 37.3159 15.0878 37.4609 13.8335C37.4971 13.4635 37.4972 13.0936 37.5062 12.7236C37.5062 12.3626 37.3612 11.8392 37.3612 11.4693H38.3401Z" fill="#0C0A35"/>
<path d="M38.023 12.8499C38.7844 14.0049 40.1168 14.8171 41.5036 14.772C42.8904 14.7268 44.2409 13.7162 44.5128 12.3626C44.7484 11.1715 44.1684 9.94423 43.3345 9.05088C42.5006 8.15752 41.3586 7.57098 40.3434 6.90322C39.301 6.21741 37.8417 4.52094 37.8417 4.52094C37.8417 4.52094 36.2465 6.18131 35.3492 6.8581C34.3793 7.59805 33.1738 8.15752 32.349 9.05088C31.5151 9.94423 30.935 11.1715 31.1707 12.3626C31.4426 13.7162 32.7931 14.7268 34.1799 14.772C35.5667 14.8171 36.9082 14.0049 37.6605 12.8499H38.023Z" fill="#0C0A35"/>
<path d="M37.3432 76.5307C37.3432 76.1698 37.4882 75.6464 37.4882 75.2764C37.4882 74.9065 37.4882 74.5365 37.4429 74.1665C37.3069 72.9122 36.8537 71.712 35.902 70.8728C36.754 70.8187 38.9112 70.8187 39.7632 70.8728C38.8206 71.712 38.3674 72.9122 38.2223 74.1665C38.1861 74.5365 38.177 74.9065 38.177 75.2764C38.177 75.6464 38.3221 76.1608 38.3221 76.5307H37.3432Z" fill="#0C0A35"/>
<path d="M37.6605 75.1501C36.8991 73.995 35.5667 73.1738 34.1799 73.228C32.7931 73.2731 31.4426 74.2838 31.1707 75.6373C30.935 76.8285 31.5151 78.0557 32.349 78.9491C33.1829 79.8424 34.3249 80.429 35.3401 81.0967C36.3824 81.7825 37.8417 83.479 37.8417 83.479C37.8417 83.479 39.437 81.8186 40.3343 81.1419C41.3042 80.4019 42.5097 79.8424 43.3345 78.9491C44.1684 78.0557 44.7484 76.8285 44.5128 75.6373C44.2409 74.2838 42.8904 73.2731 41.5036 73.228C40.1168 73.1829 38.7753 73.995 38.023 75.1501H37.6605Z" fill="#0C0A35"/>
<path d="M19.6504 76.5307C19.6504 76.1698 19.7954 75.6464 19.7954 75.2764C19.7954 74.9065 19.7954 74.5365 19.7501 74.1665C19.6141 72.9122 19.1609 71.712 18.2092 70.8728C19.0612 70.8187 21.2185 70.8187 22.0705 70.8728C21.1278 71.712 20.6746 72.9122 20.5296 74.1665C20.4933 74.5365 20.4933 74.9065 20.4843 75.2764C20.4843 75.6464 20.6293 76.1608 20.6293 76.5307H19.6504Z" fill="#0C0A35"/>
<path d="M19.9677 75.1501C19.2063 73.995 17.874 73.1738 16.4872 73.228C15.1004 73.2731 13.7499 74.2838 13.4779 75.6373C13.2423 76.8285 13.8224 78.0557 14.6562 78.9491C15.4901 79.8424 16.6322 80.429 17.6474 81.0967C18.6897 81.7825 20.149 83.479 20.149 83.479C20.149 83.479 21.7443 81.8186 22.6416 81.1419C23.6114 80.4019 24.8169 79.8424 25.6417 78.9491C26.4756 78.0557 27.0557 76.8285 26.82 75.6373C26.5481 74.2838 25.1976 73.2731 23.8108 73.228C22.424 73.1829 21.0826 73.995 20.3303 75.1501H19.9677Z" fill="#0C0A35"/>
<path d="M29.4941 44.6226C29.4941 44.9926 29.349 45.5069 29.349 45.8769C29.349 46.2469 29.349 46.6168 29.3943 46.9868C29.5303 48.2411 29.9835 49.4413 30.9352 50.2805C30.0832 50.3346 27.926 50.3346 27.074 50.2805C28.0166 49.4413 28.4698 48.2411 28.6149 46.9868C28.6511 46.6168 28.6511 46.2469 28.6602 45.8769C28.6602 45.5069 28.5151 44.9926 28.5151 44.6226H29.4941Z" fill="#0C0A35"/>
<path d="M29.1769 46.0123C29.9383 47.1674 31.2707 47.9795 32.6574 47.9344C34.0442 47.8893 35.3948 46.8786 35.6667 45.525C35.9023 44.3339 35.3222 43.1066 34.4883 42.2133C33.6545 41.3199 32.5124 40.7334 31.4973 40.0656C30.4549 39.3798 28.9956 37.6833 28.9956 37.6833C28.9956 37.6833 27.4004 39.3437 26.503 40.0205C25.5332 40.7605 24.3277 41.3199 23.5029 42.2133C22.6781 43.1066 22.0889 44.3339 22.3246 45.525C22.5965 46.8786 23.947 47.8893 25.3338 47.9344C26.7206 47.9795 28.062 47.1674 28.8143 46.0123H29.1769Z" fill="#0C0A35"/>
</svg>
