<svg width="58" height="88" viewBox="0 0 58 88" fill="none" xmlns="http://www.w3.org/2000/svg">
<path d="M53.0909 88H4.90913C2.19784 88 0 85.8123 0 83.1136V4.8864C0 2.18767 2.19784 0 4.90913 0H53.0909C55.8022 0 58 2.18767 58 4.8864V83.1136C58 85.8123 55.8022 88 53.0909 88Z" fill="white"/>
<path d="M7.58434 16.5421C7.58434 16.6855 7.53029 16.8918 7.53029 17.0352C7.53029 17.1787 7.53031 17.3221 7.54833 17.4656C7.60237 17.9587 7.78251 18.4249 8.15182 18.7567C7.81854 18.7746 6.98084 18.7746 6.63855 18.7567C7.00786 18.4249 7.188 17.9587 7.24204 17.4656C7.26006 17.3221 7.26008 17.1787 7.26008 17.0352C7.26008 16.8918 7.20603 16.6855 7.20603 16.5421H7.58434Z" fill="#0C0A35"/>
<path d="M7.4854 16.9007C7.62952 16.9186 7.71059 17.0531 7.9628 17.331C8.197 17.5821 8.42219 17.851 8.94463 17.9138C9.20585 17.9497 9.56615 17.8062 9.72829 17.591C9.8634 17.4117 9.94446 17.1876 9.9985 16.9724C10.1066 16.56 10.0706 16.1565 9.8634 15.7799C9.66523 15.4123 9.11578 15.242 8.7825 15.4482C8.60235 15.5558 8.53928 15.6903 8.37715 15.7172C8.3231 15.7261 8.28707 15.6813 8.29608 15.6275C8.35913 15.3765 8.53927 15.3496 8.62034 15.0447C8.71942 14.6861 8.77349 14.4171 8.26906 13.9688C7.88173 13.6281 6.93594 13.664 6.5306 13.9688C6.11625 14.2826 6.07119 14.5695 6.17027 14.9282C6.25134 15.2061 6.41348 15.3316 6.48554 15.5737C6.51256 15.6544 6.4315 15.7351 6.35043 15.6992C6.23333 15.6544 6.16127 15.5379 6.00814 15.4482C5.67486 15.2509 5.12541 15.4123 4.92724 15.7799C4.72007 16.1565 4.68401 16.56 4.79211 16.9724C4.84615 17.1876 4.92724 17.4117 5.06235 17.591C5.22449 17.8062 5.57578 17.9497 5.84601 17.9138C6.36845 17.851 6.59364 17.5821 6.82784 17.331C7.08906 17.0531 7.16112 16.9186 7.30524 16.9007H7.4854Z" fill="#0C0A35"/>
<path d="M10.1426 5.77404L9.21477 6.02509C8.89951 5.20023 8.32303 4.7878 7.48533 4.7878C5.95403 4.7878 5.16137 6.05198 5.12534 8.58036C5.36854 8.01551 5.71083 7.60308 6.16121 7.3341C6.61159 7.06513 7.07997 6.93064 7.5844 6.93064C8.34104 6.93064 8.98057 7.19065 9.49401 7.71963C10.0074 8.24862 10.2687 8.87623 10.2687 9.6204C10.2687 10.3825 9.99844 11.046 9.44898 11.6019C8.89952 12.1577 8.20594 12.4357 7.35022 12.4357C6.3864 12.4357 5.61174 12.0681 5.03526 11.3418C4.45877 10.6156 4.17053 9.62936 4.17053 8.37414C4.17053 7.15479 4.44076 6.10578 4.98121 5.24506C5.52167 4.38433 6.35936 3.95397 7.49432 3.95397C8.82744 3.945 9.70118 4.55468 10.1426 5.77404ZM7.35022 11.6108C7.92671 11.6108 8.4041 11.4225 8.77341 11.037C9.14272 10.6604 9.33188 10.2032 9.33188 9.66523C9.33188 9.13624 9.15172 8.68795 8.79141 8.31138C8.43111 7.93482 7.98074 7.74653 7.44929 7.74653C6.89982 7.74653 6.41341 7.94378 6.00807 8.33828C5.60272 8.73278 5.38654 9.199 5.38654 9.72799C5.38654 10.2211 5.5667 10.6515 5.93602 11.037C6.29632 11.4136 6.76472 11.6108 7.35022 11.6108Z" fill="#0C0A35"/>
<path d="M50.3885 71.4579C50.3885 71.3145 50.4426 71.1083 50.4426 70.9648C50.4426 70.8214 50.4426 70.6779 50.4245 70.5344C50.3705 70.0413 50.1904 69.5751 49.821 69.2434C50.1543 69.2254 50.992 69.2254 51.3343 69.2434C50.965 69.5751 50.7848 70.0413 50.7308 70.5344C50.7128 70.6779 50.7128 70.8214 50.7128 70.9648C50.7128 71.1083 50.7668 71.3145 50.7668 71.4579H50.3885Z" fill="#0C0A35"/>
<path d="M50.4876 71.0992C50.3435 71.0813 50.2624 70.9468 50.0102 70.6689C49.776 70.4178 49.5508 70.1489 49.0284 70.0861C48.7672 70.0502 48.4069 70.1937 48.2447 70.4089C48.1096 70.5882 48.0285 70.8123 47.9745 71.0275C47.8664 71.4399 47.9024 71.8434 48.1096 72.22C48.3078 72.5876 48.8572 72.7579 49.1995 72.5517C49.3797 72.4441 49.4427 72.3096 49.6049 72.2827C49.6589 72.2738 49.695 72.3186 49.6859 72.3724C49.6229 72.6234 49.4427 72.6503 49.3617 72.9552C49.2626 73.3048 49.2085 73.5828 49.713 74.0311C50.1003 74.3718 51.0461 74.3359 51.4514 74.0311C51.8658 73.7173 51.9108 73.4304 51.8117 73.0717C51.7307 72.7938 51.5775 72.6683 51.4965 72.4262C51.4694 72.3455 51.5505 72.2648 51.6226 72.3007C51.7397 72.3455 51.8117 72.462 51.9649 72.5517C52.2982 72.749 52.8476 72.5876 53.0458 72.22C53.2529 71.8434 53.289 71.4399 53.1809 71.0275C53.1268 70.8123 53.0458 70.5882 52.9107 70.4089C52.7485 70.1937 52.3972 70.0502 52.127 70.0861C51.6046 70.1489 51.3794 70.4178 51.1452 70.6689C50.884 70.9468 50.8119 71.0813 50.6678 71.0992H50.4876Z" fill="#0C0A35"/>
<path d="M47.6142 82.2259L48.533 81.9748C48.8483 82.7997 49.4248 83.2121 50.2625 83.2121C51.7938 83.2121 52.5864 81.9479 52.6225 79.4195C52.3793 79.9844 52.037 80.3968 51.5866 80.6658C51.1362 80.9348 50.6678 81.0693 50.1634 81.0693C49.4068 81.0693 48.7672 80.8092 48.2538 80.2803C47.7403 79.7513 47.4791 79.1237 47.4791 78.3795C47.4791 77.6174 47.7494 76.9539 48.2988 76.398C48.8483 75.8422 49.5419 75.5642 50.3976 75.5642C51.3614 75.5642 52.1361 75.9318 52.7125 76.658C53.289 77.3843 53.5773 78.3705 53.5773 79.6257C53.5773 80.8451 53.307 81.8941 52.7666 82.7548C52.2261 83.6156 51.3884 84.0549 50.2535 84.0549C48.9293 84.0549 48.0556 83.4452 47.6142 82.2259ZM50.4066 76.3891C49.8301 76.3891 49.3527 76.5774 48.9834 76.9629C48.6141 77.3394 48.4249 77.8057 48.4249 78.3347C48.4249 78.8637 48.6051 79.3119 48.9654 79.6885C49.3257 80.0651 49.7761 80.2534 50.3075 80.2534C50.857 80.2534 51.3434 80.0561 51.7487 79.6616C52.1631 79.2671 52.3703 78.8009 52.3703 78.2719C52.3703 77.7788 52.1901 77.3484 51.8208 76.9629C51.4605 76.5863 50.9921 76.3891 50.4066 76.3891Z" fill="#0C0A35"/>
<path d="M19.3034 12.382C19.3034 12.7496 19.4475 13.2696 19.4475 13.6372C19.4475 14.0048 19.4475 14.3814 19.4025 14.74C19.2674 15.9952 18.808 17.1877 17.8622 18.0305C18.7179 18.0843 20.8617 18.0843 21.7174 18.0305C20.7716 17.1877 20.3213 15.9952 20.1771 14.74C20.1411 14.3724 20.1321 14.0048 20.1321 13.6372C20.1321 13.2696 20.2762 12.7496 20.2762 12.382H19.3034Z" fill="#0C0A35"/>
<path d="M19.5555 13.2875C19.1952 13.3413 18.988 13.682 18.3304 14.3903C17.7359 15.0268 17.1505 15.7082 15.8173 15.8696C15.1418 15.9503 14.232 15.5917 13.8176 15.0448C13.4663 14.5785 13.2772 14.0227 13.1331 13.4578C12.8538 12.4088 12.9619 11.3688 13.4754 10.4094C13.9888 9.45903 15.385 9.03764 16.2497 9.55766C16.7091 9.8356 16.8622 10.1673 17.2856 10.248C17.4117 10.2749 17.5288 10.1494 17.4927 10.0239C17.3216 9.37834 16.8712 9.30661 16.655 8.53555C16.4028 7.62999 16.2587 6.93066 17.5558 5.79199C18.5466 4.9223 20.9607 5.00299 22.0056 5.79199C23.0685 6.59892 23.1765 7.32516 22.9243 8.23071C22.7262 8.94798 22.3118 9.27075 22.1227 9.87146C22.0596 10.0777 22.2578 10.2749 22.4559 10.1942C22.7622 10.0687 22.9333 9.79077 23.3297 9.55766C24.1944 9.0466 25.5816 9.45903 26.104 10.4094C26.6265 11.3688 26.7255 12.4088 26.4463 13.4578C26.3022 14.0137 26.104 14.5785 25.7617 15.0448C25.3474 15.5917 24.4466 15.9593 23.7621 15.8696C22.4289 15.7082 21.8434 15.0268 21.2489 14.3903C20.5914 13.682 20.3932 13.3413 20.0329 13.2875H19.5555Z" fill="#0C0A35"/>
<path d="M37.7059 12.382C37.7059 12.7496 37.85 13.2696 37.85 13.6372C37.85 14.0048 37.85 14.3814 37.805 14.74C37.6699 15.9952 37.2104 17.1877 36.2646 18.0305C37.1204 18.0843 39.2642 18.0843 40.1199 18.0305C39.1741 17.1877 38.7237 15.9952 38.5796 14.74C38.5436 14.3724 38.5346 14.0048 38.5346 13.6372C38.5346 13.2696 38.6787 12.7496 38.6787 12.382H37.7059Z" fill="#0C0A35"/>
<path d="M37.967 13.2875C37.6067 13.3413 37.3995 13.682 36.751 14.3903C36.1565 15.0268 35.571 15.7082 34.2378 15.8696C33.5623 15.9503 32.6525 15.5917 32.2381 15.0448C31.8869 14.5785 31.6977 14.0227 31.5536 13.4578C31.2744 12.4088 31.3824 11.3688 31.8959 10.4094C32.4093 9.45903 33.8055 9.03764 34.6702 9.55766C35.1296 9.8356 35.2827 10.1673 35.7061 10.248C35.8322 10.2749 35.9493 10.1494 35.9133 10.0239C35.7421 9.37834 35.2918 9.30661 35.0756 8.53555C34.8234 7.62999 34.6792 6.93066 35.9763 5.79199C36.9672 4.9223 39.3812 5.00299 40.4261 5.79199C41.489 6.59892 41.5971 7.32516 41.3358 8.23071C41.1377 8.94798 40.7233 9.27075 40.5342 9.87146C40.4711 10.0777 40.6693 10.2749 40.8675 10.1942C41.1737 10.0687 41.3449 9.79077 41.7412 9.55766C42.6059 9.0466 43.9931 9.45903 44.5155 10.4094C45.038 11.3688 45.1371 12.4088 44.8578 13.4578C44.7137 14.0137 44.5155 14.5785 44.1732 15.0448C43.7589 15.5917 42.8581 15.9593 42.1735 15.8696C40.8404 15.7082 40.2549 15.0268 39.6604 14.3903C39.0029 13.682 38.8047 13.3413 38.4444 13.2875H37.967Z" fill="#0C0A35"/>
<path d="M19.3034 44.7577C19.3034 45.1253 19.4475 45.6453 19.4475 46.0129C19.4475 46.3805 19.4475 46.757 19.4025 47.1157C19.2674 48.3709 18.808 49.5634 17.8622 50.4062C18.7179 50.46 20.8617 50.46 21.7174 50.4062C20.7716 49.5634 20.3213 48.3709 20.1771 47.1157C20.1411 46.7481 20.1321 46.3805 20.1321 46.0129C20.1321 45.6453 20.2762 45.1253 20.2762 44.7577H19.3034Z" fill="#0C0A35"/>
<path d="M19.5555 45.6722C19.1952 45.726 18.988 46.0667 18.3304 46.775C17.7359 47.4115 17.1505 48.0929 15.8173 48.2543C15.1418 48.335 14.232 47.9764 13.8176 47.4295C13.4663 46.9632 13.2772 46.4074 13.1331 45.8425C12.8538 44.7935 12.9619 43.7535 13.4754 42.7941C13.9888 41.8437 15.385 41.4223 16.2497 41.9424C16.7091 42.2203 16.8622 42.552 17.2856 42.6327C17.4117 42.6596 17.5288 42.5341 17.4927 42.4086C17.3216 41.763 16.8712 41.6913 16.655 40.9202C16.4028 40.0147 16.2587 39.3154 17.5558 38.1767C18.5466 37.307 20.9607 37.3877 22.0056 38.1767C23.0685 38.9836 23.1765 39.7099 22.9243 40.6244C22.7262 41.3416 22.3118 41.6644 22.1227 42.2651C22.0596 42.4713 22.2578 42.6686 22.4559 42.5879C22.7622 42.4624 22.9333 42.1844 23.3297 41.9513C24.1944 41.4403 25.5816 41.8617 26.104 42.8031C26.6265 43.7624 26.7255 44.8025 26.4463 45.8515C26.3022 46.4074 26.104 46.9722 25.7617 47.4384C25.3474 47.9854 24.4466 48.353 23.7621 48.2633C22.4289 48.1019 21.8434 47.4205 21.2489 46.7839C20.5914 46.0756 20.3932 45.7349 20.0329 45.6811H19.5555V45.6722Z" fill="#0C0A35"/>
<path d="M37.7059 44.7577C37.7059 45.1253 37.85 45.6453 37.85 46.0129C37.85 46.3805 37.85 46.757 37.805 47.1157C37.6699 48.3709 37.2104 49.5634 36.2646 50.4062C37.1204 50.46 39.2642 50.46 40.1199 50.4062C39.1741 49.5634 38.7237 48.3709 38.5796 47.1157C38.5436 46.7481 38.5346 46.3805 38.5346 46.0129C38.5346 45.6453 38.6787 45.1253 38.6787 44.7577H37.7059Z" fill="#0C0A35"/>
<path d="M37.967 45.6722C37.6067 45.726 37.3995 46.0667 36.751 46.775C36.1565 47.4115 35.571 48.0929 34.2378 48.2543C33.5623 48.335 32.6525 47.9764 32.2381 47.4295C31.8869 46.9632 31.6977 46.4074 31.5536 45.8425C31.2744 44.7935 31.3824 43.7535 31.8959 42.7941C32.4093 41.8437 33.8055 41.4223 34.6702 41.9424C35.1296 42.2203 35.2827 42.552 35.7061 42.6327C35.8322 42.6596 35.9493 42.5341 35.9133 42.4086C35.7421 41.763 35.2918 41.6913 35.0756 40.9202C34.8234 40.0147 34.6792 39.3154 35.9763 38.1767C36.9672 37.307 39.3812 37.3877 40.4261 38.1767C41.489 38.9836 41.5971 39.7099 41.3358 40.6244C41.1377 41.3416 40.7233 41.6644 40.5342 42.2651C40.4711 42.4713 40.6693 42.6686 40.8675 42.5879C41.1737 42.4624 41.3449 42.1844 41.7412 41.9513C42.6059 41.4403 43.9931 41.8617 44.5155 42.8031C45.038 43.7624 45.1371 44.8025 44.8578 45.8515C44.7137 46.4074 44.5155 46.9722 44.1732 47.4384C43.7589 47.9854 42.8581 48.353 42.1735 48.2633C40.8404 48.1019 40.2549 47.4205 39.6604 46.7839C39.0029 46.0756 38.8047 45.7349 38.4444 45.6811H37.967V45.6722Z" fill="#0C0A35"/>
<path d="M38.6967 75.6271C38.6967 75.2595 38.5526 74.7395 38.5526 74.3719C38.5526 74.0043 38.5526 73.6367 38.5977 73.2691C38.7328 72.0139 39.1922 70.8214 40.138 69.9786C39.2822 69.9248 37.1384 69.9248 36.2827 69.9786C37.2285 70.8214 37.6789 72.0139 37.823 73.2691C37.859 73.6367 37.868 74.0043 37.868 74.3719C37.868 74.7395 37.7239 75.2595 37.7239 75.6271H38.6967Z" fill="#0C0A35"/>
<path d="M38.4444 74.7126C38.8048 74.6588 39.0119 74.3181 39.6605 73.6098C40.255 72.9733 40.8405 72.2918 42.1736 72.1305C42.8492 72.0498 43.7589 72.4084 44.1733 72.9553C44.5246 73.4215 44.7137 73.9774 44.8579 74.5423C45.1371 75.5913 45.029 76.6313 44.5156 77.5907C44.0021 78.5411 42.606 78.9625 41.7412 78.4424C41.2818 78.1645 41.1287 77.8328 40.7054 77.7521C40.5793 77.7252 40.4622 77.8507 40.4982 77.9762C40.6693 78.6218 41.1197 78.6935 41.3359 79.4645C41.5881 80.3701 41.7322 81.0694 40.4351 82.2081C39.4443 83.0778 37.0302 82.9971 35.9854 82.2081C34.9225 81.4012 34.8144 80.6749 35.0756 79.7694C35.2738 79.0521 35.6881 78.7293 35.8773 78.1286C35.9403 77.9224 35.7422 77.7252 35.544 77.8059C35.2377 77.9314 35.0666 78.2093 34.6703 78.4424C33.8055 78.9535 32.4184 78.5321 31.8959 77.5907C31.3735 76.6313 31.2744 75.5913 31.5536 74.5423C31.6978 73.9864 31.8959 73.4215 32.2382 72.9553C32.6435 72.4084 33.5533 72.0498 34.2379 72.1305C35.571 72.2918 36.1565 72.9733 36.751 73.6098C37.4086 74.3181 37.6157 74.6588 37.967 74.7126H38.4444Z" fill="#0C0A35"/>
<path d="M20.2943 75.6271C20.2943 75.2595 20.1502 74.7395 20.1502 74.3719C20.1502 74.0043 20.1502 73.6367 20.1952 73.2691C20.3303 72.0139 20.7897 70.8214 21.7355 69.9786C20.8798 69.9248 18.736 69.9248 17.8802 69.9786C18.826 70.8214 19.2764 72.0139 19.4206 73.2691C19.4566 73.6367 19.4656 74.0043 19.4656 74.3719C19.4656 74.7395 19.3215 75.2595 19.3215 75.6271H20.2943Z" fill="#0C0A35"/>
<path d="M20.0329 74.7126C20.3933 74.6588 20.6004 74.3181 21.249 73.6098C21.8435 72.9733 22.429 72.2918 23.7621 72.1305C24.4377 72.0498 25.3474 72.4084 25.7618 72.9553C26.1131 73.4215 26.3022 73.9774 26.4464 74.5423C26.7256 75.5913 26.6175 76.6313 26.1041 77.5907C25.5906 78.5411 24.1945 78.9625 23.3297 78.4424C22.8703 78.1645 22.7172 77.8328 22.2939 77.7521C22.1678 77.7252 22.0507 77.8507 22.0867 77.9762C22.2578 78.6218 22.7082 78.6935 22.9244 79.4645C23.1766 80.3701 23.3117 81.0694 22.0236 82.2081C21.0328 83.0778 18.6187 82.9971 17.5739 82.2081C16.511 81.4012 16.4029 80.6749 16.6641 79.7694C16.8623 79.0521 17.2766 78.7293 17.4658 78.1286C17.5288 77.9224 17.3307 77.7252 17.1325 77.8059C16.8262 77.9314 16.6551 78.2093 16.2588 78.4424C15.394 78.9535 14.0069 78.5321 13.4844 77.5907C12.962 76.6313 12.8629 75.5913 13.1421 74.5423C13.2863 73.9864 13.4844 73.4215 13.8267 72.9553C14.232 72.4084 15.1418 72.0498 15.8264 72.1305C17.1595 72.2918 17.745 72.9733 18.3395 73.6098C18.9971 74.3181 19.1952 74.6588 19.5646 74.7126H20.0329Z" fill="#0C0A35"/>
</svg>
