<svg width="58" height="88" viewBox="0 0 58 88" fill="none" xmlns="http://www.w3.org/2000/svg">
<path d="M53.0901 88H4.9099C2.19818 88 0 85.8119 0 83.1126V4.88739C0 2.18812 2.19818 0 4.9099 0H53.0901C55.8018 0 58 2.18812 58 4.88739V83.1126C58 85.8119 55.8018 88 53.0901 88Z" fill="white"/>
<path d="M7.38745 17.8816C7.45051 17.8816 7.52257 17.8636 7.57663 17.8278C8.00005 17.5498 9.10818 16.3929 9.42349 16.0701C9.48655 16.0073 9.5406 15.9356 9.5316 15.8459C9.52259 15.7741 9.46854 15.7203 9.42349 15.6755C8.94601 15.2002 8.44151 14.7518 7.99106 14.2496C7.79286 14.0344 7.56763 13.7833 7.42349 13.7744H7.3514C7.20726 13.7833 6.97305 14.0344 6.78386 14.2496C6.33341 14.7518 5.82891 15.2002 5.35143 15.6755C5.30638 15.7203 5.25231 15.7831 5.2433 15.8459C5.23429 15.9356 5.29737 16.0073 5.35143 16.0701C5.66674 16.3929 6.77484 17.5498 7.19826 17.8278C7.25232 17.8636 7.31537 17.8816 7.38745 17.8816Z" fill="#D6002B"/>
<path d="M50.6307 73.9027C50.6938 73.9027 50.7659 73.8848 50.8199 73.8489C51.2433 73.5709 52.3515 72.4141 52.6668 72.0913C52.7298 72.0285 52.7839 71.9567 52.7749 71.8671C52.7659 71.7953 52.7118 71.7415 52.6668 71.6967C52.1893 71.2214 51.6848 70.773 51.2343 70.2708C51.0361 70.0556 50.8109 69.8045 50.6668 69.7955H50.5947C50.4505 69.8045 50.2163 70.0556 50.0271 70.2708C49.5767 70.773 49.0722 71.2214 48.5947 71.6967C48.5497 71.7415 48.4956 71.8043 48.4866 71.8671C48.4776 71.9567 48.5407 72.0285 48.5947 72.0913C48.91 72.4141 50.0181 73.5709 50.4416 73.8489C50.4956 73.8848 50.5587 73.9027 50.6307 73.9027Z" fill="#D6002B"/>
<path d="M10.1441 5.77518L9.2162 6.02627C8.90088 5.20124 8.32432 4.78873 7.48648 4.78873C5.95495 4.78873 5.16216 6.05318 5.12612 8.58207C5.36937 8.0171 5.7117 7.60459 6.16215 7.33556C6.6126 7.06653 7.08106 6.93201 7.58557 6.93201C8.34232 6.93201 8.98196 7.19207 9.49547 7.72117C10.009 8.25026 10.2703 8.878 10.2703 9.62232C10.2703 10.3846 9.99999 11.0482 9.45044 11.6042C8.90089 12.1602 8.20718 12.4382 7.35132 12.4382C6.38736 12.4382 5.6126 12.0795 5.03603 11.3531C4.45945 10.6267 4.17114 9.64025 4.17114 8.38478C4.17114 7.16517 4.44143 6.11595 4.98198 5.25505C5.52252 4.39415 6.36033 3.9637 7.49547 3.9637C8.8198 3.94577 9.69367 4.55557 10.1441 5.77518ZM7.34233 11.6131C7.91891 11.6131 8.39638 11.4248 8.76574 11.0392C9.13511 10.6626 9.3243 10.2052 9.3243 9.66716C9.3243 9.13806 9.14414 8.68968 8.78378 8.31304C8.42342 7.93639 7.97295 7.74807 7.44142 7.74807C6.89187 7.74807 6.40538 7.94536 5.99997 8.33994C5.58556 8.73452 5.37837 9.20084 5.37837 9.72993C5.37837 10.2232 5.55854 10.6536 5.92791 11.0392C6.28827 11.4159 6.76576 11.6131 7.34233 11.6131Z" fill="#D6002B"/>
<path d="M47.6036 82.2248L48.5225 81.9737C48.8378 82.7988 49.4144 83.2113 50.2522 83.2113C51.7837 83.2113 52.5765 81.9468 52.6126 79.4179C52.3693 79.9829 52.027 80.3954 51.5765 80.6644C51.1261 80.9335 50.6576 81.068 50.1531 81.068C49.3963 81.068 48.7567 80.8079 48.2432 80.2788C47.7297 79.7497 47.4774 79.122 47.4774 78.3777C47.4774 77.6154 47.7477 76.9518 48.2972 76.3958C48.8468 75.8398 49.5405 75.5618 50.3964 75.5618C51.3603 75.5618 52.1351 75.9295 52.7117 76.6559C53.2882 77.3823 53.5765 78.3687 53.5765 79.6242C53.5765 80.8438 53.3062 81.893 52.7657 82.7539C52.2252 83.6148 51.3873 84.0542 50.2522 84.0542C48.9189 84.0542 48.045 83.4444 47.6036 82.2248ZM50.4053 76.3958C49.8288 76.3958 49.3513 76.5841 48.9819 76.9698C48.6126 77.3464 48.4234 77.8038 48.4234 78.3418C48.4234 78.8709 48.6035 79.3193 48.9639 79.6959C49.3243 80.0726 49.7747 80.2609 50.3063 80.2609C50.8558 80.2609 51.3423 80.0636 51.7477 79.669C52.1621 79.2744 52.3693 78.8081 52.3693 78.279C52.3693 77.7858 52.1891 77.3554 51.8198 76.9698C51.4594 76.5841 50.9819 76.3958 50.4053 76.3958Z" fill="#D6002B"/>
<path d="M19.9368 18.59C20.162 18.59 20.3783 18.5273 20.5584 18.4107C21.9638 17.4781 25.5855 13.6758 26.6395 12.6086C26.8377 12.4113 27.0449 12.1602 27.0089 11.8732C26.9819 11.6491 26.8107 11.4697 26.6485 11.3083C25.072 9.73893 23.4053 8.25926 21.9188 6.60921C21.2792 5.90076 20.5224 5.07573 20.0449 5.04883H19.8017C19.3242 5.07573 18.5675 5.90076 17.9278 6.60921C16.4413 8.25926 14.7747 9.73893 13.1981 11.3083C13.0359 11.4697 12.8648 11.6491 12.8377 11.8732C12.8017 12.1512 13.0089 12.4023 13.2071 12.6086C14.2611 13.6758 17.8828 17.4781 19.2882 18.4107C19.4954 18.5273 19.7116 18.59 19.9368 18.59Z" fill="#D6002B"/>
<path d="M38.054 18.59C38.2792 18.59 38.4954 18.5273 38.6756 18.4107C40.081 17.4781 43.7026 13.6758 44.7567 12.6086C44.9549 12.4113 45.1621 12.1602 45.1261 11.8732C45.099 11.6491 44.9279 11.4697 44.7657 11.3083C43.1891 9.73893 41.5225 8.25926 40.036 6.60921C39.3963 5.90076 38.6396 5.07573 38.1621 5.04883H37.9189C37.4414 5.07573 36.6846 5.90076 36.045 6.60921C34.5585 8.25926 32.8918 9.73893 31.3152 11.3083C31.1531 11.4697 30.9819 11.6491 30.9549 11.8732C30.9278 12.1512 31.1261 12.4023 31.3242 12.6086C32.3783 13.6758 35.9999 17.4781 37.4053 18.4107C37.6125 18.5273 37.8288 18.59 38.054 18.59Z" fill="#D6002B"/>
<path d="M19.9368 50.7661C20.162 50.7661 20.3783 50.7034 20.5584 50.5868C21.9638 49.6541 25.5855 45.8518 26.6395 44.7847C26.8377 44.5874 27.0449 44.3363 27.0089 44.0493C26.9819 43.8251 26.8107 43.6458 26.6485 43.4844C25.072 41.915 23.4053 40.4354 21.9188 38.7853C21.2792 38.0768 20.5224 37.2518 20.0449 37.2249H19.8017C19.3242 37.2518 18.5675 38.0768 17.9278 38.7853C16.4413 40.4354 14.7747 41.915 13.1981 43.4844C13.0359 43.6458 12.8648 43.8251 12.8377 44.0493C12.8017 44.3273 13.0089 44.5784 13.2071 44.7847C14.2611 45.8518 17.8828 49.6541 19.2882 50.5868C19.4954 50.7123 19.7116 50.7661 19.9368 50.7661Z" fill="#D6002B"/>
<path d="M38.054 50.7661C38.2792 50.7661 38.4954 50.7034 38.6756 50.5868C40.081 49.6541 43.7026 45.8518 44.7567 44.7847C44.9549 44.5874 45.1621 44.3363 45.1261 44.0493C45.099 43.8251 44.9279 43.6458 44.7657 43.4844C43.1891 41.915 41.5225 40.4354 40.036 38.7853C39.3963 38.0768 38.6396 37.2518 38.1621 37.2249H37.9189C37.4414 37.2518 36.6846 38.0768 36.045 38.7853C34.5585 40.4354 32.8918 41.915 31.3152 43.4844C31.1531 43.6458 30.9819 43.8251 30.9549 44.0493C30.9278 44.3273 31.1261 44.5784 31.3242 44.7847C32.3783 45.8518 35.9999 49.6541 37.4053 50.5868C37.6125 50.7123 37.8288 50.7661 38.054 50.7661Z" fill="#D6002B"/>
<path d="M38.9369 69.419C38.7117 69.419 38.4955 69.4817 38.3153 69.5983C36.9099 70.531 33.2883 74.3333 32.2342 75.4004C32.036 75.5977 31.8288 75.8488 31.8648 76.1268C31.8919 76.351 32.063 76.5304 32.2252 76.6918C33.8018 78.2611 35.4684 79.7318 36.9549 81.3908C37.5946 82.0993 38.3513 82.9243 38.8288 82.9512H39.072C39.5495 82.9243 40.3063 82.0993 40.9459 81.3908C42.4324 79.7408 44.0991 78.2611 45.6756 76.6918C45.8378 76.5304 46.009 76.351 46.036 76.1268C46.072 75.8488 45.8648 75.5977 45.6666 75.4004C44.6126 74.3333 40.991 70.531 39.5856 69.5983C39.3874 69.4817 39.1711 69.419 38.9369 69.419Z" fill="#D6002B"/>
<path d="M20.8197 69.419C20.5945 69.419 20.3783 69.4817 20.1981 69.5983C18.7927 70.531 15.1711 74.3333 14.117 75.4004C13.9188 75.5977 13.7116 75.8488 13.7476 76.1268C13.7747 76.351 13.9458 76.5304 14.108 76.6918C15.6846 78.2611 17.3512 79.7318 18.8377 81.3908C19.4774 82.0993 20.2341 82.9243 20.7116 82.9512H20.9549C21.4323 82.9243 22.1891 82.0993 22.8287 81.3908C24.3152 79.7408 25.9819 78.2611 27.5585 76.6918C27.7206 76.5304 27.8918 76.351 27.9188 76.1268C27.9549 75.8488 27.7477 75.5977 27.5495 75.4004C26.4954 74.3333 22.8738 70.531 21.4684 69.5983C21.2612 69.4817 21.0449 69.419 20.8197 69.419Z" fill="#D6002B"/>
<path d="M19.9368 18.59C20.162 18.59 20.3783 18.5273 20.5584 18.4107C21.9638 17.4781 25.5855 13.6758 26.6395 12.6086C26.8377 12.4113 27.0449 12.1602 27.0089 11.8732C26.9819 11.6491 26.8107 11.4697 26.6485 11.3083C25.072 9.73893 23.4053 8.25926 21.9188 6.60921C21.2792 5.90076 20.5224 5.07573 20.0449 5.04883H19.8017C19.3242 5.07573 18.5675 5.90076 17.9278 6.60921C16.4413 8.25926 14.7747 9.73893 13.1981 11.3083C13.0359 11.4697 12.8648 11.6491 12.8377 11.8732C12.8017 12.1512 13.0089 12.4023 13.2071 12.6086C14.2611 13.6758 17.8828 17.4781 19.2882 18.4107C19.4954 18.5273 19.7116 18.59 19.9368 18.59Z" fill="#D6002B"/>
<path d="M38.054 18.59C38.2792 18.59 38.4954 18.5273 38.6756 18.4107C40.081 17.4781 43.7026 13.6758 44.7567 12.6086C44.9549 12.4113 45.1621 12.1602 45.1261 11.8732C45.099 11.6491 44.9279 11.4697 44.7657 11.3083C43.1891 9.73893 41.5225 8.25926 40.036 6.60921C39.3963 5.90076 38.6396 5.07573 38.1621 5.04883H37.9189C37.4414 5.07573 36.6846 5.90076 36.045 6.60921C34.5585 8.25926 32.8918 9.73893 31.3152 11.3083C31.1531 11.4697 30.9819 11.6491 30.9549 11.8732C30.9278 12.1512 31.1261 12.4023 31.3242 12.6086C32.3783 13.6758 35.9999 17.4781 37.4053 18.4107C37.6125 18.5273 37.8288 18.59 38.054 18.59Z" fill="#D6002B"/>
<path d="M19.9368 50.7661C20.162 50.7661 20.3783 50.7034 20.5584 50.5868C21.9638 49.6541 25.5855 45.8518 26.6395 44.7847C26.8377 44.5874 27.0449 44.3363 27.0089 44.0493C26.9819 43.8251 26.8107 43.6458 26.6485 43.4844C25.072 41.915 23.4053 40.4354 21.9188 38.7853C21.2792 38.0768 20.5224 37.2518 20.0449 37.2249H19.8017C19.3242 37.2518 18.5675 38.0768 17.9278 38.7853C16.4413 40.4354 14.7747 41.915 13.1981 43.4844C13.0359 43.6458 12.8648 43.8251 12.8377 44.0493C12.8017 44.3273 13.0089 44.5784 13.2071 44.7847C14.2611 45.8518 17.8828 49.6541 19.2882 50.5868C19.4954 50.7123 19.7116 50.7661 19.9368 50.7661Z" fill="#D6002B"/>
<path d="M38.054 50.7661C38.2792 50.7661 38.4954 50.7034 38.6756 50.5868C40.081 49.6541 43.7026 45.8518 44.7567 44.7847C44.9549 44.5874 45.1621 44.3363 45.1261 44.0493C45.099 43.8251 44.9279 43.6458 44.7657 43.4844C43.1891 41.915 41.5225 40.4354 40.036 38.7853C39.3963 38.0768 38.6396 37.2518 38.1621 37.2249H37.9189C37.4414 37.2518 36.6846 38.0768 36.045 38.7853C34.5585 40.4354 32.8918 41.915 31.3152 43.4844C31.1531 43.6458 30.9819 43.8251 30.9549 44.0493C30.9278 44.3273 31.1261 44.5784 31.3242 44.7847C32.3783 45.8518 35.9999 49.6541 37.4053 50.5868C37.6125 50.7123 37.8288 50.7661 38.054 50.7661Z" fill="#D6002B"/>
<path d="M38.9369 69.419C38.7117 69.419 38.4955 69.4817 38.3153 69.5983C36.9099 70.531 33.2883 74.3333 32.2342 75.4004C32.036 75.5977 31.8288 75.8488 31.8648 76.1268C31.8919 76.351 32.063 76.5304 32.2252 76.6918C33.8018 78.2611 35.4684 79.7318 36.9549 81.3908C37.5946 82.0993 38.3513 82.9243 38.8288 82.9512H39.072C39.5495 82.9243 40.3063 82.0993 40.9459 81.3908C42.4324 79.7408 44.0991 78.2611 45.6756 76.6918C45.8378 76.5304 46.009 76.351 46.036 76.1268C46.072 75.8488 45.8648 75.5977 45.6666 75.4004C44.6126 74.3333 40.991 70.531 39.5856 69.5983C39.3874 69.4817 39.1711 69.419 38.9369 69.419Z" fill="#D6002B"/>
<path d="M20.8197 69.419C20.5945 69.419 20.3783 69.4817 20.1981 69.5983C18.7927 70.531 15.1711 74.3333 14.117 75.4004C13.9188 75.5977 13.7116 75.8488 13.7476 76.1268C13.7747 76.351 13.9458 76.5304 14.108 76.6918C15.6846 78.2611 17.3512 79.7318 18.8377 81.3908C19.4774 82.0993 20.2341 82.9243 20.7116 82.9512H20.9549C21.4323 82.9243 22.1891 82.0993 22.8287 81.3908C24.3152 79.7408 25.9819 78.2611 27.5585 76.6918C27.7206 76.5304 27.8918 76.351 27.9188 76.1268C27.9549 75.8488 27.7477 75.5977 27.5495 75.4004C26.4954 74.3333 22.8738 70.531 21.4684 69.5983C21.2612 69.4817 21.0449 69.419 20.8197 69.419Z" fill="#D6002B"/>
</svg>
