<svg width="58" height="88" viewBox="0 0 58 88" fill="none" xmlns="http://www.w3.org/2000/svg">
<path d="M53.0901 88H4.9099C2.19818 88 0 85.8119 0 83.1126V4.88739C0 2.18812 2.19818 0 4.9099 0H53.0901C55.8018 0 58 2.18812 58 4.88739V83.1126C58 85.8119 55.8018 88 53.0901 88Z" fill="white"/>
<path d="M10.1441 5.77518L9.2162 6.02627C8.90088 5.20124 8.32432 4.78873 7.48648 4.78873C5.95495 4.78873 5.16216 6.05318 5.12612 8.58207C5.36937 8.0171 5.7117 7.60459 6.16215 7.33556C6.6126 7.06653 7.08106 6.93201 7.58557 6.93201C8.34232 6.93201 8.98196 7.19207 9.49547 7.72117C10.009 8.25026 10.2703 8.878 10.2703 9.62232C10.2703 10.3846 9.99999 11.0482 9.45044 11.6042C8.90089 12.1602 8.20718 12.4382 7.35132 12.4382C6.38736 12.4382 5.6126 12.0795 5.03603 11.3531C4.45945 10.6267 4.17114 9.64025 4.17114 8.38478C4.17114 7.16517 4.44143 6.11595 4.98198 5.25505C5.52252 4.39415 6.36033 3.9637 7.49547 3.9637C8.8198 3.94577 9.69367 4.55557 10.1441 5.77518ZM7.34233 11.6131C7.91891 11.6131 8.39638 11.4248 8.76574 11.0392C9.13511 10.6626 9.3243 10.2052 9.3243 9.66716C9.3243 9.13806 9.14414 8.68968 8.78378 8.31304C8.42342 7.93639 7.97295 7.74807 7.44142 7.74807C6.89187 7.74807 6.40538 7.94536 5.99997 8.33994C5.58556 8.73452 5.37837 9.20084 5.37837 9.72993C5.37837 10.2232 5.55854 10.6536 5.92791 11.0392C6.28827 11.4159 6.76576 11.6131 7.34233 11.6131Z" fill="#D6002B"/>
<path d="M47.6036 82.2248L48.5225 81.9737C48.8378 82.7988 49.4144 83.2113 50.2522 83.2113C51.7837 83.2113 52.5765 81.9468 52.6126 79.4179C52.3693 79.9829 52.027 80.3954 51.5765 80.6644C51.1261 80.9335 50.6576 81.068 50.1531 81.068C49.3963 81.068 48.7567 80.8079 48.2432 80.2788C47.7297 79.7497 47.4774 79.122 47.4774 78.3777C47.4774 77.6154 47.7477 76.9518 48.2972 76.3958C48.8468 75.8398 49.5405 75.5618 50.3964 75.5618C51.3603 75.5618 52.1351 75.9295 52.7117 76.6559C53.2882 77.3823 53.5765 78.3687 53.5765 79.6242C53.5765 80.8438 53.3062 81.893 52.7657 82.7539C52.2252 83.6148 51.3873 84.0542 50.2522 84.0542C48.9189 84.0542 48.045 83.4444 47.6036 82.2248ZM50.4053 76.3958C49.8288 76.3958 49.3513 76.5841 48.9819 76.9698C48.6126 77.3464 48.4234 77.8038 48.4234 78.3418C48.4234 78.8709 48.6035 79.3193 48.9639 79.6959C49.3243 80.0726 49.7747 80.2609 50.3063 80.2609C50.8558 80.2609 51.3423 80.0636 51.7477 79.669C52.1621 79.2744 52.3693 78.8081 52.3693 78.279C52.3693 77.7858 52.1891 77.3554 51.8198 76.9698C51.4594 76.5841 50.9819 76.3958 50.4053 76.3958Z" fill="#D6002B"/>
<path d="M40.1202 48.1783C40.7636 47.5969 41.485 47.1511 42.1675 46.6472C42.9279 46.0852 43.7468 45.5813 44.3512 44.8643C44.8581 44.2635 45.0921 43.6821 45.3456 42.9457C45.5991 42.2093 45.6185 40.6395 45.2091 39.9806C44.0197 38.0813 40.7051 36.434 38.5019 40.6007C38.4629 40.6588 38.4044 40.6976 38.3459 40.6976C38.2875 40.6976 38.2289 40.6588 38.1899 40.6007C36.0062 36.434 32.6721 38.0813 31.4827 39.9806C31.0733 40.6395 31.0928 42.2093 31.3462 42.9457C31.5997 43.6821 31.8337 44.2635 32.3406 44.8643C32.9451 45.5813 33.764 46.0852 34.5244 46.6472C35.2263 47.1705 35.9282 47.6163 36.5717 48.1783C36.9031 48.469 38.3264 50 38.3264 50C38.3264 50 39.8082 48.469 40.1202 48.1783Z" fill="#D6002B"/>
<path d="M21.7563 48.1783C22.3997 47.5969 23.1212 47.1511 23.8036 46.6472C24.564 46.0852 25.3829 45.5813 25.9873 44.8643C26.4942 44.2635 26.7282 43.6821 26.9817 42.9457C27.2352 42.2093 27.2546 40.6395 26.8452 39.9806C25.6558 38.0813 22.3412 36.434 20.138 40.6007C20.099 40.6588 20.0405 40.6976 19.9821 40.6976C19.9236 40.6976 19.865 40.6588 19.826 40.6007C17.6423 36.434 14.3082 38.0813 13.1188 39.9806C12.7094 40.6395 12.7289 42.2093 12.9823 42.9457C13.2358 43.6821 13.4698 44.2635 13.9767 44.8643C14.5812 45.5813 15.4001 46.0852 16.1605 46.6472C16.8624 47.1705 17.5643 47.6163 18.2078 48.1783C18.5392 48.469 19.9625 50 19.9625 50C19.9625 50 21.4443 48.469 21.7563 48.1783Z" fill="#D6002B"/>
<path d="M18.2077 72.8217C17.5643 73.4031 16.8428 73.8489 16.1604 74.3528C15.4 74.9148 14.5811 75.4187 13.9767 76.1357C13.4698 76.7365 13.2358 77.3179 12.9823 78.0543C12.7288 78.7907 12.7093 80.3605 13.1188 81.0194C14.3081 82.9187 17.6228 84.566 19.826 80.3993C19.865 80.3412 19.9234 80.3024 19.9819 80.3024C20.0404 80.3024 20.099 80.3412 20.138 80.3993C22.3217 84.566 25.6558 82.9187 26.8451 81.0194C27.2546 80.3605 27.2351 78.7907 26.9816 78.0543C26.7282 77.3179 26.4942 76.7365 25.9872 76.1357C25.3828 75.4187 24.5639 74.9148 23.8035 74.3528C23.1016 73.8295 22.3997 73.3837 21.7562 72.8217C21.4248 72.531 20.0015 71 20.0015 71C20.0015 71 18.5197 72.531 18.2077 72.8217Z" fill="#D6002B"/>
<path d="M36.5716 72.8217C35.9282 73.4031 35.2067 73.8489 34.5243 74.3528C33.7639 74.9148 32.945 75.4187 32.3406 76.1357C31.8336 76.7365 31.5997 77.3179 31.3462 78.0543C31.0927 78.7907 31.0732 80.3605 31.4827 81.0194C32.672 82.9187 35.9866 84.566 38.1899 80.3993C38.2289 80.3412 38.2873 80.3024 38.3458 80.3024C38.4043 80.3024 38.4628 80.3412 38.5018 80.3993C40.6856 84.566 44.0197 82.9187 45.209 81.0194C45.6185 80.3605 45.599 78.7907 45.3455 78.0543C45.0921 77.3179 44.8581 76.7365 44.3511 76.1357C43.7467 75.4187 42.9278 74.9148 42.1674 74.3528C41.4655 73.8295 40.7635 73.3837 40.1201 72.8217C39.7887 72.531 38.3653 71 38.3653 71C38.3653 71 36.8836 72.531 36.5716 72.8217Z" fill="#D6002B"/>
<path d="M40.1202 15.1783C40.7636 14.5969 41.485 14.1511 42.1675 13.6472C42.9279 13.0852 43.7468 12.5813 44.3512 11.8643C44.8581 11.2635 45.0921 10.6821 45.3456 9.94569C45.5991 9.20925 45.6185 7.63948 45.2091 6.98056C44.0197 5.08132 40.7051 3.43401 38.5019 7.6007C38.4629 7.65884 38.4044 7.69761 38.3459 7.69761C38.2875 7.69761 38.2289 7.65884 38.1899 7.6007C36.0062 3.43401 32.6721 5.08132 31.4827 6.98056C31.0733 7.63948 31.0928 9.20925 31.3462 9.94569C31.5997 10.6821 31.8337 11.2635 32.3406 11.8643C32.9451 12.5813 33.764 13.0852 34.5244 13.6472C35.2263 14.1705 35.9282 14.6163 36.5717 15.1783C36.9031 15.469 38.3264 17 38.3264 17C38.3264 17 39.8082 15.469 40.1202 15.1783Z" fill="#D6002B"/>
<path d="M21.7563 15.1783C22.3997 14.5969 23.1212 14.1511 23.8036 13.6472C24.564 13.0852 25.3829 12.5813 25.9873 11.8643C26.4942 11.2635 26.7282 10.6821 26.9817 9.94569C27.2352 9.20925 27.2546 7.63948 26.8452 6.98056C25.6558 5.08132 22.3412 3.43401 20.138 7.6007C20.099 7.65884 20.0405 7.69761 19.9821 7.69761C19.9236 7.69761 19.865 7.65884 19.826 7.6007C17.6423 3.43401 14.3082 5.08132 13.1188 6.98056C12.7094 7.63948 12.7289 9.20925 12.9823 9.94569C13.2358 10.6821 13.4698 11.2635 13.9767 11.8643C14.5812 12.5813 15.4001 13.0852 16.1605 13.6472C16.8624 14.1705 17.5643 14.6163 18.2078 15.1783C18.5392 15.469 19.9625 17 19.9625 17C19.9625 17 21.4443 15.469 21.7563 15.1783Z" fill="#D6002B"/>
<path d="M8.12452 17.7781C8.36335 17.5623 8.63114 17.3968 8.88445 17.2098C9.16671 17.0012 9.47067 16.8141 9.69503 16.548C9.8832 16.325 9.97005 16.1092 10.0641 15.8358C10.1582 15.5624 10.1655 14.9797 10.0135 14.7352C9.57199 14.0302 8.34165 13.4187 7.52383 14.9654C7.50935 14.9869 7.48765 15.0013 7.46594 15.0013C7.44423 15.0013 7.4225 14.9869 7.40803 14.9654C6.59745 13.4187 5.35986 14.0302 4.91838 14.7352C4.7664 14.9797 4.77363 15.5624 4.86772 15.8358C4.9618 16.1092 5.04866 16.325 5.23683 16.548C5.46118 16.8141 5.76515 17.0012 6.04741 17.2098C6.30795 17.404 6.56851 17.5695 6.80734 17.7781C6.93037 17.886 7.45869 18.4543 7.45869 18.4543C7.45869 18.4543 8.00872 17.886 8.12452 17.7781Z" fill="#D6002B"/>
<path d="M49.8074 69.6761C49.5685 69.892 49.3007 70.0574 49.0474 70.2445C48.7652 70.4531 48.4612 70.6401 48.2369 70.9063C48.0487 71.1293 47.9618 71.3451 47.8677 71.6184C47.7737 71.8918 47.7664 72.4745 47.9184 72.7191C48.3599 73.424 49.5902 74.0355 50.4081 72.4889C50.4225 72.4673 50.4442 72.4529 50.4659 72.4529C50.4877 72.4529 50.5094 72.4673 50.5239 72.4889C51.3344 74.0355 52.572 73.424 53.0135 72.7191C53.1655 72.4745 53.1583 71.8918 53.0642 71.6184C52.9701 71.3451 52.8832 71.1293 52.6951 70.9063C52.4707 70.6401 52.1667 70.4531 51.8845 70.2445C51.6239 70.0502 51.3634 69.8848 51.1245 69.6761C51.0015 69.5682 50.4732 68.9999 50.4732 68.9999C50.4732 68.9999 49.9232 69.5682 49.8074 69.6761Z" fill="#D6002B"/>
</svg>
