<svg width="58" height="88" viewBox="0 0 58 88" fill="none" xmlns="http://www.w3.org/2000/svg">
<path d="M53.0873 88H4.91263C2.20252 88 0 85.8072 0 83.1091V4.89089C0 2.19278 2.20252 0 4.91263 0H53.0873C55.7975 0 58 2.19278 58 4.89089V83.1091C58 85.8072 55.8065 88 53.0873 88Z" fill="white"/>
<path d="M50.3138 71.6398C50.3138 71.4955 50.3773 71.2879 50.3682 71.1435C50.3682 70.9992 50.3682 70.8458 50.3501 70.7014C50.2957 70.196 50.1144 69.7268 49.7338 69.3839C50.0782 69.3658 50.9302 69.3658 51.2746 69.3839C50.8939 69.7178 50.7127 70.196 50.6583 70.7014C50.6401 70.8458 50.6402 70.9992 50.6402 71.1435C50.6402 71.2879 50.7036 71.4955 50.6945 71.6398H50.3138Z" fill="#0C0A35"/>
<path d="M50.4407 71.0894C50.1416 70.6292 49.6069 70.3043 49.0449 70.3224C48.492 70.3404 47.9481 70.7465 47.8484 71.2879C47.7578 71.7662 47.9844 72.2535 48.3198 72.6054C48.6552 72.9573 49.1083 73.1919 49.5162 73.4626C49.9331 73.7334 50.5132 74.4101 50.5132 74.4101C50.5132 74.4101 51.1477 73.7514 51.5103 73.4717C51.9 73.1739 52.3804 72.9573 52.7067 72.5964C53.0421 72.2444 53.2687 71.7481 53.178 71.2789C53.0693 70.7375 52.5345 70.3314 51.9725 70.3133C51.4196 70.2953 50.8849 70.6201 50.5767 71.0804H50.4407V71.0894Z" fill="#0C0A35"/>
<path d="M7.49593 15.9631C7.49593 16.1075 7.43248 16.315 7.44155 16.4594C7.44155 16.6038 7.44154 16.7572 7.45967 16.9015C7.51405 17.4069 7.69532 17.8851 8.07601 18.219C7.73158 18.2371 6.87959 18.2371 6.53516 18.219C6.91584 17.8851 7.09711 17.4069 7.1515 16.9015C7.16962 16.7572 7.16961 16.6038 7.16961 16.4594C7.16961 16.315 7.10617 16.1075 7.11523 15.9631H7.49593Z" fill="#0C0A35"/>
<path d="M7.3689 16.5135C7.66801 16.9737 8.20279 17.2986 8.76476 17.2806C9.31765 17.2625 9.8615 16.8564 9.97027 16.315C10.0609 15.8368 9.8343 15.3495 9.49893 14.9975C9.16357 14.6456 8.71036 14.411 8.30249 14.1403C7.88555 13.8696 7.30548 13.1928 7.30548 13.1928C7.30548 13.1928 6.671 13.8515 6.30844 14.1313C5.91869 14.429 5.4383 14.6456 5.112 15.0066C4.77663 15.3585 4.55004 15.8548 4.64068 16.324C4.74945 16.8655 5.28421 17.2715 5.84617 17.2896C6.39907 17.3076 6.93384 16.9828 7.23295 16.5226H7.3689V16.5135Z" fill="#0C0A35"/>
<path d="M10.1515 5.7752L9.22702 6.02787C8.90979 5.19768 8.33876 4.78258 7.49581 4.78258C5.96401 4.78258 5.17544 6.04591 5.13919 8.57258C5.38391 8.0131 5.72836 7.59801 6.17249 7.32729C6.61662 7.05658 7.09699 6.92122 7.5955 6.92122C8.35687 6.92122 8.99136 7.18291 9.508 7.71532C10.0246 8.24772 10.2784 8.87938 10.2784 9.61031C10.2784 10.3773 10.0065 11.0361 9.46267 11.5865C8.91883 12.146 8.22091 12.4167 7.3689 12.4167C6.39907 12.4167 5.62864 12.0558 5.05762 11.3248C4.48659 10.5939 4.19653 9.61031 4.19653 8.356C4.19653 7.13779 4.46847 6.09103 5.01231 5.22475C5.55614 4.35847 6.39001 3.92532 7.523 3.92532C8.83727 3.94337 9.7074 4.55699 10.1515 5.7752ZM7.35986 11.6046C7.93995 11.6046 8.41125 11.4151 8.78287 11.0361C9.15449 10.6571 9.33579 10.1969 9.33579 9.66445C9.33579 9.14107 9.1545 8.68989 8.79195 8.31089C8.42939 7.93189 7.98528 7.74239 7.4505 7.74239C6.89761 7.74239 6.41719 7.94091 6.00932 8.33796C5.59238 8.735 5.39298 9.19522 5.39298 9.72762C5.39298 10.2149 5.57427 10.6571 5.94589 11.0361C6.29938 11.4151 6.77977 11.6046 7.35986 11.6046Z" fill="#0C0A35"/>
<path d="M47.6127 82.2248L48.5373 81.9721C48.8545 82.8023 49.4255 83.2174 50.2685 83.2174C51.8003 83.2174 52.5888 81.954 52.6251 79.4274C52.3804 79.9869 52.0359 80.402 51.5918 80.6727C51.1477 80.9434 50.6673 81.0787 50.1688 81.0787C49.4074 81.0787 48.7729 80.817 48.2563 80.2846C47.7396 79.7613 47.4858 79.1206 47.4858 78.3897C47.4858 77.6226 47.7578 76.9639 48.3016 76.4134C48.8454 75.854 49.5433 75.5833 50.3953 75.5833C51.3652 75.5833 52.1356 75.9442 52.7067 76.6751C53.2777 77.397 53.5677 78.3897 53.5677 79.644C53.5677 80.8622 53.2958 81.9089 52.752 82.7752C52.2081 83.6415 51.3743 84.0746 50.2413 84.0746C48.927 84.0566 48.0569 83.443 47.6127 82.2248ZM50.4135 76.3954C49.8334 76.3954 49.3621 76.5849 48.9905 76.9639C48.6188 77.3429 48.4375 77.8031 48.4375 78.3355C48.4375 78.8589 48.6188 79.3101 48.9814 79.6891C49.3439 80.0681 49.7881 80.2576 50.3229 80.2576C50.8757 80.2576 51.3561 80.059 51.764 79.662C52.1719 79.265 52.3804 78.8047 52.3804 78.2723C52.3804 77.7851 52.1991 77.3429 51.8275 76.9639C51.4649 76.5849 50.9845 76.3954 50.4135 76.3954Z" fill="#0C0A35"/>
<path d="M20.6566 11.4693C20.6566 11.8392 20.5116 12.3536 20.5116 12.7236C20.5116 13.0936 20.5116 13.4635 20.5569 13.8335C20.6929 15.0878 21.1461 16.288 22.0978 17.1272C21.2458 17.1813 19.0886 17.1813 18.2366 17.1272C19.1792 16.288 19.6324 15.0878 19.7774 13.8335C19.8137 13.4635 19.8228 13.0936 19.8228 12.7236C19.8228 12.3626 19.6777 11.8392 19.6777 11.4693H20.6566Z" fill="#0C0A35"/>
<path d="M20.3393 12.8499C21.1007 14.0049 22.4331 14.8171 23.8199 14.772C25.2066 14.7268 26.5571 13.7162 26.8291 12.3626C27.0647 11.1715 26.4846 9.94423 25.6508 9.05088C24.8169 8.15752 23.6748 7.57098 22.6597 6.90322C21.6173 6.21741 20.158 4.52094 20.158 4.52094C20.158 4.52094 18.5628 6.18131 17.6655 6.8581C16.6956 7.59805 15.4901 8.15752 14.6653 9.05088C13.8314 9.94423 13.2513 11.1715 13.487 12.3626C13.7589 13.7162 15.1094 14.7268 16.4962 14.772C17.883 14.8171 19.2244 14.0049 19.9767 12.8499H20.3393Z" fill="#0C0A35"/>
<path d="M38.3492 11.4693C38.3492 11.8392 38.2041 12.3536 38.2041 12.7236C38.2041 13.0936 38.2041 13.4635 38.2494 13.8335C38.3854 15.0878 38.8386 16.288 39.7903 17.1272C38.9383 17.1813 36.7811 17.1813 35.9291 17.1272C36.8717 16.288 37.3249 15.0878 37.47 13.8335C37.5062 13.4635 37.5062 13.0936 37.5153 12.7236C37.5153 12.3626 37.3702 11.8392 37.3702 11.4693H38.3492Z" fill="#0C0A35"/>
<path d="M38.032 12.8499C38.7934 14.0049 40.1258 14.8171 41.5125 14.772C42.8993 14.7268 44.2499 13.7162 44.5218 12.3626C44.7574 11.1715 44.1773 9.94423 43.3434 9.05088C42.5096 8.15752 41.3675 7.57098 40.3524 6.90322C39.31 6.21741 37.8507 4.52094 37.8507 4.52094C37.8507 4.52094 36.2555 6.18131 35.3581 6.8581C34.3883 7.59805 33.1828 8.15752 32.358 9.05088C31.5332 9.94423 30.944 11.1715 31.1797 12.3626C31.4516 13.7162 32.8021 14.7268 34.1889 14.772C35.5757 14.8171 36.9171 14.0049 37.6695 12.8499H38.032Z" fill="#0C0A35"/>
<path d="M20.6566 44.6226C20.6566 44.9926 20.5116 45.5069 20.5116 45.8769C20.5116 46.2469 20.5116 46.6168 20.5569 46.9868C20.6929 48.2411 21.1461 49.4413 22.0978 50.2805C21.2458 50.3346 19.0886 50.3346 18.2366 50.2805C19.1792 49.4413 19.6324 48.2411 19.7774 46.9868C19.8137 46.6168 19.8228 46.2469 19.8228 45.8769C19.8228 45.5069 19.6777 44.9926 19.6777 44.6226H20.6566Z" fill="#0C0A35"/>
<path d="M20.3393 46.0123C21.1007 47.1674 22.4331 47.9795 23.8199 47.9344C25.2066 47.8893 26.5571 46.8786 26.8291 45.525C27.0647 44.3339 26.4846 43.1066 25.6508 42.2133C24.8169 41.3199 23.6748 40.7334 22.6597 40.0656C21.6173 39.3798 20.158 37.6833 20.158 37.6833C20.158 37.6833 18.5628 39.3437 17.6655 40.0205C16.6956 40.7605 15.4901 41.3199 14.6653 42.2133C13.8314 43.1066 13.2513 44.3339 13.487 45.525C13.7589 46.8786 15.1094 47.8893 16.4962 47.9344C17.883 47.9795 19.2244 47.1674 19.9767 46.0123H20.3393Z" fill="#0C0A35"/>
<path d="M38.3492 44.6226C38.3492 44.9926 38.2041 45.5069 38.2041 45.8769C38.2041 46.2469 38.2041 46.6168 38.2494 46.9868C38.3854 48.2411 38.8386 49.4413 39.7903 50.2805C38.9383 50.3346 36.7811 50.3346 35.9291 50.2805C36.8717 49.4413 37.3249 48.2411 37.47 46.9868C37.5062 46.6168 37.5062 46.2469 37.5153 45.8769C37.5153 45.5069 37.3702 44.9926 37.3702 44.6226H38.3492Z" fill="#0C0A35"/>
<path d="M38.032 46.0123C38.7934 47.1674 40.1258 47.9795 41.5125 47.9344C42.8993 47.8893 44.2499 46.8786 44.5218 45.525C44.7574 44.3339 44.1773 43.1066 43.3434 42.2133C42.5096 41.3199 41.3675 40.7334 40.3524 40.0656C39.31 39.3798 37.8507 37.6833 37.8507 37.6833C37.8507 37.6833 36.2555 39.3437 35.3581 40.0205C34.3883 40.7605 33.1828 41.3199 32.358 42.2133C31.5332 43.1066 30.944 44.3339 31.1797 45.525C31.4516 46.8786 32.8021 47.8893 34.1889 47.9344C35.5757 47.9795 36.9171 47.1674 37.6695 46.0123H38.032Z" fill="#0C0A35"/>
<path d="M37.3523 76.5307C37.3523 76.1698 37.4973 75.6464 37.4973 75.2764C37.4973 74.9065 37.4973 74.5365 37.452 74.1665C37.316 72.9122 36.8628 71.712 35.9111 70.8728C36.7631 70.8187 38.9203 70.8187 39.7723 70.8728C38.8297 71.712 38.3765 72.9122 38.2315 74.1665C38.1952 74.5365 38.1862 74.9065 38.1862 75.2764C38.1862 75.6464 38.3312 76.1608 38.3312 76.5307H37.3523Z" fill="#0C0A35"/>
<path d="M37.6696 75.1501C36.9082 73.995 35.5759 73.1738 34.1891 73.228C32.8023 73.2731 31.4518 74.2838 31.1798 75.6373C30.9442 76.8285 31.5243 78.0557 32.3581 78.9491C33.192 79.8424 34.3341 80.429 35.3493 81.0967C36.3916 81.7825 37.8509 83.479 37.8509 83.479C37.8509 83.479 39.4461 81.8186 40.3435 81.1419C41.3133 80.4019 42.5188 79.8424 43.3436 78.9491C44.1775 78.0557 44.7576 76.8285 44.5219 75.6373C44.25 74.2838 42.8995 73.2731 41.5127 73.228C40.1259 73.1829 38.7845 73.995 38.0322 75.1501H37.6696Z" fill="#0C0A35"/>
<path d="M19.6595 76.5307C19.6595 76.1698 19.8046 75.6464 19.8046 75.2764C19.8046 74.9065 19.8046 74.5365 19.7593 74.1665C19.6233 72.9122 19.1701 71.712 18.2184 70.8728C19.0704 70.8187 21.2185 70.8187 22.0796 70.8728C21.137 71.712 20.6838 72.9122 20.5387 74.1665C20.5025 74.5365 20.4934 74.9065 20.4934 75.2764C20.4934 75.6464 20.6385 76.1608 20.6385 76.5307H19.6595Z" fill="#0C0A35"/>
<path d="M19.9767 75.1501C19.2154 73.995 17.883 73.1738 16.4962 73.228C15.1094 73.2731 13.7589 74.2838 13.487 75.6373C13.2513 76.8285 13.8314 78.0557 14.6653 78.9491C15.4992 79.8424 16.6412 80.429 17.6564 81.0967C18.6987 81.7825 20.158 83.479 20.158 83.479C20.158 83.479 21.7533 81.8186 22.6506 81.1419C23.6205 80.4019 24.8259 79.8424 25.6508 78.9491C26.4846 78.0557 27.0647 76.8285 26.8291 75.6373C26.5571 74.2838 25.2066 73.2731 23.8199 73.228C22.4331 73.1829 21.0916 73.995 20.3393 75.1501H19.9767Z" fill="#0C0A35"/>
</svg>
