<svg width="58" height="88" viewBox="0 0 58 88" fill="none" xmlns="http://www.w3.org/2000/svg">
<path d="M53.1003 88H4.90858C2.19947 88 0 85.8107 0 83.1141V4.88592C0 2.18932 2.19947 0 4.90858 0H53.0914C55.8005 0 58 2.18932 58 4.88592V83.1141C58.0089 85.8107 55.8094 88 53.1003 88Z" fill="white"/>
<path d="M7.59081 16.5445C7.59081 16.6869 7.53716 16.8916 7.53716 17.0339C7.53716 17.1763 7.53716 17.3276 7.55504 17.47C7.60869 17.9595 7.78751 18.4312 8.15409 18.7605C7.82327 18.7783 6.98282 18.7783 6.64307 18.7605C7.00965 18.4312 7.18847 17.9595 7.24211 17.47C7.25999 17.3276 7.25999 17.1852 7.25999 17.0339C7.25999 16.8916 7.20635 16.6869 7.20635 16.5445H7.59081Z" fill="#0C0A35"/>
<path d="M7.49245 16.9005C7.63551 16.9183 7.71598 17.0518 7.96632 17.3366C8.19879 17.5857 8.43125 17.8527 8.94983 17.915C9.21806 17.9506 9.56675 17.8082 9.72769 17.5946C9.8618 17.4167 9.94227 17.1942 9.99592 16.9717C10.1032 16.5623 10.0674 16.1529 9.8618 15.7791C9.65616 15.4053 9.11076 15.2451 8.77995 15.4409C8.60113 15.5477 8.53854 15.6812 8.37761 15.7079C8.32396 15.7168 8.2882 15.6723 8.29714 15.6189C8.35972 15.3697 8.53854 15.3341 8.62795 15.0404C8.7263 14.6845 8.77995 14.4086 8.27031 13.9636C7.88585 13.6254 6.93811 13.6521 6.52683 13.9636C6.1066 14.2751 6.07084 14.5688 6.16919 14.9158C6.24966 15.1917 6.4106 15.3252 6.48212 15.5566C6.50895 15.6367 6.42848 15.7168 6.34801 15.6812C6.23178 15.6367 6.16025 15.521 6.00825 15.432C5.6685 15.2362 5.1231 15.3964 4.9264 15.7702C4.72076 16.144 4.68499 16.5534 4.79228 16.9628C4.84593 17.1853 4.9264 17.3989 5.06051 17.5857C5.22145 17.7993 5.57909 17.9417 5.83837 17.9061C6.35695 17.8438 6.58941 17.5768 6.82188 17.3277C7.08117 17.0518 7.16164 16.9183 7.29575 16.8916H7.49245V16.9005Z" fill="#0C0A35"/>
<path d="M7.55519 12.2637H6.50015C6.50015 10.9021 6.77732 9.56714 7.3406 8.27668C7.90388 6.98623 8.5834 5.90047 9.39702 5.0105H4.95337L5.05172 4.11163H10.461V4.71681C9.48643 5.88267 8.75327 7.10192 8.27046 8.36568C7.78765 9.62943 7.54625 10.8309 7.54625 11.97C7.54625 12.0412 7.54625 12.1391 7.55519 12.2637Z" fill="#0C0A35"/>
<path d="M50.3912 71.4555C50.3912 71.3131 50.4448 71.1084 50.4448 70.966C50.4448 70.8237 50.4448 70.6724 50.4269 70.53C50.3733 70.0405 50.1945 69.5688 49.8279 69.2395C50.1587 69.2217 50.9991 69.2217 51.3389 69.2395C50.9723 69.5688 50.7935 70.0405 50.7399 70.53C50.722 70.6724 50.722 70.8148 50.722 70.966C50.722 71.1084 50.7756 71.3131 50.7756 71.4555H50.3912Z" fill="#0C0A35"/>
<path d="M50.4985 71.0995C50.3555 71.0817 50.275 70.9482 50.0246 70.6634C49.7922 70.4142 49.5597 70.1472 49.0411 70.0849C48.7729 70.0494 48.4242 70.1917 48.2633 70.4053C48.1292 70.5833 48.0487 70.8058 47.995 71.0283C47.8877 71.4377 47.9235 71.8471 48.1292 72.2209C48.3348 72.5947 48.8802 72.7549 49.211 72.5591C49.3898 72.4523 49.4524 72.3188 49.6134 72.2921C49.667 72.2832 49.7028 72.3277 49.6938 72.3811C49.6312 72.6303 49.4524 72.6659 49.363 72.9595C49.2647 73.3155 49.211 73.5914 49.7206 74.0364C50.1051 74.3746 51.0528 74.3479 51.4641 74.0364C51.8844 73.7249 51.9201 73.4312 51.8218 73.0841C51.7413 72.8083 51.5804 72.6748 51.5088 72.4434C51.482 72.3633 51.5625 72.2832 51.6429 72.3188C51.7592 72.3633 51.8307 72.479 51.9827 72.568C52.3225 72.7727 52.8679 72.6036 53.0646 72.2298C53.2702 71.856 53.306 71.4466 53.1987 71.0372C53.145 70.8147 53.0646 70.6011 52.9304 70.4142C52.7695 70.2006 52.4119 70.0583 52.1526 70.0939C51.634 70.1561 51.4015 70.4231 51.1691 70.6723C50.9098 70.9482 50.8293 71.0817 50.6952 71.1084H50.4985V71.0995Z" fill="#0C0A35"/>
<path d="M50.2125 75.7451H51.2675C51.2675 77.1068 50.9903 78.4328 50.427 79.7322C49.8638 81.0226 49.1842 82.1084 48.3706 82.9984H52.8143L52.7159 83.8972H47.3066V83.292C48.2812 82.1262 49.0144 80.9069 49.4972 79.6432C49.98 78.3794 50.2214 77.178 50.2214 76.0388C50.2214 75.9587 50.2125 75.8697 50.2125 75.7451Z" fill="#0C0A35"/>
<path d="M28.8435 28.4968C28.8435 28.8617 28.9866 29.3868 28.9866 29.7516C28.9866 30.1254 28.9866 30.4903 28.9419 30.8552C28.8078 32.1101 28.3518 33.3026 27.4041 34.1481C28.2624 34.2015 30.4082 34.2015 31.2665 34.1481C30.3188 33.3026 29.8718 32.1101 29.7287 30.8552C29.684 30.4903 29.684 30.1165 29.684 29.7516C29.684 29.3868 29.8271 28.8617 29.8271 28.4968H28.8435Z" fill="#0C0A35"/>
<path d="M29.1028 29.4134C28.7452 29.4668 28.5395 29.8139 27.8779 30.517C27.2878 31.1578 26.6977 31.8341 25.3655 31.9943C24.686 32.0744 23.7829 31.7096 23.3716 31.1667C23.0229 30.7039 22.8262 30.1432 22.6832 29.5825C22.406 28.5324 22.5044 27.4911 23.0319 26.5388C23.5505 25.5866 24.9452 25.1683 25.8036 25.6845C26.2685 25.9604 26.4205 26.2896 26.8407 26.3697C26.9748 26.3964 27.0821 26.2718 27.0464 26.1473C26.8765 25.5065 26.4205 25.4264 26.2059 24.661C25.9556 23.7532 25.8125 23.0502 27.109 21.9199C28.1014 21.0477 30.5155 21.1367 31.5616 21.9199C32.6255 22.7209 32.7328 23.4596 32.4735 24.3673C32.2768 25.0793 31.8655 25.4086 31.6688 26.0138C31.6063 26.2185 31.803 26.4142 31.9997 26.3341C32.3037 26.2096 32.4735 25.9337 32.8669 25.6934C33.7253 25.1772 35.1201 25.5955 35.6386 26.5477C36.1572 27.5 36.2645 28.5413 35.9873 29.5914C35.8443 30.1521 35.6476 30.7128 35.2989 31.1756C34.8876 31.7185 33.9846 32.0833 33.305 32.0032C31.9728 31.843 31.3827 31.1578 30.7926 30.5259C30.1399 29.8228 29.9343 29.4757 29.5767 29.4223H29.1028V29.4134Z" fill="#0C0A35"/>
<path d="M19.3035 12.3795C19.3035 12.7444 19.4555 13.2695 19.4466 13.6343C19.4466 14.0081 19.4466 14.373 19.4019 14.7379C19.2677 15.9928 18.8118 17.1853 17.864 18.0308C18.7223 18.0842 20.8682 18.0842 21.7265 18.0308C20.7788 17.1853 20.3317 15.9928 20.1887 14.7379C20.144 14.373 20.144 13.9992 20.144 13.6343C20.144 13.2695 20.287 12.7444 20.287 12.3795H19.3035Z" fill="#0C0A35"/>
<path d="M19.5627 13.2872C19.2051 13.3406 18.9994 13.6877 18.3468 14.3908C17.7567 15.0316 17.1665 15.7079 15.8343 15.877C15.1548 15.9571 14.2518 15.5922 13.8405 15.0494C13.4918 14.5866 13.2951 14.0259 13.1521 13.4652C12.8749 12.4151 12.9732 11.3738 13.5008 10.4215C14.0193 9.46926 15.4141 9.05098 16.2725 9.56716C16.7374 9.84305 16.8894 10.1723 17.3096 10.2524C17.4437 10.2791 17.551 10.1545 17.5152 10.0299C17.3454 9.38917 16.8894 9.30907 16.6748 8.5437C16.4244 7.63593 16.2814 6.93286 17.5778 5.8026C18.5703 4.93043 20.9843 5.01943 22.0304 5.8026C23.0944 6.60357 23.2017 7.34224 22.9424 8.25001C22.7457 8.96198 22.3344 9.29127 22.1377 9.89645C22.0751 10.1011 22.2718 10.2969 22.4685 10.2168C22.7725 10.0922 22.9424 9.81635 23.3358 9.57606C24.1941 9.05988 25.5889 9.47816 26.1075 10.4304C26.6261 11.3827 26.7334 12.424 26.4562 13.4741C26.3131 14.0348 26.1164 14.5955 25.7677 15.0583C25.3565 15.6011 24.4534 15.966 23.7739 15.8859C22.4417 15.7257 21.8516 15.0405 21.2615 14.3997C20.6088 13.6966 20.4032 13.3495 20.0366 13.2961H19.5627V13.2872Z" fill="#0C0A35"/>
<path d="M37.7129 12.3795C37.7129 12.7444 37.856 13.2695 37.856 13.6343C37.856 14.0081 37.856 14.373 37.8113 14.7379C37.6772 15.9928 37.2212 17.1853 36.2734 18.0308C37.1318 18.0842 39.2776 18.0842 40.1359 18.0308C39.1882 17.1853 38.7411 15.9928 38.5981 14.7379C38.5534 14.373 38.5534 13.9992 38.5534 13.6343C38.5534 13.2695 38.6964 12.7444 38.6964 12.3795H37.7129Z" fill="#0C0A35"/>
<path d="M37.9721 13.2872C37.6145 13.3406 37.4089 13.6877 36.7562 14.3908C36.1661 15.0316 35.576 15.7079 34.2438 15.877C33.5643 15.9571 32.6612 15.5922 32.2499 15.0494C31.9012 14.5866 31.7045 14.0259 31.5615 13.4652C31.2843 12.4151 31.3827 11.3738 31.9102 10.4215C32.4288 9.46926 33.8235 9.05098 34.6819 9.56716C35.1468 9.84305 35.2988 10.1723 35.719 10.2524C35.8531 10.2791 35.9604 10.1545 35.9247 10.0299C35.7548 9.38917 35.2988 9.30907 35.0842 8.5437C34.8339 7.63593 34.6908 6.93286 35.9873 5.8026C36.9797 4.93043 39.3938 5.01943 40.4399 5.8026C41.5038 6.60357 41.6111 7.34224 41.3518 8.25001C41.1551 8.96198 40.7438 9.29127 40.5471 9.89645C40.4846 10.1011 40.6813 10.2969 40.878 10.2168C41.182 10.0922 41.3518 9.81635 41.7452 9.57606C42.6036 9.05988 43.9984 9.47816 44.5169 10.4304C45.0355 11.3827 45.1428 12.424 44.8656 13.4741C44.7136 14.0348 44.5259 14.5955 44.1772 15.0583C43.7659 15.6011 42.8629 15.966 42.1833 15.8859C40.8511 15.7257 40.261 15.0405 39.6709 14.3997C39.0182 13.6966 38.8126 13.3495 38.446 13.2961H37.9721V13.2872Z" fill="#0C0A35"/>
<path d="M19.3035 44.7565C19.3035 45.1214 19.4555 45.6464 19.4466 46.0113C19.4466 46.3851 19.4466 46.75 19.4019 47.1149C19.2677 48.3697 18.8118 49.5623 17.864 50.4078C18.7223 50.4612 20.8682 50.4612 21.7265 50.4078C20.7788 49.5623 20.3317 48.3697 20.1887 47.1149C20.144 46.75 20.144 46.3762 20.144 46.0113C20.144 45.6464 20.287 45.1214 20.287 44.7565H19.3035Z" fill="#0C0A35"/>
<path d="M19.5627 45.6732C19.2051 45.7266 18.9994 46.0737 18.3468 46.7767C17.7567 47.4175 17.1665 48.0939 15.8343 48.2541C15.1548 48.3342 14.2518 47.9693 13.8405 47.4264C13.4918 46.9636 13.2951 46.4029 13.1521 45.8423C12.8749 44.7921 12.9732 43.7508 13.5008 42.7986C14.0193 41.8463 15.4141 41.428 16.2725 41.9442C16.7374 42.2201 16.8894 42.5494 17.3096 42.6295C17.4437 42.6562 17.551 42.5316 17.5152 42.407C17.3454 41.7662 16.8894 41.6861 16.6748 40.9207C16.4244 40.013 16.2814 39.3099 17.5778 38.1796C18.5703 37.3075 20.9843 37.3965 22.0304 38.1796C23.0944 38.9806 23.2017 39.7193 22.9424 40.6271C22.7457 41.339 22.3344 41.6683 22.1377 42.2735C22.0751 42.4782 22.2718 42.674 22.4685 42.5939C22.7725 42.4693 22.9424 42.1934 23.3358 41.9531C24.1941 41.4369 25.5889 41.8552 26.1075 42.8075C26.6261 43.7597 26.7334 44.801 26.4562 45.8512C26.3131 46.4118 26.1164 46.9725 25.7677 47.4353C25.3565 47.9782 24.4534 48.3431 23.7739 48.263C22.4417 48.1028 21.8516 47.4175 21.2615 46.7856C20.6088 46.0826 20.4032 45.7355 20.0366 45.6821H19.5627V45.6732Z" fill="#0C0A35"/>
<path d="M37.7129 44.7565C37.7129 45.1214 37.856 45.6464 37.856 46.0113C37.856 46.3851 37.856 46.75 37.8113 47.1149C37.6772 48.3697 37.2212 49.5623 36.2734 50.4078C37.1318 50.4612 39.2776 50.4612 40.1359 50.4078C39.1882 49.5623 38.7411 48.3697 38.5981 47.1149C38.5534 46.75 38.5534 46.3762 38.5534 46.0113C38.5534 45.6464 38.6964 45.1214 38.6964 44.7565H37.7129Z" fill="#0C0A35"/>
<path d="M37.9721 45.6732C37.6145 45.7266 37.4089 46.0737 36.7562 46.7767C36.1661 47.4175 35.576 48.0939 34.2438 48.2541C33.5643 48.3342 32.6612 47.9693 32.2499 47.4264C31.9012 46.9636 31.7045 46.4029 31.5615 45.8423C31.2843 44.7921 31.3827 43.7508 31.9102 42.7986C32.4288 41.8463 33.8235 41.428 34.6819 41.9442C35.1468 42.2201 35.2988 42.5494 35.719 42.6295C35.8531 42.6562 35.9604 42.5316 35.9247 42.407C35.7548 41.7662 35.2988 41.6861 35.0842 40.9207C34.8339 40.013 34.6908 39.3099 35.9873 38.1796C36.9797 37.3075 39.3938 37.3965 40.4399 38.1796C41.5038 38.9806 41.6111 39.7193 41.3518 40.6271C41.1551 41.339 40.7438 41.6683 40.5471 42.2735C40.4846 42.4782 40.6813 42.674 40.878 42.5939C41.182 42.4693 41.3518 42.1934 41.7452 41.9531C42.6036 41.4369 43.9984 41.8552 44.5169 42.8075C45.0355 43.7597 45.1428 44.801 44.8656 45.8512C44.7136 46.4118 44.5259 46.9725 44.1772 47.4353C43.7659 47.9782 42.8629 48.3431 42.1833 48.263C40.8511 48.1028 40.261 47.4175 39.6709 46.7856C39.0182 46.0826 38.8126 45.7355 38.446 45.6821H37.9721V45.6732Z" fill="#0C0A35"/>
<path d="M38.7055 75.6294C38.7055 75.2645 38.5624 74.7395 38.5624 74.3746C38.5624 74.0008 38.5624 73.6359 38.6071 73.271C38.7412 72.0162 39.1972 70.8236 40.145 69.9781C39.2866 69.9247 37.1408 69.9247 36.2825 69.9781C37.2302 70.8236 37.6773 72.0162 37.8203 73.271C37.8561 73.6359 37.865 74.0097 37.865 74.3746C37.865 74.7395 37.722 75.2645 37.722 75.6294H38.7055Z" fill="#0C0A35"/>
<path d="M38.4461 74.7127C38.8038 74.6593 39.0094 74.3122 39.671 73.6092C40.2611 72.9684 40.8512 72.292 42.1834 72.1318C42.863 72.0517 43.766 72.4166 44.1773 72.9595C44.526 73.4223 44.7227 73.983 44.8657 74.5436C45.1429 75.5938 45.0446 76.6351 44.517 77.5873C43.9985 78.5396 42.6037 78.9579 41.7453 78.4417C41.2804 78.1658 41.1284 77.8365 40.7082 77.7564C40.5741 77.7297 40.4668 77.8543 40.5026 77.9789C40.6724 78.6197 41.1284 78.6998 41.343 79.4652C41.5933 80.3729 41.7364 81.076 40.44 82.2063C39.4475 83.0784 37.0335 82.9894 35.9874 82.2063C34.9234 81.4053 34.8161 80.6666 35.0754 79.7588C35.2721 79.0469 35.6834 78.7176 35.8801 78.1124C35.9427 77.9077 35.746 77.7119 35.5493 77.792C35.2453 77.9166 35.0754 78.1925 34.682 78.4328C33.8237 78.949 32.4289 78.5307 31.9103 77.5784C31.3917 76.6262 31.2844 75.5849 31.5616 74.5347C31.7047 73.9741 31.9014 73.4134 32.25 72.9506C32.6613 72.4077 33.5644 72.0428 34.2439 72.1229C35.5761 72.2831 36.1662 72.9684 36.7563 73.6003C37.409 74.3033 37.6146 74.6504 37.9723 74.7038H38.4461V74.7127Z" fill="#0C0A35"/>
<path d="M20.296 75.6294C20.296 75.2645 20.153 74.7395 20.153 74.3746C20.153 74.0008 20.153 73.6359 20.1977 73.271C20.3318 72.0162 20.7878 70.8236 21.7355 69.9781C20.8772 69.9247 18.7314 69.9247 17.873 69.9781C18.8208 70.8236 19.2678 72.0162 19.4109 73.271C19.4556 73.6359 19.4556 74.0097 19.4556 74.3746C19.4556 74.7395 19.3125 75.2645 19.3125 75.6294H20.296Z" fill="#0C0A35"/>
<path d="M20.0367 74.7127C20.3943 74.6593 20.6 74.3122 21.2616 73.6092C21.8517 72.9684 22.4418 72.292 23.774 72.1318C24.4535 72.0517 25.3566 72.4166 25.7679 72.9595C26.1166 73.4223 26.3133 73.983 26.4563 74.5436C26.7335 75.5938 26.6351 76.6351 26.1076 77.5873C25.589 78.5396 24.1943 78.9579 23.3359 78.4417C22.871 78.1658 22.719 77.8365 22.2988 77.7564C22.1736 77.7297 22.0574 77.8543 22.0931 77.9789C22.263 78.6197 22.719 78.6998 22.9336 79.4652C23.1839 80.3729 23.327 81.076 22.0305 82.2063C21.0381 83.0784 18.624 82.9894 17.5779 82.2063C16.514 81.4053 16.4067 80.6666 16.666 79.7588C16.8627 79.0469 17.274 78.7176 17.4707 78.1124C17.5332 77.9077 17.3365 77.7119 17.1398 77.792C16.8358 77.9166 16.666 78.1925 16.2726 78.4328C15.4142 78.949 14.0194 78.5307 13.5009 77.5784C12.9823 76.6262 12.875 75.5849 13.1522 74.5347C13.2952 73.9741 13.4919 73.4134 13.8406 72.9506C14.2519 72.4077 15.1549 72.0428 15.8345 72.1229C17.1667 72.2831 17.7568 72.9684 18.3469 73.6003C18.9996 74.3033 19.2052 74.6504 19.5628 74.7038H20.0367V74.7127Z" fill="#0C0A35"/>
</svg>
