<svg width="58" height="88" viewBox="0 0 58 88" fill="none" xmlns="http://www.w3.org/2000/svg">
<path d="M53.0899 88H4.9101C2.20015 88 0 85.8185 0 83.1116V4.88839C0 2.19043 2.20015 0 4.9101 0H53.0899C55.7998 0 58 2.19043 58 4.88839V83.1116C58 85.8185 55.7998 88 53.0899 88Z" fill="white"/>
<path d="M7.39641 17.8796C7.46795 17.8796 7.53056 17.8618 7.58422 17.8262C8.01352 17.5412 9.1136 16.3837 9.42663 16.0631C9.48923 16.0008 9.55184 15.9296 9.5429 15.8405C9.53395 15.7693 9.48029 15.7159 9.43557 15.6713C8.95261 15.1994 8.45176 14.7453 7.99563 14.2467C7.79887 14.033 7.56634 13.7837 7.42324 13.7747H7.36063C7.21753 13.7837 6.98499 14.033 6.78823 14.2467C6.34105 14.7453 5.83125 15.1994 5.34829 15.6713C5.29463 15.7159 5.24991 15.7782 5.24097 15.8405C5.23203 15.9296 5.29463 16.0008 5.35724 16.0631C5.67921 16.3837 6.77929 17.5412 7.20859 17.8262C7.26225 17.8618 7.32486 17.8796 7.39641 17.8796Z" fill="#D6002B"/>
<path d="M50.6304 73.9047C50.7019 73.9047 50.7645 73.8869 50.8182 73.8513C51.2475 73.5663 52.3476 72.4177 52.6606 72.0882C52.7232 72.0259 52.7858 71.9547 52.7769 71.8656C52.7679 71.7944 52.7143 71.741 52.6695 71.6965C52.1955 71.2245 51.6857 70.7704 51.2386 70.2718C51.0418 70.0581 50.8093 69.8088 50.6662 69.7999H50.5946C50.4515 69.8088 50.219 70.0581 50.0222 70.2718C49.575 70.7704 49.0652 71.2245 48.5912 71.6965C48.5465 71.7499 48.4928 71.8033 48.4839 71.8656C48.4749 71.9547 48.5376 72.0259 48.6002 72.0882C48.9221 72.4088 50.0222 73.5663 50.4515 73.8513C50.4962 73.8869 50.5588 73.9047 50.6304 73.9047Z" fill="#D6002B"/>
<path d="M7.54851 12.2611H6.5021C6.5021 10.8987 6.77935 9.572 7.34281 8.28089C7.90626 6.98979 8.58598 5.90348 9.39986 5.01306H4.95483L5.05321 4.11374H10.4642V4.71922C9.4893 5.88567 8.75591 7.10554 8.27295 8.36994C7.78999 9.63433 7.54851 10.8364 7.54851 11.9761C7.54851 12.0474 7.54851 12.1364 7.54851 12.2611Z" fill="#D6002B"/>
<path d="M50.2011 75.7478H51.2565C51.2565 77.1101 50.9792 78.4369 50.4158 79.728C49.8523 81.0191 49.1726 82.1054 48.3587 82.9958H52.8038L52.7054 83.8951H47.2944V83.2896C48.2693 82.1232 49.0027 80.9033 49.4856 79.6389C49.9686 78.3745 50.2101 77.1725 50.2101 76.0327C50.2101 75.9615 50.2011 75.8636 50.2011 75.7478Z" fill="#D6002B"/>
<path d="M19.9445 18.5831C20.1681 18.5831 20.3827 18.5207 20.5706 18.3961C21.9747 17.47 25.5969 13.668 26.6523 12.5994C26.849 12.3947 27.0548 12.1453 27.019 11.8693C26.9921 11.6467 26.8222 11.4597 26.6612 11.2994C25.0871 9.7323 23.4236 8.25421 21.9389 6.60694C21.295 5.8946 20.5437 5.07542 20.0697 5.04871H19.8282C19.3542 5.08432 18.594 5.8946 17.959 6.60694C16.4743 8.26311 14.8108 9.74121 13.2367 11.2994C13.0757 11.4597 12.9058 11.6378 12.879 11.8693C12.8432 12.1453 13.0489 12.3947 13.2457 12.5994C14.301 13.668 17.9232 17.47 19.3274 18.3961C19.4973 18.5207 19.712 18.5831 19.9445 18.5831Z" fill="#D6002B"/>
<path d="M38.0555 18.5831C38.2791 18.5831 38.4938 18.5207 38.6816 18.3961C40.0858 17.47 43.708 13.668 44.7633 12.5994C44.9601 12.3947 45.1658 12.1453 45.13 11.8693C45.1032 11.6467 44.9333 11.4597 44.7723 11.2994C43.1982 9.7323 41.5347 8.25421 40.05 6.60694C39.406 5.8946 38.6548 5.07542 38.1808 5.04871H37.9393C37.4653 5.08432 36.705 5.8946 36.07 6.60694C34.5854 8.26311 32.9219 9.74121 31.3478 11.2994C31.1868 11.4597 31.0168 11.6378 30.99 11.8693C30.9632 12.1453 31.1599 12.3947 31.3567 12.5994C32.4121 13.668 36.0343 17.47 37.4384 18.3961C37.6173 18.5207 37.832 18.5831 38.0555 18.5831Z" fill="#D6002B"/>
<path d="M19.9445 50.7717C20.1681 50.7717 20.3827 50.7094 20.5705 50.5847C21.9747 49.6587 25.5969 45.8477 26.6523 44.7881C26.849 44.5833 27.0547 44.334 27.0189 44.0579C26.9921 43.8353 26.8222 43.6483 26.6612 43.4881C25.0871 41.9209 23.4236 40.4428 21.9389 38.7867C21.295 38.0743 20.5437 37.2551 20.0697 37.2284H19.8282C19.3542 37.2551 18.594 38.0743 17.959 38.7867C16.4743 40.4428 14.8108 41.9209 13.2367 43.4881C13.0757 43.6483 12.9058 43.8264 12.8789 44.0579C12.8521 44.3429 13.0489 44.5833 13.2456 44.7881C14.301 45.8566 17.9232 49.6587 19.3274 50.5847C19.4973 50.7094 19.7119 50.7717 19.9445 50.7717Z" fill="#D6002B"/>
<path d="M38.0555 50.7717C38.2791 50.7717 38.4938 50.7094 38.6816 50.5847C40.0858 49.6587 43.708 45.8477 44.7633 44.7881C44.9601 44.5833 45.1658 44.334 45.13 44.0579C45.1032 43.8353 44.9333 43.6483 44.7723 43.4881C43.1982 41.9209 41.5347 40.4428 40.05 38.7867C39.406 38.0743 38.6548 37.2551 38.1808 37.2284H37.9393C37.4653 37.2551 36.705 38.0743 36.07 38.7867C34.5854 40.4428 32.9219 41.9209 31.3478 43.4881C31.1868 43.6483 31.0168 43.8264 30.99 44.0579C30.9632 44.3429 31.1599 44.5833 31.3567 44.7881C32.4121 45.8566 36.0343 49.6587 37.4384 50.5847C37.6173 50.7094 37.832 50.7717 38.0555 50.7717Z" fill="#D6002B"/>
<path d="M38.941 69.4169C38.7174 69.4169 38.5027 69.4793 38.3149 69.6039C36.9108 70.53 33.2886 74.332 32.2332 75.4005C32.0364 75.6053 31.8307 75.8547 31.8665 76.1307C31.8933 76.3533 32.0633 76.5403 32.2243 76.7005C33.7984 78.2677 35.4619 79.7458 36.9465 81.3931C37.5905 82.1054 38.3418 82.9246 38.8158 82.9513H39.0573C39.5313 82.9157 40.2915 82.1054 40.9265 81.3931C42.4111 79.7458 44.0747 78.2588 45.6488 76.7005C45.8098 76.5403 45.9797 76.3622 46.0065 76.1307C46.0334 75.8457 45.8366 75.6053 45.6398 75.4005C44.5845 74.332 40.9623 70.53 39.5581 69.6039C39.3882 69.4793 39.1646 69.4169 38.941 69.4169Z" fill="#D6002B"/>
<path d="M20.821 69.4169C20.5974 69.4169 20.3828 69.4793 20.1949 69.6039C18.7908 70.53 15.1686 74.332 14.1132 75.4005C13.9164 75.6053 13.7107 75.8547 13.7465 76.1307C13.7733 76.3533 13.9433 76.5403 14.1043 76.7005C15.6784 78.2677 17.3419 79.7458 18.8265 81.3931C19.4705 82.1054 20.2218 82.9246 20.6958 82.9513H20.9373C21.4113 82.9157 22.1715 82.1054 22.8065 81.3931C24.2912 79.7458 25.9547 78.2588 27.5288 76.7005C27.6898 76.5403 27.8597 76.3622 27.8865 76.1307C27.9134 75.8457 27.7166 75.6053 27.5198 75.4005C26.4645 74.332 22.8423 70.53 21.4381 69.6039C21.2682 69.4793 21.0535 69.4169 20.821 69.4169Z" fill="#D6002B"/>
<path d="M28.7362 34.3256C28.9598 34.3256 29.1745 34.2633 29.3623 34.1386C30.7664 33.2126 34.3886 29.4105 35.444 28.342C35.6408 28.1372 35.8465 27.8879 35.8107 27.6118C35.7839 27.3892 35.6139 27.2022 35.4529 27.042C33.8789 25.4748 32.2153 23.9967 30.7307 22.3495C30.0867 21.6371 29.3354 20.8179 28.8614 20.7912H28.6199C28.1459 20.8268 27.3857 21.6371 26.7507 22.3495C25.2661 24.0056 23.6025 25.4837 22.0284 27.042C21.8674 27.2022 21.6975 27.3803 21.6707 27.6118C21.6438 27.8968 21.8406 28.1372 22.0374 28.342C23.0927 29.4105 26.7149 33.2126 28.1191 34.1386C28.289 34.2633 28.5037 34.3256 28.7362 34.3256Z" fill="#D6002B"/>
<path d="M19.9445 18.5831C20.1681 18.5831 20.3827 18.5207 20.5706 18.3961C21.9747 17.47 25.5969 13.668 26.6523 12.5994C26.849 12.3947 27.0548 12.1453 27.019 11.8693C26.9921 11.6467 26.8222 11.4597 26.6612 11.2994C25.0871 9.7323 23.4236 8.25421 21.9389 6.60694C21.295 5.8946 20.5437 5.07542 20.0697 5.04871H19.8282C19.3542 5.08432 18.594 5.8946 17.959 6.60694C16.4743 8.26311 14.8108 9.74121 13.2367 11.2994C13.0757 11.4597 12.9058 11.6378 12.879 11.8693C12.8432 12.1453 13.0489 12.3947 13.2457 12.5994C14.301 13.668 17.9232 17.47 19.3274 18.3961C19.4973 18.5207 19.712 18.5831 19.9445 18.5831Z" fill="#D6002B"/>
<path d="M38.0555 18.5831C38.2791 18.5831 38.4938 18.5207 38.6816 18.3961C40.0858 17.47 43.708 13.668 44.7633 12.5994C44.9601 12.3947 45.1658 12.1453 45.13 11.8693C45.1032 11.6467 44.9333 11.4597 44.7723 11.2994C43.1982 9.7323 41.5347 8.25421 40.05 6.60694C39.406 5.8946 38.6548 5.07542 38.1808 5.04871H37.9393C37.4653 5.08432 36.705 5.8946 36.07 6.60694C34.5854 8.26311 32.9219 9.74121 31.3478 11.2994C31.1868 11.4597 31.0168 11.6378 30.99 11.8693C30.9632 12.1453 31.1599 12.3947 31.3567 12.5994C32.4121 13.668 36.0343 17.47 37.4384 18.3961C37.6173 18.5207 37.832 18.5831 38.0555 18.5831Z" fill="#D6002B"/>
<path d="M19.9445 50.7717C20.1681 50.7717 20.3827 50.7094 20.5705 50.5847C21.9747 49.6587 25.5969 45.8477 26.6523 44.7881C26.849 44.5833 27.0547 44.334 27.0189 44.0579C26.9921 43.8353 26.8222 43.6483 26.6612 43.4881C25.0871 41.9209 23.4236 40.4428 21.9389 38.7867C21.295 38.0743 20.5437 37.2551 20.0697 37.2284H19.8282C19.3542 37.2551 18.594 38.0743 17.959 38.7867C16.4743 40.4428 14.8108 41.9209 13.2367 43.4881C13.0757 43.6483 12.9058 43.8264 12.8789 44.0579C12.8521 44.3429 13.0489 44.5833 13.2456 44.7881C14.301 45.8566 17.9232 49.6587 19.3274 50.5847C19.4973 50.7094 19.7119 50.7717 19.9445 50.7717Z" fill="#D6002B"/>
<path d="M38.0555 50.7717C38.2791 50.7717 38.4938 50.7094 38.6816 50.5847C40.0858 49.6587 43.708 45.8477 44.7633 44.7881C44.9601 44.5833 45.1658 44.334 45.13 44.0579C45.1032 43.8353 44.9333 43.6483 44.7723 43.4881C43.1982 41.9209 41.5347 40.4428 40.05 38.7867C39.406 38.0743 38.6548 37.2551 38.1808 37.2284H37.9393C37.4653 37.2551 36.705 38.0743 36.07 38.7867C34.5854 40.4428 32.9219 41.9209 31.3478 43.4881C31.1868 43.6483 31.0168 43.8264 30.99 44.0579C30.9632 44.3429 31.1599 44.5833 31.3567 44.7881C32.4121 45.8566 36.0343 49.6587 37.4384 50.5847C37.6173 50.7094 37.832 50.7717 38.0555 50.7717Z" fill="#D6002B"/>
<path d="M38.941 69.4169C38.7174 69.4169 38.5027 69.4793 38.3149 69.6039C36.9108 70.53 33.2886 74.332 32.2332 75.4005C32.0364 75.6053 31.8307 75.8547 31.8665 76.1307C31.8933 76.3533 32.0633 76.5403 32.2243 76.7005C33.7984 78.2677 35.4619 79.7458 36.9465 81.3931C37.5905 82.1054 38.3418 82.9246 38.8158 82.9513H39.0573C39.5313 82.9157 40.2915 82.1054 40.9265 81.3931C42.4111 79.7458 44.0747 78.2588 45.6488 76.7005C45.8098 76.5403 45.9797 76.3622 46.0065 76.1307C46.0334 75.8457 45.8366 75.6053 45.6398 75.4005C44.5845 74.332 40.9623 70.53 39.5581 69.6039C39.3882 69.4793 39.1646 69.4169 38.941 69.4169Z" fill="#D6002B"/>
<path d="M20.821 69.4169C20.5974 69.4169 20.3828 69.4793 20.1949 69.6039C18.7908 70.53 15.1686 74.332 14.1132 75.4005C13.9164 75.6053 13.7107 75.8547 13.7465 76.1307C13.7733 76.3533 13.9433 76.5403 14.1043 76.7005C15.6784 78.2677 17.3419 79.7458 18.8265 81.3931C19.4705 82.1054 20.2218 82.9246 20.6958 82.9513H20.9373C21.4113 82.9157 22.1715 82.1054 22.8065 81.3931C24.2912 79.7458 25.9547 78.2588 27.5288 76.7005C27.6898 76.5403 27.8597 76.3622 27.8865 76.1307C27.9134 75.8457 27.7166 75.6053 27.5198 75.4005C26.4645 74.332 22.8423 70.53 21.4381 69.6039C21.2682 69.4793 21.0535 69.4169 20.821 69.4169Z" fill="#D6002B"/>
<path d="M28.7362 34.3256C28.9598 34.3256 29.1745 34.2633 29.3623 34.1386C30.7664 33.2126 34.3886 29.4105 35.444 28.342C35.6408 28.1372 35.8465 27.8879 35.8107 27.6118C35.7839 27.3892 35.6139 27.2022 35.4529 27.042C33.8789 25.4748 32.2153 23.9967 30.7307 22.3495C30.0867 21.6371 29.3354 20.8179 28.8614 20.7912H28.6199C28.1459 20.8268 27.3857 21.6371 26.7507 22.3495C25.2661 24.0056 23.6025 25.4837 22.0284 27.042C21.8674 27.2022 21.6975 27.3803 21.6707 27.6118C21.6438 27.8968 21.8406 28.1372 22.0374 28.342C23.0927 29.4105 26.7149 33.2126 28.1191 34.1386C28.289 34.2633 28.5037 34.3256 28.7362 34.3256Z" fill="#D6002B"/>
</svg>
