<svg width="58" height="88" viewBox="0 0 58 88" fill="none" xmlns="http://www.w3.org/2000/svg">
<path d="M53.0899 88H4.9101C2.20015 88 0 85.8185 0 83.1116V4.88839C0 2.19043 2.20015 0 4.9101 0H53.0899C55.7998 0 58 2.19043 58 4.88839V83.1116C58 85.8185 55.7998 88 53.0899 88Z" fill="white"/>
<path d="M7.54851 12.261H6.5021C6.5021 10.8987 6.77935 9.57197 7.34281 8.28086C7.90626 6.98976 8.58598 5.90345 9.39986 5.01303H4.95483L5.05321 4.11371H10.4642V4.71919C9.4893 5.88564 8.75591 7.10551 8.27295 8.36991C7.78999 9.6343 7.54851 10.8364 7.54851 11.9761C7.54851 12.0473 7.54851 12.1364 7.54851 12.261Z" fill="#D6002B"/>
<path d="M50.2011 75.7478H51.2565C51.2565 77.1101 50.9792 78.4369 50.4158 79.728C49.8523 81.0191 49.1726 82.1054 48.3587 82.9958H52.8038L52.7054 83.8951H47.2944V83.2896C48.2693 82.1232 49.0027 80.9033 49.4856 79.6389C49.9686 78.3745 50.2101 77.1725 50.2101 76.0327C50.2101 75.9615 50.2011 75.8636 50.2011 75.7478Z" fill="#D6002B"/>
<path d="M8.32447 17.7781C8.5633 17.5623 8.83109 17.3968 9.0844 17.2098C9.36666 17.0012 9.67062 16.8141 9.89498 16.548C10.0831 16.325 10.17 16.1092 10.2641 15.8358C10.3582 15.5624 10.3654 14.9797 10.2134 14.7352C9.77195 14.0302 8.5416 13.4187 7.72378 14.9654C7.7093 14.9869 7.6876 15.0013 7.66589 15.0013C7.64418 15.0013 7.62245 14.9869 7.60798 14.9654C6.7974 13.4187 5.55981 14.0302 5.11833 14.7352C4.96635 14.9797 4.97358 15.5624 5.06767 15.8358C5.16175 16.1092 5.24861 16.325 5.43678 16.548C5.66114 16.8141 5.9651 17.0012 6.24736 17.2098C6.5079 17.404 6.76846 17.5695 7.00729 17.7781C7.13032 17.886 7.65865 18.4543 7.65865 18.4543C7.65865 18.4543 8.20867 17.886 8.32447 17.7781Z" fill="#D6002B"/>
<path d="M50.0073 69.6761C49.7685 69.892 49.5007 70.0574 49.2474 70.2445C48.9651 70.4531 48.6612 70.6401 48.4368 70.9063C48.2486 71.1293 48.1618 71.3451 48.0677 71.6184C47.9736 71.8918 47.9664 72.4745 48.1184 72.7191C48.5598 73.424 49.7902 74.0355 50.608 72.4889C50.6225 72.4673 50.6442 72.4529 50.6659 72.4529C50.6876 72.4529 50.7093 72.4673 50.7238 72.4889C51.5344 74.0355 52.772 73.424 53.2135 72.7191C53.3654 72.4745 53.3582 71.8918 53.2641 71.6184C53.17 71.3451 53.0832 71.1293 52.895 70.9063C52.6707 70.6401 52.3667 70.4531 52.0844 70.2445C51.8239 70.0502 51.5633 69.8848 51.3245 69.6761C51.2015 69.5682 50.6731 68.9999 50.6731 68.9999C50.6731 68.9999 50.1231 69.5682 50.0073 69.6761Z" fill="#D6002B"/>
<path d="M17.4077 72.8217C16.7642 73.4031 16.0428 73.8489 15.3604 74.3528C14.6 74.9148 13.7811 75.4187 13.1766 76.1357C12.6697 76.7365 12.4357 77.3179 12.1822 78.0543C11.9288 78.7907 11.9093 80.3605 12.3187 81.0194C13.5081 82.9187 16.8227 84.566 19.0259 80.3993C19.0649 80.3412 19.1234 80.3024 19.1819 80.3024C19.2404 80.3024 19.2989 80.3412 19.3379 80.3993C21.5216 84.566 24.8557 82.9187 26.0451 81.0194C26.4545 80.3605 26.4351 78.7907 26.1816 78.0543C25.9281 77.3179 25.6941 76.7365 25.1872 76.1357C24.5828 75.4187 23.7639 74.9148 23.0035 74.3528C22.3016 73.8295 21.5996 73.3837 20.9562 72.8217C20.6247 72.531 19.2014 71 19.2014 71C19.2014 71 17.7196 72.531 17.4077 72.8217Z" fill="#D6002B"/>
<path d="M35.7717 72.8217C35.1282 73.4031 34.4068 73.8489 33.7244 74.3528C32.964 74.9148 32.1451 75.4187 31.5407 76.1357C31.0337 76.7365 30.7997 77.3179 30.5463 78.0543C30.2928 78.7907 30.2733 80.3605 30.6828 81.0194C31.8721 82.9187 35.1867 84.566 37.3899 80.3993C37.4289 80.3412 37.4874 80.3024 37.5459 80.3024C37.6044 80.3024 37.6629 80.3412 37.7019 80.3993C39.8857 84.566 43.2198 82.9187 44.4091 81.0194C44.8186 80.3605 44.7991 78.7907 44.5456 78.0543C44.2921 77.3179 44.0581 76.7365 43.5512 76.1357C42.9468 75.4187 42.1279 74.9148 41.3675 74.3528C40.6656 73.8295 39.9636 73.3837 39.3202 72.8217C38.9887 72.531 37.5654 71 37.5654 71C37.5654 71 36.0836 72.531 35.7717 72.8217Z" fill="#D6002B"/>
<path d="M39.3201 48.1783C39.9635 47.5969 40.685 47.1511 41.3674 46.6472C42.1278 46.0852 42.9467 45.5813 43.5511 44.8643C44.0581 44.2635 44.2921 43.6821 44.5455 42.9457C44.799 42.2093 44.8185 40.6395 44.409 39.9806C43.2197 38.0813 39.9051 36.434 37.7018 40.6007C37.6629 40.6588 37.6044 40.6976 37.5459 40.6976C37.4874 40.6976 37.4289 40.6588 37.3899 40.6007C35.2061 36.434 31.872 38.0813 30.6827 39.9806C30.2732 40.6395 30.2927 42.2093 30.5462 42.9457C30.7997 43.6821 31.0337 44.2635 31.5406 44.8643C32.145 45.5813 32.9639 46.0852 33.7243 46.6472C34.4262 47.1705 35.1282 47.6163 35.7716 48.1783C36.1031 48.469 37.5264 50 37.5264 50C37.5264 50 39.0082 48.469 39.3201 48.1783Z" fill="#D6002B"/>
<path d="M30.9562 32.1783C31.5997 31.5969 32.3211 31.1511 33.0035 30.6472C33.7639 30.0852 34.5828 29.5813 35.1872 28.8643C35.6942 28.2635 35.9282 27.6821 36.1816 26.9457C36.4351 26.2093 36.4546 24.6395 36.0451 23.9806C34.8558 22.0813 31.5412 20.434 29.338 24.6007C29.299 24.6588 29.2405 24.6976 29.182 24.6976C29.1235 24.6976 29.065 24.6588 29.026 24.6007C26.8423 20.434 23.5082 22.0813 22.3188 23.9806C21.9093 24.6395 21.9288 26.2093 22.1823 26.9457C22.4358 27.6821 22.6698 28.2635 23.1767 28.8643C23.7811 29.5813 24.6 30.0852 25.3604 30.6472C26.0623 31.1705 26.7643 31.6163 27.4077 32.1783C27.7392 32.469 29.1625 34 29.1625 34C29.1625 34 30.6443 32.469 30.9562 32.1783Z" fill="#D6002B"/>
<path d="M20.9562 48.1783C21.5997 47.5969 22.3211 47.1511 23.0035 46.6472C23.7639 46.0852 24.5828 45.5813 25.1872 44.8643C25.6942 44.2635 25.9282 43.6821 26.1816 42.9457C26.4351 42.2093 26.4546 40.6395 26.0451 39.9806C24.8558 38.0813 21.5412 36.434 19.338 40.6007C19.299 40.6588 19.2405 40.6976 19.182 40.6976C19.1235 40.6976 19.065 40.6588 19.026 40.6007C16.8423 36.434 13.5082 38.0813 12.3188 39.9806C11.9093 40.6395 11.9288 42.2093 12.1823 42.9457C12.4358 43.6821 12.6698 44.2635 13.1767 44.8643C13.7811 45.5813 14.6 46.0852 15.3604 46.6472C16.0623 47.1705 16.7643 47.6163 17.4077 48.1783C17.7392 48.469 19.1625 50 19.1625 50C19.1625 50 20.6443 48.469 20.9562 48.1783Z" fill="#D6002B"/>
<path d="M39.3201 15.1783C39.9635 14.5969 40.685 14.1511 41.3674 13.6472C42.1278 13.0852 42.9467 12.5813 43.5511 11.8643C44.0581 11.2635 44.2921 10.6821 44.5455 9.94569C44.799 9.20925 44.8185 7.63948 44.409 6.98056C43.2197 5.08132 39.9051 3.43401 37.7018 7.6007C37.6629 7.65884 37.6044 7.69761 37.5459 7.69761C37.4874 7.69761 37.4289 7.65884 37.3899 7.6007C35.2061 3.43401 31.872 5.08132 30.6827 6.98056C30.2732 7.63948 30.2927 9.20925 30.5462 9.94569C30.7997 10.6821 31.0337 11.2635 31.5406 11.8643C32.145 12.5813 32.9639 13.0852 33.7243 13.6472C34.4262 14.1705 35.1282 14.6163 35.7716 15.1783C36.1031 15.469 37.5264 17 37.5264 17C37.5264 17 39.0082 15.469 39.3201 15.1783Z" fill="#D6002B"/>
<path d="M20.9562 15.1783C21.5997 14.5969 22.3211 14.1511 23.0035 13.6472C23.7639 13.0852 24.5828 12.5813 25.1872 11.8643C25.6942 11.2635 25.9282 10.6821 26.1816 9.94569C26.4351 9.20925 26.4546 7.63948 26.0451 6.98056C24.8558 5.08132 21.5412 3.43401 19.338 7.6007C19.299 7.65884 19.2405 7.69761 19.182 7.69761C19.1235 7.69761 19.065 7.65884 19.026 7.6007C16.8423 3.43401 13.5082 5.08132 12.3188 6.98056C11.9093 7.63948 11.9288 9.20925 12.1823 9.94569C12.4358 10.6821 12.6698 11.2635 13.1767 11.8643C13.7811 12.5813 14.6 13.0852 15.3604 13.6472C16.0623 14.1705 16.7643 14.6163 17.4077 15.1783C17.7392 15.469 19.1625 17 19.1625 17C19.1625 17 20.6443 15.469 20.9562 15.1783Z" fill="#D6002B"/>
</svg>
