<svg width="58" height="88" viewBox="0 0 58 88" fill="none" xmlns="http://www.w3.org/2000/svg">
<path d="M53.0874 88H4.91264C2.20253 88 0 85.8072 0 83.1091V4.89089C0 2.18376 2.20253 0 4.91264 0H53.0874C55.7975 0 58 2.18376 58 4.89089V83.1091C57.9909 85.8072 55.7975 88 53.0874 88Z" fill="white"/>
<path d="M50.3137 71.6398C50.3137 71.4955 50.3681 71.2879 50.3681 71.1435C50.3681 70.9992 50.3681 70.8458 50.35 70.7014C50.2956 70.196 50.1143 69.7178 49.7336 69.3839C50.0781 69.3658 50.9301 69.3658 51.2745 69.3839C50.8938 69.7178 50.7125 70.196 50.6582 70.7014C50.64 70.8458 50.64 70.9992 50.64 71.1435C50.64 71.2879 50.6944 71.4955 50.6944 71.6398H50.3137Z" fill="#0C0A35"/>
<path d="M50.4407 71.0894C50.1416 70.6292 49.6068 70.3043 49.0449 70.3224C48.492 70.3404 47.9481 70.7465 47.8484 71.2879C47.7578 71.7662 47.9844 72.2535 48.3198 72.6054C48.6551 72.9573 49.1083 73.1919 49.5162 73.4626C49.9331 73.7334 50.5132 74.4101 50.5132 74.4101C50.5132 74.4101 51.1477 73.7514 51.5103 73.4717C51.9 73.1739 52.3804 72.9573 52.7067 72.5964C53.0421 72.2444 53.2687 71.7481 53.178 71.2789C53.0693 70.7375 52.5345 70.3404 51.9816 70.3133C51.4287 70.2953 50.8939 70.6201 50.5857 71.0804H50.4407V71.0894Z" fill="#0C0A35"/>
<path d="M7.49581 15.9631C7.49581 16.1075 7.43236 16.315 7.44143 16.4594C7.44143 16.6038 7.44143 16.7572 7.45955 16.9015C7.51394 17.3979 7.69522 17.8851 8.0759 18.219C7.73147 18.2371 6.87946 18.2371 6.53503 18.219C6.91572 17.8851 7.097 17.4069 7.15138 16.9015C7.16951 16.7572 7.16951 16.6038 7.16951 16.4594C7.16951 16.315 7.11512 16.1075 7.11512 15.9631H7.49581Z" fill="#0C0A35"/>
<path d="M7.36898 16.5135C7.66809 16.9737 8.20286 17.2986 8.76483 17.2806C9.31773 17.2625 9.86156 16.8564 9.97033 16.315C10.061 15.8368 9.83437 15.3495 9.499 14.9975C9.16364 14.6456 8.71044 14.411 8.30257 14.1403C7.88563 13.8696 7.30554 13.1928 7.30554 13.1928C7.30554 13.1928 6.67106 13.8515 6.3085 14.1313C5.91876 14.429 5.43837 14.6456 5.11207 15.0066C4.76764 15.3585 4.53198 15.8458 4.63168 16.324C4.74045 16.8655 5.27522 17.2625 5.83718 17.2896C6.39008 17.3076 6.92485 16.9828 7.23302 16.5226H7.36898V16.5135Z" fill="#0C0A35"/>
<path d="M7.55017 12.2544H6.49875C6.49875 10.8918 6.77973 9.56527 7.3417 8.27487C7.90366 6.98446 8.58345 5.89259 9.3992 5.00825H4.95789L5.05759 4.1149H10.4687V4.71949C9.48984 5.89259 8.76473 7.1108 8.28434 8.37413C7.80396 9.63746 7.55923 10.8376 7.55923 11.9746C7.55017 12.0378 7.55017 12.137 7.55017 12.2544Z" fill="#0C0A35"/>
<path d="M50.196 75.7367H51.2474C51.2474 77.0993 50.9665 78.4258 50.4045 79.7252C49.8425 81.0156 49.1627 82.1075 48.347 82.9918H52.7883L52.6886 83.8852H47.2865V83.2806C48.2654 82.1075 48.9905 80.8983 49.4709 79.6259C49.9513 78.3626 50.196 77.1625 50.196 76.0255C50.2051 75.9533 50.2051 75.863 50.196 75.7367Z" fill="#0C0A35"/>
<path d="M20.6476 11.4693C20.6476 11.8392 20.5026 12.3536 20.5026 12.7236C20.5026 13.0936 20.5026 13.4635 20.5479 13.8335C20.6839 15.0878 21.1371 16.288 22.0888 17.1272C21.2368 17.1813 19.0795 17.1813 18.2275 17.1272C19.1702 16.288 19.6234 15.0878 19.7684 13.8335C19.8047 13.4635 19.8137 13.0936 19.8137 12.7236C19.8137 12.3536 19.6687 11.8392 19.6687 11.4693H20.6476Z" fill="#0C0A35"/>
<path d="M20.3304 12.8499C21.0918 14.0049 22.4242 14.8171 23.8109 14.772C25.1977 14.7268 26.5482 13.7162 26.8202 12.3626C27.0558 11.1715 26.4757 9.94423 25.6418 9.05088C24.808 8.15752 23.6659 7.57098 22.6507 6.90322C21.6084 6.21741 20.1491 4.52094 20.1491 4.52094C20.1491 4.52094 18.5539 6.18131 17.6565 6.8581C16.6867 7.59805 15.4812 8.15752 14.6564 9.05088C13.8225 9.94423 13.2424 11.1715 13.4781 12.3626C13.75 13.7162 15.1005 14.7268 16.4873 14.772C17.8741 14.8171 19.2155 14.0049 19.9678 12.8499H20.3304Z" fill="#0C0A35"/>
<path d="M38.3404 11.4693C38.3404 11.8392 38.1953 12.3536 38.1953 12.7236C38.1953 13.0936 38.1953 13.4635 38.2406 13.8335C38.3766 15.0878 38.8298 16.288 39.7815 17.1272C38.9295 17.1813 36.7723 17.1813 35.9203 17.1272C36.8629 16.288 37.3161 15.0878 37.4612 13.8335C37.4974 13.4635 37.5065 13.0936 37.5065 12.7236C37.5065 12.3536 37.3615 11.8392 37.3615 11.4693H38.3404Z" fill="#0C0A35"/>
<path d="M38.0231 12.8499C38.7845 14.0049 40.1169 14.8171 41.5037 14.772C42.8905 14.7268 44.241 13.7162 44.5129 12.3626C44.7486 11.1715 44.1685 9.94423 43.3346 9.05088C42.5007 8.15752 41.3587 7.57098 40.3435 6.90322C39.3011 6.21741 37.8419 4.52094 37.8419 4.52094C37.8419 4.52094 36.2466 6.19034 35.3493 6.86712C34.3794 7.60707 33.1739 8.16655 32.3491 9.0599C31.5152 9.95326 30.9352 11.1805 31.1708 12.3716C31.4427 13.7252 32.7933 14.7359 34.18 14.781C35.5668 14.8261 36.9083 14.014 37.6606 12.8589H38.0231V12.8499Z" fill="#0C0A35"/>
<path d="M20.6476 44.6226C20.6476 44.9926 20.5026 45.5069 20.5026 45.8769C20.5026 46.2469 20.5026 46.6168 20.5479 46.9868C20.6839 48.2411 21.1371 49.4413 22.0888 50.2805C21.2368 50.3256 19.0795 50.3256 18.2275 50.2805C19.1702 49.4413 19.6234 48.2411 19.7684 46.9868C19.8047 46.6168 19.8137 46.2469 19.8137 45.8769C19.8137 45.5069 19.6687 44.9926 19.6687 44.6226H20.6476Z" fill="#0C0A35"/>
<path d="M20.3304 46.0123C21.0918 47.1674 22.4242 47.9795 23.8109 47.9344C25.1977 47.8893 26.5482 46.8786 26.8202 45.525C27.0558 44.3339 26.4757 43.1066 25.6418 42.2133C24.808 41.3199 23.6659 40.7334 22.6507 40.0656C21.6084 39.3798 20.1491 37.6833 20.1491 37.6833C20.1491 37.6833 18.5539 39.3437 17.6565 40.0205C16.6867 40.7605 15.4812 41.3199 14.6564 42.2133C13.8225 43.1066 13.2424 44.3339 13.4781 45.525C13.75 46.8786 15.1005 47.8893 16.4873 47.9344C17.8741 47.9795 19.2155 47.1674 19.9678 46.0123H20.3304Z" fill="#0C0A35"/>
<path d="M38.3404 44.6226C38.3404 44.9926 38.1953 45.5069 38.1953 45.8769C38.1953 46.2469 38.1953 46.6168 38.2406 46.9868C38.3766 48.2411 38.8298 49.4413 39.7815 50.2805C38.9295 50.3256 36.7723 50.3256 35.9203 50.2805C36.8629 49.4413 37.3161 48.2411 37.4612 46.9868C37.4974 46.6168 37.5065 46.2469 37.5065 45.8769C37.5065 45.5069 37.3615 44.9926 37.3615 44.6226H38.3404Z" fill="#0C0A35"/>
<path d="M38.0231 46.0123C38.7845 47.1674 40.1169 47.9795 41.5037 47.9344C42.8905 47.8893 44.241 46.8786 44.5129 45.525C44.7486 44.3339 44.1685 43.1066 43.3346 42.2133C42.5007 41.3199 41.3587 40.7334 40.3435 40.0656C39.3011 39.3798 37.8419 37.6833 37.8419 37.6833C37.8419 37.6833 36.2466 39.3437 35.3493 40.0205C34.3794 40.7605 33.1739 41.3199 32.3491 42.2133C31.5152 43.1066 30.9352 44.3339 31.1708 45.525C31.4427 46.8786 32.7933 47.8893 34.18 47.9344C35.5668 47.9795 36.9083 47.1674 37.6606 46.0123H38.0231Z" fill="#0C0A35"/>
<path d="M37.3433 76.5307C37.3433 76.1608 37.4883 75.6464 37.4883 75.2764C37.4883 74.9065 37.4883 74.5365 37.443 74.1665C37.307 72.9122 36.8538 71.712 35.9021 70.8728C36.7541 70.8187 38.9113 70.8187 39.7633 70.8728C38.8207 71.712 38.3675 72.9122 38.2225 74.1665C38.1862 74.5365 38.1771 74.9065 38.1771 75.2764C38.1771 75.6464 38.3222 76.1608 38.3222 76.5307H37.3433Z" fill="#0C0A35"/>
<path d="M37.6606 75.15C36.8992 73.9949 35.5668 73.1828 34.18 73.2279C32.7933 73.273 31.4427 74.2837 31.1708 75.6373C30.9352 76.8284 31.5152 78.0557 32.3491 78.949C33.183 79.8424 34.3251 80.4289 35.3402 81.0967C36.3826 81.7825 37.8419 83.479 37.8419 83.479C37.8419 83.479 39.4371 81.8186 40.3344 81.1418C41.3043 80.4018 42.5098 79.8424 43.3346 78.949C44.1594 78.0557 44.7486 76.8284 44.5129 75.6373C44.241 74.2837 42.8905 73.273 41.5037 73.2279C40.1169 73.1828 38.7754 73.9949 38.0231 75.15H37.6606Z" fill="#0C0A35"/>
<path d="M19.6505 76.5307C19.6505 76.1608 19.7955 75.6464 19.7955 75.2764C19.7955 74.9065 19.7955 74.5365 19.7502 74.1665C19.6143 72.9122 19.1611 71.712 18.2094 70.8728C19.0614 70.8187 21.2186 70.8187 22.0706 70.8728C21.1279 71.712 20.6747 72.9122 20.5297 74.1665C20.4935 74.5365 20.4844 74.9065 20.4844 75.2764C20.4844 75.6464 20.6294 76.1608 20.6294 76.5307H19.6505Z" fill="#0C0A35"/>
<path d="M19.9678 75.15C19.2065 73.9949 17.8741 73.1828 16.4873 73.2279C15.1005 73.273 13.75 74.2837 13.4781 75.6373C13.2424 76.8284 13.8225 78.0557 14.6564 78.949C15.4903 79.8424 16.6323 80.4289 17.6475 81.0967C18.6898 81.7825 20.1491 83.479 20.1491 83.479C20.1491 83.479 21.7444 81.8186 22.6417 81.1418C23.6115 80.4018 24.817 79.8424 25.6418 78.949C26.4757 78.0557 27.0558 76.8284 26.8202 75.6373C26.5482 74.2837 25.1977 73.273 23.8109 73.2279C22.4242 73.1828 21.0827 73.9949 20.3304 75.15H19.9678Z" fill="#0C0A35"/>
<path d="M29.4939 28.3166C29.4939 28.6866 29.3489 29.201 29.3489 29.5709C29.3489 29.9409 29.3489 30.3109 29.3942 30.6809C29.5302 31.9352 29.9834 33.1353 30.9351 33.9745C30.0831 34.0287 27.9259 34.0287 27.0739 33.9745C28.0165 33.1353 28.4697 31.9352 28.6147 30.6809C28.651 30.3109 28.66 29.9409 28.66 29.5709C28.66 29.201 28.515 28.6866 28.515 28.3166H29.4939Z" fill="#0C0A35"/>
<path d="M29.1767 29.6973C29.9381 30.8524 31.2705 31.6645 32.6572 31.6194C34.044 31.5743 35.3945 30.5636 35.6665 29.2101C35.9021 28.0189 35.322 26.7917 34.4882 25.8983C33.6543 25.005 32.5122 24.4184 31.4971 23.7507C30.4547 23.0648 28.9954 21.3684 28.9954 21.3684C28.9954 21.3684 27.4002 23.0288 26.5028 23.7055C25.533 24.4455 24.3275 25.005 23.5027 25.8983C22.6688 26.7917 22.0887 28.0189 22.3244 29.2101C22.5963 30.5636 23.9468 31.5743 25.3336 31.6194C26.7204 31.6645 28.0618 30.8524 28.8141 29.6973H29.1767Z" fill="#0C0A35"/>
</svg>
