<svg width="58" height="88" viewBox="0 0 58 88" fill="none" xmlns="http://www.w3.org/2000/svg">
<path d="M53.1003 88H4.90859C2.19948 88 0 85.8107 0 83.1141V4.88592C0 2.18932 2.19948 0 4.90859 0H53.0914C55.8005 0 58 2.18932 58 4.88592V83.1141C58.0089 85.8107 55.8094 88 53.1003 88Z" fill="white"/>
<path d="M7.59081 16.5445C7.59081 16.6869 7.53716 16.8916 7.53716 17.0339C7.53716 17.1763 7.53717 17.3276 7.55505 17.47C7.60869 17.9595 7.78751 18.4312 8.15409 18.7605C7.82327 18.7783 6.98282 18.7783 6.64307 18.7605C7.00965 18.4312 7.18846 17.9595 7.24211 17.47C7.25999 17.3276 7.25999 17.1852 7.25999 17.0339C7.25999 16.8916 7.20635 16.6869 7.20635 16.5445H7.59081Z" fill="#0C0A35"/>
<path d="M7.49245 16.9005C7.63551 16.9183 7.71598 17.0518 7.96632 17.3366C8.19879 17.5857 8.43125 17.8527 8.94983 17.915C9.21806 17.9506 9.56676 17.8082 9.72769 17.5946C9.86181 17.4167 9.94227 17.1942 9.99592 16.9717C10.1032 16.5623 10.0674 16.1529 9.8618 15.7791C9.65616 15.4053 9.11076 15.2451 8.77995 15.4409C8.60113 15.5477 8.53854 15.6812 8.37761 15.7079C8.32396 15.7168 8.28819 15.6723 8.29714 15.6189C8.35972 15.3697 8.53854 15.3341 8.62795 15.0404C8.7263 14.6845 8.77995 14.4086 8.27031 13.9636C7.88585 13.6254 6.93811 13.6521 6.52683 13.9636C6.10661 14.2751 6.07084 14.5688 6.16919 14.9158C6.24966 15.1917 6.41059 15.3252 6.48212 15.5566C6.50895 15.6367 6.42848 15.7168 6.34801 15.6812C6.23177 15.6367 6.16025 15.521 6.00825 15.432C5.6685 15.2362 5.1231 15.3964 4.9264 15.7702C4.72076 16.144 4.68499 16.5534 4.79228 16.9628C4.84593 17.1853 4.9264 17.3989 5.06051 17.5857C5.22145 17.7993 5.57909 17.9417 5.83837 17.9061C6.35695 17.8438 6.58942 17.5768 6.82188 17.3277C7.08117 17.0518 7.16164 16.9183 7.29575 16.8916H7.49245V16.9005Z" fill="#0C0A35"/>
<path d="M5.96356 8.02756C4.92641 7.58258 4.40783 6.924 4.40783 6.06963C4.40783 5.44666 4.66712 4.93938 5.1857 4.53889C5.70427 4.1384 6.38379 3.94261 7.23318 3.94261C8.07363 3.94261 8.7442 4.1384 9.23595 4.52109C9.7277 4.90378 9.97805 5.41106 9.97805 6.02514C9.97805 6.8884 9.45054 7.50248 8.38656 7.87627C9.24489 8.26785 9.78135 8.65054 9.99593 9.01543C10.2105 9.38031 10.3267 9.7452 10.3267 10.119C10.3267 10.7776 10.0496 11.3204 9.4863 11.7565C8.93196 12.2015 8.17197 12.4151 7.21529 12.4151C6.19602 12.4151 5.40923 12.1926 4.84595 11.7387C4.28266 11.2937 4.00549 10.7598 4.00549 10.1368C4.02338 9.23792 4.66713 8.52595 5.96356 8.02756ZM7.09906 8.46365C5.71321 8.79294 5.02476 9.36251 5.02476 10.1902C5.02476 10.6174 5.21252 10.9734 5.58804 11.2492C5.96356 11.5251 6.5179 11.6586 7.26 11.6586C7.88587 11.6586 8.38656 11.5251 8.76208 11.2581C9.1376 10.9912 9.3343 10.653 9.3343 10.2347C9.3343 9.44261 8.58326 8.85523 7.09906 8.46365ZM7.20636 7.52918C7.89481 7.34229 8.37762 7.1376 8.66373 6.8973C8.94984 6.65701 9.0929 6.36332 9.0929 5.99844C9.0929 5.58015 8.92301 5.25976 8.58326 5.04617C8.2435 4.83258 7.79646 4.71688 7.25106 4.71688C6.72354 4.71688 6.29438 4.83258 5.95462 5.06397C5.61487 5.29536 5.45392 5.59795 5.45392 5.98954C5.45392 6.37222 5.64169 6.70151 6.01721 6.9774C6.38379 7.25329 6.78613 7.44018 7.20636 7.52918Z" fill="#0C0A35"/>
<path d="M50.4002 71.4555C50.4002 71.3131 50.4538 71.1084 50.4538 70.966C50.4538 70.8237 50.4538 70.6724 50.4359 70.53C50.3823 70.0405 50.2035 69.5688 49.8369 69.2395C50.1677 69.2217 51.0082 69.2217 51.3479 69.2395C50.9814 69.5688 50.8025 70.0405 50.7489 70.53C50.731 70.6724 50.731 70.8148 50.731 70.966C50.731 71.1084 50.7846 71.3131 50.7846 71.4555H50.4002Z" fill="#0C0A35"/>
<path d="M50.4985 71.0995C50.3555 71.0817 50.275 70.9482 50.0246 70.6634C49.7922 70.4142 49.5597 70.1472 49.0411 70.0849C48.7729 70.0494 48.4242 70.1917 48.2633 70.4053C48.1292 70.5833 48.0487 70.8058 47.995 71.0283C47.8877 71.4377 47.9235 71.8471 48.1292 72.2209C48.3348 72.5947 48.8802 72.7549 49.211 72.5591C49.3898 72.4523 49.4524 72.3188 49.6134 72.2921C49.667 72.2832 49.7117 72.3277 49.6938 72.3811C49.6312 72.6303 49.4524 72.6659 49.363 72.9595C49.2647 73.3155 49.211 73.5914 49.7206 74.0364C50.1051 74.3746 51.0529 74.3479 51.4641 74.0364C51.8844 73.7249 51.9201 73.4312 51.8218 73.0841C51.7413 72.8083 51.5804 72.6748 51.5088 72.4434C51.482 72.3633 51.5625 72.2832 51.643 72.3188C51.7592 72.3633 51.8307 72.479 51.9827 72.568C52.3225 72.7727 52.8679 72.6036 53.0646 72.2298C53.2702 71.856 53.306 71.4466 53.1987 71.0372C53.145 70.8147 53.0646 70.6011 52.9305 70.4142C52.7695 70.2006 52.4119 70.0583 52.1526 70.0939C51.634 70.1561 51.4015 70.4231 51.1691 70.6723C50.9098 70.9482 50.8293 71.0817 50.6952 71.1084H50.4985V71.0995Z" fill="#0C0A35"/>
<path d="M51.8038 79.9725C52.841 80.4175 53.3596 81.0761 53.3596 81.9304C53.3596 82.5534 53.1003 83.0607 52.5906 83.4612C52.0721 83.8617 51.3926 84.0575 50.5432 84.0575C49.7027 84.0575 49.0321 83.8617 48.5404 83.479C48.0486 83.0963 47.7983 82.589 47.7983 81.9749C47.7983 81.1117 48.3258 80.4976 49.3898 80.1238C48.5314 79.7322 47.995 79.3495 47.7804 78.9846C47.5658 78.6198 47.4496 78.2549 47.4496 77.8811C47.4496 77.2314 47.7268 76.6796 48.29 76.2435C48.8444 75.7986 49.6044 75.585 50.561 75.585C51.5803 75.585 52.3671 75.8075 52.9304 76.2613C53.4937 76.7063 53.7708 77.2403 53.7708 77.8633C53.753 78.771 53.1003 79.4741 51.8038 79.9725ZM50.6773 79.5364C52.0631 79.2071 52.7516 78.6376 52.7516 77.8099C52.7516 77.3827 52.5638 77.0267 52.1883 76.7508C51.8128 76.4749 51.2584 76.3414 50.5163 76.3414C49.8905 76.3414 49.3898 76.4749 49.0143 76.7419C48.6387 77.0089 48.442 77.3471 48.442 77.7654C48.442 78.5663 49.1841 79.1537 50.6773 79.5364ZM50.561 80.4798C49.8726 80.6667 49.3898 80.8714 49.1037 81.1117C48.8176 81.352 48.6745 81.6456 48.6745 82.0105C48.6745 82.4288 48.8444 82.7492 49.1841 82.9628C49.5239 83.1764 49.9709 83.2921 50.5163 83.2921C51.0439 83.2921 51.473 83.1764 51.8128 82.945C52.1525 82.7136 52.3135 82.411 52.3135 82.0194C52.3135 81.6367 52.1257 81.3075 51.7502 81.0316C51.3836 80.7468 50.9813 80.5688 50.561 80.4798Z" fill="#0C0A35"/>
<path d="M28.8435 28.4968C28.8435 28.8617 28.9866 29.3868 28.9866 29.7516C28.9866 30.1254 28.9866 30.4903 28.9419 30.8552C28.8078 32.1101 28.3518 33.3026 27.4041 34.1481C28.2624 34.2015 30.4082 34.2015 31.2665 34.1481C30.3188 33.3026 29.8718 32.1101 29.7287 30.8552C29.6929 30.4903 29.684 30.1165 29.684 29.7516C29.684 29.3868 29.8271 28.8617 29.8271 28.4968H28.8435Z" fill="#0C0A35"/>
<path d="M29.1028 29.4134C28.7452 29.4668 28.5395 29.8139 27.8779 30.517C27.2878 31.1578 26.6977 31.8341 25.3655 31.9943C24.686 32.0744 23.7829 31.7096 23.3716 31.1667C23.0229 30.7039 22.8262 30.1432 22.6832 29.5825C22.406 28.5324 22.5044 27.4911 23.0319 26.5388C23.5505 25.5866 24.9452 25.1683 25.8036 25.6845C26.2685 25.9604 26.4116 26.2896 26.8407 26.3697C26.9659 26.3964 27.0821 26.2718 27.0464 26.1473C26.8765 25.5065 26.4205 25.4264 26.2059 24.661C25.9556 23.7532 25.8125 23.0502 27.109 21.9199C28.1014 21.0477 30.5155 21.1367 31.5616 21.9199C32.6255 22.7209 32.7328 23.4596 32.4735 24.3673C32.2768 25.0793 31.8656 25.4086 31.6688 26.0138C31.6063 26.2185 31.803 26.4142 31.9997 26.3341C32.3037 26.2096 32.4735 25.9337 32.8669 25.6934C33.7253 25.1772 35.1201 25.5955 35.6386 26.5477C36.1572 27.5 36.2645 28.5413 35.9873 29.5914C35.8443 30.1521 35.6476 30.7128 35.2989 31.1756C34.8876 31.7185 33.9846 32.0833 33.305 32.0032C31.9728 31.843 31.3827 31.1578 30.7926 30.5259C30.1399 29.8228 29.9343 29.4757 29.5767 29.4223H29.1028V29.4134Z" fill="#0C0A35"/>
<path d="M28.8435 59.877C28.8435 59.5122 28.9866 58.9871 28.9866 58.6222C28.9866 58.2484 28.9866 57.8835 28.9419 57.5186C28.8078 56.2638 28.3518 55.0712 27.4041 54.2257C28.2624 54.1723 30.4082 54.1723 31.2665 54.2257C30.3188 55.0623 29.8718 56.2638 29.7287 57.5186C29.6929 57.8835 29.684 58.2573 29.684 58.6222C29.684 58.9871 29.8271 59.5122 29.8271 59.877H28.8435Z" fill="#0C0A35"/>
<path d="M29.1028 58.9604C28.7452 58.907 28.5395 58.5599 27.8779 57.8568C27.2878 57.2161 26.6977 56.5397 25.3655 56.3706C24.686 56.2905 23.7829 56.6554 23.3716 57.1983C23.0229 57.661 22.8262 58.2217 22.6832 58.7824C22.406 59.8326 22.5044 60.8738 23.0319 61.8261C23.5505 62.7784 24.9452 63.1966 25.8036 62.6805C26.2685 62.4046 26.4116 62.0753 26.8407 61.9952C26.9659 61.9685 27.0821 62.0931 27.0464 62.2177C26.8765 62.8585 26.4205 62.9386 26.2059 63.7039C25.9556 64.6117 25.8125 65.3148 27.109 66.445C28.1014 67.3172 30.5155 67.2282 31.5616 66.445C32.6255 65.6441 32.7328 64.9054 32.4735 63.9976C32.2768 63.2856 31.8656 62.9563 31.6688 62.3512C31.6063 62.1465 31.803 61.9507 31.9997 62.0308C32.3037 62.1554 32.4735 62.4313 32.8669 62.6716C33.7253 63.1877 35.1201 62.7695 35.6386 61.8172C36.1572 60.8649 36.2645 59.8237 35.9873 58.7735C35.8443 58.2128 35.6476 57.6521 35.2989 57.1894C34.8876 56.6465 33.9846 56.2816 33.305 56.3617C31.9728 56.5219 31.3827 57.2072 30.7926 57.8479C30.1399 58.551 29.9343 58.8981 29.5767 58.9515H29.1028V58.9604Z" fill="#0C0A35"/>
<path d="M19.3035 12.3795C19.3035 12.7444 19.4466 13.2695 19.4466 13.6343C19.4466 14.0081 19.4466 14.373 19.4019 14.7379C19.2677 15.9928 18.8118 17.1853 17.864 18.0308C18.7223 18.0842 20.8682 18.0842 21.7265 18.0308C20.7788 17.1853 20.3317 15.9928 20.1887 14.7379C20.144 14.373 20.144 13.9992 20.144 13.6343C20.144 13.2695 20.287 12.7444 20.287 12.3795H19.3035Z" fill="#0C0A35"/>
<path d="M19.5628 13.2872C19.2051 13.3406 18.9995 13.6877 18.3378 14.3908C17.7477 15.0316 17.1576 15.7079 15.8254 15.877C15.1459 15.9571 14.2429 15.5922 13.8316 15.0494C13.4829 14.5866 13.2862 14.0259 13.1431 13.4652C12.866 12.4151 12.9643 11.3738 13.4918 10.4215C14.0104 9.46926 15.4052 9.05098 16.2635 9.56716C16.7285 9.84305 16.8805 10.1723 17.3007 10.2524C17.4348 10.2791 17.5421 10.1545 17.5063 10.0299C17.3365 9.38917 16.8805 9.30907 16.6659 8.5437C16.4155 7.63593 16.2725 6.93286 17.5689 5.8026C18.5614 4.93043 20.9754 5.01943 22.0215 5.8026C23.0855 6.60357 23.1928 7.34224 22.9335 8.25001C22.7368 8.96198 22.3255 9.29127 22.1288 9.89645C22.0662 10.1011 22.2629 10.2969 22.4596 10.2168C22.7636 10.0922 22.9335 9.81635 23.3269 9.57606C24.1852 9.05988 25.58 9.47816 26.0986 10.4304C26.6172 11.3827 26.7245 12.424 26.4473 13.4741C26.3042 14.0348 26.1075 14.5955 25.7588 15.0583C25.3476 15.6011 24.4445 15.966 23.765 15.8859C22.4328 15.7257 21.8427 15.0405 21.2526 14.3997C20.5999 13.6966 20.3943 13.3495 20.0366 13.2961H19.5628V13.2872Z" fill="#0C0A35"/>
<path d="M37.7129 12.3795C37.7129 12.7444 37.8649 13.2695 37.856 13.6343C37.856 14.0081 37.856 14.373 37.8113 14.7379C37.6772 15.9928 37.2212 17.1853 36.2734 18.0308C37.1318 18.0842 39.2776 18.0842 40.1359 18.0308C39.1882 17.1853 38.7411 15.9928 38.5981 14.7379C38.5534 14.373 38.5534 13.9992 38.5534 13.6343C38.5534 13.2695 38.6964 12.7444 38.6964 12.3795H37.7129Z" fill="#0C0A35"/>
<path d="M37.9721 13.2872C37.6145 13.3406 37.4089 13.6877 36.7562 14.3908C36.1661 15.0316 35.576 15.7079 34.2438 15.877C33.5643 15.9571 32.6612 15.5922 32.2499 15.0494C31.9012 14.5866 31.7045 14.0259 31.5615 13.4652C31.2843 12.4151 31.3827 11.3738 31.9102 10.4215C32.4288 9.46926 33.8235 9.05098 34.6819 9.56716C35.1468 9.84305 35.2988 10.1723 35.719 10.2524C35.8531 10.2791 35.9604 10.1545 35.9247 10.0299C35.7548 9.38917 35.2988 9.30907 35.0842 8.5437C34.8339 7.63593 34.6908 6.93286 35.9873 5.8026C36.9797 4.93043 39.3938 5.01943 40.4399 5.8026C41.5038 6.60357 41.6111 7.34224 41.3518 8.25001C41.1551 8.96198 40.7438 9.29127 40.5471 9.89645C40.4846 10.1011 40.6813 10.2969 40.878 10.2168C41.1819 10.0922 41.3518 9.81635 41.7452 9.57606C42.6036 9.05988 43.9983 9.47816 44.5169 10.4304C45.0355 11.3827 45.1428 12.424 44.8656 13.4741C44.7226 14.0348 44.5259 14.5955 44.1772 15.0583C43.7659 15.6011 42.8628 15.966 42.1833 15.8859C40.8511 15.7257 40.261 15.0405 39.6709 14.3997C39.0182 13.6966 38.8126 13.3495 38.455 13.2961H37.9721V13.2872Z" fill="#0C0A35"/>
<path d="M19.3035 44.7565C19.3035 45.1214 19.4466 45.6464 19.4466 46.0113C19.4466 46.3851 19.4466 46.75 19.4019 47.1149C19.2677 48.3697 18.8118 49.5623 17.864 50.4078C18.7223 50.4612 20.8682 50.4612 21.7265 50.4078C20.7788 49.5623 20.3317 48.3697 20.1887 47.1149C20.144 46.75 20.144 46.3762 20.144 46.0113C20.144 45.6464 20.287 45.1214 20.287 44.7565H19.3035Z" fill="#0C0A35"/>
<path d="M19.5628 45.6732C19.2051 45.7266 18.9995 46.0737 18.3378 46.7767C17.7477 47.4175 17.1576 48.0939 15.8254 48.2541C15.1459 48.3342 14.2429 47.9693 13.8316 47.4264C13.4829 46.9636 13.2862 46.4029 13.1431 45.8423C12.866 44.7921 12.9643 43.7508 13.4918 42.7986C14.0104 41.8463 15.4052 41.428 16.2635 41.9442C16.7285 42.2201 16.8805 42.5494 17.3007 42.6295C17.4348 42.6562 17.5421 42.5316 17.5063 42.407C17.3365 41.7662 16.8805 41.6861 16.6659 40.9207C16.4155 40.013 16.2725 39.3099 17.5689 38.1796C18.5614 37.3075 20.9754 37.3965 22.0215 38.1796C23.0855 38.9806 23.1928 39.7193 22.9335 40.6271C22.7368 41.339 22.3255 41.6683 22.1288 42.2735C22.0662 42.4782 22.2629 42.674 22.4596 42.5939C22.7636 42.4693 22.9335 42.1934 23.3269 41.9531C24.1852 41.4369 25.58 41.8552 26.0986 42.8075C26.6172 43.7597 26.7245 44.801 26.4473 45.8512C26.3042 46.4118 26.1075 46.9725 25.7588 47.4353C25.3476 47.9782 24.4445 48.3431 23.765 48.263C22.4328 48.1028 21.8427 47.4175 21.2526 46.7856C20.5999 46.0826 20.3943 45.7355 20.0366 45.6821H19.5628V45.6732Z" fill="#0C0A35"/>
<path d="M37.7129 44.7565C37.7129 45.1214 37.8649 45.6464 37.856 46.0113C37.856 46.3851 37.856 46.75 37.8113 47.1149C37.6772 48.3697 37.2212 49.5623 36.2734 50.4078C37.1318 50.4612 39.2776 50.4612 40.1359 50.4078C39.1882 49.5623 38.7411 48.3697 38.5981 47.1149C38.5534 46.75 38.5534 46.3762 38.5534 46.0113C38.5534 45.6464 38.6964 45.1214 38.6964 44.7565H37.7129Z" fill="#0C0A35"/>
<path d="M37.9721 45.6732C37.6145 45.7266 37.4089 46.0737 36.7562 46.7767C36.1661 47.4175 35.576 48.0939 34.2438 48.2541C33.5643 48.3342 32.6612 47.9693 32.2499 47.4264C31.9012 46.9636 31.7045 46.4029 31.5615 45.8423C31.2843 44.7921 31.3827 43.7508 31.9102 42.7986C32.4288 41.8463 33.8235 41.428 34.6819 41.9442C35.1468 42.2201 35.2988 42.5494 35.719 42.6295C35.8531 42.6562 35.9604 42.5316 35.9247 42.407C35.7548 41.7662 35.2988 41.6861 35.0842 40.9207C34.8339 40.013 34.6908 39.3099 35.9873 38.1796C36.9797 37.3075 39.3938 37.3965 40.4399 38.1796C41.5038 38.9806 41.6111 39.7193 41.3518 40.6271C41.1551 41.339 40.7438 41.6683 40.5471 42.2735C40.4846 42.4782 40.6813 42.674 40.878 42.5939C41.1819 42.4693 41.3518 42.1934 41.7452 41.9531C42.6036 41.4369 43.9983 41.8552 44.5169 42.8075C45.0355 43.7597 45.1428 44.801 44.8656 45.8512C44.7226 46.4118 44.5259 46.9725 44.1772 47.4353C43.7659 47.9782 42.8628 48.3431 42.1833 48.263C40.8511 48.1028 40.261 47.4175 39.6709 46.7856C39.0182 46.0826 38.8126 45.7355 38.455 45.6821H37.9721V45.6732Z" fill="#0C0A35"/>
<path d="M38.7055 75.6294C38.7055 75.2645 38.5624 74.7395 38.5624 74.3746C38.5624 74.0008 38.5624 73.6359 38.6071 73.271C38.7412 72.0162 39.1972 70.8236 40.145 69.9781C39.2866 69.9247 37.1408 69.9247 36.2825 69.9781C37.2302 70.8236 37.6773 72.0162 37.8203 73.271C37.865 73.6359 37.865 74.0097 37.865 74.3746C37.865 74.7395 37.722 75.2645 37.722 75.6294H38.7055Z" fill="#0C0A35"/>
<path d="M38.4461 74.7127C38.8038 74.6593 39.0094 74.3122 39.671 73.6092C40.2611 72.9684 40.8512 72.292 42.1834 72.1318C42.863 72.0517 43.766 72.4166 44.1773 72.9595C44.526 73.4223 44.7227 73.983 44.8657 74.5436C45.1429 75.5938 45.0446 76.6351 44.517 77.5873C43.9985 78.5396 42.6037 78.9579 41.7453 78.4417C41.2804 78.1658 41.1284 77.8365 40.7082 77.7564C40.5741 77.7297 40.4668 77.8543 40.5026 77.9789C40.6724 78.6197 41.1284 78.6998 41.343 79.4652C41.5933 80.3729 41.7364 81.076 40.44 82.2063C39.4475 83.0784 37.0335 82.9894 35.9874 82.2063C34.9234 81.4053 34.8161 80.6666 35.0754 79.7588C35.2721 79.0469 35.6834 78.7176 35.8801 78.1124C35.9427 77.9077 35.746 77.7119 35.5493 77.792C35.2453 77.9166 35.0754 78.1925 34.682 78.4328C33.8237 78.949 32.4289 78.5307 31.9103 77.5784C31.3917 76.6262 31.2844 75.5849 31.5616 74.5347C31.7047 73.9741 31.9013 73.4134 32.25 72.9506C32.6613 72.4077 33.5644 72.0428 34.2439 72.1229C35.5761 72.2831 36.1662 72.9684 36.7563 73.6003C37.409 74.3033 37.6146 74.6504 37.9723 74.7038H38.4461V74.7127Z" fill="#0C0A35"/>
<path d="M20.2959 75.6294C20.2959 75.2645 20.1529 74.7395 20.1529 74.3746C20.1529 74.0008 20.1529 73.6359 20.1976 73.271C20.3317 72.0162 20.7877 70.8236 21.7354 69.9781C20.8771 69.9247 18.7313 69.9247 17.8729 69.9781C18.8207 70.8236 19.2677 72.0162 19.4108 73.271C19.4555 73.6359 19.4555 74.0097 19.4555 74.3746C19.4555 74.7395 19.3035 75.2645 19.3124 75.6294H20.2959Z" fill="#0C0A35"/>
<path d="M20.0367 74.7127C20.3944 74.6593 20.6 74.3122 21.2527 73.6092C21.8428 72.9684 22.4329 72.292 23.7651 72.1318C24.4446 72.0517 25.3477 72.4166 25.7589 72.9595C26.1076 73.4223 26.3043 73.983 26.4474 74.5436C26.7246 75.5938 26.6262 76.6351 26.0987 77.5873C25.5801 78.5396 24.1853 78.9579 23.327 78.4417C22.8621 78.1658 22.7101 77.8365 22.2899 77.7564C22.1557 77.7297 22.0485 77.8543 22.0842 77.9789C22.2541 78.6197 22.7101 78.6998 22.9247 79.4652C23.175 80.3729 23.3181 81.076 22.0216 82.2063C21.0292 83.0784 18.6151 82.9894 17.569 82.2063C16.5051 81.4053 16.3978 80.6666 16.6571 79.7588C16.8538 79.0469 17.265 78.7176 17.4617 78.1124C17.5243 77.9077 17.3276 77.7119 17.1309 77.792C16.8269 77.9166 16.6571 78.1925 16.2637 78.4328C15.4053 78.949 14.0105 78.5307 13.492 77.5784C12.9734 76.6262 12.8661 75.5849 13.1433 74.5347C13.2863 73.9741 13.483 73.4134 13.8317 72.9506C14.243 72.4077 15.146 72.0428 15.8255 72.1229C17.1577 72.2831 17.7478 72.9684 18.338 73.6003C18.9906 74.3033 19.1963 74.6504 19.5629 74.7038H20.0367V74.7127Z" fill="#0C0A35"/>
</svg>
