<svg width="58" height="88" viewBox="0 0 58 88" fill="none" xmlns="http://www.w3.org/2000/svg">
<path d="M53.0899 88H4.9101C2.20015 88 0 85.8096 0 83.1116V4.88839C0 2.19043 2.20015 0 4.9101 0H53.0899C55.7998 0 58 2.19043 58 4.88839V83.1116C58 85.8185 55.7998 88 53.0899 88Z" fill="white"/>
<path d="M7.3964 17.8796C7.46795 17.8796 7.53056 17.8618 7.58422 17.8262C8.01352 17.5412 9.11359 16.3837 9.43557 16.0631C9.49817 16.0008 9.56078 15.9296 9.55184 15.8405C9.5429 15.7693 9.48923 15.7159 9.44451 15.6713C8.9705 15.1994 8.4607 14.7453 8.00457 14.2467C7.80781 14.033 7.57528 13.7837 7.43218 13.7747H7.36063C7.21753 13.7837 6.98499 14.033 6.78823 14.2467C6.34104 14.7453 5.83125 15.1994 5.34829 15.6713C5.30357 15.7159 5.24991 15.7782 5.24097 15.8405C5.23203 15.9296 5.29463 16.0008 5.35724 16.0631C5.67921 16.3837 6.77928 17.5412 7.19964 17.8262C7.26224 17.8618 7.32485 17.8796 7.3964 17.8796Z" fill="#D6002B"/>
<path d="M50.6303 73.9047C50.7019 73.9047 50.7645 73.8869 50.8182 73.8513C51.2475 73.5663 52.3475 72.4177 52.6695 72.0882C52.7321 72.0259 52.7947 71.9547 52.7858 71.8656C52.7768 71.7944 52.7232 71.741 52.6785 71.6965C52.1955 71.2245 51.6947 70.7704 51.2475 70.2718C51.0507 70.0581 50.8182 69.8088 50.6751 69.7999H50.6035C50.4604 69.8088 50.2279 70.0581 50.0311 70.2718C49.5839 70.7704 49.0741 71.2245 48.6001 71.6965C48.5465 71.7499 48.5017 71.8033 48.4928 71.8656C48.4839 71.9547 48.5465 72.0259 48.6091 72.0882C48.931 72.4088 50.0311 73.5663 50.4515 73.8513C50.4962 73.8869 50.5588 73.9047 50.6303 73.9047Z" fill="#D6002B"/>
<path d="M5.96542 8.03163C4.92795 7.58642 4.40922 6.92751 4.40922 6.07271C4.40922 5.44942 4.66859 4.94188 5.17838 4.54119C5.69712 4.1405 6.37683 3.94461 7.22648 3.94461C8.06719 3.94461 8.72903 4.1405 9.22988 4.52338C9.72179 4.90626 9.97221 5.4049 9.97221 6.02819C9.97221 6.89189 9.44453 7.50628 8.38023 7.88026C9.23882 8.27204 9.77545 8.65492 9.9901 9.01999C10.2047 9.38506 10.321 9.75014 10.321 10.1241C10.321 10.7741 10.0438 11.3262 9.48031 11.7625C8.92579 12.1988 8.16558 12.4214 7.2086 12.4214C6.18902 12.4214 5.40197 12.1988 4.83851 11.7536C4.27506 11.3084 3.9978 10.7741 3.9978 10.1508C4.01569 9.23369 4.66859 8.53026 5.96542 8.03163ZM7.09233 8.46793C5.70606 8.79739 5.01739 9.36726 5.01739 10.1953C5.01739 10.6227 5.20521 10.9789 5.58084 11.2549C5.95648 11.531 6.51099 11.6645 7.25332 11.6645C7.87938 11.6645 8.38023 11.531 8.75587 11.2638C9.1315 10.9967 9.32826 10.6584 9.32826 10.2399C9.32826 9.43849 8.58594 8.85081 7.09233 8.46793ZM7.2086 7.52409C7.89727 7.3371 8.38022 7.13231 8.66642 6.89189C8.95262 6.65148 9.09573 6.35764 9.09573 6.00148C9.09573 5.58298 8.92579 5.26243 8.58593 5.04873C8.24607 4.83503 7.80783 4.71927 7.25332 4.71927C6.72564 4.71927 6.29634 4.83503 5.95648 5.06654C5.61662 5.29805 5.45563 5.60079 5.45563 5.99257C5.45563 6.37545 5.64345 6.70491 6.01908 6.98094C6.38578 7.25697 6.78825 7.44395 7.2086 7.52409Z" fill="#D6002B"/>
<path d="M51.7931 79.9684C52.8306 80.4136 53.3493 81.0726 53.3493 81.9274C53.3493 82.5507 53.0899 83.0582 52.5801 83.4589C52.0614 83.8596 51.3817 84.0555 50.532 84.0555C49.6913 84.0555 49.0295 83.8596 48.5286 83.4767C48.0367 83.0938 47.7863 82.5952 47.7863 81.9719C47.7863 81.1082 48.314 80.4938 49.3783 80.1198C48.5197 79.728 47.9831 79.3451 47.7684 78.9801C47.5538 78.615 47.4375 78.2499 47.4375 77.876C47.4375 77.2259 47.7148 76.6739 48.2782 76.2376C48.8327 75.8013 49.5929 75.5787 50.5499 75.5787C51.5695 75.5787 52.3565 75.8013 52.92 76.2465C53.4834 76.6917 53.7607 77.226 53.7607 77.8492C53.7428 78.7664 53.0899 79.4787 51.7931 79.9684ZM50.6662 79.541C52.0525 79.2116 52.7411 78.6417 52.7411 77.8136C52.7411 77.3862 52.5533 77.0301 52.1777 76.754C51.802 76.478 51.2475 76.3444 50.5052 76.3444C49.8791 76.3444 49.3783 76.478 49.0027 76.7451C48.627 77.0123 48.4302 77.3506 48.4302 77.7691C48.4302 78.5616 49.1726 79.1493 50.6662 79.541ZM50.5499 80.476C49.8612 80.663 49.3783 80.8678 49.0921 81.1082C48.8059 81.3486 48.6628 81.6424 48.6628 81.9986C48.6628 82.4171 48.8327 82.7376 49.1726 82.9513C49.5124 83.165 49.9507 83.2808 50.5052 83.2808C51.0329 83.2808 51.4622 83.165 51.802 82.9335C52.1419 82.702 52.3029 82.3993 52.3029 82.0075C52.3029 81.6246 52.1151 81.2952 51.7394 81.0191C51.3727 80.7431 50.9703 80.565 50.5499 80.476Z" fill="#D6002B"/>
<path d="M19.9445 18.5831C20.1681 18.5831 20.3827 18.5207 20.5705 18.3961C21.9747 17.47 25.5969 13.668 26.6523 12.5994C26.849 12.3947 27.0547 12.1453 27.0189 11.8693C26.9921 11.6467 26.8222 11.4597 26.6612 11.2994C25.0871 9.7323 23.4236 8.25421 21.9389 6.60694C21.295 5.8946 20.5437 5.07542 20.0697 5.04871H19.8282C19.3542 5.08432 18.594 5.8946 17.959 6.60694C16.4743 8.26311 14.8108 9.74121 13.2367 11.2994C13.0757 11.4597 12.9058 11.6378 12.8789 11.8693C12.8521 12.1453 13.0489 12.3947 13.2456 12.5994C14.301 13.668 17.9232 17.47 19.3274 18.3961C19.4973 18.5207 19.7209 18.5831 19.9445 18.5831Z" fill="#D6002B"/>
<path d="M38.0644 18.5831C38.288 18.5831 38.5026 18.5207 38.6904 18.3961C40.0946 17.47 43.7168 13.668 44.7722 12.5994C44.9689 12.3947 45.1746 12.1453 45.1388 11.8693C45.112 11.6467 44.9421 11.4597 44.7811 11.2994C43.207 9.7323 41.5435 8.25421 40.0588 6.60694C39.4149 5.8946 38.6636 5.07542 38.1896 5.04871H37.9481C37.4741 5.08432 36.7139 5.8946 36.0789 6.60694C34.5942 8.26311 32.9307 9.74121 31.3566 11.2994C31.1956 11.4597 31.0257 11.6378 30.9988 11.8693C30.9631 12.1453 31.1688 12.3947 31.3655 12.5994C32.4209 13.668 36.0431 17.47 37.4473 18.3961C37.6172 18.5207 37.8318 18.5831 38.0644 18.5831Z" fill="#D6002B"/>
<path d="M19.9445 50.7717C20.1681 50.7717 20.3827 50.7094 20.5705 50.5847C21.9747 49.6587 25.5969 45.8477 26.6523 44.7881C26.849 44.5833 27.0547 44.334 27.0189 44.0579C26.9921 43.8353 26.8222 43.6483 26.6612 43.4881C25.0871 41.9209 23.4236 40.4428 21.9389 38.7867C21.295 38.0743 20.5437 37.2551 20.0697 37.2284H19.8282C19.3542 37.2551 18.594 38.0743 17.959 38.7867C16.4743 40.4428 14.8108 41.9209 13.2367 43.4881C13.0757 43.6483 12.9058 43.8264 12.8789 44.0579C12.8521 44.3429 13.0489 44.5833 13.2456 44.7881C14.301 45.8566 17.9232 49.6587 19.3274 50.5847C19.4973 50.7094 19.7209 50.7717 19.9445 50.7717Z" fill="#D6002B"/>
<path d="M38.0644 50.7717C38.288 50.7717 38.5026 50.7094 38.6904 50.5847C40.0946 49.6587 43.7168 45.8477 44.7722 44.7881C44.9689 44.5833 45.1746 44.334 45.1388 44.0579C45.112 43.8353 44.9421 43.6483 44.7811 43.4881C43.207 41.9209 41.5435 40.4428 40.0588 38.7867C39.4149 38.0743 38.6636 37.2551 38.1896 37.2284H37.9481C37.4741 37.2551 36.7139 38.0743 36.0789 38.7867C34.5942 40.4428 32.9307 41.9209 31.3566 43.4881C31.1956 43.6483 31.0257 43.8264 30.9988 44.0579C30.9631 44.3429 31.1688 44.5833 31.3655 44.7881C32.4209 45.8566 36.0431 49.6587 37.4473 50.5847C37.6172 50.7094 37.8318 50.7717 38.0644 50.7717Z" fill="#D6002B"/>
<path d="M38.0556 69.4169C37.832 69.4169 37.6174 69.4793 37.4296 69.6039C36.0254 70.53 32.4032 74.332 31.3478 75.4005C31.1511 75.6053 30.9454 75.8547 30.9811 76.1307C31.008 76.3533 31.1779 76.5403 31.3389 76.7005C32.913 78.2677 34.5765 79.7458 36.0612 81.3931C36.7051 82.1054 37.4564 82.9246 37.9304 82.9513H38.1719C38.6459 82.9157 39.4061 82.1054 40.0411 81.3931C41.5258 79.7458 43.1893 78.2588 44.7634 76.7005C44.9244 76.5403 45.0943 76.3622 45.1211 76.1307C45.148 75.8457 44.9512 75.6053 44.7545 75.4005C43.6991 74.332 40.0769 70.53 38.6727 69.6039C38.5028 69.4793 38.2792 69.4169 38.0556 69.4169Z" fill="#D6002B"/>
<path d="M19.9356 69.4169C19.712 69.4169 19.4974 69.4793 19.3096 69.6039C17.9054 70.53 14.2832 74.332 13.2278 75.4005C13.0311 75.6053 12.8254 75.8547 12.8611 76.1307C12.888 76.3533 13.0579 76.5403 13.2189 76.7005C14.793 78.2677 16.4565 79.7458 17.9412 81.3931C18.5851 82.1054 19.3364 82.9246 19.8104 82.9513H20.0519C20.5259 82.9157 21.2861 82.1054 21.9211 81.3931C23.4058 79.7458 25.0693 78.2588 26.6434 76.7005C26.8044 76.5403 26.9743 76.3622 27.0012 76.1307C27.028 75.8457 26.8312 75.6053 26.6345 75.4005C25.5791 74.332 21.9569 70.53 20.5527 69.6039C20.3828 69.4793 20.1682 69.4169 19.9356 69.4169Z" fill="#D6002B"/>
<path d="M29.0044 34.3256C29.228 34.3256 29.4426 34.2633 29.6305 34.1386C31.0346 33.2126 34.6568 29.4105 35.7122 28.342C35.909 28.1372 36.1147 27.8879 36.0789 27.6118C36.052 27.3892 35.8821 27.2022 35.7211 27.042C34.147 25.4748 32.4835 23.9967 30.9988 22.3495C30.3549 21.6371 29.6036 20.8179 29.1296 20.7912H28.8881C28.4141 20.8268 27.6539 21.6371 27.0189 22.3495C25.5342 24.0056 23.8707 25.4837 22.2966 27.042C22.1356 27.2022 21.9657 27.3803 21.9389 27.6118C21.912 27.8968 22.1088 28.1372 22.3056 28.342C23.3609 29.4105 26.9831 33.2126 28.3873 34.1386C28.5572 34.2633 28.7719 34.3256 29.0044 34.3256Z" fill="#D6002B"/>
<path d="M29.0044 66.6833C29.228 66.6833 29.4426 66.621 29.6305 66.4964C31.0346 65.5703 34.6568 61.7682 35.7122 60.6997C35.909 60.4949 36.1147 60.2456 36.0789 59.9696C36.052 59.747 35.8821 59.56 35.7211 59.3997C34.147 57.8326 32.4835 56.3545 30.9988 54.7072C30.3549 53.9949 29.6036 53.1757 29.1296 53.149H28.8881C28.4141 53.1846 27.6539 53.9949 27.0189 54.7072C25.5342 56.3545 23.8707 57.8415 22.2966 59.3997C22.1356 59.56 21.9657 59.7381 21.9389 59.9696C21.912 60.2545 22.1088 60.4949 22.3056 60.6997C23.3609 61.7682 26.9831 65.5703 28.3873 66.4964C28.5572 66.621 28.7719 66.6833 29.0044 66.6833Z" fill="#D6002B"/>
</svg>
