<svg width="58" height="88" viewBox="0 0 58 88" fill="none" xmlns="http://www.w3.org/2000/svg">
<path d="M53.0899 88H4.9101C2.20015 88 0 85.8096 0 83.1116V4.88839C0 2.19043 2.20015 0 4.9101 0H53.0899C55.7998 0 58 2.19043 58 4.88839V83.1116C58 85.8185 55.7998 88 53.0899 88Z" fill="white"/>
<path d="M5.96542 8.0316C4.92795 7.58639 4.40922 6.92748 4.40922 6.07268C4.40922 5.44939 4.66859 4.94185 5.17838 4.54116C5.69712 4.14047 6.37683 3.94458 7.22648 3.94458C8.06719 3.94458 8.72903 4.14047 9.22988 4.52335C9.72179 4.90623 9.97221 5.40487 9.97221 6.02816C9.97221 6.89186 9.44453 7.50625 8.38023 7.88023C9.23882 8.27201 9.77545 8.65489 9.9901 9.01996C10.2047 9.38503 10.321 9.7501 10.321 10.1241C10.321 10.7741 10.0438 11.3261 9.48031 11.7625C8.92579 12.1988 8.16558 12.4214 7.2086 12.4214C6.18902 12.4214 5.40197 12.1988 4.83851 11.7535C4.27506 11.3083 3.9978 10.7741 3.9978 10.1508C4.01569 9.23366 4.66859 8.53023 5.96542 8.0316ZM7.09233 8.4679C5.70606 8.79736 5.01739 9.36723 5.01739 10.1953C5.01739 10.6227 5.20521 10.9789 5.58084 11.2549C5.95648 11.5309 6.51099 11.6645 7.25332 11.6645C7.87938 11.6645 8.38023 11.5309 8.75587 11.2638C9.1315 10.9967 9.32826 10.6583 9.32826 10.2398C9.32826 9.43846 8.58594 8.85078 7.09233 8.4679ZM7.2086 7.52406C7.89727 7.33707 8.38022 7.13228 8.66642 6.89186C8.95262 6.65145 9.09573 6.35761 9.09573 6.00145C9.09573 5.58295 8.92579 5.2624 8.58593 5.0487C8.24607 4.835 7.80783 4.71924 7.25332 4.71924C6.72564 4.71924 6.29634 4.835 5.95648 5.06651C5.61662 5.29802 5.45563 5.60076 5.45563 5.99254C5.45563 6.37542 5.64345 6.70488 6.01908 6.98091C6.38578 7.25694 6.78825 7.44392 7.2086 7.52406Z" fill="#D6002B"/>
<path d="M51.7931 79.9684C52.8306 80.4136 53.3493 81.0726 53.3493 81.9274C53.3493 82.5507 53.0899 83.0582 52.5801 83.4589C52.0614 83.8596 51.3817 84.0555 50.532 84.0555C49.6913 84.0555 49.0295 83.8596 48.5286 83.4767C48.0367 83.0938 47.7863 82.5952 47.7863 81.9719C47.7863 81.1082 48.314 80.4938 49.3783 80.1198C48.5197 79.728 47.9831 79.3451 47.7684 78.9801C47.5538 78.615 47.4375 78.2499 47.4375 77.876C47.4375 77.2259 47.7148 76.6739 48.2782 76.2376C48.8327 75.8013 49.5929 75.5787 50.5499 75.5787C51.5695 75.5787 52.3565 75.8013 52.92 76.2465C53.4834 76.6917 53.7607 77.226 53.7607 77.8492C53.7428 78.7664 53.0899 79.4787 51.7931 79.9684ZM50.6662 79.541C52.0525 79.2116 52.7411 78.6417 52.7411 77.8136C52.7411 77.3862 52.5533 77.0301 52.1777 76.754C51.802 76.478 51.2475 76.3444 50.5052 76.3444C49.8791 76.3444 49.3783 76.478 49.0027 76.7451C48.627 77.0123 48.4302 77.3506 48.4302 77.7691C48.4302 78.5616 49.1726 79.1493 50.6662 79.541ZM50.5499 80.476C49.8612 80.663 49.3783 80.8678 49.0921 81.1082C48.8059 81.3486 48.6628 81.6424 48.6628 81.9986C48.6628 82.4171 48.8327 82.7376 49.1726 82.9513C49.5124 83.165 49.9507 83.2808 50.5052 83.2808C51.0329 83.2808 51.4622 83.165 51.802 82.9335C52.1419 82.702 52.3029 82.3993 52.3029 82.0075C52.3029 81.6246 52.1151 81.2952 51.7394 81.0191C51.3727 80.7431 50.9703 80.565 50.5499 80.476Z" fill="#D6002B"/>
<path d="M18.2877 72.8217C17.6442 73.4031 16.9228 73.8489 16.2404 74.3528C15.48 74.9148 14.6611 75.4187 14.0566 76.1357C13.5497 76.7365 13.3157 77.3179 13.0622 78.0543C12.8088 78.7907 12.7893 80.3605 13.1987 81.0194C14.3881 82.9187 17.7027 84.566 19.9059 80.3993C19.9449 80.3412 20.0034 80.3024 20.0619 80.3024C20.1204 80.3024 20.1789 80.3412 20.2179 80.3993C22.4016 84.566 25.7357 82.9187 26.9251 81.0194C27.3345 80.3605 27.3151 78.7907 27.0616 78.0543C26.8081 77.3179 26.5741 76.7365 26.0672 76.1357C25.4628 75.4187 24.6439 74.9148 23.8835 74.3528C23.1816 73.8295 22.4796 73.3837 21.8362 72.8217C21.5047 72.531 20.0814 71 20.0814 71C20.0814 71 18.5996 72.531 18.2877 72.8217Z" fill="#D6002B"/>
<path d="M36.6516 72.8217C36.0081 73.4031 35.2867 73.8489 34.6043 74.3528C33.8439 74.9148 33.025 75.4187 32.4205 76.1357C31.9136 76.7365 31.6796 77.3179 31.4261 78.0543C31.1727 78.7907 31.1532 80.3605 31.5626 81.0194C32.752 82.9187 36.0666 84.566 38.2698 80.3993C38.3088 80.3412 38.3673 80.3024 38.4258 80.3024C38.4843 80.3024 38.5428 80.3412 38.5818 80.3993C40.7655 84.566 44.0996 82.9187 45.289 81.0194C45.6984 80.3605 45.679 78.7907 45.4255 78.0543C45.172 77.3179 44.938 76.7365 44.4311 76.1357C43.8267 75.4187 43.0078 74.9148 42.2474 74.3528C41.5455 73.8295 40.8435 73.3837 40.2001 72.8217C39.8686 72.531 38.4453 71 38.4453 71C38.4453 71 36.9635 72.531 36.6516 72.8217Z" fill="#D6002B"/>
<path d="M8.20447 17.7781C8.4433 17.5623 8.7111 17.3968 8.96441 17.2098C9.24666 17.0012 9.55063 16.8141 9.77498 16.548C9.96315 16.325 10.05 16.1092 10.1441 15.8358C10.2382 15.5624 10.2454 14.9797 10.0934 14.7352C9.65195 14.0302 8.4216 13.4187 7.60378 14.9654C7.58931 14.9869 7.56761 15.0013 7.54589 15.0013C7.52418 15.0013 7.50246 14.9869 7.48798 14.9654C6.6774 13.4187 5.43982 14.0302 4.99834 14.7352C4.84636 14.9797 4.85359 15.5624 4.94767 15.8358C5.04176 16.1092 5.12861 16.325 5.31678 16.548C5.54114 16.8141 5.84511 17.0012 6.12736 17.2098C6.38791 17.404 6.64846 17.5695 6.88729 17.7781C7.01033 17.886 7.53865 18.4543 7.53865 18.4543C7.53865 18.4543 8.08868 17.886 8.20447 17.7781Z" fill="#D6002B"/>
<path d="M49.8874 69.6761C49.6486 69.892 49.3808 70.0574 49.1275 70.2445C48.8453 70.4531 48.5413 70.6401 48.3169 70.9063C48.1288 71.1293 48.0419 71.3451 47.9478 71.6184C47.8537 71.8918 47.8465 72.4745 47.9985 72.7191C48.44 73.424 49.6703 74.0355 50.4881 72.4889C50.5026 72.4673 50.5243 72.4529 50.546 72.4529C50.5677 72.4529 50.5895 72.4673 50.6039 72.4889C51.4145 74.0355 52.6521 73.424 53.0936 72.7191C53.2456 72.4745 53.2383 71.8918 53.1442 71.6184C53.0502 71.3451 52.9633 71.1293 52.7751 70.9063C52.5508 70.6401 52.2468 70.4531 51.9646 70.2445C51.704 70.0502 51.4435 69.8848 51.2046 69.6761C51.0816 69.5682 50.5533 68.9999 50.5533 68.9999C50.5533 68.9999 50.0032 69.5682 49.8874 69.6761Z" fill="#D6002B"/>
<path d="M40.2001 48.1783C40.8436 47.5969 41.565 47.1511 42.2474 46.6472C43.0078 46.0852 43.8267 45.5813 44.4311 44.8643C44.9381 44.2635 45.1721 43.6821 45.4255 42.9457C45.679 42.2093 45.6985 40.6395 45.289 39.9806C44.0997 38.0813 40.7851 36.434 38.5819 40.6007C38.5429 40.6588 38.4844 40.6976 38.4259 40.6976C38.3674 40.6976 38.3089 40.6588 38.2699 40.6007C36.0861 36.434 32.752 38.0813 31.5627 39.9806C31.1532 40.6395 31.1727 42.2093 31.4262 42.9457C31.6797 43.6821 31.9137 44.2635 32.4206 44.8643C33.025 45.5813 33.8439 46.0852 34.6043 46.6472C35.3062 47.1705 36.0082 47.6163 36.6516 48.1783C36.9831 48.469 38.4064 50 38.4064 50C38.4064 50 39.8882 48.469 40.2001 48.1783Z" fill="#D6002B"/>
<path d="M31.8362 32.1783C32.4797 31.5969 33.2011 31.1511 33.8835 30.6472C34.6439 30.0852 35.4628 29.5813 36.0673 28.8643C36.5742 28.2635 36.8082 27.6821 37.0617 26.9457C37.3151 26.2093 37.3346 24.6395 36.9252 23.9806C35.7358 22.0813 32.4212 20.434 30.218 24.6007C30.179 24.6588 30.1205 24.6976 30.062 24.6976C30.0035 24.6976 29.945 24.6588 29.906 24.6007C27.7223 20.434 24.3882 22.0813 23.1988 23.9806C22.7894 24.6395 22.8088 26.2093 23.0623 26.9457C23.3158 27.6821 23.5498 28.2635 24.0567 28.8643C24.6611 29.5813 25.48 30.0852 26.2404 30.6472C26.9423 31.1705 27.6443 31.6163 28.2877 32.1783C28.6192 32.469 30.0425 34 30.0425 34C30.0425 34 31.5243 32.469 31.8362 32.1783Z" fill="#D6002B"/>
<path d="M28.2877 55.8217C27.6442 56.4031 26.9228 56.8489 26.2404 57.3528C25.48 57.9148 24.6611 58.4187 24.0566 59.1357C23.5497 59.7365 23.3157 60.3179 23.0622 61.0543C22.8088 61.7907 22.7893 63.3605 23.1987 64.0194C24.3881 65.9187 27.7027 67.566 29.9059 63.3993C29.9449 63.3412 30.0034 63.3024 30.0619 63.3024C30.1204 63.3024 30.1789 63.3412 30.2179 63.3993C32.4016 67.566 35.7357 65.9187 36.9251 64.0194C37.3345 63.3605 37.3151 61.7907 37.0616 61.0543C36.8081 60.3179 36.5741 59.7365 36.0672 59.1357C35.4628 58.4187 34.6439 57.9148 33.8835 57.3528C33.1816 56.8295 32.4796 56.3837 31.8362 55.8217C31.5047 55.531 30.0814 54 30.0814 54C30.0814 54 28.5996 55.531 28.2877 55.8217Z" fill="#D6002B"/>
<path d="M21.8362 48.1783C22.4797 47.5969 23.2011 47.1511 23.8835 46.6472C24.6439 46.0852 25.4628 45.5813 26.0673 44.8643C26.5742 44.2635 26.8082 43.6821 27.0617 42.9457C27.3151 42.2093 27.3346 40.6395 26.9252 39.9806C25.7358 38.0813 22.4212 36.434 20.218 40.6007C20.179 40.6588 20.1205 40.6976 20.062 40.6976C20.0035 40.6976 19.945 40.6588 19.906 40.6007C17.7223 36.434 14.3882 38.0813 13.1988 39.9806C12.7894 40.6395 12.8088 42.2093 13.0623 42.9457C13.3158 43.6821 13.5498 44.2635 14.0567 44.8643C14.6611 45.5813 15.48 46.0852 16.2404 46.6472C16.9423 47.1705 17.6443 47.6163 18.2877 48.1783C18.6192 48.469 20.0425 50 20.0425 50C20.0425 50 21.5243 48.469 21.8362 48.1783Z" fill="#D6002B"/>
<path d="M40.2001 15.1783C40.8436 14.5969 41.565 14.1511 42.2474 13.6472C43.0078 13.0852 43.8267 12.5813 44.4311 11.8643C44.9381 11.2635 45.1721 10.6821 45.4255 9.94569C45.679 9.20925 45.6985 7.63948 45.289 6.98056C44.0997 5.08132 40.7851 3.43401 38.5819 7.6007C38.5429 7.65884 38.4844 7.69761 38.4259 7.69761C38.3674 7.69761 38.3089 7.65884 38.2699 7.6007C36.0861 3.43401 32.752 5.08132 31.5627 6.98056C31.1532 7.63948 31.1727 9.20925 31.4262 9.94569C31.6797 10.6821 31.9137 11.2635 32.4206 11.8643C33.025 12.5813 33.8439 13.0852 34.6043 13.6472C35.3062 14.1705 36.0082 14.6163 36.6516 15.1783C36.9831 15.469 38.4064 17 38.4064 17C38.4064 17 39.8882 15.469 40.2001 15.1783Z" fill="#D6002B"/>
<path d="M21.8362 15.1783C22.4797 14.5969 23.2011 14.1511 23.8835 13.6472C24.6439 13.0852 25.4628 12.5813 26.0673 11.8643C26.5742 11.2635 26.8082 10.6821 27.0617 9.94569C27.3151 9.20925 27.3346 7.63948 26.9252 6.98056C25.7358 5.08132 22.4212 3.43401 20.218 7.6007C20.179 7.65884 20.1205 7.69761 20.062 7.69761C20.0035 7.69761 19.945 7.65884 19.906 7.6007C17.7223 3.43401 14.3882 5.08132 13.1988 6.98056C12.7894 7.63948 12.8088 9.20925 13.0623 9.94569C13.3158 10.6821 13.5498 11.2635 14.0567 11.8643C14.6611 12.5813 15.48 13.0852 16.2404 13.6472C16.9423 14.1705 17.6443 14.6163 18.2877 15.1783C18.6192 15.469 20.0425 17 20.0425 17C20.0425 17 21.5243 15.469 21.8362 15.1783Z" fill="#D6002B"/>
</svg>
