<svg width="58" height="88" viewBox="0 0 58 88" fill="none" xmlns="http://www.w3.org/2000/svg">
<path d="M53.0874 88H4.91265C2.20254 88 0 85.8072 0 83.1091V4.89089C0 2.19278 2.20254 0 4.91265 0H53.0874C55.7975 0 58 2.18376 58 4.89089V83.1091C57.9909 85.8072 55.7975 88 53.0874 88Z" fill="white"/>
<path d="M50.3046 71.6398C50.3046 71.4955 50.359 71.2879 50.359 71.1435C50.359 70.9992 50.359 70.8458 50.3408 70.7014C50.2865 70.196 50.1052 69.7178 49.7245 69.3839C50.0689 69.3658 50.9209 69.3658 51.2654 69.3839C50.8847 69.7178 50.7034 70.196 50.649 70.7014C50.6309 70.8458 50.6309 70.9992 50.6309 71.1435C50.6309 71.2879 50.6853 71.4955 50.6853 71.6398H50.3046Z" fill="#0C0A35"/>
<path d="M50.4316 71.0894C50.1325 70.6292 49.5977 70.3043 49.0358 70.3224C48.4829 70.3404 47.939 70.7465 47.8303 71.2879C47.7396 71.7662 47.9662 72.2535 48.3016 72.6054C48.6369 72.9573 49.0901 73.1919 49.498 73.4626C49.915 73.7334 50.4951 74.4101 50.4951 74.4101C50.4951 74.4101 51.1295 73.7514 51.4921 73.4717C51.8818 73.1739 52.3622 72.9573 52.6885 72.5964C53.0239 72.2444 53.2505 71.7481 53.1598 71.2789C53.0511 70.7375 52.5163 70.3404 51.9543 70.3133C51.4014 70.2953 50.8667 70.6201 50.5585 71.0804H50.4316V71.0894Z" fill="#0C0A35"/>
<path d="M7.49593 15.9631C7.49593 16.1075 7.44155 16.315 7.44155 16.4594C7.44155 16.6038 7.44154 16.7572 7.45967 16.9015C7.51406 17.3979 7.69533 17.8851 8.07602 18.219C7.73159 18.2371 6.87959 18.2371 6.53516 18.219C6.91584 17.8851 7.09712 17.4069 7.1515 16.9015C7.16963 16.7572 7.16963 16.6038 7.16963 16.4594C7.16963 16.315 7.11525 16.1075 7.11525 15.9631H7.49593Z" fill="#0C0A35"/>
<path d="M7.36905 16.5135C7.66815 16.9737 8.20293 17.2986 8.76489 17.2806C9.31779 17.2625 9.86162 16.8564 9.97039 16.315C10.061 15.8368 9.83443 15.3495 9.49906 14.9975C9.1637 14.6456 8.7105 14.411 8.30263 14.1403C7.88569 13.8696 7.3056 13.1928 7.3056 13.1928C7.3056 13.1928 6.67113 13.8515 6.30857 14.1313C5.91882 14.429 5.43843 14.6456 5.11213 15.0066C4.77677 15.3585 4.55017 15.8548 4.64081 16.324C4.74957 16.8655 5.28434 17.2625 5.84631 17.2896C6.39921 17.3076 6.93398 16.9828 7.23309 16.5226H7.36905V16.5135Z" fill="#0C0A35"/>
<path d="M5.96406 8.03117C4.93078 7.57998 4.41413 6.93026 4.41413 6.073C4.41413 5.45036 4.66792 4.94503 5.18457 4.53896C5.70121 4.14191 6.381 3.94339 7.23301 3.94339C8.07596 3.94339 8.73762 4.13289 9.23614 4.52091C9.73465 4.89991 9.97938 5.40524 9.97938 6.02789C9.97938 6.89417 9.45367 7.50779 8.39319 7.88679C9.2452 8.28383 9.78903 8.66283 10.0066 9.03281C10.2241 9.40278 10.3329 9.76373 10.3329 10.1337C10.3329 10.7834 10.0519 11.3339 9.49899 11.776C8.94609 12.2182 8.18472 12.4348 7.23301 12.4348C6.21785 12.4348 5.42023 12.2092 4.86733 11.758C4.30537 11.3068 4.02439 10.7744 4.02439 10.1608C4.01532 9.23133 4.66792 8.52748 5.96406 8.03117ZM7.08799 8.46431C5.70121 8.78917 5.01236 9.36669 5.01236 10.1879C5.01236 10.621 5.20269 10.9729 5.57431 11.2436C5.955 11.5143 6.5079 11.6497 7.24208 11.6497C7.86749 11.6497 8.366 11.5144 8.74668 11.2527C9.12737 10.9819 9.31772 10.6481 9.31772 10.233C9.32678 9.43888 8.58353 8.85233 7.08799 8.46431ZM7.20582 7.52583C7.89468 7.34536 8.37507 7.12879 8.66511 6.89417C8.94609 6.65955 9.09112 6.36177 9.09112 6.00081C9.09112 5.58572 8.9189 5.26989 8.58353 5.04429C8.24817 4.82772 7.80404 4.71944 7.25114 4.71944C6.72543 4.71944 6.29036 4.83675 5.955 5.06234C5.61963 5.28793 5.44742 5.59474 5.44742 5.98277C5.44742 6.36177 5.63776 6.69565 6.00939 6.97538C6.38101 7.25512 6.77982 7.4356 7.20582 7.52583Z" fill="#0C0A35"/>
<path d="M51.7823 79.9688C52.8155 80.42 53.3322 81.0697 53.3322 81.927C53.3322 82.5496 53.0784 83.0549 52.5617 83.461C52.0451 83.8581 51.3653 84.0566 50.5133 84.0566C49.6704 84.0566 49.0087 83.8671 48.5102 83.4791C48.0117 83.091 47.7669 82.5947 47.7669 81.9721C47.7669 81.1058 48.2927 80.4922 49.3531 80.1222C48.5011 79.7252 47.9573 79.3462 47.7398 78.9762C47.5222 78.6062 47.4135 78.2453 47.4135 77.8753C47.4135 77.2256 47.6944 76.6751 48.2473 76.233C48.8002 75.7908 49.5616 75.5742 50.5133 75.5742C51.5285 75.5742 52.3261 75.7998 52.879 76.251C53.4319 76.7022 53.7219 77.2346 53.7219 77.8482C53.731 78.7686 53.0875 79.4725 51.7823 79.9688ZM50.6583 79.5357C52.0451 79.2108 52.734 78.6333 52.734 77.8121C52.734 77.379 52.5436 77.027 52.172 76.7563C51.7913 76.4856 51.2384 76.3503 50.5042 76.3503C49.8788 76.3503 49.3803 76.4856 48.9996 76.7473C48.619 77.018 48.4286 77.3519 48.4286 77.767C48.4195 78.5611 49.1719 79.1476 50.6583 79.5357ZM50.5496 80.4741C49.8607 80.6546 49.3803 80.8712 49.0903 81.1058C48.8093 81.3404 48.6643 81.6472 48.6643 81.9992C48.6643 82.4143 48.8365 82.7301 49.1718 82.9467C49.5072 83.1632 49.9513 83.2715 50.5042 83.2715C51.03 83.2715 51.465 83.1542 51.8004 82.9286C52.1357 82.703 52.308 82.3962 52.308 82.0082C52.308 81.6292 52.1176 81.2953 51.746 81.0156C51.3653 80.7448 50.9665 80.5644 50.5496 80.4741Z" fill="#0C0A35"/>
<path d="M20.6476 11.4693C20.6476 11.8392 20.5026 12.3536 20.5026 12.7236C20.5026 13.0936 20.5026 13.4635 20.5479 13.8335C20.6839 15.0878 21.1371 16.288 22.0888 17.1272C21.2368 17.1813 19.0795 17.1813 18.2275 17.1272C19.1702 16.288 19.6234 15.0878 19.7684 13.8335C19.8047 13.4635 19.8137 13.0936 19.8137 12.7236C19.8137 12.3536 19.6687 11.8392 19.6687 11.4693H20.6476Z" fill="#0C0A35"/>
<path d="M20.3304 12.8499C21.0918 14.0049 22.4242 14.8171 23.8109 14.772C25.1977 14.7268 26.5482 13.7162 26.8202 12.3626C27.0558 11.1715 26.4757 9.94423 25.6418 9.05088C24.808 8.15752 23.6659 7.57098 22.6508 6.90322C21.6084 6.21741 20.1491 4.52094 20.1491 4.52094C20.1491 4.52094 18.5539 6.18131 17.6565 6.8581C16.6867 7.59805 15.4812 8.15752 14.6564 9.05088C13.8225 9.94423 13.2424 11.1715 13.4781 12.3626C13.75 13.7162 15.1005 14.7268 16.4873 14.772C17.8741 14.8171 19.2155 14.0049 19.9678 12.8499H20.3304Z" fill="#0C0A35"/>
<path d="M38.3404 11.4693C38.3404 11.8392 38.1953 12.3536 38.1953 12.7236C38.1953 13.0936 38.1953 13.4635 38.2406 13.8335C38.3766 15.0878 38.8298 16.288 39.7815 17.1272C38.9295 17.1813 36.7723 17.1813 35.9203 17.1272C36.8629 16.288 37.3161 15.0878 37.4612 13.8335C37.4974 13.4635 37.5065 13.0936 37.5065 12.7236C37.5065 12.3536 37.3614 11.8392 37.3614 11.4693H38.3404Z" fill="#0C0A35"/>
<path d="M38.0231 12.8499C38.7845 14.0049 40.1169 14.8171 41.5037 14.772C42.8905 14.7268 44.241 13.7162 44.5129 12.3626C44.7486 11.1715 44.1685 9.94423 43.3346 9.05088C42.5007 8.15752 41.3587 7.57098 40.3435 6.90322C39.3011 6.21741 37.8419 4.52094 37.8419 4.52094C37.8419 4.52094 36.2466 6.18131 35.3493 6.8581C34.3794 7.59805 33.1739 8.15752 32.3491 9.05088C31.5152 9.94423 30.9352 11.1715 31.1708 12.3626C31.4427 13.7162 32.7933 14.7268 34.18 14.772C35.5668 14.8171 36.9083 14.0049 37.6606 12.8499H38.0231Z" fill="#0C0A35"/>
<path d="M20.6476 44.6226C20.6476 44.9926 20.5026 45.5069 20.5026 45.8769C20.5026 46.2469 20.5026 46.6168 20.5479 46.9868C20.6839 48.2411 21.1371 49.4413 22.0888 50.2805C21.2368 50.3256 19.0795 50.3256 18.2275 50.2805C19.1702 49.4413 19.6234 48.2411 19.7684 46.9868C19.8047 46.6168 19.8137 46.2469 19.8137 45.8769C19.8137 45.5069 19.6687 44.9926 19.6687 44.6226H20.6476Z" fill="#0C0A35"/>
<path d="M20.3304 46.0123C21.0918 47.1674 22.4242 47.9795 23.8109 47.9344C25.1977 47.8893 26.5482 46.8786 26.8202 45.525C27.0558 44.3339 26.4757 43.1066 25.6418 42.2133C24.808 41.3199 23.6659 40.7334 22.6508 40.0656C21.6084 39.3798 20.1491 37.6833 20.1491 37.6833C20.1491 37.6833 18.5539 39.3437 17.6565 40.0205C16.6867 40.7605 15.4812 41.3199 14.6564 42.2133C13.8225 43.1066 13.2424 44.3339 13.4781 45.525C13.75 46.8786 15.1005 47.8893 16.4873 47.9344C17.8741 47.9795 19.2155 47.1674 19.9678 46.0123H20.3304Z" fill="#0C0A35"/>
<path d="M38.3404 44.6226C38.3404 44.9926 38.1953 45.5069 38.1953 45.8769C38.1953 46.2469 38.1953 46.6168 38.2406 46.9868C38.3766 48.2411 38.8298 49.4413 39.7815 50.2805C38.9295 50.3256 36.7723 50.3256 35.9203 50.2805C36.8629 49.4413 37.3161 48.2411 37.4612 46.9868C37.4974 46.6168 37.5065 46.2469 37.5065 45.8769C37.5065 45.5069 37.3614 44.9926 37.3614 44.6226H38.3404Z" fill="#0C0A35"/>
<path d="M38.0231 46.0123C38.7845 47.1674 40.1169 47.9795 41.5037 47.9344C42.8905 47.8893 44.241 46.8786 44.5129 45.525C44.7486 44.3339 44.1685 43.1066 43.3346 42.2133C42.5007 41.3199 41.3587 40.7334 40.3435 40.0656C39.3011 39.3798 37.8419 37.6833 37.8419 37.6833C37.8419 37.6833 36.2466 39.3437 35.3493 40.0205C34.3794 40.7605 33.1739 41.3199 32.3491 42.2133C31.5152 43.1066 30.9352 44.3339 31.1708 45.525C31.4427 46.8786 32.7933 47.8893 34.18 47.9344C35.5668 47.9795 36.9083 47.1674 37.6606 46.0123H38.0231Z" fill="#0C0A35"/>
<path d="M37.3433 76.5307C37.3433 76.1608 37.4883 75.6464 37.4883 75.2764C37.4883 74.9065 37.4883 74.5365 37.443 74.1665C37.307 72.9122 36.8538 71.712 35.9021 70.8728C36.7541 70.8187 38.9023 70.8187 39.7633 70.8728C38.8207 71.712 38.3675 72.9122 38.2225 74.1665C38.1862 74.5365 38.1771 74.9065 38.1771 75.2764C38.1771 75.6464 38.3222 76.1608 38.3222 76.5307H37.3433Z" fill="#0C0A35"/>
<path d="M37.6606 75.15C36.8992 73.9949 35.5668 73.1828 34.18 73.2279C32.7933 73.273 31.4427 74.2837 31.1708 75.6373C30.9352 76.8284 31.5152 78.0557 32.3491 78.949C33.183 79.8424 34.3251 80.4289 35.3402 81.0967C36.3826 81.7825 37.8419 83.479 37.8419 83.479C37.8419 83.479 39.4371 81.8186 40.3344 81.1418C41.3043 80.4018 42.5098 79.8424 43.3346 78.949C44.1685 78.0557 44.7486 76.8284 44.5129 75.6373C44.241 74.2837 42.8905 73.273 41.5037 73.2279C40.1169 73.1828 38.7754 73.9949 38.0231 75.15H37.6606Z" fill="#0C0A35"/>
<path d="M19.6505 76.5307C19.6505 76.1608 19.7955 75.6464 19.7955 75.2764C19.7955 74.9065 19.7955 74.5365 19.7502 74.1665C19.6143 72.9122 19.1611 71.712 18.2094 70.8728C19.0614 70.8187 21.2186 70.8187 22.0706 70.8728C21.1279 71.712 20.6747 72.9122 20.5297 74.1665C20.4935 74.5365 20.4844 74.9065 20.4844 75.2764C20.4844 75.6464 20.6294 76.1608 20.6294 76.5307H19.6505Z" fill="#0C0A35"/>
<path d="M19.9678 75.15C19.2065 73.9949 17.8741 73.1828 16.4873 73.2279C15.1005 73.273 13.75 74.2837 13.4781 75.6373C13.2424 76.8284 13.8225 78.0557 14.6564 78.949C15.4903 79.8424 16.6323 80.4289 17.6475 81.0967C18.6898 81.7825 20.1491 83.479 20.1491 83.479C20.1491 83.479 21.7444 81.8186 22.6417 81.1418C23.6115 80.4018 24.817 79.8424 25.6418 78.949C26.4757 78.0557 27.0558 76.8284 26.8202 75.6373C26.5482 74.2837 25.1977 73.273 23.8109 73.2279C22.4242 73.1828 21.0827 73.9949 20.3304 75.15H19.9678Z" fill="#0C0A35"/>
<path d="M29.494 28.3166C29.494 28.6866 29.349 29.201 29.349 29.5709C29.349 29.9409 29.349 30.3109 29.3943 30.6809C29.5303 31.9352 29.9835 33.1353 30.9352 33.9745C30.0832 34.0287 27.926 34.0287 27.074 33.9745C28.0166 33.1353 28.4698 31.9352 28.6148 30.6809C28.6511 30.3109 28.6602 29.9409 28.6602 29.5709C28.6602 29.201 28.5151 28.6866 28.5151 28.3166H29.494Z" fill="#0C0A35"/>
<path d="M29.1767 29.6973C29.9381 30.8524 31.2705 31.6645 32.6572 31.6194C34.044 31.5743 35.3945 30.5636 35.6665 29.2101C35.9021 28.0189 35.322 26.7917 34.4882 25.8983C33.6543 25.005 32.5122 24.4184 31.4971 23.7507C30.4547 23.0648 28.9954 21.3684 28.9954 21.3684C28.9954 21.3684 27.4002 23.0288 26.5028 23.7055C25.533 24.4455 24.3275 25.005 23.5027 25.8983C22.6688 26.7917 22.0887 28.0189 22.3244 29.2101C22.5963 30.5636 23.9468 31.5743 25.3336 31.6194C26.7204 31.6645 28.0618 30.8524 28.8141 29.6973H29.1767Z" fill="#0C0A35"/>
<path d="M28.4969 60.6128C28.4969 60.2428 28.642 59.7284 28.642 59.3585C28.642 58.9885 28.642 58.6185 28.5966 58.2485C28.4607 56.9942 28.0075 55.7941 27.0558 54.9549C27.9078 54.9007 30.065 54.9007 30.917 54.9549C29.9744 55.7941 29.5212 56.9942 29.3761 58.2485C29.3399 58.6185 29.3308 58.9885 29.3308 59.3585C29.3308 59.7284 29.4759 60.2428 29.4759 60.6128H28.4969Z" fill="#0C0A35"/>
<path d="M28.8141 59.232C28.0528 58.077 26.7204 57.2648 25.3336 57.31C23.9468 57.3551 22.5963 58.3657 22.3244 59.7193C22.0887 60.9105 22.6688 62.1377 23.5027 63.031C24.3366 63.9244 25.4786 64.5109 26.4938 65.1787C27.5361 65.8645 28.9954 67.561 28.9954 67.561C28.9954 67.561 30.5907 65.9006 31.488 65.2238C32.4578 64.4839 33.6633 63.9244 34.4882 63.031C35.322 62.1377 35.9021 60.9105 35.6665 59.7193C35.3945 58.3657 34.044 57.3551 32.6572 57.31C31.2705 57.2648 29.929 58.077 29.1767 59.232H28.8141Z" fill="#0C0A35"/>
<path d="M20.6476 11.4693C20.6476 11.8392 20.5026 12.3536 20.5026 12.7236C20.5026 13.0936 20.5026 13.4635 20.5479 13.8335C20.6839 15.0878 21.1371 16.288 22.0888 17.1272C21.2368 17.1813 19.0795 17.1813 18.2275 17.1272C19.1702 16.288 19.6234 15.0878 19.7684 13.8335C19.8047 13.4635 19.8137 13.0936 19.8137 12.7236C19.8137 12.3536 19.6687 11.8392 19.6687 11.4693H20.6476Z" fill="#0C0A35"/>
<path d="M20.3304 12.8499C21.0918 14.0049 22.4242 14.8171 23.8109 14.772C25.1977 14.7268 26.5482 13.7162 26.8202 12.3626C27.0558 11.1715 26.4757 9.94423 25.6418 9.05088C24.808 8.15752 23.6659 7.57098 22.6508 6.90322C21.6084 6.21741 20.1491 4.52094 20.1491 4.52094C20.1491 4.52094 18.5539 6.18131 17.6565 6.8581C16.6867 7.59805 15.4812 8.15752 14.6564 9.05088C13.8225 9.94423 13.2424 11.1715 13.4781 12.3626C13.75 13.7162 15.1005 14.7268 16.4873 14.772C17.8741 14.8171 19.2155 14.0049 19.9678 12.8499H20.3304Z" fill="#0C0A35"/>
<path d="M38.3404 11.4693C38.3404 11.8392 38.1953 12.3536 38.1953 12.7236C38.1953 13.0936 38.1953 13.4635 38.2406 13.8335C38.3766 15.0878 38.8298 16.288 39.7815 17.1272C38.9295 17.1813 36.7723 17.1813 35.9203 17.1272C36.8629 16.288 37.3161 15.0878 37.4612 13.8335C37.4974 13.4635 37.5065 13.0936 37.5065 12.7236C37.5065 12.3536 37.3614 11.8392 37.3614 11.4693H38.3404Z" fill="#0C0A35"/>
<path d="M38.0231 12.8499C38.7845 14.0049 40.1169 14.8171 41.5037 14.772C42.8905 14.7268 44.241 13.7162 44.5129 12.3626C44.7486 11.1715 44.1685 9.94423 43.3346 9.05088C42.5007 8.15752 41.3587 7.57098 40.3435 6.90322C39.3011 6.21741 37.8419 4.52094 37.8419 4.52094C37.8419 4.52094 36.2466 6.18131 35.3493 6.8581C34.3794 7.59805 33.1739 8.15752 32.3491 9.05088C31.5152 9.94423 30.9352 11.1715 31.1708 12.3626C31.4427 13.7162 32.7933 14.7268 34.18 14.772C35.5668 14.8171 36.9083 14.0049 37.6606 12.8499H38.0231Z" fill="#0C0A35"/>
<path d="M20.6476 44.6226C20.6476 44.9926 20.5026 45.5069 20.5026 45.8769C20.5026 46.2469 20.5026 46.6168 20.5479 46.9868C20.6839 48.2411 21.1371 49.4413 22.0888 50.2805C21.2368 50.3256 19.0795 50.3256 18.2275 50.2805C19.1702 49.4413 19.6234 48.2411 19.7684 46.9868C19.8047 46.6168 19.8137 46.2469 19.8137 45.8769C19.8137 45.5069 19.6687 44.9926 19.6687 44.6226H20.6476Z" fill="#0C0A35"/>
<path d="M20.3304 46.0123C21.0918 47.1674 22.4242 47.9795 23.8109 47.9344C25.1977 47.8893 26.5482 46.8786 26.8202 45.525C27.0558 44.3339 26.4757 43.1066 25.6418 42.2133C24.808 41.3199 23.6659 40.7334 22.6508 40.0656C21.6084 39.3798 20.1491 37.6833 20.1491 37.6833C20.1491 37.6833 18.5539 39.3437 17.6565 40.0205C16.6867 40.7605 15.4812 41.3199 14.6564 42.2133C13.8225 43.1066 13.2424 44.3339 13.4781 45.525C13.75 46.8786 15.1005 47.8893 16.4873 47.9344C17.8741 47.9795 19.2155 47.1674 19.9678 46.0123H20.3304Z" fill="#0C0A35"/>
<path d="M38.3404 44.6226C38.3404 44.9926 38.1953 45.5069 38.1953 45.8769C38.1953 46.2469 38.1953 46.6168 38.2406 46.9868C38.3766 48.2411 38.8298 49.4413 39.7815 50.2805C38.9295 50.3256 36.7723 50.3256 35.9203 50.2805C36.8629 49.4413 37.3161 48.2411 37.4612 46.9868C37.4974 46.6168 37.5065 46.2469 37.5065 45.8769C37.5065 45.5069 37.3614 44.9926 37.3614 44.6226H38.3404Z" fill="#0C0A35"/>
<path d="M38.0231 46.0123C38.7845 47.1674 40.1169 47.9795 41.5037 47.9344C42.8905 47.8893 44.241 46.8786 44.5129 45.525C44.7486 44.3339 44.1685 43.1066 43.3346 42.2133C42.5007 41.3199 41.3587 40.7334 40.3435 40.0656C39.3011 39.3798 37.8419 37.6833 37.8419 37.6833C37.8419 37.6833 36.2466 39.3437 35.3493 40.0205C34.3794 40.7605 33.1739 41.3199 32.3491 42.2133C31.5152 43.1066 30.9352 44.3339 31.1708 45.525C31.4427 46.8786 32.7933 47.8893 34.18 47.9344C35.5668 47.9795 36.9083 47.1674 37.6606 46.0123H38.0231Z" fill="#0C0A35"/>
<path d="M37.3433 76.5307C37.3433 76.1608 37.4883 75.6464 37.4883 75.2764C37.4883 74.9065 37.4883 74.5365 37.443 74.1665C37.307 72.9122 36.8538 71.712 35.9021 70.8728C36.7541 70.8187 38.9023 70.8187 39.7633 70.8728C38.8207 71.712 38.3675 72.9122 38.2225 74.1665C38.1862 74.5365 38.1771 74.9065 38.1771 75.2764C38.1771 75.6464 38.3222 76.1608 38.3222 76.5307H37.3433Z" fill="#0C0A35"/>
<path d="M37.6606 75.15C36.8992 73.9949 35.5668 73.1828 34.18 73.2279C32.7933 73.273 31.4427 74.2837 31.1708 75.6373C30.9352 76.8284 31.5152 78.0557 32.3491 78.949C33.183 79.8424 34.3251 80.4289 35.3402 81.0967C36.3826 81.7825 37.8419 83.479 37.8419 83.479C37.8419 83.479 39.4371 81.8186 40.3344 81.1418C41.3043 80.4018 42.5098 79.8424 43.3346 78.949C44.1685 78.0557 44.7486 76.8284 44.5129 75.6373C44.241 74.2837 42.8905 73.273 41.5037 73.2279C40.1169 73.1828 38.7754 73.9949 38.0231 75.15H37.6606Z" fill="#0C0A35"/>
<path d="M19.6505 76.5307C19.6505 76.1608 19.7955 75.6464 19.7955 75.2764C19.7955 74.9065 19.7955 74.5365 19.7502 74.1665C19.6143 72.9122 19.1611 71.712 18.2094 70.8728C19.0614 70.8187 21.2186 70.8187 22.0706 70.8728C21.1279 71.712 20.6747 72.9122 20.5297 74.1665C20.4935 74.5365 20.4844 74.9065 20.4844 75.2764C20.4844 75.6464 20.6294 76.1608 20.6294 76.5307H19.6505Z" fill="#0C0A35"/>
<path d="M19.9678 75.15C19.2065 73.9949 17.8741 73.1828 16.4873 73.2279C15.1005 73.273 13.75 74.2837 13.4781 75.6373C13.2424 76.8284 13.8225 78.0557 14.6564 78.949C15.4903 79.8424 16.6323 80.4289 17.6475 81.0967C18.6898 81.7825 20.1491 83.479 20.1491 83.479C20.1491 83.479 21.7444 81.8186 22.6417 81.1418C23.6115 80.4018 24.817 79.8424 25.6418 78.949C26.4757 78.0557 27.0558 76.8284 26.8202 75.6373C26.5482 74.2837 25.1977 73.273 23.8109 73.2279C22.4242 73.1828 21.0827 73.9949 20.3304 75.15H19.9678Z" fill="#0C0A35"/>
<path d="M29.494 28.3166C29.494 28.6866 29.349 29.201 29.349 29.5709C29.349 29.9409 29.349 30.3109 29.3943 30.6809C29.5303 31.9352 29.9835 33.1353 30.9352 33.9745C30.0832 34.0287 27.926 34.0287 27.074 33.9745C28.0166 33.1353 28.4698 31.9352 28.6148 30.6809C28.6511 30.3109 28.6602 29.9409 28.6602 29.5709C28.6602 29.201 28.5151 28.6866 28.5151 28.3166H29.494Z" fill="#0C0A35"/>
<path d="M29.1767 29.6973C29.9381 30.8524 31.2705 31.6645 32.6572 31.6194C34.044 31.5743 35.3945 30.5636 35.6665 29.2101C35.9021 28.0189 35.322 26.7917 34.4882 25.8983C33.6543 25.005 32.5122 24.4184 31.4971 23.7507C30.4547 23.0648 28.9954 21.3684 28.9954 21.3684C28.9954 21.3684 27.4002 23.0288 26.5028 23.7055C25.533 24.4455 24.3275 25.005 23.5027 25.8983C22.6688 26.7917 22.0887 28.0189 22.3244 29.2101C22.5963 30.5636 23.9468 31.5743 25.3336 31.6194C26.7204 31.6645 28.0618 30.8524 28.8141 29.6973H29.1767Z" fill="#0C0A35"/>
<path d="M28.4969 60.6128C28.4969 60.2428 28.642 59.7284 28.642 59.3585C28.642 58.9885 28.642 58.6185 28.5966 58.2485C28.4607 56.9942 28.0075 55.7941 27.0558 54.9549C27.9078 54.9007 30.065 54.9007 30.917 54.9549C29.9744 55.7941 29.5212 56.9942 29.3761 58.2485C29.3399 58.6185 29.3308 58.9885 29.3308 59.3585C29.3308 59.7284 29.4759 60.2428 29.4759 60.6128H28.4969Z" fill="#0C0A35"/>
<path d="M28.8141 59.232C28.0528 58.077 26.7204 57.2648 25.3336 57.31C23.9468 57.3551 22.5963 58.3657 22.3244 59.7193C22.0887 60.9105 22.6688 62.1377 23.5027 63.031C24.3366 63.9244 25.4786 64.5109 26.4938 65.1787C27.5361 65.8645 28.9954 67.561 28.9954 67.561C28.9954 67.561 30.5907 65.9006 31.488 65.2238C32.4578 64.4839 33.6633 63.9244 34.4882 63.031C35.322 62.1377 35.9021 60.9105 35.6665 59.7193C35.3945 58.3657 34.044 57.3551 32.6572 57.31C31.2705 57.2648 29.929 58.077 29.1767 59.232H28.8141Z" fill="#0C0A35"/>
</svg>
