<svg width="58" height="88" viewBox="0 0 58 88" fill="none" xmlns="http://www.w3.org/2000/svg">
<path d="M53.0914 88H4.90858C2.19947 88 0 85.8107 0 83.1141V4.88592C0 2.18932 2.19947 0 4.90858 0H53.0914C55.8005 0 58 2.18932 58 4.88592V83.1141C58 85.8107 55.8005 88 53.0914 88Z" fill="white"/>
<path d="M7.58202 16.5445C7.58202 16.6869 7.52837 16.8916 7.52837 17.0339C7.52837 17.1763 7.52836 17.3276 7.54625 17.47C7.59989 17.9595 7.77872 18.4312 8.1453 18.7605C7.81449 18.7783 6.97403 18.7783 6.63428 18.7605C7.00086 18.4312 7.17967 17.9595 7.23332 17.47C7.2512 17.3276 7.25121 17.1852 7.25121 17.0339C7.25121 16.8916 7.19755 16.6869 7.19755 16.5445H7.58202Z" fill="#0C0A35"/>
<path d="M7.48354 16.9005C7.6266 16.9183 7.70707 17.0518 7.95741 17.3366C8.18988 17.5857 8.42235 17.8527 8.94092 17.915C9.20915 17.9506 9.55785 17.8082 9.71878 17.5946C9.8529 17.4167 9.93337 17.1942 9.98701 16.9717C10.0943 16.5623 10.0585 16.1529 9.85289 15.7791C9.64725 15.4053 9.10186 15.2451 8.77104 15.4409C8.59222 15.5477 8.52964 15.6812 8.3687 15.7079C8.31506 15.7168 8.27034 15.6723 8.28822 15.6189C8.35081 15.3697 8.52964 15.3341 8.61905 15.0404C8.7174 14.6845 8.77104 14.4086 8.2614 13.9636C7.87694 13.6254 6.9292 13.6521 6.51792 13.9636C6.09769 14.2751 6.06193 14.5688 6.16028 14.9158C6.24075 15.1917 6.40168 15.3252 6.47321 15.5566C6.50003 15.6367 6.41957 15.7168 6.3391 15.6812C6.22287 15.6367 6.15134 15.521 5.99934 15.432C5.65958 15.2362 5.11419 15.3964 4.91749 15.7702C4.71185 16.144 4.67608 16.5534 4.78337 16.9628C4.83702 17.1853 4.91749 17.3989 5.0516 17.5857C5.21254 17.7993 5.57017 17.9417 5.82946 17.9061C6.34804 17.8438 6.58051 17.5768 6.81297 17.3277C7.07226 17.0518 7.15273 16.9183 7.28684 16.8916H7.48354V16.9005Z" fill="#0C0A35"/>
<path d="M4.53297 10.7775L5.35553 10.4838C5.69529 11.2313 6.26751 11.614 7.0722 11.614C7.85006 11.614 8.44016 11.2847 8.83357 10.6351C9.22697 9.98538 9.43262 9.09541 9.44156 7.98295C8.9051 8.96192 8.10042 9.4514 7.0275 9.4514C6.26752 9.4514 5.63271 9.19331 5.11414 8.67713C4.59556 8.16095 4.34521 7.52017 4.34521 6.7637C4.34521 5.98943 4.61343 5.33085 5.15883 4.77907C5.70423 4.22729 6.39269 3.9514 7.23314 3.9514C8.26135 3.9514 9.04816 4.30739 9.59355 5.02826C10.139 5.74914 10.4161 6.737 10.4161 7.99185C10.4161 9.31791 10.13 10.3859 9.54885 11.2046C8.96768 12.0234 8.14511 12.4328 7.0722 12.4328C5.81152 12.4239 4.97107 11.881 4.53297 10.7775ZM7.25103 8.62373C7.81431 8.62373 8.28817 8.42794 8.67264 8.03635C9.0571 7.64477 9.24486 7.18198 9.24486 6.6569C9.24486 6.14962 9.06604 5.70464 8.69946 5.33975C8.34182 4.97486 7.859 4.78797 7.2689 4.78797C6.66985 4.78797 6.19599 4.97486 5.84729 5.34865C5.49859 5.72244 5.32871 6.18522 5.32871 6.7281C5.32871 7.30658 5.52542 7.76936 5.90988 8.10755C6.29434 8.45464 6.74139 8.62373 7.25103 8.62373Z" fill="#0C0A35"/>
<path d="M50.3912 71.4555C50.3912 71.3131 50.4448 71.1084 50.4448 70.966C50.4448 70.8237 50.4448 70.6724 50.4269 70.53C50.3733 70.0405 50.1945 69.5688 49.8279 69.2395C50.1587 69.2217 50.9991 69.2217 51.3389 69.2395C50.9723 69.5688 50.7935 70.0405 50.7399 70.53C50.722 70.6724 50.722 70.8148 50.722 70.966C50.722 71.1084 50.7756 71.3131 50.7756 71.4555H50.3912Z" fill="#0C0A35"/>
<path d="M50.4895 71.0995C50.3464 71.0817 50.2659 70.9482 50.0156 70.6634C49.7831 70.4142 49.5507 70.1472 49.0321 70.0849C48.7639 70.0494 48.4152 70.1917 48.2542 70.4053C48.1201 70.5833 48.0397 70.8058 47.986 71.0283C47.8787 71.4377 47.9145 71.8471 48.1201 72.2209C48.3258 72.5947 48.8712 72.7549 49.202 72.5591C49.3808 72.4523 49.4434 72.3188 49.6043 72.2921C49.658 72.2832 49.7027 72.3277 49.6848 72.3811C49.6222 72.6303 49.4434 72.6659 49.354 72.9595C49.2556 73.3155 49.202 73.5914 49.7116 74.0364C50.0961 74.3746 51.0438 74.3479 51.4551 74.0364C51.8753 73.7249 51.9111 73.4312 51.8127 73.0841C51.7323 72.8083 51.5713 72.6748 51.4998 72.4434C51.473 72.3633 51.5535 72.2832 51.6339 72.3188C51.7502 72.3633 51.8217 72.479 51.9737 72.568C52.3134 72.7727 52.8588 72.6036 53.0555 72.2298C53.2612 71.856 53.2969 71.4466 53.1896 71.0372C53.136 70.8147 53.0555 70.6011 52.9214 70.4142C52.7605 70.2006 52.4028 70.0583 52.1436 70.0939C51.625 70.1561 51.3925 70.4231 51.1601 70.6723C50.9008 70.9482 50.8203 71.0817 50.6862 71.1084H50.4895V71.0995Z" fill="#0C0A35"/>
<path d="M53.2165 77.2225L52.3939 77.5162C52.0542 76.7597 51.4819 76.3859 50.6773 76.3859C49.8994 76.3859 49.3093 76.7152 48.9159 77.3649C48.5225 78.0145 48.3169 78.9045 48.3079 80.017C48.8444 79.038 49.6491 78.5485 50.722 78.5485C51.4819 78.5485 52.1168 78.8066 52.6353 79.3228C53.1539 79.839 53.4132 80.4798 53.4132 81.2362C53.4132 82.0105 53.145 82.6691 52.5996 83.2209C52.0542 83.7726 51.3657 84.0485 50.5253 84.0485C49.4971 84.0485 48.7103 83.6925 48.1649 82.9717C47.6195 82.2508 47.3423 81.2629 47.3423 80.0081C47.3423 78.682 47.6284 77.6141 48.2096 76.7953C48.7907 75.9765 49.6133 75.5671 50.6862 75.5671C51.9469 75.576 52.7873 76.1278 53.2165 77.2225ZM50.4984 79.3762C49.9352 79.3762 49.4613 79.572 49.0768 79.9636C48.6924 80.3552 48.5046 80.8179 48.5046 81.343C48.5046 81.8503 48.6834 82.2953 49.05 82.6602C49.4166 83.0251 49.8905 83.212 50.4806 83.212C51.0796 83.212 51.5535 83.0251 51.9022 82.6424C52.2509 82.2686 52.4207 81.8058 52.4207 81.2629C52.4207 80.6844 52.224 80.2217 51.8396 79.8835C51.4641 79.5453 51.017 79.3762 50.4984 79.3762Z" fill="#0C0A35"/>
<path d="M19.2945 12.3795C19.2945 12.7444 19.4375 13.2695 19.4375 13.6343C19.4375 14.0081 19.4375 14.373 19.3928 14.7379C19.2587 15.9928 18.8027 17.1853 17.855 18.0308C18.7133 18.0842 20.8591 18.0842 21.7175 18.0308C20.7697 17.1853 20.3227 15.9928 20.1796 14.7379C20.1439 14.373 20.1349 13.9992 20.1349 13.6343C20.1349 13.2695 20.278 12.7444 20.278 12.3795H19.2945Z" fill="#0C0A35"/>
<path d="M19.5538 13.2872C19.1962 13.3406 18.9906 13.6877 18.3289 14.3908C17.7388 15.0316 17.1487 15.7079 15.8165 15.877C15.137 15.9571 14.234 15.5922 13.8227 15.0494C13.474 14.5866 13.2773 14.0259 13.1342 13.4652C12.8571 12.4151 12.9554 11.3738 13.4829 10.4215C14.0015 9.46926 15.3963 9.05098 16.2546 9.56716C16.7196 9.84305 16.8626 10.1723 17.2918 10.2524C17.4259 10.2791 17.5332 10.1545 17.4974 10.0299C17.3275 9.38917 16.8716 9.30907 16.657 8.5437C16.4066 7.63593 16.2636 6.93286 17.56 5.8026C18.5525 4.93043 20.9665 5.01943 22.0126 5.8026C23.0766 6.60357 23.1839 7.34224 22.9246 8.25001C22.7279 8.96198 22.3166 9.29127 22.1199 9.89645C22.0573 10.1011 22.254 10.2969 22.4507 10.2168C22.7547 10.0922 22.9246 9.81635 23.318 9.57606C24.1763 9.05988 25.5711 9.47816 26.0897 10.4304C26.6083 11.3827 26.7156 12.424 26.4384 13.4741C26.2953 14.0348 26.0986 14.5955 25.7499 15.0583C25.3386 15.6011 24.4356 15.966 23.7561 15.8859C22.4239 15.7257 21.8338 15.0405 21.2437 14.3997C20.591 13.6966 20.3854 13.3495 20.0277 13.2961H19.5538V13.2872Z" fill="#0C0A35"/>
<path d="M37.7041 12.3795C37.7041 12.7444 37.8472 13.2695 37.8472 13.6343C37.8472 14.0081 37.8472 14.373 37.8025 14.7379C37.6684 15.9928 37.2124 17.1853 36.2646 18.0308C37.123 18.0842 39.2688 18.0842 40.1271 18.0308C39.1794 17.1853 38.7323 15.9928 38.5893 14.7379C38.5446 14.373 38.5446 13.9992 38.5446 13.6343C38.5446 13.2695 38.6876 12.7444 38.6876 12.3795H37.7041Z" fill="#0C0A35"/>
<path d="M37.9633 13.2872C37.6056 13.3406 37.4 13.6877 36.7384 14.3908C36.1483 15.0316 35.5582 15.7079 34.2259 15.877C33.5464 15.9571 32.6434 15.5922 32.2321 15.0494C31.8834 14.5866 31.6867 14.0259 31.5437 13.4652C31.2665 12.4151 31.3648 11.3738 31.8924 10.4215C32.4109 9.46926 33.8057 9.05098 34.664 9.56716C35.129 9.84305 35.272 10.1723 35.7012 10.2524C35.8353 10.2791 35.9426 10.1545 35.9068 10.0299C35.737 9.38917 35.281 9.30907 35.0664 8.5437C34.8161 7.63593 34.673 6.93286 35.9694 5.8026C36.9619 4.93043 39.3759 5.01943 40.422 5.8026C41.486 6.60357 41.5933 7.34224 41.334 8.25001C41.1373 8.96198 40.726 9.29127 40.5293 9.89645C40.4667 10.1011 40.6634 10.2969 40.8601 10.2168C41.1641 10.0922 41.334 9.81635 41.7274 9.57606C42.5857 9.05988 43.9805 9.47816 44.4991 10.4304C45.0177 11.3827 45.125 12.424 44.8478 13.4741C44.7047 14.0348 44.5081 14.5955 44.1594 15.0583C43.7481 15.6011 42.845 15.966 42.1655 15.8859C40.8333 15.7257 40.2432 15.0405 39.6531 14.3997C39.0004 13.6966 38.7948 13.3495 38.4371 13.2961H37.9633V13.2872Z" fill="#0C0A35"/>
<path d="M38.6964 75.6294C38.6964 75.2645 38.5534 74.7395 38.5534 74.3746C38.5534 74.0008 38.5534 73.6359 38.5981 73.271C38.7322 72.0162 39.1882 70.8236 40.1359 69.9781C39.2776 69.9247 37.1318 69.9247 36.2734 69.9781C37.2212 70.8236 37.6682 72.0162 37.8113 73.271C37.856 73.6359 37.856 74.0097 37.856 74.3746C37.856 74.7395 37.7129 75.2645 37.7129 75.6294H38.6964Z" fill="#0C0A35"/>
<path d="M38.4371 74.7127C38.7948 74.6593 39.0004 74.3122 39.6531 73.6092C40.2432 72.9684 40.8333 72.292 42.1655 72.1318C42.845 72.0517 43.7481 72.4166 44.1593 72.9595C44.508 73.4223 44.7047 73.983 44.8478 74.5436C45.125 75.5938 45.0266 76.6351 44.4991 77.5873C43.9805 78.5396 42.5857 78.9579 41.7274 78.4417C41.2625 78.1658 41.1105 77.8365 40.6902 77.7564C40.5561 77.7297 40.4488 77.8543 40.4846 77.9789C40.6545 78.6197 41.1105 78.6998 41.3251 79.4652C41.5754 80.3729 41.7185 81.076 40.422 82.2063C39.4296 83.0784 37.0155 82.9894 35.9694 82.2063C34.9054 81.4053 34.7982 80.6666 35.0574 79.7588C35.2541 79.0469 35.6654 78.7176 35.8621 78.1124C35.9247 77.9077 35.728 77.7119 35.5313 77.792C35.2273 77.9166 35.0574 78.1925 34.664 78.4328C33.8057 78.949 32.4109 78.5307 31.8923 77.5784C31.3738 76.6262 31.2665 75.5849 31.5437 74.5347C31.6867 73.9741 31.8834 73.4134 32.2321 72.9506C32.6434 72.4077 33.5464 72.0428 34.2259 72.1229C35.5581 72.2831 36.1482 72.9684 36.7383 73.6003C37.391 74.3033 37.5967 74.6504 37.9633 74.7038H38.4371V74.7127Z" fill="#0C0A35"/>
<path d="M20.2961 75.6294C20.2961 75.2645 20.153 74.7395 20.153 74.3746C20.153 74.0008 20.153 73.6359 20.1977 73.271C20.3318 72.0162 20.7878 70.8236 21.7355 69.9781C20.8772 69.9247 18.7314 69.9247 17.873 69.9781C18.8208 70.8236 19.2678 72.0162 19.4109 73.271C19.4556 73.6359 19.4556 74.0097 19.4556 74.3746C19.4556 74.7395 19.3125 75.2645 19.3125 75.6294H20.2961Z" fill="#0C0A35"/>
<path d="M20.0367 74.7127C20.3944 74.6593 20.6 74.3122 21.2527 73.6092C21.8428 72.9684 22.4329 72.292 23.7651 72.1318C24.4446 72.0517 25.3477 72.4166 25.759 72.9595C26.1077 73.4223 26.3044 73.983 26.4474 74.5436C26.7246 75.5938 26.6262 76.6351 26.0987 77.5873C25.5801 78.5396 24.1853 78.9579 23.327 78.4417C22.8621 78.1658 22.7101 77.8365 22.2899 77.7564C22.1557 77.7297 22.0485 77.8543 22.0842 77.9789C22.2541 78.6197 22.7101 78.6998 22.9247 79.4652C23.175 80.3729 23.3181 81.076 22.0216 82.2063C21.0292 83.0784 18.6151 82.9894 17.569 82.2063C16.5051 81.4053 16.3978 80.6666 16.6571 79.7588C16.8538 79.0469 17.265 78.7176 17.4617 78.1124C17.5243 77.9077 17.3276 77.7119 17.1309 77.792C16.8269 77.9166 16.657 78.1925 16.2636 78.4328C15.4053 78.949 14.0105 78.5307 13.492 77.5784C12.9734 76.6262 12.8661 75.5849 13.1433 74.5347C13.2953 73.9741 13.483 73.4134 13.8317 72.9506C14.243 72.4077 15.146 72.0428 15.8255 72.1229C17.1578 72.2831 17.7479 72.9684 18.338 73.6003C18.9906 74.3033 19.1963 74.6504 19.5629 74.7038H20.0367V74.7127Z" fill="#0C0A35"/>
<path d="M19.2945 29.4579C19.2945 29.8227 19.4375 30.3478 19.4375 30.7127C19.4375 31.0776 19.4375 31.4514 19.3928 31.8163C19.2587 33.0711 18.8027 34.2637 17.855 35.1092C18.7133 35.1625 20.8591 35.1625 21.7175 35.1092C20.7697 34.2637 20.3227 33.0711 20.1796 31.8163C20.1439 31.4514 20.1349 31.0776 20.1349 30.7127C20.1349 30.3478 20.278 29.8227 20.278 29.4579H19.2945Z" fill="#0C0A35"/>
<path d="M19.5538 30.3657C19.1962 30.4191 18.9906 30.7661 18.3289 31.4692C17.7388 32.11 17.1487 32.7864 15.8165 32.9555C15.137 33.0356 14.234 32.6707 13.8227 32.1278C13.474 31.665 13.2773 31.1043 13.1342 30.5436C12.8571 29.4935 12.9554 28.4522 13.4829 27.5C14.0015 26.5477 15.3963 26.1294 16.2546 26.6456C16.7196 26.9215 16.8626 27.2508 17.2918 27.3309C17.4259 27.3576 17.5332 27.233 17.4974 27.1084C17.3275 26.4676 16.8716 26.3875 16.657 25.6221C16.4066 24.7144 16.2636 24.0113 17.56 22.881C18.5525 22.0089 20.9665 22.0979 22.0126 22.881C23.0766 23.682 23.1839 24.4207 22.9246 25.3284C22.7279 26.0404 22.3166 26.3697 22.1199 26.9749C22.0573 27.1796 22.254 27.3754 22.4507 27.2953C22.7547 27.1707 22.9246 26.8948 23.318 26.6545C24.1763 26.1383 25.5711 26.5566 26.0897 27.5089C26.6083 28.4611 26.7156 29.5024 26.4384 30.5526C26.2953 31.1132 26.0986 31.6739 25.7499 32.1367C25.3386 32.6796 24.4356 33.0445 23.7561 32.9644C22.4239 32.8042 21.8338 32.1189 21.2437 31.4781C20.591 30.775 20.3854 30.428 20.0277 30.3746H19.5538V30.3657Z" fill="#0C0A35"/>
<path d="M37.7041 29.4579C37.7041 29.8227 37.8472 30.3478 37.8472 30.7127C37.8472 31.0776 37.8472 31.4514 37.8025 31.8163C37.6684 33.0711 37.2124 34.2637 36.2646 35.1092C37.123 35.1625 39.2688 35.1625 40.1271 35.1092C39.1794 34.2637 38.7323 33.0711 38.5893 31.8163C38.5446 31.4514 38.5446 31.0776 38.5446 30.7127C38.5446 30.3478 38.6876 29.8227 38.6876 29.4579H37.7041Z" fill="#0C0A35"/>
<path d="M37.9633 30.3657C37.6056 30.4191 37.4 30.7661 36.7384 31.4692C36.1483 32.11 35.5582 32.7864 34.2259 32.9555C33.5464 33.0356 32.6434 32.6707 32.2321 32.1278C31.8834 31.665 31.6867 31.1043 31.5437 30.5436C31.2665 29.4935 31.3648 28.4522 31.8924 27.5C32.4109 26.5477 33.8057 26.1294 34.664 26.6456C35.129 26.9215 35.272 27.2508 35.7012 27.3309C35.8353 27.3576 35.9426 27.233 35.9068 27.1084C35.737 26.4676 35.281 26.3875 35.0664 25.6221C34.8161 24.7144 34.673 24.0113 35.9694 22.881C36.9619 22.0089 39.3759 22.0979 40.422 22.881C41.486 23.682 41.5933 24.4207 41.334 25.3284C41.1373 26.0404 40.726 26.3697 40.5293 26.9749C40.4667 27.1796 40.6634 27.3754 40.8601 27.2953C41.1641 27.1707 41.334 26.8948 41.7274 26.6545C42.5857 26.1383 43.9805 26.5566 44.4991 27.5089C45.0177 28.4611 45.125 29.5024 44.8478 30.5526C44.7047 31.1132 44.5081 31.6739 44.1594 32.1367C43.7481 32.6796 42.845 33.0445 42.1655 32.9644C40.8333 32.8042 40.2432 32.1189 39.6531 31.4781C39.0004 30.775 38.7948 30.428 38.4371 30.3746H37.9633V30.3657Z" fill="#0C0A35"/>
<path d="M38.6964 59.3431C38.6964 58.9782 38.5534 58.4531 38.5534 58.0882C38.5534 57.7144 38.5534 57.3495 38.5981 56.9847C38.7322 55.7298 39.1882 54.5373 40.1359 53.6918C39.2776 53.6384 37.1318 53.6384 36.2734 53.6918C37.2212 54.5373 37.6682 55.7298 37.8113 56.9847C37.856 57.3495 37.856 57.7233 37.856 58.0882C37.856 58.4531 37.7129 58.9782 37.7129 59.3431H38.6964Z" fill="#0C0A35"/>
<path d="M38.4371 58.4353C38.7948 58.3819 39.0004 58.0348 39.6531 57.3318C40.2432 56.691 40.8333 56.0146 42.1655 55.8544C42.845 55.7743 43.7481 56.1392 44.1593 56.6821C44.508 57.1449 44.7047 57.7056 44.8478 58.2662C45.125 59.3164 45.0266 60.3577 44.4991 61.3099C43.9805 62.2622 42.5857 62.6805 41.7274 62.1643C41.2625 61.8884 41.1105 61.5591 40.6902 61.479C40.5561 61.4523 40.4488 61.5769 40.4846 61.7015C40.6545 62.3423 41.1105 62.4224 41.3251 63.1878C41.5754 64.0955 41.7185 64.7986 40.422 65.9289C39.4296 66.801 37.0155 66.712 35.9694 65.9289C34.9054 65.1279 34.7982 64.3892 35.0574 63.4814C35.2541 62.7695 35.6654 62.4402 35.8621 61.835C35.9247 61.6303 35.728 61.4345 35.5313 61.5146C35.2273 61.6392 35.0574 61.9151 34.664 62.1554C33.8057 62.6716 32.4109 62.2533 31.8923 61.301C31.3738 60.3488 31.2665 59.3075 31.5437 58.2573C31.6867 57.6967 31.8834 57.136 32.2321 56.6732C32.6434 56.1303 33.5464 55.7654 34.2259 55.8455C35.5581 56.0057 36.1482 56.691 36.7383 57.3229C37.391 58.0259 37.5967 58.373 37.9633 58.4264H38.4371V58.4353Z" fill="#0C0A35"/>
<path d="M20.2961 59.3431C20.2961 58.9782 20.153 58.4531 20.153 58.0882C20.153 57.7144 20.153 57.3495 20.1977 56.9847C20.3318 55.7298 20.7878 54.5373 21.7355 53.6918C20.8772 53.6384 18.7314 53.6384 17.873 53.6918C18.8208 54.5373 19.2678 55.7298 19.4109 56.9847C19.4556 57.3495 19.4556 57.7233 19.4556 58.0882C19.4556 58.4531 19.3125 58.9782 19.3125 59.3431H20.2961Z" fill="#0C0A35"/>
<path d="M20.0367 58.4353C20.3944 58.3819 20.6 58.0348 21.2527 57.3318C21.8428 56.691 22.4329 56.0146 23.7651 55.8544C24.4446 55.7743 25.3477 56.1392 25.759 56.6821C26.1077 57.1449 26.3044 57.7056 26.4474 58.2662C26.7246 59.3164 26.6262 60.3577 26.0987 61.3099C25.5801 62.2622 24.1853 62.6805 23.327 62.1643C22.8621 61.8884 22.7101 61.5591 22.2899 61.479C22.1557 61.4523 22.0485 61.5769 22.0842 61.7015C22.2541 62.3423 22.7101 62.4224 22.9247 63.1878C23.175 64.0955 23.3181 64.7986 22.0216 65.9289C21.0292 66.801 18.6151 66.712 17.569 65.9289C16.5051 65.1279 16.3978 64.3892 16.6571 63.4814C16.8538 62.7695 17.265 62.4402 17.4617 61.835C17.5243 61.6303 17.3276 61.4345 17.1309 61.5146C16.8269 61.6392 16.657 61.9151 16.2636 62.1554C15.4053 62.6716 14.0105 62.2533 13.492 61.301C12.9734 60.3488 12.8661 59.3075 13.1433 58.2573C13.2953 57.6967 13.483 57.136 13.8317 56.6732C14.243 56.1303 15.146 55.7654 15.8255 55.8455C17.1578 56.0057 17.7479 56.691 18.338 57.3229C18.9906 58.0259 19.1963 58.373 19.5629 58.4264H20.0367V58.4353Z" fill="#0C0A35"/>
<path d="M28.9327 45.2905C28.9327 45.6554 29.0757 46.1804 29.0757 46.5453C29.0757 46.9102 29.0757 47.284 29.031 47.6489C28.8969 48.9037 28.4409 50.0963 27.4932 50.9418C28.3515 50.9952 30.4973 50.9952 31.3557 50.9418C30.4079 50.0963 29.9609 48.9037 29.8178 47.6489C29.7731 47.284 29.7731 46.9102 29.7731 46.5453C29.7731 46.1804 29.9162 45.6554 29.9162 45.2905H28.9327Z" fill="#0C0A35"/>
<path d="M29.192 46.1982C28.8344 46.2516 28.6287 46.5987 27.9671 47.3018C27.377 47.9426 26.7869 48.6189 25.4547 48.7791C24.7752 48.8592 23.8721 48.4943 23.4609 47.9515C23.1122 47.4887 22.9155 46.928 22.7724 46.3673C22.4953 45.3172 22.5936 44.2759 23.1211 43.3236C23.6397 42.3714 25.0345 41.9531 25.8928 42.4693C26.3577 42.7451 26.5008 43.0744 26.93 43.1545C27.0641 43.1812 27.1714 43.0566 27.1356 42.932C26.9657 42.2913 26.5097 42.2112 26.2951 41.4458C26.0448 40.538 25.9018 39.835 27.1982 38.7047C28.1906 37.8325 30.6047 37.9215 31.6508 38.7047C32.7148 39.5057 32.8221 40.2443 32.5628 41.1521C32.3661 41.8641 31.9548 42.1934 31.7581 42.7985C31.6955 43.0032 31.8922 43.199 32.0889 43.1189C32.3929 42.9943 32.5628 42.7184 32.9562 42.4782C33.8145 41.962 35.2093 42.3803 35.7279 43.3325C36.2464 44.2848 36.3537 45.3261 36.0766 46.3762C35.9335 46.9369 35.7368 47.4976 35.3881 47.9604C34.9768 48.5032 34.0738 48.8681 33.3943 48.788C32.0621 48.6278 31.472 47.9426 30.8819 47.3107C30.2292 46.6076 30.0235 46.2605 29.6659 46.2071H29.192V46.1982Z" fill="#0C0A35"/>
</svg>
