<svg width="58" height="88" viewBox="0 0 58 88" fill="none" xmlns="http://www.w3.org/2000/svg">
<path d="M53.0899 88H4.91009C2.20015 88 0 85.8096 0 83.1116V4.88839C0 2.19043 2.20015 0 4.91009 0H53.0899C55.7999 0 58 2.19043 58 4.88839V83.1116C58 85.8185 55.7999 88 53.0899 88Z" fill="white"/>
<path d="M7.39637 17.8796C7.46792 17.8796 7.53053 17.8618 7.58419 17.8262C8.01349 17.5412 9.11356 16.3837 9.42659 16.0631C9.4892 16.0008 9.55181 15.9296 9.54287 15.8405C9.53392 15.7693 9.48025 15.7159 9.43553 15.6713C8.95257 15.1994 8.45173 14.7453 8.00455 14.2467C7.80779 14.033 7.57525 13.7837 7.43215 13.7747H7.3606C7.2175 13.7837 6.98496 14.033 6.7882 14.2467C6.34101 14.7453 5.83122 15.1994 5.3572 15.6713C5.30354 15.7159 5.25882 15.7782 5.24988 15.8405C5.24094 15.9296 5.30355 16.0008 5.36615 16.0631C5.68813 16.3837 6.7882 17.5412 7.2175 17.8262C7.26221 17.8618 7.33376 17.8796 7.39637 17.8796Z" fill="#D6002B"/>
<path d="M50.6304 73.9047C50.702 73.9047 50.7646 73.8869 50.8182 73.8513C51.2475 73.5663 52.3476 72.4177 52.6606 72.0882C52.7232 72.0259 52.7858 71.9547 52.7769 71.8656C52.768 71.7944 52.7143 71.741 52.6696 71.6965C52.1866 71.2245 51.6858 70.7704 51.2386 70.2718C51.0418 70.0581 50.8093 69.8088 50.6662 69.7999H50.5946C50.4515 69.8088 50.219 70.0581 50.0222 70.2718C49.5751 70.7704 49.0653 71.2245 48.5823 71.6965C48.5376 71.7499 48.4839 71.8033 48.475 71.8656C48.466 71.9547 48.5286 72.0259 48.5913 72.0882C48.9132 72.4088 50.0133 73.5663 50.4337 73.8513C50.4963 73.8869 50.5589 73.9047 50.6304 73.9047Z" fill="#D6002B"/>
<path d="M4.54329 10.783L5.36611 10.4803C5.70597 11.2282 6.27837 11.6111 7.08331 11.6111C7.86141 11.6111 8.45169 11.2817 8.84522 10.6316C9.23874 9.98164 9.44444 9.09123 9.45338 7.9782C8.91676 8.95766 8.11183 9.44739 7.03858 9.44739C6.27837 9.44739 5.64336 9.18917 5.12463 8.67273C4.60589 8.15629 4.35547 7.51519 4.35547 6.75833C4.35547 5.98367 4.62378 5.32476 5.16935 4.7727C5.71492 4.22064 6.40358 3.94461 7.24429 3.94461C8.27281 3.94461 9.05986 4.30078 9.60543 5.02202C10.151 5.74325 10.4282 6.73162 10.4282 7.98711C10.4282 9.30493 10.142 10.3823 9.56071 11.1926C8.97936 12.0118 8.15655 12.4214 7.08331 12.4214C5.82224 12.4303 4.97259 11.8782 4.54329 10.783ZM7.26218 8.62821C7.82563 8.62821 8.29965 8.43232 8.67529 8.04053C9.05987 7.64875 9.24768 7.18573 9.24768 6.66039C9.24768 6.15285 9.06881 5.71654 8.70212 5.34257C8.34437 4.9775 7.8614 4.79051 7.27112 4.79051C6.67189 4.79051 6.19787 4.9775 5.84907 5.35147C5.50026 5.72545 5.33033 6.18846 5.33033 6.73162C5.33033 7.31039 5.5271 7.77341 5.91168 8.11177C6.29626 8.45903 6.75239 8.62821 7.26218 8.62821Z" fill="#D6002B"/>
<path d="M53.215 77.2259L52.3922 77.5198C52.0524 76.7718 51.48 76.3889 50.675 76.3889C49.8969 76.3889 49.3066 76.7184 48.9131 77.3684C48.5196 78.0184 48.3139 78.9088 48.3049 80.0219C48.8416 79.0424 49.6465 78.5527 50.7197 78.5527C51.48 78.5527 52.115 78.8109 52.6337 79.3273C53.1524 79.8438 53.4029 80.4849 53.4029 81.2417C53.4029 82.0164 53.1345 82.6753 52.589 83.2274C52.0434 83.7794 51.3547 84.0554 50.514 84.0554C49.4855 84.0554 48.6985 83.6993 48.1529 82.978C47.6073 82.2568 47.3301 81.2684 47.3301 80.0129C47.3301 78.6951 47.6163 77.6177 48.1976 76.7985C48.779 75.9794 49.6018 75.5698 50.675 75.5698C51.945 75.5787 52.7857 76.1218 53.215 77.2259ZM50.5051 79.3808C49.9416 79.3808 49.4676 79.5766 49.092 79.9684C48.7074 80.3602 48.5196 80.8232 48.5196 81.3486C48.5196 81.8561 48.6985 82.2924 49.0652 82.6664C49.4229 83.0315 49.9059 83.2184 50.4961 83.2184C51.0954 83.2184 51.5694 83.0315 51.9182 82.6575C52.267 82.2835 52.4369 81.8205 52.4369 81.2773C52.4369 80.6986 52.2402 80.2356 51.8556 79.8972C51.4621 79.5499 51.0149 79.3808 50.5051 79.3808Z" fill="#D6002B"/>
<path d="M19.9445 18.5831C20.1681 18.5831 20.3827 18.5207 20.5705 18.3961C21.9747 17.47 25.5969 13.668 26.6522 12.5994C26.849 12.3947 27.0547 12.1453 27.0189 11.8693C26.9921 11.6467 26.8222 11.4597 26.6612 11.2994C25.0871 9.7323 23.4236 8.25421 21.9389 6.60694C21.295 5.8946 20.5437 5.07542 20.0697 5.04871H19.8282C19.3542 5.08432 18.594 5.8946 17.959 6.60694C16.4743 8.26311 14.8108 9.74121 13.2367 11.2994C13.0757 11.4597 12.9058 11.6378 12.8789 11.8693C12.8521 12.1453 13.0489 12.3947 13.2456 12.5994C14.301 13.668 17.9232 17.47 19.3274 18.3961C19.4973 18.5207 19.7209 18.5831 19.9445 18.5831Z" fill="#D6002B"/>
<path d="M38.0643 18.5831C38.2879 18.5831 38.5026 18.5207 38.6904 18.3961C40.0946 17.47 43.7168 13.668 44.7721 12.5994C44.9689 12.3947 45.1746 12.1453 45.1388 11.8693C45.112 11.6467 44.9421 11.4597 44.7811 11.2994C43.207 9.7323 41.5435 8.25421 40.0588 6.60694C39.4148 5.8946 38.6636 5.07542 38.1896 5.04871H37.9481C37.4741 5.08432 36.7138 5.8946 36.0788 6.60694C34.5942 8.26311 32.9307 9.74121 31.3566 11.2994C31.1956 11.4597 31.0256 11.6378 30.9988 11.8693C30.972 12.1453 31.1687 12.3947 31.3655 12.5994C32.4209 13.668 36.0431 17.47 37.4472 18.3961C37.6172 18.5207 37.8408 18.5831 38.0643 18.5831Z" fill="#D6002B"/>
<path d="M19.9445 36.1777C20.1681 36.1777 20.3827 36.1154 20.5705 35.9907C21.9747 35.0647 25.5969 31.2626 26.6522 30.1941C26.849 29.9893 27.0547 29.7489 27.0189 29.464C26.9921 29.2414 26.8222 29.0544 26.6612 28.8941C25.0871 27.327 23.4236 25.8489 21.9389 24.2016C21.295 23.4893 20.5437 22.6701 20.0697 22.6434H19.8282C19.3542 22.6701 18.594 23.4893 17.959 24.2016C16.4743 25.8578 14.8108 27.3359 13.2367 28.8941C13.0757 29.0544 12.9058 29.2325 12.8789 29.464C12.8521 29.7489 13.0489 29.9893 13.2456 30.1941C14.301 31.2626 17.9232 35.0647 19.3274 35.9907C19.4973 36.1243 19.7209 36.1777 19.9445 36.1777Z" fill="#D6002B"/>
<path d="M38.0643 36.1777C38.2879 36.1777 38.5026 36.1154 38.6904 35.9907C40.0946 35.0647 43.7168 31.2626 44.7721 30.1941C44.9689 29.9893 45.1746 29.7489 45.1388 29.464C45.112 29.2414 44.9421 29.0544 44.7811 28.8941C43.207 27.327 41.5435 25.8489 40.0588 24.2016C39.4148 23.4893 38.6636 22.6701 38.1896 22.6434H37.9481C37.4741 22.6701 36.7138 23.4893 36.0788 24.2016C34.5942 25.8578 32.9307 27.3359 31.3566 28.8941C31.1956 29.0544 31.0256 29.2325 30.9988 29.464C30.972 29.7489 31.1687 29.9893 31.3655 30.1941C32.4209 31.2626 36.0431 35.0647 37.4472 35.9907C37.6172 36.1243 37.8408 36.1777 38.0643 36.1777Z" fill="#D6002B"/>
<path d="M29.0045 50.7717C29.2281 50.7717 29.4428 50.7094 29.6306 50.5847C31.0347 49.6587 34.6569 45.8477 35.7123 44.7881C35.9091 44.5833 36.1148 44.334 36.079 44.0579C36.0522 43.8353 35.8822 43.6483 35.7212 43.4881C34.1472 41.9209 32.4836 40.4428 30.999 38.7867C30.355 38.0743 29.6037 37.2551 29.1297 37.2284H28.8882C28.4142 37.2551 27.654 38.0743 27.019 38.7867C25.5344 40.4428 23.8708 41.9209 22.2967 43.4881C22.1357 43.6483 21.9658 43.8264 21.939 44.0579C21.9122 44.3429 22.1089 44.5833 22.3057 44.7881C23.361 45.8566 26.9832 49.6587 28.3874 50.5847C28.5573 50.7094 28.7809 50.7717 29.0045 50.7717Z" fill="#D6002B"/>
<path d="M38.0556 69.4169C37.832 69.4169 37.6174 69.4793 37.4295 69.6039C36.0254 70.53 32.4032 74.332 31.3478 75.4005C31.1511 75.6053 30.9454 75.8547 30.9811 76.1307C31.008 76.3533 31.1779 76.5403 31.3389 76.7005C32.913 78.2677 34.5765 79.7458 36.0612 81.3931C36.7051 82.1054 37.4564 82.9246 37.9304 82.9513H38.1719C38.6459 82.9157 39.4061 82.1054 40.0411 81.3931C41.5258 79.7458 43.1893 78.2588 44.7634 76.7005C44.9244 76.5403 45.0943 76.3622 45.1211 76.1307C45.148 75.8457 44.9512 75.6053 44.7545 75.4005C43.6991 74.332 40.0769 70.53 38.6727 69.6039C38.5028 69.4793 38.2881 69.4169 38.0556 69.4169Z" fill="#D6002B"/>
<path d="M19.9445 69.4169C19.7209 69.4169 19.5063 69.4793 19.3185 69.6039C17.9143 70.53 14.2921 74.332 13.2367 75.4005C13.04 75.6053 12.8343 75.8547 12.8701 76.1307C12.8969 76.3533 13.0668 76.5403 13.2278 76.7005C14.8019 78.2677 16.4654 79.7458 17.9501 81.3931C18.594 82.1054 19.3453 82.9246 19.8193 82.9513H20.0608C20.5348 82.9157 21.295 82.1054 21.93 81.3931C23.4147 79.7458 25.0782 78.2588 26.6523 76.7005C26.8133 76.5403 26.9832 76.3622 27.0101 76.1307C27.0369 75.8457 26.8401 75.6053 26.6434 75.4005C25.588 74.332 21.9658 70.53 20.5616 69.6039C20.3828 69.4793 20.1681 69.4169 19.9445 69.4169Z" fill="#D6002B"/>
<path d="M38.0556 51.8223C37.832 51.8223 37.6174 51.8846 37.4295 52.0093C36.0254 52.9353 32.4032 56.7374 31.3478 57.8059C31.1511 58.0107 30.9454 58.2511 30.9811 58.536C31.008 58.7586 31.1779 58.9456 31.3389 59.1059C32.913 60.673 34.5765 62.1511 36.0612 63.7984C36.7051 64.5107 37.4564 65.3299 37.9304 65.3566H38.1719C38.6459 65.321 39.4061 64.5107 40.0411 63.7984C41.5258 62.1422 43.1893 60.6641 44.7634 59.1059C44.9244 58.9456 45.0943 58.7675 45.1211 58.536C45.148 58.2511 44.9512 58.0107 44.7545 57.8059C43.6991 56.7374 40.0769 52.9353 38.6727 52.0093C38.5028 51.8846 38.2881 51.8223 38.0556 51.8223Z" fill="#D6002B"/>
<path d="M19.9445 51.8223C19.7209 51.8223 19.5063 51.8846 19.3185 52.0093C17.9143 52.9353 14.2921 56.7374 13.2367 57.8059C13.04 58.0107 12.8343 58.2511 12.8701 58.536C12.8969 58.7586 13.0668 58.9456 13.2278 59.1059C14.8019 60.673 16.4654 62.1511 17.9501 63.7984C18.594 64.5107 19.3453 65.3299 19.8193 65.3566H20.0608C20.5348 65.321 21.295 64.5107 21.93 63.7984C23.4147 62.1422 25.0782 60.6641 26.6523 59.1059C26.8133 58.9456 26.9832 58.7675 27.0101 58.536C27.0369 58.2511 26.8401 58.0107 26.6434 57.8059C25.588 56.7374 21.9658 52.9353 20.5616 52.0093C20.3828 51.8846 20.1681 51.8223 19.9445 51.8223Z" fill="#D6002B"/>
</svg>
