<svg width="58" height="88" viewBox="0 0 58 88" fill="none" xmlns="http://www.w3.org/2000/svg">
<path d="M53.0899 88H4.91009C2.20015 88 0 85.8096 0 83.1116V4.88839C0 2.19043 2.20015 0 4.91009 0H53.0899C55.7999 0 58 2.19043 58 4.88839V83.1116C58 85.8185 55.7999 88 53.0899 88Z" fill="white"/>
<path d="M4.54329 10.783L5.36611 10.4802C5.70597 11.2282 6.27837 11.6111 7.08331 11.6111C7.86141 11.6111 8.45169 11.2816 8.84522 10.6316C9.23874 9.98161 9.44444 9.0912 9.45338 7.97817C8.91676 8.95763 8.11183 9.44736 7.03858 9.44736C6.27837 9.44736 5.64336 9.18914 5.12463 8.6727C4.60589 8.15626 4.35547 7.51516 4.35547 6.7583C4.35547 5.98364 4.62378 5.32473 5.16935 4.77267C5.71492 4.22061 6.40358 3.94458 7.24429 3.94458C8.27281 3.94458 9.05986 4.30075 9.60543 5.02199C10.151 5.74322 10.4282 6.73159 10.4282 7.98708C10.4282 9.3049 10.142 10.3823 9.56071 11.1926C8.97936 12.0118 8.15655 12.4214 7.08331 12.4214C5.82224 12.4303 4.97259 11.8782 4.54329 10.783ZM7.26218 8.62818C7.82563 8.62818 8.29965 8.43229 8.67529 8.0405C9.05987 7.64872 9.24768 7.1857 9.24768 6.66035C9.24768 6.15282 9.06881 5.71651 8.70212 5.34254C8.34437 4.97746 7.8614 4.79048 7.27112 4.79048C6.67189 4.79048 6.19787 4.97747 5.84907 5.35144C5.50026 5.72542 5.33033 6.18843 5.33033 6.73159C5.33033 7.31036 5.5271 7.77338 5.91168 8.11174C6.29626 8.459 6.75239 8.62818 7.26218 8.62818Z" fill="#D6002B"/>
<path d="M53.215 77.2259L52.3922 77.5198C52.0524 76.7718 51.48 76.3889 50.675 76.3889C49.8969 76.3889 49.3066 76.7184 48.9131 77.3684C48.5196 78.0184 48.3139 78.9088 48.3049 80.0219C48.8416 79.0424 49.6465 78.5527 50.7197 78.5527C51.48 78.5527 52.115 78.8109 52.6337 79.3273C53.1524 79.8438 53.4029 80.4849 53.4029 81.2417C53.4029 82.0164 53.1345 82.6753 52.589 83.2274C52.0434 83.7794 51.3547 84.0554 50.514 84.0554C49.4855 84.0554 48.6985 83.6993 48.1529 82.978C47.6073 82.2568 47.3301 81.2684 47.3301 80.0129C47.3301 78.6951 47.6163 77.6177 48.1976 76.7985C48.779 75.9794 49.6018 75.5698 50.675 75.5698C51.945 75.5787 52.7857 76.1218 53.215 77.2259ZM50.5051 79.3808C49.9416 79.3808 49.4676 79.5766 49.092 79.9684C48.7074 80.3602 48.5196 80.8232 48.5196 81.3486C48.5196 81.8561 48.6985 82.2924 49.0652 82.6664C49.4229 83.0315 49.9059 83.2184 50.4961 83.2184C51.0954 83.2184 51.5694 83.0315 51.9182 82.6575C52.267 82.2835 52.4369 81.8205 52.4369 81.2773C52.4369 80.6986 52.2402 80.2356 51.8556 79.8972C51.4621 79.5499 51.0149 79.3808 50.5051 79.3808Z" fill="#D6002B"/>
<path d="M8.32447 17.7781C8.5633 17.5623 8.83109 17.3968 9.0844 17.2098C9.36666 17.0012 9.67062 16.8141 9.89498 16.548C10.0831 16.325 10.17 16.1092 10.2641 15.8358C10.3582 15.5624 10.3654 14.9797 10.2134 14.7352C9.77195 14.0302 8.5416 13.4187 7.72378 14.9654C7.7093 14.9869 7.6876 15.0013 7.66589 15.0013C7.64418 15.0013 7.62245 14.9869 7.60798 14.9654C6.7974 13.4187 5.55981 14.0302 5.11833 14.7352C4.96635 14.9797 4.97358 15.5624 5.06767 15.8358C5.16175 16.1092 5.24861 16.325 5.43678 16.548C5.66114 16.8141 5.9651 17.0012 6.24736 17.2098C6.5079 17.404 6.76846 17.5695 7.00729 17.7781C7.13032 17.886 7.65865 18.4543 7.65865 18.4543C7.65865 18.4543 8.20867 17.886 8.32447 17.7781Z" fill="#D6002B"/>
<path d="M50.0073 69.6761C49.7685 69.892 49.5007 70.0574 49.2474 70.2445C48.9651 70.4531 48.6612 70.6401 48.4368 70.9063C48.2486 71.1293 48.1618 71.3451 48.0677 71.6184C47.9736 71.8918 47.9664 72.4745 48.1184 72.7191C48.5598 73.424 49.7902 74.0355 50.608 72.4889C50.6225 72.4673 50.6442 72.4529 50.6659 72.4529C50.6876 72.4529 50.7093 72.4673 50.7238 72.4889C51.5344 74.0355 52.772 73.424 53.2135 72.7191C53.3654 72.4745 53.3582 71.8918 53.2641 71.6184C53.17 71.3451 53.0832 71.1293 52.895 70.9063C52.6707 70.6401 52.3667 70.4531 52.0844 70.2445C51.8239 70.0502 51.5633 69.8848 51.3245 69.6761C51.2015 69.5682 50.6731 68.9999 50.6731 68.9999C50.6731 68.9999 50.1231 69.5682 50.0073 69.6761Z" fill="#D6002B"/>
<path d="M30.9562 48.1783C31.5997 47.5969 32.3211 47.1511 33.0035 46.6472C33.7639 46.0852 34.5828 45.5813 35.1872 44.8643C35.6942 44.2635 35.9282 43.6821 36.1816 42.9457C36.4351 42.2093 36.4546 40.6395 36.0451 39.9806C34.8558 38.0813 31.5412 36.434 29.338 40.6007C29.299 40.6588 29.2405 40.6976 29.182 40.6976C29.1235 40.6976 29.065 40.6588 29.026 40.6007C26.8423 36.434 23.5082 38.0813 22.3188 39.9806C21.9093 40.6395 21.9288 42.2093 22.1823 42.9457C22.4358 43.6821 22.6698 44.2635 23.1767 44.8643C23.7811 45.5813 24.6 46.0852 25.3604 46.6472C26.0623 47.1705 26.7643 47.6163 27.4077 48.1783C27.7392 48.469 29.1625 50 29.1625 50C29.1625 50 30.6443 48.469 30.9562 48.1783Z" fill="#D6002B"/>
<path d="M40.3202 15.1783C40.9637 14.5969 41.6851 14.1511 42.3675 13.6472C43.1279 13.0852 43.9468 12.5813 44.5513 11.8643C45.0582 11.2635 45.2922 10.6821 45.5457 9.94569C45.7991 9.20925 45.8186 7.63948 45.4092 6.98056C44.2198 5.08132 40.9052 3.43401 38.702 7.6007C38.663 7.65884 38.6045 7.69761 38.546 7.69761C38.4875 7.69761 38.429 7.65884 38.39 7.6007C36.2063 3.43401 32.8722 5.08132 31.6828 6.98056C31.2734 7.63948 31.2928 9.20925 31.5463 9.94569C31.7998 10.6821 32.0338 11.2635 32.5407 11.8643C33.1451 12.5813 33.964 13.0852 34.7244 13.6472C35.4264 14.1705 36.1283 14.6163 36.7717 15.1783C37.1032 15.469 38.5265 17 38.5265 17C38.5265 17 40.0083 15.469 40.3202 15.1783Z" fill="#D6002B"/>
<path d="M21.9562 15.1783C22.5997 14.5969 23.3211 14.1511 24.0035 13.6472C24.7639 13.0852 25.5828 12.5813 26.1872 11.8643C26.6942 11.2635 26.9282 10.6821 27.1816 9.94569C27.4351 9.20925 27.4546 7.63948 27.0451 6.98056C25.8558 5.08132 22.5412 3.43401 20.338 7.6007C20.299 7.65884 20.2405 7.69761 20.182 7.69761C20.1235 7.69761 20.065 7.65884 20.026 7.6007C17.8423 3.43401 14.5082 5.08132 13.3188 6.98056C12.9093 7.63948 12.9288 9.20925 13.1823 9.94569C13.4358 10.6821 13.6698 11.2635 14.1767 11.8643C14.7811 12.5813 15.6 13.0852 16.3604 13.6472C17.0623 14.1705 17.7643 14.6163 18.4077 15.1783C18.7392 15.469 20.1625 17 20.1625 17C20.1625 17 21.6443 15.469 21.9562 15.1783Z" fill="#D6002B"/>
<path d="M40.3202 32.1783C40.9637 31.5969 41.6851 31.1511 42.3675 30.6472C43.1279 30.0852 43.9468 29.5813 44.5513 28.8643C45.0582 28.2635 45.2922 27.6821 45.5457 26.9457C45.7991 26.2093 45.8186 24.6395 45.4092 23.9806C44.2198 22.0813 40.9052 20.434 38.702 24.6007C38.663 24.6588 38.6045 24.6976 38.546 24.6976C38.4875 24.6976 38.429 24.6588 38.39 24.6007C36.2063 20.434 32.8722 22.0813 31.6828 23.9806C31.2734 24.6395 31.2928 26.2093 31.5463 26.9457C31.7998 27.6821 32.0338 28.2635 32.5407 28.8643C33.1451 29.5813 33.964 30.0852 34.7244 30.6472C35.4264 31.1705 36.1283 31.6163 36.7717 32.1783C37.1032 32.469 38.5265 34 38.5265 34C38.5265 34 40.0083 32.469 40.3202 32.1783Z" fill="#D6002B"/>
<path d="M21.9562 32.1783C22.5997 31.5969 23.3211 31.1511 24.0035 30.6472C24.7639 30.0852 25.5828 29.5813 26.1872 28.8643C26.6942 28.2635 26.9282 27.6821 27.1816 26.9457C27.4351 26.2093 27.4546 24.6395 27.0451 23.9806C25.8558 22.0813 22.5412 20.434 20.338 24.6007C20.299 24.6588 20.2405 24.6976 20.182 24.6976C20.1235 24.6976 20.065 24.6588 20.026 24.6007C17.8423 20.434 14.5082 22.0813 13.3188 23.9806C12.9093 24.6395 12.9288 26.2093 13.1823 26.9457C13.4358 27.6821 13.6698 28.2635 14.1767 28.8643C14.7811 29.5813 15.6 30.0852 16.3604 30.6472C17.0623 31.1705 17.7643 31.6163 18.4077 32.1783C18.7392 32.469 20.1625 34 20.1625 34C20.1625 34 21.6443 32.469 21.9562 32.1783Z" fill="#D6002B"/>
<path d="M18.4075 72.8217C17.7641 73.4031 17.0427 73.8489 16.3602 74.3528C15.5998 74.9148 14.7809 75.4187 14.1765 76.1357C13.6696 76.7365 13.4356 77.3179 13.1821 78.0543C12.9287 78.7907 12.9092 80.3605 13.3186 81.0194C14.508 82.9187 17.8226 84.566 20.0258 80.3993C20.0648 80.3412 20.1233 80.3024 20.1818 80.3024C20.2403 80.3024 20.2988 80.3412 20.3378 80.3993C22.5215 84.566 25.8556 82.9187 27.045 81.0194C27.4544 80.3605 27.4349 78.7907 27.1815 78.0543C26.928 77.3179 26.694 76.7365 26.1871 76.1357C25.5826 75.4187 24.7638 74.9148 24.0033 74.3528C23.3014 73.8295 22.5995 73.3837 21.9561 72.8217C21.6246 72.531 20.2013 71 20.2013 71C20.2013 71 18.7195 72.531 18.4075 72.8217Z" fill="#D6002B"/>
<path d="M36.7715 72.8217C36.1281 73.4031 35.4067 73.8489 34.7243 74.3528C33.9639 74.9148 33.145 75.4187 32.5405 76.1357C32.0336 76.7365 31.7996 77.3179 31.5461 78.0543C31.2927 78.7907 31.2732 80.3605 31.6826 81.0194C32.872 82.9187 36.1866 84.566 38.3898 80.3993C38.4288 80.3412 38.4873 80.3024 38.5458 80.3024C38.6043 80.3024 38.6628 80.3412 38.7018 80.3993C40.8855 84.566 44.2196 82.9187 45.409 81.0194C45.8184 80.3605 45.799 78.7907 45.5455 78.0543C45.292 77.3179 45.058 76.7365 44.5511 76.1357C43.9467 75.4187 43.1278 74.9148 42.3674 74.3528C41.6654 73.8295 40.9635 73.3837 40.3201 72.8217C39.9886 72.531 38.5653 71 38.5653 71C38.5653 71 37.0835 72.531 36.7715 72.8217Z" fill="#D6002B"/>
<path d="M18.4075 55.8217C17.7641 56.4031 17.0427 56.8489 16.3602 57.3528C15.5998 57.9148 14.7809 58.4187 14.1765 59.1357C13.6696 59.7365 13.4356 60.3179 13.1821 61.0543C12.9287 61.7907 12.9092 63.3605 13.3186 64.0194C14.508 65.9187 17.8226 67.566 20.0258 63.3993C20.0648 63.3412 20.1233 63.3024 20.1818 63.3024C20.2403 63.3024 20.2988 63.3412 20.3378 63.3993C22.5215 67.566 25.8556 65.9187 27.045 64.0194C27.4544 63.3605 27.4349 61.7907 27.1815 61.0543C26.928 60.3179 26.694 59.7365 26.1871 59.1357C25.5826 58.4187 24.7638 57.9148 24.0033 57.3528C23.3014 56.8295 22.5995 56.3837 21.9561 55.8217C21.6246 55.531 20.2013 54 20.2013 54C20.2013 54 18.7195 55.531 18.4075 55.8217Z" fill="#D6002B"/>
<path d="M36.7715 55.8217C36.1281 56.4031 35.4067 56.8489 34.7243 57.3528C33.9639 57.9148 33.145 58.4187 32.5405 59.1357C32.0336 59.7365 31.7996 60.3179 31.5461 61.0543C31.2927 61.7907 31.2732 63.3605 31.6826 64.0194C32.872 65.9187 36.1866 67.566 38.3898 63.3993C38.4288 63.3412 38.4873 63.3024 38.5458 63.3024C38.6043 63.3024 38.6628 63.3412 38.7018 63.3993C40.8855 67.566 44.2196 65.9187 45.409 64.0194C45.8184 63.3605 45.799 61.7907 45.5455 61.0543C45.292 60.3179 45.058 59.7365 44.5511 59.1357C43.9467 58.4187 43.1278 57.9148 42.3674 57.3528C41.6654 56.8295 40.9635 56.3837 40.3201 55.8217C39.9886 55.531 38.5653 54 38.5653 54C38.5653 54 37.0835 55.531 36.7715 55.8217Z" fill="#D6002B"/>
</svg>
