<svg width="58" height="88" viewBox="0 0 58 88" fill="none" xmlns="http://www.w3.org/2000/svg">
<path d="M53.0874 88H4.91264C2.20253 88 0 85.8072 0 83.1091V4.89089C0 2.19278 2.20253 0 4.91264 0H53.0874C55.7975 0 58 2.18376 58 4.89089V83.1091C58 85.8072 55.8065 88 53.0874 88Z" fill="white"/>
<path d="M50.3137 71.6398C50.3137 71.4955 50.3772 71.2879 50.3681 71.1435C50.3681 70.9992 50.3681 70.8458 50.35 70.7014C50.2956 70.196 50.1143 69.7178 49.7336 69.3839C50.0781 69.3658 50.9301 69.3658 51.2745 69.3839C50.8938 69.7178 50.7125 70.196 50.6582 70.7014C50.64 70.8458 50.64 70.9992 50.64 71.1435C50.64 71.2879 50.6944 71.4955 50.6944 71.6398H50.3137Z" fill="#0C0A35"/>
<path d="M50.4407 71.0894C50.1416 70.6292 49.6068 70.3043 49.0539 70.3224C48.501 70.3404 47.9572 70.7465 47.8484 71.2879C47.7578 71.7662 47.9844 72.2535 48.3198 72.6054C48.6551 72.9573 49.1083 73.1919 49.5162 73.4626C49.9331 73.7334 50.5132 74.4101 50.5132 74.4101C50.5132 74.4101 51.1477 73.7514 51.5103 73.4717C51.9 73.1739 52.3804 72.9573 52.7067 72.5964C53.0421 72.2444 53.2687 71.7481 53.178 71.2789C53.0693 70.7375 52.5345 70.3404 51.9816 70.3133C51.4287 70.2953 50.8939 70.6201 50.5857 71.0804H50.4407V71.0894Z" fill="#0C0A35"/>
<path d="M7.49593 15.9631C7.49593 16.1075 7.44155 16.315 7.44155 16.4594C7.44155 16.6038 7.44154 16.7572 7.45967 16.9015C7.51405 17.3979 7.69533 17.8851 8.07602 18.219C7.73159 18.2371 6.87959 18.2371 6.53516 18.219C6.91584 17.8851 7.09711 17.4069 7.1515 16.9015C7.16962 16.7572 7.16963 16.6038 7.16963 16.4594C7.16963 16.315 7.10618 16.1075 7.11525 15.9631H7.49593Z" fill="#0C0A35"/>
<path d="M7.36896 16.5135C7.66807 16.9737 8.20283 17.2986 8.76479 17.2806C9.31769 17.2625 9.86153 16.8564 9.96124 16.315C10.0519 15.8368 9.82527 15.3495 9.48991 14.9975C9.15454 14.6456 8.70134 14.411 8.29347 14.1403C7.87653 13.8696 7.29644 13.1928 7.29644 13.1928C7.29644 13.1928 6.66196 13.8515 6.29941 14.1313C5.90966 14.429 5.42928 14.6456 5.10298 15.0066C4.76761 15.3585 4.54101 15.8548 4.63165 16.324C4.74042 16.8655 5.27519 17.2625 5.82809 17.2896C6.38099 17.3076 6.91576 16.9828 7.22393 16.5226H7.36896V16.5135Z" fill="#0C0A35"/>
<path d="M4.55021 10.7834L5.37503 10.4857C5.7104 11.2346 6.28142 11.6136 7.08811 11.6136C7.86761 11.6136 8.45675 11.2888 8.8465 10.6391C9.23625 9.98935 9.44473 9.10502 9.45379 7.98607C8.91902 8.96064 8.11233 9.45694 7.04279 9.45694C6.28142 9.45694 5.64694 9.19525 5.1303 8.6809C4.61366 8.16654 4.35986 7.52585 4.35986 6.76786C4.35986 5.99181 4.63179 5.33307 5.17562 4.78262C5.71946 4.23217 6.40832 3.96146 7.2422 3.96146C8.26642 3.96146 9.05498 4.32241 9.60788 5.03529C10.1517 5.75719 10.4327 6.74078 10.4327 8.00411C10.4327 9.32159 10.1426 10.3954 9.56256 11.2166C8.98247 12.0377 8.15765 12.4438 7.08811 12.4438C5.81916 12.4258 4.97622 11.8753 4.55021 10.7834ZM7.26031 8.62676C7.82228 8.62676 8.29361 8.42823 8.6743 8.04021C9.05498 7.65219 9.24531 7.19197 9.24531 6.65957C9.24531 6.14521 9.06404 5.71207 8.70149 5.3421C8.33893 4.97212 7.8676 4.79165 7.26939 4.79165C6.67117 4.79165 6.19984 4.98114 5.84634 5.35112C5.50192 5.73012 5.32064 6.19033 5.32064 6.73176C5.32064 7.30928 5.51098 7.7695 5.90073 8.1124C6.29954 8.4553 6.75273 8.62676 7.26031 8.62676Z" fill="#0C0A35"/>
<path d="M53.2142 77.2256L52.3894 77.5233C52.0541 76.7744 51.483 76.3954 50.6763 76.3954C49.8969 76.3954 49.3077 76.7202 48.9179 77.3699C48.5282 78.0196 48.3197 78.904 48.3107 80.0229C48.8454 79.0484 49.6521 78.5521 50.7307 78.5521C51.4921 78.5521 52.1266 78.8137 52.6432 79.3281C53.1599 79.8425 53.4137 80.4831 53.4137 81.2411C53.4137 82.0172 53.1417 82.6759 52.5979 83.2264C52.0541 83.7768 51.3652 84.0475 50.5313 84.0475C49.5071 84.0475 48.7185 83.6866 48.1656 82.9647C47.6218 82.2428 47.3408 81.2592 47.3408 79.9959C47.3408 78.6784 47.6309 77.6045 48.211 76.7834C48.7911 75.9622 49.6159 75.5562 50.6854 75.5562C51.9453 75.5742 52.7882 76.1246 53.2142 77.2256ZM50.5041 79.3732C49.9422 79.3732 49.4708 79.5717 49.0902 79.9598C48.7095 80.3568 48.5191 80.808 48.5191 81.3404C48.5191 81.8548 48.7004 82.2879 49.063 82.6579C49.4255 83.0278 49.8969 83.2083 50.4951 83.2083C51.0933 83.2083 51.5646 83.0188 51.9181 82.6398C52.2625 82.2608 52.4438 81.8006 52.4438 81.2592C52.4438 80.6726 52.2535 80.2124 51.8637 79.8785C51.4649 79.5447 51.0117 79.3732 50.5041 79.3732Z" fill="#0C0A35"/>
<path d="M20.6566 11.4693C20.6566 11.8392 20.5116 12.3536 20.5116 12.7236C20.5116 13.0936 20.5116 13.4635 20.5569 13.8335C20.6929 15.0878 21.1461 16.288 22.0978 17.1272C21.2458 17.1813 19.0886 17.1813 18.2366 17.1272C19.1792 16.288 19.6324 15.0878 19.7774 13.8335C19.8137 13.4635 19.8228 13.0936 19.8228 12.7236C19.8228 12.3536 19.6777 11.8392 19.6777 11.4693H20.6566Z" fill="#0C0A35"/>
<path d="M20.3393 12.8499C21.1007 14.0049 22.4331 14.8171 23.8198 14.772C25.2066 14.7268 26.5571 13.7162 26.8291 12.3626C27.0647 11.1715 26.4846 9.94423 25.6507 9.05088C24.8169 8.15752 23.6748 7.57098 22.6597 6.90322C21.6173 6.21741 20.158 4.52094 20.158 4.52094C20.158 4.52094 18.5628 6.18131 17.6654 6.8581C16.6956 7.59805 15.4901 8.15752 14.6653 9.05088C13.8314 9.94423 13.2513 11.1715 13.487 12.3626C13.7589 13.7162 15.1094 14.7268 16.4962 14.772C17.883 14.8171 19.2244 14.0049 19.9767 12.8499H20.3393Z" fill="#0C0A35"/>
<path d="M38.3493 11.4693C38.3493 11.8392 38.2042 12.3536 38.2042 12.7236C38.2042 13.0936 38.2042 13.4635 38.2496 13.8335C38.3855 15.0878 38.8387 16.288 39.7904 17.1272C38.9384 17.1813 36.7903 17.1813 35.9292 17.1272C36.8718 16.288 37.325 15.0878 37.4701 13.8335C37.5063 13.4635 37.5154 13.0936 37.5154 12.7236C37.5154 12.3536 37.3704 11.8392 37.3704 11.4693H38.3493Z" fill="#0C0A35"/>
<path d="M38.0322 12.8499C38.7935 14.0049 40.1259 14.8171 41.5127 14.772C42.8995 14.7268 44.25 13.7162 44.5219 12.3626C44.7576 11.1715 44.1775 9.94423 43.3436 9.05088C42.5098 8.15752 41.3677 7.57098 40.3525 6.90322C39.3102 6.21741 37.8509 4.52094 37.8509 4.52094C37.8509 4.52094 36.2556 6.18131 35.3583 6.8581C34.3885 7.59805 33.183 8.15752 32.3582 9.05088C31.5243 9.94423 30.9442 11.1715 31.1798 12.3626C31.4518 13.7162 32.8023 14.7268 34.1891 14.772C35.5759 14.8171 36.9173 14.0049 37.6696 12.8499H38.0322Z" fill="#0C0A35"/>
<path d="M20.6566 28.84C20.6566 29.21 20.5116 29.7243 20.5116 30.0943C20.5116 30.4643 20.5116 30.8343 20.5569 31.2042C20.6929 32.4585 21.1461 33.6587 22.0978 34.4979C21.2458 34.543 19.0886 34.543 18.2366 34.4979C19.1792 33.6587 19.6324 32.4585 19.7774 31.2042C19.8137 30.8343 19.8228 30.4643 19.8228 30.0943C19.8228 29.7243 19.6777 29.21 19.6777 28.84H20.6566Z" fill="#0C0A35"/>
<path d="M20.3393 30.2297C21.1007 31.3848 22.4331 32.1969 23.8198 32.1518C25.2066 32.1067 26.5571 31.096 26.8291 29.7424C27.0647 28.5513 26.4846 27.3241 25.6507 26.4307C24.8169 25.5373 23.6748 24.9508 22.6597 24.283C21.6173 23.5972 20.158 21.9008 20.158 21.9008C20.158 21.9008 18.5628 23.5611 17.6654 24.2379C16.6956 24.9779 15.4901 25.5373 14.6653 26.4307C13.8314 27.3241 13.2513 28.5513 13.487 29.7424C13.7589 31.096 15.1094 32.1067 16.4962 32.1518C17.883 32.1969 19.2244 31.3848 19.9767 30.2297H20.3393Z" fill="#0C0A35"/>
<path d="M38.3493 28.84C38.3493 29.21 38.2042 29.7243 38.2042 30.0943C38.2042 30.4643 38.2042 30.8343 38.2496 31.2042C38.3855 32.4585 38.8387 33.6587 39.7904 34.4979C38.9384 34.543 36.7903 34.543 35.9292 34.4979C36.8718 33.6587 37.325 32.4585 37.4701 31.2042C37.5063 30.8343 37.5154 30.4643 37.5154 30.0943C37.5154 29.7243 37.3704 29.21 37.3704 28.84H38.3493Z" fill="#0C0A35"/>
<path d="M38.0322 30.2297C38.7935 31.3848 40.1259 32.1969 41.5127 32.1518C42.8995 32.1067 44.25 31.096 44.5219 29.7424C44.7576 28.5513 44.1775 27.3241 43.3436 26.4307C42.5098 25.5373 41.3677 24.9508 40.3525 24.283C39.3102 23.5972 37.8509 21.9008 37.8509 21.9008C37.8509 21.9008 36.2556 23.5611 35.3583 24.2379C34.3885 24.9779 33.183 25.5373 32.3582 26.4307C31.5243 27.3241 30.9442 28.5513 31.1798 29.7424C31.4518 31.096 32.8023 32.1067 34.1891 32.1518C35.5759 32.1969 36.9173 31.3848 37.6696 30.2297H38.0322Z" fill="#0C0A35"/>
<path d="M29.5028 44.3609C29.5028 44.7308 29.3578 45.2452 29.3578 45.6152C29.3578 45.9852 29.3578 46.3551 29.4031 46.7251C29.5391 47.9794 29.9923 49.1796 30.944 50.0188C30.092 50.0639 27.9348 50.0639 27.0828 50.0188C28.0254 49.1796 28.4786 47.9794 28.6236 46.7251C28.6599 46.3551 28.6689 45.9852 28.6689 45.6152C28.6689 45.2452 28.5239 44.7308 28.5239 44.3609H29.5028Z" fill="#0C0A35"/>
<path d="M29.1857 45.7416C29.9471 46.8966 31.2795 47.7087 32.6663 47.6636C34.0531 47.6185 35.4036 46.6078 35.6755 45.2543C35.9112 44.0631 35.3311 42.8359 34.4972 41.9425C33.6633 41.0492 32.5212 40.4626 31.5061 39.7949C30.4637 39.1091 29.0045 37.4126 29.0045 37.4126C29.0045 37.4126 27.4092 39.073 26.5119 39.7498C25.542 40.4897 24.3365 41.0492 23.5117 41.9425C22.6778 42.8359 22.0977 44.0631 22.3334 45.2543C22.6053 46.6078 23.9559 47.6185 25.3426 47.6636C26.7294 47.7087 28.0709 46.8966 28.8232 45.7416H29.1857Z" fill="#0C0A35"/>
<path d="M37.3523 76.5307C37.3523 76.1608 37.4973 75.6464 37.4973 75.2764C37.4973 74.9065 37.4973 74.5365 37.452 74.1665C37.3161 72.9122 36.8628 71.712 35.9111 70.8728C36.7631 70.8187 38.9204 70.8187 39.7724 70.8728C38.8297 71.712 38.3765 72.9122 38.2315 74.1665C38.1953 74.5365 38.1862 74.9065 38.1862 75.2764C38.1862 75.6464 38.3312 76.1608 38.3312 76.5307H37.3523Z" fill="#0C0A35"/>
<path d="M37.6696 75.15C36.9082 73.9949 35.5759 73.1828 34.1891 73.2279C32.8023 73.273 31.4518 74.2837 31.1798 75.6373C30.9442 76.8284 31.5243 78.0557 32.3582 78.949C33.192 79.8424 34.3341 80.4289 35.3493 81.0967C36.3916 81.7825 37.8509 83.479 37.8509 83.479C37.8509 83.479 39.4461 81.8186 40.3435 81.1418C41.3133 80.4018 42.5188 79.8424 43.3436 78.949C44.1775 78.0557 44.7576 76.8284 44.5219 75.6373C44.25 74.2837 42.8995 73.273 41.5127 73.2279C40.1259 73.1828 38.7845 73.9949 38.0322 75.15H37.6696Z" fill="#0C0A35"/>
<path d="M19.6594 76.5307C19.6594 76.1608 19.8044 75.6464 19.8044 75.2764C19.8044 74.9065 19.8044 74.5365 19.7591 74.1665C19.6232 72.9122 19.17 71.712 18.2183 70.8728C19.0703 70.8187 21.2275 70.8187 22.0795 70.8728C21.1368 71.712 20.6836 72.9122 20.5386 74.1665C20.5024 74.5365 20.4933 74.9065 20.4933 75.2764C20.4933 75.6464 20.6383 76.1608 20.6383 76.5307H19.6594Z" fill="#0C0A35"/>
<path d="M19.9767 75.15C19.2154 73.9949 17.883 73.1828 16.4962 73.2279C15.1094 73.273 13.7589 74.2837 13.487 75.6373C13.2513 76.8284 13.8314 78.0557 14.6653 78.949C15.4992 79.8424 16.6412 80.4289 17.6564 81.0967C18.6987 81.7825 20.158 83.479 20.158 83.479C20.158 83.479 21.7533 81.8186 22.6506 81.1418C23.6204 80.4018 24.8259 79.8424 25.6507 78.949C26.4756 78.0557 27.0647 76.8284 26.8291 75.6373C26.5571 74.2837 25.2066 73.273 23.8198 73.2279C22.4331 73.1828 21.0916 73.9949 20.3393 75.15H19.9767Z" fill="#0C0A35"/>
<path d="M37.3523 59.1599C37.3523 58.79 37.4973 58.2756 37.4973 57.9056C37.4973 57.5357 37.4973 57.1657 37.452 56.7957C37.3161 55.5414 36.8628 54.3412 35.9111 53.502C36.7631 53.4479 38.9204 53.4479 39.7724 53.502C38.8297 54.3412 38.3765 55.5414 38.2315 56.7957C38.1953 57.1657 38.1862 57.5357 38.1862 57.9056C38.1862 58.2756 38.3312 58.79 38.3312 59.1599H37.3523Z" fill="#0C0A35"/>
<path d="M37.6696 57.7704C36.9082 56.6153 35.5759 55.8032 34.1891 55.8483C32.8023 55.8934 31.4518 56.9041 31.1798 58.2576C30.9442 59.4488 31.5243 60.676 32.3582 61.5694C33.192 62.4627 34.3341 63.0493 35.3493 63.717C36.3916 64.4028 37.8509 66.0993 37.8509 66.0993C37.8509 66.0993 39.4461 64.4389 40.3435 63.7622C41.3133 63.0222 42.5188 62.4627 43.3436 61.5694C44.1775 60.676 44.7576 59.4488 44.5219 58.2576C44.25 56.9041 42.8995 55.8934 41.5127 55.8483C40.1259 55.8032 38.7845 56.6153 38.0322 57.7704H37.6696Z" fill="#0C0A35"/>
<path d="M19.6594 59.1599C19.6594 58.79 19.8044 58.2756 19.8044 57.9056C19.8044 57.5357 19.8044 57.1657 19.7591 56.7957C19.6232 55.5414 19.17 54.3412 18.2183 53.502C19.0703 53.4479 21.2275 53.4479 22.0795 53.502C21.1368 54.3412 20.6836 55.5414 20.5386 56.7957C20.5024 57.1657 20.4933 57.5357 20.4933 57.9056C20.4933 58.2756 20.6383 58.79 20.6383 59.1599H19.6594Z" fill="#0C0A35"/>
<path d="M19.9767 57.7704C19.2154 56.6153 17.883 55.8032 16.4962 55.8483C15.1094 55.8934 13.7589 56.9041 13.487 58.2576C13.2513 59.4488 13.8314 60.676 14.6653 61.5694C15.4992 62.4627 16.6412 63.0493 17.6564 63.717C18.6987 64.4028 20.158 66.0993 20.158 66.0993C20.158 66.0993 21.7533 64.4389 22.6506 63.7622C23.6204 63.0222 24.8259 62.4627 25.6507 61.5694C26.4756 60.676 27.0647 59.4488 26.8291 58.2576C26.5571 56.9041 25.2066 55.8934 23.8198 55.8483C22.4331 55.8032 21.0916 56.6153 20.3393 57.7704H19.9767Z" fill="#0C0A35"/>
</svg>
