<svg width="58" height="88" viewBox="0 0 58 88" fill="none" xmlns="http://www.w3.org/2000/svg">
<path d="M53.0998 88H4.90914C2.19786 88 0 85.8123 0 83.1136V4.8864C0 2.18767 2.19786 0 4.90914 0H53.0908C55.8021 0 58 2.18767 58 4.8864V83.1136C58.009 85.8123 55.8111 88 53.0998 88Z" fill="white"/>
<path d="M7.59338 16.5421C7.59338 16.6855 7.53934 16.8918 7.53934 17.0352C7.53934 17.1787 7.53934 17.3221 7.55735 17.4656C7.6114 17.9587 7.79155 18.4249 8.16086 18.7567C7.82758 18.7746 6.98987 18.7746 6.64758 18.7567C7.01689 18.4249 7.19705 17.9587 7.25109 17.4656C7.26911 17.3221 7.26911 17.1787 7.26911 17.0352C7.26911 16.8918 7.21506 16.6855 7.21506 16.5421H7.59338Z" fill="#0C0A35"/>
<path d="M7.48539 16.9007C7.62951 16.9186 7.71058 17.0531 7.96279 17.331C8.19699 17.5821 8.42218 17.851 8.94462 17.9138C9.20584 17.9497 9.56614 17.8062 9.72828 17.591C9.86339 17.4117 9.94446 17.1876 9.99851 16.9724C10.1066 16.56 10.0706 16.1565 9.86339 15.7799C9.65622 15.4123 9.11576 15.242 8.78248 15.4482C8.60233 15.5558 8.53928 15.6903 8.37714 15.7172C8.32309 15.7261 8.28706 15.6813 8.29607 15.6275C8.35912 15.3765 8.53928 15.3496 8.62034 15.0447C8.71943 14.6861 8.77347 14.4171 8.26905 13.9688C7.88172 13.6281 6.93592 13.664 6.53058 13.9688C6.11623 14.2826 6.07119 14.5695 6.17028 14.9282C6.25134 15.2061 6.40447 15.3316 6.48554 15.5737C6.51256 15.6544 6.4315 15.7351 6.35944 15.6992C6.24234 15.6544 6.17028 15.5379 6.01715 15.4482C5.67486 15.242 5.12539 15.4034 4.92723 15.7799C4.72005 16.1565 4.68402 16.56 4.79211 16.9724C4.84616 17.1876 4.92723 17.4117 5.06234 17.591C5.22448 17.8062 5.57577 17.9497 5.846 17.9138C6.36844 17.851 6.59363 17.5821 6.82783 17.331C7.08004 17.0531 7.16111 16.9186 7.30523 16.9007H7.48539Z" fill="#0C0A35"/>
<path d="M10.6469 12.2563H9.60204L8.78235 9.87138H5.73778L5.00816 12.2563H4.14343L6.80068 4.10632H7.96266L10.6469 12.2563ZM8.55716 9.11824L7.28709 5.20016L6.01701 9.11824H8.55716Z" fill="#0C0A35"/>
<path d="M50.3976 71.4579C50.3976 71.3145 50.4516 71.1083 50.4516 70.9648C50.4516 70.8214 50.4516 70.6779 50.4336 70.5344C50.3795 70.0413 50.1994 69.5751 49.8301 69.2434C50.1634 69.2254 51.0011 69.2254 51.3434 69.2434C50.974 69.5751 50.7939 70.0413 50.7398 70.5344C50.7218 70.6779 50.7218 70.8214 50.7218 70.9648C50.7218 71.1083 50.7759 71.3145 50.7759 71.4579H50.3976Z" fill="#0C0A35"/>
<path d="M50.4966 71.0992C50.3525 71.0813 50.2714 70.9468 50.0192 70.6689C49.785 70.4178 49.5598 70.1489 49.0374 70.0861C48.7762 70.0502 48.4159 70.1937 48.2537 70.4089C48.1186 70.5882 48.0376 70.8123 47.9835 71.0275C47.8754 71.4399 47.9115 71.8434 48.1186 72.22C48.3168 72.5876 48.8663 72.7579 49.1995 72.5517C49.3797 72.4441 49.4428 72.3096 49.6049 72.2827C49.6589 72.2738 49.695 72.3186 49.686 72.3724C49.6229 72.6234 49.4428 72.6503 49.3617 72.9552C49.2626 73.3048 49.2086 73.5828 49.713 74.0311C50.1003 74.3718 51.0461 74.3359 51.4514 74.0311C51.8658 73.7173 51.9108 73.4304 51.8118 73.0717C51.7307 72.7938 51.5776 72.6683 51.4965 72.4262C51.4695 72.3455 51.5505 72.2648 51.6226 72.3007C51.7397 72.3455 51.8117 72.462 51.9649 72.5517C52.2982 72.749 52.8476 72.5876 53.0458 72.22C53.253 71.8434 53.289 71.4399 53.1809 71.0275C53.1269 70.8123 53.0458 70.5882 52.9107 70.4089C52.7485 70.1937 52.3972 70.0502 52.127 70.0861C51.6046 70.1489 51.3794 70.4178 51.1452 70.6689C50.884 70.9468 50.8119 71.0813 50.6678 71.0992H50.4966Z" fill="#0C0A35"/>
<path d="M47.389 75.7436H48.4339L49.2536 78.1285H52.2892L53.0188 75.7436H53.8745L51.2173 83.8936H50.0553L47.389 75.7436ZM49.4788 78.8906L50.7489 82.8087L52.0189 78.8906H49.4788Z" fill="#0C0A35"/>
<path d="M28.5091 44.7577C28.5091 45.1253 28.6532 45.6453 28.6532 46.0129C28.6532 46.3805 28.6532 46.757 28.6082 47.1157C28.4731 48.3709 28.0137 49.5634 27.0679 50.4062C27.9236 50.46 30.0674 50.46 30.9231 50.4062C29.9773 49.5634 29.5269 48.3709 29.3828 47.1157C29.3468 46.7481 29.3378 46.3805 29.3378 46.0129C29.3378 45.6453 29.4819 45.1253 29.4819 44.7577H28.5091Z" fill="#0C0A35"/>
<path d="M28.7703 45.6722C28.41 45.726 28.2028 46.0667 27.5453 46.775C26.9508 47.4115 26.3653 48.0929 25.0322 48.2543C24.3566 48.335 23.4468 47.9764 23.0325 47.4295C22.6812 46.9632 22.492 46.4074 22.3479 45.8425C22.0687 44.7935 22.1768 43.7535 22.6902 42.7941C23.2036 41.8437 24.5998 41.4223 25.4645 41.9424C25.9239 42.2203 26.0771 42.552 26.5004 42.6327C26.6265 42.6596 26.7436 42.5341 26.7076 42.4086C26.5364 41.763 26.0861 41.6913 25.8699 40.9202C25.6177 40.0147 25.4735 39.3154 26.7706 38.1767C27.7615 37.307 30.1755 37.3877 31.2204 38.1767C32.2833 38.9836 32.3914 39.7099 32.1302 40.6244C31.932 41.3416 31.5176 41.6644 31.3285 42.2651C31.2654 42.4713 31.4636 42.6686 31.6618 42.5879C31.968 42.4624 32.1392 42.1844 32.5355 41.9513C33.4002 41.4403 34.7874 41.8617 35.3098 42.8031C35.8323 43.7624 35.9314 44.8025 35.6521 45.8515C35.508 46.4074 35.3098 46.9722 34.9676 47.4384C34.5622 47.9854 33.6524 48.353 32.9679 48.2633C31.6347 48.1019 31.0493 47.4205 30.4547 46.7839C29.7972 46.0756 29.599 45.7349 29.2297 45.6811H28.7703V45.6722Z" fill="#0C0A35"/>
</svg>
