<svg width="58" height="88" viewBox="0 0 58 88" fill="none" xmlns="http://www.w3.org/2000/svg">
<path d="M53.0991 88H4.90991C2.1982 88 0 85.8119 0 83.1126V4.88739C0 2.18812 2.1982 0 4.90991 0H53.0901C55.8018 0 58 2.18812 58 4.88739V83.1126C58.009 85.8119 55.8108 88 53.0991 88Z" fill="white"/>
<path d="M28.7387 50.7661C28.9639 50.7661 29.1801 50.7034 29.3603 50.5868C30.7657 49.6541 34.3873 45.8518 35.4414 44.7847C35.6396 44.5874 35.8468 44.3363 35.8107 44.0493C35.7837 43.8251 35.6125 43.6458 35.4504 43.4844C33.8738 41.915 32.2071 40.4354 30.7206 38.7853C30.081 38.0768 29.3242 37.2518 28.8468 37.2249H28.6035C28.1261 37.2518 27.3693 38.0768 26.7297 38.7853C25.2432 40.4354 23.5765 41.915 21.9999 43.4844C21.8378 43.6458 21.6666 43.8251 21.6396 44.0493C21.6125 44.3273 21.8107 44.5784 22.0089 44.7847C23.063 45.8518 26.6846 49.6541 28.09 50.5868C28.2972 50.7123 28.5134 50.7661 28.7387 50.7661Z" fill="#D6002B"/>
<path d="M7.39635 17.8816C7.45941 17.8816 7.53149 17.8636 7.58554 17.8278C8.00896 17.5498 9.11707 16.3929 9.43239 16.0701C9.49545 16.0073 9.55851 15.9356 9.54049 15.8459C9.53149 15.7741 9.47743 15.7203 9.43239 15.6755C8.95491 15.2002 8.45041 14.7518 7.99995 14.2496C7.80176 14.0344 7.57653 13.7833 7.43239 13.7744H7.36032C7.21617 13.7833 6.98194 14.0344 6.79275 14.2496C6.3423 14.7518 5.83779 15.2002 5.36032 15.6755C5.31527 15.7203 5.26122 15.7831 5.25221 15.8459C5.2432 15.9356 5.30626 16.0073 5.36032 16.0701C5.67563 16.384 6.77473 17.5408 7.20716 17.8278C7.26122 17.8636 7.32428 17.8816 7.39635 17.8816Z" fill="#D6002B"/>
<path d="M50.6396 73.9027C50.7027 73.9027 50.7748 73.8848 50.8288 73.8489C51.2522 73.5709 52.3604 72.4141 52.6757 72.0913C52.7387 72.0285 52.8018 71.9567 52.7838 71.8671C52.7748 71.7953 52.7207 71.7415 52.6757 71.6967C52.1982 71.2214 51.6937 70.773 51.2432 70.2708C51.045 70.0556 50.8198 69.8045 50.6757 69.7955H50.6036C50.4595 69.8045 50.2252 70.0556 50.036 70.2708C49.5856 70.773 49.0811 71.2214 48.6036 71.6967C48.5586 71.7415 48.5045 71.8043 48.4955 71.8671C48.4865 71.9567 48.5495 72.0285 48.6036 72.0913C48.9189 72.4141 50.027 73.5709 50.4504 73.8489C50.5045 73.8848 50.5676 73.9027 50.6396 73.9027Z" fill="#D6002B"/>
<path d="M10.6397 12.2588H9.59461L8.77479 9.87341H5.73876L5.00903 12.2588H4.14417L6.80182 4.11615H7.96398L10.6397 12.2588ZM8.55858 9.11116L7.28831 5.20124L6.01804 9.12012H8.55858V9.11116Z" fill="#D6002B"/>
<path d="M47.3873 75.7411H48.4324L49.2522 78.1265H52.2882L53.018 75.7411H53.8738L51.2162 83.8838H50.054L47.3873 75.7411ZM49.4774 78.8888L50.7477 82.8077L52.018 78.8888H49.4774Z" fill="#D6002B"/>
</svg>
