<svg width="58" height="88" viewBox="0 0 58 88" fill="none" xmlns="http://www.w3.org/2000/svg">
<path d="M53.0991 88H4.90991C2.1982 88 0 85.8119 0 83.1126V4.88739C0 2.18812 2.1982 0 4.90991 0H53.0901C55.8018 0 58 2.18812 58 4.88739V83.1126C58.009 85.8119 55.8108 88 53.0991 88Z" fill="white"/>
<path d="M10.6397 12.2588H9.59461L8.77479 9.87341H5.73876L5.00903 12.2588H4.14417L6.80182 4.11615H7.96398L10.6397 12.2588ZM8.55858 9.11116L7.28831 5.20124L6.01804 9.12012H8.55858V9.11116Z" fill="#D6002B"/>
<path d="M47.3873 75.7411H48.4324L49.2522 78.1266H52.2882L53.018 75.7411H53.8738L51.2162 83.8838H50.054L47.3873 75.7411ZM49.4774 78.8888L50.7477 82.8077L52.018 78.8888H49.4774Z" fill="#D6002B"/>
<path d="M8.32447 17.7781C8.5633 17.5623 8.83109 17.3968 9.0844 17.2098C9.36666 17.0012 9.67062 16.8141 9.89498 16.548C10.0831 16.325 10.17 16.1092 10.2641 15.8358C10.3582 15.5624 10.3654 14.9797 10.2134 14.7352C9.77195 14.0302 8.5416 13.4187 7.72378 14.9654C7.7093 14.9869 7.6876 15.0013 7.66589 15.0013C7.64418 15.0013 7.62245 14.9869 7.60798 14.9654C6.7974 13.4187 5.55981 14.0302 5.11833 14.7352C4.96635 14.9797 4.97358 15.5624 5.06767 15.8358C5.16175 16.1092 5.24861 16.325 5.43678 16.548C5.66114 16.8141 5.9651 17.0012 6.24736 17.2098C6.5079 17.404 6.76846 17.5695 7.00729 17.7781C7.13032 17.886 7.65865 18.4543 7.65865 18.4543C7.65865 18.4543 8.20867 17.886 8.32447 17.7781Z" fill="#D6002B"/>
<path d="M30.9562 48.1783C31.5997 47.5969 32.3211 47.1511 33.0035 46.6472C33.7639 46.0852 34.5828 45.5813 35.1872 44.8643C35.6942 44.2635 35.9282 43.6821 36.1816 42.9457C36.4351 42.2093 36.4546 40.6395 36.0451 39.9806C34.8558 38.0813 31.5412 36.434 29.338 40.6007C29.299 40.6588 29.2405 40.6976 29.182 40.6976C29.1235 40.6976 29.065 40.6588 29.026 40.6007C26.8423 36.434 23.5082 38.0813 22.3188 39.9806C21.9093 40.6395 21.9288 42.2093 22.1823 42.9457C22.4358 43.6821 22.6698 44.2635 23.1767 44.8643C23.7811 45.5813 24.6 46.0852 25.3604 46.6472C26.0623 47.1705 26.7643 47.6163 27.4077 48.1783C27.7392 48.469 29.1625 50 29.1625 50C29.1625 50 30.6443 48.469 30.9562 48.1783Z" fill="#D6002B"/>
<path d="M50.0073 69.6761C49.7685 69.892 49.5007 70.0574 49.2474 70.2445C48.9651 70.4531 48.6612 70.6401 48.4368 70.9063C48.2486 71.1293 48.1618 71.3451 48.0677 71.6184C47.9736 71.8918 47.9664 72.4745 48.1184 72.7191C48.5598 73.424 49.7902 74.0355 50.608 72.4889C50.6225 72.4673 50.6442 72.4529 50.6659 72.4529C50.6876 72.4529 50.7093 72.4673 50.7238 72.4889C51.5344 74.0355 52.772 73.424 53.2135 72.7191C53.3654 72.4745 53.3582 71.8918 53.2641 71.6184C53.17 71.3451 53.0832 71.1293 52.895 70.9063C52.6707 70.6401 52.3667 70.4531 52.0844 70.2445C51.8239 70.0502 51.5633 69.8848 51.3245 69.6761C51.2015 69.5682 50.6731 68.9999 50.6731 68.9999C50.6731 68.9999 50.1231 69.5682 50.0073 69.6761Z" fill="#D6002B"/>
</svg>
