<svg width="58" height="88" viewBox="0 0 58 88" fill="none" xmlns="http://www.w3.org/2000/svg">
<path d="M53.0874 88H4.91264C2.20253 88 0 85.8072 0 83.1091V4.89089C0 2.19278 2.20253 0 4.91264 0H53.0874C55.7975 0 58 2.19278 58 4.89089V83.1091C57.9909 85.8072 55.7975 88 53.0874 88Z" fill="white"/>
<path d="M50.3137 71.6398C50.3137 71.4955 50.3772 71.2879 50.3681 71.1435C50.3681 70.9992 50.3681 70.8458 50.35 70.7014C50.2956 70.196 50.1143 69.7268 49.7336 69.3839C50.0781 69.3658 50.9301 69.3658 51.2745 69.3839C50.8938 69.7178 50.7125 70.196 50.6582 70.7014C50.64 70.8458 50.64 70.9992 50.64 71.1435C50.64 71.2879 50.6944 71.4955 50.6944 71.6398H50.3137Z" fill="#0C0A35"/>
<path d="M50.4407 71.0894C50.1416 70.6292 49.6068 70.3043 49.0449 70.3224C48.492 70.3404 47.9481 70.7465 47.8484 71.2879C47.7578 71.7662 47.9844 72.2535 48.3198 72.6054C48.6551 72.9573 49.1083 73.1919 49.5162 73.4626C49.9331 73.7334 50.5132 74.4101 50.5132 74.4101C50.5132 74.4101 51.1477 73.7514 51.5103 73.4717C51.9 73.1739 52.3804 72.9573 52.7067 72.5964C53.0421 72.2444 53.2687 71.7481 53.178 71.2789C53.0693 70.7375 52.5345 70.3314 51.9816 70.3133C51.4287 70.2953 50.8939 70.6201 50.5857 71.0804H50.4407V71.0894Z" fill="#0C0A35"/>
<path d="M47.2593 75.7457H48.3016L49.1264 78.1279H52.1629L52.897 75.7457H53.7581L51.1024 83.8941H49.9422L47.2593 75.7457ZM49.353 78.8859L50.622 82.8023L51.8909 78.8859H49.353Z" fill="#0C0A35"/>
<path d="M7.49581 15.9631C7.49581 16.1075 7.43236 16.315 7.44143 16.4594C7.44143 16.6038 7.44143 16.7572 7.45955 16.9015C7.51394 17.4069 7.69522 17.8851 8.0759 18.219C7.73147 18.2371 6.87946 18.2371 6.53503 18.219C6.91572 17.8851 7.097 17.4069 7.15138 16.9015C7.16951 16.7572 7.16951 16.6038 7.16951 16.4594C7.16951 16.315 7.11512 16.1075 7.11512 15.9631H7.49581Z" fill="#0C0A35"/>
<path d="M7.36898 16.5135C7.66809 16.9737 8.20286 17.2986 8.76483 17.2806C9.31773 17.2625 9.86156 16.8564 9.97033 16.315C10.061 15.8368 9.83437 15.3495 9.499 14.9975C9.16364 14.6456 8.71044 14.411 8.30257 14.1403C7.88563 13.8696 7.30554 13.1928 7.30554 13.1928C7.30554 13.1928 6.67106 13.8515 6.3085 14.1313C5.91876 14.429 5.43837 14.6456 5.11207 15.0066C4.76764 15.3585 4.53198 15.8458 4.63168 16.324C4.74045 16.8655 5.27522 17.2715 5.83718 17.2896C6.39008 17.3076 6.92485 16.9828 7.23302 16.5226H7.36898V16.5135Z" fill="#0C0A35"/>
<path d="M29.4939 44.6226C29.4939 44.9926 29.3489 45.5069 29.3489 45.8769C29.3489 46.2469 29.3489 46.6168 29.3942 46.9868C29.5302 48.2411 29.9834 49.4413 30.9351 50.2805C30.0831 50.3346 27.9259 50.3346 27.0739 50.2805C28.0165 49.4413 28.4697 48.2411 28.6147 46.9868C28.651 46.6168 28.66 46.2469 28.66 45.8769C28.66 45.5069 28.515 44.9926 28.515 44.6226H29.4939Z" fill="#0C0A35"/>
<path d="M29.1767 46.0123C29.9381 47.1674 31.2705 47.9795 32.6572 47.9344C34.044 47.8893 35.3945 46.8786 35.6665 45.525C35.9021 44.3339 35.322 43.1066 34.4882 42.2133C33.6543 41.3199 32.5122 40.7334 31.4971 40.0656C30.4547 39.3798 28.9954 37.6833 28.9954 37.6833C28.9954 37.6833 27.4002 39.3437 26.5028 40.0205C25.533 40.7605 24.3275 41.3199 23.5027 42.2133C22.6688 43.1066 22.0887 44.3339 22.3244 45.525C22.5963 46.8786 23.9468 47.8893 25.3336 47.9344C26.7204 47.9795 28.0618 47.1674 28.8141 46.0123H29.1767Z" fill="#0C0A35"/>
<path d="M10.5413 12.2634H9.49896L8.67414 9.8811H5.63773L4.90355 12.2634H4.04248L6.70727 4.1149H7.86745L10.5413 12.2634ZM8.45661 9.11408L7.18766 5.19775L5.91871 9.11408H8.45661Z" fill="#0C0A35"/>
</svg>
