<svg width="58" height="88" viewBox="0 0 58 88" fill="none" xmlns="http://www.w3.org/2000/svg">
<path d="M53.0868 88H4.91317C2.19724 88 0 85.8127 0 83.1091V4.89086C0 2.19443 2.19724 0 4.91317 0H53.0868C55.7956 0 58 2.18725 58 4.89086V83.1091C58 85.8127 55.8028 88 53.0868 88Z" fill="white"/>
<path d="M30.6749 28.4775C31.8131 28.499 32.8937 28.8361 33.9599 29.1731C36.5174 29.9907 38.5417 30.1915 40.9839 31.1309C46.2933 33.1604 52.5536 34.0784 51.8404 45.2012C51.5451 49.8267 49.7513 50.0849 46.1492 54.6961C45.364 55.7001 40.7246 52.9965 39.2117 53.0251C30.538 53.1973 24.0831 53.4554 15.4166 53.6347C15.1717 53.6419 14.6098 53.8427 14.4729 53.6849C13.9038 53.0251 8.88975 45.6028 8.42149 41.5294C8.13332 39.0625 8.71685 37.621 9.54532 36.2011C10.0568 35.319 12.2685 33.7126 13.2122 33.1174C14.7827 32.1134 16.6413 31.468 18.5144 30.923C21.3816 30.0911 24.8612 29.5891 27.786 28.9078C28.7298 28.6783 29.6879 28.456 30.6749 28.4775Z" fill="#990028"/>
<path d="M27.9662 59.5152C26.8279 59.4937 25.7401 59.1567 24.6811 58.8196C22.1237 58.0021 20.0057 58.7407 17.5347 57.8873C10.6548 55.5064 6.36115 50.802 8.34947 39.3278C9.14192 34.7596 11.3103 39.8728 14.9124 35.2688C15.6976 34.2648 17.9093 35.0035 19.4149 34.9748C28.0886 34.8027 34.5363 34.5445 43.21 34.3652C43.4549 34.358 44.0168 34.1572 44.1537 34.315C44.7228 34.9748 49.7369 42.3972 50.2051 46.4705C50.4933 48.9375 49.9098 50.3789 49.0741 51.7988C48.5626 52.6809 46.351 54.2873 45.4072 54.8825C43.8367 55.8865 41.9853 56.5319 40.105 57.077C37.2378 57.9089 33.7582 58.4108 30.8334 59.0921C29.9041 59.3144 28.9459 59.5368 27.9662 59.5152Z" fill="#990028"/>
<path d="M28.0958 29.0943C26.0067 28.1046 24.0183 28.5636 21.994 29.4457C20.5388 30.0768 20.2146 32.1708 20.9494 33.4186C21.7563 34.7955 23.5573 35.2402 24.9404 34.4585C26.194 33.7485 27.3898 33.1461 28.5065 32.221C29.443 31.4322 29.1981 29.6106 28.0958 29.0943Z" fill="#0C0A35"/>
<path d="M29.8536 27.8752C28.7514 28.5134 28.0382 29.6178 27.5051 30.7437C26.7703 32.2927 27.044 33.8991 27.5843 35.4409C28.2255 37.2697 30.7902 37.8147 32.3606 37.033C34.1617 36.1366 34.7308 34.0497 33.9599 32.2784C34.3778 33.2322 34.0464 32.4648 34.0032 32.1134C33.9383 31.5469 33.6862 30.8728 33.4845 30.3708C33.2107 29.6823 32.9802 28.9293 32.4399 28.3915C31.7843 27.7317 30.7253 27.3732 29.8536 27.8752Z" fill="#0C0A35"/>
<path d="M30.9775 31.174C31.5971 31.9987 32.3823 32.386 33.2684 32.8593C34.421 33.476 35.7898 34.2004 37.1154 34.1287C38.3905 34.0641 39.5071 33.3111 39.8529 32.0489C40.2203 30.7079 39.5792 29.6394 38.549 28.8577C36.8992 27.5955 32.6849 27.5668 31.2296 29.2091C30.783 29.7111 30.5308 30.5788 30.9775 31.174Z" fill="#0C0A35"/>
<path d="M32.4256 2.07247C32.0437 2.58164 31.6691 3.11232 31.3161 3.643C31.2081 3.65735 31.1216 3.57845 31.0496 3.49957C30.6101 3.01909 30.2571 2.64617 29.969 2.06529C29.9113 1.95055 29.8393 1.81431 29.9041 1.69957C29.9618 1.58482 30.6606 0.896375 30.9127 0.717091C31.0063 0.645377 31.1072 0.573654 31.2297 0.573654C31.381 0.573654 31.5034 0.688395 31.6115 0.795965C31.7772 0.968078 31.9429 1.14019 32.0942 1.31231C32.2743 1.52028 32.5913 1.85733 32.4256 2.07247Z" fill="#B70027"/>
<path d="M35.0838 25.6879C35.0478 26.4337 35.019 27.1867 35.0838 27.9325C35.1847 29.0369 35.091 29.5102 35.1271 30.4927C35.1343 30.6576 34.7741 32.0776 33.2108 32.5365C31.136 33.1461 29.7024 33.1318 28.1823 32.3573C27.9518 32.2425 27.5124 32.0059 27.2602 31.6186C27.1233 31.4035 27.1089 30.5859 27.1233 30.3349C27.2026 29.123 27.0585 27.8895 26.6911 26.7277C26.6407 26.5699 26.5758 26.3978 26.4389 26.3046C26.2877 26.2042 26.0932 26.2257 25.9131 26.2401C25.1782 26.3046 24.4362 26.2329 23.723 26.0393C23.4925 25.9747 23.2619 25.8958 23.1035 25.7166C22.8657 25.4512 22.8657 25.064 22.8801 24.7054C22.945 23.1851 22.628 22.554 23.2259 20.1444C22.9306 20.1946 22.628 20.252 22.347 20.1659C22.0661 20.0799 21.8139 19.8002 21.8716 19.5061C21.9076 19.3268 22.0445 19.1834 22.1741 19.0543C22.6064 18.6025 23.0026 18.1221 23.3556 17.6057C23.5285 17.3476 23.7014 17.0822 23.759 16.7738C23.8095 16.5228 23.7806 16.2575 23.7446 15.9993C23.651 15.2033 23.5573 14.4073 23.4637 13.6113C23.4204 13.2527 23.6726 13.1021 24.0184 13.0017C26.2877 12.3276 28.6722 12.0264 31.0423 12.1196C31.3593 12.134 31.6763 12.1555 31.9789 12.2559C32.7497 12.5212 33.218 13.2957 33.4917 14.0559C33.7006 14.6296 33.8303 15.232 33.96 15.8344C34.1977 16.9388 34.4355 18.0503 34.6732 19.1619C34.983 20.589 35.2928 22.0376 35.2567 23.5006C35.2567 24.2393 35.1199 24.9636 35.0838 25.6879Z" fill="#FFD6A1"/>
<path d="M27.7284 23.1635C27.8221 23.1635 27.9085 23.0918 27.9085 22.9986C27.9157 22.7691 27.7788 22.5396 27.6492 22.3316C27.289 21.7794 26.936 21.2272 26.5758 20.675C26.4965 20.5531 26.4173 20.4312 26.2948 20.3523C26.1219 20.2448 25.8193 20.1228 25.6104 20.13C24.7171 20.1659 24.1264 20.1229 23.2331 20.1587C23.053 20.1659 22.8657 20.173 22.7072 20.2663C22.5775 20.338 22.4766 20.4671 22.383 20.5818C21.9507 21.134 20.5459 22.5324 20.4595 22.9197C20.3875 23.2137 25.5023 23.142 27.7284 23.1635Z" fill="#B70027"/>
<path d="M30.4156 23.4648C30.6029 23.0775 30.5813 22.6185 30.7109 22.2098C30.8334 21.8225 31.2152 21.4425 31.5971 21.5285C31.6403 21.5357 31.6691 21.5787 31.6691 21.6146C31.7483 22.4966 31.7772 23.3787 31.7555 24.268C31.7483 24.5907 31.7339 24.9134 31.5971 25.2074C31.4746 25.4656 30.891 26.0536 30.3219 26.656C29.2485 27.7891 28.737 27.9541 27.5484 28.9652C26.8135 29.5891 26.0715 30.2202 25.3367 30.8441C25.1206 31.0306 24.8973 31.217 24.6307 31.3103C24.3642 31.4107 24.04 31.3963 23.8238 31.2099C23.6149 31.0306 23.5573 30.7366 23.5213 30.464C23.3484 29.0728 23.0458 26.6274 22.8873 25.3078C22.8513 24.9994 23.0098 25.3078 23.723 25.3437C25.3871 25.4297 26.9216 24.9779 28.5425 24.5763C29.2701 24.4042 30.0914 24.146 30.4156 23.4648Z" fill="#B70027"/>
<path d="M32.7353 16.8743C31.8852 17.405 31.0352 17.7994 30.0338 17.8424C28.7227 17.8998 27.3827 17.2687 27.3611 17.1683C27.3467 17.0894 27.3899 17.0105 27.4403 16.946C27.6132 16.7308 27.8654 16.5803 28.1175 16.4583C29.4431 15.8344 31.0568 15.8703 32.3535 16.5444C32.5048 16.6304 32.6561 16.7237 32.7353 16.8743Z" fill="white"/>
<path d="M32.6992 14.9164C31.208 14.2495 29.443 14.1993 27.9229 14.8088C27.5123 14.9738 27.1377 15.2176 26.8495 15.5475C26.7486 15.6622 26.655 15.7985 26.6478 15.9491C26.6406 16.114 26.7558 16.2933 26.9287 16.2933C27.0296 16.2933 27.1161 16.2288 27.1953 16.1786C28.6577 15.1674 30.6316 14.9451 32.2886 15.5905C32.4327 15.6479 32.5983 15.5905 32.6704 15.4543L32.8001 15.2104C32.8505 15.1029 32.8073 14.9666 32.6992 14.9164Z" fill="#0C0A35"/>
<path d="M29.3422 16.6519C29.2197 16.8383 29.2197 17.0894 29.335 17.2758C29.4142 17.4049 29.5655 17.4838 29.7168 17.5125C29.9689 17.5698 30.2571 17.5411 30.466 17.3977C30.6461 17.2686 30.7542 16.9818 30.6749 16.7738C30.6101 16.6017 30.5236 16.3077 29.9329 16.322C29.7168 16.322 29.4646 16.4654 29.3422 16.6519Z" fill="#0C0A35"/>
<path d="M33.4557 17.62C33.5349 18.3515 33.6069 19.083 33.6862 19.8217C33.9816 22.6257 34.2769 25.4225 34.6443 28.2193C34.6587 28.3484 34.702 28.499 34.8244 28.5349C34.9109 28.5636 34.9973 28.5206 35.0766 28.4775C37.1802 27.3803 39.291 26.2759 41.2721 24.9707C41.6971 24.691 42.1438 24.3612 42.2662 23.8663C42.3815 23.4002 42.1726 22.9197 41.9637 22.4822C40.7822 20.0368 39.4711 17.6416 38.585 15.0742C38.34 14.3714 38.1311 13.6543 37.7637 13.0017C37.6556 12.808 37.5332 12.6216 37.3531 12.4853C37.173 12.3491 36.9424 12.2917 36.7191 12.2344C35.3719 11.8973 33.9888 11.7108 32.6056 11.675C32.5479 12.134 32.6704 12.5929 32.7785 13.0447C33.1315 14.5507 33.2972 16.0854 33.4557 17.62Z" fill="#990028"/>
<path d="M35.7827 8.40482C36.0564 8.82794 36.0708 9.37296 36.3374 9.79607C36.5751 10.169 36.9209 10.5204 36.9281 10.9579C36.6616 11.1587 36.3014 11.1658 35.97 11.1658C32.2383 11.1658 28.5138 11.173 24.7821 11.173C24.7316 11.173 24.6812 11.173 24.638 11.1587C24.4291 11.0798 24.4939 10.7714 24.602 10.5778C25.1783 9.47338 27.9302 5.7586 28.7011 5.01278C29.1405 4.58966 29.5728 4.15938 30.0122 3.73627C30.4156 3.34184 30.9271 2.91874 31.4674 3.06934C31.6259 3.11237 32.757 3.77928 35.7827 8.40482Z" fill="#990028"/>
<path d="M21.713 20.2305C21.4033 20.6966 21.3168 21.3133 21.1511 21.844C20.863 22.762 20.4451 23.7373 20.2866 24.6767C20.2722 24.7771 20.4019 24.8918 20.4811 24.7914C21.4537 23.5436 21.2736 21.6934 21.8571 20.2878C21.9003 20.2089 21.7635 20.1587 21.713 20.2305Z" fill="#0C0A35"/>
<path d="M22.592 18.911C22.1022 19.6855 22.0013 20.5747 21.8428 21.464C21.6339 22.6401 21.2088 23.766 20.9639 24.9349C20.9351 25.0568 21.0936 25.1214 21.1656 25.021C22.3471 23.3931 22.2174 20.8401 22.6713 18.9468C22.6857 18.8966 22.6209 18.8679 22.592 18.911Z" fill="#0C0A35"/>
<path d="M23.125 19.0042C22.9089 20.6895 22.5847 22.3461 22.4911 24.0457C22.4911 24.1031 22.5703 24.1389 22.6063 24.0959C23.0458 23.5508 23.0458 22.762 23.1034 22.0951C23.1899 21.0839 23.3772 20.0225 23.2691 19.0114C23.2619 18.911 23.1394 18.911 23.125 19.0042Z" fill="#0C0A35"/>
<path d="M23.8887 19.083C23.6005 19.9866 23.6654 20.8687 23.6365 21.801C23.6149 22.6902 23.4348 23.5723 23.406 24.4615C23.406 24.5691 23.5573 24.6121 23.6077 24.5189C24.5082 22.9197 23.831 20.84 24.0616 19.1332C24.0832 19.0185 23.9247 18.9683 23.8887 19.083Z" fill="#0C0A35"/>
<path d="M24.7892 18.5954C24.6091 19.542 24.5947 20.4528 24.6235 21.4137C24.6524 22.5253 24.4867 23.7444 24.8397 24.8129C24.8685 24.9062 25.0054 24.9133 25.0342 24.8129C25.6609 22.8265 24.7244 20.6392 24.9405 18.6169C24.9549 18.5308 24.8036 18.5093 24.7892 18.5954Z" fill="#0C0A35"/>
<path d="M25.8122 19.1475C25.6104 20.6894 25.7185 22.4966 26.1147 24.0025C26.1363 24.0886 26.2804 24.0958 26.302 24.0025C26.6406 22.4535 26.0283 20.7181 25.9707 19.1475C25.9634 19.04 25.8266 19.0471 25.8122 19.1475Z" fill="#0C0A35"/>
<path d="M26.9361 20.0297C26.7704 21.2919 26.6407 22.7333 27.0441 23.9668C27.0657 24.0313 27.1738 24.06 27.2098 23.9883C27.4476 23.4504 27.3611 22.8911 27.2963 22.3245C27.2098 21.5644 27.217 20.797 27.1162 20.0368C27.0946 19.9149 26.9505 19.9149 26.9361 20.0297Z" fill="#0C0A35"/>
<path d="M23.4924 24.3612C23.3916 25.9891 23.6293 27.7031 23.8094 29.3238C23.9175 30.3421 23.8166 31.5613 24.3281 32.4792C24.3785 32.5724 24.5154 32.5079 24.4938 32.4075C23.9535 29.8043 23.9535 27.0003 23.6221 24.3612C23.6077 24.2823 23.4924 24.2751 23.4924 24.3612Z" fill="#0C0A35"/>
<path d="M24.4651 24.7484C24.2345 26.9715 24.4434 29.8616 25.1855 31.9915C25.2071 32.056 25.3151 32.0704 25.3295 31.9915C25.5168 31.0234 25.3656 30.0911 25.2287 29.123C25.027 27.6528 24.8325 26.1898 24.6235 24.7197C24.6091 24.6265 24.4723 24.6623 24.4651 24.7484Z" fill="#0C0A35"/>
<path d="M25.6753 24.6408C25.6465 26.9428 25.9851 29.1875 26.4173 31.4393C26.4389 31.5469 26.6118 31.5469 26.6334 31.4393C26.8496 30.3421 26.5038 29.2663 26.3597 28.1763C26.2084 27.0074 25.9202 25.8169 25.8194 24.648C25.8122 24.5548 25.6753 24.5476 25.6753 24.6408Z" fill="#0C0A35"/>
<path d="M26.6407 24.2536C26.5758 26.3333 26.8064 28.8074 27.4331 30.7939C27.498 31.0019 27.851 30.9732 27.8293 30.7437C27.606 28.5636 27.0441 26.4337 26.8424 24.2608C26.8352 24.1245 26.6407 24.1245 26.6407 24.2536Z" fill="#0C0A35"/>
<path d="M27.6852 24.0815C27.606 25.8027 27.9229 27.5955 28.5425 29.2019C28.5569 29.2449 28.6289 29.2449 28.6289 29.1875C28.5713 27.4664 28.0094 25.7955 27.8509 24.0743C27.8365 23.9739 27.6924 23.974 27.6852 24.0815Z" fill="#0C0A35"/>
<path d="M28.7155 23.766C28.5354 25.6664 29.1837 27.7031 29.5295 29.5604C29.5727 29.7756 29.9041 29.7182 29.9041 29.5103C29.9473 27.5381 28.8956 25.7238 28.8019 23.766C28.8019 23.7086 28.7227 23.7086 28.7155 23.766Z" fill="#0C0A35"/>
<path d="M29.4573 22.848C29.4285 24.7627 29.7095 26.8926 30.3002 28.7213C30.329 28.8074 30.4587 28.8146 30.4875 28.7213C30.6964 27.9468 30.5379 27.158 30.3795 26.3835C30.1417 25.193 29.8319 24.0098 29.551 22.8337C29.5366 22.7835 29.4573 22.7906 29.4573 22.848Z" fill="#0C0A35"/>
<path d="M30.1489 22.2958C30.3651 23.0918 30.3579 24.0097 30.5236 24.8344C30.7037 25.7595 30.8838 26.7492 31.3016 27.5954C31.3592 27.7173 31.5249 27.6456 31.5393 27.5309C31.6258 26.4552 31.1791 25.3364 30.9414 24.2966C30.7973 23.6727 30.7037 22.726 30.257 22.2384C30.2138 22.1954 30.1345 22.2384 30.1489 22.2958Z" fill="#0C0A35"/>
<path d="M31.0495 20.9046C30.8622 23.1062 31.6259 25.1213 31.8564 27.2871C31.8636 27.3445 31.9501 27.366 31.9645 27.3014C32.3319 25.2074 31.489 22.9699 31.2152 20.9046C31.2008 20.8042 31.0567 20.8042 31.0495 20.9046Z" fill="#0C0A35"/>
<path d="M33.4845 11.7109C33.2036 14.6798 33.7943 17.8568 34.3058 20.7755C34.5795 22.3174 34.7452 23.8736 34.9614 25.4297C35.1415 26.6704 35.1703 28.0975 35.7898 29.2234C35.9411 29.4959 36.3373 29.3023 36.2725 29.0226C35.6818 26.4266 35.4224 23.7803 34.9686 21.1556C34.6732 19.4273 34.3058 17.7062 34.0969 15.9635C33.924 14.5221 33.9672 13.1021 33.5205 11.7109C33.5133 11.6822 33.4845 11.6894 33.4845 11.7109Z" fill="#0C0A35"/>
<path d="M34.2265 12.5643C34.6876 15.1603 34.8749 17.7994 35.3504 20.3954C35.6025 21.7508 35.761 23.1206 36.0276 24.4688C36.3229 25.9389 36.7624 27.323 36.8344 28.829C37.0073 28.7286 37.1802 28.6282 37.3531 28.5349C37.3171 28.5134 37.2883 28.4991 37.2522 28.4776C37.137 28.413 37.0289 28.4561 36.9569 28.5565C36.9281 28.5923 36.9065 28.621 36.8776 28.6569C36.5391 29.1087 37.5548 29.4385 37.5188 28.829C37.454 27.6098 37.1946 26.4481 36.8993 25.272C36.5174 23.7732 36.3229 22.2528 36.0204 20.7468C35.7106 19.1906 35.3216 17.656 35.0406 16.0926C34.8245 14.8735 34.7957 13.683 34.2554 12.55C34.2554 12.5213 34.2193 12.5356 34.2265 12.5643Z" fill="#0C0A35"/>
<path d="M35.0118 11.919C35.0407 13.0735 35.4369 14.1779 35.6026 15.3182C35.8043 16.6879 36.042 18.0433 36.3158 19.3987C36.5967 20.7971 36.9714 22.1669 37.3172 23.5509C37.6774 24.978 37.7422 26.4697 38.2177 27.8681C38.3545 28.2625 38.9309 28.1048 38.8444 27.696C38.2681 25.0211 37.6629 22.4035 36.9858 19.7501C36.3086 17.111 36.0708 14.4433 35.0407 11.919C35.0335 11.9046 35.0118 11.9118 35.0118 11.919Z" fill="#0C0A35"/>
<path d="M35.9916 12.3778C36.1573 15.0456 37.0578 17.7205 37.7206 20.3094C38.1168 21.8656 38.6427 23.3859 39.0533 24.9349C39.3631 26.0967 39.3919 27.4234 40.2492 28.3342C40.4293 28.5278 40.8255 28.327 40.7174 28.0616C39.6873 25.5373 39.147 22.7477 38.3545 20.1373C37.9151 18.703 37.5477 17.2472 37.1154 15.8129C36.7768 14.687 36.6399 13.3962 36.042 12.3707C36.0276 12.342 35.9916 12.3492 35.9916 12.3778Z" fill="#0C0A35"/>
<path d="M36.9784 12.8727C36.9208 13.848 37.1801 14.7372 37.4899 15.6552C37.987 17.1611 38.4552 18.6743 39.0676 20.1373C39.5647 21.3421 40.1482 22.511 40.6741 23.7086C41.2072 24.9278 41.5458 26.3979 42.4247 27.4306C42.5327 27.5525 42.6984 27.4162 42.6768 27.2871C42.223 24.9062 40.8758 22.554 39.8024 20.4098C39.1829 19.162 38.7074 17.8568 38.2391 16.5516C37.8141 15.3683 37.2089 14.142 37.1081 12.8798C37.1009 12.7938 36.9856 12.7938 36.9784 12.8727Z" fill="#0C0A35"/>
<path d="M37.9367 12.8655C36.8921 13.6329 39.0389 17.405 39.4207 18.1795C40.2492 19.872 41.0704 21.5572 41.8629 23.2712C42.3023 24.2106 42.8787 25.7023 43.7648 26.3119C44.0025 26.4768 44.3267 26.1541 44.161 25.9174C42.8282 23.9668 41.9926 21.7222 40.8831 19.6497C40.1843 18.3373 39.4567 17.0608 38.8804 15.691C38.5634 14.9309 37.807 13.7619 38.0087 12.9372C38.0231 12.8799 37.9799 12.8368 37.9367 12.8655Z" fill="#0C0A35"/>
<path d="M41.3442 10.1762C40.5662 11.6392 39.6729 13.0448 38.6787 14.3643C38.5851 14.4862 38.4842 14.6153 38.3473 14.6727C38.2105 14.7301 38.052 14.7229 37.9007 14.7085C33.0667 14.2711 28.1464 13.4966 23.4133 14.5508C22.6136 13.1165 21.6843 11.7539 20.6253 10.4846C20.5028 10.334 20.3732 10.1691 20.3732 9.98261C20.3732 9.60253 20.8414 9.43042 21.2232 9.36588C26.2805 8.54117 31.4458 8.79933 36.5607 9.0575C38.1744 9.13638 39.7954 9.22245 41.3658 9.58819C41.5315 9.73162 41.4451 9.98977 41.3442 10.1762Z" fill="#B70027"/>
<path d="M20.4091 10.1331C20.6756 10.4845 23.1898 11.8256 23.4492 11.9188C24.0183 12.1268 24.0831 11.5889 24.2272 11.3522C24.7027 10.5706 25.3078 9.84625 25.7329 9.39445C25.7689 9.3586 25.8121 9.35142 25.8553 9.37294C26.2083 9.54505 26.9143 10.1833 27.0584 10.3913C27.2673 10.6925 27.6492 11.0152 27.9013 11.2805C27.9949 11.3738 28.103 11.4742 28.2327 11.4598C28.3552 11.4526 28.4416 11.3522 28.5208 11.259C29.0035 10.6925 29.9545 9.22952 30.4876 9.27255C30.9126 9.30841 30.9846 10.0112 31.9356 11.3522C32.1229 11.6176 32.2886 11.3881 32.9946 10.7857C33.6934 10.1905 34.0752 9.89645 34.7884 9.37294C34.846 9.33708 34.9181 9.32275 34.9757 9.3586C35.6961 9.79606 35.9194 10.7642 36.4669 11.424C36.5534 11.5244 36.6542 11.6248 36.7911 11.6463C36.9496 11.6678 37.0865 11.5674 37.209 11.467L38.9451 10.1044C39.01 10.0542 39.1036 10.0686 39.1397 10.1475C39.5719 10.9865 39.9969 12.5284 40.105 12.3634C40.6741 11.51 41.092 11.0797 41.5242 10.1546C41.7691 9.62393 41.445 9.37295 41.3729 9.3586C38.7578 8.92115 32.1733 8.21834 26.8999 8.18249C24.5658 8.16814 20.4595 8.8566 20.2578 9.15063C20.0705 9.45183 20.1929 9.84625 20.4091 10.1331Z" fill="#F70032"/>
<path d="M30.7037 21.2488C31.4025 21.2488 31.9932 20.6679 31.9932 19.9651C31.9932 19.2623 31.4097 18.6814 30.7037 18.6814C30.0049 18.6814 29.4142 19.2623 29.4142 19.9651C29.4142 20.6679 30.0049 21.2488 30.7037 21.2488Z" fill="#F70032"/>
<path d="M22.9377 20.2806C23.5644 20.3308 24.1912 20.3452 24.8107 20.3022C25.2286 20.2735 25.6536 20.2304 25.9273 19.879C26.1075 19.6495 26.1795 19.2695 26.0282 19.0041C25.8481 18.7029 25.3942 18.5165 25.1277 18.8033C25.0701 18.8607 25.0701 18.9539 25.1277 19.0113C25.279 19.1619 25.7184 19.1476 25.7328 19.3842C25.7545 19.7141 25.4015 19.8575 25.1421 19.9077C24.4145 20.0511 23.6581 19.9938 22.9233 20.13C22.8296 20.1444 22.8584 20.2735 22.9377 20.2806Z" fill="#0C0A35"/>
<path d="M27.7645 7.40804C27.9446 7.40804 28.1319 7.40087 28.3048 7.3435C28.4272 7.30047 28.737 7.1929 28.6794 7.00644C28.6218 6.82716 28.4201 6.94189 28.312 6.99927C28.1391 7.09966 27.9302 7.19289 27.7429 7.2646C27.678 7.30046 27.6852 7.40804 27.7645 7.40804Z" fill="#B70027"/>
<path d="M28.7154 6.11721C28.773 6.22478 28.8235 6.32517 28.9099 6.4184C29.0108 6.52597 29.0684 6.57617 29.2125 6.57617C29.2701 6.57617 29.2989 6.52598 29.2917 6.47578C29.2701 6.33952 29.2197 6.29648 29.1188 6.21042C29.0324 6.13154 28.9315 6.06701 28.8307 6.00247C28.7586 5.93792 28.6794 6.03833 28.7154 6.11721Z" fill="#B70027"/>
<path d="M29.6736 5.01996C29.8032 5.20641 29.9545 5.38569 30.1923 5.43589C30.2499 5.45023 30.3075 5.40002 30.2859 5.33548C30.2139 5.09165 30.005 4.96258 29.7744 4.8837C29.7024 4.86935 29.6303 4.96258 29.6736 5.01996Z" fill="#B70027"/>
<path d="M30.5741 6.45426C30.6821 6.48294 30.7758 6.569 30.8838 6.56182C30.9199 6.56182 30.9631 6.53313 30.9559 6.49011C30.9415 6.33951 30.7614 6.28214 30.6317 6.24628C30.4948 6.21043 30.43 6.42557 30.5741 6.45426Z" fill="#B70027"/>
<path d="M29.7817 7.37934C29.8681 7.47257 29.969 7.55145 30.077 7.62317C30.1779 7.68771 30.3076 7.78095 30.4228 7.81681C30.5741 7.85984 30.6606 7.70205 30.6029 7.58014C30.4877 7.33631 30.1275 7.31481 29.9113 7.21441C29.8033 7.15704 29.688 7.28611 29.7817 7.37934Z" fill="#B70027"/>
<path d="M31.0279 4.8694C31.208 4.79052 31.4313 4.8479 31.5754 4.67578C31.6114 4.63275 31.6042 4.56105 31.5394 4.5467C31.3233 4.47499 31.0855 4.58972 30.927 4.74032C30.8622 4.81204 30.9487 4.90526 31.0279 4.8694Z" fill="#B70027"/>
<path d="M30.5308 4.12355C30.6893 4.00164 31.0712 3.98728 31.0856 3.74345C31.0856 3.70759 31.064 3.67891 31.0351 3.6574C30.819 3.51397 30.5164 3.8582 30.4228 4.01597C30.394 4.08051 30.466 4.17375 30.5308 4.12355Z" fill="#B70027"/>
<path d="M32.3679 4.63268C32.4039 4.75459 32.4471 4.84781 32.5048 4.95538C32.5336 5.00558 32.5768 5.04861 32.6128 5.09164C32.6488 5.12749 32.6993 5.12032 32.7425 5.13466C32.7929 5.15618 32.8217 5.09882 32.8217 5.05579C32.8145 5.01276 32.8361 4.9769 32.8073 4.94104C32.7713 4.89084 32.7425 4.84781 32.7065 4.79761C32.6272 4.69721 32.5408 4.63984 32.4255 4.58247C32.3967 4.58247 32.3607 4.60399 32.3679 4.63268Z" fill="#B70027"/>
<path d="M31.9068 5.86623C32.0077 6.024 32.1301 6.16026 32.2526 6.29651C32.2814 6.33237 32.3319 6.33952 32.3751 6.32518C32.4111 6.31801 32.4327 6.30368 32.4471 6.26782C32.4687 6.21045 32.4687 6.16026 32.4255 6.11723C32.303 5.98814 32.159 5.88057 32.0365 5.75866C31.9717 5.69412 31.8564 5.78734 31.9068 5.86623Z" fill="#B70027"/>
<path d="M31.9356 7.45101C32.0293 7.54424 32.1229 7.63747 32.231 7.72353C32.3318 7.80241 32.4327 7.89564 32.5696 7.85979C32.6128 7.84544 32.6416 7.80958 32.6416 7.76655C32.6416 7.62313 32.5335 7.55141 32.4255 7.47252C32.303 7.38647 32.1878 7.32193 32.0437 7.27173C31.9356 7.2287 31.8636 7.3793 31.9356 7.45101Z" fill="#B70027"/>
<path d="M33.4268 5.95223C33.4052 6.10283 33.3548 6.23907 33.3044 6.38967C33.2684 6.49724 33.2539 6.64785 33.3332 6.73391C33.362 6.76259 33.4124 6.76976 33.4485 6.74824C33.6718 6.61199 33.5421 6.16736 33.5133 5.96656C33.5061 5.91636 33.4341 5.90203 33.4268 5.95223Z" fill="#B70027"/>
<path d="M34.0897 7.34346C34.0537 7.52274 33.96 7.83827 34.1401 7.96018C34.1545 7.96736 34.1833 7.97453 34.205 7.96018C34.3562 7.83827 34.2986 7.58728 34.3274 7.408C34.3562 7.25023 34.1185 7.18569 34.0897 7.34346Z" fill="#B70027"/>
<path d="M24.04 13.1308C24.112 13.1164 24.1696 13.0877 24.2345 13.0519C24.5226 12.8654 24.5226 12.4638 24.2345 12.2774C24.1768 12.2415 24.112 12.2128 24.04 12.1985C23.7302 12.1268 23.4276 12.3419 23.4276 12.6646C23.4204 12.9873 23.7302 13.1953 24.04 13.1308Z" fill="#0C0A35"/>
<path d="M28.0382 12.8583C28.2976 12.8583 28.5209 12.6432 28.5209 12.3778C28.5209 12.1125 28.3048 11.8973 28.0382 11.8973C27.7717 11.8973 27.5555 12.1125 27.5555 12.3778C27.5555 12.6432 27.7789 12.8583 28.0382 12.8583Z" fill="#0C0A35"/>
<path d="M31.8996 12.6503C31.9068 12.6503 31.914 12.6574 31.914 12.6574C32.231 12.808 32.6272 12.5642 32.5264 12.1913C32.4255 11.8184 31.9644 11.8112 31.7627 12.0909C31.7627 12.0981 31.7555 12.0981 31.7483 12.1052C31.633 12.2702 31.7123 12.557 31.8996 12.6503Z" fill="#0C0A35"/>
<path d="M37.0146 13.1021C37.0218 13.0949 37.029 13.095 37.0434 13.0878C37.3099 12.93 37.3099 12.5427 37.0434 12.385C37.0362 12.3778 37.029 12.3778 37.0146 12.3706C36.7336 12.2057 36.3734 12.4208 36.3734 12.7364C36.3662 13.0519 36.7336 13.2671 37.0146 13.1021Z" fill="#0C0A35"/>
<path d="M21.2159 34.8242C21.6554 34.8242 22.0228 34.4585 22.0228 34.021C22.0228 33.5836 21.6554 33.2178 21.2159 33.2178C20.7765 33.2178 20.4091 33.5836 20.4091 34.021C20.4091 34.4585 20.7765 34.8242 21.2159 34.8242Z" fill="#B70027"/>
<path d="M30.9055 38.2665C31.3017 38.2665 31.6331 37.9366 31.6331 37.5422C31.6331 37.1478 31.3017 36.8179 30.9055 36.8179C30.5092 36.8179 30.1779 37.1478 30.1779 37.5422C30.1779 37.9366 30.5092 38.2665 30.9055 38.2665Z" fill="#B70027"/>
<path d="M39.7088 33.3326C39.7232 33.3326 39.7448 33.3254 39.7592 33.3254C40.141 33.2537 40.3067 32.6728 39.9969 32.4218C39.9825 32.4147 39.9681 32.4003 39.9609 32.3931C39.6512 32.1063 39.1325 32.221 39.0172 32.6441C38.9668 32.8378 39.0172 33.0529 39.1613 33.1963C39.3126 33.3397 39.4999 33.3613 39.7088 33.3326Z" fill="#B70027"/>
<path d="M30.6316 35.276C30.4732 35.3621 30.3939 35.5055 30.3867 35.6776C30.3795 35.9501 30.7325 36.1868 30.9702 36.0075C30.9774 36.0003 30.9846 36.0003 30.9918 35.9931C30.927 36.0147 30.855 36.029 30.7901 36.0505C30.7973 36.0505 30.8045 36.0505 30.8117 36.0505C30.7397 36.029 30.6749 36.0147 30.6028 35.9931C30.61 36.0003 30.6172 36.0003 30.6316 36.0075C30.7757 36.072 30.9198 36.0936 31.0639 36.0075C31.1936 35.9358 31.2728 35.7924 31.2728 35.6418C31.2728 35.3119 30.9126 35.1254 30.6316 35.276Z" fill="#B70027"/>
<path d="M30.8478 34.523C31.136 34.523 31.136 34.0712 30.8478 34.0712C30.5597 34.0784 30.5597 34.523 30.8478 34.523Z" fill="#B70027"/>
<path d="M22.8513 33.0601C22.8585 33.0529 22.8657 33.0529 22.8729 33.0458C22.8225 33.0744 22.7721 33.1031 22.7288 33.1318C22.7361 33.1318 22.7505 33.1246 22.7577 33.1175C22.8657 33.0744 22.9522 33.0099 22.981 32.8952C23.017 32.7661 22.9594 32.6011 22.8369 32.5366C22.7937 32.5151 22.7577 32.4936 22.7072 32.4864C22.4551 32.4434 22.2101 32.637 22.2822 32.9095C22.3542 33.182 22.6568 33.2179 22.8513 33.0601Z" fill="#B70027"/>
<path d="M23.6941 32.2282C23.9247 32.2282 23.9247 31.8696 23.6941 31.8696C23.4636 31.8625 23.4636 32.2282 23.6941 32.2282Z" fill="#B70027"/>
<path d="M38.3544 32.4146C38.8371 32.4146 38.8371 31.6688 38.3544 31.6688C37.8718 31.676 37.8718 32.4146 38.3544 32.4146Z" fill="#B70027"/>
<path d="M37.3603 31.7549C37.7133 31.7549 37.7133 31.2098 37.3603 31.2098C37.0073 31.2098 37.0073 31.7549 37.3603 31.7549Z" fill="#B70027"/>
<path d="M23.2548 13.683C23.3412 13.8121 23.37 13.9627 23.4061 14.1061C23.4565 14.3213 23.8095 14.2281 23.7447 14.0129C23.687 13.8193 23.6222 13.6544 23.4781 13.5109C23.3628 13.4034 23.1683 13.5468 23.2548 13.683Z" fill="#F70032"/>
<path d="M24.0545 13.432C24.1121 13.6113 24.1697 13.7906 24.2634 13.9555C24.2922 14.0057 24.357 14.0344 24.4147 14.0201C24.4363 14.0129 24.4579 13.9986 24.4723 13.9842C24.5227 13.9412 24.5155 13.8695 24.4939 13.8193C24.4219 13.6543 24.3426 13.5037 24.249 13.3532C24.1841 13.2456 24.0112 13.3101 24.0545 13.432Z" fill="#F70032"/>
<path d="M24.9621 13.1451C24.8324 13.3746 24.9549 13.7762 25.1134 13.9627C25.2286 14.0989 25.4952 13.9914 25.4736 13.8121C25.4592 13.6471 25.3871 13.5181 25.3223 13.3675C25.2646 13.2455 25.1854 13.1451 25.0557 13.1021C25.0269 13.0949 24.9837 13.1093 24.9621 13.1451Z" fill="#F70032"/>
<path d="M25.8122 13.1881C25.8194 13.4033 25.8194 13.6543 25.9203 13.8479C25.9995 13.9985 26.2157 13.9196 26.2229 13.769C26.2373 13.5467 26.122 13.3244 26.0283 13.1308C25.9779 13.0232 25.805 13.0806 25.8122 13.1881Z" fill="#F70032"/>
<path d="M26.6911 13.0806C26.6839 13.3101 26.6839 13.5611 26.7991 13.7619C26.9 13.934 27.1665 13.8551 27.1665 13.6615C27.1665 13.4463 27.0657 13.2384 26.9864 13.0376C26.936 12.887 26.6983 12.9013 26.6911 13.0806Z" fill="#F70032"/>
<path d="M27.5916 13.1523C27.5916 13.3531 27.5411 13.5396 27.6348 13.726C27.714 13.8838 27.9662 13.8049 27.959 13.64C27.959 13.4678 27.9157 13.2814 27.8581 13.1164C27.8149 12.973 27.5988 12.9945 27.5916 13.1523Z" fill="#F70032"/>
<path d="M28.557 12.9945C28.4345 13.1738 28.4561 13.4248 28.5282 13.6256C28.6146 13.8551 28.9964 13.8407 28.9748 13.5682C28.9604 13.3531 28.8956 13.1164 28.7299 12.9802C28.6722 12.9228 28.6002 12.93 28.557 12.9945Z" fill="#F70032"/>
<path d="M29.4935 13.1236C29.4647 13.2886 29.4431 13.4678 29.4791 13.6328C29.5007 13.7045 29.5583 13.7404 29.6304 13.7475C29.6592 13.7475 29.6808 13.7404 29.7096 13.726C29.7528 13.7045 29.7888 13.64 29.7888 13.5898C29.7816 13.4392 29.7312 13.2957 29.724 13.1523C29.7168 13.0304 29.5223 12.9874 29.4935 13.1236Z" fill="#F70032"/>
<path d="M30.149 13.1164C30.1562 13.2527 30.149 13.389 30.149 13.5324C30.1562 13.6686 30.2426 13.891 30.4227 13.8264C30.7325 13.7189 30.574 13.2384 30.4515 13.0376C30.3795 12.9013 30.1418 12.9515 30.149 13.1164Z" fill="#F70032"/>
<path d="M31.2656 13.0878C31.208 13.2958 31.1144 13.6113 31.2945 13.7763C31.3593 13.8336 31.489 13.8336 31.5322 13.7476C31.6258 13.5539 31.5466 13.2886 31.4962 13.0878C31.4674 12.9731 31.2945 12.9731 31.2656 13.0878Z" fill="#F70032"/>
<path d="M32.1445 13.0519C32.0293 13.2886 31.9861 13.6328 32.1517 13.848C32.2238 13.9412 32.3607 13.8695 32.3967 13.7834C32.4759 13.597 32.3679 13.3603 32.3967 13.1595C32.4183 13.0161 32.2238 12.9013 32.1445 13.0519Z" fill="#F70032"/>
<path d="M32.937 13.1882C32.9226 13.3818 32.7857 13.977 33.1171 13.977C33.254 13.977 33.2468 13.7762 33.2468 13.6902C33.2468 13.5252 33.2396 13.3603 33.2324 13.1954C33.2107 13.0017 32.9442 13.0089 32.937 13.1882Z" fill="#F70032"/>
<path d="M33.7078 13.2169C33.6214 13.432 33.4413 13.8408 33.6718 14.0201C33.7655 14.0918 33.8663 14.099 33.9672 14.0201C34.0824 13.9197 34.0824 13.7619 34.0824 13.6185C34.0824 13.4535 34.0608 13.3316 33.996 13.181C33.9312 13.0448 33.7511 13.1165 33.7078 13.2169Z" fill="#F70032"/>
<path d="M34.6876 13.3316C34.5363 13.5396 34.4138 14.0129 34.6804 14.1778C34.738 14.2137 34.8173 14.2137 34.8677 14.1778C35.1198 14.0129 34.9902 13.6041 34.9469 13.3603C34.9253 13.2312 34.7524 13.2384 34.6876 13.3316Z" fill="#F70032"/>
<path d="M35.5448 13.4033C35.4944 13.6113 35.4368 13.8049 35.4224 14.0129C35.408 14.2711 35.8186 14.2711 35.8258 14.0129C35.833 13.8049 35.8186 13.6041 35.7754 13.4033C35.7537 13.2886 35.5737 13.2886 35.5448 13.4033Z" fill="#F70032"/>
<path d="M36.4382 13.475C36.1932 13.6041 36.1212 14.0343 36.2292 14.2638C36.3085 14.4359 36.539 14.3642 36.5967 14.2136C36.6471 14.0845 36.6255 13.934 36.6327 13.7977C36.6399 13.683 36.6111 13.5682 36.5318 13.4893C36.5102 13.4606 36.467 13.4606 36.4382 13.475Z" fill="#F70032"/>
<path d="M37.0865 13.6902C37.0145 13.8695 36.9209 14.1204 36.9785 14.3141C37.0217 14.4503 37.1874 14.4575 37.2666 14.3499C37.3891 14.1778 37.3027 13.9125 37.2955 13.7188C37.2883 13.5898 37.1226 13.5826 37.0865 13.6902Z" fill="#F70032"/>
<path d="M37.9079 13.6758C37.771 13.9196 37.5693 14.1993 37.6989 14.4862C37.7566 14.6152 37.9727 14.6368 38.0591 14.5292C38.232 14.3212 38.232 13.9627 38.1744 13.7045C38.1528 13.5897 37.9727 13.5682 37.9079 13.6758Z" fill="#F70032"/>
<path d="M42.151 42.4617C41.1424 42.2753 40.7894 41.8235 40.3788 41.4577C39.9681 41.092 39.5359 40.2601 39.4278 39.7222C39.2549 38.8258 39.5359 38.331 39.9969 37.535C40.6093 36.4736 41.5818 36.2298 42.7201 35.778C44.3698 35.1326 47.1218 34.2792 48.9012 34.2003C49.7729 34.1644 50.731 34.3079 51.3362 34.9318C51.8044 35.4122 51.9845 36.1079 51.9917 36.782C52.0133 38.2521 51.6531 39.543 50.4284 40.3605C49.5928 40.9199 48.2456 41.3573 47.2803 41.6513C44.1609 42.6123 43.3396 42.684 42.151 42.4617Z" fill="#B70027"/>
<path d="M49.6143 39.6792C50.4212 39.1055 50.7021 38.1732 50.7094 37.2194C50.7166 36.4091 50.2699 34.9389 49.2181 35.0393C48.8939 35.068 48.6562 35.3262 48.7426 35.6633C48.8795 36.2083 49.2469 36.6529 49.3838 37.2123C49.5351 37.829 49.4919 38.6465 49.11 39.1772C48.9011 39.4784 49.3262 39.8872 49.6143 39.6792Z" fill="#0C0A35"/>
<path d="M48.332 39.751C48.4689 38.5749 48.5265 36.8107 47.518 35.9788C47.0857 35.6274 46.4085 35.9573 46.5598 36.5382C46.7039 37.0975 46.9561 37.6211 47.1145 38.1733C47.2874 38.7685 47.4243 39.3709 47.7269 39.9159C47.8926 40.2314 48.296 40.0522 48.332 39.751Z" fill="#0C0A35"/>
<path d="M46.5672 40.2816C46.704 39.672 46.4879 38.9262 46.387 38.3167C46.279 37.6426 46.0124 36.4593 45.22 36.2872C44.6725 36.1652 44.1178 36.6457 44.2835 37.2194C44.3699 37.5278 44.5284 37.6569 44.6653 37.9294C44.8454 38.2808 45.0039 38.6394 45.1768 38.9908C45.4145 39.4784 45.6594 40.2601 46.2286 40.4681C46.3726 40.5183 46.5383 40.4179 46.5672 40.2816Z" fill="#0C0A35"/>
<path d="M45.011 40.3892C44.4995 39.9589 44.1897 39.6649 44.024 38.9908C43.88 38.4242 43.988 37.7501 43.6926 37.2338C43.5197 36.9326 43.1307 36.99 42.9578 37.241C42.1798 38.331 43.3613 41.4219 44.975 40.7047C45.083 40.6545 45.1046 40.4681 45.011 40.3892Z" fill="#0C0A35"/>
<path d="M42.7993 41.0919C42.576 40.5469 42.151 40.1381 41.9781 39.5573C41.7475 38.8043 42.3527 38.1445 42.1438 37.4274C42.0933 37.2481 41.8844 37.0975 41.6899 37.1692C39.9753 37.8146 40.811 41.1637 42.4968 41.4003C42.6553 41.4218 42.8786 41.2856 42.7993 41.0919Z" fill="#0C0A35"/>
<path d="M50.1259 37.3915C50.4213 37.3127 50.2988 36.8537 50.0034 36.9326C49.708 37.0115 49.8305 37.4704 50.1259 37.3915Z" fill="#F70032"/>
<path d="M47.626 38.1087C47.9718 38.0155 47.8277 37.4848 47.4819 37.578C47.1433 37.6713 47.2874 38.202 47.626 38.1087Z" fill="#F70032"/>
<path d="M45.7746 38.2736C45.7963 38.2665 45.7891 38.2378 45.7674 38.2449C45.7458 38.2449 45.753 38.2736 45.7746 38.2736Z" fill="#F70032"/>
<path d="M45.5009 38.0801C45.4937 38.0872 45.4864 38.0944 45.4792 38.0944C45.2271 38.3167 45.6161 38.704 45.8611 38.4601C45.8683 38.453 45.8755 38.4458 45.8755 38.4386C46.1204 38.2091 45.753 37.8577 45.5009 38.0801Z" fill="#F70032"/>
<path d="M43.3613 38.5677C43.3469 38.5677 43.3397 38.5677 43.3253 38.5677C42.9795 38.582 43.1235 39.1127 43.4333 38.9549C43.4405 38.9478 43.4549 38.9478 43.4621 38.9406C43.635 38.8474 43.5558 38.5533 43.3613 38.5677Z" fill="#F70032"/>
<path d="M41.481 39.6147C41.8988 39.5 41.7187 38.8617 41.3081 38.9764C40.8903 39.0912 41.0704 39.7294 41.481 39.6147Z" fill="#F70032"/>
<path d="M48.8579 40.2672C48.8435 40.2888 48.8219 40.3103 48.8075 40.3318C48.685 40.4824 48.7354 40.676 48.9227 40.7477C48.9516 40.7549 48.9732 40.7692 49.002 40.7764C49.2253 40.8625 49.4342 40.6043 49.3766 40.4035C49.319 40.1955 49.0092 40.0736 48.8579 40.2672Z" fill="#F70032"/>
<path d="M48.1088 40.9271C48.4185 40.8411 48.2889 40.3606 47.9791 40.4466C47.6621 40.5327 47.7918 41.0132 48.1088 40.9271Z" fill="#F70032"/>
<path d="M47.0281 41.2426C47.3739 41.1494 47.2227 40.6187 46.8841 40.7119C46.5383 40.8123 46.6895 41.3358 47.0281 41.2426Z" fill="#F70032"/>
<path d="M45.8755 41.5582C46.2213 41.4649 46.0773 40.9271 45.7315 41.0203C45.3857 41.1207 45.5297 41.6586 45.8755 41.5582Z" fill="#F70032"/>
<path d="M44.4131 41.4721C44.4059 41.4793 44.4059 41.4864 44.3987 41.4936C44.233 41.7159 44.5068 41.9956 44.7445 41.9382C44.975 41.8737 45.0687 41.4936 44.8165 41.386C44.8093 41.386 44.8021 41.3789 44.7949 41.3789C44.6364 41.3071 44.5067 41.3358 44.4131 41.4721Z" fill="#F70032"/>
<path d="M43.7719 42.1175C44.0961 42.0314 43.9592 41.5223 43.635 41.6155C43.3036 41.7016 43.4405 42.2035 43.7719 42.1175Z" fill="#F70032"/>
<path d="M42.857 42.2394C43.1236 42.1677 43.0083 41.7661 42.749 41.8379C42.4824 41.9024 42.5905 42.3112 42.857 42.2394Z" fill="#F70032"/>
<path d="M48.3897 35.0393C48.5986 34.9819 48.5122 34.6521 48.3033 34.7094C48.0872 34.7668 48.1808 35.0967 48.3897 35.0393Z" fill="#F70032"/>
<path d="M47.2154 34.9963C47.201 34.9963 47.1938 34.9963 47.1794 35.0035C46.848 35.0465 47.0065 35.6202 47.3163 35.4983C47.3307 35.4912 47.3379 35.4911 47.3523 35.484C47.6477 35.3549 47.5324 34.9461 47.2154 34.9963Z" fill="#F70032"/>
<path d="M46.1276 35.821C46.459 35.7349 46.3149 35.2258 45.9907 35.3118C45.6593 35.3979 45.7962 35.907 46.1276 35.821Z" fill="#F70032"/>
<path d="M45.0398 36.1151C45.3639 36.029 45.2271 35.527 44.9029 35.6131C44.5787 35.6991 44.7156 36.2012 45.0398 36.1151Z" fill="#F70032"/>
<path d="M43.6638 36.029C43.6638 36.0362 43.6566 36.0434 43.6494 36.0506C43.5845 36.1581 43.6277 36.3016 43.7358 36.3661C43.743 36.3733 43.7502 36.3733 43.7574 36.3804C43.9519 36.4952 44.1897 36.3016 44.132 36.0936C44.0744 35.8784 43.7718 35.8354 43.6638 36.029Z" fill="#F70032"/>
<path d="M42.8713 36.696C43.1955 36.6099 43.0586 36.1151 42.7344 36.2011C42.4102 36.2872 42.5471 36.782 42.8713 36.696Z" fill="#F70032"/>
<path d="M41.6034 36.5238C41.5962 36.531 41.5818 36.5382 41.5746 36.5454C41.445 36.6458 41.4882 36.825 41.6539 36.8465C41.6683 36.8465 41.6755 36.8465 41.6899 36.8537C41.9997 36.8896 41.8484 36.3374 41.6034 36.5238Z" fill="#F70032"/>
<path d="M16.9007 45.6674C17.9093 45.8538 18.2623 46.3056 18.673 46.6714C19.0836 47.0371 19.5158 47.869 19.6239 48.4069C19.7968 49.3033 19.5158 49.7981 19.0548 50.5941C18.4424 51.6555 17.4699 51.8993 16.3316 52.3511C14.6819 52.9965 11.9299 53.8499 10.1577 53.9288C9.28604 53.9647 8.32791 53.8213 7.72276 53.1973C7.2545 52.7169 7.0744 52.0212 7.06719 51.3471C7.04558 49.877 7.40578 48.5861 8.63047 47.7686C9.46615 47.2092 10.8133 46.7718 11.7787 46.4778C14.8908 45.524 15.7049 45.4451 16.9007 45.6674Z" fill="#B70027"/>
<path d="M9.43007 48.4498C8.62321 49.0235 8.34225 49.9558 8.33505 50.9096C8.32784 51.7199 8.7745 53.1901 9.8263 53.0897C10.1505 53.061 10.3882 52.8028 10.3018 52.4657C10.1649 51.9207 9.79747 51.4761 9.66059 50.9167C9.50931 50.3 9.55254 49.4825 9.93435 48.9518C10.1505 48.6506 9.72544 48.2418 9.43007 48.4498Z" fill="#0C0A35"/>
<path d="M10.7197 48.3781C10.5828 49.5542 10.5252 51.3184 11.5337 52.1503C11.966 52.5017 12.6432 52.1718 12.4919 51.5909C12.3478 51.0315 12.0957 50.508 11.9372 49.9558C11.7643 49.3606 11.6274 48.7654 11.3248 48.2132C11.1591 47.9048 10.7485 48.0841 10.7197 48.3781Z" fill="#0C0A35"/>
<path d="M12.4846 47.8474C12.3477 48.457 12.5638 49.2028 12.6647 49.8124C12.7727 50.4865 13.0393 51.6697 13.8317 51.8419C14.3792 51.9638 14.9339 51.4833 14.7682 50.9096C14.6746 50.6012 14.5233 50.4721 14.3864 50.1996C14.2063 49.8482 14.0478 49.4897 13.8749 49.1383C13.6372 48.6506 13.3923 47.8689 12.8231 47.661C12.6791 47.6108 12.5134 47.7183 12.4846 47.8474Z" fill="#0C0A35"/>
<path d="M14.0407 47.747C14.5522 48.1773 14.862 48.4713 15.0277 49.1454C15.1718 49.712 15.0637 50.3861 15.3591 50.9024C15.532 51.2036 15.921 51.1462 16.0939 50.8952C16.8791 49.8052 15.6905 46.7143 14.0767 47.4315C13.9615 47.4745 13.9471 47.6681 14.0407 47.747Z" fill="#0C0A35"/>
<path d="M16.2525 47.0371C16.4758 47.5821 16.9008 47.9909 17.0737 48.5717C17.3043 49.3247 16.6991 49.9845 16.908 50.7016C16.9585 50.8809 17.1746 51.0315 17.3619 50.9598C19.0765 50.3144 18.2408 46.9653 16.555 46.7287C16.3966 46.7143 16.1732 46.8434 16.2525 47.0371Z" fill="#0C0A35"/>
<path d="M8.9187 50.7375C8.62333 50.8164 8.74581 51.2753 9.04118 51.1964C9.34375 51.1176 9.22127 50.6586 8.9187 50.7375Z" fill="#F70032"/>
<path d="M11.4256 50.0204C11.0798 50.1136 11.2238 50.6443 11.5696 50.551C11.9082 50.4578 11.7641 49.9271 11.4256 50.0204Z" fill="#F70032"/>
<path d="M13.2699 49.8626C13.2483 49.8698 13.2555 49.8985 13.2771 49.8913C13.2987 49.8841 13.2915 49.8555 13.2699 49.8626Z" fill="#F70032"/>
<path d="M13.5509 50.049C13.5581 50.0419 13.5653 50.0347 13.5725 50.0347C13.8246 49.8124 13.4356 49.4251 13.1979 49.669C13.1907 49.6761 13.1835 49.6833 13.1763 49.6905C12.9313 49.9271 13.2987 50.2714 13.5509 50.049Z" fill="#F70032"/>
<path d="M15.6905 49.5686C15.7049 49.5686 15.7121 49.5686 15.7265 49.5686C16.0723 49.5542 15.9282 49.0236 15.6185 49.1813C15.6112 49.1885 15.5968 49.1885 15.5896 49.1957C15.4095 49.2889 15.4888 49.5758 15.6905 49.5686Z" fill="#F70032"/>
<path d="M17.5707 48.5144C17.1528 48.6291 17.3329 49.2673 17.7436 49.1526C18.1542 49.045 17.9813 48.3996 17.5707 48.5144Z" fill="#F70032"/>
<path d="M10.1938 47.869C10.2082 47.8474 10.2298 47.8259 10.2442 47.8044C10.3667 47.6538 10.3163 47.4602 10.1289 47.3885C10.1001 47.3813 10.0785 47.3669 10.0569 47.3598C9.83358 47.2737 9.62467 47.5319 9.6823 47.7327C9.73273 47.9407 10.0425 48.0554 10.1938 47.869Z" fill="#F70032"/>
<path d="M10.943 47.202C10.6332 47.288 10.7629 47.7685 11.0727 47.6825C11.3897 47.6036 11.2528 47.1159 10.943 47.202Z" fill="#F70032"/>
<path d="M12.0236 46.8865C11.6778 46.9797 11.8291 47.5104 12.1677 47.4172C12.5063 47.324 12.3622 46.7933 12.0236 46.8865Z" fill="#F70032"/>
<path d="M13.1763 46.5709C12.8305 46.6642 12.9746 47.202 13.3204 47.1088C13.6662 47.0156 13.5221 46.4777 13.1763 46.5709Z" fill="#F70032"/>
<path d="M14.6387 46.6642C14.6459 46.657 14.6459 46.6498 14.6531 46.6427C14.8188 46.4203 14.5451 46.1407 14.3073 46.198C14.0768 46.2626 13.9831 46.6427 14.2353 46.7502C14.2425 46.7502 14.2497 46.7574 14.2569 46.7574C14.4154 46.8291 14.5378 46.7933 14.6387 46.6642Z" fill="#F70032"/>
<path d="M15.2798 46.0187C14.9557 46.1048 15.0925 46.6139 15.4167 46.5207C15.7481 46.4275 15.604 45.9255 15.2798 46.0187Z" fill="#F70032"/>
<path d="M16.1947 45.8969C15.9354 45.9686 16.0434 46.3702 16.3028 46.2985C16.5693 46.2268 16.4541 45.8252 16.1947 45.8969Z" fill="#F70032"/>
<path d="M10.662 53.0969C10.4531 53.1543 10.5395 53.4842 10.7484 53.4268C10.9573 53.3623 10.8709 53.0395 10.662 53.0969Z" fill="#F70032"/>
<path d="M11.8363 53.1399C11.8507 53.1399 11.8579 53.1399 11.8723 53.1328C12.2037 53.0897 12.0452 52.516 11.7354 52.6379C11.721 52.6451 11.7138 52.6451 11.6994 52.6523C11.404 52.7814 11.5121 53.1829 11.8363 53.1399Z" fill="#F70032"/>
<path d="M12.9241 52.3081C12.5927 52.3941 12.7368 52.9033 13.0609 52.8172C13.3923 52.7312 13.2555 52.222 12.9241 52.3081Z" fill="#F70032"/>
<path d="M14.0119 52.0212C13.6877 52.1072 13.8246 52.6093 14.1488 52.5232C14.473 52.4371 14.3361 51.928 14.0119 52.0212Z" fill="#F70032"/>
<path d="M15.3878 52.1C15.395 52.0928 15.395 52.0857 15.4022 52.0785C15.4598 51.9709 15.4238 51.8275 15.3158 51.763C15.3086 51.7558 15.3014 51.7558 15.2942 51.7486C15.0996 51.6339 14.8619 51.8275 14.9195 52.0355C14.9772 52.2578 15.2798 52.3008 15.3878 52.1Z" fill="#F70032"/>
<path d="M16.1803 51.4331C15.8562 51.5192 15.993 52.014 16.3172 51.928C16.6414 51.8419 16.5045 51.3471 16.1803 51.4331Z" fill="#F70032"/>
<path d="M17.441 51.6053C17.4482 51.5981 17.4626 51.5909 17.4698 51.5838C17.5995 51.4834 17.5563 51.3041 17.3834 51.2825C17.369 51.2825 17.3618 51.2826 17.3474 51.2754C17.052 51.2395 17.2033 51.7917 17.441 51.6053Z" fill="#F70032"/>
<path d="M35.091 36.4163C35.0982 36.4234 35.1054 36.4306 35.1126 36.4306C35.2063 36.5167 35.336 36.5167 35.4224 36.4306C35.4296 36.4234 35.4368 36.4163 35.444 36.4163C35.6025 36.2657 35.4801 36.0003 35.2711 36.0003C35.055 35.9931 34.9325 36.2657 35.091 36.4163Z" fill="#F70032"/>
<path d="M9.38693 46.0475C9.39414 46.0546 9.40134 46.0618 9.40855 46.0618C9.5022 46.1478 9.63187 46.1478 9.71832 46.0618C9.72552 46.0546 9.73272 46.0475 9.73993 46.0475C9.89842 45.8969 9.77595 45.6315 9.56704 45.6315C9.35091 45.6243 9.22844 45.8969 9.38693 46.0475Z" fill="#F70032"/>
<path d="M21.4897 37.3342C21.4969 37.3414 21.5041 37.3485 21.5113 37.3485C21.605 37.4346 21.7347 37.4346 21.8211 37.3485C21.8283 37.3414 21.8355 37.3342 21.8427 37.3342C22.0012 37.1836 21.8788 36.9183 21.6698 36.9183C21.4537 36.9111 21.324 37.1836 21.4897 37.3342Z" fill="#F70032"/>
<path d="M26.6839 38.3239C26.6911 38.3311 26.6983 38.3382 26.7055 38.3382C26.7992 38.4243 26.9289 38.4243 27.0153 38.3382C27.0225 38.3311 27.0297 38.3239 27.0369 38.3239C27.1954 38.1733 27.073 37.908 26.864 37.908C26.6479 37.908 26.5254 38.1733 26.6839 38.3239Z" fill="#F70032"/>
<path d="M38.7003 37.8362C38.7075 37.829 38.7147 37.8219 38.7219 37.8219C38.7939 37.7645 38.7939 37.6283 38.7219 37.5709C38.7147 37.5637 38.7075 37.5637 38.7003 37.5565C38.5706 37.449 38.3545 37.5135 38.3545 37.7C38.3545 37.8792 38.5706 37.9438 38.7003 37.8362Z" fill="#F70032"/>
<path d="M14.1056 44.8498C14.1128 44.8426 14.12 44.8354 14.1272 44.8354C14.1992 44.7781 14.1992 44.6418 14.1272 44.5844C14.12 44.5773 14.1128 44.5773 14.1056 44.5701C13.9759 44.4625 13.7598 44.5271 13.7598 44.7135C13.7598 44.8928 13.9759 44.9573 14.1056 44.8498Z" fill="#F70032"/>
<path d="M36.7408 41.3788C36.748 41.3717 36.7552 41.3645 36.7624 41.3645C36.8345 41.3071 36.8345 41.1709 36.7624 41.1135C36.7552 41.1063 36.748 41.1063 36.7408 41.0992C36.6111 40.9916 36.395 41.0561 36.395 41.2426C36.395 41.4219 36.6111 41.4864 36.7408 41.3788Z" fill="#F70032"/>
<path d="M25.8481 36.0648C25.8553 36.0577 25.8625 36.0505 25.8697 36.0505C25.9418 35.9931 25.9418 35.8569 25.8697 35.7995C25.8625 35.7923 25.8553 35.7923 25.8481 35.7852C25.7184 35.6776 25.5023 35.7421 25.5023 35.9286C25.5023 36.1079 25.7184 36.1724 25.8481 36.0648Z" fill="#F70032"/>
<path d="M19.3645 32.0417C19.3717 32.0345 19.3789 32.0345 19.3861 32.0274C19.4581 31.97 19.4581 31.8337 19.3861 31.7764C19.3789 31.7692 19.3717 31.762 19.3645 31.762C19.2348 31.6544 19.0187 31.719 19.0187 31.9055C19.0187 32.0847 19.2348 32.1493 19.3645 32.0417Z" fill="#F70032"/>
<path d="M18.4497 34.6449C18.4569 34.6377 18.4641 34.6306 18.4713 34.6306C18.5433 34.5732 18.5433 34.4369 18.4713 34.3796C18.4641 34.3724 18.4569 34.3652 18.4497 34.3652C18.32 34.2577 18.1039 34.3222 18.1039 34.5087C18.1039 34.6879 18.32 34.7525 18.4497 34.6449Z" fill="#F70032"/>
<path d="M40.5733 35.0537C40.5805 35.0681 40.5805 35.0752 40.5877 35.0896C40.6525 35.2474 40.8471 35.2474 40.9047 35.0896C40.9119 35.0752 40.9119 35.0681 40.9191 35.0537C41.0344 34.7669 40.4652 34.7669 40.5733 35.0537Z" fill="#F70032"/>
<path d="M47.7991 43.0068C47.8063 43.0139 47.8063 43.0283 47.8135 43.0354C47.8783 43.1932 48.0728 43.1932 48.1305 43.0354C48.1377 43.0283 48.1377 43.0139 48.1449 43.0068C48.2529 42.7199 47.6838 42.7199 47.7991 43.0068Z" fill="#F70032"/>
<path d="M43.6566 34.5087C43.7143 34.3724 43.7143 34.2864 43.6566 34.1501C43.563 33.935 43.246 33.9278 43.0947 34.0784C42.9578 34.2147 42.9578 34.4441 43.0947 34.5804C43.246 34.731 43.563 34.7238 43.6566 34.5087Z" fill="#F70032"/>
<path d="M32.0509 41.5222C32.1086 41.386 32.1086 41.2999 32.0509 41.1637C31.9573 40.9485 31.6403 40.9413 31.489 41.0919C31.3521 41.2282 31.3521 41.4577 31.489 41.5939C31.6403 41.7445 31.9573 41.7374 32.0509 41.5222Z" fill="#F70032"/>
<path d="M34.1832 39.4928C34.5434 39.4928 34.5434 38.9406 34.1832 38.9406C33.823 38.9406 33.823 39.4928 34.1832 39.4928Z" fill="#F70032"/>
<path d="M9.84791 43.2219C10.2081 43.2219 10.2081 42.6697 9.84791 42.6697C9.48771 42.6626 9.48771 43.2219 9.84791 43.2219Z" fill="#F70032"/>
<path d="M30.538 58.9057C32.6272 59.8954 34.6155 59.4364 36.6399 58.5543C38.0951 57.9161 38.4193 55.8292 37.6845 54.5814C36.8776 53.2045 35.0766 52.7599 33.6934 53.5415C32.4399 54.2515 31.244 54.8539 30.1274 55.779C29.1909 56.5607 29.4358 58.3822 30.538 58.9057Z" fill="#0C0A35"/>
<path d="M28.7802 60.1177C29.8824 59.4795 30.5956 58.3751 31.1287 57.2492C31.8635 55.7001 31.5898 54.0938 31.0495 52.5519C30.4083 50.7232 27.8437 50.1782 26.2732 50.9599C24.465 51.8563 23.8958 53.9431 24.6739 55.7145C24.2561 54.7607 24.5874 55.528 24.6307 55.8794C24.6955 56.446 24.9476 57.1201 25.1493 57.6221C25.4231 58.3105 25.6536 59.0635 26.1939 59.6014C26.8495 60.2611 27.9085 60.6197 28.7802 60.1177Z" fill="#0C0A35"/>
<path d="M27.6564 56.8188C27.0369 55.9941 26.2516 55.6069 25.3655 55.1335C24.2129 54.5168 22.8441 53.7925 21.5113 53.8642C20.2362 53.9288 19.1196 54.6817 18.7738 55.9439C18.4064 57.285 19.0475 58.3535 20.0777 59.1423C21.7275 60.4045 25.9418 60.4332 27.3971 58.7909C27.8509 58.2818 28.1103 57.4212 27.6564 56.8188Z" fill="#0C0A35"/>
<path d="M26.2084 85.9203C26.5902 85.404 26.9648 84.8805 27.3178 84.3498C27.4259 84.3354 27.5123 84.4143 27.5844 84.4932C28.0238 84.9737 28.3768 85.3466 28.665 85.9275C28.7226 86.0422 28.7946 86.1785 28.7298 86.2932C28.665 86.4079 27.9734 87.0964 27.7212 87.2757C27.6276 87.3474 27.5267 87.4191 27.4043 87.4191C27.253 87.4191 27.1305 87.3044 27.0224 87.1968C26.8568 87.0247 26.6911 86.8526 26.5326 86.6805C26.3597 86.4725 26.0427 86.1426 26.2084 85.9203Z" fill="#B70027"/>
<path d="M23.5502 62.3049C23.5862 61.5591 23.615 60.8061 23.5502 60.0603C23.4493 58.9559 23.5429 58.4826 23.5069 57.5001C23.4997 57.3352 23.8599 55.9152 25.416 55.4563C27.4908 54.8467 28.9244 54.8539 30.4444 55.6355C30.675 55.7503 31.1144 55.9869 31.3666 56.3742C31.5034 56.5893 31.5179 57.4069 31.5034 57.6579C31.4242 58.8698 31.5683 60.1033 31.9357 61.2651C31.9861 61.4229 32.051 61.595 32.1878 61.6882C32.3391 61.7886 32.5336 61.7671 32.7137 61.7527C33.4485 61.6882 34.1906 61.7599 34.9038 61.9535C35.1343 62.0181 35.3648 62.097 35.5305 62.2762C35.7683 62.5416 35.7683 62.9288 35.7538 63.2874C35.689 64.8077 36.006 65.4388 35.4081 67.8484C35.7034 67.791 36.006 67.7408 36.287 67.8269C36.5679 67.9129 36.8201 68.1926 36.7624 68.4867C36.7264 68.666 36.5895 68.8094 36.4599 68.9384C36.0276 69.3902 35.6314 69.8707 35.2784 70.3871C35.1055 70.6452 34.9326 70.9178 34.875 71.219C34.8245 71.47 34.8533 71.7353 34.8894 71.9935C34.983 72.7895 35.0767 73.5855 35.1703 74.3815C35.2135 74.7401 34.9614 74.8907 34.6156 74.9911C32.3463 75.6652 29.9618 75.9664 27.5916 75.8732C27.2747 75.8588 26.9577 75.8445 26.6551 75.7369C25.8843 75.4644 25.416 74.6971 25.1423 73.9369C24.9333 73.3632 24.8037 72.7608 24.674 72.1584C24.4363 71.054 24.1985 69.9424 23.9608 68.8309C23.651 67.4038 23.3412 65.9552 23.3773 64.4922C23.3773 63.7536 23.5141 63.0364 23.5502 62.3049Z" fill="#FFD6A1"/>
<path d="M30.9127 64.8293C30.819 64.8293 30.7326 64.901 30.7326 64.9942C30.7254 65.2237 30.8622 65.4603 30.9919 65.6611C31.3521 66.2133 31.7051 66.7655 32.0653 67.3177C32.1446 67.4396 32.2238 67.5615 32.3463 67.6404C32.5192 67.748 32.8218 67.8699 33.0307 67.8627C33.924 67.8269 34.5147 67.8699 35.408 67.8341C35.5881 67.8269 35.7754 67.8197 35.9339 67.7265C36.0636 67.6548 36.1645 67.5257 36.2581 67.411C36.6831 66.8588 38.0951 65.4603 38.1816 65.0731C38.2464 64.7862 33.1315 64.8508 30.9127 64.8293Z" fill="#B70027"/>
<path d="M28.2184 64.5281C28.0311 64.9153 28.0599 65.3743 27.923 65.7831C27.8005 66.1703 27.4187 66.5504 27.0369 66.4644C26.9937 66.4572 26.9649 66.4142 26.9649 66.3783C26.8856 65.4962 26.8568 64.6141 26.8784 63.7249C26.8856 63.4022 26.9 63.0795 27.0369 62.7854C27.1594 62.5273 27.7429 61.9392 28.312 61.3368C29.3854 60.2037 29.8969 60.0388 31.0856 59.0276C31.8204 58.4037 32.5624 57.7726 33.2972 57.1487C33.5134 56.9623 33.7367 56.7758 34.0032 56.6826C34.2698 56.5822 34.594 56.5965 34.8101 56.783C35.019 56.9623 35.0766 57.2563 35.1127 57.5288C35.2856 58.92 35.5881 61.3655 35.7466 62.685C35.7826 62.9934 35.6242 62.685 34.9182 62.6492C33.254 62.5631 31.7195 63.0149 30.0986 63.4165C29.371 63.5958 28.5425 63.8468 28.2184 64.5281Z" fill="#B70027"/>
<path d="M25.8986 71.1258C26.7486 70.5951 27.5987 70.2007 28.6001 70.1576C29.9112 70.1003 31.2512 70.7314 31.2728 70.8318C31.2872 70.9106 31.244 70.9895 31.1936 71.0541C31.0207 71.2764 30.7685 71.4198 30.5164 71.5417C29.1908 72.1656 27.5771 72.1298 26.2804 71.4557C26.1363 71.3624 25.9778 71.2692 25.8986 71.1258Z" fill="white"/>
<path d="M25.9347 73.0763C27.4259 73.7433 29.1909 73.7935 30.711 73.1839C31.1216 73.0189 31.4962 72.7751 31.7844 72.4452C31.8853 72.3305 31.9789 72.1942 31.9861 72.0436C31.9933 71.8787 31.8781 71.6994 31.7124 71.6994C31.6115 71.6994 31.5251 71.7639 31.4458 71.8141C29.9834 72.8253 28.0095 73.0476 26.3525 72.4094C26.2085 72.352 26.0428 72.4094 25.9707 72.5456L25.841 72.7895C25.7834 72.897 25.8266 73.0261 25.9347 73.0763Z" fill="#0C0A35"/>
<path d="M29.2917 71.3481C29.4142 71.1616 29.4142 70.9106 29.2989 70.7242C29.2197 70.5951 29.0684 70.5162 28.9171 70.4803C28.665 70.423 28.3768 70.4516 28.1679 70.5951C27.9878 70.7242 27.8797 71.011 27.959 71.219C28.0238 71.3911 28.1103 71.6851 28.701 71.6708C28.9171 71.6708 29.1693 71.5274 29.2917 71.3481Z" fill="#0C0A35"/>
<path d="M25.1782 70.3727C25.0989 69.6413 25.0269 68.9098 24.9476 68.1711C24.6523 65.3671 24.3569 62.5703 23.9895 59.7734C23.9751 59.6444 23.9319 59.4938 23.8094 59.4579C23.7229 59.4292 23.6365 59.4722 23.5572 59.5153C21.4536 60.6125 19.3429 61.7169 17.3689 63.0221C16.9439 63.3018 16.4972 63.6316 16.3748 64.1265C16.2595 64.5926 16.4684 65.0731 16.6773 65.5105C17.8588 67.956 19.17 70.3512 20.0561 72.9186C20.301 73.6214 20.5099 74.3385 20.8773 74.9911C20.9854 75.1847 21.1079 75.3712 21.288 75.5003C21.4681 75.6365 21.6986 75.6939 21.9147 75.7513C23.2619 76.0883 24.645 76.2748 26.0282 76.3106C26.0859 75.8517 25.9634 75.3927 25.8553 74.9409C25.5023 73.4493 25.3366 71.9074 25.1782 70.3727Z" fill="#990028"/>
<path d="M22.8514 79.588C22.5776 79.1649 22.5632 78.6199 22.2967 78.1968C22.0589 77.8239 21.7131 77.4725 21.7059 77.035C21.9725 76.8342 22.3327 76.827 22.6641 76.827C26.3958 76.827 30.1203 76.8199 33.852 76.8199C33.9024 76.8199 33.9529 76.8199 33.9961 76.8342C34.205 76.9131 34.1402 77.2215 34.0321 77.4151C33.4558 78.5195 30.7038 82.2271 29.933 82.9801C29.4935 83.4032 29.0613 83.8335 28.6218 84.2638C28.2184 84.651 27.7069 85.0813 27.1666 84.9307C27.0081 84.8805 25.8771 84.2136 22.8514 79.588Z" fill="#990028"/>
<path d="M36.9208 67.7624C37.2306 67.2962 37.3171 66.6795 37.4827 66.1488C37.7709 65.2309 38.1887 64.2556 38.3472 63.3161C38.3616 63.2157 38.232 63.101 38.1527 63.2014C37.1802 64.4492 37.3603 66.2994 36.7767 67.705C36.7335 67.791 36.8704 67.8341 36.9208 67.7624Z" fill="#0C0A35"/>
<path d="M36.042 69.0819C36.5319 68.3074 36.6327 67.4181 36.7912 66.5289C37.0001 65.3456 37.4252 64.2268 37.6701 63.0579C37.6989 62.936 37.5404 62.8715 37.4684 62.9719C36.2869 64.5998 36.4166 67.1528 35.9628 69.0388C35.9483 69.0962 36.0132 69.1249 36.042 69.0819Z" fill="#0C0A35"/>
<path d="M35.5088 68.9886C35.7249 67.3034 36.0491 65.6468 36.1428 63.9471C36.1428 63.8898 36.0635 63.8539 36.0275 63.8969C35.588 64.442 35.588 65.2308 35.5304 65.9049C35.444 66.9161 35.2566 67.9775 35.3647 68.9886C35.3719 69.0819 35.4944 69.0819 35.5088 68.9886Z" fill="#0C0A35"/>
<path d="M34.7453 68.9098C35.0335 68.0062 34.9686 67.1241 34.9974 66.1918C35.0191 65.3025 35.1991 64.4205 35.228 63.5312C35.228 63.4237 35.0767 63.3806 35.0262 63.4738C34.1257 65.0659 34.8029 67.1528 34.5724 68.8596C34.5508 68.9743 34.7093 69.0245 34.7453 68.9098Z" fill="#0C0A35"/>
<path d="M33.8448 69.3975C34.0249 68.4508 34.0393 67.5401 34.0105 66.5791C33.9816 65.4676 34.1473 64.2484 33.7943 63.1799C33.7655 63.0866 33.6286 63.0795 33.5926 63.1799C32.9659 65.1663 33.9024 67.3536 33.6863 69.376C33.6791 69.462 33.8304 69.4835 33.8448 69.3975Z" fill="#0C0A35"/>
<path d="M32.8217 68.8524C33.0234 67.3106 32.9154 65.5034 32.5191 63.9974C32.4975 63.9113 32.3534 63.9042 32.3318 63.9974C31.9932 65.5464 32.6056 67.289 32.6632 68.8524C32.6704 68.9528 32.8073 68.9456 32.8217 68.8524Z" fill="#0C0A35"/>
<path d="M31.6979 67.9703C31.8636 66.7082 31.9933 65.2667 31.5898 64.0332C31.5682 63.9687 31.4602 63.9328 31.4241 64.0117C31.1864 64.5496 31.2729 65.109 31.3377 65.6755C31.4241 66.4357 31.4169 67.203 31.5178 67.9632C31.5394 68.0851 31.6835 68.0851 31.6979 67.9703Z" fill="#0C0A35"/>
<path d="M35.1486 63.6316C35.2494 62.0037 35.0117 60.2898 34.8316 58.6691C34.7235 57.6507 34.8316 56.4316 34.3129 55.5136C34.2553 55.4204 34.1256 55.4849 34.14 55.5853C34.6803 58.1886 34.6803 60.9926 35.0117 63.6316C35.0261 63.7177 35.1414 63.7177 35.1486 63.6316Z" fill="#0C0A35"/>
<path d="M34.1689 63.2444C34.3995 61.0213 34.1905 58.1313 33.4485 56.0014C33.4269 55.9368 33.3188 55.9225 33.3044 56.0014C33.1171 56.9695 33.2684 57.9018 33.4053 58.8699C33.607 60.3329 33.8015 61.803 34.0104 63.2659C34.0248 63.3663 34.1617 63.3305 34.1689 63.2444Z" fill="#0C0A35"/>
<path d="M32.9587 63.352C32.9875 61.05 32.6489 58.8053 32.2166 56.5535C32.195 56.446 32.0221 56.446 32.0005 56.5535C31.7844 57.6508 32.1302 58.7265 32.2743 59.8165C32.4256 60.9854 32.7137 62.1759 32.8146 63.3448C32.8218 63.4381 32.9587 63.4452 32.9587 63.352Z" fill="#0C0A35"/>
<path d="M31.9933 63.7393C32.0581 61.6596 31.8276 59.1855 31.2008 57.199C31.136 56.991 30.7758 57.0197 30.8046 57.2564C31.0279 59.4365 31.5899 61.5664 31.7916 63.7393C31.806 63.8684 31.9933 63.8755 31.9933 63.7393Z" fill="#0C0A35"/>
<path d="M30.9487 63.9114C31.028 62.1902 30.711 60.3974 30.0915 58.791C30.077 58.748 30.005 58.748 30.005 58.8053C30.0626 60.5265 30.6246 62.1974 30.783 63.9185C30.7975 64.0189 30.9415 64.0189 30.9487 63.9114Z" fill="#0C0A35"/>
<path d="M29.9185 64.2341C30.0986 62.3337 29.4502 60.297 29.1044 58.4396C29.0612 58.2245 28.7298 58.2818 28.7298 58.4898C28.6866 60.4619 29.7384 62.2763 29.832 64.2341C29.832 64.2914 29.9113 64.2914 29.9185 64.2341Z" fill="#0C0A35"/>
<path d="M29.1766 65.152C29.2054 63.2301 28.9244 61.1074 28.3337 59.2787C28.3049 59.1926 28.1752 59.1854 28.1464 59.2787C27.9375 60.0532 28.096 60.842 28.2545 61.6165C28.4922 62.807 28.802 63.9831 29.0829 65.1664C29.0973 65.2166 29.1766 65.2022 29.1766 65.152Z" fill="#0C0A35"/>
<path d="M28.4848 65.697C28.2687 64.901 28.2759 63.9831 28.1102 63.1584C27.9229 62.2333 27.75 61.2436 27.3322 60.3974C27.2745 60.2755 27.1016 60.3472 27.0944 60.4619C27.008 61.5376 27.4546 62.6564 27.6924 63.6962C27.8365 64.3201 27.9301 65.2667 28.3768 65.7544C28.42 65.8046 28.4992 65.7544 28.4848 65.697Z" fill="#0C0A35"/>
<path d="M27.5843 67.0883C27.7716 64.8867 27.008 62.8715 26.7775 60.7058C26.7703 60.6484 26.6838 60.6269 26.6694 60.6914C26.302 62.7855 27.1377 65.0229 27.4186 67.0883C27.4331 67.1887 27.5771 67.1959 27.5843 67.0883Z" fill="#0C0A35"/>
<path d="M25.1495 76.2891C25.4304 73.3201 24.8325 70.1361 24.3282 67.2245C24.0544 65.6826 23.8887 64.1265 23.6726 62.5703C23.4925 61.3296 23.4637 59.9025 22.8514 58.7838C22.7073 58.5112 22.3039 58.7049 22.3687 58.9846C22.9594 61.5806 23.2188 64.2268 23.6726 66.8516C23.9752 68.5799 24.3354 70.301 24.5443 72.0436C24.7172 73.4851 24.6812 74.905 25.1206 76.2963C25.1206 76.3106 25.1495 76.3106 25.1495 76.2891Z" fill="#0C0A35"/>
<path d="M24.4073 75.4357C23.9463 72.8397 23.759 70.2006 23.2835 67.6046C23.0314 66.2492 22.8729 64.8795 22.6063 63.5313C22.3109 62.0683 21.8715 60.677 21.7995 59.171C21.6266 59.2714 21.4537 59.3719 21.2808 59.4723C21.3168 59.4938 21.3456 59.5081 21.3816 59.5296C21.4969 59.5942 21.6049 59.5511 21.677 59.4507C21.7058 59.4149 21.7274 59.3862 21.7562 59.3503C22.0948 58.8985 21.0791 58.5687 21.1151 59.1782C21.1799 60.3974 21.4393 61.5591 21.7346 62.7352C22.1164 64.234 22.311 65.7544 22.6135 67.2604C22.9233 68.8165 23.3123 70.3512 23.5933 71.9146C23.8094 73.1337 23.8382 74.3242 24.3785 75.4572C24.3785 75.4716 24.4145 75.4572 24.4073 75.4357Z" fill="#0C0A35"/>
<path d="M23.6221 76.0739C23.5933 74.9194 23.1971 73.815 23.0314 72.6747C22.8297 71.305 22.5919 69.9496 22.3182 68.5942C22.0372 67.1958 21.6626 65.826 21.3168 64.442C20.9566 63.0149 20.8918 61.5232 20.4163 60.1248C20.2794 59.7304 19.7031 59.8881 19.7896 60.2969C20.3659 62.9718 20.971 65.5894 21.6482 68.2428C22.3254 70.8819 22.5631 73.5496 23.5933 76.0739C23.6005 76.0883 23.6221 76.0883 23.6221 76.0739Z" fill="#0C0A35"/>
<path d="M22.6424 75.615C22.4767 72.9473 21.5762 70.2724 20.9135 67.6835C20.5172 66.1273 19.9913 64.6142 19.5807 63.058C19.2709 61.8962 19.2421 60.5695 18.3848 59.6587C18.2047 59.4651 17.8085 59.6659 17.9166 59.9312C18.9468 62.4556 19.4871 65.2381 20.2795 67.8556C20.719 69.2899 21.0864 70.7457 21.5114 72.18C21.85 73.3059 21.9869 74.5967 22.5848 75.6222C22.6064 75.6509 22.6496 75.6437 22.6424 75.615Z" fill="#0C0A35"/>
<path d="M21.6554 75.1202C21.713 74.1449 21.4536 73.2628 21.1439 72.3377C20.6468 70.8317 20.1785 69.3186 19.5662 67.8556C19.0691 66.6508 18.4856 65.4819 17.9597 64.2843C17.4266 63.0651 17.088 61.595 16.2091 60.5623C16.101 60.4404 15.9281 60.5767 15.9569 60.7057C16.4108 63.0866 17.7579 65.4389 18.8314 67.5831C19.4509 68.8237 19.9264 70.1361 20.3946 71.4413C20.8197 72.6246 21.4248 73.8509 21.5257 75.113C21.5329 75.1991 21.6481 75.1991 21.6554 75.1202Z" fill="#0C0A35"/>
<path d="M20.6973 75.1345C21.7419 74.3672 19.5951 70.595 19.2132 69.8205C18.3848 68.1281 17.5635 66.4428 16.7711 64.7288C16.3316 63.7894 15.7553 62.2977 14.8692 61.6882C14.6314 61.5232 14.3073 61.8459 14.473 62.0826C15.8057 64.0332 16.6414 66.2778 17.7508 68.3504C18.4496 69.6627 19.1772 70.9392 19.7535 72.309C20.0705 73.0691 20.8269 74.2381 20.6252 75.0628C20.6108 75.113 20.6541 75.1632 20.6973 75.1345Z" fill="#0C0A35"/>
<path d="M17.2897 77.8166C18.0677 76.3536 18.961 74.9481 19.9552 73.6285C20.0489 73.5066 20.1497 73.3775 20.2866 73.3202C20.4235 73.2628 20.582 73.2699 20.7332 73.2843C25.5672 73.7217 30.4876 74.4891 35.2206 73.4421C36.0203 74.8763 36.9568 76.2389 38.0086 77.5082C38.1311 77.6588 38.2608 77.8238 38.2608 78.0102C38.2608 78.3903 37.7925 78.5624 37.4107 78.627C32.3534 79.4517 27.1881 79.1935 22.0732 78.9353C20.4595 78.8493 18.8386 78.7704 17.2681 78.4047C17.1024 78.2612 17.1888 78.0031 17.2897 77.8166Z" fill="#B70027"/>
<path d="M38.2248 77.8597C37.9582 77.5083 35.444 76.1672 35.1847 76.074C34.6155 75.8661 34.5507 76.4039 34.4066 76.6406C33.9312 77.4222 33.326 78.1465 32.901 78.5983C32.8722 78.6342 32.8217 78.6414 32.7785 78.6199C32.4255 78.4477 31.7195 77.8095 31.5754 77.6015C31.3665 77.3003 30.9847 76.9776 30.7325 76.7123C30.6389 76.619 30.5308 76.5186 30.4012 76.533C30.2787 76.5401 30.1922 76.6406 30.113 76.7338C29.6303 77.3003 28.6794 78.7633 28.1535 78.7203C27.7285 78.6844 27.6564 77.9816 26.6983 76.6406C26.511 76.3752 26.3453 76.6047 25.6393 77.2071C24.9333 77.8023 24.5587 78.0963 23.8454 78.6199C23.795 78.6557 23.7158 78.6629 23.6581 78.6342C22.9377 78.1968 22.7144 77.2286 22.1669 76.5688C22.0804 76.4684 21.9796 76.368 21.8499 76.3537C21.6914 76.3322 21.5546 76.4326 21.4321 76.533L19.6959 77.8956C19.6311 77.9458 19.5374 77.9242 19.5014 77.8525C19.0691 77.0135 18.6441 75.4716 18.536 75.6366C17.9669 76.4899 17.5491 76.9202 17.1168 77.8454C16.8719 78.376 17.1961 78.627 17.2681 78.6414C19.8832 79.0788 26.4677 79.7888 31.7411 79.8247C34.0752 79.839 38.1816 79.1505 38.3833 78.8565C38.5634 78.5482 38.4409 78.1465 38.2248 77.8597Z" fill="#F70032"/>
<path d="M27.9301 66.744C27.2314 66.744 26.6406 67.3249 26.6406 68.0277C26.6406 68.7234 27.2242 69.3114 27.9301 69.3114C28.6361 69.3114 29.2197 68.7305 29.2197 68.0277C29.2125 67.3249 28.6289 66.744 27.9301 66.744Z" fill="#F70032"/>
<path d="M35.6962 67.7122C35.0694 67.662 34.4426 67.6476 33.8231 67.6906C33.4053 67.7193 32.9802 67.7624 32.7065 68.1137C32.5264 68.3432 32.4543 68.7233 32.6128 68.9887C32.7929 69.2899 33.2468 69.4763 33.5133 69.1895C33.5709 69.1321 33.5709 69.0388 33.5133 68.9815C33.362 68.8309 32.9226 68.8452 32.9082 68.6086C32.8866 68.2787 33.2396 68.1353 33.4989 68.0851C34.2265 67.9416 34.9902 68.0062 35.7178 67.8627C35.8114 67.8484 35.7754 67.7193 35.6962 67.7122Z" fill="#0C0A35"/>
<path d="M30.8695 80.5848C30.6894 80.5848 30.5021 80.592 30.3292 80.6494C30.2067 80.6924 29.897 80.8 29.9546 80.9864C30.0122 81.1657 30.2139 81.051 30.3148 80.9936C30.4877 80.8932 30.6966 80.8 30.8839 80.7283C30.9632 80.6996 30.9487 80.5848 30.8695 80.5848Z" fill="#B70027"/>
<path d="M29.9185 81.8828C29.8608 81.7752 29.8104 81.6748 29.724 81.5816C29.6231 81.474 29.5655 81.4238 29.4214 81.4238C29.3638 81.4238 29.3349 81.474 29.3422 81.5242C29.3638 81.6605 29.4142 81.6963 29.5151 81.7896C29.6015 81.8685 29.7024 81.933 29.8032 81.9976C29.8753 82.0549 29.9545 81.9545 29.9185 81.8828Z" fill="#B70027"/>
<path d="M28.9604 82.9728C28.8235 82.7864 28.6794 82.6071 28.4417 82.5569C28.3841 82.5426 28.3264 82.5928 28.348 82.6502C28.4201 82.894 28.629 83.023 28.8595 83.1019C28.9316 83.1306 29.0036 83.0374 28.9604 82.9728Z" fill="#B70027"/>
<path d="M28.0671 81.5386C27.959 81.5171 27.8653 81.4239 27.7573 81.4311C27.7213 81.4311 27.678 81.4597 27.6852 81.5028C27.6997 81.6534 27.8798 81.7107 28.0094 81.7466C28.1391 81.7825 28.2039 81.5673 28.0671 81.5386Z" fill="#B70027"/>
<path d="M28.8523 80.6134C28.7659 80.5202 28.665 80.4413 28.5569 80.3696C28.4561 80.3051 28.3264 80.2119 28.2111 80.176C28.0599 80.133 27.9734 80.2907 28.031 80.4126C28.1391 80.6565 28.5065 80.678 28.7226 80.7784C28.8307 80.8358 28.946 80.7067 28.8523 80.6134Z" fill="#B70027"/>
<path d="M27.6059 83.1234C27.4258 83.2023 27.2025 83.1449 27.0584 83.3171C27.0224 83.3601 27.0296 83.4318 27.0945 83.4461C27.3106 83.5178 27.5483 83.4031 27.7068 83.2525C27.7716 83.1808 27.6852 83.0876 27.6059 83.1234Z" fill="#B70027"/>
<path d="M28.1031 83.8693C27.9446 83.9912 27.5627 84.0056 27.5483 84.2494C27.5483 84.2853 27.57 84.3139 27.5988 84.3355C27.8149 84.4789 28.1175 84.1347 28.2111 83.9769C28.2399 83.9124 28.1679 83.8191 28.1031 83.8693Z" fill="#B70027"/>
<path d="M26.2661 83.3601C26.2301 83.2382 26.1869 83.1449 26.1292 83.0374C26.1004 82.9872 26.0572 82.9441 26.0212 82.9011C25.9851 82.8653 25.9347 82.8724 25.8915 82.8581C25.8411 82.8366 25.8051 82.894 25.8123 82.9298C25.8195 82.9728 25.7978 83.0087 25.8267 83.0446C25.8555 83.0948 25.8915 83.145 25.9275 83.188C26.0068 83.2812 26.0932 83.3457 26.2085 83.4031C26.2373 83.4175 26.2733 83.396 26.2661 83.3601Z" fill="#B70027"/>
<path d="M26.7271 82.1266C26.6263 81.9689 26.5038 81.8326 26.3813 81.6963C26.3525 81.6605 26.3021 81.6533 26.2588 81.6676C26.2228 81.6748 26.2012 81.6892 26.1868 81.725C26.1652 81.7752 26.1652 81.8254 26.2084 81.8756C26.3309 82.0047 26.475 82.1123 26.5974 82.2342C26.6623 82.3059 26.7775 82.2127 26.7271 82.1266Z" fill="#B70027"/>
<path d="M26.6983 80.5418C26.6047 80.4485 26.511 80.3553 26.4029 80.2692C26.3021 80.1832 26.2012 80.0971 26.0643 80.133C26.0211 80.1473 25.9923 80.1832 25.9923 80.2262C25.9923 80.3696 26.1004 80.4414 26.2084 80.5202C26.3309 80.6063 26.4462 80.6708 26.5902 80.721C26.6983 80.7641 26.7703 80.6135 26.6983 80.5418Z" fill="#B70027"/>
<path d="M25.2069 82.0406C25.2286 81.89 25.279 81.7537 25.3294 81.6103C25.3654 81.4956 25.3798 81.3521 25.3006 81.2661C25.2718 81.2374 25.2214 81.2302 25.1853 81.2517C24.962 81.388 25.0917 81.8326 25.1133 82.0334C25.1277 82.0764 25.1997 82.098 25.2069 82.0406Z" fill="#B70027"/>
<path d="M24.5442 80.6565C24.5803 80.4772 24.6739 80.1689 24.4938 80.0398C24.4794 80.0326 24.4506 80.0254 24.429 80.0398C24.2705 80.1617 24.3353 80.4127 24.3065 80.592C24.2777 80.7426 24.5154 80.8143 24.5442 80.6565Z" fill="#B70027"/>
<path d="M34.594 74.8693C34.5219 74.8836 34.4571 74.9123 34.3995 74.9481C34.1113 75.1346 34.1113 75.5362 34.3995 75.7227C34.4571 75.7585 34.5219 75.7872 34.594 75.8015C34.8965 75.8732 35.2063 75.6581 35.2063 75.3354C35.2135 75.0127 34.9037 74.7975 34.594 74.8693Z" fill="#0C0A35"/>
<path d="M30.5957 75.1345C30.3292 75.1345 30.113 75.3497 30.113 75.615C30.113 75.8803 30.3292 76.0955 30.5957 76.0955C30.8551 76.0955 31.0784 75.8803 31.0784 75.615C31.0784 75.3568 30.8551 75.1345 30.5957 75.1345Z" fill="#0C0A35"/>
<path d="M26.7415 75.3497C26.7343 75.3497 26.7271 75.3425 26.7199 75.3425C26.4029 75.1848 26.0067 75.4358 26.1076 75.8087C26.2084 76.1816 26.6695 76.1887 26.8712 75.9091C26.8784 75.9019 26.8784 75.9019 26.8856 75.8947C27.0009 75.7226 26.9216 75.4357 26.7415 75.3497Z" fill="#0C0A35"/>
<path d="M21.6195 74.8979C21.6123 74.905 21.6051 74.905 21.5907 74.9122C21.3241 75.07 21.3241 75.4572 21.5907 75.615C21.5979 75.6222 21.6051 75.6222 21.6195 75.6294C21.9004 75.7943 22.2606 75.5863 22.2606 75.2636C22.2678 74.9409 21.9004 74.7257 21.6195 74.8979Z" fill="#0C0A35"/>
<path d="M37.4251 53.1686C36.9857 53.1686 36.6183 53.5343 36.6183 53.9718C36.6183 54.4092 36.9857 54.775 37.4251 54.775C37.8646 54.775 38.232 54.4092 38.232 53.9718C38.2248 53.5343 37.8574 53.1686 37.4251 53.1686Z" fill="#B70027"/>
<path d="M27.7285 49.7264C27.3322 49.7264 27.0009 50.0562 27.0009 50.4507C27.0009 50.8451 27.3322 51.175 27.7285 51.175C28.1247 51.175 28.4561 50.8451 28.4561 50.4507C28.4561 50.0562 28.1247 49.7264 27.7285 49.7264Z" fill="#B70027"/>
<path d="M18.9251 54.6674C18.9106 54.6674 18.889 54.6746 18.8746 54.6746C18.4928 54.7463 18.3271 55.3272 18.6369 55.5782C18.6513 55.5854 18.6657 55.5997 18.6729 55.614C18.9827 55.8937 19.5014 55.7861 19.6166 55.363C19.6671 55.1694 19.6167 54.9543 19.4726 54.818C19.3213 54.6531 19.134 54.6387 18.9251 54.6674Z" fill="#B70027"/>
<path d="M28.0021 52.7168C28.1606 52.6379 28.2398 52.4873 28.247 52.3152C28.2543 52.0427 27.9013 51.8061 27.6635 51.9853C27.6563 51.9925 27.6491 51.9925 27.6491 51.9997C27.7139 51.9782 27.786 51.9638 27.8508 51.9423C27.8436 51.9423 27.8364 51.9423 27.8292 51.9423C27.9012 51.9638 27.9661 51.9782 28.0381 51.9997C28.0309 51.9997 28.0237 51.9925 28.0093 51.9853C27.8652 51.9208 27.7212 51.8993 27.5771 51.9853C27.4474 52.0642 27.3681 52.2005 27.3681 52.3511C27.3609 52.6881 27.7212 52.8674 28.0021 52.7168Z" fill="#B70027"/>
<path d="M27.7862 53.4698C27.498 53.4698 27.498 53.9216 27.7862 53.9216C28.0816 53.9216 28.0816 53.4698 27.7862 53.4698Z" fill="#B70027"/>
<path d="M35.7826 54.9328C35.7754 54.9399 35.7682 54.9399 35.761 54.9471C35.8114 54.9184 35.8619 54.8897 35.9051 54.8611C35.8979 54.8611 35.8835 54.8682 35.8763 54.8754C35.7682 54.9184 35.689 54.983 35.6529 55.0977C35.6169 55.2268 35.6746 55.3917 35.797 55.4563C35.8403 55.4778 35.8835 55.4993 35.9267 55.5065C36.1788 55.5495 36.4238 55.3559 36.3517 55.0834C36.2797 54.8109 35.9771 54.7822 35.7826 54.9328Z" fill="#B70027"/>
<path d="M34.9397 55.7718C34.7092 55.7718 34.7092 56.1304 34.9397 56.1304C35.1703 56.1304 35.1703 55.7718 34.9397 55.7718Z" fill="#B70027"/>
<path d="M20.2795 55.5782C19.7968 55.5782 19.7968 56.324 20.2795 56.324C20.7622 56.324 20.7622 55.5782 20.2795 55.5782Z" fill="#B70027"/>
<path d="M21.2737 56.2379C20.9207 56.2379 20.9207 56.783 21.2737 56.783C21.6267 56.783 21.6267 56.2379 21.2737 56.2379Z" fill="#B70027"/>
<path d="M35.3792 74.3099C35.2927 74.1808 35.2567 74.0302 35.2279 73.8868C35.1774 73.6716 34.8244 73.7648 34.8893 73.98C34.9469 74.1736 35.0117 74.3386 35.1558 74.482C35.2711 74.5896 35.4656 74.4461 35.3792 74.3099Z" fill="#F70032"/>
<path d="M34.5795 74.568C34.5146 74.3887 34.4642 74.2095 34.3705 74.0445C34.3417 73.9943 34.2769 73.9656 34.2193 73.9799C34.1977 73.9871 34.176 74.0015 34.1616 74.0158C34.1112 74.0588 34.1184 74.1305 34.14 74.1807C34.2121 74.3457 34.2913 74.4963 34.385 74.6469C34.4498 74.7473 34.6227 74.6827 34.5795 74.568Z" fill="#F70032"/>
<path d="M33.6718 74.8477C33.8015 74.611 33.679 74.2166 33.5205 74.0301C33.4052 73.8939 33.1387 74.0014 33.1603 74.1807C33.1747 74.3457 33.2467 74.4748 33.3116 74.6254C33.3692 74.7473 33.4485 74.8477 33.5781 74.8907C33.607 74.905 33.6502 74.8835 33.6718 74.8477Z" fill="#F70032"/>
<path d="M32.8218 74.8047C32.8146 74.5824 32.8146 74.3385 32.7137 74.1449C32.6345 73.9943 32.4183 74.0732 32.4111 74.2238C32.3967 74.4461 32.512 74.6684 32.6057 74.862C32.6561 74.9696 32.829 74.9123 32.8218 74.8047Z" fill="#F70032"/>
<path d="M31.9429 74.9123C31.9501 74.6828 31.9501 74.4318 31.8348 74.231C31.734 74.0589 31.4674 74.1378 31.4674 74.3314C31.4674 74.5465 31.5611 74.7545 31.6475 74.9553C31.6979 75.1059 31.9357 75.0915 31.9429 74.9123Z" fill="#F70032"/>
<path d="M31.0423 74.8405C31.0423 74.6469 31.0928 74.4533 30.9991 74.2668C30.9199 74.109 30.6749 74.1879 30.6749 74.3529C30.6749 74.525 30.7182 74.7114 30.7758 74.8764C30.819 75.0198 31.0351 74.9983 31.0423 74.8405Z" fill="#F70032"/>
<path d="M30.0769 74.9983C30.1994 74.819 30.1778 74.568 30.1057 74.3672C30.0193 74.1377 29.6375 74.1592 29.6591 74.4246C29.6735 74.6397 29.7383 74.8763 29.904 75.0126C29.9617 75.07 30.0337 75.0628 30.0769 74.9983Z" fill="#F70032"/>
<path d="M29.1405 74.8692C29.1693 74.7042 29.1981 74.5249 29.1549 74.36C29.1333 74.2883 29.0756 74.2524 29.0036 74.2453C28.9748 74.2453 28.9532 74.2524 28.9243 74.2668C28.8811 74.2883 28.8451 74.3528 28.8451 74.403C28.8523 74.5536 28.9027 74.6899 28.9099 74.8405C28.9171 74.9624 29.1116 75.0054 29.1405 74.8692Z" fill="#F70032"/>
<path d="M28.4849 74.8764C28.4777 74.7401 28.4849 74.6039 28.4849 74.4605C28.4777 74.3242 28.3912 74.1019 28.2111 74.1664C27.9014 74.274 28.0671 74.7545 28.1823 74.9553C28.2544 75.0987 28.4921 75.0413 28.4849 74.8764Z" fill="#F70032"/>
<path d="M27.3683 74.9051C27.4259 74.6971 27.5196 74.3815 27.3395 74.2166C27.2746 74.1521 27.1449 74.1521 27.1017 74.2453C27.0081 74.4389 27.0873 74.7043 27.1377 74.9051C27.1666 75.0198 27.3395 75.0198 27.3683 74.9051Z" fill="#F70032"/>
<path d="M26.4894 74.948C26.6047 74.7185 26.6551 74.3672 26.4822 74.152C26.403 74.0588 26.2733 74.1305 26.2373 74.2166C26.158 74.403 26.2661 74.6397 26.2373 74.8405C26.2157 74.9767 26.4102 75.0986 26.4894 74.948Z" fill="#F70032"/>
<path d="M25.6969 74.8047C25.7113 74.6111 25.8554 74.0158 25.5168 74.0158C25.38 74.0158 25.3872 74.2166 25.3872 74.3027C25.3872 74.4676 25.4016 74.6326 25.4016 74.7975C25.4232 74.9911 25.6897 74.9912 25.6969 74.8047Z" fill="#F70032"/>
<path d="M24.9261 74.776C25.0125 74.5609 25.1926 74.1521 24.9621 73.9728C24.8684 73.8939 24.7676 73.8939 24.6667 73.9728C24.5443 74.0732 24.5515 74.231 24.5515 74.3744C24.5515 74.5394 24.5731 74.6613 24.6379 74.8119C24.7028 74.9481 24.8829 74.8836 24.9261 74.776Z" fill="#F70032"/>
<path d="M23.9464 74.6684C24.0977 74.4605 24.2201 73.9872 23.9536 73.815C23.896 73.7792 23.8167 73.7792 23.7663 73.815C23.5141 73.98 23.6438 74.3887 23.687 74.6326C23.7086 74.7688 23.8815 74.7545 23.9464 74.6684Z" fill="#F70032"/>
<path d="M23.089 74.5895C23.1394 74.3815 23.1971 74.1879 23.2115 73.9799C23.2259 73.7218 22.8152 73.7218 22.808 73.9799C22.8008 74.1879 22.8153 74.3887 22.8585 74.5895C22.8801 74.7042 23.0602 74.7042 23.089 74.5895Z" fill="#F70032"/>
<path d="M22.1957 74.5178C22.4406 74.3887 22.5127 73.9584 22.4046 73.7289C22.3254 73.5568 22.0876 73.6285 22.0372 73.7791C21.9868 73.9082 22.0084 74.0588 22.0012 74.1951C21.994 74.3098 22.0228 74.4245 22.102 74.5034C22.1237 74.5321 22.1669 74.5393 22.1957 74.5178Z" fill="#F70032"/>
<path d="M21.5546 74.3027C21.6266 74.1234 21.7203 73.8724 21.6626 73.6787C21.6194 73.5425 21.4537 73.5353 21.3745 73.6429C21.252 73.815 21.3384 74.0732 21.3456 74.274C21.3456 74.403 21.5113 74.4102 21.5546 74.3027Z" fill="#F70032"/>
<path d="M20.7261 74.317C20.8629 74.0732 21.0647 73.7935 20.935 73.5067C20.8774 73.3776 20.6612 73.3561 20.5748 73.4565C20.4019 73.6644 20.4019 74.023 20.4595 74.2812C20.4883 74.4031 20.6684 74.4246 20.7261 74.317Z" fill="#F70032"/>
<path d="M23.5429 51.5838C23.5357 51.5766 23.5285 51.5694 23.5213 51.5694C23.4276 51.4833 23.298 51.4833 23.2115 51.5694C23.2043 51.5766 23.1971 51.5838 23.1899 51.5838C23.0314 51.7344 23.1539 51.9997 23.3628 51.9997C23.5789 51.9997 23.7014 51.7272 23.5429 51.5838Z" fill="#F70032"/>
<path d="M30.077 49.045C30.0698 49.0379 30.0625 49.0307 30.0553 49.0307C29.9689 48.9446 29.832 48.9446 29.7456 49.0307C29.7384 49.0379 29.7312 49.045 29.724 49.045C29.5655 49.1956 29.6879 49.461 29.8969 49.461C30.113 49.4681 30.2426 49.1956 30.077 49.045Z" fill="#F70032"/>
<path d="M19.9337 50.1566C19.9265 50.1638 19.9193 50.171 19.9121 50.171C19.84 50.2283 19.84 50.3646 19.9121 50.422C19.9193 50.4291 19.9265 50.4363 19.9337 50.4363C20.0633 50.5439 20.2795 50.4793 20.2795 50.2929C20.2795 50.1136 20.0633 50.049 19.9337 50.1566Z" fill="#F70032"/>
<path d="M35.8475 50.2139C35.8403 50.2211 35.8331 50.2283 35.8259 50.2283C35.7538 50.2857 35.7538 50.4219 35.8259 50.4793C35.8331 50.4865 35.8403 50.4936 35.8475 50.4936C35.9772 50.6012 36.1933 50.5367 36.1933 50.3502C36.1933 50.1709 35.9772 50.1064 35.8475 50.2139Z" fill="#F70032"/>
<path d="M42.6048 54.4953C42.5976 54.5025 42.5904 54.5097 42.5832 54.5097C42.5112 54.567 42.5112 54.7033 42.5832 54.7607C42.5904 54.7678 42.5976 54.775 42.6048 54.775C42.7345 54.8826 42.9506 54.818 42.9506 54.6316C42.9506 54.4523 42.7345 54.3878 42.6048 54.4953Z" fill="#F70032"/>
<path d="M32.4183 52.1431C32.4111 52.1503 32.4039 52.1574 32.3967 52.1574C32.3246 52.2148 32.3246 52.3511 32.3967 52.4084C32.4039 52.4156 32.4111 52.4228 32.4183 52.4228C32.548 52.5303 32.7641 52.4658 32.7641 52.2794C32.7641 52.1001 32.548 52.0355 32.4183 52.1431Z" fill="#F70032"/>
<path d="M20.8774 46.9009C20.8702 46.908 20.863 46.908 20.8558 46.9152C20.7837 46.9726 20.7837 47.1088 20.8558 47.1662C20.863 47.1734 20.8702 47.1805 20.8774 47.1805C21.0071 47.2881 21.2232 47.2236 21.2232 47.0371C21.2232 46.8578 21.0071 46.7933 20.8774 46.9009Z" fill="#F70032"/>
<path d="M18.0606 52.9462C18.0534 52.9319 18.0534 52.9247 18.0462 52.9104C17.9814 52.7526 17.7869 52.7526 17.7292 52.9104C17.722 52.9247 17.722 52.9319 17.7148 52.9462C17.5996 53.2259 18.1687 53.2259 18.0606 52.9462Z" fill="#F70032"/>
<path d="M14.8981 54.4164C14.8405 54.5527 14.8405 54.6388 14.8981 54.775C14.9917 54.9901 15.3087 54.9973 15.46 54.8467C15.5969 54.7105 15.5969 54.481 15.46 54.3447C15.3087 54.1941 14.9989 54.2013 14.8981 54.4164Z" fill="#F70032"/>
<path d="M24.4362 48.6722C24.3785 48.8085 24.3785 48.8945 24.4362 49.0308C24.5298 49.2459 24.8468 49.2531 24.9981 49.1025C25.135 48.9662 25.135 48.7367 24.9981 48.6005C24.8468 48.4571 24.5298 48.4642 24.4362 48.6722Z" fill="#F70032"/>
<path d="M38.8876 51.5049C38.83 51.6411 38.83 51.7272 38.8876 51.8634C38.9812 52.0786 39.2982 52.0857 39.4495 51.9351C39.5864 51.7989 39.5864 51.5694 39.4495 51.4331C39.2982 51.2897 38.9812 51.2969 38.8876 51.5049Z" fill="#F70032"/>
<path d="M39.9537 54.7821C39.5935 54.7821 39.5935 55.3343 39.9537 55.3343C40.314 55.3343 40.314 54.7821 39.9537 54.7821Z" fill="#F70032"/>
<path d="M16.1804 31.6688C15.7121 32.8951 16.3749 34.4226 17.1745 35.4696C17.9742 36.5167 19.1196 37.241 20.2651 37.8864C25.4016 40.7908 31.172 42.5836 37.0578 43.1143C39.3415 43.3223 42.0358 43.81 44.2907 44.2116C46.5455 44.6131 48.044 45.1869 49.7009 46.7646C50.1115 47.159 50.7671 48.0554 50.9112 48.6076C51.2066 49.7335 50.2196 50.9598 49.4848 51.8634C47.8207 53.9359 46.1421 54.983 43.9305 55.8292C44.6365 54.5742 44.2114 54.1296 43.0011 52.5734C41.4595 50.5869 37.9439 49.755 35.4585 49.3176C29.8681 48.3351 26.9505 47.8259 21.5762 45.99C19.8833 45.4092 17.0232 44.4984 15.0997 43.5087C13.061 42.4617 11.3392 41.7589 9.83357 40.0378C9.0123 39.0912 8.40716 37.7286 9.12036 36.7103C9.35809 36.366 9.97765 35.2904 11.1879 34.4441C13.1402 33.0672 13.2627 32.7302 16.1804 31.6688Z" fill="#222272"/>
<path d="M26.4173 45.5741C26.4245 45.5884 26.4317 45.6027 26.4461 45.6171C26.6694 45.9828 26.972 46.2697 27.3538 46.4777C27.923 46.786 28.5281 46.8147 29.1548 46.6785C29.832 46.5279 30.3147 46.0474 30.6749 45.4808C30.9919 44.9788 31.0351 44.276 30.8694 43.7167C30.7109 43.1501 30.2787 42.5334 29.7168 42.2896C29.3349 42.1174 28.8955 41.931 28.4633 41.9955C28.031 42.0027 27.6276 42.1174 27.2602 42.3398C26.8639 42.5764 26.6118 42.8704 26.3813 43.2649C26.5037 43.0999 26.619 42.935 26.7415 42.77C26.7343 42.7772 26.7271 42.7844 26.7199 42.7916C26.4389 43.0856 26.2516 43.437 26.1507 43.8314C25.9995 44.4195 26.1003 45.0505 26.4173 45.5741Z" fill="#0C0A35"/>
<path d="M23.3916 44.2258C24.1985 43.7382 24.465 42.6553 23.9752 41.8521C23.4853 41.0489 22.3975 40.7836 21.5906 41.2712C20.7838 41.7589 20.5172 42.8418 21.0071 43.645C21.4969 44.4482 22.5848 44.7135 23.3916 44.2258Z" fill="#0C0A35"/>
<path d="M18.428 40.9629C19.5663 40.2745 18.4929 38.5175 17.3618 39.2059C16.2236 39.8872 17.2898 41.6442 18.428 40.9629Z" fill="#0C0A35"/>
<path d="M35.7898 47.5032C37.6484 46.3845 35.905 43.516 34.0464 44.6347C32.1877 45.7534 33.9311 48.622 35.7898 47.5032Z" fill="#0C0A35"/>
<path d="M40.9264 48.3924C42.0214 47.7327 40.9912 46.0474 39.9034 46.7072C38.8084 47.3598 39.8313 49.045 40.9264 48.3924Z" fill="#0C0A35"/>
<path d="M28.9027 44.7135C29.1261 44.5773 29.1981 44.2833 29.0612 44.0681C28.9243 43.8458 28.629 43.7741 28.4129 43.9104C28.1895 44.0466 28.1175 44.3406 28.2544 44.5558C28.3912 44.7781 28.6866 44.8498 28.9027 44.7135Z" fill="#990028"/>
<path d="M22.6711 42.8992C23.0025 42.6984 22.6927 42.182 22.3614 42.3828C22.03 42.5908 22.3397 43.1071 22.6711 42.8992Z" fill="#990028"/>
<path d="M35.1342 46.155C35.3431 46.0259 35.1486 45.7032 34.9397 45.8322C34.7308 45.9542 34.9253 46.2769 35.1342 46.155Z" fill="#990028"/>
<path d="M19.9409 41.6083C20.3371 41.3717 19.9625 40.7549 19.5663 40.9988C19.1701 41.2283 19.5447 41.845 19.9409 41.6083Z" fill="#990028"/>
<path d="M25.5672 43.6091C25.7545 43.4944 25.8193 43.2434 25.704 43.0498C25.5888 42.8633 25.3366 42.7988 25.1421 42.9135C24.9548 43.0283 24.89 43.2793 25.0053 43.4729C25.1205 43.6665 25.3799 43.7239 25.5672 43.6091Z" fill="#990028"/>
<path d="M31.5538 45.7319C31.561 45.7391 31.561 45.7534 31.5682 45.7606C31.6762 45.9829 31.9932 46.0331 32.1877 45.9112C32.4543 45.7462 32.4543 45.4164 32.267 45.194C32.2598 45.1869 32.2526 45.1797 32.2454 45.1654C32.1157 45.0148 31.8635 45.0148 31.7051 45.108C31.4817 45.2586 31.4529 45.5168 31.5538 45.7319Z" fill="#990028"/>
<path d="M38.0159 46.5279C38.0015 46.5207 37.9871 46.5135 37.9727 46.5135C37.8358 46.4562 37.6989 46.4418 37.5692 46.5207C37.4468 46.5924 37.3675 46.7287 37.3747 46.8721C37.3819 47.1805 37.7277 47.3669 37.9943 47.2092C38.0087 47.202 38.0231 47.1948 38.0375 47.1876C38.2608 47.0514 38.2968 46.6354 38.0159 46.5279Z" fill="#990028"/>
<path d="M17.9813 40.3748C18.2262 40.2242 17.9957 39.8441 17.7508 39.9947C17.5058 40.1382 17.7363 40.5183 17.9813 40.3748Z" fill="#990028"/>
<path d="M40.6669 47.6825C40.9407 47.5176 40.6813 47.0944 40.4076 47.2594C40.1338 47.4243 40.3932 47.8474 40.6669 47.6825Z" fill="#990028"/>
<path d="M7.39144 17.8782C7.45628 17.8782 7.52111 17.8567 7.57874 17.8208C8.00378 17.5412 9.10601 16.3866 9.42299 16.0567C9.48063 15.9993 9.54545 15.9204 9.53825 15.8344C9.53105 15.7698 9.48062 15.7125 9.43019 15.6623C8.95473 15.189 8.44323 14.7372 7.99658 14.2352C7.80207 14.02 7.57154 13.769 7.42746 13.7618H7.35542C7.21134 13.769 6.98081 14.02 6.7863 14.2352C6.33244 14.7372 5.82815 15.189 5.35269 15.6623C5.30226 15.7125 5.25183 15.7627 5.24463 15.8344C5.23743 15.9204 5.29506 15.9993 5.3599 16.0567C5.67688 16.3794 6.7791 17.534 7.20414 17.8208C7.26177 17.8639 7.3266 17.8782 7.39144 17.8782Z" fill="#D6002B"/>
<path d="M50.6302 73.901C50.695 73.901 50.7671 73.8795 50.8175 73.8436C51.2426 73.564 52.3448 72.4022 52.6618 72.0795C52.7194 72.0221 52.7842 71.9432 52.777 71.8572C52.7698 71.7855 52.7194 71.7353 52.669 71.6851C52.1863 71.2118 51.682 70.7599 51.2353 70.2579C51.0408 70.0428 50.8103 69.7918 50.6662 69.7847H50.5942C50.4501 69.7918 50.2196 70.0428 50.0251 70.2579C49.5784 70.7599 49.0669 71.2118 48.5915 71.6851C48.541 71.7353 48.4906 71.7855 48.4834 71.8572C48.4762 71.9432 48.5338 72.0149 48.5987 72.0795C48.9156 72.4022 50.0179 73.5568 50.4429 73.8436C50.4933 73.8795 50.5582 73.901 50.6302 73.901Z" fill="#D6002B"/>
<path d="M9.08435 4.11636V9.77457C9.08435 10.7642 8.86101 11.4527 8.41436 11.8399C7.96771 12.2272 7.36977 12.428 6.63495 12.428C6.23873 12.428 5.84252 12.3706 5.43909 12.263V11.424C5.82811 11.5101 6.18831 11.5531 6.50529 11.5531C6.95914 11.5531 7.29773 11.4885 7.51385 11.3523C7.72997 11.216 7.87406 11.0439 7.9461 10.8288C8.01814 10.6136 8.05416 10.2622 8.05416 9.78175V4.11636H9.08435Z" fill="#D6002B"/>
<path d="M48.9156 83.8836V78.2254C48.9156 77.2358 49.139 76.5473 49.5856 76.1601C50.0323 75.7728 50.623 75.572 51.365 75.572C51.7613 75.572 52.1575 75.6294 52.5609 75.737V76.5688C52.1719 76.4828 51.8117 76.4469 51.4947 76.4469C51.0409 76.4469 50.7023 76.5115 50.4861 76.6477C50.27 76.784 50.1259 76.9561 50.0539 77.1712C49.9819 77.3864 49.9458 77.7378 49.9458 78.2182V83.8765H48.9156V83.8836Z" fill="#D6002B"/>
<path d="M22.5488 83.6326H8.68816C6.33243 83.6326 4.41614 81.6031 4.41614 79.1146V22.0591H4.6827V79.1146C4.6827 81.4597 6.48371 83.3673 8.68816 83.3673H22.5488V83.6326Z" fill="#D6002B"/>
<path d="M46.5311 83.3673H32.0077V83.6327H46.5311V83.3673Z" fill="#D6002B"/>
<path d="M53.5839 66.2205H53.3174V8.8853C53.3174 6.54026 51.5163 4.63268 49.3119 4.63268H35.6025V4.36734H49.3119C51.6676 4.36734 53.5839 6.39683 53.5839 8.8853V66.2205Z" fill="#D6002B"/>
<path d="M26.4101 4.36734H11.8867V4.63268H26.4101V4.36734Z" fill="#D6002B"/>
</svg>
