<svg width="58" height="88" viewBox="0 0 58 88" fill="none" xmlns="http://www.w3.org/2000/svg">
<path d="M53.0874 88H4.91257C2.20418 88 0 85.8127 0 83.1091V4.89086C0 2.19443 2.19697 0 4.91257 0H53.0874C55.7958 0 58 2.18725 58 4.89086V83.1091C57.9928 85.8127 55.7958 88 53.0874 88Z" fill="white"/>
<path d="M47.455 38.374C48.269 40.3748 48.5355 42.3111 48.5931 44.398C48.6651 46.9008 48.377 47.9191 48.449 50.422C48.4634 51.0244 45.9711 53.563 45.5678 54.0937C44.8691 55.0045 44.3144 55.7861 43.4644 55.8435C38.3358 56.1949 34.3092 57.3854 29.1661 57.2276C24.3976 57.0842 21.2931 56.0013 16.575 56.5105C16.2797 56.5391 16.3877 56.8977 16.1644 56.7543C13.7513 55.1551 9.88324 53.6132 8.88199 50.9885C7.12442 46.3701 5.79902 45.7247 6.8867 40.9988C7.27567 39.3135 9.16291 35.6848 14.5725 33.6983C17.0936 32.7732 19.6219 30.7006 22.7337 30.3923C26.8179 29.9835 30.9957 30.1269 35.0079 30.8154C38.3502 31.3891 43.8462 33.8059 45.8343 35.8497C46.5762 36.6099 47.0948 37.4776 47.455 38.374Z" fill="#D6002B"/>
<path d="M9.98364 49.8698C9.17688 47.869 8.90315 45.9327 8.84552 43.8459C8.77349 41.343 9.06163 40.3247 8.9896 37.8219C8.97519 37.2123 11.4675 34.6808 11.8709 34.1502C12.5696 33.2394 13.1242 32.4577 13.9742 32.4003C19.1028 32.0489 23.1294 30.8585 28.2725 31.0163C33.041 31.1597 36.1456 32.2426 40.8637 31.7334C41.159 31.7047 41.0437 31.3461 41.267 31.4896C43.6801 33.0888 47.5482 34.6306 48.5494 37.2554C50.307 41.8737 51.6324 42.5191 50.5447 47.2451C50.1558 48.9304 48.2685 52.5591 42.8589 54.5456C40.3378 55.4707 37.8095 57.5432 34.6977 57.8516C30.6135 58.2603 26.4357 58.1097 22.4235 57.4285C19.0812 56.8547 13.5852 54.438 11.5971 52.3942C10.8552 51.634 10.3438 50.7662 9.98364 49.8698Z" fill="#D6002B"/>
<path d="M7.7867 38.8545C8.11085 36.3015 9.54428 34.3365 12.3751 32.3716C14.8314 30.672 17.7127 30.3062 18.5699 30.5644C21.1918 31.3461 20.9253 34.4011 23.4104 35.5485C26.0035 36.7461 30.2894 37.8577 32.7673 39.2776C39.207 42.978 43.6441 45.6817 50.9121 47.2522C49.2338 51.72 46.2517 56.3527 41.4832 56.783C39.0557 56.9981 37.0028 55.2339 34.6906 54.4809C30.8945 53.2474 7.68586 39.6577 7.7867 38.8545Z" fill="#0C0A35"/>
<path d="M27.4441 1.03265C27.6314 0.975274 27.8331 1.0972 27.9555 1.2478C28.2076 1.57768 28.2004 2.02947 28.186 2.44541C28.186 2.48844 28.1788 2.53865 28.1428 2.56733C28.114 2.58885 28.078 2.59602 28.0419 2.59602C27.797 2.61754 27.5521 2.59602 27.3144 2.553C27.1992 2.27331 27.1344 1.97211 27.1272 1.67091C27.12 1.41991 27.1992 1.10436 27.4441 1.03265Z" fill="#0C0A35"/>
<path d="M17.1868 31.2313C16.3801 31.8768 15.4508 32.3716 14.6585 33.0457C14.1255 33.4975 13.6501 34.064 13.3835 34.6951C13.2323 35.0537 13.5924 35.4266 13.9598 35.2975C14.4712 35.111 14.997 35.0393 15.4436 35.3118C16.0199 35.6561 16.1712 36.3947 16.4881 36.9828C17.1292 38.1804 18.6491 38.8258 19.96 38.4601C21.3935 38.0585 22.4667 36.6386 23.9506 36.5884C25.7154 36.5382 27.084 38.4744 28.8488 38.3669C30.3686 38.2808 31.4563 36.7031 32.9618 36.531C34.6401 36.3373 36.2969 37.9437 37.8743 37.3557C38.0976 37.2696 38.2993 37.1262 38.4722 36.9613C40.4315 35.1254 39.8192 34.1214 42.4339 34.7596C42.4916 34.774 42.5492 34.774 42.5996 34.7453C43.7089 34.0927 39.8984 31.1668 38.1841 29.6966C36.5922 28.3341 35.2956 26.5054 35.0291 24.4257C34.8778 23.2352 35.0219 21.8942 34.2583 20.9619C34.1647 20.8472 34.0567 20.7396 33.927 20.6607C33.2283 20.2376 32.3783 20.8041 31.7084 21.2631C29.4322 22.8408 26.6374 23.4791 23.9002 23.9309C22.69 24.1317 21.4583 24.3038 20.313 24.7556C20.0969 24.8416 19.9168 25.0137 19.8448 25.2289C19.7295 25.5803 20.0321 25.6807 20.1257 25.903C20.1833 26.0321 20.1617 26.1755 20.1329 26.3118C19.78 28.2337 18.7139 30.0122 17.1868 31.2313Z" fill="#990028"/>
<path d="M23.8929 8.58415C22.798 9.28695 21.1413 10.2192 20.6875 11.4384C20.2337 12.6503 19.9383 13.934 19.3405 15.0814C18.7786 16.1572 17.9647 17.0822 17.2011 18.0289C16.805 18.5165 16.416 19.205 16.7618 19.7285C17.0571 20.1731 17.6982 20.1875 18.2168 20.0942C18.7426 20.001 19.3045 19.8432 19.7799 20.0871C19.6646 21.507 19.607 22.8122 19.4917 24.2321C19.4413 24.8202 19.3981 25.4369 19.5998 25.9963C20.0392 27.2154 21.487 27.7461 22.7836 27.8322C25.564 28.0114 28.2796 26.7923 30.4622 25.0783C30.988 24.6624 31.4995 24.2106 31.9316 23.7014C32.6952 22.7978 33.2066 21.715 33.7108 20.6464C33.9557 20.1229 34.2078 19.5922 34.3375 19.0257C34.4816 18.3803 34.4671 17.7133 34.4167 17.0536C34.3015 15.4687 34.0062 13.8695 33.3435 12.4208C32.6808 10.9722 31.6219 9.66705 30.2245 8.89254C29.4321 8.45508 28.5533 8.1969 27.6674 8.05348C26.1043 7.80248 25.2183 7.73793 23.8929 8.58415Z" fill="#FFD6A1"/>
<path d="M26.803 1.67814C27.4513 1.6136 28.114 1.69247 28.7406 1.87176C30.0948 2.26618 31.3122 3.15544 32.0613 4.34589C32.8177 5.53634 33.0986 7.02081 32.7889 8.39772C29.3385 7.67341 25.7297 7.68776 22.2866 8.44792C22.1137 6.94911 22.3659 5.37856 23.151 4.08771C23.9361 2.80404 25.2975 1.82874 26.803 1.67814Z" fill="#F70032"/>
<path d="M30.2606 14.5005C30.2606 14.5005 30.0805 14.5364 29.9293 14.5292C28.1717 14.4073 25.7586 14.0415 24.1235 14.436C23.9146 14.4862 23.6841 14.479 23.5328 14.5507C23.4248 14.6009 23.468 14.8089 23.3528 14.7515C23.1295 14.6368 22.9134 12.8367 22.9422 11.9475C22.9422 11.8686 22.9998 11.7897 23.079 11.7682C23.7417 11.5674 24.6998 11.6033 25.3624 11.6535C26.1836 11.7108 27.3577 11.9475 27.934 12.2487C28.5678 12.5929 29.5979 13.1308 30.2606 14.5005Z" fill="#0C0A35"/>
<path d="M23.2879 14.687C23.2807 14.6655 23.2879 14.6511 23.2951 14.6296C23.6624 14.0918 24.1595 13.5826 25.4128 13.2527C27.156 12.7937 29.0216 13.181 30.2534 14.4934C28.431 15.44 27.156 15.5476 24.1955 15.0814C23.9002 15.0456 23.3887 14.9667 23.2879 14.687Z" fill="white"/>
<path d="M27.725 21.887C27.8258 21.8297 27.5161 21.385 28.2148 21.2559C28.5245 21.1986 28.6974 21.299 28.755 21.6073C28.8271 22.0018 28.4525 22.6687 27.9267 22.9914C27.4009 23.3141 26.947 23.5006 26.3348 23.4719C24.642 23.3858 22.9781 22.7261 21.6815 21.636C21.2349 21.2559 20.2985 20.4958 20.068 20.5675C19.8447 20.6392 19.3981 21.2201 18.5481 22.3245C18.0295 22.9986 17.1867 23.8233 16.3368 23.8018C15.919 23.7874 15.5948 23.5651 15.422 23.185C15.2491 22.805 15.2995 22.3747 15.6453 22.138C16.1351 21.801 16.3368 22.1596 16.524 22.2313C16.6393 22.2743 16.5745 21.9085 16.5024 21.801C16.0342 21.0767 15.1627 21.2918 14.6656 21.636C14.1686 21.9803 13.9597 22.5396 13.8373 23.1277C13.7436 23.5938 13.8156 24.146 13.9813 24.5906C14.3343 25.5516 15.5156 25.7309 16.5385 25.7811C17.835 25.8385 19.0091 25.1285 19.4269 24.1962C20.1977 22.4607 20.0608 22.2456 20.2481 22.2743C20.3778 22.2958 20.5794 23.601 20.8676 24.0886C22.2938 26.4982 25.5496 26.2974 26.9975 25.9389C28.4525 25.5731 29.4754 24.7054 29.994 23.307C30.4982 21.9659 30.0732 21.2344 29.5042 20.5603C29.1512 20.1444 28.5678 19.9651 28.0203 20.0368C27.6241 20.0942 27.2856 20.4671 27.2352 20.8543C27.1631 21.55 27.5881 21.9587 27.725 21.887Z" fill="#D6002B"/>
<path d="M35.2451 11.675C35.7133 12.3133 36.6209 13.934 37.0819 14.5722C37.9679 15.8129 38.3281 17.2328 39.6967 17.9213C40.3594 18.2512 41.2237 18.4376 41.9441 18.5954C42.6716 18.7532 43.1542 19.083 43.4927 19.7428C43.8889 20.5102 44.033 21.2631 43.5648 22.5325C43.3847 23.0345 42.5131 24.0743 40.1072 24.3181C39.4517 24.3827 38.4649 24.4759 37.2404 24.397C35.7277 24.3038 35.8358 24.2751 34.3159 24.2751C33.2642 24.2751 33.2642 24.2249 32.8681 23.2783C32.6015 22.64 32.1766 20.2735 31.8668 19.1978C31.7516 18.8105 30.4118 13.1667 30.1813 12.3419C30.0012 11.6893 29.8211 11.0367 29.6482 10.3842C29.5474 10.0256 29.4537 9.63115 29.6194 9.30127C29.8571 8.79927 30.5198 8.70604 31.0817 8.67736C31.4706 8.65584 31.8524 8.63434 32.2414 8.62C32.3998 8.61283 32.5583 8.60566 32.7096 8.64869C32.8897 8.70606 32.796 9.13634 32.9257 9.2726C33.9701 10.334 34.3519 10.463 35.2451 11.675Z" fill="#E20C3F"/>
<path d="M26.4285 15.0599C27.4729 15.1245 27.5017 14.3284 27.4873 14.0631C27.4729 13.683 27.1272 13.3531 26.7454 13.3173C26.306 13.2814 25.8666 13.6113 25.7874 14.0416C25.7082 14.479 25.9891 15.0312 26.4285 15.0599Z" fill="#0C0A35"/>
<path d="M20.8243 20.0081C20.0968 19.6567 19.5709 20.3953 19.3116 20.9906C19.1532 21.3563 18.9947 21.7507 19.0739 22.1523C19.2972 23.3213 19.6358 24.0599 19.1099 25.236C19.0811 25.2934 19.1532 25.3579 19.2036 25.3077C19.8014 24.7269 19.9599 24.1173 19.8519 23.3069C19.7726 22.7476 19.4485 22.2958 19.4701 21.7149C19.4917 20.9117 19.9095 20.1228 20.8171 20.0798C20.8387 20.0726 20.8603 20.0224 20.8243 20.0081Z" fill="#0C0A35"/>
<path d="M20.5939 20.4814C21.307 21.8368 20.3922 22.4392 20.3778 23.7301C20.3706 24.5906 20.7452 25.5516 21.3934 26.1325C21.4439 26.1755 21.5231 26.1325 21.5015 26.0679C21.343 25.5301 21.1269 25.0066 20.954 24.4759C20.7019 23.6799 21.1917 22.8551 21.3862 22.1022C21.5807 21.3635 21.2494 20.8256 20.6947 20.3954C20.6443 20.3452 20.5507 20.4026 20.5939 20.4814Z" fill="#0C0A35"/>
<path d="M18.613 21.3993C17.9071 21.722 17.9575 22.6185 18.044 23.271C18.152 24.0456 18.3033 24.8201 17.7342 25.4583C17.3164 25.9245 16.6897 25.8384 16.1855 26.0966C16.0487 26.1683 16.1063 26.3404 16.2216 26.3906C17.1147 26.7635 18.0512 25.9388 18.4041 25.1786C18.6202 24.7197 18.5842 24.189 18.5194 23.7013C18.4113 22.8551 18.3393 22.3173 18.7571 21.5427C18.8147 21.4423 18.7066 21.3563 18.613 21.3993Z" fill="#0C0A35"/>
<path d="M17.5757 22.3101C16.9923 22.6113 16.8698 23.1922 16.7978 23.8089C16.733 24.3826 16.6465 24.8703 16.3368 25.3794C16.0054 25.9316 15.422 26.197 14.9322 26.5842C14.8673 26.6344 14.9394 26.7277 15.0042 26.7133C15.811 26.5412 16.4592 25.8241 16.8266 25.1213C17.266 24.2822 16.949 23.1563 17.6694 22.4463C17.7486 22.3746 17.6622 22.2671 17.5757 22.3101Z" fill="#0C0A35"/>
<path d="M16.6825 22.6758C15.919 22.5826 15.7317 23.73 15.4796 24.2248C14.997 25.1786 13.8949 25.3364 12.9801 25.5372C12.9009 25.5515 12.8865 25.6591 12.9369 25.7165C13.4411 26.2615 14.5648 25.6089 15.0402 25.3077C15.3932 25.0925 15.6525 24.7985 15.8614 24.4471C16.1135 24.0168 16.1711 23.0272 16.7041 22.8479C16.7978 22.812 16.7762 22.683 16.6825 22.6758Z" fill="#0C0A35"/>
<path d="M15.883 22.3244C15.4436 23.0703 14.6224 23.1635 13.9597 23.6368C13.5131 23.9595 12.9585 24.5762 12.9513 25.15C12.9513 25.2288 13.0521 25.2719 13.1026 25.2145C13.3763 24.9348 13.5203 24.5476 13.7797 24.2464C14.075 23.9022 14.4568 23.6942 14.8601 23.5221C15.386 23.2997 15.9694 22.977 15.9838 22.3531C15.991 22.2958 15.9046 22.2742 15.883 22.3244Z" fill="#0C0A35"/>
<path d="M16.733 22.0735C16.164 21.5643 15.4148 21.342 14.6729 21.6719C13.6572 22.1165 13.3043 23.1205 12.3895 23.6799C12.3031 23.7373 12.3391 23.8735 12.4399 23.8735C12.9946 23.8807 13.3331 23.5006 13.6501 23.0918C14.4856 21.9946 15.35 21.7365 16.7114 22.1165C16.733 22.1237 16.7546 22.0879 16.733 22.0735Z" fill="#0C0A35"/>
<path d="M21.7247 21.1053C21.9408 21.2416 22.0489 22.0233 22.1209 22.2599C22.373 23.0631 22.1785 23.7803 21.9696 24.5548C21.7823 25.2432 22.1497 25.7596 22.6035 26.2329C22.6827 26.3189 22.8052 26.2257 22.7836 26.1253C22.6467 25.4584 22.301 25.0855 22.5171 24.3468C22.6611 23.8376 22.7836 23.3572 22.7044 22.8265C22.6179 22.2815 22.4955 21.0551 21.8112 20.8974C21.6815 20.8687 21.6167 21.0336 21.7247 21.1053Z" fill="#0C0A35"/>
<path d="M23.2951 22.1452C24.0803 22.9627 23.4392 24.3899 23.6913 25.4082C23.8786 26.1468 24.5413 26.9429 25.312 27.0863C25.4057 27.1078 25.4921 27.0146 25.4417 26.9213C25.204 26.4982 24.8078 26.197 24.5125 25.8026C24.1451 25.3078 24.1019 24.6839 24.1091 24.0958C24.1163 23.307 24.0227 22.5755 23.3312 22.095C23.3024 22.0807 23.2735 22.1237 23.2951 22.1452Z" fill="#0C0A35"/>
<path d="M24.7285 22.5324C25.1607 23.4432 24.779 24.4543 25.1751 25.3938C25.4273 25.9818 26.0467 26.7277 26.6734 26.9141C26.731 26.9285 26.7959 26.8711 26.7742 26.8137C26.4789 26.0321 25.665 25.6018 25.4057 24.7627C25.1391 23.9093 25.4489 23.2137 24.8294 22.4607C24.779 22.3962 24.6997 22.475 24.7285 22.5324Z" fill="#0C0A35"/>
<path d="M25.7946 22.5539C26.6013 22.6113 26.4285 24.2177 26.5941 24.7914C26.803 25.5228 27.3721 26.4121 28.1932 26.491C28.2725 26.4982 28.3301 26.3906 28.2869 26.3261C27.97 25.8456 27.4585 25.5444 27.1344 25.0495C26.8679 24.6408 26.803 24.1961 26.7238 23.7372C26.6302 23.228 26.4213 22.4535 25.7874 22.4463C25.7226 22.4463 25.7225 22.5467 25.7946 22.5539Z" fill="#0C0A35"/>
<path d="M27.1849 22.4033C27.7395 22.6472 27.8908 23.7874 28.1789 24.2966C28.5174 24.9061 29.0505 25.5731 29.8068 25.5659C29.9149 25.5659 29.9509 25.444 29.886 25.3651C29.6267 25.0567 29.2954 24.8201 29.0144 24.5261C28.7119 24.2033 28.503 23.8018 28.3013 23.4145C28.0852 22.9842 27.7827 22.3101 27.2137 22.2886C27.156 22.2886 27.1272 22.3818 27.1849 22.4033Z" fill="#0C0A35"/>
<path d="M27.8763 19.8073C27.5018 20.6248 27.7251 21.2702 28.2437 21.9873C28.5678 22.4248 29.0504 22.7475 29.4178 23.1491C29.9868 23.7802 29.9076 24.483 30.1237 25.2216C30.1525 25.322 30.3038 25.3507 30.3542 25.2503C30.7144 24.526 30.3974 23.73 29.9724 23.0917C29.1873 21.9085 27.7971 21.4925 27.8979 19.8144C27.9051 19.8001 27.8835 19.7929 27.8763 19.8073Z" fill="#0C0A35"/>
<path d="M28.7119 19.5491C28.6327 20.3523 28.928 20.8615 29.4827 21.4424C29.9293 21.9085 30.4551 22.1093 30.7216 22.7548C30.8729 23.1205 30.8873 23.4289 31.1754 23.7086C31.2546 23.7803 31.3987 23.7301 31.3915 23.6225C31.3699 22.9986 31.1322 22.389 30.736 21.9157C30.0517 21.091 29.0145 20.7324 28.7912 19.542C28.784 19.4846 28.7191 19.5061 28.7119 19.5491Z" fill="#0C0A35"/>
<path d="M30.0299 9.34425C31.5354 10.4845 30.7791 11.3881 30.7791 12.7004C30.7791 12.9801 30.988 13.4606 31.2545 13.5969C33.4154 14.7586 31.6795 16.6447 32.0685 18.3802C32.1837 18.8822 32.8176 19.4989 33.0985 19.8933C34.0133 21.177 33.682 22.2527 33.365 23.6224C33.1201 24.6695 33.6748 25.6806 34.5319 26.2472C34.6328 26.3189 34.7913 26.2042 34.748 26.0822C34.3951 25.1069 33.8116 24.4974 34.0709 23.3571C34.2078 22.7475 34.5535 22.1595 34.4239 21.5141C34.2438 20.6463 33.8765 19.9507 33.3506 19.2336C32.7528 18.4232 32.3638 18.3515 32.5943 17.0176C32.6735 16.5515 32.904 16.114 32.9472 15.6407C33.0913 13.8694 31.0168 13.1522 31.3914 11.4957C31.6219 10.4702 31.1752 9.35858 30.0732 9.22232C29.9939 9.20798 29.9867 9.30839 30.0299 9.34425Z" fill="#0C0A35"/>
<path d="M31.8452 9.2151C32.4718 9.33701 31.6723 11.7825 32.3062 12.4064C33.1489 13.2383 34.1934 13.9052 33.7684 15.3753C33.5883 15.9921 33.3002 16.6662 33.4659 17.3259C33.9701 19.3052 35.8573 19.9291 35.2379 22.3531C34.9425 23.5148 34.4527 24.8057 35.562 25.6591C35.6556 25.7308 35.7565 25.5945 35.7133 25.5085C34.7408 23.7156 36.3832 21.8869 35.6845 19.9793C35.5044 19.4845 35.0866 19.0471 34.748 18.6526C33.7324 17.4694 33.9485 16.4367 34.3375 15.0383C34.6688 13.8478 34.0061 13.1809 33.1057 12.5641C31.6075 11.5386 33.2354 9.78882 32.1189 8.97845C32.0756 8.94977 32.0108 8.95694 31.9676 8.97845C31.9172 9.00714 31.874 9.03581 31.8235 9.05733C31.7587 9.09319 31.7659 9.20076 31.8452 9.2151Z" fill="#0C0A35"/>
<path d="M33.4803 8.914C32.6376 9.58094 33.3507 10.7786 33.8189 11.4742C34.3015 12.1913 35.0002 12.5284 35.2955 13.4248C35.6629 14.5507 34.8705 15.483 35.0002 16.5802C35.2451 18.6671 37.9247 19.126 37.0963 21.6432C36.5057 23.4432 35.5477 24.6265 36.5849 26.5054C36.6281 26.5843 36.765 26.5556 36.765 26.4552C36.6858 25.2361 36.4697 24.2536 37.1251 23.0846C37.5213 22.389 37.8239 21.7293 37.9679 20.9404C38.1696 19.8288 37.3412 18.8535 36.6786 18.079C35.879 17.1467 35.4972 16.2933 35.9294 15.0957C36.1383 14.5148 36.0158 13.8407 35.9006 13.2527C35.6053 11.718 32.8248 10.8861 33.6532 9.02875C33.6964 8.92835 33.574 8.83512 33.4803 8.914Z" fill="#0C0A35"/>
<path d="M37.4061 13.561C35.9439 15.3897 37.1468 17.412 38.5442 18.7531C40.4171 20.5531 38.7099 22.2168 37.9824 23.9953C37.6366 24.8416 37.6438 26.032 38.4794 26.5412C38.5803 26.5985 38.7387 26.4981 38.6883 26.3834C37.651 23.8232 40.5107 22.2957 39.8696 19.6997C39.6823 18.9323 38.9332 18.3443 38.3858 17.8423C37.118 16.6662 37.1972 15.2247 37.6078 13.6757C37.6366 13.5681 37.4854 13.4677 37.4061 13.561Z" fill="#0C0A35"/>
<path d="M38.9476 16.7523C39.034 17.4479 39.3582 17.8925 39.848 18.3945C40.9645 19.5276 41.5263 20.589 40.6475 22.0734C40.0496 23.0918 39.0124 24.232 39.8624 25.4009C39.9272 25.4942 40.0857 25.4655 40.0857 25.3436C40.0857 24.275 40.4026 23.5579 40.9933 22.6758C41.3102 22.2025 41.6992 21.6073 41.7136 21.0121C41.7712 18.875 40.0713 18.3658 39.0988 16.7164C39.0628 16.6447 38.9404 16.6662 38.9476 16.7523Z" fill="#0C0A35"/>
<path d="M41.4326 17.5268C42.2393 18.6456 42.9596 19.499 42.5995 20.9619C42.3618 21.9444 41.6487 22.7046 41.4542 23.7229C41.2813 24.648 41.5406 25.8026 42.5202 26.0894C42.6355 26.1253 42.7363 25.9675 42.6427 25.8815C40.8995 24.3325 42.8372 22.346 43.1902 20.6751C43.4855 19.2623 42.5419 18.2655 41.5622 17.4336C41.4974 17.3762 41.3749 17.4479 41.4326 17.5268Z" fill="#0C0A35"/>
<path d="M33.7181 10.5276C33.8261 10.5491 33.9486 10.5706 34.0494 10.5204C34.1359 10.4774 34.1935 10.3913 34.2439 10.3124C34.7841 9.48055 35.0651 8.72039 35.5477 7.90285C35.6269 7.7666 35.5621 7.58731 35.4108 7.54428C30.7143 6.21758 24.1162 6.56181 20.349 7.4152C20.2481 7.43672 20.1473 7.47973 20.0897 7.55862C19.9744 7.71639 20.0897 7.92437 20.1977 8.08214C20.5939 8.64868 20.9973 9.20803 21.3934 9.77457C21.4943 9.91083 21.6023 10.0614 21.7608 10.1188C21.9265 10.1833 31.377 10.0614 33.7181 10.5276Z" fill="#990028"/>
<path d="M22.2074 9.22238C22.6035 9.22238 22.9277 8.8925 22.9277 8.50525C22.9277 8.11082 22.5963 7.78093 22.2074 7.78093C21.8112 7.78093 21.4871 8.11082 21.4871 8.50525C21.4799 8.8925 21.8112 9.22238 22.2074 9.22238Z" fill="#0C0A35"/>
<path d="M24.5268 9.0431C24.8509 9.26541 25.3839 9.20088 25.6361 8.89251C25.8161 8.66303 25.9242 8.41919 25.845 8.11799C25.7657 7.8383 25.5568 7.65186 25.2903 7.5658C24.9662 7.45823 24.6132 7.56579 24.3755 7.80245C23.9793 8.18253 24.109 8.75625 24.5268 9.0431Z" fill="#0C0A35"/>
<path d="M28.6254 8.85661C28.6326 8.84944 28.6398 8.83512 28.6398 8.82794C28.8919 8.34029 28.683 7.72355 28.1284 7.57295C27.617 7.4367 26.9975 7.83829 27.0407 8.39766C27.0407 8.412 27.0407 8.41916 27.0407 8.4335C27.0695 8.81359 27.2784 9.14348 27.6674 9.25105C28.0203 9.33711 28.4525 9.1865 28.6254 8.85661Z" fill="#0C0A35"/>
<path d="M30.8224 9.29409C31.2402 9.29409 31.5859 8.94986 31.5859 8.53392C31.5859 8.11798 31.2402 7.77376 30.8224 7.77376C30.4046 7.77376 30.0588 8.11798 30.0588 8.53392C30.0588 8.94269 30.4046 9.29409 30.8224 9.29409Z" fill="#0C0A35"/>
<path d="M33.5525 9.47335C33.8766 9.47335 34.1503 9.20082 34.1503 8.87811C34.1503 8.5554 33.8766 8.2829 33.5525 8.2829C33.2211 8.2829 32.9546 8.5554 32.9546 8.87811C32.9546 9.20082 33.2283 9.47335 33.5525 9.47335Z" fill="#0C0A35"/>
<path d="M24.4115 4.28134C24.3971 4.46063 24.2818 4.64709 24.3467 4.82637C24.3899 4.94112 24.5411 4.96982 24.606 4.86224C24.714 4.69013 24.6636 4.44629 24.6204 4.25983C24.5916 4.13074 24.4187 4.1666 24.4115 4.28134Z" fill="#0C0A35"/>
<path d="M26.5508 5.3714C26.4716 5.49331 26.486 5.59372 26.486 5.73714C26.486 5.95229 26.839 5.95229 26.8174 5.73714C26.8029 5.59372 26.7885 5.48614 26.7093 5.3714C26.6805 5.31403 26.5941 5.31403 26.5508 5.3714Z" fill="#0C0A35"/>
<path d="M26.0971 2.41675C26.0178 2.65341 25.9674 2.88289 26.0034 3.12671C26.025 3.29166 26.306 3.29166 26.3276 3.12671C26.3636 2.88289 26.306 2.64624 26.2339 2.41675C26.2123 2.35221 26.1187 2.35221 26.0971 2.41675Z" fill="#0C0A35"/>
<path d="M28.0923 3.64301C28.0635 3.82947 27.9915 4.11631 28.1716 4.23823C28.2076 4.26691 28.258 4.23824 28.2868 4.20956C28.3877 4.06613 28.2868 3.80078 28.258 3.64301C28.2436 3.56413 28.1067 3.56413 28.0923 3.64301Z" fill="#0C0A35"/>
<path d="M29.353 2.48128C29.2593 2.64622 29.2521 2.80399 29.2882 2.99044C29.3314 3.21276 29.6915 3.16255 29.6843 2.94024C29.6843 2.86852 29.6627 2.804 29.6411 2.73228C29.6123 2.64623 29.5475 2.58168 29.5114 2.50279C29.4898 2.43825 29.3962 2.40957 29.353 2.48128Z" fill="#0C0A35"/>
<path d="M29.8067 5.69401C29.7779 5.83026 29.749 5.9737 29.7562 6.10996C29.7634 6.31793 30.0876 6.31793 30.0732 6.10996C30.066 5.96653 30.0156 5.83026 29.9868 5.69401C29.9723 5.60078 29.8283 5.60078 29.8067 5.69401Z" fill="#0C0A35"/>
<path d="M30.9665 4.2096C30.9593 4.23829 30.9376 4.26698 30.9304 4.30284C30.916 4.36021 30.9088 4.43191 30.9016 4.48928C30.8944 4.62553 30.9016 4.75463 30.9953 4.85502C31.0745 4.93391 31.2258 4.91955 31.2762 4.81915C31.341 4.69724 31.3122 4.56816 31.2834 4.43907C31.2546 4.30999 31.1825 4.24546 31.0889 4.1594C31.0385 4.1092 30.9737 4.13789 30.9665 4.2096Z" fill="#0C0A35"/>
<path d="M32.0685 5.98089C32.0902 6.16735 32.0181 6.40399 32.1334 6.56893C32.2414 6.71953 32.4935 6.63348 32.4431 6.43985C32.4143 6.34662 32.3639 6.27491 32.3135 6.19603C32.263 6.11714 32.2342 6.03109 32.1838 5.9522C32.155 5.89483 32.0613 5.91635 32.0685 5.98089Z" fill="#0C0A35"/>
<path d="M23.2014 5.95945C23.1726 6.16025 23.0429 6.49013 23.223 6.65507C23.259 6.68376 23.3022 6.68376 23.3382 6.65507C23.5183 6.49013 23.3958 6.16742 23.3598 5.95945C23.3454 5.88056 23.2086 5.88056 23.2014 5.95945Z" fill="#0C0A35"/>
<path d="M22.2289 8.70607C22.5243 8.70607 22.5243 8.25427 22.2289 8.25427C21.9336 8.25427 21.9336 8.70607 22.2289 8.70607Z" fill="#F70032"/>
<path d="M25.0238 8.49094C25.2831 8.49094 25.2831 8.08934 25.0238 8.08934C24.7645 8.09651 24.7645 8.49094 25.0238 8.49094Z" fill="#F70032"/>
<path d="M27.9267 8.72041C28.2869 8.72041 28.2869 8.16104 27.9267 8.16104C27.5666 8.16821 27.5666 8.72041 27.9267 8.72041Z" fill="#F70032"/>
<path d="M30.8512 8.79923C31.1897 8.79923 31.1897 8.27571 30.8512 8.27571C30.5198 8.27571 30.5198 8.79923 30.8512 8.79923Z" fill="#F70032"/>
<path d="M33.538 9.12918C33.8693 9.12918 33.8693 8.61284 33.538 8.61284C33.1994 8.62001 33.1994 9.12918 33.538 9.12918Z" fill="#F70032"/>
<path d="M21.7536 29.5748C20.9973 31.3533 20.5218 33.5477 19.1316 34.982C18.3177 35.8139 19.607 37.0976 20.4138 36.2585C21.8976 34.7095 22.4955 31.6616 22.2002 29.6321C22.1714 29.4313 21.8328 29.3811 21.7536 29.5748Z" fill="#F70032"/>
<path d="M27.9915 29.668C27.4656 31.7764 27.48 34.6951 28.4309 36.6959C28.9135 37.7071 30.3685 36.825 29.9219 35.8282C29.108 34.0138 28.7766 31.7118 28.5461 29.7468C28.5173 29.4456 28.0779 29.3381 27.9915 29.668Z" fill="#F70032"/>
<path d="M32.9761 28.5994C32.8393 29.9691 33.3651 31.2672 33.9702 32.472C34.4384 33.3899 35.49 35.3764 36.7074 35.2473C37.0963 35.2043 37.3556 34.9676 37.3845 34.5732C37.4565 33.605 36.1959 32.6584 35.6557 31.9341C34.8417 30.8441 34.2439 29.6177 33.6028 28.4273C33.4371 28.1046 33.0121 28.291 32.9761 28.5994Z" fill="#F70032"/>
<path d="M19.3693 19.9723C20.0392 19.9651 20.7595 20.0297 21.415 19.8289C21.8688 19.6926 22.3154 19.205 22.2218 18.7101C22.1353 18.2583 21.7752 17.9213 21.307 17.8639C20.9828 17.828 20.1977 18.1149 20.5074 18.5595C20.5434 18.6097 20.5939 18.6241 20.6515 18.6169C20.9252 18.5739 20.9973 18.287 21.3286 18.3372C21.8616 18.4233 21.9769 18.9253 21.6383 19.3053C21.0981 19.9077 20.0104 19.4918 19.3477 19.9077C19.3189 19.9221 19.3333 19.9723 19.3693 19.9723Z" fill="#0C0A35"/>
<path d="M24.6637 29.1373C24.3108 30.1628 24.1019 31.1812 23.9506 32.2569C23.8138 33.2394 23.5328 34.2792 23.6625 35.2689C23.7633 36.0506 25.0239 36.4163 25.1896 35.4768C25.5497 33.4187 25.2544 31.2959 25.276 29.2234C25.2904 28.8505 24.7718 28.8075 24.6637 29.1373Z" fill="#0C0A35"/>
<path d="M20.1545 29.1158C19.4558 30.9015 17.5325 32.221 16.1639 33.476C15.4148 34.1644 16.5169 35.2401 17.2804 34.5875C18.5914 33.4616 21.3934 31.1238 20.6299 29.1158C20.5435 28.8791 20.2409 28.8863 20.1545 29.1158Z" fill="#0C0A35"/>
<path d="M30.0228 28.4991C29.7419 30.0768 30.0949 31.5612 30.5055 33.0816C30.7864 34.1142 31.2762 35.8641 32.3423 36.3015C33.2499 36.6744 33.6965 35.4266 33.1994 34.8314C32.6952 34.229 32.3783 33.1533 32.0325 32.4433C31.4203 31.1811 30.9809 29.8544 30.6351 28.4991C30.5631 28.2122 30.0805 28.1835 30.0228 28.4991Z" fill="#0C0A35"/>
<path d="M35.5116 28.9222C35.3388 30.2058 36.2031 31.0951 37.0603 31.9413C37.8094 32.6871 38.4361 33.7915 39.5886 33.8848C40.6979 33.978 40.7195 32.1278 39.5886 32.1565C39.1781 32.1636 38.5298 31.3389 38.1984 31.0879C37.5501 30.6002 36.1959 29.8042 36.0951 28.915C36.0591 28.5421 35.5621 28.5492 35.5116 28.9222Z" fill="#0C0A35"/>
<path d="M28.2652 31.9198C28.719 31.9198 28.719 31.2241 28.2652 31.2241C27.8186 31.2241 27.8186 31.9198 28.2652 31.9198Z" fill="#0C0A35"/>
<path d="M28.3805 33.4903C28.8847 33.4903 28.8847 32.7086 28.3805 32.7086C27.8691 32.7086 27.8691 33.4903 28.3805 33.4903Z" fill="#0C0A35"/>
<path d="M28.8487 34.817L28.8559 34.8098C29.0144 34.6592 29.0144 34.3867 28.8559 34.2361L28.8487 34.229C28.5894 33.978 28.1284 34.1573 28.1284 34.523C28.1284 34.8887 28.5894 35.0752 28.8487 34.817Z" fill="#0C0A35"/>
<path d="M28.8343 35.6848C28.8271 35.692 28.8199 35.6991 28.8127 35.7063C28.7047 35.8067 28.7047 36.0075 28.8127 36.1079C28.8199 36.1151 28.8271 36.1222 28.8343 36.1222C29.0288 36.3015 29.3602 36.1796 29.3602 35.9071C29.3602 35.6274 29.0288 35.5055 28.8343 35.6848Z" fill="#0C0A35"/>
<path d="M33.5884 30.0337C34.0134 30.0337 34.0134 29.3811 33.5884 29.3811C33.1706 29.3811 33.1706 30.0337 33.5884 30.0337Z" fill="#0C0A35"/>
<path d="M34.0494 31.3103C34.5392 31.3103 34.5392 30.5573 34.0494 30.5573C33.5596 30.5501 33.5596 31.3103 34.0494 31.3103Z" fill="#0C0A35"/>
<path d="M34.7985 32.7086C35.0651 32.7086 35.2956 32.4863 35.2956 32.2138C35.2956 31.9485 35.0723 31.719 34.7985 31.719C34.5248 31.719 34.3015 31.9413 34.3015 32.2138C34.3015 32.4792 34.532 32.7086 34.7985 32.7086Z" fill="#0C0A35"/>
<path d="M35.7277 33.8202C35.9726 33.8202 36.1815 33.6123 36.1815 33.3685C36.1815 33.1246 35.9726 32.9167 35.7277 32.9167C35.4828 32.9167 35.2739 33.1246 35.2739 33.3685C35.2739 33.6123 35.4828 33.8202 35.7277 33.8202Z" fill="#0C0A35"/>
<path d="M36.52 34.5445C36.9522 34.5445 36.9522 33.8776 36.52 33.8776C36.095 33.8776 36.095 34.5445 36.52 34.5445Z" fill="#0C0A35"/>
<path d="M21.7464 31.4465C22.1714 31.4465 22.1714 30.7939 21.7464 30.7939C21.3287 30.7939 21.3287 31.4465 21.7464 31.4465Z" fill="#0C0A35"/>
<path d="M21.4799 32.8306C21.9985 32.8306 21.9985 32.0274 21.4799 32.0274C20.9613 32.0274 20.9613 32.8306 21.4799 32.8306Z" fill="#0C0A35"/>
<path d="M20.99 34.143C21.5375 34.143 21.5375 33.2968 20.99 33.2968C20.4426 33.2968 20.4426 34.143 20.99 34.143Z" fill="#0C0A35"/>
<path d="M20.3921 35.2115C20.8459 35.2115 20.8459 34.5087 20.3921 34.5087C19.9383 34.5087 19.9383 35.2115 20.3921 35.2115Z" fill="#0C0A35"/>
<path d="M19.6791 36.1294C20.0176 36.1294 20.0176 35.6059 19.6791 35.6059C19.3405 35.6059 19.3405 36.1294 19.6791 36.1294Z" fill="#0C0A35"/>
<path d="M38.1767 47.6969C38.3136 47.8547 38.4721 47.9837 38.6377 48.0985C38.753 48.1774 38.9619 48.3567 39.0915 48.2204C39.2284 48.0842 38.9475 47.9622 38.8682 47.9192C38.6738 47.8188 38.4937 47.6897 38.3352 47.532C38.2271 47.4387 38.0759 47.5893 38.1767 47.6969Z" fill="#222272"/>
<path d="M41.8 50.3574C41.9369 50.5151 42.0954 50.6442 42.261 50.759C42.3763 50.8379 42.5852 51.0171 42.7148 50.8809C42.8517 50.7446 42.5708 50.6227 42.4915 50.5797C42.2971 50.4793 42.117 50.3502 41.9585 50.1924C41.8576 50.092 41.7064 50.2498 41.8 50.3574Z" fill="#222272"/>
<path d="M26.2052 47.661C26.342 47.8188 26.5005 47.9479 26.6662 48.0626C26.7814 48.1415 26.9903 48.3208 27.1199 48.1845C27.2568 48.0483 26.9759 47.9264 26.8967 47.8833C26.7022 47.7829 26.5221 47.6538 26.3636 47.4961C26.2556 47.4028 26.1115 47.5534 26.2052 47.661Z" fill="#222272"/>
<path d="M47.6058 47.998C47.7427 48.1558 47.9011 48.2849 48.0668 48.4068C48.1821 48.4857 48.391 48.665 48.5206 48.5287C48.6575 48.3925 48.3766 48.2706 48.2973 48.2275C48.1028 48.1271 47.9227 47.998 47.7643 47.8403C47.6562 47.7399 47.505 47.8905 47.6058 47.998Z" fill="#222272"/>
<path d="M34.3664 47.7471C34.2512 48.0196 34.2223 48.3423 34.2583 48.6363C34.2872 48.8443 34.6113 48.7869 34.6113 48.5861C34.6113 48.3064 34.5537 48.0052 34.4456 47.7471C34.4312 47.704 34.3808 47.704 34.3664 47.7471Z" fill="#222272"/>
<path d="M22.6972 44.7135C22.582 44.986 22.5531 45.3088 22.5892 45.6028C22.618 45.8108 22.9421 45.7534 22.9421 45.5526C22.9421 45.2729 22.8845 44.9717 22.7764 44.7135C22.762 44.6705 22.7116 44.6705 22.6972 44.7135Z" fill="#222272"/>
<path d="M11.201 38.3956C11.0858 38.6681 11.0569 38.9908 11.0929 39.2848C11.1218 39.4928 11.4459 39.4354 11.4459 39.2346C11.4459 38.9549 11.3883 38.6537 11.2802 38.3956C11.2658 38.3525 11.2154 38.3525 11.201 38.3956Z" fill="#222272"/>
<path d="M31.377 48.4928C31.2618 48.7654 31.233 49.0881 31.269 49.3821C31.2978 49.5901 31.6219 49.5327 31.6219 49.3319C31.6219 49.0522 31.5643 48.751 31.4563 48.4928C31.4419 48.4498 31.3914 48.4498 31.377 48.4928Z" fill="#222272"/>
<path d="M33.466 40.9342C33.6101 40.884 33.7901 40.884 33.9414 40.8769C34.0783 40.8697 34.2727 40.8697 34.3304 40.7262C34.3376 40.6976 34.3304 40.6689 34.3088 40.6474C34.2007 40.547 33.9918 40.6115 33.8622 40.633C33.6821 40.6545 33.5236 40.676 33.394 40.8123C33.3435 40.8625 33.3868 40.9557 33.466 40.9342Z" fill="#222272"/>
<path d="M15.6381 40.5111C15.7821 40.4609 15.9622 40.4609 16.1135 40.4537C16.2503 40.4466 16.4448 40.4466 16.5024 40.3031C16.5096 40.2745 16.5024 40.2458 16.4808 40.2243C16.3728 40.1239 16.1639 40.1884 16.0342 40.2099C15.8614 40.2314 15.6957 40.2529 15.566 40.3892C15.5156 40.4394 15.566 40.5326 15.6381 40.5111Z" fill="#222272"/>
<path d="M23.828 38.7398C23.9721 38.6896 24.1522 38.6896 24.3035 38.6824C24.4403 38.6753 24.6348 38.6753 24.6924 38.5318C24.6996 38.5032 24.6924 38.4745 24.6708 38.453C24.5628 38.3526 24.3539 38.4171 24.2242 38.4386C24.0513 38.4601 23.8857 38.4816 23.756 38.6179C23.7128 38.6609 23.756 38.7613 23.828 38.7398Z" fill="#222272"/>
<path d="M34.3951 43.0498C34.5464 43.0857 34.6977 43.1717 34.8345 43.2434C34.9498 43.308 35.1227 43.4084 35.2451 43.308C35.2667 43.2936 35.2739 43.2578 35.2667 43.2291C35.2235 43.0857 35.0146 43.0426 34.8922 42.9852C34.7265 42.9135 34.5752 42.849 34.3951 42.8992C34.3231 42.9279 34.3159 43.0355 34.3951 43.0498Z" fill="#222272"/>
<path d="M45.3512 52.3726C45.5024 52.4085 45.6537 52.4945 45.7905 52.5662C45.913 52.6308 46.0787 52.7312 46.2011 52.6308C46.2227 52.6164 46.2299 52.5806 46.2227 52.5519C46.1795 52.4085 45.9634 52.3654 45.8482 52.308C45.6825 52.2363 45.5312 52.1718 45.3512 52.222C45.2863 52.2507 45.2719 52.3583 45.3512 52.3726Z" fill="#222272"/>
<path d="M12.8288 33.1748C12.9729 33.1174 13.1458 33.1102 13.3042 33.0959C13.4339 33.0815 13.6356 33.0744 13.686 32.9238C13.6932 32.8951 13.6788 32.8664 13.6644 32.8449C13.5491 32.7517 13.3474 32.8305 13.2178 32.8521C13.0449 32.8807 12.8793 32.9166 12.7568 33.0529C12.6992 33.1102 12.7568 33.2034 12.8288 33.1748Z" fill="#222272"/>
<path d="M45.0775 50.0777C45.2287 50.1136 45.38 50.1996 45.5169 50.2713C45.6393 50.3359 45.805 50.4363 45.9275 50.3359C45.9491 50.3215 45.9563 50.2857 45.9491 50.257C45.9058 50.1136 45.697 50.0705 45.5745 50.0132C45.4088 49.9414 45.2576 49.8769 45.0775 49.9271C45.0127 49.9486 45.0054 50.0634 45.0775 50.0777Z" fill="#222272"/>
<path d="M42.578 48.3351C42.7293 48.371 42.8805 48.457 43.0174 48.5287C43.1398 48.5933 43.3055 48.6937 43.428 48.5933C43.4496 48.5789 43.4568 48.5431 43.4496 48.5144C43.4064 48.371 43.1975 48.3279 43.075 48.2706C42.9093 48.1989 42.7581 48.1343 42.578 48.1845C42.506 48.2132 42.4988 48.3208 42.578 48.3351Z" fill="#222272"/>
<path d="M35.3748 46.069C35.4468 46.2124 35.6197 46.2196 35.7566 46.1909C35.8646 46.1694 35.9655 46.1264 36.0663 46.0977C36.1744 46.0618 36.2968 46.0475 36.3976 45.9829C36.4769 45.9256 36.5057 45.7821 36.3976 45.7319C36.2176 45.6531 36.0447 45.7319 35.8718 45.8037C35.7062 45.8682 35.5477 45.9327 35.3892 46.0188C35.3676 46.026 35.3604 46.0475 35.3748 46.069Z" fill="#222272"/>
<path d="M14.2983 38.1159C14.3703 38.2593 14.5432 38.2665 14.68 38.2378C14.7881 38.2163 14.8889 38.1732 14.9898 38.1445C15.0978 38.1087 15.2203 38.0944 15.3211 38.0298C15.4004 37.9724 15.4292 37.829 15.3211 37.7788C15.141 37.6999 14.9682 37.7788 14.7953 37.8505C14.6296 37.9151 14.4711 37.9796 14.3127 38.0657C14.291 38.0728 14.2911 38.0944 14.2983 38.1159Z" fill="#222272"/>
<path d="M20.5362 40.6474C20.6082 40.7908 20.7811 40.798 20.918 40.7693C21.026 40.7478 21.1268 40.7047 21.2277 40.676C21.3357 40.6402 21.4654 40.6259 21.559 40.5613C21.6383 40.504 21.6671 40.3605 21.559 40.3103C21.3789 40.2314 21.2061 40.3103 21.0332 40.382C20.8675 40.4466 20.7091 40.5111 20.5506 40.5972C20.529 40.6043 20.5218 40.6259 20.5362 40.6474Z" fill="#222272"/>
<path d="M29.9219 39.9733C29.994 40.1167 30.1668 40.1239 30.3037 40.0952C30.4117 40.0737 30.5126 40.0307 30.6134 40.002C30.7215 39.9662 30.8439 39.9518 30.9448 39.8873C31.024 39.8299 31.0528 39.6865 30.9448 39.6363C30.7647 39.5574 30.5918 39.6363 30.4189 39.708C30.2533 39.7725 30.0948 39.8371 29.9363 39.9231C29.9147 39.9303 29.9075 39.959 29.9219 39.9733Z" fill="#222272"/>
<path d="M11.1361 36.1796C11.2082 36.3231 11.381 36.3302 11.5179 36.3016C11.6259 36.28 11.7268 36.237 11.8276 36.2083C11.9357 36.1725 12.0581 36.1581 12.159 36.0936C12.2382 36.0362 12.267 35.8928 12.159 35.8426C11.9789 35.7637 11.806 35.8426 11.6331 35.9143C11.4675 35.9788 11.309 36.0434 11.1505 36.1294C11.1361 36.1438 11.1289 36.1653 11.1361 36.1796Z" fill="#222272"/>
<path d="M36.4265 34.7166C36.5345 34.8099 36.6498 34.9031 36.7578 34.9963C36.8515 35.0752 36.9379 35.19 37.0676 35.1541C37.1252 35.1398 37.154 35.1039 37.154 35.0465C37.154 34.9103 37.0244 34.8601 36.9235 34.7884C36.8083 34.7023 36.6858 34.6162 36.5706 34.5302C36.4481 34.4441 36.3184 34.6162 36.4265 34.7166Z" fill="#0C0A35"/>
<path d="M40.2945 35.8927C40.3521 35.7493 40.4242 35.613 40.5034 35.4768C40.5754 35.3548 40.6403 35.2401 40.5682 35.1038C40.5466 35.068 40.5034 35.0321 40.453 35.0536C40.3161 35.1254 40.2873 35.2258 40.2441 35.3692C40.1937 35.527 40.136 35.6776 40.1072 35.8425C40.0784 35.9501 40.2513 35.9931 40.2945 35.8927Z" fill="#0C0A35"/>
<path d="M39.1564 38.4171C39.3221 38.3597 39.4949 38.3095 39.6606 38.2665C39.8119 38.2234 40.0136 38.1517 40.1288 38.0513C40.2657 37.9438 40.2153 37.7215 40.0352 37.6928C39.6318 37.6354 39.3509 38.0442 39.0411 38.2163C38.9259 38.2808 39.0411 38.4529 39.1564 38.4171Z" fill="#0C0A35"/>
<path d="M49.9324 40.5828C50.0116 40.3964 50.0836 40.2099 50.1629 40.0234C50.2277 39.8728 50.3141 39.7151 50.2565 39.5429C50.2349 39.4856 50.1701 39.4641 50.1124 39.4784C49.9396 39.5214 49.8603 39.7151 49.8099 39.8728C49.7451 40.0665 49.6946 40.2601 49.6298 40.4537C49.5794 40.6473 49.8531 40.7764 49.9324 40.5828Z" fill="#0C0A35"/>
<path d="M38.1839 33.2106C37.053 34.4369 35.6916 35.5987 35.2378 37.2051C34.9641 38.1804 35.1226 39.2274 35.3747 40.2099C35.6628 41.3501 36.0662 42.4689 36.7217 43.4442C37.37 44.4195 38.789 45.739 39.8839 46.1693C41.5406 46.8291 43.255 47.245 45.0342 47.0514C47.1015 46.8291 48.9023 45.151 49.8099 43.2936C50.7175 41.4362 51.3225 38.7182 50.6598 36.7605C50.5878 36.5381 50.5014 36.323 50.4221 36.1007C49.5722 33.8561 47.4328 31.9126 45.1494 31.1381C43.5287 30.5931 41.1949 29.9548 38.1839 33.2106Z" fill="#F70032"/>
<path d="M34.9642 37.5278C34.9498 38.6035 35.0939 39.5502 35.6341 40.2817C36.7794 41.8307 38.9836 43.4155 40.5683 44.5199C40.6979 44.6132 40.8348 44.7064 40.9933 44.7279C41.1517 44.7494 41.3318 44.6777 41.3823 44.5271C41.3895 44.5056 41.3894 44.4912 41.3967 44.4697C41.4399 44.1327 41.303 43.8028 41.1085 43.5303C39.8192 41.7733 39.2933 41.7374 37.6078 39.3852C37.1324 38.7255 38.148 38.3382 38.501 38.6681C39.6535 39.7653 40.2514 40.3964 41.4039 41.4864C41.9441 42.0028 42.7509 42.5837 43.428 42.8634C43.6945 42.9709 44.069 42.4904 43.9754 42.2179C43.6657 41.3502 42.9453 40.5398 42.1962 39.9374C41.4543 39.3422 40.0136 38.4027 39.5959 37.6282C39.2429 36.9685 39.8552 36.4163 39.9272 36.4665C41.9009 37.8219 43.4063 39.0912 45.0198 39.7868C45.4304 39.9661 46.3452 39.1773 44.7966 37.9581C42.9958 36.5454 42.1602 36.2872 40.806 34.9892C40.4386 34.6378 41.0581 33.9063 41.5479 34.0497C41.6992 34.0927 43.7665 35.778 45.9202 36.6099C46.2516 36.739 47.0007 36.8537 47.0728 36.5382C47.2384 35.8497 46.194 34.9748 45.3584 34.4298C44.4508 33.8417 43.0246 32.8019 42.0521 32.3286C41.3246 31.97 39.9128 31.6473 37.8023 32.8664C36.9379 33.3684 36.2752 34.0641 35.7854 34.9246C35.2956 35.7852 34.9786 36.531 34.9642 37.5278Z" fill="#B70027"/>
<path d="M48.6717 37.9509C48.8806 37.6856 48.8374 37.2912 48.5709 37.076C48.3044 36.8681 47.9082 36.9111 47.6921 37.1836C47.4832 37.4489 47.5264 37.8434 47.793 38.0585C48.0667 38.2593 48.4629 38.2163 48.6717 37.9509Z" fill="#0C0A35"/>
<path d="M48.8159 38.8903C48.8231 38.8975 48.8303 38.9047 48.8375 38.9118C48.9888 39.0624 49.2697 39.0337 49.421 38.919C49.6155 38.7756 49.7019 38.4385 49.5218 38.2449C49.5146 38.2377 49.5074 38.2306 49.5002 38.2234C49.3201 38.0298 49.0536 37.9509 48.8231 38.123C48.7223 38.2019 48.6502 38.3166 48.6286 38.4457C48.6142 38.6321 48.6935 38.7612 48.8159 38.8903Z" fill="#0C0A35"/>
<path d="M50.1629 39.7079C50.3862 39.4282 49.9468 39.0839 49.7235 39.3636C49.5074 39.6505 49.9396 39.9947 50.1629 39.7079Z" fill="#0C0A35"/>
<path d="M46.9935 40.7047C47.1952 40.4537 47.152 40.0736 46.8926 39.8728C46.6405 39.672 46.2588 39.715 46.0571 39.9732C45.8554 40.2242 45.8986 40.6043 46.1579 40.8051C46.41 41.0059 46.7918 40.9629 46.9935 40.7047Z" fill="#0C0A35"/>
<path d="M48.11 41.5223C48.4918 41.0418 47.7426 40.4537 47.3609 40.9342C46.9719 41.4219 47.7282 42.0099 48.11 41.5223Z" fill="#0C0A35"/>
<path d="M48.9816 41.9382C49.1545 41.7159 48.8087 41.4505 48.6359 41.6657C48.463 41.888 48.8087 42.1605 48.9816 41.9382Z" fill="#0C0A35"/>
<path d="M44.7316 42.6481C44.7244 42.6553 44.71 42.6625 44.7028 42.6625C44.5083 42.7629 44.3715 42.8991 44.3354 43.1214C44.3066 43.3222 44.3931 43.5302 44.5515 43.6593C44.71 43.7883 44.9333 43.8171 45.1278 43.7453C45.3367 43.6665 45.4375 43.4943 45.4951 43.2864C45.4951 43.272 45.5024 43.2649 45.5024 43.2505C45.596 42.8561 45.0918 42.4616 44.7316 42.6481Z" fill="#0C0A35"/>
<path d="M46.4173 44.0035C46.5469 43.8386 46.5181 43.5876 46.3524 43.4585C46.1868 43.3294 45.9346 43.3581 45.805 43.523C45.6753 43.688 45.7041 43.939 45.8698 44.0681C46.0355 44.2043 46.2804 44.1756 46.4173 44.0035Z" fill="#0C0A35"/>
<path d="M42.9957 45.6745C43.1686 45.4594 43.1254 45.1367 42.9093 44.9645C42.6932 44.7924 42.369 44.8355 42.1962 45.0506C42.0233 45.2657 42.0665 45.5885 42.2826 45.7606C42.5059 45.9327 42.83 45.8968 42.9957 45.6745Z" fill="#0C0A35"/>
<path d="M44.1265 45.9685C44.3931 45.6386 43.8744 45.2299 43.6079 45.5597C43.3486 45.8968 43.8672 46.2984 44.1265 45.9685Z" fill="#0C0A35"/>
<path d="M45.2863 46.0617C45.5024 45.7892 45.0774 45.4593 44.8613 45.7319C44.6524 46.0044 45.0774 46.3342 45.2863 46.0617Z" fill="#0C0A35"/>
<path d="M38.4577 36.6099C38.825 36.4306 39.07 36.3015 39.25 35.9071C39.4301 35.5055 39.3437 35.0322 39.1852 34.6377C38.7962 33.6911 37.8094 33.2609 36.8442 33.5262C35.9077 33.7844 35.3027 34.9389 35.2883 35.8425C35.2739 36.9971 36.0446 37.7932 37.2187 37.7286C38.9115 37.6426 40.2152 34.5517 38.4433 33.6839C37.334 33.1389 36.3111 34.0138 36.0374 35.068C35.9077 35.5772 35.9726 36.0864 36.2535 36.531C36.5344 36.9828 37.2187 37.3198 37.6941 36.9111C38.1335 36.5238 38.2776 35.9358 38.3208 35.3692C38.3928 34.3581 36.8154 34.1286 36.7433 35.1541C36.7433 35.1971 36.7361 35.2401 36.7289 35.2832C36.7865 35.1541 36.837 35.0322 36.8946 34.9031C36.7577 35.1039 36.7289 35.2473 36.7289 35.484C36.7289 36.4091 38.1695 36.3589 38.3064 35.4983C38.3136 35.4553 38.3208 35.4122 38.3208 35.3692C37.795 35.2975 37.2692 35.2258 36.7433 35.1541C36.7289 35.3334 36.7073 35.5055 36.6641 35.6776C36.6929 35.5485 36.6281 35.778 36.6209 35.778C36.7793 35.3907 37.7229 36.0433 37.5429 35.5915C37.5285 35.5557 37.6365 35.2832 37.6869 35.1899C37.6941 35.1756 37.8022 35.0824 37.7374 35.1182C37.6797 35.1469 37.867 35.1684 37.759 35.1254C37.7085 35.1111 37.6725 34.982 37.6869 35.1039C37.6941 35.1756 37.6581 35.3477 37.6293 35.4481C37.5573 35.6633 37.4996 35.7565 37.3916 35.8999C37.2908 36.0362 37.3268 36.0003 37.2475 36.0648C37.2043 36.1007 37.1611 36.1294 37.1179 36.1581C37.1899 36.1222 37.1827 36.1222 37.0963 36.1581C37.2331 36.1007 37.0819 36.1653 37.0098 36.1653C36.8442 36.1581 36.9882 36.2083 36.8874 36.1294C36.9954 36.2154 36.8658 36.029 36.8658 35.9716C36.8658 35.613 37.0242 35.1684 37.3268 35.025C37.4348 34.9748 37.5285 35.0035 37.5861 35.0322C37.6725 35.0609 37.8886 35.2258 37.9679 35.3119C38.1768 35.5485 38.256 35.9501 38.0831 36.1222C37.8742 36.3445 38.184 36.7461 38.4577 36.6099Z" fill="#0C0A35"/>
<path d="M37.5861 35.8282C37.9319 35.3908 37.2476 34.8458 36.9018 35.2904C36.5561 35.735 37.2403 36.2729 37.5861 35.8282Z" fill="#990028"/>
<path d="M38.7098 35.57C38.9403 35.2759 38.4793 34.9102 38.2488 35.2114C38.0111 35.4983 38.4721 35.864 38.7098 35.57Z" fill="#990028"/>
<path d="M38.0903 34.6449C38.2992 34.3796 37.8815 34.0497 37.6726 34.315C37.4637 34.5875 37.8742 34.9174 38.0903 34.6449Z" fill="#990028"/>
<path d="M36.4192 34.2863C36.412 34.2935 36.4048 34.3007 36.3976 34.3078C36.2607 34.4369 36.2823 34.609 36.448 34.7094C36.4552 34.7166 36.4624 34.7166 36.4696 34.7238C36.6353 34.8242 36.837 34.6305 36.8154 34.4656C36.7938 34.2863 36.5633 34.1501 36.4192 34.2863Z" fill="#990028"/>
<path d="M36.1455 35.8354C36.3472 35.5844 35.951 35.276 35.7565 35.527C35.5476 35.7852 35.9438 36.0935 36.1455 35.8354Z" fill="#990028"/>
<path d="M36.5992 36.9039C36.7865 36.6672 36.4191 36.3732 36.2247 36.6099C36.0374 36.8465 36.4047 37.1406 36.5992 36.9039Z" fill="#990028"/>
<path d="M37.8886 36.9397C38.0831 36.6959 37.7013 36.3947 37.5068 36.6386C37.3123 36.8824 37.6941 37.1836 37.8886 36.9397Z" fill="#990028"/>
<path d="M30.3758 87.2613C30.1885 87.3187 29.9796 87.2039 29.8643 87.0462C29.6122 86.7163 29.6194 86.2645 29.6338 85.8486C29.6338 85.8055 29.641 85.7553 29.6771 85.7266C29.7059 85.7051 29.7419 85.698 29.7779 85.698C30.0228 85.6764 30.2677 85.6908 30.5054 85.741C30.6207 86.0207 30.6783 86.3219 30.6927 86.6231C30.6927 86.8741 30.6207 87.1824 30.3758 87.2613Z" fill="#0C0A35"/>
<path d="M40.2513 57.0125C41.0581 56.367 41.9873 55.8722 42.7797 55.1981C43.3127 54.7463 43.7881 54.1798 44.0546 53.5487C44.2059 53.1901 43.8457 52.8172 43.4784 52.9535C42.9669 53.1399 42.4411 53.2116 41.9945 52.9391C41.4183 52.5949 41.267 51.8562 40.95 51.2682C40.309 50.0706 38.7891 49.4251 37.4781 49.7909C36.0447 50.1925 34.9714 51.6124 33.4876 51.6626C31.7228 51.7128 30.3542 49.7765 28.5894 49.8841C27.0695 49.9702 25.9818 51.5479 24.4764 51.72C22.798 51.9136 21.1413 50.3072 19.5638 50.8953C19.3405 50.9813 19.1388 51.1248 18.966 51.2897C17.0067 53.1256 17.619 54.1296 15.0042 53.4913C14.9466 53.477 14.8889 53.4841 14.8385 53.5057C13.722 54.1582 17.5325 57.0842 19.2541 58.5543C20.846 59.9169 22.1426 61.7456 22.4091 63.8253C22.5603 65.0157 22.4163 66.3568 23.1798 67.289C23.2734 67.4038 23.3815 67.5114 23.5112 67.5903C24.2099 68.0134 25.0598 67.4468 25.7297 66.9878C28.0059 65.4101 30.8008 64.7719 33.538 64.3201C34.7481 64.1193 35.9799 63.9472 37.1252 63.4954C37.3413 63.4093 37.5213 63.2444 37.5934 63.0221C37.7086 62.6707 37.4061 62.5703 37.3124 62.348C37.2548 62.2189 37.2764 62.0755 37.3052 61.9392C37.6582 60.0101 38.7243 58.2316 40.2513 57.0125Z" fill="#990028"/>
<path d="M33.5452 79.6525C34.6401 78.9497 36.2968 78.0174 36.7506 76.7983C37.2044 75.5863 37.4998 74.3026 38.0976 73.1552C38.6595 72.0795 39.4734 71.1544 40.237 70.2078C40.6331 69.7201 41.0221 69.0317 40.6764 68.5082C40.381 68.0635 39.74 68.0492 39.2213 68.1424C38.6955 68.2356 38.1336 68.3934 37.6582 68.1496C37.7735 66.7297 37.8311 65.4245 37.9463 64.0045C37.9968 63.4093 38.04 62.7997 37.8383 62.2404C37.3989 61.0212 35.9511 60.4834 34.6545 60.4045C31.8741 60.2252 29.1585 61.4443 26.9759 63.1655C26.4501 63.5814 25.9387 64.0332 25.5065 64.5424C24.7429 65.446 24.2315 66.5288 23.7273 67.5974C23.4824 68.1209 23.2303 68.6516 23.1006 69.2181C22.9565 69.8635 22.971 70.5305 23.0214 71.1903C23.1366 72.7823 23.432 74.3743 24.0946 75.823C24.7573 77.2716 25.8162 78.5768 27.2136 79.3513C28.006 79.7887 28.8848 80.0469 29.7708 80.1903C31.3338 80.4413 32.2198 80.5059 33.5452 79.6525Z" fill="#FFD6A1"/>
<path d="M30.635 86.5658C29.9867 86.6303 29.3241 86.5514 28.6974 86.365C27.3432 85.9705 26.1259 85.0813 25.3767 83.8908C24.6204 82.7004 24.3467 81.2159 24.6492 79.839C28.0995 80.5633 31.7083 80.549 35.1514 79.7888C35.3243 81.2876 35.0722 82.8582 34.287 84.149C33.5019 85.4398 32.1405 86.408 30.635 86.5658Z" fill="#F70032"/>
<path d="M27.1776 73.7361C27.1776 73.7361 27.3577 73.7003 27.509 73.7075C29.2665 73.8294 31.6796 74.1951 33.3147 73.8007C33.5164 73.7505 33.7541 73.7577 33.9054 73.686C34.0134 73.6358 33.9702 73.4278 34.0855 73.4851C34.3088 73.5999 34.5249 75.3999 34.496 76.2892C34.496 76.368 34.4384 76.4469 34.3592 76.4684C33.6965 76.6621 32.7385 76.6262 32.0758 76.5832C31.2546 76.5258 30.0805 76.2892 29.5042 75.988C28.8704 75.6437 27.8403 75.113 27.1776 73.7361Z" fill="#0C0A35"/>
<path d="M34.1503 73.5497C34.1575 73.564 34.1503 73.5855 34.1431 73.607C33.7757 74.1449 33.2787 74.6541 32.0181 74.984C30.275 75.4429 28.4094 75.0557 27.1776 73.7433C29 72.7967 30.275 72.6891 33.2355 73.1552C33.538 73.1983 34.0494 73.2772 34.1503 73.5497Z" fill="white"/>
<path d="M29.713 66.3567C29.6122 66.4141 29.9219 66.8587 29.2232 66.9878C28.9135 67.0452 28.7406 66.9448 28.6758 66.6364C28.6038 66.242 28.9783 65.5751 29.5042 65.2523C30.03 64.9296 30.4838 64.7432 31.0961 64.7719C32.7888 64.8579 34.4527 65.5177 35.7493 66.6077C36.1959 66.9878 37.1323 67.748 37.3628 67.6763C37.5861 67.6046 38.0327 67.0237 38.8827 65.9193C39.4013 65.2452 40.2441 64.4205 41.0941 64.442C41.5119 64.4563 41.836 64.6786 42.0161 65.0587C42.189 65.4388 42.1313 65.8691 41.7928 66.1057C41.303 66.4428 41.1013 66.0842 40.914 66.0125C40.7987 65.9695 40.8636 66.3352 40.9356 66.4428C41.4038 67.1743 42.2754 66.9519 42.7724 66.6077C43.2694 66.2635 43.4783 65.7041 43.6008 65.1161C43.6944 64.6499 43.6224 64.0977 43.4567 63.6531C43.1038 62.6922 41.9224 62.5057 40.8996 62.4627C39.603 62.4053 38.4289 63.1153 38.0111 64.0476C37.2404 65.783 37.3772 65.9982 37.1827 65.9695C37.0531 65.948 36.8514 64.6428 36.5633 64.1623C35.137 61.7527 31.8812 61.9463 30.4334 62.3121C28.9783 62.6778 27.9555 63.5527 27.4368 64.944C26.9326 66.285 27.3576 67.0165 27.9267 67.6906C28.2796 68.1065 28.8631 68.2858 29.4105 68.2141C29.8067 68.1568 30.1452 67.7838 30.1957 67.3894C30.2749 66.6938 29.8427 66.285 29.713 66.3567Z" fill="#D6002B"/>
<path d="M22.193 76.5688C21.7248 75.9306 20.8172 74.3098 20.3562 73.6716C19.463 72.4309 19.11 71.011 17.7414 70.3225C17.0787 69.9927 16.2143 69.8062 15.494 69.6484C14.7665 69.4907 14.2839 69.1608 13.9453 68.501C13.5492 67.7337 13.4051 66.9807 13.8733 65.7113C14.0534 65.2093 14.925 64.1695 17.3308 63.9257C17.9863 63.8611 18.9732 63.7751 20.1977 63.8468C21.7104 63.94 21.6023 63.9687 23.1222 63.9687C24.1738 63.9687 24.1739 64.0189 24.57 64.9655C24.8365 65.6038 25.2615 67.9703 25.5713 69.046C25.6793 69.4333 27.0263 75.0772 27.2568 75.9019C27.4369 76.5545 27.617 77.2071 27.797 77.8596C27.8907 78.2182 27.9915 78.6126 27.8259 78.9425C27.5882 79.4445 26.9255 79.5378 26.3636 79.5664C25.9746 79.588 25.5929 79.6095 25.2039 79.6238C25.0454 79.631 24.887 79.6382 24.7357 79.5951C24.5556 79.5378 24.6493 79.1075 24.5196 78.9712C23.4679 77.9099 23.079 77.7808 22.193 76.5688Z" fill="#E20C3F"/>
<path d="M31.0097 73.1839C29.9653 73.1194 29.9365 73.9154 29.9509 74.1807C29.9653 74.5608 30.311 74.8907 30.6928 74.9266C31.1322 74.9696 31.5716 74.6325 31.6508 74.2022C31.73 73.7648 31.4491 73.2054 31.0097 73.1839Z" fill="#0C0A35"/>
<path d="M36.6138 68.2357C37.3413 68.5871 37.8671 67.8485 38.1264 67.2532C38.2849 66.8875 38.4434 66.493 38.3641 66.0915C38.1408 64.9225 37.8023 64.1839 38.3281 63.0149C38.3569 62.9576 38.2849 62.893 38.2345 62.9432C37.6366 63.5241 37.4781 64.1337 37.5862 64.944C37.6654 65.5034 37.9824 65.9552 37.968 66.5361C37.9463 67.3393 37.5285 68.1281 36.6209 68.1712C36.5993 68.1712 36.5777 68.2214 36.6138 68.2357Z" fill="#0C0A35"/>
<path d="M36.8443 67.7552C36.1312 66.3998 37.046 65.7974 37.0605 64.5065C37.0677 63.646 36.6931 62.685 36.0448 62.1041C35.9944 62.0611 35.9151 62.1041 35.9368 62.1687C36.0952 62.7065 36.3113 63.23 36.4842 63.7607C36.7363 64.5567 36.2465 65.3886 36.052 66.1344C35.8575 66.8731 36.1889 67.4109 36.7435 67.8412C36.7939 67.8914 36.8876 67.8341 36.8443 67.7552Z" fill="#0C0A35"/>
<path d="M38.8252 66.8445C39.5311 66.5217 39.4807 65.6253 39.3942 64.9727C39.2862 64.1982 39.1349 63.4309 39.7112 62.7854C40.1218 62.3193 40.7556 62.4054 41.2599 62.1472C41.3967 62.0755 41.3391 61.9034 41.2239 61.8532C40.3307 61.4803 39.3942 62.305 39.0413 63.0651C38.8252 63.5241 38.8612 64.0548 38.926 64.5424C39.0341 65.3887 39.1061 65.9265 38.6883 66.701C38.6235 66.7942 38.7243 66.8875 38.8252 66.8445Z" fill="#0C0A35"/>
<path d="M39.8623 65.9265C40.4458 65.6253 40.5682 65.0444 40.6403 64.4277C40.7051 63.854 40.7915 63.3663 41.1013 62.8572C41.4326 62.305 42.0161 62.0396 42.5059 61.6524C42.5707 61.6022 42.4987 61.5089 42.4339 61.5233C41.6271 61.6954 40.9788 62.4125 40.6043 63.1153C40.1649 63.9544 40.4818 65.0803 39.7615 65.7903C39.6823 65.862 39.7759 65.9696 39.8623 65.9265Z" fill="#0C0A35"/>
<path d="M40.7556 65.5679C41.5191 65.6612 41.7064 64.5137 41.9585 64.0189C42.4411 63.058 43.5432 62.9073 44.458 62.7065C44.5373 62.6922 44.5517 62.5846 44.5012 62.5344C43.997 61.9894 42.8733 62.642 42.3979 62.936C42.0522 63.1512 41.7856 63.4452 41.5768 63.7966C41.3246 64.2269 41.267 65.2165 40.734 65.3958C40.6331 65.4317 40.662 65.5536 40.7556 65.5679Z" fill="#0C0A35"/>
<path d="M41.5552 65.9193C41.9945 65.1735 42.8157 65.0803 43.4784 64.607C43.925 64.2843 44.4796 63.6675 44.4868 63.0938C44.4868 63.0149 44.386 62.9719 44.3356 63.0293C44.0619 63.3089 43.9178 63.6962 43.6585 63.9974C43.3632 64.3416 42.9814 64.5496 42.578 64.7217C42.0522 64.944 41.4687 65.2667 41.4543 65.8906C41.4471 65.948 41.5263 65.9695 41.5552 65.9193Z" fill="#0C0A35"/>
<path d="M40.7051 66.1703C41.2742 66.6795 42.0233 66.9018 42.7652 66.5719C43.7809 66.1273 44.1338 65.1233 45.0486 64.564C45.1351 64.5066 45.0991 64.3703 44.9982 64.3703C44.4436 64.3632 44.105 64.7432 43.7881 65.152C42.9525 66.2492 42.0881 66.5074 40.7267 66.1273C40.7051 66.1201 40.6835 66.1488 40.7051 66.1703Z" fill="#0C0A35"/>
<path d="M35.7134 67.1385C35.4973 67.0022 35.3892 66.2205 35.3172 65.9839C35.0651 65.1807 35.2596 64.4636 35.4685 63.689C35.6557 63.0006 35.2884 62.4842 34.8346 62.0109C34.7553 61.9249 34.6329 62.0181 34.6545 62.1185C34.7914 62.7783 35.1371 63.1512 34.921 63.897C34.7769 64.4062 34.6545 64.8866 34.7337 65.4173C34.8202 65.9623 34.9426 67.1887 35.6269 67.3464C35.7494 67.3751 35.8214 67.203 35.7134 67.1385Z" fill="#0C0A35"/>
<path d="M34.1431 66.0914C33.3579 65.2739 33.999 63.8468 33.7469 62.8284C33.5596 62.0898 32.897 61.2938 32.1262 61.1503C32.0326 61.1288 31.9461 61.2221 31.9966 61.3153C32.2343 61.7384 32.6304 62.0396 32.9258 62.434C33.2931 62.9289 33.3364 63.5527 33.3292 64.1408C33.322 64.9296 33.4156 65.6611 34.1071 66.1416C34.1359 66.156 34.1647 66.1201 34.1431 66.0914Z" fill="#0C0A35"/>
<path d="M32.7096 65.7113C32.2774 64.8005 32.6592 63.7894 32.263 62.8499C32.0109 62.2619 31.3915 61.5161 30.7648 61.3296C30.7072 61.3153 30.6423 61.3726 30.6639 61.43C30.9593 62.2117 31.7732 62.642 32.0397 63.481C32.3063 64.3344 31.9965 65.03 32.616 65.783C32.6592 65.8404 32.7384 65.7687 32.7096 65.7113Z" fill="#0C0A35"/>
<path d="M31.6436 65.6898C30.8368 65.6324 31.0097 64.0261 30.844 63.4524C30.6351 62.7209 30.0661 61.8316 29.2449 61.7527C29.1657 61.7456 29.108 61.8531 29.1513 61.9177C29.4682 62.3982 29.9796 62.6994 30.3038 63.1942C30.5703 63.603 30.6351 64.0476 30.7144 64.5065C30.808 65.0157 31.0169 65.7902 31.6436 65.7974C31.7156 65.7974 31.7156 65.6898 31.6436 65.6898Z" fill="#0C0A35"/>
<path d="M30.2534 65.8404C29.6987 65.5966 29.5475 64.4563 29.2593 63.9472C28.9208 63.3376 28.3878 62.6635 27.6314 62.6778C27.5234 62.6778 27.4874 62.7997 27.5522 62.8786C27.8115 63.187 28.1429 63.4236 28.4238 63.7177C28.7263 64.0404 28.9352 64.442 29.1369 64.8293C29.353 65.2595 29.6555 65.9336 30.2246 65.9551C30.275 65.9551 30.311 65.8619 30.2534 65.8404Z" fill="#0C0A35"/>
<path d="M29.5547 68.4364C29.9292 67.6189 29.706 66.9735 29.1873 66.2563C28.8632 65.8189 28.3806 65.4962 28.0132 65.0946C27.4441 64.4635 27.5234 63.7607 27.3073 63.022C27.2785 62.9216 27.1272 62.893 27.0768 62.9934C26.7166 63.7177 27.0336 64.5137 27.4585 65.1519C28.2437 66.3352 29.6339 66.7512 29.5331 68.4364C29.5331 68.4436 29.5547 68.4508 29.5547 68.4364Z" fill="#0C0A35"/>
<path d="M28.7264 68.6875C28.8056 67.8843 28.5103 67.3751 27.9556 66.7942C27.509 66.3281 26.9832 66.1273 26.7167 65.4819C26.5654 65.1161 26.551 64.8077 26.2629 64.528C26.1836 64.4563 26.0396 64.5065 26.0468 64.6141C26.0684 65.238 26.3061 65.8476 26.7023 66.3209C27.3866 67.1456 28.4238 67.5113 28.6471 68.6946C28.6471 68.752 28.7191 68.7377 28.7264 68.6875Z" fill="#0C0A35"/>
<path d="M27.4009 78.8994C25.8954 77.7592 26.6518 76.8556 26.6518 75.5432C26.6518 75.2636 26.4357 74.7831 26.1764 74.6468C24.0154 73.4851 25.7514 71.5918 25.3624 69.8635C25.2472 69.3615 24.6133 68.7448 24.3324 68.3504C23.4175 67.0595 23.7489 65.991 24.0658 64.6212C24.3107 63.5742 23.7561 62.563 22.8989 61.9965C22.7981 61.932 22.6396 62.0395 22.6828 62.1614C23.0358 63.1368 23.6192 63.7463 23.3599 64.8866C23.2231 65.489 22.8773 66.0842 23.007 66.7296C23.187 67.5973 23.5544 68.293 24.0802 69.0101C24.6781 69.8205 25.0671 69.8922 24.8366 71.2261C24.7573 71.6922 24.5269 72.1297 24.4836 72.603C24.3396 74.3743 26.4141 75.0914 26.0395 76.748C25.809 77.7735 26.2556 78.8851 27.3577 79.0213C27.4441 79.0285 27.4441 78.9353 27.4009 78.8994Z" fill="#0C0A35"/>
<path d="M25.5929 79.0214C24.9662 78.8995 25.7658 76.4541 25.1319 75.8301C24.2891 74.9983 23.2447 74.3241 23.6697 72.8612C23.8498 72.2444 24.1379 71.5703 23.9722 70.9106C23.468 68.9313 21.5807 68.3074 22.2002 65.8834C22.4956 64.7217 22.9854 63.4308 21.8761 62.5774C21.7824 62.5057 21.6816 62.642 21.7248 62.728C22.6972 64.5209 21.0549 66.3496 21.7536 68.2572C21.9337 68.752 22.3515 69.1895 22.69 69.5839C23.7057 70.7672 23.4896 71.7998 23.1006 73.1982C22.7693 74.3887 23.432 75.0556 24.3324 75.6724C25.8306 76.6979 24.2027 78.4477 25.3192 79.2581C25.3624 79.2867 25.4273 79.2796 25.4705 79.2581C25.5209 79.2294 25.5641 79.2079 25.6145 79.1792C25.6793 79.1433 25.6649 79.0357 25.5929 79.0214Z" fill="#0C0A35"/>
<path d="M23.9578 79.3297C24.8005 78.6628 24.0874 77.4652 23.6192 76.7695C23.1366 76.0524 22.4379 75.7153 22.1426 74.8189C21.7752 73.693 22.5675 72.7607 22.4379 71.6635C22.193 69.5766 19.5134 69.1177 20.3418 66.6005C20.9324 64.8005 21.8904 63.6172 20.8532 61.7383C20.81 61.6594 20.6731 61.6881 20.6803 61.7885C20.7596 63.0076 20.9757 63.9901 20.3202 65.1591C19.924 65.8547 19.6214 66.5144 19.4774 67.3033C19.2757 68.4149 20.1041 69.3902 20.7668 70.1647C21.5663 71.097 21.9481 71.9504 21.5159 73.148C21.307 73.7289 21.4294 74.403 21.5447 74.991C21.84 76.5257 24.6204 77.3576 23.7921 79.215C23.7417 79.3154 23.8641 79.4086 23.9578 79.3297Z" fill="#0C0A35"/>
<path d="M20.0321 74.6756C21.4944 72.8469 20.2914 70.8246 18.894 69.4835C17.0212 67.6835 18.7283 66.0197 19.4559 64.2412C19.8016 63.395 19.7944 62.2046 18.9588 61.6954C18.858 61.638 18.6995 61.7384 18.7499 61.8532C19.7872 64.4134 16.9276 65.9409 17.5686 68.5369C17.7559 69.3042 18.505 69.8923 19.0525 70.3943C20.3203 71.5704 20.241 73.0118 19.8304 74.5608C19.8016 74.6684 19.9529 74.776 20.0321 74.6756Z" fill="#0C0A35"/>
<path d="M18.4906 71.4915C18.4042 70.7958 18.08 70.3512 17.5902 69.8492C16.4737 68.7162 15.9118 67.6548 16.7906 66.1703C17.3885 65.152 18.4257 64.0117 17.5758 62.8428C17.5109 62.7496 17.3525 62.7783 17.3525 62.9002C17.3525 63.9687 17.0356 64.6858 16.4449 65.5679C16.128 66.0412 15.739 66.6365 15.7246 67.2317C15.6669 69.3688 17.3669 69.8779 18.3393 71.5273C18.3753 71.5919 18.4978 71.5704 18.4906 71.4915Z" fill="#0C0A35"/>
<path d="M16.0055 70.7169C15.1987 69.5982 14.4784 68.7448 14.8386 67.2818C15.0763 66.2993 15.7894 65.5392 15.9839 64.5208C16.1568 63.5957 15.8975 62.4411 14.9178 62.1615C14.8026 62.1256 14.7017 62.2834 14.7954 62.3694C16.5385 63.9184 14.6009 65.9049 14.2479 67.5758C13.9526 68.9886 14.8962 69.9854 15.8758 70.8173C15.9407 70.8675 16.0559 70.7958 16.0055 70.7169Z" fill="#0C0A35"/>
<path d="M23.72 77.7162C23.612 77.6947 23.4895 77.6732 23.3887 77.7162C23.3023 77.7592 23.2446 77.8453 23.1942 77.9242C22.654 78.7561 22.3731 79.5162 21.8904 80.3338C21.8112 80.47 21.876 80.6493 22.0273 80.6923C26.7238 82.019 33.3219 81.6748 37.0891 80.8214C37.19 80.7999 37.2908 80.7569 37.3485 80.678C37.4637 80.5202 37.3485 80.3123 37.2404 80.1545C36.8442 79.5879 36.4409 79.0286 36.0447 78.462C35.9438 78.3258 35.8358 78.1752 35.6773 78.1178C35.5116 78.0533 26.0611 78.1824 23.72 77.7162Z" fill="#990028"/>
<path d="M35.2307 79.0214C34.8345 79.0214 34.5104 79.3513 34.5104 79.7385C34.5104 80.133 34.8417 80.4557 35.2307 80.4557C35.6269 80.4557 35.951 80.1258 35.951 79.7385C35.951 79.3513 35.6269 79.0214 35.2307 79.0214Z" fill="#0C0A35"/>
<path d="M32.9113 79.1936C32.5872 78.9713 32.0541 79.0358 31.802 79.3442C31.6219 79.5737 31.5139 79.8175 31.5931 80.1187C31.6724 80.3984 31.8812 80.5848 32.1478 80.6781C32.4719 80.7856 32.8249 80.6781 33.0626 80.4414C33.4587 80.0613 33.3291 79.4876 32.9113 79.1936Z" fill="#0C0A35"/>
<path d="M28.8127 79.3872C28.8055 79.3944 28.7983 79.4087 28.7983 79.4159C28.5462 79.9036 28.755 80.5203 29.3097 80.6709C29.8211 80.8071 30.4406 80.4056 30.3974 79.8462C30.3974 79.8318 30.3974 79.8247 30.3974 79.8103C30.3686 79.4302 30.1597 79.1004 29.7707 78.9928C29.4178 78.8996 28.9855 79.0501 28.8127 79.3872Z" fill="#0C0A35"/>
<path d="M26.6157 78.9497C26.1979 78.9497 25.8522 79.2939 25.8522 79.7099C25.8522 80.1258 26.1979 80.47 26.6157 80.47C27.0335 80.47 27.3792 80.1258 27.3792 79.7099C27.3792 79.2939 27.0335 78.9497 26.6157 78.9497Z" fill="#0C0A35"/>
<path d="M23.8785 78.7704C23.5544 78.7704 23.2806 79.0429 23.2806 79.3656C23.2806 79.6883 23.5544 79.9609 23.8785 79.9609C24.2026 79.9609 24.4764 79.6883 24.4764 79.3656C24.4764 79.0429 24.2098 78.7704 23.8785 78.7704Z" fill="#0C0A35"/>
<path d="M33.0265 83.9625C33.0409 83.7832 33.1562 83.5967 33.0913 83.4175C33.0481 83.3027 32.8969 83.274 32.832 83.3816C32.724 83.5537 32.7744 83.7975 32.8176 83.984C32.8464 84.1131 33.0121 84.0701 33.0265 83.9625Z" fill="#0C0A35"/>
<path d="M30.88 82.8725C30.9593 82.7506 30.9449 82.6502 30.9449 82.5067C30.9449 82.2916 30.5919 82.2988 30.6135 82.5067C30.6279 82.6502 30.6423 82.7577 30.7215 82.8725C30.7576 82.9298 30.844 82.9298 30.88 82.8725Z" fill="#0C0A35"/>
<path d="M31.3338 85.8271C31.4131 85.5904 31.4635 85.3609 31.4275 85.1099C31.4059 84.945 31.1249 84.945 31.1033 85.1099C31.0673 85.3537 31.1249 85.5904 31.197 85.8271C31.2258 85.8916 31.3122 85.8916 31.3338 85.8271Z" fill="#0C0A35"/>
<path d="M29.3457 84.6008C29.3746 84.4143 29.4394 84.1275 29.2665 84.0055C29.2305 83.9769 29.1801 83.9984 29.1512 84.0342C29.0504 84.1777 29.1512 84.443 29.1801 84.6008C29.1945 84.6796 29.3313 84.6796 29.3457 84.6008Z" fill="#0C0A35"/>
<path d="M28.0851 85.7554C28.1788 85.5904 28.186 85.4255 28.15 85.2462C28.1067 85.0239 27.7466 85.0741 27.7538 85.2964C27.7538 85.3681 27.7754 85.4326 27.797 85.5044C27.8258 85.5904 27.8906 85.655 27.9267 85.7338C27.9483 85.8056 28.0419 85.8271 28.0851 85.7554Z" fill="#0C0A35"/>
<path d="M27.6314 82.5498C27.6602 82.4135 27.689 82.2701 27.6818 82.1339C27.6746 81.9331 27.3504 81.9259 27.3648 82.1339C27.372 82.2773 27.4225 82.4135 27.4513 82.5498C27.4657 82.643 27.6098 82.6358 27.6314 82.5498Z" fill="#0C0A35"/>
<path d="M26.4717 84.0342C26.4789 84.0055 26.5005 83.9768 26.5077 83.9409C26.5221 83.8836 26.5293 83.8119 26.5293 83.7545C26.5365 83.6182 26.5365 83.4892 26.4357 83.3888C26.3565 83.3099 26.2052 83.3242 26.1548 83.4246C26.0899 83.5465 26.1188 83.6756 26.1476 83.8047C26.1764 83.9338 26.2484 83.9983 26.3421 84.0844C26.3925 84.1346 26.4645 84.0987 26.4717 84.0342Z" fill="#0C0A35"/>
<path d="M25.3695 82.2629C25.3479 82.0765 25.42 81.8398 25.3047 81.6749C25.1967 81.5243 24.9446 81.6103 24.995 81.804C25.0238 81.8972 25.0742 81.9689 25.1246 82.0478C25.1751 82.1267 25.2039 82.2127 25.2543 82.2916C25.2831 82.3418 25.3768 82.3203 25.3695 82.2629Z" fill="#0C0A35"/>
<path d="M34.2367 82.2844C34.2655 82.0836 34.3951 81.7537 34.2151 81.5888C34.179 81.5601 34.1358 81.5601 34.0998 81.5888C33.9197 81.7537 34.0422 82.0836 34.0782 82.2844C34.0926 82.3633 34.2223 82.3633 34.2367 82.2844Z" fill="#0C0A35"/>
<path d="M35.2092 79.5306C34.9138 79.5306 34.9138 79.9896 35.2092 79.9896C35.5045 79.9896 35.5045 79.5306 35.2092 79.5306Z" fill="#F70032"/>
<path d="M32.4143 79.7457C32.155 79.7457 32.155 80.1473 32.4143 80.1473C32.6736 80.1473 32.6736 79.7457 32.4143 79.7457Z" fill="#F70032"/>
<path d="M29.5041 79.5163C29.144 79.5163 29.144 80.0756 29.5041 80.0756C29.8715 80.0756 29.8715 79.5163 29.5041 79.5163Z" fill="#F70032"/>
<path d="M26.5797 79.4446C26.2412 79.4446 26.2412 79.9681 26.5797 79.9681C26.9183 79.9681 26.9183 79.4446 26.5797 79.4446Z" fill="#F70032"/>
<path d="M23.9001 79.1146C23.5688 79.1146 23.5688 79.631 23.9001 79.631C24.2315 79.6238 24.2315 79.1146 23.9001 79.1146Z" fill="#F70032"/>
<path d="M29.4465 58.5758C29.9724 56.4674 29.958 53.5487 29.0071 51.5479C28.5245 50.5367 27.0695 51.4188 27.5161 52.4156C28.33 54.2371 28.6614 56.532 28.8919 58.4969C28.9207 58.7981 29.3601 58.9057 29.4465 58.5758Z" fill="#F70032"/>
<path d="M24.4548 59.6443C24.5916 58.2674 24.073 56.9766 23.4607 55.7718C22.9925 54.8539 21.9409 52.8674 20.7235 52.9965C20.3346 53.0395 20.0752 53.269 20.0464 53.6706C19.9744 54.6387 21.2278 55.5782 21.7752 56.3097C22.5892 57.3997 23.187 58.626 23.8281 59.8164C24.001 60.132 24.426 59.9527 24.4548 59.6443Z" fill="#F70032"/>
<path d="M32.7745 59.1065C33.1274 58.081 33.3363 57.0627 33.4876 55.987C33.6245 55.0045 33.9054 53.9646 33.7757 52.975C33.6749 52.1933 32.4143 51.8276 32.2486 52.767C31.8885 54.8252 32.1838 56.9479 32.155 59.0205C32.1478 59.3934 32.6592 59.4292 32.7745 59.1065Z" fill="#0C0A35"/>
<path d="M27.4153 59.7376C27.6962 58.1599 27.3432 56.6754 26.9327 55.1551C26.6517 54.1224 26.1619 52.3726 25.0958 51.9351C24.1882 51.5622 23.7416 52.81 24.2387 53.4052C24.7429 54.0076 25.0598 55.0833 25.4056 55.7933C26.0179 57.0555 26.4573 58.3822 26.803 59.7376C26.875 60.0316 27.3576 60.0603 27.4153 59.7376Z" fill="#0C0A35"/>
<path d="M21.9265 59.3217C22.0994 58.038 21.235 57.1488 20.3778 56.3025C19.6287 55.5567 18.9948 54.4523 17.8423 54.3591C16.733 54.2659 16.7114 56.1161 17.8423 56.0874C18.2529 56.0802 18.9011 56.9049 19.2325 57.1559C19.8808 57.6436 21.235 58.4324 21.3358 59.3289C21.379 59.7018 21.8761 59.6946 21.9265 59.3217Z" fill="#0C0A35"/>
<path d="M29.1729 56.324C28.7191 56.324 28.7191 57.0196 29.1729 57.0196C29.6195 57.0196 29.6195 56.324 29.1729 56.324Z" fill="#0C0A35"/>
<path d="M29.0576 54.7463C28.5534 54.7463 28.5534 55.528 29.0576 55.528C29.5618 55.528 29.5618 54.7463 29.0576 54.7463Z" fill="#0C0A35"/>
<path d="M28.5822 53.4196L28.575 53.4267C28.4166 53.5773 28.4166 53.8499 28.575 54.0005L28.5822 54.0076C28.8415 54.2658 29.3025 54.0793 29.3025 53.7064C29.3097 53.3479 28.8487 53.1686 28.5822 53.4196Z" fill="#0C0A35"/>
<path d="M28.6038 52.559C28.611 52.5519 28.6182 52.5447 28.6254 52.5375C28.7335 52.4371 28.7335 52.2363 28.6254 52.1359C28.6182 52.1288 28.611 52.1216 28.6038 52.1144C28.4093 51.9351 28.078 52.057 28.078 52.3296C28.0708 52.6164 28.4093 52.7383 28.6038 52.559Z" fill="#0C0A35"/>
<path d="M23.8425 58.2101C23.4176 58.2101 23.4176 58.8627 23.8425 58.8627C24.2675 58.8627 24.2675 58.2101 23.8425 58.2101Z" fill="#0C0A35"/>
<path d="M23.3887 56.9336C22.8989 56.9336 22.8989 57.6866 23.3887 57.6866C23.8785 57.6866 23.8785 56.9336 23.3887 56.9336Z" fill="#0C0A35"/>
<path d="M22.6396 55.5351C22.3659 55.5351 22.1426 55.7574 22.1426 56.03C22.1426 56.3025 22.3659 56.5248 22.6396 56.5248C22.9061 56.5248 23.1366 56.3025 23.1366 56.03C23.1366 55.7574 22.9061 55.5351 22.6396 55.5351Z" fill="#0C0A35"/>
<path d="M21.7104 54.4236C21.4655 54.4236 21.2566 54.6316 21.2566 54.8754C21.2566 55.1192 21.4655 55.3272 21.7104 55.3272C21.9553 55.3272 22.1642 55.1192 22.1642 54.8754C22.1642 54.6316 21.9553 54.4236 21.7104 54.4236Z" fill="#0C0A35"/>
<path d="M20.9108 53.6993C20.4786 53.6993 20.4786 54.3663 20.9108 54.3663C21.343 54.3663 21.343 53.6993 20.9108 53.6993Z" fill="#0C0A35"/>
<path d="M21.0116 53.5271C20.9035 53.4339 20.7883 53.3407 20.6802 53.2475C20.5866 53.1686 20.5074 53.0538 20.3705 53.0897C20.3129 53.104 20.2841 53.1399 20.2841 53.1973C20.2841 53.3335 20.4137 53.3837 20.5146 53.4554C20.6298 53.5415 20.7523 53.6276 20.8675 53.7136C20.9828 53.7997 21.1196 53.6275 21.0116 53.5271Z" fill="#0C0A35"/>
<path d="M17.1436 52.3511C17.086 52.4945 17.014 52.6307 16.9347 52.767C16.8627 52.8889 16.7979 53.0036 16.8699 53.1399C16.8915 53.1757 16.9347 53.2116 16.9852 53.1901C17.122 53.1184 17.1508 53.018 17.194 52.8746C17.2444 52.7168 17.3021 52.5662 17.3309 52.4012C17.3525 52.2937 17.1868 52.2435 17.1436 52.3511Z" fill="#0C0A35"/>
<path d="M18.2817 49.8267C18.116 49.8841 17.9432 49.9343 17.7775 49.9773C17.6262 50.0203 17.4245 50.0921 17.3093 50.1925C17.1724 50.3 17.2229 50.5224 17.4029 50.551C17.8063 50.6084 18.0872 50.1996 18.397 50.0275C18.505 49.9558 18.397 49.7909 18.2817 49.8267Z" fill="#0C0A35"/>
<path d="M7.49844 47.661C7.41921 47.8474 7.35437 48.0339 7.26794 48.2203C7.20311 48.3709 7.11669 48.5287 7.17431 48.7008C7.19592 48.7654 7.26074 48.7726 7.31836 48.7654C7.49124 48.7224 7.57048 48.5287 7.62091 48.3709C7.68573 48.1773 7.73616 47.9837 7.80099 47.7901C7.85861 47.5893 7.58488 47.4674 7.49844 47.661Z" fill="#0C0A35"/>
<path d="M19.2469 55.0259C20.3778 53.7996 21.7392 52.6379 22.193 51.0315C22.4667 50.0562 22.3083 49.0092 22.0561 48.0267C21.768 46.8864 21.3646 45.7677 20.7092 44.7924C20.0609 43.8171 18.6419 42.4975 17.547 42.0673C15.8902 41.4075 14.1759 40.9916 12.3967 41.1852C10.3294 41.4075 8.52859 43.0856 7.62099 44.943C6.71339 46.8004 6.10831 49.5183 6.771 51.4761C6.84303 51.6984 6.92948 51.9136 7.00872 52.1359C7.85869 54.3877 9.99804 56.324 12.2815 57.0985C13.9094 57.6507 16.2432 58.2889 19.2469 55.0259Z" fill="#F70032"/>
<path d="M22.4739 50.7159C22.4883 49.6402 22.3443 48.6936 21.8041 47.955C20.6587 46.406 18.4546 44.8211 16.8699 43.7167C16.7402 43.6235 16.6034 43.5374 16.4449 43.5087C16.2864 43.4872 16.1063 43.5589 16.0559 43.7095C16.0487 43.731 16.0487 43.7454 16.0415 43.7669C15.9983 44.0968 16.1351 44.4338 16.3296 44.7064C17.619 46.4633 18.1448 46.4992 19.8304 48.8514C20.3058 49.5112 19.2829 49.8984 18.9372 49.5685C17.7847 48.4713 17.1868 47.8402 16.0343 46.743C15.4941 46.2267 14.6873 45.6458 14.003 45.3661C13.7365 45.2585 13.3619 45.739 13.4555 46.0115C13.7653 46.8793 14.4856 47.6896 15.2347 48.292C15.9767 48.8873 17.4173 49.8267 17.8351 50.6012C18.188 51.261 17.5758 51.8132 17.5038 51.763C15.5301 50.4076 14.0246 49.1383 12.4111 48.4426C12.0005 48.2633 11.0857 49.0522 12.6344 50.2713C14.4352 51.6841 15.2708 51.9423 16.625 53.2403C16.9923 53.5917 16.3729 54.3232 15.883 54.1797C15.7318 54.1367 13.6645 52.4514 11.5107 51.6195C11.1794 51.4905 10.4302 51.3757 10.3582 51.6984C10.1925 52.3869 11.237 53.2618 12.0798 53.8068C12.9874 54.3949 14.4136 55.4347 15.386 55.9152C16.1135 56.2738 17.5254 56.5965 19.6359 55.3702C20.5003 54.8682 21.163 54.1726 21.6528 53.3048C22.1426 52.4586 22.4595 51.7056 22.4739 50.7159Z" fill="#B70027"/>
<path d="M8.76622 50.2929C8.55733 50.5582 8.60053 50.9526 8.86705 51.1678C9.13357 51.3757 9.52974 51.3327 9.74584 51.0674C9.95473 50.802 9.91152 50.4076 9.64501 50.1925C9.37129 49.9845 8.97511 50.0275 8.76622 50.2929Z" fill="#0C0A35"/>
<path d="M8.615 49.3533C8.6078 49.3462 8.60057 49.339 8.59337 49.3318C8.44931 49.1812 8.16118 49.2099 8.00991 49.3247C7.81543 49.4681 7.729 49.8051 7.90908 49.9988C7.91629 50.0059 7.92349 50.0131 7.93069 50.0203C8.11077 50.2139 8.37729 50.2928 8.60779 50.1207C8.70864 50.0418 8.78066 49.9271 8.80227 49.798C8.82388 49.6115 8.73746 49.4753 8.615 49.3533Z" fill="#0C0A35"/>
<path d="M7.27518 48.5287C7.05188 48.8084 7.49128 49.1526 7.71458 48.8729C7.93068 48.5933 7.49847 48.249 7.27518 48.5287Z" fill="#0C0A35"/>
<path d="M10.4445 47.5319C10.2428 47.7901 10.2861 48.163 10.5454 48.3638C10.7975 48.5646 11.1793 48.5216 11.381 48.2634C11.5826 48.0124 11.5394 47.6323 11.2801 47.4315C11.028 47.2379 10.6462 47.2809 10.4445 47.5319Z" fill="#0C0A35"/>
<path d="M9.3281 46.7143C8.94633 47.1948 9.69547 47.7829 10.0772 47.3024C10.459 46.8219 9.70987 46.2339 9.3281 46.7143Z" fill="#0C0A35"/>
<path d="M8.45658 46.3056C8.2837 46.5279 8.62224 46.7932 8.80231 46.5781C8.97519 46.3486 8.62945 46.0832 8.45658 46.3056Z" fill="#0C0A35"/>
<path d="M12.7063 45.5884C12.7135 45.5813 12.7279 45.5741 12.7423 45.5741C12.9296 45.4737 13.0737 45.3374 13.1097 45.1151C13.1385 44.9143 13.052 44.7063 12.8936 44.5773C12.7351 44.4482 12.5118 44.4195 12.3173 44.4912C12.1084 44.5701 12.0076 44.7422 11.95 44.9502C11.95 44.9645 11.9428 44.9717 11.9428 44.986C11.8419 45.3805 12.3461 45.7749 12.7063 45.5884Z" fill="#0C0A35"/>
<path d="M11.0208 44.233C10.8911 44.398 10.92 44.649 11.0856 44.778C11.2513 44.9071 11.5034 44.8784 11.6331 44.7135C11.7627 44.5486 11.7339 44.2976 11.5682 44.1685C11.4026 44.0394 11.1505 44.0681 11.0208 44.233Z" fill="#0C0A35"/>
<path d="M14.4424 42.5621C14.2695 42.7772 14.3127 43.1 14.5288 43.2721C14.7449 43.4442 15.069 43.4012 15.2419 43.186C15.4148 42.9709 15.3716 42.6482 15.1555 42.4761C14.9322 42.3111 14.608 42.347 14.4424 42.5621Z" fill="#0C0A35"/>
<path d="M13.3043 42.2753C13.0377 42.6123 13.5564 43.0139 13.8229 42.684C14.0894 42.347 13.5708 41.9382 13.3043 42.2753Z" fill="#0C0A35"/>
<path d="M12.1518 42.182C11.9357 42.4545 12.3607 42.7844 12.5768 42.5119C12.7857 42.2394 12.3606 41.9095 12.1518 42.182Z" fill="#0C0A35"/>
<path d="M18.9732 51.6339C18.6058 51.8132 18.3609 51.9423 18.1808 52.3367C18.0008 52.7383 18.0872 53.2116 18.2457 53.6061C18.6346 54.5527 19.6215 54.983 20.5867 54.7176C21.5231 54.4666 22.1282 53.3048 22.1426 52.4013C22.157 51.2467 21.3862 50.4506 20.2121 50.5152C18.5194 50.6012 17.2156 53.6921 18.9876 54.5598C20.0969 55.1049 21.1197 54.23 21.3934 53.1758C21.5231 52.6666 21.4583 52.1574 21.1845 51.7128C20.9036 51.261 20.2193 50.924 19.7439 51.3327C19.3045 51.7128 19.1605 52.308 19.1172 52.8746C19.0452 53.8857 20.6227 54.1152 20.6947 53.0969C20.6947 53.0539 20.7019 53.0108 20.7091 52.9678C20.6515 53.0969 20.6011 53.2188 20.5435 53.3479C20.6803 53.1471 20.7091 53.0037 20.7091 52.767C20.7091 51.8419 19.2685 51.8921 19.1316 52.7527C19.1244 52.7957 19.1172 52.8387 19.1172 52.8817C19.6431 52.9535 20.1689 53.0252 20.6947 53.1041C20.7091 52.9248 20.7379 52.7527 20.774 52.5805C20.7451 52.7096 20.8172 52.4802 20.8172 52.4802C20.6587 52.8674 19.7151 52.2148 19.8952 52.6666C19.9096 52.7024 19.8015 52.975 19.7583 53.0682C19.7511 53.0826 19.6431 53.1758 19.7079 53.1399C19.7655 53.1112 19.5782 53.0897 19.6863 53.1327C19.7367 53.1471 19.7727 53.2762 19.7583 53.1543C19.7511 53.0825 19.7871 52.9104 19.8232 52.81C19.8952 52.5949 19.9528 52.5017 20.0609 52.3582C20.1617 52.222 20.1257 52.2578 20.2049 52.1933C20.2481 52.1574 20.2914 52.1288 20.3346 52.1001C20.2625 52.1359 20.2697 52.1359 20.3562 52.1001C20.2193 52.1574 20.3706 52.0929 20.4426 52.0929C20.6083 52.1001 20.4642 52.0499 20.5651 52.1287C20.457 52.0427 20.5867 52.2363 20.5867 52.2937C20.5867 52.6523 20.4282 53.0969 20.1257 53.2403C20.0176 53.2905 19.924 53.2618 19.8664 53.2403C19.7799 53.2116 19.5638 53.0467 19.4846 52.9606C19.2757 52.7311 19.1965 52.3224 19.3694 52.1503C19.5638 51.8993 19.2541 51.4905 18.9732 51.6339Z" fill="#0C0A35"/>
<path d="M19.8448 52.4084C19.4991 52.8459 20.1833 53.3909 20.5291 52.9463C20.882 52.5088 20.1978 51.9709 19.8448 52.4084Z" fill="#990028"/>
<path d="M18.7283 52.6737C18.4906 52.9677 18.9516 53.3335 19.1893 53.0323C19.4198 52.7382 18.966 52.3797 18.7283 52.6737Z" fill="#990028"/>
<path d="M19.3478 53.5989C19.1389 53.8642 19.5567 54.1941 19.7656 53.9287C19.9745 53.6562 19.5567 53.3263 19.3478 53.5989Z" fill="#990028"/>
<path d="M21.0187 53.9574C21.0259 53.9503 21.0332 53.9431 21.0404 53.9359C21.1772 53.8068 21.1556 53.6347 20.9899 53.5415C20.9827 53.5343 20.9755 53.5343 20.9683 53.5272C20.8027 53.4268 20.601 53.6204 20.6226 53.7853C20.6442 53.9503 20.8747 54.0865 21.0187 53.9574Z" fill="#990028"/>
<path d="M21.2926 52.4012C21.0909 52.6522 21.4871 52.9606 21.6888 52.7096C21.8833 52.4586 21.4943 52.1502 21.2926 52.4012Z" fill="#990028"/>
<path d="M20.8387 51.3399C20.6514 51.5765 21.0188 51.8706 21.2133 51.6339C21.4005 51.3901 21.026 51.1032 20.8387 51.3399Z" fill="#990028"/>
<path d="M19.5494 51.304C19.3549 51.5478 19.7367 51.8491 19.9312 51.6052C20.1257 51.3614 19.7439 51.0602 19.5494 51.304Z" fill="#990028"/>
<path d="M24.8654 42.6123C25.4272 44.3908 27.9483 45.359 29.3673 46.3845C30.4262 47.1518 31.7948 47.3024 32.7672 46.2625C33.8693 45.0793 33.4587 43.2864 32.1189 42.5119C30.4838 41.5653 28.7911 40.6617 27.0623 39.8872C24.1306 38.5677 21.9697 42.684 24.7573 44.2976C26.3924 45.2514 28.1788 45.9757 29.9004 46.7574C30.4406 45.2657 30.9736 43.7812 31.5139 42.2968C30.5342 41.9812 29.5402 41.7159 28.5318 41.5008C27.5738 41.3 26.5437 40.9342 25.5785 41.2569C25.0094 41.4506 24.6853 42.0458 24.8654 42.6123Z" fill="#222272"/>
<path d="M28.2437 44.3406C28.2581 44.3477 28.2725 44.3477 28.2869 44.3549C28.7263 44.4768 29.2233 44.2115 29.425 43.8171C29.6267 43.4298 29.5618 42.8704 29.2089 42.5836C29.1945 42.5764 29.1873 42.5621 29.1729 42.5549C28.9496 42.3756 28.6974 42.2609 28.4093 42.2752C28.042 42.2896 27.7034 42.5119 27.5305 42.8346C27.4009 43.0784 27.3793 43.3653 27.4585 43.6306C27.5809 44.0035 27.8763 44.2402 28.2437 44.3406Z" fill="#B70027"/>
<path d="M26.695 42.4043C27.0984 41.6369 25.9027 41.013 25.4993 41.7804C25.1031 42.5549 26.2988 43.1716 26.695 42.4043Z" fill="#B70027"/>
<path d="M31.5571 44.6275C31.9173 43.9462 30.8512 43.394 30.4911 44.0753C30.1381 44.7565 31.2042 45.3087 31.5571 44.6275Z" fill="#B70027"/>
<path d="M8.05304 17.8783C8.29075 17.6632 8.55728 17.4982 8.80939 17.3117C9.09031 17.1038 9.39284 16.9173 9.61614 16.652C9.80342 16.4297 9.88987 16.2145 9.98351 15.942C10.0772 15.6695 10.0843 15.0886 9.93308 14.8448C9.49369 14.142 8.26915 13.5324 7.45519 15.0743C7.44078 15.0958 7.41918 15.1101 7.39757 15.1101C7.37596 15.1101 7.35434 15.0958 7.33993 15.0743C6.53318 13.5324 5.30143 14.142 4.86204 14.8448C4.71077 15.0886 4.71797 15.6695 4.81161 15.942C4.90525 16.2145 4.9917 16.4297 5.17898 16.652C5.40228 16.9173 5.70481 17.1038 5.98573 17.3117C6.24505 17.4982 6.50437 17.6632 6.74208 17.8783C6.86453 17.9859 7.39036 18.5524 7.39036 18.5524C7.39036 18.5524 7.93779 17.9859 8.05304 17.8783Z" fill="#D6002B"/>
<path d="M49.9972 70.2221C49.7595 70.4373 49.493 70.6022 49.2409 70.7887C48.9599 70.9967 48.6574 71.1831 48.4341 71.4484C48.2468 71.6636 48.1604 71.8859 48.0667 72.1512C47.9731 72.4238 47.9659 73.0046 48.1172 73.2485C48.5566 73.9513 49.7811 74.5608 50.5951 73.019C50.6095 72.9975 50.6311 72.9831 50.6527 72.9831C50.6743 72.9831 50.6959 72.9975 50.7103 73.019C51.517 74.5608 52.7488 73.9513 53.1882 73.2485C53.3395 73.0046 53.3323 72.4238 53.2386 72.1512C53.145 71.8787 53.0585 71.6636 52.8712 71.4484C52.6479 71.1831 52.3454 70.9967 52.0645 70.7887C51.8052 70.5951 51.5459 70.4301 51.3082 70.2221C51.1857 70.1146 50.6599 69.548 50.6599 69.548C50.6599 69.548 50.1196 70.1146 49.9972 70.2221Z" fill="#D6002B"/>
<path d="M9.08328 4.11637V9.77458C9.08328 10.7642 8.85997 11.4527 8.41337 11.8399C7.96677 12.2272 7.36893 12.428 6.63421 12.428C6.23803 12.428 5.84185 12.3706 5.43848 12.263V11.424C5.82745 11.5101 6.18759 11.5459 6.50453 11.5459C6.95833 11.5459 7.29688 11.4814 7.51297 11.3451C7.72907 11.2089 7.87314 11.0368 7.94517 10.8216C8.0172 10.6065 8.05321 10.2551 8.05321 9.77458V4.10919H9.08328V4.11637Z" fill="#D6002B"/>
<path d="M48.9095 83.8836V78.2254C48.9095 77.2358 49.1329 76.5473 49.5795 76.1601C50.0261 75.7728 50.6239 75.572 51.3586 75.572C51.7548 75.572 52.151 75.6294 52.5544 75.737V76.576C52.1654 76.49 51.8052 76.4541 51.4883 76.4541C51.0345 76.4541 50.696 76.5186 50.4799 76.6549C50.2638 76.7911 50.1197 76.9633 50.0477 77.1784C49.9756 77.3936 49.9324 77.7449 49.9324 78.2254V83.8836H48.9095Z" fill="#D6002B"/>
<path d="M23.8353 83.6326H8.68701C6.33157 83.6326 4.41553 81.6031 4.41553 79.1146V22.0591H4.68204V79.1146C4.68204 81.4597 6.48283 83.3673 8.68701 83.3673H23.8353V83.6326Z" fill="#D6002B"/>
<path d="M46.5253 83.3673H36.0015V83.6327H46.5253V83.3673Z" fill="#D6002B"/>
<path d="M53.5845 66.2205H53.318V8.8853C53.318 6.54026 51.5172 4.63268 49.313 4.63268H33.6893V4.36734H49.313C51.6685 4.36734 53.5845 6.39683 53.5845 8.8853V66.2205Z" fill="#D6002B"/>
<path d="M21.6311 4.36734H11.8925V4.63268H21.6311V4.36734Z" fill="#D6002B"/>
</svg>
