<svg width="58" height="88" viewBox="0 0 58 88" fill="none" xmlns="http://www.w3.org/2000/svg">
<path d="M53.0802 88H4.91257C2.19697 88 0 85.8127 0 83.1091V4.89086C0 2.19443 2.19697 0 4.91257 0H53.0874C55.7958 0 58 2.18725 58 4.89086V83.1091C57.9928 85.8127 55.7958 88 53.0802 88Z" fill="white"/>
<path d="M39.8336 30.6864C41.8865 30.9302 43.997 31.2672 45.6969 32.2139C47.1592 33.0314 48.2253 34.2362 49.0536 35.4984C51.4451 39.1414 50.4871 48.6865 50.0044 48.6937C39.1276 48.9017 28.2508 49.1096 17.374 49.3176C15.7317 49.3463 14.075 49.3821 12.4687 49.1096C12.267 49.0738 12.0581 49.0308 11.9212 48.916C11.7916 48.8013 11.7484 48.6363 11.7195 48.4857C11.4242 47.0801 11.1289 45.6817 10.8336 44.2761C10.4734 42.5693 10.1132 40.8195 10.5022 39.1199C10.9848 37.0043 12.6127 35.1254 14.6873 33.7557C16.7618 32.3788 19.2541 31.468 21.8112 30.7724C23.2374 30.3852 24.7069 30.0553 26.2051 29.919C28.2148 29.7326 30.2461 29.876 32.2558 30.0266C34.7913 30.2059 37.3196 30.3923 39.8336 30.6864Z" fill="#141247"/>
<path d="M18.6058 57.9878C16.5529 57.744 14.4423 57.4069 12.7424 56.4531C11.2801 55.6356 10.2141 54.4308 9.38571 53.1687C6.99425 49.5256 7.95227 39.9805 8.43489 39.9733C19.3117 39.7654 30.1885 39.5574 41.0653 39.3494C42.7076 39.3207 44.3643 39.2849 45.9707 39.5574C46.1723 39.5932 46.3812 39.6363 46.5181 39.751C46.6478 39.8658 46.691 40.0307 46.7198 40.1813C47.0151 41.5869 47.3104 42.9853 47.6058 44.3909C47.9659 46.0977 48.3261 47.8403 47.9371 49.5471C47.4545 51.6627 45.8266 53.5344 43.7521 54.9113C41.6776 56.2882 39.1853 57.199 36.6281 57.8946C35.2019 58.2818 33.7325 58.6117 32.2342 58.748C30.2245 58.9344 28.1932 58.791 26.1835 58.6404C23.648 58.4683 21.1197 58.2819 18.6058 57.9878Z" fill="#141247"/>
<path d="M13.4123 36.7461C12.4111 36.8537 11.3882 37.0401 10.5094 37.5278C9.34972 38.1732 7.93789 39.4784 7.2824 40.6258C5.97863 42.892 5.72652 45.4593 6.5981 47.9263C7.19597 49.6116 8.55016 50.9598 10.1277 51.8132C11.7052 52.6666 13.4987 53.0538 15.2779 53.2331C15.7389 49.3749 15.7461 45.4737 15.7605 41.5868C15.7605 40.339 15.7605 39.0625 15.2995 37.9007C15.1195 37.4417 14.8313 36.9756 14.3631 36.8035C14.0678 36.6887 13.7292 36.7103 13.4123 36.7461Z" fill="#0C0A35"/>
<path d="M45.0271 51.928C46.0283 51.8204 47.0512 51.634 47.93 51.1463C49.0897 50.5009 50.5015 49.1957 51.157 48.0483C52.4607 45.7821 52.7129 43.2148 51.8413 40.7478C51.2434 39.0625 49.8892 37.7143 48.3117 36.8609C46.7342 36.0075 44.9406 35.6203 43.1614 35.441C42.7004 39.2992 42.6932 43.2004 42.6788 47.0873C42.6788 48.3351 42.6788 49.6116 43.1398 50.7734C43.3199 51.2324 43.608 51.6985 44.0762 51.8706C44.3716 51.9854 44.7029 51.9638 45.0271 51.928Z" fill="#0C0A35"/>
<path d="M47.721 47.3096C48.8014 45.696 48.5421 41.4578 46.8134 40.3103C46.6837 40.2243 46.5108 40.339 46.5108 40.4825C46.5036 41.5653 46.9214 42.6769 47.0439 43.7526C47.1807 44.9 46.9574 46.112 47.2023 47.2379C47.26 47.4961 47.5985 47.4961 47.721 47.3096Z" fill="#990028"/>
<path d="M49.4427 47.0514C50.8617 46.8219 50.8906 44.6347 50.7681 43.5876C50.624 42.4044 50.1198 40.5828 48.8737 40.0952C48.7224 40.0378 48.5783 40.2099 48.6216 40.3462C48.9169 41.3932 49.4283 42.347 49.6732 43.4227C49.9757 44.7494 49.6588 45.6243 49.2194 46.8363C49.169 46.9725 49.3203 47.0729 49.4427 47.0514Z" fill="#990028"/>
<path d="M11.5539 40.4753C12.195 40.3032 12.7785 40.0092 13.4123 39.8227C14.0462 39.6362 14.8025 39.5789 15.3644 39.8801C15.919 40.1741 16.1495 40.7119 16.4737 41.1781C17.1508 42.1462 18.4546 42.8634 19.8448 42.849C21.4007 42.8275 22.9133 41.9454 24.4044 42.304C25.5857 42.5908 26.3132 43.5733 27.4585 43.9462C29.3386 44.5558 31.3482 43.3151 33.3723 43.2793C34.5321 43.2578 35.6269 43.6379 36.7434 43.896C37.8743 44.1542 39.0484 44.2905 40.2226 44.2905C41.1086 44.2905 42.0378 44.2116 42.7581 43.81C43.3992 43.4586 43.8314 42.8777 44.5373 42.6195C45.272 42.347 46.1436 42.4833 46.9143 42.6841C47.6851 42.8777 48.4702 43.1359 49.277 43.1C50.0909 43.057 51.9926 42.3255 52.007 41.6729C52.0502 39.8729 51.4883 37.9581 50.3646 36.4737C48.5494 34.0784 46.266 32.5079 45.4161 32.1063C42.5636 30.7437 39.6895 30.2991 36.3761 30.1055C34.8706 30.0122 33.3507 30.0983 31.8381 30.1055C29.1009 30.1198 26.3132 29.7541 23.6336 30.2345C16.4233 31.5254 14.3271 30.9589 11.1938 34.645C9.42897 36.7247 9.29211 39.1701 9.67388 39.794C10.2789 40.755 11.1577 40.5828 11.5539 40.4753Z" fill="#191956"/>
<path d="M32.1262 1.62076C32.155 1.50602 32.2199 1.37694 32.3351 1.37694C32.4287 1.37694 32.4936 1.46299 32.5368 1.54904C32.9114 2.19447 33.2139 2.88293 33.4372 3.60007C32.9402 3.60007 32.4432 3.57137 31.9461 3.52117C31.8669 3.514 31.7733 3.4925 31.7372 3.42079C31.7156 3.37776 31.73 3.32756 31.7372 3.28453C31.8597 2.71799 31.9749 2.16579 32.1262 1.62076Z" fill="#0C0A35"/>
<path d="M36.3257 27.4664C36.2969 26.9716 36.1528 26.4911 36.0303 26.0106C35.4973 23.9166 35.3677 21.7293 35.6342 19.5922C33.041 19.8791 30.5847 21.1986 28.9208 23.1923C28.4814 23.7158 28.0204 24.3325 27.3433 24.4258C27.4946 25.7453 27.3793 27.0935 27.012 28.37C30.0229 28.4776 33.0482 28.2911 36.0231 27.8178C36.124 27.8035 36.232 27.782 36.2897 27.6959C36.3329 27.6385 36.3329 27.5525 36.3257 27.4664Z" fill="#FCC07E"/>
<path d="M36.4553 26.6058C36.3833 26.405 36.1456 26.3262 35.9439 26.3692C34.9354 26.6058 34.2295 26.699 31.305 26.8712C28.3373 27.0433 27.3433 26.7851 27.1272 27.1222C24.6205 30.8871 22.9422 31.9198 21.1774 33.1318C21.0333 33.225 21.0693 33.4473 21.235 33.4904C22.0778 33.7342 23.3455 33.6983 23.9074 33.6123C26.5005 33.2394 27.1704 32.3214 28.6255 30.8011C29.0937 33.2824 30.2246 34.6163 31.3915 35.1541C32.1838 34.3222 33.1923 32.7804 33.4372 30.9589C33.574 31.2816 34.0351 31.884 34.2728 32.1421C35.6125 33.5764 37.8888 34.3079 40.1938 34.4083C40.2514 34.4083 40.3018 34.3724 40.309 34.3151C40.4027 33.8346 39.1637 32.6441 38.4074 31.2887C37.2261 29.1517 37.3053 28.9939 36.4553 26.6058Z" fill="#0C0A35"/>
<path d="M24.2531 19.7357C24.1594 20.5747 24.0298 21.4138 24.0514 22.2528C24.073 23.0991 24.2531 23.9596 24.7285 24.6552C25.3047 25.4943 26.306 26.025 27.3216 26.0393C28.3373 26.0465 29.461 25.7166 30.3542 25.229C31.3626 24.6839 32.4359 23.9955 33.2282 23.1779C34.1863 22.1955 34.5608 20.8903 35.0722 19.6138C36.2176 16.7524 36.9307 13.5826 36.1743 10.5994C36.1455 10.4918 36.1167 10.3699 36.0375 10.291C35.9438 10.1906 35.7998 10.1547 35.6701 10.126C32.4863 9.4089 29.1152 10.1619 25.9314 9.46626C25.3335 11.1587 25.9098 13.138 25.103 14.7372C24.6564 15.6121 23.8569 16.2504 23.1366 16.9245C22.7764 17.2615 22.4091 17.7707 22.654 18.201C22.9565 18.7317 23.9145 18.5596 24.2026 19.1046C24.2963 19.2911 24.2747 19.5205 24.2531 19.7357Z" fill="#FFD6A1"/>
<path d="M31.8884 24.9134C30.8224 24.7054 29.108 23.9954 28.1068 22.4823C27.5089 21.5787 27.2208 20.4599 26.9326 19.4201C26.8534 19.1404 26.8102 18.8822 26.7165 18.6384C26.6517 18.4735 26.3852 18.4663 26.2051 18.4878C25.031 18.6456 24.9013 18.6886 23.9073 18.832C23.8569 20.4671 23.3166 22.1811 22.0129 23.1779C21.1125 23.8663 20.1905 24.562 19.1172 24.9277C20.3922 24.5906 21.876 24.3325 22.9565 23.5795C24.037 22.8337 24.6997 21.6934 25.139 20.4528C25.6361 21.5643 26.3492 22.5755 27.228 23.4289C27.4225 23.6225 27.6313 23.809 27.8763 23.9452C28.1212 24.0887 28.5678 24.3325 28.8343 24.4329C30.1308 24.9564 31.2257 24.8775 31.8884 24.9134Z" fill="#0C0A35"/>
<path d="M24.8437 24.8129C25.5641 25.7452 26.6517 25.7882 27.4657 25.7524C27.0839 26.5412 26.6734 27.3516 26.0251 27.9468C25.4704 28.456 24.7429 28.7931 23.9938 28.8791C24.3467 27.5452 24.8149 26.1898 24.8437 24.8129Z" fill="#0C0A35"/>
<path d="M39.423 25.5731C40.3378 25.8456 41.2671 26.0967 42.2179 26.0321C41.5264 24.1676 41.2743 23.264 40.9573 21.299C40.8781 20.8113 40.5467 18.1651 40.5179 17.6775C40.3595 15.0241 40.3739 13.5037 40.5683 10.8503C40.5756 10.7786 40.5756 10.6997 40.5395 10.6423C40.4891 10.5563 40.3739 10.5348 40.273 10.5276C38.2849 10.3483 36.2969 11.0439 34.316 10.8431C33.9342 13.5683 33.5452 16.3364 33.9126 19.0615C34.0351 19.9938 34.2151 20.9548 34.7266 21.7436C36.6642 24.7269 38.1193 25.1787 39.423 25.5731Z" fill="#141247"/>
<path d="M33.4011 12.7149C33.4083 12.7794 33.4947 13.4177 33.3579 13.389C32.8537 13.2886 32.3927 13.2957 32.1261 13.2886C29.7419 13.1667 29.0648 13.1452 27.3 13.4463C27.2496 13.1523 27.2352 12.8511 27.2568 12.5571C29.2449 12.6718 31.2402 12.679 33.2282 12.5858C33.2787 12.5858 33.3435 12.5858 33.3795 12.6216C33.3867 12.6431 33.3939 12.679 33.4011 12.7149Z" fill="#0C0A35"/>
<path d="M32.9906 19.3054C33.1491 19.0616 33.1707 18.7317 33.0554 18.4664C32.9978 18.3301 32.9042 18.2082 32.7817 18.1149C32.4431 17.8496 31.9101 17.8783 31.6004 18.1723C31.233 18.5237 31.2546 19.1978 31.6508 19.5205C32.0542 19.8432 32.7241 19.7357 32.9906 19.3054Z" fill="#D6002B"/>
<path d="M25.4919 7.13551C25.4919 6.88451 25.5856 6.64786 25.6864 6.41837C26.3419 4.96975 27.6529 3.87254 29.1368 3.29166C30.6206 2.71795 32.2773 2.63907 33.8476 2.89007C34.5319 3.00481 35.2162 3.17692 35.8141 3.51397C36.3111 3.79366 36.7361 4.17373 37.1539 4.56099C38.0183 5.36418 38.8971 6.31081 39.0195 7.47975C34.6112 7.9172 30.1164 8.35464 25.7801 7.46539C25.7008 7.45105 25.6144 7.42955 25.5568 7.37218C25.5063 7.31481 25.4919 7.22157 25.4919 7.13551Z" fill="#222272"/>
<path d="M24.7501 18.2297C24.6636 19.3843 24.5123 20.3955 24.1954 21.5142C23.8064 22.8624 22.906 23.6799 22.1209 24.77C22.0561 24.856 22.1857 24.9421 22.2578 24.8775C24.073 23.2712 25.2687 20.6321 24.9229 18.2082C24.9085 18.1006 24.7573 18.1365 24.7501 18.2297Z" fill="#B70027"/>
<path d="M25.7657 17.5843C25.0454 19.8935 25.8306 23.1708 28.0563 24.3971C28.1212 24.433 28.8847 24.6266 28.8199 24.5764C27.8835 23.9381 26.6013 22.5469 26.2483 21.3923C25.8738 20.1875 25.845 18.8536 25.9818 17.613C25.989 17.4911 25.8017 17.4767 25.7657 17.5843Z" fill="#B70027"/>
<path d="M18.8218 24.9278C21.9984 24.8489 24.9301 21.0768 24.0081 18.0289C23.9793 17.9357 23.8208 17.9214 23.7992 18.0289C23.6695 18.6242 23.7704 19.1907 23.6479 19.8075C23.4967 20.5891 23.2085 21.378 22.8556 22.0951C22.0992 23.6298 20.176 24.1174 18.8002 24.8418C18.7498 24.8633 18.7714 24.935 18.8218 24.9278Z" fill="#B70027"/>
<path d="M26.4428 17.6201C26.1475 19.4058 26.7093 21.5572 27.869 22.9628C29.0071 24.3397 30.6927 26.0393 32.7168 25.5589C32.8536 25.5302 32.8825 25.3294 32.7528 25.2648C32.1261 24.9349 31.4418 24.8274 30.8007 24.5262C29.9724 24.1389 29.2448 23.2282 28.647 22.5612C27.3936 21.1628 26.9686 19.3986 26.5797 17.6273C26.5653 17.5556 26.45 17.5556 26.4428 17.6201Z" fill="#B70027"/>
<path d="M23.6336 29.4098C24.9446 28.0473 25.1606 26.2544 25.5856 24.4974C25.6 24.4257 25.492 24.4042 25.4704 24.4688C25.139 25.3078 25.0526 26.2114 24.7861 27.072C24.534 27.8608 24.073 28.7142 23.6336 29.4098C23.6264 29.4098 23.6264 29.417 23.6336 29.4098Z" fill="#B70027"/>
<path d="M24.3683 29.331C24.9518 28.951 25.2039 28.2051 25.4776 27.5956C25.8954 26.6561 26.0323 25.6593 26.1835 24.6553C26.198 24.5549 26.0539 24.519 26.0179 24.6123C25.6577 25.4513 25.6937 26.3836 25.3408 27.237C25.0454 27.947 24.6205 28.5924 24.3107 29.2952C24.2963 29.3167 24.3395 29.3454 24.3683 29.331Z" fill="#B70027"/>
<path d="M25.6864 28.9366C26.378 27.7103 27.0334 26.2043 26.9614 24.7629C26.9542 24.6553 26.7885 24.6338 26.7525 24.7342C26.5148 25.4154 26.4428 26.1613 26.2483 26.8569C26.0538 27.5597 25.6936 28.1836 25.564 28.9007C25.5568 28.9724 25.6504 28.9868 25.6864 28.9366Z" fill="#B70027"/>
<path d="M35.4684 24.3253C35.0074 22.1237 35.1515 19.879 35.0794 17.6487C35.0002 15.1172 35.6053 12.7578 35.843 10.2694C35.8502 10.1546 35.6773 10.1116 35.6341 10.212C34.6256 12.4065 34.64 15.2893 34.7049 17.6487C34.7625 19.8432 34.4888 22.3029 35.4396 24.3396C35.4468 24.3611 35.4756 24.3396 35.4684 24.3253Z" fill="#B70027"/>
<path d="M36.6568 25.0137C36.0877 22.3244 36.1598 19.5778 36.3687 16.8527C36.5343 14.6367 36.6208 12.5355 37.3771 10.4343C37.4203 10.3267 37.2547 10.2335 37.1826 10.3196C35.8572 11.7682 36.1598 14.5507 36.0157 16.3579C35.7924 19.1691 35.6844 22.3316 36.6208 25.0281C36.6208 25.0568 36.664 25.0424 36.6568 25.0137Z" fill="#B70027"/>
<path d="M37.7301 25.7811C37.1466 20.8615 37.3051 15.5977 38.4144 10.7785C38.4432 10.6495 38.2631 10.5634 38.1911 10.6853C37.0098 12.7148 37.2763 15.3682 37.1394 17.62C36.981 20.2663 36.7072 23.2496 37.6148 25.7882C37.6437 25.8528 37.7373 25.8456 37.7301 25.7811Z" fill="#B70027"/>
<path d="M39.8191 26.5269C39.567 25.2073 39.1852 23.9237 39.0844 22.5754C38.9835 21.2416 38.9331 19.8862 38.9115 18.5451C38.8755 16.1499 38.7602 13.6614 39.3653 11.3235C39.3941 11.2231 39.25 11.1586 39.1996 11.2518C38.1696 13.2598 38.5225 15.8559 38.5153 18.036C38.5081 20.9906 38.7026 23.7659 39.7111 26.5556C39.7327 26.6273 39.8335 26.5986 39.8191 26.5269Z" fill="#B70027"/>
<path d="M41.3318 26.8783C40.8275 24.5476 40.6258 22.1811 40.2585 19.8289C40.028 18.3372 39.8983 16.824 39.8767 15.3181C39.8623 13.8981 40.2081 12.5069 40.0712 11.0869C40.064 10.9865 39.8983 10.9435 39.8767 11.0582C39.5093 13.6901 39.4085 16.2719 39.7687 18.9109C40.1216 21.5141 40.2225 24.4544 41.2597 26.8927C41.2813 26.95 41.339 26.9213 41.3318 26.8783Z" fill="#B70027"/>
<path d="M42.9597 6.92039C41.764 8.33315 40.9212 10.0399 40.5467 11.8543C38.7098 12.0336 36.8586 12.0192 35.0146 12.0121C34.2583 12.0121 33.4947 11.9547 32.7384 11.9475C30.2389 11.9117 29.2593 11.7467 25.8738 11.7897C25.4992 11.7969 25.1102 11.5531 24.9085 11.2376C23.8209 9.56662 23.1726 8.13235 22.1641 6.97775C22.1137 6.91321 22.0201 6.82716 22.0705 6.76262C22.1209 6.69808 22.2074 6.67657 22.2866 6.65506C24.5268 6.09569 26.8606 6.05265 29.1728 6.04548C33.5884 6.03831 38.0111 6.18173 42.4195 6.46141C42.5707 6.46859 42.7292 6.48294 42.8589 6.56182C42.9813 6.64788 43.0606 6.80565 42.9597 6.92039Z" fill="#0C0A35"/>
<path d="M23.7417 7.3578C24.0442 7.49406 24.3396 7.6375 24.6421 7.77375C24.8222 7.85981 25.0167 7.94586 25.2183 7.95304C25.276 7.95304 25.3408 7.94587 25.384 7.91001C25.4272 7.88132 26.9039 5.96656 26.9255 5.7299C25.5785 5.7801 24.1883 5.86615 22.9566 6.41835C22.9061 6.43986 22.8557 6.46856 22.8269 6.51876C22.8053 6.57613 22.8269 6.64067 22.8557 6.69804C23.0358 7.02076 23.3959 7.20003 23.7417 7.3578Z" fill="#990028"/>
<path d="M30.5198 7.60164C31.2329 6.97056 31.6507 6.43272 32.3422 5.78013C31.0817 5.70841 29.8139 5.62953 28.5534 5.55782C28.2364 5.5363 27.8835 5.52913 27.6385 5.7371C28.5101 6.27495 29.0792 7.22156 29.9796 7.71639C30.0156 7.73073 30.1453 7.9387 30.5198 7.60164Z" fill="#990028"/>
<path d="M33.0121 6.02395C33.2282 6.36818 33.4443 6.71241 33.6604 7.05663C33.7829 7.25743 33.9125 7.45822 34.0638 7.64467C34.2295 7.8383 34.4168 8.01043 34.6329 8.15386C34.7697 8.23991 34.9354 8.18253 35.029 8.05345C35.6413 7.21439 36.0015 6.92755 36.5633 6.36101C36.7506 6.17455 36.8154 6.16737 36.9163 5.92354C36.34 5.88769 35.771 5.85184 35.1947 5.82316C34.4384 5.78013 33.6676 5.72992 32.9329 5.90921C32.9113 5.96658 32.9545 6.02395 33.0121 6.02395Z" fill="#990028"/>
<path d="M38.004 5.68688C37.8095 5.8303 37.9175 6.13866 38.04 6.34663C38.537 7.17134 39.0484 8.0104 39.7255 8.69169C39.848 8.8136 40.0569 8.79208 40.1433 8.64148C40.3882 8.22554 41.8649 6.64783 42.117 6.12432C40.8708 6.08846 39.6247 5.9307 38.4073 5.65818C38.2777 5.6295 38.1192 5.60082 38.004 5.68688Z" fill="#990028"/>
<path d="M27.0551 5.62244C27.3793 5.62244 27.3793 5.12044 27.0551 5.12044C26.731 5.11326 26.731 5.62244 27.0551 5.62244Z" fill="#0C0A35"/>
<path d="M28.0275 4.65425C28.2364 4.65425 28.2364 4.33153 28.0275 4.33153C27.8186 4.33153 27.8186 4.65425 28.0275 4.65425Z" fill="#0C0A35"/>
<path d="M28.8704 5.62956C29.1153 5.62956 29.1153 5.24948 28.8704 5.24948C28.6182 5.24948 28.6182 5.62956 28.8704 5.62956Z" fill="#0C0A35"/>
<path d="M29.7203 4.4319C30.0301 4.4319 30.0301 3.95859 29.7203 3.95859C29.4106 3.95142 29.4106 4.4319 29.7203 4.4319Z" fill="#0C0A35"/>
<path d="M28.8848 3.86537C29.1225 3.86537 29.1225 3.49962 28.8848 3.49962C28.6543 3.49962 28.6543 3.86537 28.8848 3.86537Z" fill="#0C0A35"/>
<path d="M30.7215 3.44951C30.988 3.44951 30.988 3.03355 30.7215 3.03355C30.455 3.03355 30.4478 3.44951 30.7215 3.44951Z" fill="#0C0A35"/>
<path d="M31.1609 4.79055C31.3626 4.79055 31.3626 4.47501 31.1609 4.47501C30.9592 4.47501 30.952 4.79055 31.1609 4.79055Z" fill="#0C0A35"/>
<path d="M30.4406 5.81597C30.7863 5.81597 30.7863 5.28529 30.4406 5.28529C30.0948 5.28529 30.0948 5.81597 30.4406 5.81597Z" fill="#0C0A35"/>
<path d="M32.155 5.86624C32.5008 5.86624 32.5008 5.33554 32.155 5.33554C31.8165 5.33554 31.8165 5.86624 32.155 5.86624Z" fill="#0C0A35"/>
<path d="M32.0181 3.92997C32.2414 3.92997 32.2414 3.57858 32.0181 3.57858C31.7948 3.57858 31.7948 3.92997 32.0181 3.92997Z" fill="#0C0A35"/>
<path d="M33.0626 3.34186C33.3075 3.34186 33.3075 2.96896 33.0626 2.96896C32.8177 2.96179 32.8177 3.34186 33.0626 3.34186Z" fill="#0C0A35"/>
<path d="M33.3651 4.53955C33.3723 4.53955 33.3795 4.54673 33.3867 4.54673C33.6748 4.63278 33.6748 4.11644 33.3867 4.20249C33.3795 4.20249 33.3723 4.20967 33.3651 4.20967C33.1994 4.25987 33.1994 4.48935 33.3651 4.53955Z" fill="#0C0A35"/>
<path d="M34.0565 5.86618C34.3735 5.86618 34.3735 5.38568 34.0565 5.38568C33.7468 5.37851 33.7468 5.86618 34.0565 5.86618Z" fill="#0C0A35"/>
<path d="M34.6184 3.8009C34.8849 3.8009 34.8849 3.38495 34.6184 3.38495C34.3447 3.38495 34.3447 3.8009 34.6184 3.8009Z" fill="#0C0A35"/>
<path d="M35.2451 4.96977C35.5549 4.96977 35.5549 4.48927 35.2451 4.48927C34.9354 4.48927 34.9354 4.96977 35.2451 4.96977Z" fill="#0C0A35"/>
<path d="M36.4264 4.55379C36.6569 4.55379 36.6569 4.19522 36.4264 4.19522C36.1959 4.19522 36.1959 4.55379 36.4264 4.55379Z" fill="#0C0A35"/>
<path d="M36.0735 5.92357C36.3472 5.92357 36.3472 5.50046 36.0735 5.50046C35.7997 5.50046 35.7997 5.92357 36.0735 5.92357Z" fill="#0C0A35"/>
<path d="M37.3052 5.66544C37.6294 5.66544 37.6294 5.16344 37.3052 5.16344C36.9811 5.16344 36.9811 5.66544 37.3052 5.66544Z" fill="#0C0A35"/>
<path d="M27.1992 6.612C27.0407 7.42954 26.9687 8.46941 27.228 9.2726C27.4081 9.83197 28.2581 9.73874 28.2653 9.13634C28.2725 8.23275 28.0276 7.45823 27.7538 6.612C27.6674 6.36101 27.2568 6.31798 27.1992 6.612Z" fill="#F70032"/>
<path d="M22.9061 7.50128C22.8413 7.83834 22.9854 8.16105 23.1798 8.44073C23.4103 8.77779 23.5904 9.21523 23.9074 9.48057C24.2603 9.7746 24.7862 9.40887 24.5557 8.97859C24.39 8.67739 24.1379 8.36185 23.893 8.11085C23.6553 7.86703 23.3599 7.68773 23.1366 7.42956C23.0718 7.36502 22.9205 7.40088 22.9061 7.50128Z" fill="#F70032"/>
<path d="M32.2054 6.87735C32.0397 7.33631 31.8596 7.77376 31.7804 8.26142C31.7372 8.55544 31.7516 8.86381 31.6796 9.15066C31.4923 9.90366 32.7024 10.2049 32.8249 9.4662C32.9689 8.64867 32.8321 7.68054 32.6592 6.87735C32.6088 6.63352 32.2774 6.66938 32.2054 6.87735Z" fill="#F70032"/>
<path d="M37.0964 7.08534C36.8154 7.45108 36.6642 7.93156 36.5921 8.38336C36.5345 8.77061 36.3688 9.29412 36.5849 9.63835C36.7146 9.83915 36.9667 9.96106 37.2044 9.88935C37.226 9.88218 37.2476 9.87501 37.262 9.86784C37.4565 9.80329 37.6654 9.64553 37.7014 9.43039C37.7663 9.03597 37.7302 8.67021 37.7086 8.27579C37.687 7.86702 37.7302 7.43673 37.4709 7.08534C37.3701 6.94191 37.1972 6.94908 37.0964 7.08534Z" fill="#F70032"/>
<path d="M41.937 7.5515C41.5552 7.73079 41.3175 8.11087 41.087 8.44792C40.8349 8.81367 40.5251 9.19373 40.5395 9.65987C40.5468 10.0471 41.1374 10.2694 41.3175 9.86784C41.6344 9.19373 42.1026 8.51964 42.2323 7.77381C42.2683 7.59453 42.1026 7.47262 41.937 7.5515Z" fill="#F70032"/>
<path d="M27.869 10.2479C28.15 10.2479 28.15 9.81047 27.869 9.81047C27.5809 9.81764 27.5809 10.2479 27.869 10.2479Z" fill="#F70032"/>
<path d="M24.6277 10.1619C24.9086 10.1619 24.9086 9.72443 24.6277 9.72443C24.3468 9.72443 24.3468 10.1619 24.6277 10.1619Z" fill="#F70032"/>
<path d="M32.1837 10.4631C32.4431 10.4631 32.4431 10.0686 32.1837 10.0686C31.9244 10.0686 31.9244 10.4631 32.1837 10.4631Z" fill="#F70032"/>
<path d="M37.0172 10.2981C37.01 10.3053 37.0028 10.3125 36.9956 10.3196C36.938 10.3698 36.938 10.4846 36.9956 10.5348C37.0028 10.5419 37.01 10.5491 37.0172 10.5563C37.1325 10.6567 37.327 10.5921 37.327 10.4272C37.327 10.2623 37.1325 10.1977 37.0172 10.2981Z" fill="#F70032"/>
<path d="M40.7628 10.7427C41.0869 10.7427 41.0869 10.2479 40.7628 10.2479C40.4386 10.2479 40.4386 10.7427 40.7628 10.7427Z" fill="#F70032"/>
<path d="M27.6097 8.49814C28.0203 8.49814 28.0203 7.86705 27.6097 7.86705C27.1991 7.86705 27.1991 8.49814 27.6097 8.49814Z" fill="#0C0A35"/>
<path d="M23.8282 8.62C23.8066 8.62 23.7849 8.62 23.7561 8.62C23.7489 8.62 23.7489 8.62717 23.7561 8.62717C23.7777 8.62717 23.7994 8.62717 23.8282 8.62717C23.8354 8.62717 23.8354 8.62 23.8282 8.62Z" fill="#0C0A35"/>
<path d="M23.7345 8.85665C24.0586 8.85665 24.0586 8.34749 23.7345 8.34749C23.4031 8.35466 23.4031 8.85665 23.7345 8.85665Z" fill="#0C0A35"/>
<path d="M32.2703 8.70604C32.6737 8.70604 32.6737 8.08214 32.2703 8.08214C31.8669 8.08214 31.8669 8.70604 32.2703 8.70604Z" fill="#0C0A35"/>
<path d="M37.1179 8.8423C37.5501 8.8423 37.5501 8.17537 37.1179 8.17537C36.6929 8.17537 36.6929 8.8423 37.1179 8.8423Z" fill="#0C0A35"/>
<path d="M41.3462 9.27264C41.8 9.27264 41.8 8.57701 41.3462 8.57701C40.8924 8.57701 40.8924 9.27264 41.3462 9.27264Z" fill="#0C0A35"/>
<path d="M32.2053 9.19374C32.3782 9.19374 32.3782 8.92841 32.2053 8.92841C32.0325 8.92841 32.0325 9.19374 32.2053 9.19374Z" fill="#0C0A35"/>
<path d="M27.6818 8.96425C27.8835 8.96425 27.8835 8.64871 27.6818 8.64871C27.4729 8.64871 27.4729 8.96425 27.6818 8.96425Z" fill="#0C0A35"/>
<path d="M24.0226 8.92125C24.0154 8.92125 24.0082 8.92126 24.0082 8.91409C23.7849 8.84955 23.8785 9.26548 24.0586 9.10053C24.0658 9.09336 24.0658 9.09337 24.073 9.0862C24.1234 9.036 24.0874 8.94276 24.0226 8.92125Z" fill="#0C0A35"/>
<path d="M23.4391 8.3403C23.612 8.3403 23.612 8.07497 23.4391 8.07497C23.2662 8.07497 23.2662 8.3403 23.4391 8.3403Z" fill="#0C0A35"/>
<path d="M27.5378 7.73793C27.7611 7.73793 27.7611 7.38654 27.5378 7.38654C27.3145 7.38654 27.3145 7.73793 27.5378 7.73793Z" fill="#0C0A35"/>
<path d="M32.3854 7.98176C32.652 7.98176 32.652 7.56583 32.3854 7.56583C32.1189 7.55865 32.1189 7.98176 32.3854 7.98176Z" fill="#0C0A35"/>
<path d="M37.082 9.32283C37.2909 9.32283 37.2909 9.00011 37.082 9.00011C36.8731 9.00011 36.8731 9.32283 37.082 9.32283Z" fill="#0C0A35"/>
<path d="M37.118 8.01043C37.3125 8.01043 37.3125 7.7164 37.118 7.7164C36.9307 7.7164 36.9307 8.01043 37.118 8.01043Z" fill="#0C0A35"/>
<path d="M41.2454 9.40173C41.1518 9.19376 40.8204 9.37303 40.9357 9.57383C41.0581 9.76746 41.339 9.59535 41.2454 9.40173Z" fill="#0C0A35"/>
<path d="M41.6199 8.57702C41.8 8.57702 41.8 8.3045 41.6199 8.3045C41.4398 8.3045 41.4398 8.57702 41.6199 8.57702Z" fill="#0C0A35"/>
<path d="M28.8127 14.1133C28.8631 14.2352 28.8991 14.3499 29.0504 14.3571C29.0864 14.3571 29.108 14.3356 29.1152 14.3069C29.1513 14.2065 29.108 14.1348 29.072 14.0416C29.0144 13.8766 28.7479 13.9483 28.8127 14.1133Z" fill="#0C0A35"/>
<path d="M30.6712 13.6256C30.5992 13.7762 30.556 13.9842 30.7 14.1061C30.7649 14.1635 30.9017 14.1706 30.9449 14.0774C31.0026 13.934 30.9665 13.8049 30.9233 13.6615C30.8873 13.5467 30.7288 13.5181 30.6712 13.6256Z" fill="#0C0A35"/>
<path d="M32.4072 13.9054C32.3712 13.9842 32.3351 14.0631 32.2919 14.1348C32.1983 14.2926 32.4648 14.4432 32.5368 14.2783C32.5801 14.1779 32.6233 14.0775 32.6521 13.9699C32.6953 13.8121 32.4648 13.7619 32.4072 13.9054Z" fill="#0C0A35"/>
<path d="M29.1296 16.1356C29.2376 16.0926 29.3961 15.9707 29.3817 15.8416C29.3817 15.8129 29.3673 15.7914 29.3385 15.7842C29.18 15.734 29.0432 15.9492 29.0576 16.0854C29.0648 16.1141 29.0936 16.15 29.1296 16.1356Z" fill="#0C0A35"/>
<path d="M30.7576 15.7411C30.6135 15.8631 30.6135 16.1571 30.6568 16.322C30.7 16.487 30.9449 16.487 30.9953 16.322C31.0385 16.1571 31.0385 15.8631 30.8945 15.7411C30.8513 15.7053 30.8008 15.7053 30.7576 15.7411Z" fill="#0C0A35"/>
<path d="M32.2343 15.526C32.2343 15.6766 32.2775 15.8344 32.3999 15.9348C32.4431 15.9706 32.508 15.9922 32.5656 15.9563C32.5728 15.9491 32.5872 15.9419 32.5944 15.9348C32.6304 15.8846 32.6448 15.8272 32.616 15.7698C32.5584 15.6623 32.4576 15.5906 32.3927 15.483C32.3495 15.4184 32.2343 15.4471 32.2343 15.526Z" fill="#0C0A35"/>
<path d="M29.814 13.7763C29.6483 13.8623 29.6987 14.1062 29.7492 14.2496C29.8212 14.4361 30.1093 14.3572 30.0517 14.1707C30.0085 14.0416 30.0013 13.8695 29.886 13.7834C29.8644 13.7619 29.8356 13.7619 29.814 13.7763Z" fill="#0C0A35"/>
<path d="M31.694 13.7476C31.6436 13.848 31.4491 14.3356 31.7012 14.3213C31.8381 14.3141 31.8597 14.142 31.8813 14.0416C31.9029 13.9125 31.8597 13.7978 31.7444 13.7332C31.73 13.7189 31.7012 13.726 31.694 13.7476Z" fill="#0C0A35"/>
<path d="M29.8499 16.3651C30.0876 16.3651 30.2317 16.0423 30.2317 15.8344C30.2317 15.7125 30.0948 15.6336 29.9868 15.6981C29.8211 15.7913 29.7131 16.071 29.7347 16.2575C29.7419 16.3149 29.7851 16.3651 29.8499 16.3651Z" fill="#0C0A35"/>
<path d="M31.4851 15.7699C31.377 15.9564 31.3986 16.2934 31.6219 16.3938C31.7228 16.4368 31.8308 16.4081 31.8668 16.2934C31.9317 16.0711 31.73 15.9061 31.6075 15.7555C31.5787 15.7125 31.5067 15.7269 31.4851 15.7699Z" fill="#0C0A35"/>
<path d="M27.7394 15.1173C27.7394 15.0528 27.7898 14.9954 27.8402 14.9523C28.3156 14.5221 28.9423 14.2782 29.569 14.1563C30.1957 14.0344 30.8512 14.0344 31.4922 14.0273C31.9244 14.0273 33.1994 14.4073 33.682 14.7587C32.9257 15.4902 31.9172 15.9492 30.8728 16.0496C29.8283 16.15 28.7478 15.8775 27.8762 15.2966C27.8114 15.2607 27.7394 15.2034 27.7394 15.1173Z" fill="white"/>
<path d="M30.0732 15.2177C30.2461 15.4256 30.5414 15.5332 30.8079 15.4759C31.0744 15.4185 31.3049 15.2105 31.3842 14.9523C31.3986 14.895 31.4058 14.8304 31.4058 14.7659C31.3842 14.4073 30.6134 14.0559 30.0948 14.5579C29.9147 14.73 29.9075 15.024 30.0732 15.2177Z" fill="#0C0A35"/>
<path d="M30.6783 34.5661C30.6351 34.5876 30.5991 34.6091 30.5558 34.6306C29.5258 35.1613 29.9724 36.9613 31.1609 36.8537C31.2041 36.8466 31.2474 36.8466 31.2978 36.8394C33.3291 36.6601 32.4431 33.6625 30.6783 34.5661Z" fill="#F70032"/>
<path d="M20.9036 34.7669C22.3154 34.7669 22.3154 32.594 20.9036 32.594C19.4989 32.594 19.4989 34.7669 20.9036 34.7669Z" fill="#F70032"/>
<path d="M23.1727 33.3039C24.0875 32.974 24.8006 32.4935 25.5497 31.8911C26.162 31.4035 25.2544 30.4497 24.6709 31.0162C24.1091 31.5684 23.5616 32.1995 22.8557 32.5652C22.4596 32.7804 22.7405 33.4617 23.1727 33.3039Z" fill="#990028"/>
<path d="M31.3337 33.8131C31.4922 33.476 31.557 33.1174 31.6219 32.7517C31.7083 32.2855 31.8308 31.8337 31.8956 31.3604C32.0108 30.4497 30.3685 30.421 30.455 31.3604C30.491 31.7764 30.5414 32.1923 30.563 32.6083C30.5846 33.0242 30.635 33.4617 30.8727 33.8131C30.9736 33.9637 31.2401 34.0067 31.3337 33.8131Z" fill="#990028"/>
<path d="M38.9837 33.0386C38.7964 32.8378 38.6451 32.4003 38.4794 32.1278C38.4002 31.9987 38.321 31.8553 38.2417 31.719C38.1985 31.6473 38.1625 31.5684 38.1265 31.4967C38.2057 31.6473 38.0689 31.3676 38.0473 31.3102C37.9032 31.0162 37.5142 30.8871 37.2117 30.9732C36.7939 31.0879 36.6282 31.4824 36.6931 31.8768C36.7723 32.3429 37.2621 32.6155 37.6151 32.8664C37.7807 32.9812 37.9176 33.1533 38.0761 33.2824C38.2706 33.433 38.4578 33.4832 38.6811 33.5693C38.9909 33.6983 39.1854 33.2537 38.9837 33.0386Z" fill="#990028"/>
<path d="M27.4656 28.0114C27.48 28.0186 27.4872 28.0186 27.5016 28.0258C27.7826 28.1333 27.9987 27.7748 27.869 27.5453C27.8618 27.5381 27.8546 27.5238 27.8474 27.5094C27.7393 27.3158 27.4656 27.2871 27.3144 27.4449C27.1199 27.6385 27.2279 27.9254 27.4656 28.0114Z" fill="#990028"/>
<path d="M28.9135 28.0401C28.9135 28.0329 28.9207 28.0329 28.9207 28.0329C29.0504 27.8895 29.0504 27.6958 28.9207 27.5524C28.9207 27.5452 28.9135 27.5452 28.9135 27.5452C28.7046 27.3086 28.3085 27.5022 28.3085 27.7962C28.3085 28.0831 28.7046 28.2767 28.9135 28.0401Z" fill="#990028"/>
<path d="M29.6771 28.1621C30.1526 28.1621 30.1526 27.4234 29.6771 27.4234C29.1945 27.4234 29.1945 28.1621 29.6771 28.1621Z" fill="#990028"/>
<path d="M30.6855 28.0904C31.1177 28.0904 31.1177 27.4162 30.6855 27.4162C30.2461 27.4234 30.2461 28.0904 30.6855 28.0904Z" fill="#990028"/>
<path d="M31.658 27.9828C32.0902 27.9828 32.0902 27.3158 31.658 27.3158C31.2258 27.323 31.2258 27.9828 31.658 27.9828Z" fill="#990028"/>
<path d="M32.5295 27.8752C32.9041 27.8752 32.9041 27.2943 32.5295 27.2943C32.1477 27.2943 32.1477 27.8752 32.5295 27.8752Z" fill="#990028"/>
<path d="M33.4227 27.8321C33.4371 27.8393 33.4515 27.8393 33.4659 27.8464C33.682 27.9253 33.9053 27.7245 33.9053 27.5166C33.9053 27.3014 33.682 27.1078 33.4659 27.1795C33.4515 27.1867 33.4371 27.1867 33.4227 27.1938C33.113 27.3086 33.113 27.7245 33.4227 27.8321Z" fill="#990028"/>
<path d="M34.7049 27.8107C35.1731 27.8107 35.1731 27.0864 34.7049 27.0864C34.2367 27.0792 34.2367 27.8107 34.7049 27.8107Z" fill="#990028"/>
<path d="M35.7277 27.6314C36.1023 27.6314 36.1023 27.0505 35.7277 27.0505C35.3531 27.0505 35.3531 27.6314 35.7277 27.6314Z" fill="#990028"/>
<path d="M31.1393 31.9844C31.3626 31.9844 31.5499 31.798 31.5499 31.5756C31.5499 31.3533 31.3626 31.1669 31.1393 31.1669C30.916 31.1669 30.7288 31.3533 30.7288 31.5756C30.736 31.798 30.9232 31.9844 31.1393 31.9844Z" fill="#F70032"/>
<path d="M25.1031 31.9485C25.2472 31.8983 25.3552 31.8051 25.3985 31.6545C25.4705 31.3891 25.2688 31.1238 24.9951 31.1238C24.7646 31.1238 24.5773 31.3102 24.5773 31.5397C24.5701 31.8051 24.8366 32.0417 25.1031 31.9485Z" fill="#F70032"/>
<path d="M37.0244 31.8338C37.0316 31.841 37.0388 31.8553 37.046 31.8696C37.1325 32.0202 37.3125 32.092 37.4782 32.0418C37.6511 31.9916 37.7447 31.8481 37.7591 31.676C37.7591 31.6617 37.7591 31.6473 37.7591 31.6402C37.7808 31.382 37.4926 31.1955 37.2621 31.2601C37.01 31.3246 36.902 31.6115 37.0244 31.8338Z" fill="#F70032"/>
<path d="M25.9531 30.8011C26.0611 30.7078 26.1764 30.6361 26.2844 30.5429C26.3853 30.4425 26.5221 30.3349 26.5149 30.1843C26.5077 30.1126 26.4501 30.0409 26.3709 30.0409C26.0755 30.0624 25.9459 30.4784 25.8018 30.6792C25.7298 30.7796 25.8738 30.8728 25.9531 30.8011Z" fill="#F70032"/>
<path d="M25.4055 30.5358C25.4488 30.4999 25.5064 30.4927 25.5568 30.464C25.6072 30.4354 25.6505 30.3852 25.6937 30.3493C25.7801 30.2704 25.8738 30.1413 25.9098 30.0266C25.9674 29.8258 25.7441 29.668 25.5712 29.7684C25.4632 29.8258 25.3623 29.9692 25.3335 30.0911C25.3191 30.1485 25.3119 30.2059 25.2975 30.2632C25.2903 30.3063 25.3047 30.378 25.2903 30.4138C25.2471 30.4855 25.3263 30.6003 25.4055 30.5358Z" fill="#F70032"/>
<path d="M26.1619 31.2744C26.306 31.2816 26.4068 31.2672 26.5437 31.2027C26.6806 31.1381 26.8102 31.0449 26.8751 30.9086C26.9471 30.758 26.8246 30.5214 26.6301 30.5931C26.4933 30.6433 26.4068 30.7222 26.306 30.8226C26.2628 30.8728 26.2196 30.9158 26.1763 30.966C26.1331 31.0234 26.1187 31.0808 26.0827 31.1381C26.0539 31.2027 26.0971 31.2672 26.1619 31.2744Z" fill="#F70032"/>
<path d="M30.5126 30.7366C30.5702 30.6649 30.6062 30.6218 30.6206 30.5286C30.6422 30.4282 30.6206 30.2991 30.5918 30.2059C30.5198 30.0123 30.1957 29.9692 30.1452 30.2059C30.102 30.4354 30.1812 30.6433 30.3829 30.7581C30.4262 30.7796 30.4838 30.7796 30.5126 30.7366Z" fill="#F70032"/>
<path d="M31.2834 30.4712C31.3626 30.3851 31.3626 30.2489 31.341 30.1413C31.3194 30.0266 31.3482 29.9047 31.2978 29.7971C31.2834 29.7541 31.2258 29.7254 31.1826 29.7325C30.844 29.7541 30.8872 30.3708 31.1393 30.4927C31.1826 30.5142 31.2402 30.5142 31.2834 30.4712Z" fill="#F70032"/>
<path d="M31.7372 30.5716C31.8164 30.5285 31.8885 30.4353 31.9533 30.3708C32.0253 30.2847 32.1046 30.1987 32.1478 30.0911C32.191 29.9763 32.0542 29.8257 31.9317 29.8759C31.7156 29.962 31.4923 30.3062 31.622 30.5357C31.6436 30.5787 31.694 30.5931 31.7372 30.5716Z" fill="#F70032"/>
<path d="M36.6643 30.9374C36.7147 30.7222 36.6427 30.4426 36.441 30.3206C36.3329 30.2561 36.16 30.3135 36.1384 30.4425C36.088 30.7079 36.2969 30.9445 36.5418 31.0091C36.5922 31.0234 36.6499 30.9947 36.6643 30.9374Z" fill="#F70032"/>
<path d="M36.2608 31.2744C36.1815 31.1884 36.1023 31.1238 35.9942 31.0664C35.8502 30.9876 35.7493 30.9374 35.5909 31.0163C35.4684 31.0736 35.4756 31.2314 35.5548 31.3246C35.7061 31.4967 36.0158 31.4178 36.2175 31.3892C36.2752 31.382 36.304 31.3246 36.2608 31.2744Z" fill="#F70032"/>
<path d="M37.2908 30.6003C37.2908 30.4927 37.3196 30.3852 37.3341 30.2848C37.3773 29.9979 36.9379 29.9907 36.9667 30.2346C36.9811 30.3923 37.0099 30.5214 37.1036 30.6505C37.1612 30.7222 37.2836 30.7007 37.2908 30.6003Z" fill="#F70032"/>
<path d="M26.3348 35.4624C26.6085 35.4624 26.6085 35.0393 26.3348 35.0393C26.0611 35.0393 26.0611 35.4624 26.3348 35.4624Z" fill="#F70032"/>
<path d="M22.726 36.4019C22.9998 36.4019 22.9998 35.9788 22.726 35.9788C22.4523 35.9788 22.4523 36.4019 22.726 36.4019Z" fill="#F70032"/>
<path d="M8.10348 48.6292C8.3772 48.6292 8.3772 48.2061 8.10348 48.2061C7.82976 48.2061 7.82976 48.6292 8.10348 48.6292Z" fill="#F70032"/>
<path d="M22.301 38.7398C22.5747 38.7398 22.5747 38.3167 22.301 38.3167C22.0273 38.3167 22.0273 38.7398 22.301 38.7398Z" fill="#F70032"/>
<path d="M19.0956 37.4418C19.4198 37.4418 19.4198 36.9398 19.0956 36.9398C18.7715 36.9398 18.7715 37.4418 19.0956 37.4418Z" fill="#F70032"/>
<path d="M14.7233 35.9788C15.0979 35.9788 15.0979 35.3979 14.7233 35.3979C14.3416 35.3979 14.3416 35.9788 14.7233 35.9788Z" fill="#F70032"/>
<path d="M12.4831 38.2665C12.8649 38.2665 12.8649 37.6856 12.4831 37.6856C12.1013 37.6784 12.1013 38.2665 12.4831 38.2665Z" fill="#F70032"/>
<path d="M24.8725 39.3494C24.8653 39.3565 24.8653 39.3709 24.8581 39.378C24.7573 39.6004 24.959 39.8012 25.1823 39.7008C25.1895 39.6936 25.2039 39.6936 25.2111 39.6864C25.3623 39.6219 25.3623 39.3996 25.2615 39.2992C25.1606 39.1916 24.9373 39.1988 24.8725 39.3494Z" fill="#F70032"/>
<path d="M17.2155 34.0139C17.2083 34.0211 17.2083 34.0354 17.2011 34.0426C17.1003 34.2649 17.302 34.4657 17.5253 34.3653C17.5325 34.3581 17.5469 34.3581 17.5541 34.351C17.7054 34.2864 17.7054 34.0641 17.6045 33.9637C17.5037 33.8561 17.2804 33.8633 17.2155 34.0139Z" fill="#F70032"/>
<path d="M29.7707 38.3884C30.1885 38.3884 30.1885 37.743 29.7707 37.743C29.353 37.743 29.353 38.3884 29.7707 38.3884Z" fill="#F70032"/>
<path d="M20.1689 41.508C20.5867 41.508 20.5867 40.8626 20.1689 40.8626C19.7511 40.8626 19.7511 41.508 20.1689 41.508Z" fill="#F70032"/>
<path d="M15.0762 38.9694C15.0834 38.9694 15.0906 38.9693 15.105 38.9622C15.0474 38.955 14.9969 38.9478 14.9393 38.9407C14.9465 38.9407 14.9537 38.9478 14.9609 38.9478C15.1482 39.0411 15.3355 38.8546 15.2419 38.6681C15.2202 38.6179 15.1842 38.5821 15.1338 38.5678C15.0041 38.5104 14.8529 38.5462 14.8097 38.6968C14.7592 38.8689 14.9105 39.0052 15.0762 38.9694Z" fill="#F70032"/>
<path d="M8.04597 47.3311C8.05318 47.3311 8.06038 47.3311 8.07479 47.3239C8.01716 47.3168 7.96674 47.3096 7.90911 47.3024C7.91632 47.3024 7.92352 47.3096 7.93072 47.3096C8.11801 47.4028 8.30529 47.2164 8.21165 47.0299C8.19004 46.9797 8.15402 46.9439 8.1036 46.9223C7.97394 46.865 7.82267 46.9008 7.77946 47.0514C7.73624 47.2307 7.8875 47.3598 8.04597 47.3311Z" fill="#F70032"/>
<path d="M31.8164 42.0244C32.0973 42.0244 32.0973 41.5941 31.8164 41.5941C31.5427 41.5941 31.5427 42.0244 31.8164 42.0244Z" fill="#F70032"/>
<path d="M35.3892 35.1757C35.6557 35.1757 35.6557 34.7669 35.3892 34.7669C35.1299 34.7669 35.1299 35.1757 35.3892 35.1757Z" fill="#F70032"/>
<path d="M47.0224 41.5439C47.3969 41.5439 47.3969 40.963 47.0224 40.963C46.6478 40.9558 46.6478 41.5439 47.0224 41.5439Z" fill="#F70032"/>
<path d="M49.8388 39.9159C50.2134 39.9159 50.2134 39.3351 49.8388 39.3351C49.4642 39.3279 49.4642 39.9159 49.8388 39.9159Z" fill="#F70032"/>
<path d="M50.1629 41.8235C50.5447 41.8235 50.5447 41.2426 50.1629 41.2426C49.7811 41.2426 49.7811 41.8235 50.1629 41.8235Z" fill="#F70032"/>
<path d="M14.8457 41.422C15.2419 41.422 15.5732 41.0921 15.5732 40.6977C15.5732 40.3032 15.2419 39.9733 14.8457 39.9733C14.4495 39.9733 14.1182 40.3032 14.1182 40.6977C14.1254 41.0993 14.4567 41.422 14.8457 41.422Z" fill="#990028"/>
<path d="M14.2335 42.3973C14.2407 42.4044 14.2407 42.4188 14.2479 42.4259C14.3415 42.6411 14.6369 42.7271 14.8458 42.6698C15.1339 42.5909 15.278 42.304 15.2131 42.0243C15.2131 42.0172 15.2059 42.0028 15.2059 41.9957C15.1411 41.716 14.817 41.551 14.5504 41.6227C14.1903 41.7231 14.0966 42.0889 14.2335 42.3973Z" fill="#990028"/>
<path d="M21.5663 44.7853C21.5735 44.7996 21.5807 44.8068 21.5879 44.8212C21.6671 44.9718 21.8832 45.0291 22.0273 44.9359C22.0777 44.9 22.1065 44.8714 22.1425 44.8212C22.2362 44.6777 22.1786 44.4626 22.0273 44.3837C22.0129 44.3765 21.9985 44.3693 21.9913 44.3622C21.7176 44.2116 21.415 44.5056 21.5663 44.7853Z" fill="#990028"/>
<path d="M28.9495 46.2052C28.9567 46.2196 28.9639 46.2267 28.9711 46.2411C29.0503 46.3917 29.2664 46.449 29.4105 46.3558C29.4609 46.3199 29.4897 46.2913 29.5257 46.2411C29.6194 46.0976 29.5617 45.8825 29.4105 45.8036C29.3961 45.7964 29.3889 45.7893 29.3745 45.7821C29.0935 45.6315 28.7982 45.9327 28.9495 46.2052Z" fill="#990028"/>
<path d="M10.7112 41.3645C9.63069 42.9781 9.89001 47.2163 11.6188 48.3637C11.7484 48.4498 11.9213 48.3351 11.9213 48.1916C11.9285 47.1088 11.5107 45.9972 11.3883 44.9215C11.2514 43.7741 11.4747 42.5621 11.2298 41.4362C11.1794 41.178 10.8408 41.178 10.7112 41.3645Z" fill="#990028"/>
<path d="M8.98949 41.6227C7.57046 41.8522 7.54165 44.0395 7.6641 45.0865C7.80816 46.2698 8.31239 48.0913 9.55854 48.579C9.7098 48.6363 9.85387 48.4642 9.81065 48.328C9.51532 47.2809 9.00389 46.3271 8.75898 45.2514C8.45645 43.9247 8.77339 43.0498 9.21278 41.8379C9.27041 41.7016 9.11914 41.6012 8.98949 41.6227Z" fill="#990028"/>
<path d="M46.5613 48.3064C45.9202 48.4785 45.3368 48.7726 44.7029 48.959C44.069 49.1455 43.3127 49.1957 42.7436 48.9017C42.189 48.6076 41.9585 48.0698 41.6343 47.6036C40.9572 46.6355 39.6535 45.9184 38.2633 45.9327C36.7074 45.9471 35.1947 46.8363 33.7036 46.4777C32.5223 46.1909 31.7948 45.2084 30.6495 44.8355C28.7695 44.2259 26.7598 45.4737 24.7357 45.5024C23.576 45.5239 22.4811 45.1439 21.3646 44.8857C20.2337 44.6275 19.0596 44.4913 17.8855 44.4913C16.9995 44.4913 16.0703 44.5702 15.3499 44.9717C14.7089 45.3231 14.2767 45.904 13.5708 46.1622C12.836 46.4347 11.9644 46.2984 11.1937 46.1048C10.423 45.904 9.63782 45.6459 8.83106 45.6889C8.0171 45.7319 6.85739 46.2554 6.84299 46.9009C6.79977 48.7009 7.74338 50.3933 8.48531 52.1001C9.70265 54.8969 14.5072 59.042 21.732 58.6834C23.2446 58.6117 24.7573 58.6906 26.27 58.6834C29.0072 58.6691 35.9438 58.7695 38.6666 58.5759C44.7893 58.1527 45.3584 56.8762 47.4905 53.7567C48.9672 51.5981 48.8159 49.6116 48.4341 48.9877C47.8363 48.0268 46.9647 48.1989 46.5613 48.3064Z" fill="#191956"/>
<path d="M26.306 87.0534C26.2772 87.1681 26.2123 87.2972 26.0971 87.2972C26.0034 87.2972 25.9386 87.2111 25.8954 87.1251C25.5208 86.4797 25.2183 85.7912 24.995 85.0741C25.492 85.0741 25.989 85.1028 26.4861 85.153C26.5653 85.1601 26.6589 85.1816 26.6949 85.2534C26.7166 85.2964 26.7021 85.3466 26.6949 85.3896C26.5797 85.9561 26.4644 86.5083 26.306 87.0534Z" fill="#0C0A35"/>
<path d="M22.1066 61.2077C22.1354 61.7026 22.2794 62.183 22.4019 62.6635C22.9349 64.7576 23.0646 66.9448 22.7981 69.0819C25.3912 68.7951 27.8475 67.4755 29.5114 65.4819C29.9508 64.9584 30.4118 64.3416 31.0889 64.2484C30.9377 62.9289 31.0529 61.5807 31.4203 60.3042C28.4093 60.1966 25.384 60.383 22.4091 60.8563C22.3083 60.8707 22.2002 60.8922 22.1426 60.9783C22.1066 61.0356 22.1066 61.1217 22.1066 61.2077Z" fill="#FCC07E"/>
<path d="M21.9841 62.0683C22.0561 62.2619 22.2938 62.348 22.4955 62.3049C23.504 62.0683 24.2099 61.9751 27.1344 61.8029C30.1021 61.6308 31.0961 61.8818 31.3122 61.5519C33.8189 57.787 35.4972 56.7543 37.262 55.5423C37.4061 55.4491 37.3701 55.2268 37.2044 55.1838C36.3616 54.9399 35.0939 54.9758 34.532 55.0619C31.9389 55.4348 31.269 56.3527 29.8139 57.873C29.3457 55.3917 28.2148 54.0578 27.0479 53.52C26.2556 54.3519 25.2471 55.8937 25.0022 57.7153C24.8654 57.3925 24.4044 56.7901 24.1666 56.532C22.8269 55.0977 20.5507 54.3662 18.2456 54.2658C18.188 54.2658 18.1376 54.3017 18.1304 54.3591C18.0367 54.8395 19.2757 56.03 20.032 57.3854C21.2133 59.5224 21.1341 59.6802 21.9841 62.0683Z" fill="#0C0A35"/>
<path d="M34.1863 68.9385C34.2799 68.0995 34.4096 67.2604 34.388 66.4214C34.3664 65.5752 34.1863 64.7146 33.7109 64.019C33.1346 63.1799 32.1334 62.6492 31.1177 62.6349C30.1021 62.6205 28.9784 62.9576 28.0852 63.4452C27.0767 63.9903 26.0035 64.6787 25.2111 65.4963C24.2531 66.4787 23.8785 67.7839 23.3671 69.0604C22.2218 71.9218 21.5087 75.0916 22.265 78.0749C22.2938 78.1896 22.3298 78.3043 22.4019 78.3832C22.4955 78.4836 22.6396 78.5195 22.7692 78.5482C25.953 79.2653 29.3241 78.5195 32.5079 79.2079C33.1058 77.5155 32.5295 75.5362 33.3363 73.937C33.7829 73.0549 34.5824 72.4238 35.3028 71.7497C35.6629 71.4127 36.0303 70.8963 35.7854 70.4732C35.4828 69.9425 34.5248 70.1146 34.2367 69.5696C34.1431 69.3831 34.1575 69.1537 34.1863 68.9385Z" fill="#FFD6A1"/>
<path d="M26.5509 63.7607C27.617 63.9615 29.3313 64.6787 30.3326 66.1918C30.9304 67.0954 31.2186 68.2142 31.5067 69.254C31.5859 69.5337 31.6291 69.7919 31.7228 70.0357C31.7876 70.2006 32.0541 70.2078 32.2342 70.1863C33.4083 70.0285 33.538 69.9855 34.532 69.8421C34.5824 68.207 35.1227 66.493 36.4265 65.4962C37.3269 64.8078 38.2489 64.1121 39.3221 63.7464C38.0472 64.0835 36.5633 64.3416 35.4828 65.0946C34.4024 65.8404 33.7397 66.9879 33.3003 68.2213C32.8033 67.1098 32.0901 66.0986 31.2114 65.2452C31.0169 65.0516 30.808 64.8651 30.5631 64.7289C30.3182 64.5854 29.8716 64.3416 29.605 64.234C28.3013 63.7177 27.2136 63.7966 26.5509 63.7607Z" fill="#0C0A35"/>
<path d="M33.5885 63.8611C32.8682 62.9289 31.7805 62.8858 30.9666 62.9217C31.3483 62.1328 31.7589 61.3225 32.4072 60.7272C32.969 60.2181 33.6894 59.881 34.4385 59.795C34.0855 61.1288 33.6245 62.4842 33.5885 63.8611Z" fill="#0C0A35"/>
<path d="M19.0164 63.101C18.1016 62.8285 17.1724 62.5775 16.2216 62.6421C16.9131 64.5066 17.1652 65.4102 17.4821 67.3752C17.5613 67.8628 17.8927 70.5091 17.9215 70.9967C18.08 73.6501 18.0656 75.1705 17.8711 77.8239C17.8639 77.8956 17.8639 77.9673 17.8999 78.0319C17.9503 78.1179 18.0656 78.1394 18.1664 78.1466C20.1473 78.3259 22.1426 77.6303 24.1234 77.8239C24.5052 75.0988 24.8942 72.3306 24.5268 69.6055C24.4044 68.6732 24.2243 67.7122 23.7129 66.9234C21.7752 63.9473 20.3202 63.4955 19.0164 63.101Z" fill="#141247"/>
<path d="M25.0382 75.9593C25.031 75.8947 24.9445 75.2565 25.0814 75.2852C25.5856 75.3927 26.0466 75.3784 26.3131 75.3927C28.6974 75.5146 29.3745 75.5362 31.1393 75.235C31.1897 75.529 31.2041 75.8302 31.1825 76.1242C29.1944 76.0095 27.1991 76.0023 25.211 76.0955C25.1606 76.0955 25.0958 76.0955 25.0598 76.0597C25.0454 76.031 25.0454 75.9951 25.0382 75.9593Z" fill="#0C0A35"/>
<path d="M25.4416 69.3687C25.2831 69.6125 25.2615 69.9424 25.3767 70.2078C25.4344 70.344 25.528 70.4659 25.6505 70.5592C25.989 70.8245 26.5221 70.7958 26.8318 70.5018C27.1991 70.1504 27.1703 69.4763 26.7814 69.1536C26.3852 68.8309 25.7153 68.9384 25.4416 69.3687Z" fill="#D6002B"/>
<path d="M32.9402 81.5386C32.9402 81.7896 32.8465 82.0263 32.7457 82.2558C32.0902 83.7044 30.7792 84.8088 29.2954 85.3825C27.8115 85.9562 26.162 86.0351 24.5845 85.7841C23.9002 85.6694 23.2159 85.4972 22.618 85.1602C22.121 84.8805 21.696 84.5004 21.2782 84.1132C20.4138 83.31 19.5351 82.3633 19.4126 81.1944C23.8209 80.7569 28.3157 80.3195 32.652 81.2088C32.7313 81.2231 32.8177 81.2446 32.8753 81.302C32.933 81.3594 32.9474 81.4526 32.9402 81.5386Z" fill="#222272"/>
<path d="M33.6892 70.4446C33.7756 69.29 33.9269 68.2717 34.2438 67.1601C34.6328 65.8119 35.5404 64.9943 36.3184 63.9043C36.3832 63.8182 36.2535 63.7393 36.1815 63.7967C34.3663 65.4031 33.1706 68.0422 33.5163 70.4661C33.5307 70.5665 33.682 70.5378 33.6892 70.4446Z" fill="#B70027"/>
<path d="M32.6735 71.09C33.3938 68.7808 32.6087 65.5035 30.3829 64.2772C30.3181 64.2413 29.5546 64.0477 29.6194 64.0907C30.5558 64.729 31.838 66.1202 32.1909 67.2748C32.5655 68.4796 32.5943 69.8135 32.4574 71.0541C32.4502 71.1832 32.6375 71.1975 32.6735 71.09Z" fill="#B70027"/>
<path d="M39.6175 63.7465C36.4409 63.8254 33.5092 67.5975 34.4312 70.6454C34.4601 70.7386 34.6185 70.7529 34.6401 70.6454C34.7698 70.0501 34.6689 69.4836 34.7914 68.8669C34.9427 68.0852 35.2308 67.2963 35.5838 66.5792C36.3401 65.0445 38.2633 64.5569 39.6391 63.8326C39.6824 63.811 39.668 63.7393 39.6175 63.7465Z" fill="#B70027"/>
<path d="M31.9965 71.0469C32.2919 69.2612 31.73 67.1098 30.5703 65.7042C29.4322 64.3273 27.7467 62.6277 25.7226 63.1082C25.5857 63.144 25.5569 63.3377 25.6866 63.4022C26.3132 63.7321 26.9975 63.8397 27.6386 64.1408C28.467 64.5281 29.1945 65.4389 29.7924 66.1058C31.0457 67.4971 31.4707 69.2684 31.8597 71.0397C31.8741 71.1186 31.9893 71.1186 31.9965 71.0469Z" fill="#B70027"/>
<path d="M34.8057 59.2643C33.4947 60.6269 33.2786 62.4197 32.8536 64.1767C32.8392 64.2484 32.9473 64.2699 32.9689 64.2126C33.3002 63.3735 33.3866 62.4699 33.6532 61.6094C33.8981 60.8133 34.3663 59.96 34.8057 59.2643C34.8129 59.2643 34.8057 59.2572 34.8057 59.2643Z" fill="#B70027"/>
<path d="M34.0638 59.3432C33.4803 59.7233 33.2282 60.4691 32.9545 61.0787C32.5367 62.0182 32.3998 63.0078 32.2486 64.019C32.2342 64.1194 32.3782 64.1552 32.4142 64.062C32.7744 63.223 32.7384 62.2907 33.0913 61.4373C33.3867 60.7273 33.8117 60.0819 34.1214 59.3863C34.143 59.3576 34.0998 59.3289 34.0638 59.3432Z" fill="#B70027"/>
<path d="M32.7528 59.7448C32.0613 60.9711 31.4058 62.4771 31.4778 63.9185C31.4851 64.0261 31.6507 64.0405 31.6867 63.9472C31.9244 63.266 31.9965 62.5201 32.191 61.8245C32.3854 61.1217 32.7456 60.4978 32.8753 59.7807C32.8825 59.7018 32.7816 59.6874 32.7528 59.7448Z" fill="#B70027"/>
<path d="M22.971 64.3487C23.432 66.5504 23.2879 68.795 23.3599 71.0253C23.4392 73.5568 22.8341 75.9162 22.5964 78.4047C22.5892 78.5122 22.7621 78.5624 22.8125 78.462C23.8209 76.2676 23.8065 73.3847 23.7417 71.0253C23.6841 68.8309 23.9578 66.3711 23.007 64.3344C22.9926 64.3129 22.9638 64.3272 22.971 64.3487Z" fill="#B70027"/>
<path d="M21.7824 63.6602C22.3515 66.3495 22.2794 69.0961 22.0705 71.8213C21.9049 74.0372 21.8184 76.1384 21.0693 78.2396C21.0333 78.3472 21.1845 78.4404 21.2638 78.3544C22.5892 76.9058 22.2866 74.1233 22.4307 72.3161C22.654 69.5049 22.762 66.3423 21.8256 63.6459C21.8184 63.6172 21.7752 63.6315 21.7824 63.6602Z" fill="#B70027"/>
<path d="M20.7019 62.893C21.2854 67.8197 21.1269 73.0763 20.0176 77.8955C19.9888 78.0246 20.1689 78.1106 20.2409 77.9887C21.4222 75.9592 21.1557 73.3058 21.2926 71.054C21.4511 68.4077 21.7248 65.4244 20.8172 62.8858C20.7956 62.8212 20.6947 62.8284 20.7019 62.893Z" fill="#B70027"/>
<path d="M18.6201 62.1471C18.8723 63.4738 19.254 64.7504 19.3549 66.0986C19.4557 67.4324 19.5061 68.7878 19.5277 70.1289C19.5638 72.5241 19.679 75.0126 19.0739 77.3505C19.0523 77.4509 19.1892 77.5154 19.2396 77.4222C20.2697 75.4214 19.9239 72.811 19.9239 70.6381C19.9311 67.6835 19.7366 64.9081 18.7282 62.1185C18.6994 62.0468 18.6057 62.0754 18.6201 62.1471Z" fill="#B70027"/>
<path d="M17.1076 61.7958C17.6118 64.1265 17.8135 66.493 18.1808 68.8453C18.4113 70.3369 18.541 71.8501 18.5626 73.356C18.577 74.776 18.2312 76.1672 18.3681 77.5872C18.3753 77.6875 18.541 77.7306 18.5626 77.6158C18.93 74.9839 19.0308 72.4023 18.6706 69.7632C18.3177 67.16 18.2168 64.2197 17.1796 61.7814C17.158 61.7241 17.1003 61.7528 17.1076 61.7958Z" fill="#B70027"/>
<path d="M15.4725 81.7538C16.6682 80.341 17.511 78.6343 17.8855 76.8199C19.7224 76.6406 21.5664 76.6549 23.4176 76.6621C24.1811 76.6621 24.9375 76.7195 25.6938 76.7267C28.1933 76.7625 29.1729 76.9275 32.5584 76.8844C32.933 76.8773 33.322 77.1211 33.5236 77.4366C34.6113 79.1076 35.2596 80.5418 36.2681 81.6964C36.3185 81.761 36.4121 81.847 36.3617 81.9116C36.3113 81.9761 36.2248 81.9976 36.1456 82.0191C33.9054 82.5785 31.5716 82.6215 29.2594 82.6287C24.8438 82.6359 20.4211 82.4924 16.0127 82.2128C15.8614 82.2056 15.703 82.1913 15.5733 82.1124C15.4581 82.0263 15.3788 81.8685 15.4725 81.7538Z" fill="#0C0A35"/>
<path d="M34.6977 81.3163C34.3952 81.1729 34.0927 81.0367 33.7973 80.9004C33.6172 80.8143 33.4228 80.7283 33.2211 80.7283C33.1634 80.7283 33.0986 80.7354 33.0554 80.7713C33.0122 80.8 31.5355 82.7147 31.5067 82.9514C32.8537 82.9012 34.2439 82.8152 35.4757 82.263C35.5261 82.2414 35.5765 82.2127 35.6053 82.1625C35.6341 82.1052 35.6053 82.0406 35.5765 81.9833C35.3964 81.6534 35.0363 81.4741 34.6977 81.3163Z" fill="#990028"/>
<path d="M27.9196 81.0725C27.2065 81.7036 26.7887 82.2414 26.0972 82.894C27.3577 82.9657 28.6255 83.0446 29.886 83.1163C30.203 83.1379 30.5559 83.145 30.8008 82.9371C29.9293 82.3992 29.353 81.4526 28.4598 80.9578C28.4166 80.9434 28.2941 80.7354 27.9196 81.0725Z" fill="#990028"/>
<path d="M25.4272 82.6502C25.2111 82.306 24.995 81.9618 24.7789 81.6104C24.6565 81.4096 24.5268 81.2088 24.3755 81.0223C24.2099 80.8287 24.0226 80.6566 23.8065 80.5131C23.6696 80.4271 23.5039 80.4844 23.4103 80.6135C22.798 81.4526 22.4379 81.7394 21.876 82.306C21.6887 82.4924 21.6239 82.4996 21.5231 82.7434C22.0993 82.7793 22.6684 82.8151 23.2446 82.8438C24.001 82.8869 24.7717 82.9371 25.5064 82.7578C25.528 82.7076 25.4776 82.6502 25.4272 82.6502Z" fill="#990028"/>
<path d="M20.4354 82.9872C20.6299 82.8438 20.5218 82.5354 20.3922 82.3275C19.8952 81.5028 19.3837 80.6637 18.7066 79.9824C18.5842 79.8605 18.3753 79.8749 18.2889 80.0255C18.0439 80.4486 16.5745 82.0191 16.3152 82.5426C17.5613 82.5785 18.8075 82.7363 20.0248 83.0088C20.1545 83.0446 20.3202 83.0733 20.4354 82.9872Z" fill="#990028"/>
<path d="M31.3842 83.0518C31.0601 83.0518 31.0601 83.5538 31.3842 83.5538C31.7084 83.5538 31.7084 83.0518 31.3842 83.0518Z" fill="#0C0A35"/>
<path d="M30.4118 84.0199C30.2029 84.0199 30.2029 84.3426 30.4118 84.3426C30.6207 84.3426 30.6207 84.0199 30.4118 84.0199Z" fill="#0C0A35"/>
<path d="M29.5691 83.0374C29.3241 83.0374 29.3241 83.4175 29.5691 83.4175C29.814 83.4247 29.814 83.0374 29.5691 83.0374Z" fill="#0C0A35"/>
<path d="M28.7191 84.2422C28.4094 84.2422 28.4094 84.7156 28.7191 84.7156C29.0217 84.7227 29.0217 84.2422 28.7191 84.2422Z" fill="#0C0A35"/>
<path d="M29.5474 84.8087C29.3097 84.8087 29.3097 85.1745 29.5474 85.1745C29.7851 85.1745 29.7851 84.8087 29.5474 84.8087Z" fill="#0C0A35"/>
<path d="M27.7178 85.2247C27.4513 85.2247 27.4513 85.6407 27.7178 85.6407C27.9844 85.6407 27.9844 85.2247 27.7178 85.2247Z" fill="#0C0A35"/>
<path d="M27.2785 83.8837C27.0768 83.8837 27.0768 84.1992 27.2785 84.1992C27.4802 84.1992 27.4802 83.8837 27.2785 83.8837Z" fill="#0C0A35"/>
<path d="M27.9987 82.8581C27.6529 82.8581 27.6529 83.3888 27.9987 83.3888C28.3372 83.3888 28.3372 82.8581 27.9987 82.8581Z" fill="#0C0A35"/>
<path d="M26.2771 82.808C25.9314 82.808 25.9314 83.3387 26.2771 83.3387C26.6229 83.3387 26.6229 82.808 26.2771 82.808Z" fill="#0C0A35"/>
<path d="M26.4211 84.7442C26.1978 84.7442 26.1978 85.0956 26.4211 85.0956C26.6444 85.0956 26.6444 84.7442 26.4211 84.7442Z" fill="#0C0A35"/>
<path d="M25.3768 85.3323C25.1319 85.3323 25.1319 85.7052 25.3768 85.7052C25.6217 85.7124 25.6217 85.3323 25.3768 85.3323Z" fill="#0C0A35"/>
<path d="M25.0743 84.1346C25.0671 84.1346 25.0598 84.1275 25.0526 84.1275C24.7645 84.0414 24.7645 84.5578 25.0526 84.4717C25.0598 84.4717 25.0671 84.4645 25.0743 84.4645C25.2399 84.4143 25.2399 84.1848 25.0743 84.1346Z" fill="#0C0A35"/>
<path d="M24.3756 82.808C24.0659 82.808 24.0659 83.2885 24.3756 83.2885C24.6926 83.2956 24.6926 82.808 24.3756 82.808Z" fill="#0C0A35"/>
<path d="M23.821 84.8733C23.5545 84.8733 23.5545 85.2892 23.821 85.2892C24.0947 85.2892 24.0947 84.8733 23.821 84.8733Z" fill="#0C0A35"/>
<path d="M23.1942 83.7044C22.8845 83.7044 22.8845 84.1849 23.1942 84.1849C23.504 84.1849 23.504 83.7044 23.1942 83.7044Z" fill="#0C0A35"/>
<path d="M22.013 84.1203C21.7825 84.1203 21.7825 84.4789 22.013 84.4789C22.2435 84.4789 22.2435 84.1203 22.013 84.1203Z" fill="#0C0A35"/>
<path d="M22.3586 82.7505C22.0849 82.7505 22.0849 83.1737 22.3586 83.1737C22.6323 83.1737 22.6323 82.7505 22.3586 82.7505Z" fill="#0C0A35"/>
<path d="M21.1342 83.0088C20.8101 83.0088 20.8101 83.5108 21.1342 83.5108C21.4584 83.5108 21.4584 83.0088 21.1342 83.0088Z" fill="#0C0A35"/>
<path d="M31.2402 82.0621C31.3914 81.2446 31.4707 80.2047 31.2114 79.4016C31.0313 78.8422 30.1813 78.9354 30.1741 79.5378C30.1669 80.4414 30.4118 81.2159 30.6855 82.0621C30.772 82.3131 31.1825 82.3562 31.2402 82.0621Z" fill="#F70032"/>
<path d="M35.5332 81.1728C35.5981 80.8286 35.454 80.5131 35.2595 80.2334C35.029 79.8963 34.8489 79.4589 34.532 79.1935C34.179 78.8995 33.6532 79.2653 33.8837 79.6884C34.0494 79.9896 34.3015 80.3051 34.5464 80.5561C34.7841 80.7999 35.0794 80.9792 35.3027 81.2374C35.3603 81.3091 35.5116 81.2732 35.5332 81.1728Z" fill="#F70032"/>
<path d="M26.2267 81.7968C26.3923 81.3378 26.5724 80.9003 26.6445 80.4127C26.6877 80.1187 26.6733 79.8103 26.7453 79.5234C26.9398 78.7704 25.7224 78.4692 25.6 79.2079C25.4559 80.0254 25.5928 81.0008 25.7657 81.7968C25.8305 82.0406 26.1546 82.0047 26.2267 81.7968Z" fill="#F70032"/>
<path d="M21.343 81.5888C21.6239 81.2231 21.7752 80.7426 21.8472 80.2908C21.9048 79.9036 22.0705 79.38 21.8544 79.0358C21.7247 78.835 21.4798 78.7131 21.2349 78.7848C21.2133 78.792 21.1917 78.7992 21.1701 78.8063C20.9756 78.8709 20.7667 79.0287 20.7307 79.2438C20.6659 79.6382 20.7019 80.004 20.7235 80.3984C20.7451 80.8071 20.7019 81.2374 20.9612 81.5888C21.0693 81.7323 21.2421 81.7251 21.343 81.5888Z" fill="#F70032"/>
<path d="M16.5025 81.1227C16.8842 80.9434 17.1219 80.5634 17.3524 80.2263C17.6045 79.8606 17.9143 79.4805 17.8999 79.0072C17.8927 78.6199 17.302 78.3976 17.1219 78.7992C16.805 79.4733 16.3368 80.1474 16.2071 80.8932C16.1711 81.0797 16.3368 81.2016 16.5025 81.1227Z" fill="#F70032"/>
<path d="M30.5703 78.419C30.2894 78.419 30.2894 78.8565 30.5703 78.8565C30.8512 78.8565 30.8512 78.419 30.5703 78.419Z" fill="#F70032"/>
<path d="M33.8044 78.5123C33.5235 78.5123 33.5235 78.9498 33.8044 78.9498C34.0926 78.9498 34.0926 78.5123 33.8044 78.5123Z" fill="#F70032"/>
<path d="M26.2555 78.2111C25.9962 78.2111 25.9962 78.6055 26.2555 78.6055C26.5148 78.6055 26.5148 78.2111 26.2555 78.2111Z" fill="#F70032"/>
<path d="M21.4223 78.3761C21.4295 78.3689 21.4367 78.3617 21.4439 78.3546C21.5015 78.3044 21.5015 78.1896 21.4439 78.1394C21.4367 78.1323 21.4295 78.1251 21.4223 78.1179C21.307 78.0175 21.1125 78.082 21.1125 78.247C21.1125 78.4119 21.307 78.4765 21.4223 78.3761Z" fill="#F70032"/>
<path d="M17.6766 77.9314C17.3524 77.9314 17.3524 78.4262 17.6766 78.4262C18.0007 78.4262 17.9935 77.9314 17.6766 77.9314Z" fill="#F70032"/>
<path d="M30.8297 80.1761C30.4191 80.1761 30.4191 80.8071 30.8297 80.8071C31.233 80.8 31.233 80.1761 30.8297 80.1761Z" fill="#0C0A35"/>
<path d="M34.604 80.0541C34.6256 80.0541 34.6472 80.0541 34.676 80.0541C34.6832 80.0541 34.6832 80.0469 34.676 80.0469C34.6544 80.0469 34.6328 80.0469 34.604 80.0541C34.604 80.0469 34.604 80.0541 34.604 80.0541Z" fill="#0C0A35"/>
<path d="M34.7049 79.8175C34.3808 79.8175 34.3808 80.3195 34.7049 80.3195C35.029 80.3195 35.029 79.8175 34.7049 79.8175Z" fill="#0C0A35"/>
<path d="M26.1619 79.968C25.7585 79.968 25.7585 80.592 26.1619 80.592C26.5653 80.592 26.5653 79.968 26.1619 79.968Z" fill="#0C0A35"/>
<path d="M21.3141 79.8318C20.8819 79.8318 20.8819 80.4988 21.3141 80.4988C21.7463 80.4988 21.7463 79.8318 21.3141 79.8318Z" fill="#0C0A35"/>
<path d="M17.093 79.4016C16.6392 79.4016 16.6392 80.0972 17.093 80.0972C17.5468 80.0972 17.5468 79.4016 17.093 79.4016Z" fill="#0C0A35"/>
<path d="M26.2339 79.4733C26.061 79.4733 26.061 79.7386 26.2339 79.7386C26.4068 79.7458 26.4068 79.4733 26.2339 79.4733Z" fill="#0C0A35"/>
<path d="M30.7576 79.7099C30.5559 79.7099 30.5559 80.0254 30.7576 80.0254C30.9593 80.0254 30.9593 79.7099 30.7576 79.7099Z" fill="#0C0A35"/>
<path d="M34.4169 79.7529C34.4241 79.7529 34.4313 79.7529 34.4313 79.7601C34.6546 79.8246 34.5609 79.4087 34.3808 79.5736C34.3736 79.5736 34.3736 79.5808 34.3664 79.588C34.316 79.6382 34.3448 79.7314 34.4169 79.7529Z" fill="#0C0A35"/>
<path d="M35.0003 80.3338C34.8274 80.3338 34.8274 80.5991 35.0003 80.5991C35.1731 80.5991 35.1731 80.3338 35.0003 80.3338Z" fill="#0C0A35"/>
<path d="M30.8944 80.9362C30.6711 80.9362 30.6711 81.2876 30.8944 81.2876C31.1249 81.2876 31.1249 80.9362 30.8944 80.9362Z" fill="#0C0A35"/>
<path d="M26.0467 80.6996C25.7802 80.6996 25.7802 81.1155 26.0467 81.1155C26.3204 81.1083 26.3204 80.6996 26.0467 80.6996Z" fill="#0C0A35"/>
<path d="M21.3574 79.3513C21.1485 79.3513 21.1485 79.674 21.3574 79.674C21.5662 79.674 21.5662 79.3513 21.3574 79.3513Z" fill="#0C0A35"/>
<path d="M21.3142 80.6637C21.1197 80.6637 21.1197 80.9578 21.3142 80.9578C21.5087 80.9578 21.5087 80.6637 21.3142 80.6637Z" fill="#0C0A35"/>
<path d="M17.1868 79.2724C17.2804 79.4804 17.6118 79.3011 17.4965 79.1003C17.3813 78.9067 17.1004 79.0788 17.1868 79.2724Z" fill="#0C0A35"/>
<path d="M16.8194 80.0972C16.6393 80.0972 16.6393 80.3697 16.8194 80.3697C16.9923 80.3697 16.9923 80.0972 16.8194 80.0972Z" fill="#0C0A35"/>
<path d="M29.6194 74.5608C29.569 74.4389 29.533 74.3242 29.3817 74.317C29.3457 74.317 29.3241 74.3385 29.3097 74.3672C29.2737 74.4676 29.3169 74.5393 29.3529 74.6325C29.4177 74.7975 29.6843 74.7258 29.6194 74.5608Z" fill="#0C0A35"/>
<path d="M27.7682 75.0485C27.8402 74.9051 27.8835 74.6899 27.7394 74.568C27.6746 74.5106 27.5377 74.4963 27.4945 74.5967C27.4369 74.7401 27.4729 74.8692 27.5161 75.0126C27.5449 75.1274 27.7106 75.1561 27.7682 75.0485Z" fill="#0C0A35"/>
<path d="M26.0323 74.7689C26.0683 74.69 26.1043 74.6111 26.1475 74.5394C26.2412 74.3816 25.9747 74.2382 25.9026 74.396C25.8594 74.4964 25.8162 74.5968 25.7874 74.7043C25.7441 74.8621 25.9674 74.9123 26.0323 74.7689Z" fill="#0C0A35"/>
<path d="M29.3025 72.5385C29.1944 72.5816 29.0359 72.7035 29.0504 72.8326C29.0504 72.8613 29.0648 72.8828 29.0936 72.8899C29.252 72.9401 29.3889 72.725 29.3745 72.5887C29.3673 72.56 29.3385 72.5242 29.3025 72.5385Z" fill="#0C0A35"/>
<path d="M27.6818 72.9329C27.8259 72.811 27.8259 72.517 27.7827 72.3521C27.7395 72.1871 27.4945 72.1871 27.4441 72.3521C27.4009 72.517 27.4009 72.811 27.545 72.9329C27.5882 72.9688 27.6386 72.9688 27.6818 72.9329Z" fill="#0C0A35"/>
<path d="M26.2052 73.1409C26.2052 72.9903 26.162 72.8326 26.0395 72.7322C25.9891 72.6963 25.9315 72.6748 25.8739 72.7107C25.8667 72.7178 25.8522 72.725 25.845 72.7322C25.809 72.7824 25.7946 72.8397 25.8234 72.8971C25.8811 73.0047 25.9819 73.0836 26.0467 73.184C26.09 73.2557 26.2052 73.227 26.2052 73.1409Z" fill="#0C0A35"/>
<path d="M28.6255 74.8979C28.7912 74.8119 28.7407 74.5681 28.6903 74.4246C28.6255 74.2382 28.3302 74.3171 28.3878 74.5035C28.431 74.6326 28.4382 74.8047 28.5535 74.8908C28.5751 74.9123 28.6039 74.9123 28.6255 74.8979Z" fill="#0C0A35"/>
<path d="M26.7382 74.9266C26.7886 74.8262 26.9831 74.3385 26.731 74.3528C26.5941 74.36 26.5725 74.5321 26.5509 74.6325C26.5293 74.7616 26.5725 74.8764 26.6878 74.9481C26.7094 74.9552 26.731 74.9481 26.7382 74.9266Z" fill="#0C0A35"/>
<path d="M28.5894 72.3091C28.3517 72.3162 28.2076 72.6318 28.2076 72.8397C28.2076 72.9617 28.3445 73.0405 28.4525 72.976C28.6182 72.8828 28.7263 72.6031 28.7047 72.4166C28.6903 72.3593 28.6542 72.3019 28.5894 72.3091Z" fill="#0C0A35"/>
<path d="M26.947 72.9042C27.0551 72.7178 27.0335 72.3807 26.8102 72.2803C26.7093 72.2373 26.6013 72.266 26.5653 72.3808C26.5004 72.6031 26.7021 72.768 26.8246 72.9186C26.8606 72.9616 26.9254 72.9473 26.947 72.9042Z" fill="#0C0A35"/>
<path d="M30.6999 73.5569C30.6999 73.6214 30.6495 73.6788 30.5991 73.7218C30.1237 74.1521 29.497 74.3959 28.8703 74.5178C28.2365 74.6398 27.5882 74.6398 26.9471 74.6469C26.5149 74.6469 25.2399 74.2668 24.7573 73.9154C25.5137 73.184 26.5221 72.725 27.5666 72.6246C28.611 72.5242 29.6915 72.7967 30.5631 73.3776C30.6279 73.4134 30.6999 73.4708 30.6999 73.5569Z" fill="white"/>
<path d="M28.366 73.4565C28.1932 73.2485 27.8978 73.1409 27.6313 73.1983C27.3648 73.2557 27.1343 73.4637 27.0551 73.7218C27.0407 73.7792 27.0334 73.8437 27.0334 73.9083C27.0479 74.2669 27.8258 74.6182 28.3444 74.1162C28.5173 73.9441 28.5245 73.6501 28.366 73.4565Z" fill="#0C0A35"/>
<path d="M27.761 54.108C27.8042 54.0865 27.8403 54.065 27.8835 54.0435C28.9135 53.5128 28.4669 51.7128 27.2784 51.8204C27.2352 51.8275 27.192 51.8276 27.1416 51.8347C25.1103 52.014 25.9962 55.0116 27.761 54.108Z" fill="#F70032"/>
<path d="M37.5286 53.9073C36.1168 53.9073 36.1168 56.0802 37.5286 56.0802C38.9404 56.0802 38.9404 53.9073 37.5286 53.9073Z" fill="#F70032"/>
<path d="M35.2667 55.3703C34.3519 55.7002 33.6388 56.1806 32.8897 56.7902C32.2774 57.2778 33.185 58.2317 33.7685 57.6579C34.3303 57.1058 34.8778 56.4747 35.5837 56.1089C35.9799 55.8938 35.6989 55.2125 35.2667 55.3703Z" fill="#990028"/>
<path d="M27.1055 54.8611C26.947 55.1981 26.8822 55.5638 26.8174 55.9224C26.7309 56.3886 26.6085 56.8403 26.5436 57.3137C26.4284 58.2244 28.0707 58.2531 27.9843 57.3137C27.9483 56.8977 27.8978 56.4818 27.8762 56.0658C27.8546 55.6499 27.8042 55.2125 27.5665 54.8611C27.4656 54.7105 27.1919 54.6674 27.1055 54.8611Z" fill="#990028"/>
<path d="M19.4557 55.6356C19.643 55.8364 19.7943 56.2738 19.96 56.5392C20.0392 56.6683 20.1184 56.8117 20.1977 56.9479C20.2409 57.0196 20.2769 57.0985 20.3129 57.1702C20.2337 57.0196 20.3706 57.2993 20.3922 57.3567C20.5362 57.6507 20.9252 57.7798 21.2277 57.6938C21.6455 57.579 21.8112 57.1846 21.7464 56.7902C21.6671 56.324 21.1773 56.0515 20.8316 55.8005C20.6659 55.6858 20.529 55.5137 20.3706 55.3918C20.1761 55.2412 19.9888 55.191 19.7727 55.1049C19.4485 54.9758 19.2541 55.4204 19.4557 55.6356Z" fill="#990028"/>
<path d="M30.9737 60.6627C30.9593 60.6555 30.9521 60.6555 30.9377 60.6483C30.6567 60.5408 30.4406 60.8994 30.5703 61.1288C30.5775 61.1432 30.5847 61.1503 30.5919 61.1647C30.7 61.3511 30.9737 61.387 31.125 61.2364C31.3194 61.0356 31.2042 60.7488 30.9737 60.6627Z" fill="#990028"/>
<path d="M29.5258 60.6341C29.5258 60.6341 29.5186 60.6412 29.5186 60.6484C29.389 60.7918 29.389 60.9783 29.5186 61.1217C29.5186 61.1289 29.5258 61.1289 29.5258 61.1361C29.7347 61.3727 30.1309 61.1791 30.1309 60.8851C30.1237 60.591 29.7347 60.3974 29.5258 60.6341Z" fill="#990028"/>
<path d="M28.7623 60.5121C28.2869 60.5121 28.2869 61.2507 28.7623 61.2507C29.2377 61.2507 29.2377 60.5121 28.7623 60.5121Z" fill="#990028"/>
<path d="M27.7538 60.5839C27.3216 60.5839 27.3216 61.258 27.7538 61.258C28.186 61.2508 28.186 60.5839 27.7538 60.5839Z" fill="#990028"/>
<path d="M26.7814 60.6914C26.3492 60.6914 26.3492 61.3583 26.7814 61.3583C27.2064 61.3512 27.2064 60.6914 26.7814 60.6914Z" fill="#990028"/>
<path d="M25.9099 60.799C25.5281 60.799 25.5281 61.3798 25.9099 61.3798C26.2844 61.3798 26.2844 60.799 25.9099 60.799Z" fill="#990028"/>
<path d="M25.0095 60.842C24.9951 60.8348 24.9807 60.8348 24.9662 60.8276C24.7502 60.7487 24.5269 60.9496 24.5269 61.1575C24.5269 61.3727 24.7502 61.5663 24.9662 61.4874C24.9807 61.4802 24.9951 61.4802 25.0095 61.4731C25.3264 61.3655 25.3264 60.9496 25.0095 60.842Z" fill="#990028"/>
<path d="M23.7273 60.8635C23.259 60.8635 23.259 61.5878 23.7273 61.5878C24.2027 61.5878 24.2027 60.8635 23.7273 60.8635Z" fill="#990028"/>
<path d="M22.7045 61.0428C22.3299 61.0428 22.3299 61.6237 22.7045 61.6237C23.0863 61.6237 23.0863 61.0428 22.7045 61.0428Z" fill="#990028"/>
<path d="M27.2928 56.6898C27.0695 56.6898 26.8822 56.8762 26.8822 57.0986C26.8822 57.3209 27.0695 57.5073 27.2928 57.5073C27.5161 57.5073 27.7034 57.3209 27.7034 57.0986C27.7034 56.8762 27.5161 56.6898 27.2928 56.6898Z" fill="#F70032"/>
<path d="M8.85276 53.4124C8.52862 53.0252 7.07357 51.1821 7.26806 50.716C7.37611 50.4435 7.63542 50.2642 7.89474 50.1208C19.744 43.6378 32.6449 38.6968 44.1483 31.884C44.3644 31.7549 44.5877 31.6258 44.8326 31.6186C45.0487 31.6114 45.2576 31.7047 45.4593 31.7979C47.6131 32.7804 49.9037 33.9278 50.9697 36.0362C51.0778 36.2513 51.1786 36.488 51.1498 36.7246C51.1138 37.0689 50.8689 37.3701 50.5808 37.5709C45.4665 41.1924 40.8781 43.5303 33.4012 47.1446C27.1704 50.1566 19.7224 52.7885 13.6573 56.1089C13.2395 56.3384 12.7785 56.5822 12.3103 56.4961C11.8421 56.4029 9.73875 54.4666 8.85276 53.4124Z" fill="#990028"/>
<path d="M33.3363 56.7256C33.1922 56.7758 33.0842 56.8691 33.041 57.0197C32.9689 57.285 33.1706 57.5504 33.4443 57.5504C33.6748 57.5504 33.8621 57.3639 33.8621 57.1344C33.8693 56.8691 33.5956 56.6324 33.3363 56.7256Z" fill="#F70032"/>
<path d="M21.4151 56.8404C21.4079 56.826 21.4007 56.8189 21.3935 56.8045C21.307 56.6539 21.1269 56.5822 20.9613 56.6324C20.7884 56.6826 20.6948 56.826 20.6803 56.9982C20.6803 57.0125 20.6803 57.0269 20.6803 57.034C20.6587 57.2922 20.9469 57.4787 21.1774 57.4141C21.4295 57.3496 21.5375 57.0627 21.4151 56.8404Z" fill="#F70032"/>
<path d="M32.4863 57.8659C32.3783 57.9591 32.263 58.0308 32.155 58.1241C32.0541 58.2173 31.9173 58.332 31.9245 58.4826C31.9245 58.5544 31.9893 58.6261 32.0685 58.6261C32.3639 58.6046 32.4935 58.1958 32.6376 57.9878C32.7024 57.8874 32.5655 57.8014 32.4863 57.8659Z" fill="#F70032"/>
<path d="M33.0337 58.1384C32.9905 58.1671 32.9329 58.1815 32.8825 58.2101C32.8321 58.2388 32.7888 58.289 32.7456 58.3249C32.6592 58.4038 32.5655 58.5329 32.5295 58.6476C32.4719 58.8484 32.6952 59.0062 32.8681 58.9058C32.9761 58.8484 33.077 58.705 33.1058 58.583C33.1202 58.5257 33.1274 58.4683 33.1418 58.4109C33.149 58.3679 33.1346 58.2962 33.149 58.2603C33.1922 58.1886 33.113 58.0739 33.0337 58.1384Z" fill="#F70032"/>
<path d="M32.2774 57.3997C32.1334 57.3926 32.0325 57.4069 31.8957 57.4715C31.7588 57.536 31.6291 57.6292 31.5643 57.7655C31.4923 57.9161 31.6147 58.1599 31.8092 58.081C31.9389 58.0308 32.0325 57.9519 32.1334 57.8515C32.1766 57.8085 32.2198 57.7583 32.263 57.7081C32.3062 57.6507 32.3207 57.5934 32.3567 57.536C32.3855 57.4715 32.3423 57.3997 32.2774 57.3997Z" fill="#F70032"/>
<path d="M27.9196 57.9304C27.8619 58.0021 27.8259 58.0451 27.8115 58.1384C27.7899 58.2388 27.8115 58.3679 27.8403 58.4611C27.9124 58.6547 28.2365 58.6978 28.2797 58.4611C28.3229 58.2316 28.2437 58.0237 28.042 57.9089C28.0132 57.8946 27.9556 57.8946 27.9196 57.9304Z" fill="#F70032"/>
<path d="M27.156 58.2029C27.0767 58.289 27.0767 58.4181 27.0983 58.5328C27.12 58.6476 27.0911 58.7695 27.1416 58.8771C27.156 58.9201 27.2136 58.9488 27.2568 58.9416C27.6026 58.9201 27.5521 58.2962 27.3 58.1814C27.2568 58.1599 27.192 58.1599 27.156 58.2029Z" fill="#F70032"/>
<path d="M26.7022 58.1025C26.6229 58.1455 26.5509 58.2388 26.4933 58.3033C26.4213 58.3894 26.342 58.4754 26.2988 58.583C26.2556 58.6977 26.3924 58.8483 26.5149 58.7981C26.731 58.7121 26.9543 58.3678 26.8246 58.1384C26.7958 58.0953 26.7382 58.081 26.7022 58.1025Z" fill="#F70032"/>
<path d="M21.7753 57.7368C21.7249 57.9519 21.7969 58.2316 21.9986 58.3535C22.1066 58.4181 22.2795 58.3607 22.3011 58.2316C22.3515 57.9663 22.1426 57.7368 21.8977 57.6651C21.8473 57.6507 21.7825 57.6794 21.7753 57.7368Z" fill="#F70032"/>
<path d="M22.1714 57.3926C22.2506 57.4787 22.3299 57.5432 22.4379 57.6006C22.582 57.6794 22.6828 57.7297 22.8413 57.6579C22.9638 57.6006 22.9566 57.4428 22.8845 57.3496C22.7333 57.1774 22.4235 57.2563 22.2218 57.285C22.1642 57.2922 22.1282 57.3496 22.1714 57.3926Z" fill="#F70032"/>
<path d="M21.1485 58.0739C21.1485 58.1814 21.1197 58.289 21.1053 58.3894C21.0621 58.6763 21.5015 58.6835 21.4727 58.4396C21.4582 58.2819 21.4294 58.1528 21.3358 58.0237C21.2782 57.952 21.1485 57.9735 21.1485 58.0739Z" fill="#F70032"/>
<path d="M32.1046 53.2117C31.8309 53.2117 31.8309 53.6348 32.1046 53.6348C32.3783 53.6348 32.3783 53.2117 32.1046 53.2117Z" fill="#F70032"/>
<path d="M35.346 50.171C35.0219 50.171 35.0219 50.673 35.346 50.673C35.6774 50.673 35.6774 50.171 35.346 50.171Z" fill="#F70032"/>
<path d="M40.2226 51.0962C39.848 51.0962 39.848 51.677 40.2226 51.677C40.5971 51.6842 40.5971 51.0962 40.2226 51.0962Z" fill="#F70032"/>
<path d="M40.979 54.7894C40.5972 54.7894 40.5972 55.3702 40.979 55.3702C41.3607 55.3774 41.3607 54.7894 40.979 54.7894Z" fill="#F70032"/>
<path d="M32.9617 49.8268C32.9689 49.8196 32.9689 49.8053 32.9761 49.7981C33.0769 49.5758 32.8753 49.375 32.652 49.4754C32.6448 49.4826 32.6303 49.4825 32.6231 49.4897C32.4719 49.5543 32.4719 49.7766 32.5727 49.877C32.6736 49.9774 32.8969 49.9774 32.9617 49.8268Z" fill="#F70032"/>
<path d="M28.6686 50.2857C28.2508 50.2857 28.2508 50.9311 28.6686 50.9311C29.0863 50.9311 29.0863 50.2857 28.6686 50.2857Z" fill="#F70032"/>
<path d="M43.3632 49.7048C43.356 49.7048 43.3488 49.712 43.3344 49.712C43.3848 49.7192 43.4424 49.7263 43.5 49.7335C43.4928 49.7335 43.4856 49.7264 43.4784 49.7264C43.2912 49.6331 43.1039 49.8196 43.1975 50.006C43.2191 50.0562 43.2551 50.0921 43.3056 50.1064C43.4352 50.1638 43.5865 50.1279 43.6297 49.9773C43.6801 49.8052 43.5217 49.669 43.3632 49.7048Z" fill="#F70032"/>
<path d="M40.8204 48.0196C40.8132 48.0196 40.806 48.0267 40.7916 48.0267C40.8492 48.0339 40.8996 48.0411 40.9572 48.0483C40.95 48.0411 40.9428 48.0411 40.9356 48.0411C40.7555 47.9479 40.5611 48.1343 40.6547 48.3208C40.6763 48.371 40.7123 48.4068 40.7627 48.4212C40.8924 48.4786 41.0437 48.4427 41.0869 48.2921C41.1373 48.12 40.9788 47.9837 40.8204 48.0196Z" fill="#F70032"/>
<path d="M44.7677 52.7168C44.7605 52.7168 44.7533 52.724 44.7389 52.724C44.7965 52.7311 44.847 52.7383 44.9046 52.7455C44.8974 52.7455 44.8902 52.7383 44.883 52.7383C44.6957 52.6451 44.5084 52.8315 44.6021 53.018C44.6309 53.0682 44.6597 53.104 44.7101 53.1184C44.8398 53.1758 44.991 53.1399 45.0342 52.9893C45.0847 52.8172 44.9262 52.6809 44.7677 52.7168Z" fill="#F70032"/>
<path d="M47.5482 49.7192C47.541 49.7192 47.5337 49.7192 47.5193 49.7264C47.577 49.7335 47.6274 49.7407 47.685 49.7479C47.6778 49.7479 47.6706 49.7407 47.6634 49.7407C47.4833 49.6475 47.2888 49.8339 47.3825 50.0204C47.4041 50.0706 47.4401 50.1065 47.4905 50.128C47.6202 50.1782 47.7714 50.1423 47.8147 49.9989C47.8579 49.8196 47.7066 49.6833 47.5482 49.7192Z" fill="#F70032"/>
<path d="M37.2476 47.9909C36.9666 47.9909 36.9666 48.4212 37.2476 48.4212C37.5213 48.4212 37.5213 47.9909 37.2476 47.9909Z" fill="#F70032"/>
<path d="M37.0315 52.5591C36.7506 52.5591 36.7506 52.9893 37.0315 52.9893C37.3124 52.9893 37.3124 52.5591 37.0315 52.5591Z" fill="#F70032"/>
<path d="M23.0429 53.4985C22.7764 53.4985 22.7764 53.9072 23.0429 53.9072C23.3094 53.9072 23.3094 53.4985 23.0429 53.4985Z" fill="#F70032"/>
<path d="M16.8554 56.3885C16.5889 56.3885 16.5889 56.7973 16.8554 56.7973C17.1219 56.7973 17.1219 56.3885 16.8554 56.3885Z" fill="#F70032"/>
<path d="M43.5864 47.2522C43.1902 47.2522 42.8589 47.5821 42.8589 47.9765C42.8589 48.371 43.1902 48.7008 43.5864 48.7008C43.9826 48.7008 44.3139 48.371 44.3139 47.9765C44.3139 47.5749 43.9826 47.2522 43.5864 47.2522Z" fill="#990028"/>
<path d="M44.2059 46.2769C44.1987 46.2697 44.1987 46.2554 44.1915 46.2482C44.0979 46.0331 43.8025 45.947 43.5936 46.0044C43.3055 46.0833 43.1614 46.3701 43.2263 46.6498C43.2263 46.657 43.2335 46.6713 43.2335 46.6785C43.2983 46.9582 43.6225 47.1231 43.889 47.0514C44.2491 46.951 44.3428 46.5853 44.2059 46.2769Z" fill="#990028"/>
<path d="M36.8731 43.8889C36.8659 43.8746 36.8587 43.8674 36.8515 43.853C36.7722 43.7024 36.5561 43.6451 36.4121 43.7383C36.3617 43.7742 36.3328 43.8028 36.2968 43.853C36.2032 43.9965 36.2608 44.2116 36.4121 44.2905C36.4265 44.2977 36.4337 44.3048 36.4481 44.312C36.7218 44.4626 37.0171 44.1686 36.8731 43.8889Z" fill="#990028"/>
<path d="M29.4898 42.469C29.4826 42.4546 29.4754 42.4475 29.4682 42.4331C29.3889 42.2825 29.1728 42.2252 29.0288 42.3184C28.9783 42.3542 28.9423 42.3829 28.9135 42.4331C28.8199 42.5766 28.8775 42.7917 29.0288 42.8706C29.0432 42.8778 29.0504 42.8849 29.0648 42.8921C29.3385 43.0427 29.641 42.7415 29.4898 42.469Z" fill="#990028"/>
<path d="M29.5618 43.8817C29.5546 43.8817 29.5474 43.8745 29.5402 43.8673C29 43.5446 28.2941 43.9606 28.2941 44.5845C28.2941 44.8785 28.4525 45.151 28.7046 45.2944C29.0504 45.4952 29.4178 45.402 29.7131 45.1654C29.7203 45.1582 29.7275 45.1582 29.7275 45.151C29.886 45.0219 29.9652 44.7709 29.9652 44.5773C29.9652 44.2905 29.8139 44.0251 29.5618 43.8817Z" fill="#990028"/>
<path d="M39.495 34.0856C39.423 34.186 39.3797 34.3079 39.3437 34.4227C39.1925 34.8458 39.4374 35.3478 39.8119 35.5629C40.1937 35.7852 40.7339 35.735 41.0437 35.4051C41.0581 35.3836 41.0725 35.3693 41.0941 35.3549C41.0221 35.4123 40.9572 35.4625 40.8852 35.5127C40.8924 35.5055 40.9068 35.4984 40.914 35.4912C41.4975 35.1685 41.5911 34.3294 41.1229 33.8704C40.9284 33.6768 40.6619 33.5693 40.3882 33.5693C40.2009 33.5693 40.028 33.6194 39.8623 33.7127C39.7111 33.8059 39.5886 33.9278 39.495 34.0856Z" fill="#F70032"/>
<path d="M18.9444 54.5886C19.0164 54.4882 19.0597 54.3735 19.0957 54.2515C19.2469 53.8284 19.002 53.3264 18.6275 53.1113C18.2457 52.889 17.7055 52.9392 17.3957 53.2691C17.3813 53.2906 17.3669 53.3049 17.3453 53.3121C17.4173 53.2619 17.4822 53.2045 17.5542 53.1543C17.5398 53.1615 17.5326 53.1687 17.5182 53.1758C16.9347 53.4985 16.8411 54.3376 17.3093 54.7965C17.5038 54.9902 17.7703 55.0978 18.044 55.0978C18.2313 55.0978 18.4042 55.0475 18.5698 54.9543C18.7283 54.8683 18.8508 54.7464 18.9444 54.5886Z" fill="#F70032"/>
<path d="M8.96073 48.414C8.58617 48.414 8.58617 48.9949 8.96073 48.9949C9.3353 49.002 9.3353 48.414 8.96073 48.414Z" fill="#F70032"/>
<path d="M10.3437 47.245C9.9691 47.245 9.9691 47.8259 10.3437 47.8259C10.7254 47.8331 10.7254 47.245 10.3437 47.245Z" fill="#F70032"/>
<path d="M40.979 31.4107C40.5972 31.4107 40.5972 31.9915 40.979 31.9915C41.3607 31.9915 41.3607 31.4107 40.979 31.4107Z" fill="#F70032"/>
<path d="M28.4741 48.2993C30.3614 48.2993 31.9389 46.7288 31.9389 44.8499C31.9389 42.971 30.3614 41.4004 28.4741 41.4004C26.5869 41.4004 25.0094 42.971 25.0094 44.8499C25.0094 46.7288 26.5869 48.2993 28.4741 48.2993Z" fill="#F70032"/>
<path d="M22.4523 48.7941C23.115 48.7941 23.6697 48.2419 23.6697 47.5821C23.6697 46.9223 23.115 46.3701 22.4523 46.3701C21.7896 46.3701 21.235 46.9223 21.235 47.5821C21.235 48.2419 21.7896 48.7941 22.4523 48.7941Z" fill="#F70032"/>
<path d="M18.4545 49.8483C19.4341 49.8483 19.4341 48.3351 18.4545 48.3351C17.4748 48.328 17.4748 49.8483 18.4545 49.8483Z" fill="#F70032"/>
<path d="M34.6833 43.7239C36.3617 43.7239 36.3617 41.135 34.6833 41.135C33.005 41.135 33.005 43.7239 34.6833 43.7239Z" fill="#F70032"/>
<path d="M38.2417 41.0275C38.8108 41.0275 38.8108 40.1526 38.2417 40.1526C37.6727 40.1454 37.6727 41.0275 38.2417 41.0275Z" fill="#F70032"/>
<path d="M28.4237 45.9901C29.922 45.9901 29.922 43.6809 28.4237 43.6809C26.9255 43.6809 26.9255 45.9901 28.4237 45.9901Z" fill="#191956"/>
<path d="M28.5606 43.4227C29.2953 43.4227 29.2953 42.2896 28.5606 42.2896C27.8258 42.2825 27.8258 43.4227 28.5606 43.4227Z" fill="#191956"/>
<path d="M26.8534 43.8171C27.5521 43.8171 27.5521 42.7414 26.8534 42.7414C26.1547 42.7414 26.1547 43.8171 26.8534 43.8171Z" fill="#191956"/>
<path d="M26.2844 45.5455C27.0192 45.5455 27.0192 44.4124 26.2844 44.4124C25.5497 44.4124 25.5497 45.5455 26.2844 45.5455Z" fill="#191956"/>
<path d="M27.4225 47.1375C28.0131 47.1375 28.0131 46.2196 27.4225 46.2196C26.8318 46.2196 26.8318 47.1375 27.4225 47.1375Z" fill="#191956"/>
<path d="M29.5979 46.4992C29.5763 46.4777 29.5475 46.449 29.5259 46.4275C29.389 46.2913 29.1513 46.2913 29.0144 46.4275C28.9928 46.449 28.964 46.4777 28.9424 46.4992C28.6615 46.7861 28.8632 47.2809 29.2665 47.2809C29.6771 47.2809 29.8788 46.7789 29.5979 46.4992Z" fill="#191956"/>
<path d="M30.4118 45.9399C31.1106 45.9399 31.1106 44.8642 30.4118 44.8642C29.7131 44.8642 29.7131 45.9399 30.4118 45.9399Z" fill="#191956"/>
<path d="M30.2678 44.1614C31.0457 44.1614 31.0457 42.9637 30.2678 42.9637C29.497 42.9637 29.497 44.1614 30.2678 44.1614Z" fill="#191956"/>
<path d="M14.6009 51.0029C14.889 51.6124 15.8615 51.1893 15.6814 50.5511C15.4653 49.7407 14.2335 50.214 14.6009 51.0029Z" fill="#191956"/>
<path d="M12.9081 52.4371C13.9381 52.4371 13.9381 50.8451 12.9081 50.8451C11.8708 50.8451 11.8708 52.4371 12.9081 52.4371Z" fill="#191956"/>
<path d="M10.6318 53.1471C11.3017 53.1471 11.3017 52.1144 10.6318 52.1144C9.96192 52.1144 9.96192 53.1471 10.6318 53.1471Z" fill="#191956"/>
<path d="M41.5912 38.7398C41.5696 38.7757 41.5407 38.8115 41.5191 38.8402C41.9441 38.3024 41.3102 37.6641 40.77 38.0944C40.6043 38.2235 40.5467 38.4028 40.5683 38.6036C40.6403 39.163 41.3967 39.3279 41.5912 38.7398Z" fill="#191956"/>
<path d="M43.5072 38.2378C44.5013 38.2378 44.5013 36.7032 43.5072 36.7032C42.5132 36.7032 42.5132 38.2378 43.5072 38.2378Z" fill="#191956"/>
<path d="M45.7835 36.8538C46.6335 36.8538 46.6335 35.5414 45.7835 35.5414C44.9335 35.5342 44.9335 36.8538 45.7835 36.8538Z" fill="#191956"/>
<path d="M50.307 71.6421C50.307 71.4987 50.3646 71.2907 50.3646 71.1401C50.3646 70.9895 50.3646 70.8461 50.3502 70.6955C50.2926 70.1935 50.1125 69.713 49.7379 69.3831C50.0765 69.3616 50.9408 69.3616 51.2794 69.3831C50.9048 69.7202 50.7175 70.2007 50.6671 70.6955C50.6527 70.8389 50.6527 70.9895 50.6527 71.1401C50.6527 71.2835 50.7103 71.4915 50.7103 71.6421H50.307Z" fill="#0C0A35"/>
<path d="M50.4367 71.09C50.1341 70.631 49.6011 70.3012 49.0465 70.3227C48.4918 70.3442 47.9516 70.7458 47.8435 71.2837C47.7499 71.757 47.9804 72.2518 48.3117 72.6032C48.6431 72.9618 49.0969 73.1912 49.5075 73.4637C49.9253 73.7363 50.5087 74.4175 50.5087 74.4175C50.5087 74.4175 51.1498 73.7578 51.5027 73.4853C51.8917 73.1912 52.3671 72.9689 52.6985 72.6104C53.0298 72.2518 53.2603 71.7641 53.1667 71.2908C53.0586 70.7458 52.5184 70.3442 51.9637 70.3299C51.4091 70.3083 50.8761 70.6382 50.5735 71.0972H50.4367V71.09Z" fill="#0C0A35"/>
<path d="M7.49135 15.9634C7.49135 16.1069 7.43372 16.3148 7.43372 16.4654C7.43372 16.616 7.43372 16.7595 7.44813 16.9101C7.50576 17.4121 7.68584 17.8925 8.0604 18.2224C7.72185 18.2439 6.86467 18.2439 6.51892 18.2224C6.89349 17.8854 7.08077 17.4121 7.13119 16.9101C7.1456 16.7666 7.1456 16.616 7.1456 16.4654C7.1456 16.322 7.08797 16.114 7.08797 15.9634H7.49135Z" fill="#0C0A35"/>
<path d="M7.36894 16.5157C7.67148 16.9818 8.20451 17.3045 8.75916 17.283C9.3138 17.2615 9.85404 16.8599 9.96209 16.3221C10.0557 15.8488 9.82523 15.3539 9.49388 15.0025C9.16253 14.644 8.70873 14.4145 8.29815 14.142C7.88037 13.8694 7.29691 13.1882 7.29691 13.1882C7.29691 13.1882 6.65583 13.8479 6.30287 14.1204C5.9139 14.4145 5.43849 14.6368 5.10714 14.9954C4.7758 15.3539 4.5453 15.8416 4.63894 16.3149C4.74699 16.8528 5.28722 17.2544 5.84187 17.2759C6.39651 17.2974 6.92955 16.9675 7.23208 16.5085H7.36894V16.5157Z" fill="#0C0A35"/>
<path d="M9.08329 4.11636V9.77457C9.08329 10.7642 8.85999 11.4527 8.41339 11.8399C7.96679 12.2272 7.36893 12.428 6.6342 12.428C6.23803 12.428 5.84185 12.3706 5.43848 12.263V11.4312C5.82745 11.5172 6.18761 11.5531 6.50455 11.5531C6.95835 11.5531 7.2969 11.4885 7.51299 11.3523C7.72909 11.216 7.87315 11.0439 7.94518 10.8288C8.01721 10.6136 8.05323 10.2622 8.05323 9.78175V4.11636H9.08329Z" fill="#0C0A35"/>
<path d="M48.9097 83.8836V78.2254C48.9097 77.2358 49.133 76.5473 49.5796 76.1601C50.0262 75.7728 50.624 75.572 51.3588 75.572C51.7549 75.572 52.1511 75.6294 52.5545 75.737V76.576C52.1655 76.49 51.8053 76.4541 51.4884 76.4541C51.0346 76.4541 50.6961 76.5186 50.48 76.6549C50.2639 76.7911 50.1198 76.9633 50.0478 77.1784C49.9757 77.3936 49.9397 77.7449 49.9397 78.2254V83.8836H48.9097Z" fill="#0C0A35"/>
<path d="M18.649 83.6326H8.68701C6.33157 83.6326 4.41553 81.6031 4.41553 79.1147V22.0592C4.41553 21.9875 4.47315 21.9301 4.54518 21.9301C4.61722 21.9301 4.68204 21.9875 4.68204 22.0592V79.1147C4.68204 81.4597 6.48284 83.3673 8.68701 83.3673H18.6562C18.7282 83.3673 18.7859 83.4247 18.7859 83.4964C18.7859 83.5753 18.7282 83.6326 18.649 83.6326Z" fill="#191956"/>
<path d="M46.5181 83.6326H36.376C36.304 83.6326 36.2463 83.5752 36.2463 83.5035C36.2463 83.4318 36.304 83.3744 36.376 83.3744H46.5253C46.5973 83.3744 46.6549 83.4318 46.6549 83.5035C46.6549 83.5752 46.5973 83.6326 46.5181 83.6326Z" fill="#191956"/>
<path d="M53.4476 66.3568C53.3756 66.3568 53.3108 66.2994 53.3108 66.2277V8.89254C53.3108 6.5475 51.51 4.6399 49.3058 4.6399H39.812C39.74 4.6399 39.6824 4.58253 39.6824 4.51082C39.6824 4.4391 39.74 4.37456 39.812 4.37456H49.3058C51.6613 4.37456 53.5773 6.40407 53.5773 8.89254V66.2277C53.5845 66.2923 53.5197 66.3568 53.4476 66.3568Z" fill="#191956"/>
<path d="M24.6565 4.63268H11.8925C11.8204 4.63268 11.7628 4.57531 11.7628 4.5036C11.7628 4.43188 11.8204 4.36734 11.8925 4.36734H24.6565C24.7285 4.36734 24.7934 4.42471 24.7934 4.5036C24.7862 4.57531 24.7285 4.63268 24.6565 4.63268Z" fill="#191956"/>
</svg>
