<svg width="58" height="88" viewBox="0 0 58 88" fill="none" xmlns="http://www.w3.org/2000/svg">
<path d="M53.0874 88H4.91257C2.20417 88 0 85.8125 0 83.1087V4.89128C0 2.19462 2.19697 0 4.91257 0H53.0874C55.7958 0 58 2.18745 58 4.89128V83.1159C57.9928 85.8125 55.7958 88 53.0874 88Z" fill="white"/>
<path d="M6.95822 42.4868C7.47684 43.6487 8.78783 43.9642 9.92593 44.0288C11.7771 44.1292 13.6212 43.8853 15.4652 43.6415C15.9622 43.5769 16.5817 43.3976 16.6825 42.8382C16.7185 42.6302 16.6753 42.4223 16.6321 42.2214C16.524 41.7696 16.4088 41.3178 16.2071 40.9018C15.6308 39.7041 14.4711 39.0299 13.3258 38.6211C11.7555 38.0617 9.99796 37.8968 8.5213 38.7215C7.90903 39.0586 7.36159 39.575 7.03745 40.2563C6.71331 40.9377 6.64848 41.7983 6.95822 42.4868Z" fill="#B70027"/>
<path d="M50.0693 45.0687C49.6227 43.9211 48.3333 43.5267 47.2024 43.4048C45.3656 43.1968 43.5 43.3187 41.656 43.4334C41.1517 43.4693 40.5323 43.5984 40.3882 44.1291C40.3378 44.3228 40.3666 44.5308 40.4026 44.7244C40.4818 45.1691 40.5755 45.6137 40.7484 46.0154C41.2526 47.2059 42.3691 47.9231 43.4928 48.3893C45.027 49.0204 46.7774 49.2858 48.2973 48.5901C48.924 48.3032 49.5074 47.837 49.8676 47.2059C50.2205 46.5676 50.3358 45.75 50.0693 45.0687Z" fill="#B70027"/>
<path d="M9.01113 36.1037C8.99672 35.8384 9.14078 35.5873 9.28485 35.3507C11.6475 31.5495 17.1291 29.1971 22.7044 28.5588C28.2796 27.9205 33.9629 28.7668 39.3941 29.9C40.3954 30.108 41.3966 30.3303 42.3042 30.7104C44.8253 31.7719 46.1795 33.8732 47.0583 35.9172C45.9274 36.0679 44.7389 36.2472 43.8889 36.8137C42.5852 37.6887 42.4987 39.159 42.5491 40.4643C42.7148 44.832 43.3199 49.1926 44.3427 53.5029C43.0101 53.797 41.5911 53.7898 40.2009 53.7826C31.7876 53.7396 23.3743 53.6965 14.9682 53.5101C14.7953 53.5029 14.6008 53.4957 14.4783 53.4025C14.3703 53.3236 14.3487 53.2089 14.3271 53.0941C13.4915 48.3319 14.2911 43.9642 13.0377 39.2522C12.9297 38.8578 14.997 37.9684 14.68 37.6385C14.2622 37.201 13.5924 36.9428 12.9513 36.7062C11.7123 36.2472 10.3149 35.7738 9.01113 36.1037Z" fill="#141247"/>
<path d="M49.0032 50.5553C49.0176 50.835 48.8736 51.1003 48.7295 51.3513C46.3669 55.3461 40.8853 57.8133 35.31 58.4803C29.7347 59.1473 24.0514 58.2651 18.6202 57.0674C17.619 56.8451 16.6178 56.6156 15.7102 56.2139C13.189 55.1023 11.8348 52.8933 10.9561 50.7417C12.087 50.5839 13.2755 50.3975 14.1254 49.8022C15.4292 48.8842 15.5157 47.335 15.4652 45.9652C15.2996 41.3751 14.6945 36.7994 13.6717 32.2739C15.0042 31.9655 16.4233 31.9727 17.8135 31.9799C26.2268 32.0229 34.6401 32.0731 43.0462 32.2667C43.2191 32.2739 43.4136 32.2811 43.536 32.3743C43.6441 32.4532 43.6657 32.5823 43.6873 32.6971C44.5229 37.7031 43.7233 42.286 44.9767 47.2346C45.0847 47.6506 43.0174 48.583 43.3343 48.9344C43.7521 49.3934 44.422 49.6659 45.0631 49.917C46.302 50.4046 47.7067 50.8995 49.0032 50.5553Z" fill="#141247"/>
<path d="M45.0919 55.2887C44.3932 55.5183 26.9759 46.998 24.0802 45.248C20.349 42.9888 9.92597 39.7184 9.3065 39.202C8.68703 38.6928 8.23322 37.9183 8.31246 37.115C8.36288 36.6058 8.62219 36.1468 8.88151 35.7093C9.86834 34.0382 11.1937 32.2954 13.117 31.9942C15.2635 31.6571 16.9851 33.5147 18.9011 34.5546C28.0348 39.5033 35.7206 42.6231 41.267 45.1691C45.733 47.2203 46.6766 47.292 49.0248 48.6403C49.3057 48.8053 49.6659 50.0963 48.5998 51.6884C46.9863 54.0982 46.9863 54.6648 45.0919 55.2887Z" fill="#0C0A35"/>
<path d="M22.6324 30.6244C23.3455 30.6674 24.0803 30.6961 24.743 30.4379C25.312 30.2156 25.773 29.7996 26.2268 29.398C26.9327 28.7668 27.6386 28.1357 28.2653 27.4328C29.9725 25.5179 31.0601 23.1081 31.6148 20.6123C31.73 20.0959 31.8165 19.5365 31.6076 19.0488C31.3051 18.3388 30.4983 18.0161 29.7636 17.765C28.7407 17.4136 27.6963 17.055 26.6086 17.0191C25.9603 16.9976 25.312 17.098 24.6637 17.1984C23.6193 17.3634 22.582 17.5212 21.5375 17.6861C21.1054 17.7507 20.9469 17.9156 20.6083 18.1954C19.9961 18.7117 19.7295 19.558 19.7368 20.3541C19.7368 20.5621 19.7295 20.7844 19.6287 20.9637C19.5207 21.143 19.3406 21.265 19.1605 21.3797C18.0368 22.1328 17.1004 23.1584 16.4521 24.3417C16.2936 24.6358 16.1496 24.9872 16.2864 25.2884C16.4305 25.604 16.8267 25.7331 17.1796 25.7187C17.5326 25.7044 17.8711 25.5968 18.2241 25.604C18.2097 26.357 18.1953 27.1029 18.1809 27.856C18.1737 28.3365 18.1665 28.8385 18.4042 29.2545C18.6779 29.7422 19.2181 30.0076 19.7512 30.1797C20.6804 30.4809 21.66 30.5598 22.6324 30.6244Z" fill="#FFD6A1"/>
<path d="M18.5337 28.8672C17.7413 28.9461 17.3523 29.7637 17.1795 30.5383C17.093 30.9184 17.0642 31.3129 17.0642 31.7001C17.0642 33.0198 17.3451 34.3681 18.0799 35.4654C18.8146 36.5627 20.0607 37.366 21.3789 37.366C21.9912 37.366 22.5963 37.201 23.1725 37.0146C25.636 36.2113 27.9482 34.8773 29.7274 32.9983C31.4994 31.1192 32.7095 28.6664 32.8896 26.0917C32.904 25.9411 32.8896 25.7546 32.7599 25.6757C32.3854 24.6931 31.6434 24.0333 30.6638 23.6389C29.6842 23.2444 28.5389 23.2803 27.5881 23.7321C27.1054 23.9616 26.666 24.2915 26.3995 24.7505C26.0826 25.2884 26.025 25.9339 25.9097 26.5507C25.7945 27.1675 25.5712 27.8129 25.0525 28.1644C24.7644 28.358 24.4187 28.4297 24.0801 28.5015C23.2013 28.6736 22.3153 28.8027 21.4293 28.8816L18.5337 28.8672Z" fill="#0C0A35"/>
<path d="M25.0671 21.9606C24.2315 21.8674 23.4464 21.5231 22.6829 21.1789C23.2663 20.6553 24.0875 20.5191 24.8654 20.4186C26.4141 20.2178 28.0708 20.1174 29.4466 20.849C28.0564 21.4873 26.587 22.1327 25.0671 21.9606Z" fill="white"/>
<path d="M34.9786 16.4167C35.346 16.2302 35.5765 15.8501 35.7782 15.4915C36.2464 14.638 36.6786 13.7702 37.0747 12.8809C37.2116 12.5653 37.4421 12.6299 37.3701 12.3C37.298 11.9772 36.9451 11.3174 36.7002 11.0879C36.3832 10.7939 35.6989 10.0552 35.382 9.76111C34.885 9.3021 33.2715 8.23348 32.688 8.03266C30.7648 7.3585 28.4453 7.23657 26.4861 7.79599C25.8018 7.98963 25.1535 8.27651 24.5196 8.59207C23.3887 9.16583 22.2578 9.93323 21.7752 11.1023C21.3214 12.1996 21.5159 13.4403 21.7104 14.6094C22.0849 15.0325 22.265 15.4915 22.6396 15.9218C22.9205 16.2374 23.2086 16.5601 23.5904 16.7466C23.9145 16.9116 24.2891 16.9618 24.6565 17.0048C27.6602 17.3634 30.7143 17.3634 33.7181 16.9976C34.2151 16.9402 34.7985 16.89 34.9786 16.4167Z" fill="#0C0A35"/>
<path d="M26.8606 6.19667C26.6589 6.2397 26.4717 6.34011 26.3132 6.4692C26.0899 6.63416 25.8954 6.86366 25.8522 7.1362C25.8018 7.44459 25.9674 7.76733 26.2195 7.9538C26.4717 8.14027 26.7958 8.21199 27.1127 8.21199C27.3648 8.21199 27.6386 8.15462 27.8331 7.98966C27.9267 7.91077 28.0059 7.80319 28.0564 7.68844C28.222 7.32984 28.1716 6.88518 27.9267 6.57678C27.6746 6.26839 27.2496 6.11061 26.8606 6.19667Z" fill="#F70032"/>
<path d="M25.8305 21.8889C26.1907 21.8889 26.4932 21.5877 26.4932 21.2291C26.4932 20.8705 26.1907 20.5693 25.8305 20.5693C25.4704 20.5693 25.1678 20.8705 25.1678 21.2291C25.1678 21.5877 25.4704 21.8889 25.8305 21.8889Z" fill="#0C0A35"/>
<path d="M22.7692 20.4832C23.7272 20.5908 24.7284 20.3756 25.6864 20.2968C26.6661 20.2179 27.761 20.6123 28.6974 20.3183C28.9207 20.2466 28.9783 19.9955 28.827 19.8234C28.1211 18.9986 26.6661 19.1564 25.6864 19.2353C24.6492 19.3142 23.4679 19.558 22.6755 20.2752C22.5891 20.347 22.6755 20.4689 22.7692 20.4832Z" fill="#0C0A35"/>
<path d="M19.2685 24.9872C19.391 24.7218 19.074 24.4349 18.8435 24.6644C18.5626 24.9441 19.1101 25.3242 19.2685 24.9872Z" fill="#0C0A35"/>
<path d="M17.7126 28.48C17.5902 29.147 17.266 29.814 17.3957 30.5025C17.5686 31.442 18.3105 32.2381 18.1232 33.2207C17.9071 34.3753 17.0571 35.3507 17.3597 36.5556C17.3813 36.6273 17.4965 36.613 17.4965 36.5341C17.3741 35.0423 18.6346 34.2964 18.7211 32.9696C18.7499 32.5608 18.7211 32.2094 18.541 31.8293C17.9936 30.6746 18.0584 29.7279 17.9503 28.5015C17.9359 28.3939 17.7414 28.3437 17.7126 28.48Z" fill="#B70027"/>
<path d="M16.308 30.775C16.3224 31.2986 16.5385 31.7791 16.6754 32.274C16.7618 32.5824 16.8123 32.9195 16.7546 33.2422C16.7114 33.4932 16.5818 33.6797 16.6106 33.9379C16.625 34.0383 16.697 34.1602 16.8195 34.1459C17.4677 34.0741 17.6046 33.3067 17.5254 32.7617C17.4101 32.0301 17.0284 31.2986 16.6106 30.6961C16.5241 30.567 16.3008 30.6029 16.308 30.775Z" fill="#B70027"/>
<path d="M18.1088 27.9278C19.3477 29.4267 19.6215 32.4318 19.1245 34.2678C18.8939 35.1069 18.0152 35.7811 18.0368 36.6919C18.0584 37.5884 18.3105 38.32 18.8867 39.0085C18.9948 39.1376 19.1605 38.9941 19.1389 38.865C18.9948 37.9901 18.6058 37.2657 18.7859 36.3333C18.8867 35.817 19.3838 35.2934 19.5782 34.7914C19.9672 33.7873 19.9168 32.7976 19.8448 31.7433C19.7583 30.4738 19.5999 28.3151 18.2024 27.77C18.1016 27.727 18.0512 27.8632 18.1088 27.9278Z" fill="#B70027"/>
<path d="M19.0885 28.5159C20.0321 29.3048 20.6083 30.6388 20.7668 31.8293C20.9469 33.192 20.3922 34.2535 19.7439 35.3794C18.9948 36.6919 19.5206 38.2984 20.5291 39.324C20.6299 39.4244 20.846 39.3599 20.8316 39.2021C20.6443 37.7605 19.6431 36.9286 20.5363 35.3508C21.0261 34.483 21.3431 33.7801 21.4367 32.7832C21.5663 31.3058 20.9325 28.6737 19.2397 28.272C19.0957 28.2433 18.966 28.4155 19.0885 28.5159Z" fill="#B70027"/>
<path d="M20.2625 28.3509C20.9612 29.2044 21.768 29.8212 22.3946 30.7679C23.4679 32.3887 22.1641 33.5506 21.6455 35.0424C21.0549 36.7493 21.5447 38.7072 23.1654 39.6898C23.3167 39.7759 23.5328 39.6324 23.4679 39.4531C22.9205 37.9183 21.7968 37.072 22.4091 35.2503C22.7692 34.1745 23.4391 33.3067 23.5544 32.1592C23.72 30.4523 21.7103 28.8458 20.4138 28.1573C20.2841 28.0927 20.1761 28.2433 20.2625 28.3509Z" fill="#B70027"/>
<path d="M21.2278 27.7915C22.2146 28.731 23.1942 29.4912 24.0154 30.5957C25.2976 32.3241 23.8641 33.3928 23.6553 35.0567C23.468 36.5628 24.3972 39.1877 26.198 39.3096C26.3492 39.3168 26.3853 39.1375 26.306 39.0443C25.384 37.8681 24.3323 37.1652 24.2315 35.5228C24.1595 34.2893 25.2327 33.3139 25.2688 32.0875C25.3264 30.2514 22.8629 28.2361 21.3646 27.605C21.2566 27.562 21.1197 27.691 21.2278 27.7915Z" fill="#B70027"/>
<path d="M23.0213 27.899C24.217 28.5158 24.9517 29.5844 25.6505 30.6889C26.2555 31.6428 26.4356 32.6397 25.8233 33.6796C25.6216 34.0311 25.3551 34.3538 25.2039 34.7339C24.5484 36.405 25.7729 38.5853 27.3072 39.367C27.4873 39.4602 27.6385 39.2809 27.5665 39.1088C26.8678 37.5095 24.9301 36.6703 25.9026 34.6192C26.2699 33.8446 26.8966 33.0844 26.767 32.1663C26.5365 30.567 24.9373 27.7484 23.0717 27.7054C22.9709 27.7054 22.9277 27.856 23.0213 27.899Z" fill="#B70027"/>
<path d="M23.6337 26.8017C25.3265 28.5589 28.2366 29.9933 27.3434 32.9266C26.8031 34.7052 26.6014 36.5628 28.2582 37.8609C28.3662 37.947 28.5607 37.8753 28.5103 37.7175C27.9772 36.1755 27.2497 35.2503 27.8188 33.5219C28.1501 32.5035 28.2582 31.7719 27.97 30.732C27.437 28.8314 25.3481 27.5476 23.713 26.7085C23.6481 26.6726 23.5833 26.7515 23.6337 26.8017Z" fill="#B70027"/>
<path d="M24.7502 26.5077C26.27 27.3898 27.5594 28.5445 28.431 30.0721C29.1441 31.3272 28.9568 32.6899 28.8848 34.0598C28.7984 35.5659 29 38.0115 30.9449 38.1836C31.1106 38.198 31.1826 37.9756 31.0746 37.8681C30.5631 37.3445 30.0301 37.0074 29.7564 36.2831C29.5331 35.695 29.5619 35.0208 29.5691 34.404C29.5907 33.3999 29.8428 32.3098 29.6123 31.3129C29.0793 28.9748 27.1993 26.8734 24.8078 26.3714C24.7286 26.3571 24.6709 26.4646 24.7502 26.5077Z" fill="#B70027"/>
<path d="M25.2255 26.1276C26.7238 26.7014 27.9267 27.2966 29.0864 28.437C30.2029 29.5343 30.3182 31.3273 30.3038 32.7832C30.2894 34.4112 30.1309 37.0362 32.2486 37.4306C32.4359 37.4665 32.5656 37.2585 32.4359 37.1151C31.8669 36.4768 31.2762 36.1038 30.9521 35.2575C30.6711 34.5045 30.7792 33.5721 30.7864 32.7832C30.8008 31.607 30.7216 30.3232 30.1957 29.2474C29.4466 27.7054 27.0768 25.6041 25.2183 26.0057C25.1535 26.02 25.1679 26.1061 25.2255 26.1276Z" fill="#B70027"/>
<path d="M25.7514 25.2957C27.4226 25.5897 28.784 26.6727 29.8789 27.9206C31.0602 29.2618 31.0818 30.8898 31.3987 32.5394C31.7013 34.11 31.3771 36.4122 33.3724 36.8856C33.5309 36.9214 33.6029 36.7206 33.4804 36.6345C31.2763 35.0424 32.2991 31.2412 31.3483 29.0107C30.3831 26.7587 28.1717 25.31 25.7875 25.059C25.6506 25.0375 25.6146 25.267 25.7514 25.2957Z" fill="#B70027"/>
<path d="M25.7009 24.3704C26.0971 24.5928 26.3636 24.5784 26.8318 24.5856C28.0491 24.6071 28.9783 25.5538 29.8571 26.2853C30.563 26.8806 31.2834 27.5117 31.7588 28.3078C32.2198 29.0752 32.5007 30.0219 32.9041 30.8252C34.0422 33.0987 35.5332 35.3794 38.2921 33.694C38.3497 33.6581 38.3137 33.5505 38.2416 33.5792C34.3087 35.2216 33.5236 29.4338 31.7732 27.2536C30.2965 25.4104 28.1572 23.8469 25.7369 24.227C25.6433 24.227 25.6433 24.3346 25.7009 24.3704Z" fill="#B70027"/>
<path d="M26.9039 23.4022C28.5966 23.6245 29.8428 24.5354 30.88 25.812C31.6147 26.7157 32.5151 27.4831 33.6172 27.8775C33.7829 27.9349 33.9054 27.7054 33.7829 27.5906C33.1778 27.0097 32.4719 26.5507 31.838 25.9985C31.2186 25.4606 30.8368 24.729 30.1957 24.2055C29.3241 23.4883 28.006 23.1368 26.9039 23.1871C26.7598 23.1942 26.7742 23.3807 26.9039 23.4022Z" fill="#B70027"/>
<path d="M20.529 25.2526C21.1052 25.102 21.7103 25.102 22.301 25.1522C22.9132 25.2024 23.5183 25.3817 24.0585 25.6829C24.678 26.0272 25.139 26.4646 25.564 27.0384C25.7081 27.232 25.8305 27.4329 25.8809 27.6695C25.9674 28.0712 25.7945 28.4871 25.5136 28.7812C25.2327 29.0752 24.8509 29.2545 24.4547 29.3693C22.942 29.8068 21.1989 29.2761 20.1904 28.0712C20.0536 27.9134 19.9023 27.7269 19.6934 27.7341C19.4845 27.7413 19.3405 27.9421 19.218 28.1214C18.9587 28.4943 18.6922 28.7238 18.3392 29.0107C18.0943 29.2115 17.7486 29.5056 17.4388 29.4769C16.913 29.4267 16.6249 28.8099 16.6681 28.2863C16.7257 27.5476 17.2443 26.7085 17.8494 26.2853C18.4617 25.855 18.8867 25.6757 20.529 25.2526Z" fill="#191956"/>
<path d="M18.3105 25.0948C19.2253 26.3929 17.1075 27.6695 16.7978 28.939C16.5961 29.7494 16.9995 30.524 17.7486 30.8324C17.8422 30.8682 17.9359 30.7463 17.8783 30.6674C16.7762 29.0968 17.763 28.3078 18.6562 27.0097C19.1316 26.3212 19.0524 25.5323 18.4401 24.9944C18.3753 24.937 18.26 25.0087 18.3105 25.0948Z" fill="#B70027"/>
<path d="M19.0885 24.5713C19.2397 25.353 19.4414 26.02 19.2469 26.8233C19.1245 27.3325 18.6923 27.8345 18.4618 28.3079C18.1881 28.8745 18.008 29.4482 18.3465 30.0076C18.3897 30.0793 18.5266 30.0578 18.5122 29.9646C18.3609 28.7454 19.3838 28.0353 19.8088 26.9811C20.1545 26.1204 19.852 25.1235 19.2469 24.478C19.1749 24.4063 19.0668 24.4852 19.0885 24.5713Z" fill="#B70027"/>
<path d="M19.1604 23.8755C20.7451 25.9196 21.2565 30.2156 24.325 30.7104C24.3971 30.7248 24.4475 30.6315 24.3755 30.5885C23.0213 29.6848 22.1929 28.5804 21.4438 27.1603C20.8099 25.9626 20.284 24.7075 19.2468 23.7895C19.1892 23.7393 19.1099 23.8182 19.1604 23.8755Z" fill="#B70027"/>
<path d="M20.709 24.6789C22.1857 26.9524 23.0861 29.7351 25.9241 30.7033C26.0466 30.7463 26.1258 30.5814 26.0466 30.4953C25.0886 29.4984 23.9145 28.8458 23.0573 27.7198C22.2577 26.6727 21.9192 25.4247 20.9251 24.5139C20.8171 24.4135 20.6226 24.5426 20.709 24.6789Z" fill="#B70027"/>
<path d="M20.8603 23.2229C22.2577 25.8837 24.145 28.5158 26.7813 30.065C26.8462 30.1008 26.911 30.0148 26.8606 29.9646C24.6204 27.9134 22.8844 25.5179 21.0476 23.1153C20.9684 23.0077 20.7955 23.0938 20.8603 23.2229Z" fill="#B70027"/>
<path d="M22.0849 23.9759C23.7777 25.5323 25.1679 27.3324 26.7742 28.9605C26.8462 29.0322 26.9831 28.9605 26.9471 28.8601C26.6085 27.9851 25.7945 27.189 25.1607 26.4861C24.2675 25.4964 23.3095 24.5712 22.2506 23.7608C22.1209 23.6747 21.9697 23.8755 22.0849 23.9759Z" fill="#B70027"/>
<path d="M36.9883 32.4675C37.262 32.3025 37.7158 31.9368 37.8959 31.6786C38.7458 30.4235 39.1276 29.0895 39.178 27.5762C39.1996 27.0096 39.1348 26.4359 39.034 25.8765C38.6522 23.7249 37.7374 21.6737 36.3976 19.9452C35.915 19.3213 35.3532 18.726 34.6256 18.4248C34.3087 18.2957 33.9773 18.2312 33.6532 18.1307C32.9041 17.9156 32.2054 17.557 31.4562 17.3418C30.7071 17.1267 29.8715 17.0693 29.1872 17.4351C28.8919 20.0457 29.5762 22.6706 30.383 25.1736C30.952 26.9379 31.5931 28.7022 32.6015 30.2657C33.0193 30.9112 33.5019 31.528 34.1214 31.987C34.7409 32.446 35.5116 32.7329 36.2824 32.6683C36.5273 32.654 36.7794 32.5966 36.9883 32.4675Z" fill="#191956"/>
<path d="M28.7407 17.9228C28.5534 19.3357 28.7191 20.3972 29.5762 21.5662C30.2822 22.5344 30.736 23.2229 30.1813 24.4708C30.0012 24.8796 29.7707 25.4534 29.9076 25.9196C30.3254 27.3683 31.7444 27.9636 32.0397 29.4984C32.3423 31.0762 31.6652 32.9696 32.6376 34.3323C32.7384 34.4686 33.0194 34.447 32.9978 34.2319C32.8537 32.6971 33.1418 31.1981 32.8537 29.6849C32.7529 29.1541 32.6952 28.5158 32.4071 28.0425C31.9965 27.3755 31.341 26.9667 30.88 26.3284C30.2894 25.5108 31.0961 24.4063 31.305 23.5959C31.4347 23.0938 31.2258 22.6276 31.0025 22.1973C30.5775 21.3869 29.8428 20.806 29.4898 19.931C29.2089 19.2281 29.3674 18.5109 28.9784 17.8439C28.9136 17.7364 28.7551 17.8009 28.7407 17.9228Z" fill="#B70027"/>
<path d="M29.7419 17.3203C29.6554 18.0375 29.9652 18.5898 30.2101 19.2568C30.5558 20.182 31.4922 20.5836 32.0397 21.3725C32.9905 22.7424 31.8596 23.7751 31.6435 25.0804C31.5715 25.5179 31.7804 26.1132 32.0901 26.4287C32.724 27.0742 33.5091 27.4328 34.0782 28.1787C35.137 29.5629 33.79 30.567 33.7396 31.8866C33.7108 32.697 34.107 34.5402 35.3027 34.3394C35.4756 34.3107 35.5404 34.0884 35.4612 33.9521C34.9425 33.0987 34.4527 32.6397 34.6976 31.5567C34.8921 30.7247 35.3459 30.194 35.3531 29.2975C35.3675 27.9492 34.0926 26.938 33.0625 26.3212C31.7227 25.5179 32.6015 24.5855 32.9257 23.5743C33.1562 22.8571 33.0841 22.3049 32.8104 21.5948C32.6231 21.1071 32.2342 20.5621 31.802 20.2465C30.8439 19.5508 30.2605 18.4177 29.9147 17.2917C29.8859 17.1913 29.7491 17.2199 29.7419 17.3203Z" fill="#B70027"/>
<path d="M31.4203 17.4925C31.7228 18.2599 32.1262 18.9125 32.6232 19.5723C33.4516 20.6696 34.4889 21.0139 34.1071 22.6634C33.8406 23.8181 33.1995 24.98 34.424 25.8191C35.5189 26.5722 36.9596 27.4687 36.7146 29.025C36.585 29.8354 35.9583 30.4737 35.7206 31.2483C35.3388 32.489 35.807 33.8445 37.0964 34.3179C37.2477 34.3753 37.3989 34.1744 37.3053 34.0454C36.5562 32.9911 35.9367 32.1806 36.6354 30.8753C36.9307 30.3231 37.2549 29.8282 37.4566 29.2258C37.8888 27.9348 36.7723 26.5578 35.807 25.8693C34.6906 25.0732 34.1863 24.7505 34.6761 23.2731C34.9283 22.5057 34.9931 21.8458 34.7914 21.0569C34.6545 20.5477 34.2512 20.1676 33.8694 19.8449C32.9906 19.099 32.2991 18.2957 31.5644 17.4136C31.4995 17.3562 31.3915 17.4207 31.4203 17.4925Z" fill="#B70027"/>
<path d="M33.8188 18.3818C35.4251 19.4504 36.1239 20.8561 35.6196 22.7925C35.3603 23.7966 35.4756 24.5282 36.1815 25.3027C36.7361 25.9123 37.4709 26.2207 38.0039 26.9092C38.6738 27.7914 38.328 28.8385 38.0399 29.7709C37.7302 30.7678 37.5213 31.822 38.1191 32.7544C38.1984 32.8763 38.3857 32.8261 38.3929 32.6827C38.5585 29.9071 40.5106 27.0312 37.3484 25.2023C35.7421 24.2771 36.3544 23.438 36.4768 22.0251C36.5272 21.3653 36.5344 20.6553 36.2319 20.0457C35.7925 19.1779 34.9497 18.1738 33.9197 18.0519C33.718 18.016 33.6892 18.2885 33.8188 18.3818Z" fill="#B70027"/>
<path d="M38.4073 19.4361C37.4205 20.3182 36.7578 21.9534 37.1323 23.2516C37.5645 24.7505 39.4518 25.8622 40.9644 25.6542C41.0941 25.6327 41.1229 25.4175 41.0004 25.3673C39.6679 24.7935 38.3353 24.6071 37.7158 23.0938C37.3412 22.1901 37.9895 20.3182 38.5946 19.6154C38.7026 19.4935 38.537 19.3285 38.4073 19.4361Z" fill="#B70027"/>
<path d="M35.3028 19.0703C35.8142 19.0631 36.3256 19.0631 36.837 19.0559C37.0243 19.0559 37.226 19.0487 37.3773 18.9412C37.4925 18.8551 37.5573 18.7188 37.5573 18.5754C37.5501 18.2168 37.1612 18.0232 36.8586 17.8295C36.6641 17.7076 36.4913 17.5642 36.3328 17.3992C36.2752 17.3347 36.5561 16.4884 36.6425 16.4597C37.9751 13.72 40.7556 7.75291 41.4038 6.54802C41.8576 6.87793 42.4987 7.16481 43.0462 7.05005C43.111 7.03571 43.183 7.01419 43.219 6.96399C43.2983 6.84924 43.183 6.69863 43.0678 6.61256C42.6572 6.28983 42.2178 6.01012 41.7568 5.76627C42.0305 5.2212 42.2034 4.95584 42.4123 4.44663C42.4627 4.33188 42.758 3.24891 42.189 3.29194C41.5263 3.34215 41.1301 4.6331 40.9717 5.27141C40.5611 5.05625 40.0568 4.82675 39.5598 4.66896C39.2789 4.5829 39.0556 4.91998 39.2357 5.14231C39.4878 5.45788 39.848 5.7089 40.1865 5.78779C38.1768 8.83587 36.3328 11.9987 34.6617 15.2476C34.604 15.3552 34.5464 15.4628 34.4456 15.5201C34.3375 15.5775 34.1791 15.5417 34.1502 15.4269C34.1502 15.4197 34.143 15.2476 34.1502 15.2333C34.6977 11.4752 35.4036 7.83897 36.2824 4.14541C36.6065 4.21713 36.9379 4.18844 37.2692 4.26016C37.4421 4.29602 37.6222 4.33188 37.795 4.28168C37.9607 4.23147 38.1048 4.05217 38.0544 3.88005C38.0183 3.76529 37.9031 3.69357 37.795 3.6362C37.3917 3.42821 36.8946 3.4569 36.4408 3.44256C36.5561 2.99072 36.8947 2.11574 36.8298 1.65674C36.7866 1.34117 36.3328 1.29814 36.2032 1.59219C35.9582 2.14443 35.7205 2.63212 35.5549 3.24174C35.1731 2.93335 34.5536 2.76122 34.143 2.74688C33.9918 2.7397 33.8837 2.8688 33.9053 3.01941C33.9414 3.2274 34.0854 3.42104 34.2727 3.53579C34.5176 3.69357 34.8417 3.8155 35.1299 3.8657C34.2295 7.70987 32.8177 11.4393 31.2041 15.0468C31.1393 15.1831 30.9304 15.1615 30.9088 15.0109C30.5631 12.9454 30.3326 11.303 30.3109 9.20164C30.2893 7.40148 30.3398 5.09211 30.3686 3.18437C30.3686 3.12699 30.419 3.07679 30.4766 3.07679C30.988 3.08396 31.4058 3.17002 31.9245 3.03375C32.0253 3.00507 32.1406 2.96921 32.1982 2.87597C32.3278 2.66798 32.0613 2.43131 31.8236 2.35959C31.4202 2.23767 30.6927 2.29504 30.5198 2.30939C30.4982 2.30939 30.4838 2.29504 30.4838 2.2807C30.491 1.94362 30.4838 1.5133 30.4982 1.18339C30.5054 0.996916 30.5054 0.803273 30.4262 0.631146C30.347 0.466191 30.1453 0.337095 29.9652 0.401643C29.7779 0.466191 29.7131 0.695694 29.6843 0.896509C29.6122 1.36269 29.5762 1.82886 29.569 2.30221C29.569 2.3309 29.5474 2.35242 29.5186 2.35242C29.1368 2.32373 28.7551 2.3309 28.3805 2.36676C28.2004 2.38111 28.0131 2.41697 27.8907 2.54606C27.7034 2.75405 27.8403 3.08396 28.114 3.14133C28.7479 3.26326 29.3889 3.02658 29.3889 3.02658C29.4033 3.02658 29.4106 3.04093 29.4106 3.05527C28.6326 9.17296 28.0275 14.4228 27.2928 14.8675C27.0983 14.9822 26.8678 14.8818 26.7958 14.6667C25.9458 12.1708 25.4128 9.58893 24.959 6.99268C24.7429 5.77344 24.4692 4.61159 24.5772 3.38518C24.5916 3.25608 24.6925 3.15568 24.8221 3.14133C25.1751 3.09113 25.5641 2.92617 25.8522 2.75405C25.9386 2.69667 26.0323 2.63212 26.0755 2.53889C26.1691 2.32373 25.9746 2.07988 25.7513 2.02251C25.5208 1.9723 25.2903 2.05837 25.0814 2.15877C24.8725 2.25201 24.6492 2.35959 24.4187 2.35242C24.3179 2.34525 24.2315 1.31248 23.9505 0.796101C23.8713 0.64549 23.684 0.71721 23.6264 0.874993C23.5111 1.2049 23.4751 1.89341 23.6048 2.39545C23.6264 2.48151 23.5616 2.5604 23.4751 2.57475C23.0646 2.62495 22.5891 2.69667 22.2002 2.73253C21.9192 2.76122 21.5375 2.919 21.6239 3.19154C21.6887 3.39952 21.8616 3.61468 22.265 3.53579C22.7836 3.43538 23.1006 3.34932 23.6264 3.28477C23.7489 7.75291 23.9577 10.5858 24.3035 14.6308C24.3611 15.3337 23.7416 15.2763 23.5472 14.932C22.7404 13.5048 21.5447 10.8727 20.7739 9.43832C20.0104 8.02544 18.9371 6.49781 18.1448 5.10645C18.0151 4.87695 17.9287 4.62593 17.8855 4.36057C17.8639 4.19561 17.8494 4.11672 18.0223 4.01631C18.1808 3.92308 18.5193 3.74378 18.6778 3.65771C18.8363 3.57165 18.9371 3.3278 18.7931 3.22022C18.7426 3.18437 18.685 3.17719 18.6274 3.17719C18.3393 3.16285 18.116 3.30629 17.8711 3.46407C17.7702 3.52862 17.1435 3.8657 16.8914 2.67516C16.8482 2.46 16.7906 2.23767 16.5961 2.12291C16.1783 1.86472 15.8686 2.3309 15.9334 2.6895C15.9838 2.98355 16.1855 3.22023 16.344 3.47124C16.5025 3.72226 16.6321 4.03066 16.5169 4.30319C16.3944 4.59007 16.1135 4.57573 15.8326 4.71199C15.6813 4.78371 15.5228 4.91998 15.422 5.07059C15.2851 5.27141 15.4724 5.54394 15.7173 5.48657C15.9622 5.42919 16.1927 5.27141 16.3944 5.11362C16.6969 4.86261 17.0643 4.5829 17.23 4.93432C18.4617 7.63098 19.074 9.73954 20.1473 12.0776C20.4786 12.7948 20.8028 13.5192 21.0909 14.2507C21.3718 14.9607 21.6815 15.8716 21.2566 16.5529C21.0549 16.8756 20.7235 17.0836 20.4138 17.2988C20.0896 17.5283 19.7583 17.8008 19.6502 18.1881C19.5422 18.5897 19.8015 19.0057 20.2121 19.0846C21.8904 19.436 23.7056 18.977 25.42 18.8694C28.8919 18.6543 32.3783 19.3571 35.8358 18.9842L35.3028 19.0703Z" fill="#222272"/>
<path d="M20.4353 18.6113C20.8891 18.6113 20.8891 17.9157 20.4353 17.9157C19.9887 17.9085 19.9887 18.6113 20.4353 18.6113Z" fill="#0C0A35"/>
<path d="M21.6454 18.64C22.1425 18.64 22.1425 17.8798 21.6454 17.8798C21.1556 17.8798 21.1556 18.64 21.6454 18.64Z" fill="#0C0A35"/>
<path d="M23.0861 18.64C23.5759 18.64 23.5759 17.8869 23.0861 17.8869C22.5963 17.8798 22.5963 18.64 23.0861 18.64Z" fill="#0C0A35"/>
<path d="M24.2962 18.5826C24.7644 18.5826 24.7644 17.8654 24.2962 17.8654C23.828 17.8654 23.828 18.5826 24.2962 18.5826Z" fill="#0C0A35"/>
<path d="M25.7729 18.5611C26.306 18.5611 26.306 17.7435 25.7729 17.7435C25.2399 17.7364 25.2399 18.5611 25.7729 18.5611Z" fill="#0C0A35"/>
<path d="M27.1703 18.4822C27.7033 18.4822 27.7033 17.6646 27.1703 17.6646C26.6372 17.6646 26.6372 18.4822 27.1703 18.4822Z" fill="#0C0A35"/>
<path d="M28.4669 18.4894C28.4741 18.4894 28.4813 18.4894 28.4957 18.4894C28.7982 18.5181 28.9711 18.1451 28.8343 17.9085C28.6758 17.6431 28.33 17.679 28.1644 17.9085C28.1572 17.9156 28.1572 17.9228 28.15 17.93C27.9627 18.181 28.2148 18.4679 28.4669 18.4894Z" fill="#0C0A35"/>
<path d="M29.8138 18.5181C30.2892 18.5181 30.2892 17.7865 29.8138 17.7865C29.3384 17.7793 29.3384 18.5181 29.8138 18.5181Z" fill="#0C0A35"/>
<path d="M31.2185 18.6902C31.7228 18.6902 31.7228 17.9084 31.2185 17.9084C30.7071 17.9084 30.7071 18.6902 31.2185 18.6902Z" fill="#0C0A35"/>
<path d="M32.5007 18.7189C33.0481 18.7189 33.0481 17.8798 32.5007 17.8798C31.9532 17.8798 31.9532 18.7189 32.5007 18.7189Z" fill="#0C0A35"/>
<path d="M33.9774 18.7189C34.4744 18.7189 34.4744 17.9515 33.9774 17.9515C33.4804 17.9515 33.4804 18.7189 33.9774 18.7189Z" fill="#0C0A35"/>
<path d="M35.2596 18.6902C35.7206 18.6902 35.7206 17.9802 35.2596 17.9802C34.7986 17.9802 34.7986 18.6902 35.2596 18.6902Z" fill="#0C0A35"/>
<path d="M36.3976 18.7117C36.8802 18.7117 36.8802 17.9658 36.3976 17.9658C35.915 17.9586 35.915 18.7117 36.3976 18.7117Z" fill="#0C0A35"/>
<path d="M22.7187 15.2979C22.726 15.2907 22.7332 15.2835 22.7332 15.2764C22.9132 15.0899 22.9132 14.8102 22.7332 14.6165C22.726 14.6094 22.7187 14.6022 22.7187 14.595C22.4162 14.2795 21.876 14.5233 21.876 14.9393C21.876 15.3696 22.4162 15.6134 22.7187 15.2979Z" fill="#990028"/>
<path d="M25.4271 15.0253C25.7584 15.0253 26.0322 14.7528 26.0322 14.4229C26.0322 14.093 25.7584 13.8204 25.4271 13.8204C25.0957 13.8204 24.822 14.093 24.822 14.4229C24.822 14.7528 25.0957 15.0253 25.4271 15.0253Z" fill="#990028"/>
<path d="M29.2664 14.846C29.5978 14.846 29.8787 14.5735 29.8787 14.2364C29.8787 13.9065 29.5978 13.6268 29.2664 13.6268C28.9351 13.6268 28.6542 13.9065 28.6542 14.2364C28.6542 14.5735 28.9351 14.846 29.2664 14.846Z" fill="#990028"/>
<path d="M33.394 15.1473C33.4012 15.1401 33.4012 15.1401 33.4084 15.1329C33.6029 14.9465 33.6317 14.6452 33.502 14.4157C33.3652 14.1791 33.0914 14.0858 32.8321 14.1432C32.8249 14.1432 32.8177 14.1432 32.8105 14.1504C32.4287 14.2364 32.2631 14.7026 32.4504 15.0254C32.652 15.3696 33.1202 15.4198 33.394 15.1473Z" fill="#990028"/>
<path d="M36.0014 16.3306C36.0086 16.3234 36.0159 16.3163 36.0231 16.3163C36.3112 16.1083 36.3904 15.7425 36.1311 15.47C36.1239 15.4628 36.1167 15.4556 36.1167 15.4485C35.8214 15.1401 35.2811 15.2978 35.1731 15.6995C35.1227 15.8931 35.1731 16.1083 35.3171 16.2445C35.4828 16.4095 35.7997 16.474 36.0014 16.3306Z" fill="#990028"/>
<path d="M26.9039 6.33287C27.4009 6.33287 27.4009 5.57264 26.9039 5.57264C26.414 5.56547 26.414 6.33287 26.9039 6.33287Z" fill="#0C0A35"/>
<path d="M21.5159 13.9424C21.5159 13.9496 21.5159 13.9496 21.5159 13.9567C21.5159 14.4301 22.2506 14.4301 22.2506 13.9567C22.2506 13.9496 22.2506 13.9496 22.2506 13.9424C22.2506 13.469 21.5159 13.469 21.5159 13.9424Z" fill="#0C0A35"/>
<path d="M25.2399 13.6914C25.8017 13.6914 25.8017 12.8236 25.2399 12.8236C24.678 12.8164 24.678 13.6914 25.2399 13.6914Z" fill="#0C0A35"/>
<path d="M29.3602 13.4618C29.8284 13.4618 29.8284 12.7446 29.3602 12.7446C28.8992 12.7446 28.8992 13.4618 29.3602 13.4618Z" fill="#0C0A35"/>
<path d="M33.3363 13.8635C33.8333 13.8635 33.8333 13.0961 33.3363 13.0961C32.8321 13.0961 32.8321 13.8635 33.3363 13.8635Z" fill="#0C0A35"/>
<path d="M36.2104 15.1113C36.6642 15.1113 36.6642 14.4085 36.2104 14.4085C35.7494 14.4085 35.7494 15.1113 36.2104 15.1113Z" fill="#0C0A35"/>
<path d="M38.6666 40.5216C38.4001 40.7726 38.4001 41.1886 38.4289 41.5544C38.4721 42.1281 38.5225 42.7091 38.7458 43.2398C38.9691 43.7705 39.3797 44.251 39.9271 44.4232C40.5826 44.624 45.1278 44.1865 46.7125 44C47.0223 43.9642 47.332 43.9068 47.6201 43.7849C48.326 43.4836 48.8231 42.7736 48.9383 42.0134C49.104 40.9448 48.4989 39.8044 47.5193 39.3311C46.5973 38.8864 45.5096 39.0299 44.494 39.1805C42.686 39.453 40.878 39.7255 39.1348 40.2778C38.9763 40.3423 38.7962 40.3997 38.6666 40.5216Z" fill="#222272"/>
<path d="M37.7301 39.0586C37.4276 38.2195 37.8094 37.2728 38.0903 36.4336C38.2416 35.989 40.0856 34.1458 42.9236 33.0126C45.1782 32.1161 46.8566 33.3999 47.6489 33.9235C48.5133 34.4972 49.1904 36.4336 48.9599 37.4377C48.6862 38.6211 48.0091 39.2809 46.8422 39.6467C44.9261 40.2491 44.0185 39.8403 42.4842 40.0555C41.2741 40.2204 39.7038 40.8157 38.5729 40.3495C38.1407 40.1702 37.8886 39.5032 37.7301 39.0586Z" fill="#191956"/>
<path d="M44.5659 33.78C45.5239 33.1919 46.7268 34.6478 47.1878 35.3076C47.5336 35.8025 47.7713 36.3906 47.7641 36.9931C47.7569 37.6887 47.2094 38.3988 46.4531 38.1979C46.1866 38.1262 45.9201 37.8394 45.9489 37.5381C45.9777 37.3086 46.1434 36.9787 46.1506 36.8855C46.1722 36.5556 45.9993 36.197 45.8552 35.9101C45.5455 35.2861 45.1133 34.7411 44.5659 34.3179C44.3858 34.1745 44.3498 33.9163 44.5659 33.78Z" fill="#990028"/>
<path d="M43.046 34.4685C43.687 34.3609 44.2489 35.4798 44.501 35.9316C44.9548 36.7349 45.1349 37.7605 44.2921 38.3701C43.7303 38.7789 42.9379 37.9756 43.3341 37.4162C43.6294 36.9931 43.2116 36.3691 43.046 35.9531C42.9307 35.6519 42.3905 34.5761 43.046 34.4685Z" fill="#990028"/>
<path d="M41.5549 35.7738C41.7782 36.1037 41.8214 36.5484 41.9151 36.9285C42.0159 37.3373 42.1528 37.8393 42.0951 38.2625C42.0015 38.9797 41.1083 39.1303 40.8346 38.4346C40.6761 38.0258 40.6833 37.5309 40.6401 37.1006C40.5969 36.6703 40.5753 36.1611 40.7842 35.7738C40.957 35.4654 41.382 35.5084 41.5549 35.7738Z" fill="#990028"/>
<path d="M39.5309 36.6918C39.6317 37.0432 39.5525 37.4162 39.6029 37.7819C39.6678 38.2266 39.8839 38.6282 40.0063 39.0514C40.136 39.4817 39.5525 39.8403 39.2428 39.496C38.6161 38.7932 38.2631 37.1867 39.1491 36.5412C39.2932 36.4336 39.4877 36.5412 39.5309 36.6918Z" fill="#990028"/>
<path d="M47.3751 40.3782C47.123 40.3782 47.123 39.9909 47.3751 39.9909C47.62 39.9909 47.62 40.3782 47.3751 40.3782Z" fill="#F70032"/>
<path d="M48.2468 41.1313C48.0955 41.1313 48.0955 40.9018 48.2468 40.9018C48.3908 40.9018 48.3908 41.1313 48.2468 41.1313Z" fill="#F70032"/>
<path d="M47.296 41.5473C46.9935 41.5473 46.9935 41.0811 47.296 41.0811C47.5985 41.0811 47.5985 41.5473 47.296 41.5473Z" fill="#F70032"/>
<path d="M47.7138 42.4151C47.5121 42.4151 47.5121 42.0995 47.7138 42.0995C47.9155 42.0995 47.9155 42.4151 47.7138 42.4151Z" fill="#F70032"/>
<path d="M46.4676 42.3505C46.446 42.3505 46.446 42.3146 46.4676 42.3146C46.4892 42.3146 46.4892 42.3505 46.4676 42.3505Z" fill="#F70032"/>
<path d="M46.3882 42.3935C46.2082 42.3935 46.2082 42.1138 46.3882 42.1138C46.5683 42.1138 46.5683 42.3935 46.3882 42.3935Z" fill="#F70032"/>
<path d="M46.2804 40.5216C46.0931 40.5216 46.0931 40.2276 46.2804 40.2276C46.4676 40.2276 46.4676 40.5216 46.2804 40.5216Z" fill="#F70032"/>
<path d="M45.7472 41.3536C45.5022 41.3536 45.5022 40.9735 45.7472 40.9735C45.9921 40.9735 45.9921 41.3536 45.7472 41.3536Z" fill="#F70032"/>
<path d="M46.9574 43.6343C46.6836 43.6343 46.6836 43.204 46.9574 43.204C47.2311 43.2111 47.2311 43.6343 46.9574 43.6343Z" fill="#F70032"/>
<path d="M45.4088 43.0892C45.1639 43.0892 45.1639 42.7091 45.4088 42.7091C45.6537 42.7091 45.6537 43.0892 45.4088 43.0892Z" fill="#F70032"/>
<path d="M44.7678 42.1569C44.5589 42.1569 44.5589 41.827 44.7678 41.827C44.9766 41.827 44.9766 42.1569 44.7678 42.1569Z" fill="#F70032"/>
<path d="M44.5372 40.9018C44.2995 40.9018 44.2995 40.5288 44.5372 40.5288C44.7749 40.5288 44.7749 40.9018 44.5372 40.9018Z" fill="#F70032"/>
<path d="M43.2117 40.6579C42.9884 40.6579 42.9884 40.3136 43.2117 40.3136C43.435 40.3136 43.435 40.6579 43.2117 40.6579Z" fill="#F70032"/>
<path d="M43.3631 41.7194C43.1326 41.7194 43.1326 41.3608 43.3631 41.3608C43.5936 41.3608 43.5936 41.7194 43.3631 41.7194Z" fill="#F70032"/>
<path d="M42.3833 41.2819C42.2321 41.2819 42.2321 41.0524 42.3833 41.0524C42.5274 41.0524 42.5274 41.2819 42.3833 41.2819Z" fill="#F70032"/>
<path d="M43.6655 42.9028C43.4134 42.9028 43.4134 42.5083 43.6655 42.5083C43.9248 42.5155 43.9248 42.9028 43.6655 42.9028Z" fill="#F70032"/>
<path d="M44.3498 43.8495C44.1913 43.8495 44.1913 43.5984 44.3498 43.5984C44.5083 43.5984 44.5083 43.8495 44.3498 43.8495Z" fill="#F70032"/>
<path d="M45.9274 43.9355C45.9202 43.9427 45.913 43.9498 45.9058 43.9498C45.7978 44.0431 45.6177 43.9857 45.6177 43.8279C45.6177 43.6773 45.7978 43.6127 45.9058 43.7132C45.913 43.7203 45.9202 43.7275 45.9274 43.7275C45.9778 43.7849 45.9778 43.8925 45.9274 43.9355Z" fill="#F70032"/>
<path d="M42.4553 42.8024C42.232 42.8024 42.232 42.4581 42.4553 42.4581C42.6786 42.4653 42.6786 42.8024 42.4553 42.8024Z" fill="#F70032"/>
<path d="M42.8011 43.9069C42.6138 43.9069 42.6138 43.6128 42.8011 43.6128C42.9884 43.62 42.9884 43.9069 42.8011 43.9069Z" fill="#F70032"/>
<path d="M25.2327 44.0288C25.2615 44.5523 25.2543 44.9037 25.4992 45.3843C25.7873 45.9293 26.0395 46.1445 26.5005 46.5461C26.9975 46.9836 27.8475 47.2633 28.5029 47.2561C29.3601 47.249 29.5402 47.2059 30.347 46.9191C30.9664 46.6967 31.4274 46.2019 31.8308 45.7142C32.9113 44.4089 32.6376 42.2644 31.5067 41.0739C30.7647 40.2922 29.9364 39.8977 28.8775 39.7614C28.222 39.6825 27.2712 39.869 26.7021 40.1918C26.1187 40.5217 25.4848 40.9592 25.1391 41.5544C24.642 42.4294 24.2459 43.455 24.5556 44.4806C24.8077 45.334 24.8293 45.4273 25.3624 46.1517C25.5857 46.4457 25.8882 46.6824 26.1835 46.9047C26.4789 47.127 26.8246 47.3063 27.1776 47.4067C28.0563 47.6649 28.2364 47.6362 29.144 47.5574C30.0732 47.4856 31.0601 46.7182 31.5571 45.9724C32.3134 44.8464 32.4215 43.4909 31.838 42.2573C31.4562 41.4612 30.7503 40.8229 29.9148 40.5217C28.7046 40.0842 27.5017 40.3854 26.5077 41.1313C25.9314 41.5616 25.6361 42.1138 25.3335 42.7521C25.4776 42.4796 25.6145 42.2142 25.7585 41.9417C25.7441 41.9704 25.7225 41.9991 25.7009 42.0206C25.9026 41.7983 26.1043 41.5759 26.306 41.3536C26.2916 41.3608 26.2844 41.3751 26.27 41.3823C26.5221 41.2173 26.7742 41.0524 27.0263 40.8946C27.0047 40.9089 26.9759 40.9233 26.9471 40.9305C27.2352 40.8372 27.5233 40.7368 27.8186 40.6436C27.8042 40.6436 27.7898 40.6508 27.7754 40.6508C28.0924 40.6364 28.4093 40.6149 28.719 40.6006C28.7046 40.6006 28.683 40.6006 28.6686 40.5934C28.9784 40.6579 29.2881 40.7296 29.5906 40.7942C29.5474 40.787 29.5114 40.7727 29.4682 40.7512C29.7419 40.8946 30.0084 41.0309 30.2821 41.1743C30.2317 41.1528 30.1885 41.1241 30.1453 41.0882C30.3686 41.2891 30.5919 41.4899 30.808 41.6907C30.7719 41.662 30.7431 41.6261 30.7143 41.5903C30.88 41.8413 31.0385 42.0923 31.2041 42.3433C31.1825 42.3075 31.1681 42.2788 31.1537 42.2358C31.2474 42.5226 31.341 42.8095 31.4418 43.0964C31.4418 43.0821 31.4346 43.0605 31.4346 43.039C31.449 43.3546 31.4707 43.663 31.4851 43.9785C31.4851 43.9427 31.4851 43.9068 31.4995 43.871C31.4346 44.1794 31.3626 44.4806 31.2978 44.789C31.305 44.7531 31.3266 44.7173 31.341 44.6886C31.2041 44.9539 31.0601 45.2265 30.9232 45.4918C30.9448 45.456 30.9664 45.4273 30.9952 45.3986C30.7936 45.6209 30.5919 45.8361 30.3902 46.0584C30.419 46.0297 30.4478 46.001 30.4838 45.9795C30.2317 46.1445 29.9796 46.3023 29.7347 46.4672C29.7923 46.4314 29.8427 46.4027 29.9076 46.3812C29.6194 46.4744 29.3313 46.5676 29.0432 46.6609C29.0864 46.6465 29.1296 46.6393 29.1728 46.6322C28.8631 46.6465 28.5462 46.668 28.2364 46.6824C28.3085 46.6824 28.3661 46.6824 28.4381 46.6967C28.1356 46.6322 27.8259 46.5676 27.5233 46.4959C27.5953 46.5174 27.6602 46.5389 27.725 46.5676C27.4585 46.4314 27.192 46.2951 26.9255 46.1517C26.9687 46.1732 27.0047 46.2019 27.0335 46.2305C26.8174 46.0369 26.6013 45.8361 26.3852 45.6424C26.4212 45.6783 26.4572 45.7142 26.4861 45.7572C26.3276 45.5133 26.1691 45.2695 26.0106 45.0257C26.0395 45.083 26.0827 45.1404 26.1043 45.2121C26.0179 44.9396 25.9242 44.6671 25.8378 44.3945C25.845 44.416 25.8522 44.4447 25.8522 44.4734C25.8378 44.1794 25.8234 43.8925 25.809 43.5984C25.809 43.6558 25.809 43.706 25.7946 43.7634C25.8522 43.4837 25.917 43.2111 25.9746 42.9314C25.9602 42.9888 25.9386 43.0462 25.9098 43.1036C26.0323 42.8669 26.1547 42.6302 26.2772 42.4007C26.1979 42.5442 26.0971 42.6804 25.989 42.8023C26.1475 42.6302 26.306 42.4581 26.4644 42.286C26.4068 42.3433 26.3492 42.4007 26.2844 42.4437C26.4644 42.3218 26.6517 42.2071 26.8318 42.0852C26.7742 42.121 26.7238 42.1497 26.6589 42.1712C26.8534 42.1067 27.0551 42.0421 27.2496 41.9776C27.1776 41.9991 27.1055 42.0206 27.0335 42.0278C27.228 42.0206 27.4297 42.0063 27.6242 41.9991C27.6098 41.9991 27.5953 41.9991 27.5737 41.9991C26.9687 42.0278 26.4716 42.0995 25.989 42.5083C25.6001 42.8884 25.2039 43.4909 25.2327 44.0288Z" fill="#990028"/>
<path d="M23.0861 45.1834C23.4607 43.9212 23.1798 42.6087 23.648 41.3536C23.8785 40.7368 24.1666 40.1487 24.534 39.6036C24.8293 39.159 25.6433 38.9582 26.0682 38.6282C26.839 38.033 26.0106 36.8066 25.1534 37.2225C23.5399 38.0043 22.834 38.7932 22.1281 40.4427C21.4942 41.913 21.1053 44.1148 22.4162 45.3053C22.6107 45.4846 22.9853 45.499 23.0861 45.1834Z" fill="#990028"/>
<path d="M30.6135 49.5583C34.0998 50.9282 37.4061 44.5021 34.7913 42.1999C34.5824 42.0134 34.1719 42.1497 34.0998 42.415C33.9269 43.0462 33.9846 43.6415 33.9774 44.2869C33.963 45.291 33.6532 46.0871 33.1346 46.9334C32.5007 47.9733 31.7228 48.4897 30.5847 48.8985C30.2749 49.0133 30.347 49.4579 30.6135 49.5583Z" fill="#990028"/>
<path d="M27.9842 43.2686C27.6889 43.2399 27.3864 43.1395 27.0983 43.0534C26.8101 42.9673 26.5724 42.7593 26.2843 42.6876C25.8233 42.5729 25.3335 42.8024 25.2903 43.3188C25.247 43.828 25.6936 44.1507 26.169 44.1005C26.4428 44.0718 26.7381 44.1077 27.019 44.0862C27.408 44.0575 27.7321 43.9714 28.0923 43.8136C28.3588 43.6989 28.2652 43.2972 27.9842 43.2686Z" fill="#0C0A35"/>
<path d="M28.1571 44.3013C27.8834 44.954 27.4224 45.6927 27.4224 46.4242C27.4152 47.3494 28.6685 47.4283 28.8414 46.539C28.9062 46.1875 28.8774 45.8002 28.8918 45.4416C28.9134 45.0544 28.8558 44.7244 28.7478 44.3515C28.6685 44.0646 28.2796 44.0144 28.1571 44.3013Z" fill="#0C0A35"/>
<path d="M28.8847 42.7665C29.1512 42.1569 29.3601 41.3895 29.4321 40.7297C29.533 39.7973 28.1211 39.6969 27.9915 40.6149C27.8978 41.2676 27.7394 42.3721 28.2868 42.8741C28.4813 43.0534 28.7766 43.0247 28.8847 42.7665Z" fill="#0C0A35"/>
<path d="M28.9135 43.7562C29.144 44.1148 29.6555 44.2511 30.0516 44.3443C30.6351 44.4806 31.3914 44.6025 31.802 44.0503C32.1478 43.5913 31.802 42.91 31.2402 42.8669C31.0673 42.8526 30.9593 42.8813 30.8008 42.9386C31.0025 42.8669 30.7215 42.9386 30.6711 42.9386C30.4694 42.9602 30.2677 42.9888 30.0661 43.0104C29.7491 43.0462 29.2377 43.0606 29.0072 43.2972C28.9063 43.4192 28.8199 43.6056 28.9135 43.7562Z" fill="#0C0A35"/>
<path d="M23.2086 41.0739C23.2086 41.0667 23.2158 41.0595 23.2158 41.0524C23.2806 40.8372 23.187 40.6005 22.9637 40.5216C22.7692 40.4499 22.4811 40.5503 22.4307 40.7727C22.4307 40.7798 22.4235 40.787 22.4235 40.7942C22.373 41.0165 22.4379 41.246 22.6756 41.3249C22.8773 41.3966 23.1438 41.289 23.2086 41.0739Z" fill="#0C0A35"/>
<path d="M22.7981 42.4796C22.8413 41.9776 22.0562 41.9131 22.013 42.4151C21.9697 42.9243 22.7549 42.9889 22.7981 42.4796Z" fill="#0C0A35"/>
<path d="M22.7404 43.8136C22.7764 43.3976 22.1281 43.3474 22.0921 43.7634C22.0633 44.1722 22.7116 44.2296 22.7404 43.8136Z" fill="#0C0A35"/>
<path d="M24.0081 39.4889C24.0297 39.2666 23.8496 39.0586 23.6263 39.0442C23.403 39.0227 23.1941 39.202 23.1797 39.4244C23.1581 39.6467 23.3382 39.8547 23.5615 39.869C23.7848 39.8834 23.9865 39.7112 24.0081 39.4889Z" fill="#0C0A35"/>
<path d="M24.8364 38.492C24.8652 38.155 24.3466 38.1191 24.3178 38.449C24.289 38.7861 24.8076 38.8291 24.8364 38.492Z" fill="#0C0A35"/>
<path d="M25.8593 37.8393C25.8809 37.5381 25.4199 37.5023 25.3911 37.8035C25.3695 38.1047 25.8305 38.1406 25.8593 37.8393Z" fill="#0C0A35"/>
<path d="M34.5391 47.292C34.5607 47.0482 34.3663 46.8258 34.1213 46.8043C33.8764 46.7828 33.6531 46.9764 33.6315 47.2203C33.6099 47.4641 33.8044 47.6865 34.0493 47.708C34.2942 47.7223 34.5175 47.5359 34.5391 47.292Z" fill="#0C0A35"/>
<path d="M35.1946 45.9365C35.2163 45.6855 35.0218 45.456 34.7625 45.4344C34.5104 45.4129 34.2798 45.6066 34.2582 45.8648C34.2366 46.1158 34.4311 46.3453 34.6904 46.3668C34.9425 46.3883 35.173 46.1947 35.1946 45.9365Z" fill="#0C0A35"/>
<path d="M33.4444 48.4539C33.4804 48.0092 32.7961 47.959 32.76 48.3965C32.724 48.834 33.4083 48.8914 33.4444 48.4539Z" fill="#0C0A35"/>
<path d="M32.2415 49.0133C32.2703 48.6905 31.7589 48.6475 31.7373 48.9702C31.7085 49.3001 32.2127 49.3432 32.2415 49.0133Z" fill="#0C0A35"/>
<path d="M34.8202 44.0288C34.6833 44.1005 34.5897 44.2368 34.6185 44.4017C34.6617 44.6097 34.8922 44.7316 35.0867 44.6384C35.4685 44.4519 35.1803 43.8351 34.8202 44.0288Z" fill="#0C0A35"/>
<path d="M34.496 43.0964C34.496 43.1036 34.496 43.1108 34.4888 43.118C34.4384 43.3833 34.7985 43.5196 34.9786 43.369C35.1587 43.2184 35.0795 42.8382 34.8129 42.8454C34.8057 42.8454 34.7985 42.8454 34.7913 42.8454C34.6257 42.8526 34.532 42.9387 34.496 43.0964Z" fill="#0C0A35"/>
<path d="M26.7958 45.5278V45.5206C26.7525 45.6067 26.7021 45.6999 26.6589 45.786C26.8102 45.6353 26.8678 45.4058 26.7525 45.2194C26.6733 45.0903 26.5725 45.0042 26.414 44.9899C26.2411 44.9755 26.0466 45.0831 25.9962 45.2552C25.953 45.3915 25.9458 45.5206 26.0178 45.6425C26.1187 45.8218 26.2699 45.8792 26.4716 45.872C26.4788 45.872 26.4788 45.872 26.486 45.872C26.6373 45.8505 26.803 45.6856 26.7958 45.5278Z" fill="#F70032"/>
<path d="M30.5126 45.6783C30.5126 45.6712 30.5126 45.664 30.5126 45.664C30.4838 45.248 29.7779 45.1907 29.6843 45.5995C29.6843 45.6066 29.6842 45.6138 29.677 45.6138C29.6122 45.8863 29.7419 46.166 30.0516 46.1947C30.3613 46.2234 30.527 45.9509 30.5126 45.6783Z" fill="#F70032"/>
<path d="M27.1703 41.4899C27.1919 41.2532 27.0119 41.0452 26.7742 41.0237C26.5365 41.0022 26.3276 41.1815 26.306 41.4182C26.2843 41.6548 26.4644 41.8628 26.7021 41.8843C26.9398 41.8987 27.1559 41.7194 27.1703 41.4899Z" fill="#F70032"/>
<path d="M30.1668 41.2389C30.1596 41.2389 30.1596 41.2389 30.1668 41.2389C29.8211 41.4253 29.8211 41.827 30.0948 42.0708L30.102 42.078C30.2316 42.1927 30.4549 42.1856 30.599 42.121C30.8007 42.0278 30.9087 41.8055 30.8727 41.5831C30.7791 41.0954 30.102 41.0596 29.9219 41.5042V41.5114C30.1668 41.4325 30.4117 41.3608 30.6494 41.2819C30.4982 41.1958 30.3253 41.1528 30.1668 41.2389Z" fill="#F70032"/>
<path d="M22.3659 49.6229C22.4452 49.6946 22.5172 49.7377 22.618 49.7664C22.7693 49.8166 22.935 49.7377 23.0142 49.6086C23.1151 49.4364 23.043 49.2428 22.8918 49.128C22.8341 49.085 22.7765 49.0635 22.7045 49.0492C22.3875 48.9918 22.0922 49.3719 22.3659 49.6229Z" fill="#0C0A35"/>
<path d="M30.2678 38.8721C30.5415 38.8721 30.5415 38.4418 30.2678 38.4418C29.9941 38.4418 29.9941 38.8721 30.2678 38.8721Z" fill="#0C0A35"/>
<path d="M24.3971 48.1168C24.6492 48.1168 24.6492 47.7295 24.3971 47.7295C24.1522 47.7295 24.1522 48.1168 24.3971 48.1168Z" fill="#0C0A35"/>
<path d="M26.5365 51.2724C26.9255 51.2724 26.9255 50.67 26.5365 50.67C26.1403 50.67 26.1403 51.2724 26.5365 51.2724Z" fill="#0C0A35"/>
<path d="M25.3911 38.2553C25.7801 38.2553 25.7801 37.6528 25.3911 37.6528C25.0021 37.6457 25.0021 38.2553 25.3911 38.2553Z" fill="#0C0A35"/>
<path d="M23.3239 52.0327C23.2879 52.0686 23.2519 52.1044 23.2303 52.1546C23.0574 52.5132 23.5616 52.8216 23.7777 52.4702C23.7849 52.463 23.7849 52.4558 23.7921 52.4487C23.7561 52.4845 23.7201 52.5276 23.6769 52.5634C23.6913 52.5562 23.7057 52.5419 23.7129 52.5347C23.8498 52.4272 23.9218 52.2622 23.8281 52.0972C23.7129 51.9179 23.4752 51.8964 23.3239 52.0327Z" fill="#0C0A35"/>
<path d="M31.5499 36.1109C31.9677 36.1109 31.9677 35.4726 31.5499 35.4726C31.1321 35.4654 31.1321 36.1109 31.5499 36.1109Z" fill="#0C0A35"/>
<path d="M18.1304 48.3606C18.0296 48.3749 17.9648 48.4251 17.8855 48.4825C17.619 48.6905 17.9576 49.085 18.2313 48.9272C18.2241 48.9272 18.2169 48.9344 18.2097 48.9344C18.6347 48.9344 18.5626 48.2817 18.1304 48.3606Z" fill="#0C0A35"/>
<path d="M19.2973 50.003C19.3045 50.0102 19.3045 50.0245 19.3117 50.0317C19.4053 50.2254 19.7223 50.2254 19.8231 50.0317C19.8303 50.0245 19.8303 50.0102 19.8375 50.003C19.9384 49.795 19.8159 49.5369 19.571 49.5369C19.3189 49.5369 19.1964 49.8022 19.2973 50.003Z" fill="#0C0A35"/>
<path d="M35.3892 56.429C34.6761 56.386 33.9413 56.3573 33.2786 56.6155C32.7096 56.8379 32.2486 57.2538 31.7948 57.6555C31.0889 58.2866 30.383 58.9177 29.7563 59.6277C28.0491 61.5427 26.9615 63.9524 26.4068 66.4483C26.2916 66.9647 26.2051 67.5241 26.414 68.0118C26.7166 68.7218 27.5233 69.0445 28.258 69.2956C29.2809 69.647 30.3326 70.0056 31.413 70.0414C32.0613 70.063 32.7096 69.9554 33.3579 69.8621C34.4023 69.6972 35.4396 69.5394 36.4841 69.3744C36.9163 69.3099 37.0747 69.1449 37.4133 68.8652C38.0255 68.3489 38.2921 67.5026 38.2849 66.7065C38.2849 66.4985 38.2921 66.2762 38.3929 66.0969C38.501 65.9104 38.6882 65.7956 38.8611 65.6809C39.9848 64.9278 40.9212 63.9022 41.5695 62.7189C41.728 62.4248 41.872 62.0734 41.7352 61.7722C41.5911 61.4566 41.1949 61.3275 40.842 61.3418C40.489 61.3562 40.1433 61.4638 39.7975 61.4566C39.8119 60.7035 39.8263 59.9577 39.8407 59.2046C39.8479 58.7241 39.8552 58.222 39.6174 57.8061C39.3437 57.3184 38.8035 57.053 38.2705 56.8809C37.3412 56.5725 36.3544 56.4864 35.3892 56.429Z" fill="#FFD6A1"/>
<path d="M39.4805 58.1862C40.2729 58.1073 40.6619 57.2897 40.8347 56.5151C40.9212 56.135 40.95 55.7406 40.95 55.3533C40.95 54.0336 40.6691 52.6853 39.9344 51.588C39.1996 50.4907 37.9535 49.6874 36.6353 49.6874C36.023 49.6874 35.418 49.8524 34.8417 50.0389C32.3782 50.8421 30.066 52.1761 28.2868 54.0552C26.5148 55.9342 25.3047 58.387 25.1246 60.9618C25.1102 61.1124 25.1246 61.2988 25.2543 61.3777C25.6288 62.3603 26.3708 63.0201 27.3504 63.4146C28.33 63.809 29.4753 63.7732 30.4262 63.3213C30.9088 63.0918 31.3482 62.7619 31.6147 62.3029C31.9316 61.765 31.9892 61.1195 32.1045 60.5028C32.2198 59.886 32.4431 59.2405 32.9617 58.8891C33.2498 58.6954 33.5956 58.6237 33.9413 58.552C34.8201 58.3799 35.7061 58.2508 36.5921 58.1719L39.4805 58.1862Z" fill="#0C0A35"/>
<path d="M32.9473 65.0928C33.7829 65.1861 34.5608 65.5303 35.3315 65.8746C34.7481 66.3981 33.9269 66.5344 33.149 66.6348C31.6003 66.8356 29.9436 66.936 28.5677 66.2045C29.958 65.5662 31.4274 64.9135 32.9473 65.0928Z" fill="white"/>
<path d="M23.0357 70.6367C22.6611 70.8232 22.4378 71.2033 22.2361 71.5619C21.7679 72.4082 21.3357 73.2832 20.9396 74.1725C20.8027 74.4881 20.5722 74.4235 20.6442 74.7534C20.7163 75.0762 21.0692 75.736 21.3141 75.9583C21.6311 76.2524 22.3154 76.9911 22.6323 77.2851C23.1293 77.7442 24.7429 78.8128 25.3335 79.0136C27.2568 79.6878 29.5762 79.8097 31.5354 79.2503C32.2197 79.0566 32.868 78.7697 33.5019 78.4542C34.6328 77.8804 35.7637 77.113 36.2463 75.944C36.7001 74.8467 36.5056 73.6059 36.3112 72.4369C35.9366 72.0138 35.7565 71.5547 35.3819 71.1244C35.101 70.8089 34.8129 70.4861 34.4311 70.2925C34.0998 70.1275 33.7324 70.0773 33.3651 70.0343C30.3613 69.6757 27.3072 69.6757 24.3035 70.0343C23.7992 70.1132 23.2158 70.1634 23.0357 70.6367Z" fill="#0C0A35"/>
<path d="M31.1537 80.8496C31.3554 80.8066 31.5427 80.7062 31.7011 80.5771C31.9244 80.4121 32.1189 80.1826 32.1621 79.9101C32.2126 79.6017 32.0469 79.279 31.7948 79.0925C31.5427 78.906 31.2185 78.8343 30.9016 78.8343C30.6423 78.8343 30.3758 78.8917 30.1813 79.0566C30.0876 79.1355 30.0084 79.2431 29.958 79.3579C29.7923 79.7165 29.8427 80.1611 30.0876 80.4695C30.3397 80.7851 30.7647 80.9357 31.1537 80.8496Z" fill="#F70032"/>
<path d="M32.1838 65.1573C31.8237 65.1573 31.5211 65.4585 31.5211 65.8171C31.5211 66.1757 31.8237 66.477 32.1838 66.477C32.544 66.477 32.8465 66.1757 32.8465 65.8171C32.8465 65.4585 32.544 65.1573 32.1838 65.1573Z" fill="#0C0A35"/>
<path d="M35.2451 66.5702C34.2871 66.4626 33.2859 66.6778 32.3278 66.7567C31.3482 66.8356 30.2533 66.4411 29.3169 66.7352C29.0936 66.8069 29.0432 67.0579 29.1872 67.23C29.8932 68.0548 31.3482 67.897 32.3278 67.8181C33.3651 67.7392 34.5392 67.4954 35.3388 66.7782C35.4252 66.6993 35.346 66.5774 35.2451 66.5702Z" fill="#0C0A35"/>
<path d="M38.7458 62.0662C38.6162 62.3316 38.9403 62.6184 39.1636 62.3889C39.4518 62.1021 38.9043 61.7291 38.7458 62.0662Z" fill="#0C0A35"/>
<path d="M40.3018 58.5664C40.4242 57.8994 40.7484 57.2324 40.6187 56.5439C40.4459 55.6044 39.7039 54.8083 39.8912 53.8257C40.1073 52.671 40.9573 51.6956 40.6548 50.4907C40.6331 50.419 40.5179 50.4334 40.5179 50.5123C40.6403 52.004 39.3798 52.7499 39.2934 54.0767C39.2645 54.4855 39.2934 54.8441 39.4734 55.2171C40.0209 56.3718 39.9561 57.3185 40.0641 58.5449C40.0785 58.6596 40.273 58.7098 40.3018 58.5664Z" fill="#B70027"/>
<path d="M41.7065 56.2785C41.6921 55.755 41.4759 55.2744 41.3391 54.7796C41.2526 54.4712 41.2022 54.1341 41.2599 53.8114C41.3031 53.5603 41.4327 53.3739 41.4039 53.1157C41.3895 53.0153 41.3175 52.8933 41.195 52.9077C40.5467 52.9794 40.4099 53.7468 40.4891 54.2919C40.6044 55.0234 40.9861 55.755 41.4039 56.3574C41.4976 56.4793 41.7137 56.4506 41.7065 56.2785Z" fill="#B70027"/>
<path d="M39.9056 59.1186C38.6667 57.6197 38.393 54.6146 38.89 52.7786C39.1205 51.9395 39.9993 51.2653 39.9777 50.3545C39.9561 49.4508 39.704 48.7264 39.1277 48.0379C39.0197 47.9088 38.854 48.0523 38.8756 48.1813C39.0196 49.0563 39.4086 49.7807 39.2285 50.7131C39.1277 51.2294 38.6307 51.753 38.4362 52.2622C38.0472 53.2663 38.0976 54.256 38.1697 55.3103C38.2561 56.5797 38.4146 58.7385 39.812 59.2836C39.9128 59.3266 39.9633 59.1903 39.9056 59.1186Z" fill="#B70027"/>
<path d="M38.926 58.5305C37.9824 57.7416 37.4061 56.4076 37.2476 55.2171C37.0676 53.8544 37.6222 52.793 38.2705 51.667C39.0196 50.3545 38.4938 48.748 37.4853 47.7224C37.3845 47.622 37.1684 47.6865 37.1828 47.8443C37.3701 49.2859 38.3713 50.1178 37.4781 51.6956C36.9883 52.5635 36.6714 53.2663 36.5777 54.2632C36.4481 55.7478 37.082 58.3727 38.7747 58.7744C38.9188 58.8102 39.0484 58.6309 38.926 58.5305Z" fill="#B70027"/>
<path d="M37.7519 58.7026C37.0532 57.8492 36.2465 57.2324 35.6198 56.2857C34.5465 54.6648 35.8503 53.5029 36.3689 52.0112C36.9596 50.3042 36.4698 48.3463 34.849 47.3637C34.6978 47.2705 34.4817 47.4211 34.5465 47.6004C35.094 49.1352 36.2177 49.9815 35.6054 51.8032C35.2452 52.879 34.5753 53.7468 34.4601 54.8943C34.2944 56.6012 36.3041 58.2078 37.6007 58.8963C37.7303 58.9608 37.8384 58.803 37.7519 58.7026Z" fill="#B70027"/>
<path d="M36.7866 59.2549C35.7997 58.3154 34.8201 57.5552 33.9989 56.4507C32.7168 54.7222 34.1502 53.6536 34.3591 51.9897C34.5464 50.4836 33.6172 47.8587 31.8164 47.7367C31.6651 47.7296 31.6291 47.9089 31.7083 48.0021C32.6303 49.1783 33.682 49.8812 33.7829 51.5235C33.8549 52.7571 32.7816 53.7325 32.7456 54.9589C32.688 56.7949 35.1587 58.8103 36.6497 59.4414C36.765 59.4916 36.8946 59.3553 36.7866 59.2549Z" fill="#B70027"/>
<path d="M34.993 59.1473C33.7973 58.5305 33.0625 57.4619 32.3638 56.3574C31.7588 55.4035 31.5787 54.4066 32.191 53.3667C32.3926 53.0153 32.6592 52.6925 32.8104 52.3124C33.4659 50.6414 32.2414 48.4611 30.7071 47.6793C30.527 47.5861 30.3758 47.7654 30.4478 47.9375C31.1465 49.5369 33.0841 50.376 32.1189 52.4272C31.7516 53.2018 31.1249 53.962 31.2545 54.88C31.485 56.4793 33.0842 59.3051 34.9498 59.341C35.0434 59.3481 35.0866 59.1975 34.993 59.1473Z" fill="#B70027"/>
<path d="M34.3808 60.2518C32.6881 58.4946 29.778 57.0602 30.6712 54.1269C31.2114 52.3483 31.4131 50.4907 29.7564 49.1926C29.6483 49.1065 29.4539 49.1783 29.5043 49.336C30.0373 50.878 30.7648 51.8032 30.1958 53.5316C29.8644 54.5501 29.7564 55.2816 30.0445 56.3215C30.5776 58.2221 32.6665 59.5059 34.3016 60.345C34.3664 60.3737 34.4313 60.302 34.3808 60.2518Z" fill="#B70027"/>
<path d="M33.2643 60.5459C31.7444 59.6637 30.4551 58.5162 29.5835 56.9814C28.8704 55.7263 29.0577 54.3636 29.1297 52.9938C29.2161 51.4877 29.0144 49.042 27.0696 48.8699C26.9039 48.8556 26.8319 49.0779 26.9399 49.1855C27.4514 49.709 27.9844 50.0461 28.2581 50.7705C28.4814 51.3586 28.4526 52.0327 28.4454 52.6495C28.4238 53.6608 28.1717 54.7437 28.4022 55.7406C28.9352 58.0787 30.8152 60.1801 33.2067 60.6821C33.2859 60.6965 33.3435 60.5889 33.2643 60.5459Z" fill="#B70027"/>
<path d="M32.7889 60.9187C31.2906 60.345 30.0877 59.7497 28.928 58.6094C27.8115 57.5121 27.6962 55.7191 27.7106 54.2632C27.725 52.6351 27.8835 50.0102 25.7658 49.6157C25.5785 49.5799 25.4488 49.7879 25.5785 49.9313C26.1475 50.5696 26.7382 50.9425 27.0623 51.7888C27.3433 52.5419 27.2352 53.4742 27.228 54.2632C27.2136 55.4394 27.2928 56.7231 27.8187 57.7989C28.5678 59.3409 30.9376 61.4423 32.7961 61.0407C32.8609 61.0335 32.8465 60.9403 32.7889 60.9187Z" fill="#B70027"/>
<path d="M32.263 61.7579C30.5919 61.4638 29.2305 60.3808 28.1356 59.1329C26.9543 57.7918 26.9327 56.1709 26.6157 54.5142C26.3132 52.9435 26.6374 50.6413 24.6421 50.168C24.4836 50.1321 24.4116 50.3329 24.534 50.419C26.7382 52.0112 25.7153 55.8123 26.6662 58.0428C27.6314 60.2948 29.8428 61.7435 32.227 61.9945C32.3711 62.0089 32.3999 61.7794 32.263 61.7579Z" fill="#B70027"/>
<path d="M32.3135 62.6759C31.9173 62.4536 31.6508 62.4679 31.1826 62.4608C29.9652 62.4392 29.036 61.4925 28.1572 60.761C27.4513 60.1729 26.731 59.5346 26.2628 58.7385C25.8018 57.9711 25.5209 57.0244 25.1175 56.2211C23.9794 53.9476 22.4883 51.6669 19.7295 53.3524C19.6719 53.3882 19.7079 53.4958 19.7799 53.4671C23.7129 51.8247 24.498 57.6125 26.2484 59.7928C27.725 61.636 29.8644 63.1995 32.2846 62.8193C32.3711 62.8265 32.3711 62.7118 32.3135 62.6759Z" fill="#B70027"/>
<path d="M31.1106 63.6513C29.4179 63.429 28.1717 62.5181 27.1345 61.2415C26.3997 60.3378 25.4993 59.5705 24.3973 59.176C24.2316 59.1186 24.1091 59.3481 24.2316 59.4629C24.8366 60.0438 25.5426 60.5028 26.1764 61.055C26.7959 61.5929 27.1777 62.3245 27.8188 62.848C28.6904 63.5652 30.0085 63.9167 31.1106 63.8665C31.2547 63.8593 31.2403 63.6656 31.1106 63.6513Z" fill="#B70027"/>
<path d="M37.4853 61.7937C36.909 61.9443 36.304 61.9443 35.7133 61.8941C35.101 61.8439 34.496 61.6646 33.9557 61.3633C33.3363 61.0191 32.8753 60.5816 32.4503 60.0078C32.3062 59.8142 32.1838 59.6134 32.1333 59.3767C32.0469 58.9823 32.2198 58.5591 32.5007 58.2651C32.7816 57.971 33.1634 57.7917 33.5596 57.677C35.0722 57.2395 36.8154 57.7702 37.8238 58.9751C37.9535 59.1329 38.112 59.3193 38.3209 59.3122C38.537 59.305 38.6738 59.1042 38.7963 58.9249C39.0556 58.5519 39.3221 58.3224 39.6751 58.0356C39.92 57.8347 40.2657 57.5407 40.5755 57.5694C41.1013 57.6196 41.3894 58.2364 41.3462 58.7599C41.2886 59.4915 40.7699 60.3378 40.1649 60.7609C39.5526 61.1912 39.1276 61.3705 37.4853 61.7937Z" fill="#191956"/>
<path d="M39.7039 61.9586C38.7891 60.6605 40.9068 59.3839 41.2165 58.1144C41.4182 57.304 41.0149 56.5294 40.2657 56.2211C40.1721 56.1852 40.0784 56.3071 40.1361 56.386C41.2382 57.9567 40.2513 58.7456 39.3581 60.0437C38.8827 60.7394 38.962 61.5211 39.5742 62.059C39.639 62.1164 39.7615 62.0375 39.7039 61.9586Z" fill="#B70027"/>
<path d="M38.9333 62.475C38.782 61.6932 38.5803 61.0262 38.7748 60.223C38.8972 59.7138 39.3294 59.2117 39.5599 58.7384C39.8336 58.179 40.0137 57.598 39.6752 57.0386C39.632 56.9669 39.4951 56.9884 39.5095 57.0817C39.6608 58.3009 38.6379 59.0109 38.2129 60.0652C37.8672 60.9258 38.1697 61.9227 38.7748 62.5682C38.8396 62.6471 38.9477 62.5682 38.9333 62.475Z" fill="#B70027"/>
<path d="M38.854 63.1706C37.2693 61.1266 36.7578 56.8306 33.6893 56.3357C33.6172 56.3214 33.5668 56.4146 33.6389 56.4577C34.993 57.3613 35.8214 58.4658 36.5706 59.8859C37.2044 61.0836 37.7303 62.3387 38.7675 63.2567C38.8251 63.314 38.9044 63.2352 38.854 63.1706Z" fill="#B70027"/>
<path d="M37.3053 62.3674C35.8286 60.0939 34.9282 57.3112 32.0902 56.3429C31.9677 56.2999 31.8885 56.4649 31.9677 56.5509C32.9258 57.5478 34.0999 58.2005 34.957 59.3265C35.7566 60.3736 36.0952 61.6215 37.0892 62.5324C37.1972 62.6328 37.3917 62.5037 37.3053 62.3674Z" fill="#B70027"/>
<path d="M37.154 63.8305C35.7566 61.1697 33.8693 58.5376 31.233 56.9884C31.1682 56.9526 31.1033 57.0386 31.1538 57.0888C33.3939 59.14 35.1299 61.5354 36.9667 63.9381C37.046 64.0456 37.2188 63.9524 37.154 63.8305Z" fill="#B70027"/>
<path d="M35.9367 63.0702C34.2439 61.5139 32.8537 59.7137 31.2474 58.0857C31.1754 58.014 31.0385 58.0857 31.0745 58.1861C31.4131 59.0611 32.227 59.8572 32.8609 60.5529C33.7541 61.5426 34.7121 62.4678 35.771 63.2782C35.8935 63.3786 36.0447 63.1706 35.9367 63.0702Z" fill="#B70027"/>
<path d="M21.0261 54.5859C20.7524 54.7509 20.2986 55.1166 20.1185 55.3748C19.2685 56.6299 18.8867 57.9639 18.8363 59.4772C18.8147 60.0438 18.8795 60.6175 18.9804 61.1769C19.3621 63.3285 20.2769 65.3797 21.6167 67.1082C22.0993 67.7321 22.6612 68.3274 23.3887 68.6286C23.7057 68.7577 24.037 68.8222 24.3611 68.9227C25.1103 69.1378 25.809 69.4964 26.5581 69.7116C27.3072 69.9267 28.1428 69.9841 28.8271 69.6183C29.1224 67.0077 28.4381 64.39 27.6314 61.8798C27.0623 60.1155 26.4213 58.3512 25.4128 56.7877C24.995 56.1422 24.5124 55.5254 23.8929 55.0664C23.2735 54.6074 22.5027 54.3205 21.732 54.3851C21.4871 54.3994 21.2422 54.4568 21.0261 54.5859Z" fill="#191956"/>
<path d="M29.2736 69.1306C29.4609 67.7178 29.2952 66.6563 28.4381 65.4873C27.7322 64.5191 27.2784 63.8306 27.833 62.5826C28.0131 62.1738 28.2436 61.6001 28.1067 61.1339C27.6889 59.6852 26.2699 59.0827 25.9746 57.5551C25.6721 55.9773 26.3491 54.0839 25.3767 52.7212C25.2759 52.5849 24.995 52.6064 25.0166 52.8216C25.1606 54.3492 24.8725 55.8553 25.1534 57.3686C25.2543 57.8994 25.3119 58.5377 25.6 59.011C26.0106 59.678 26.6661 60.0868 27.1271 60.7251C27.7178 61.5427 26.911 62.6472 26.7021 63.4576C26.5724 63.9597 26.7813 64.4258 27.0046 64.8562C27.4296 65.6666 28.1643 66.2475 28.5173 67.1225C28.7982 67.8253 28.6398 68.5425 29.0287 69.2095C29.1008 69.3099 29.2592 69.2454 29.2736 69.1306Z" fill="#B70027"/>
<path d="M28.2724 69.7331C28.3589 69.0159 28.0492 68.4636 27.8042 67.7966C27.4585 66.8714 26.5221 66.4698 25.9746 65.6809C25.0238 64.3039 26.1547 63.2783 26.3708 61.973C26.4428 61.5355 26.234 60.9402 25.9242 60.6247C25.2903 59.9792 24.5052 59.6206 23.9361 58.8747C22.8773 57.4905 24.2243 56.4864 24.2747 55.1668C24.3035 54.3564 23.9073 52.5132 22.7116 52.714C22.5387 52.7427 22.4739 52.965 22.5531 53.1013C23.0718 53.9547 23.5616 54.4137 23.3167 55.4967C23.1294 56.3287 22.6684 56.8594 22.6612 57.7559C22.6468 59.1042 23.9217 60.1155 24.9518 60.7322C26.2916 61.5355 25.4128 62.4679 25.0886 63.4791C24.8581 64.1963 24.9302 64.7485 25.2039 65.4586C25.3912 65.9463 25.7801 66.4913 26.2123 66.8069C27.1704 67.5026 27.7538 68.6357 28.0996 69.7617C28.1284 69.855 28.2652 69.8263 28.2724 69.7331Z" fill="#B70027"/>
<path d="M26.6013 69.5609C26.2988 68.7935 25.8954 68.1409 25.3984 67.481C24.57 66.3837 23.5328 66.0395 23.9145 64.3899C24.1811 63.2352 24.8149 62.0734 23.5976 61.2343C22.5027 60.4812 21.0621 59.5847 21.307 58.0284C21.4366 57.218 22.0633 56.5797 22.301 55.8051C22.6828 54.5643 22.2146 53.2017 20.9252 52.7355C20.774 52.6781 20.6227 52.8789 20.7163 53.008C21.4655 54.0623 22.0849 54.8727 21.3934 56.178C21.0981 56.7303 20.774 57.2251 20.5723 57.8276C20.1401 59.1185 21.2566 60.4956 22.2218 61.1841C23.3383 61.9801 23.8425 62.3029 23.3527 63.7803C23.1006 64.5477 23.0358 65.2075 23.2374 65.9964C23.3743 66.5057 23.7777 66.8858 24.1594 67.2157C25.0382 67.9616 25.7297 68.7648 26.4645 69.647C26.5149 69.6972 26.6229 69.6326 26.6013 69.5609Z" fill="#B70027"/>
<path d="M24.1954 68.6716C22.5891 67.603 21.8904 66.1973 22.3946 64.2608C22.6539 63.2567 22.5387 62.5252 21.8327 61.7506C21.2781 61.141 20.5434 60.8326 20.0103 60.1441C19.3404 59.262 19.6862 58.2149 19.9743 57.2825C20.2841 56.2856 20.493 55.2313 19.8951 54.299C19.8159 54.1699 19.6286 54.2272 19.6214 54.3707C19.4557 57.1462 17.5036 60.0294 20.6658 61.851C22.2721 62.7762 21.6599 63.6153 21.5374 65.0282C21.4798 65.688 21.4726 66.3981 21.7823 67.0077C22.2217 67.8755 23.0645 68.8796 24.0945 69.0015C24.2962 69.0302 24.3323 68.7576 24.1954 68.6716Z" fill="#B70027"/>
<path d="M19.607 67.6101C20.5939 66.728 21.2565 65.0928 20.882 63.7946C20.4498 62.2957 18.5626 61.184 17.0499 61.392C16.9202 61.4064 16.8914 61.6287 17.0139 61.6789C18.3465 62.2527 19.679 62.4391 20.3057 63.9524C20.6803 64.8561 20.032 66.728 19.4269 67.4308C19.3117 67.5527 19.4774 67.7249 19.607 67.6101Z" fill="#B70027"/>
<path d="M22.7116 67.9831C22.2002 67.9903 21.6888 67.9903 21.1774 67.9975C20.9901 67.9975 20.7884 68.0046 20.6371 68.1194C20.5219 68.2055 20.457 68.3417 20.457 68.4852C20.4642 68.8438 20.8532 69.0374 21.1557 69.2311C21.3502 69.353 21.5231 69.4964 21.6816 69.6614C21.7392 69.7259 21.4583 70.5722 21.3718 70.6009C20.0321 73.3334 17.2588 79.3077 16.6105 80.5126C16.1567 80.1826 15.5157 79.8958 14.9682 80.0105C14.9034 80.0249 14.8314 80.0464 14.7953 80.0966C14.7161 80.2113 14.8314 80.3619 14.9466 80.448C15.3572 80.7707 15.7966 81.0504 16.2576 81.2943C15.9839 81.8394 15.811 82.1047 15.6021 82.6139C15.5517 82.7287 15.2563 83.8117 15.8254 83.7686C16.4881 83.7184 16.8843 82.4275 17.0427 81.7892C17.4533 82.0043 17.9575 82.2338 18.4546 82.3916C18.7355 82.4777 18.9588 82.1406 18.7787 81.9183C18.5266 81.6027 18.1664 81.3517 17.8279 81.2728C19.8376 78.2247 21.6816 75.0619 23.3455 71.813C23.4031 71.7054 23.4608 71.5978 23.5616 71.5404C23.6697 71.483 23.8281 71.5189 23.8569 71.6337C23.8569 71.6408 23.8641 71.813 23.8569 71.8273C23.3095 75.5854 22.6036 79.2216 21.7248 82.9152C21.4007 82.8434 21.0693 82.8721 20.738 82.8004C20.5651 82.7645 20.385 82.7287 20.2121 82.7789C20.0465 82.8291 19.9024 83.0084 19.9528 83.1805C19.9888 83.2953 20.1041 83.367 20.2121 83.4244C20.6155 83.6324 21.1125 83.6037 21.5663 83.618C21.4511 84.0698 21.1125 84.9448 21.1774 85.4038C21.2206 85.7194 21.6744 85.7624 21.804 85.4684C22.0489 84.9161 22.2866 84.4284 22.4523 83.8188C22.8341 84.1272 23.4536 84.2993 23.8641 84.3137C24.0154 84.3209 24.1235 84.1918 24.0946 84.0412C24.0586 83.8332 23.9146 83.6395 23.7273 83.5248C23.4824 83.367 23.1582 83.2451 22.8701 83.1949C23.7705 79.3507 25.1823 75.6213 26.7958 72.0138C26.8607 71.8775 27.0696 71.899 27.0912 72.0496C27.4369 74.1152 27.6674 75.7575 27.689 77.8589C27.7106 79.6591 27.6602 81.9685 27.6314 83.8762C27.6314 83.9336 27.581 83.9838 27.5234 83.9838C27.0119 83.9766 26.5941 83.8906 26.0755 84.0268C25.9747 84.0555 25.8594 84.0914 25.8018 84.1846C25.6721 84.3926 25.9387 84.6293 26.1764 84.701C26.5797 84.8229 27.3073 84.7655 27.4801 84.7512C27.5018 84.7512 27.5162 84.7655 27.5162 84.7799C27.5089 85.117 27.5162 85.5473 27.5018 85.8772C27.4945 86.0637 27.4873 86.2573 27.5738 86.4294C27.653 86.5944 27.8547 86.7235 28.0348 86.6589C28.2221 86.5944 28.2869 86.3649 28.3157 86.1641C28.3877 85.6979 28.4238 85.2317 28.431 84.7584C28.431 84.7297 28.4526 84.7082 28.4814 84.7082C28.8632 84.7368 29.2449 84.7297 29.6195 84.6938C29.7996 84.6795 29.9868 84.6436 30.1093 84.5145C30.2966 84.3065 30.1597 83.9766 29.8788 83.9192C29.2449 83.7973 28.6038 84.034 28.6038 84.034C28.5894 84.034 28.5822 84.0196 28.5822 84.0053C29.3602 77.8948 29.958 72.6377 30.7 72.1931C30.8945 72.0783 31.1249 72.1787 31.197 72.3939C32.047 74.8897 32.58 77.4716 33.0338 80.0679C33.2499 81.2871 33.5236 82.449 33.4156 83.6754C33.4011 83.8045 33.3003 83.9049 33.1707 83.9192C32.8177 83.9694 32.4287 84.1344 32.1406 84.3065C32.0542 84.3639 31.9605 84.4284 31.9173 84.5217C31.8237 84.7368 32.0181 84.9879 32.2414 85.0381C32.4719 85.0883 32.7024 85.0022 32.9113 84.9018C33.1202 84.8086 33.3435 84.701 33.574 84.7082C33.6749 84.7153 33.7613 85.7481 34.0422 86.2645C34.1215 86.4151 34.3088 86.3434 34.3664 86.1856C34.4816 85.8557 34.5176 85.1672 34.388 84.6651C34.3664 84.5791 34.4312 84.5002 34.5176 84.4858C34.9282 84.4356 35.4036 84.3639 35.7926 84.328C36.0735 84.2994 36.4553 84.1416 36.3689 83.869C36.304 83.661 36.1312 83.4531 35.7278 83.5248C35.2092 83.618 34.8922 83.7112 34.3664 83.7758C34.2439 79.3077 34.0422 76.4747 33.6893 72.4297C33.6317 71.7269 34.2511 71.7843 34.4456 72.1285C35.2524 73.5629 36.4481 76.1879 37.2188 77.6223C37.9824 79.0423 39.0556 80.5628 39.848 81.9541C39.9777 82.1836 40.0641 82.4346 40.1073 82.7C40.1289 82.865 40.1433 82.9439 39.9705 83.0443C39.812 83.1375 39.4734 83.3168 39.315 83.4029C39.1565 83.4889 39.0556 83.7328 39.1997 83.8403C39.2501 83.8762 39.3078 83.8834 39.3654 83.8834C39.6535 83.8977 39.8768 83.7543 40.1217 83.5965C40.2154 83.5319 40.8492 83.1949 41.1013 84.3854C41.1446 84.6006 41.2094 84.8229 41.3967 84.9377C41.8145 85.1958 42.1242 84.7297 42.0594 84.3711C42.0089 84.077 41.8073 83.8403 41.6488 83.5893C41.4903 83.3383 41.3607 83.0299 41.4759 82.7574C41.5984 82.4705 41.8793 82.4848 42.1602 82.3486C42.3115 82.2769 42.47 82.1406 42.5708 81.99C42.7077 81.7892 42.5204 81.5166 42.2755 81.574C42.0306 81.6314 41.8001 81.7892 41.5984 81.9469C41.2958 82.198 40.9285 82.4777 40.77 82.1191C39.5383 79.4296 38.926 77.3139 37.8527 74.9758C37.5214 74.2586 37.1972 73.5342 36.9091 72.8027C36.6282 72.0927 36.3184 71.1818 36.7434 70.5005C36.9451 70.1778 37.2765 69.9698 37.5862 69.7546C37.9103 69.5251 38.2417 69.2526 38.3497 68.8725C38.4578 68.4708 38.1985 68.0548 37.7879 67.976C36.1096 67.6245 34.2943 68.0835 32.58 68.1911C29.1081 68.4063 25.6217 67.7034 22.1642 68.0764L22.7116 67.9831Z" fill="#222272"/>
<path d="M37.579 68.4421C37.1252 68.4421 37.1252 69.1378 37.579 69.1378C38.0256 69.1378 38.0256 68.4421 37.579 68.4421Z" fill="#0C0A35"/>
<path d="M36.3689 68.4062C35.8718 68.4062 35.8718 69.1665 36.3689 69.1665C36.8587 69.1736 36.8587 68.4062 36.3689 68.4062Z" fill="#0C0A35"/>
<path d="M34.9282 68.4134C34.4383 68.4134 34.4383 69.1665 34.9282 69.1665C35.418 69.1665 35.418 68.4134 34.9282 68.4134Z" fill="#0C0A35"/>
<path d="M33.7181 68.4636C33.2499 68.4636 33.2499 69.1808 33.7181 69.1808C34.1863 69.188 34.1863 68.4636 33.7181 68.4636Z" fill="#0C0A35"/>
<path d="M32.2413 68.4923C31.7083 68.4923 31.7083 69.3099 32.2413 69.3099C32.7744 69.3099 32.7744 68.4923 32.2413 68.4923Z" fill="#0C0A35"/>
<path d="M30.844 68.5712C30.311 68.5712 30.311 69.3888 30.844 69.3888C31.377 69.3888 31.377 68.5712 30.844 68.5712Z" fill="#0C0A35"/>
<path d="M29.5474 68.5569C29.5402 68.5569 29.533 68.5569 29.5186 68.5569C29.2161 68.5282 29.0432 68.9012 29.1801 69.1378C29.3386 69.4032 29.6843 69.3673 29.85 69.1378C29.8572 69.1307 29.8572 69.1235 29.8644 69.1163C30.0517 68.8725 29.7996 68.5784 29.5474 68.5569Z" fill="#0C0A35"/>
<path d="M28.2004 68.5354C27.725 68.5354 27.725 69.2669 28.2004 69.2669C28.6758 69.2669 28.6758 68.5354 28.2004 68.5354Z" fill="#0C0A35"/>
<path d="M26.803 68.3633C26.2916 68.3633 26.2916 69.145 26.803 69.145C27.3072 69.145 27.3072 68.3633 26.803 68.3633Z" fill="#0C0A35"/>
<path d="M25.5136 68.3345C24.9662 68.3345 24.9662 69.1737 25.5136 69.1737C26.0611 69.1737 26.0611 68.3345 25.5136 68.3345Z" fill="#0C0A35"/>
<path d="M24.0369 68.3274C23.5399 68.3274 23.5399 69.0948 24.0369 69.0948C24.534 69.1019 24.534 68.3274 24.0369 68.3274Z" fill="#0C0A35"/>
<path d="M22.7548 68.3561C22.2938 68.3561 22.2938 69.0661 22.7548 69.0661C23.2158 69.0733 23.2158 68.3561 22.7548 68.3561Z" fill="#0C0A35"/>
<path d="M21.6166 68.3417C21.134 68.3417 21.134 69.0876 21.6166 69.0876C22.1064 69.0876 22.1064 68.3417 21.6166 68.3417Z" fill="#0C0A35"/>
<path d="M35.2956 71.7555C35.2884 71.7627 35.2812 71.7699 35.274 71.777C35.0939 71.9635 35.0939 72.2432 35.274 72.4369C35.2812 72.444 35.2884 72.4512 35.2956 72.4584C35.5909 72.7739 36.1384 72.5301 36.1384 72.1141C36.1384 71.6838 35.5981 71.44 35.2956 71.7555Z" fill="#990028"/>
<path d="M32.5871 72.0209C32.2558 72.0209 31.9821 72.2935 31.9821 72.6234C31.9821 72.9533 32.2558 73.2258 32.5871 73.2258C32.9185 73.2258 33.1922 72.9533 33.1922 72.6234C33.1922 72.3007 32.9185 72.0209 32.5871 72.0209Z" fill="#990028"/>
<path d="M28.7478 72.2002C28.4164 72.2002 28.1355 72.4799 28.1355 72.8099C28.1355 73.1398 28.4164 73.4195 28.7478 73.4195C29.0791 73.4195 29.36 73.1398 29.36 72.8099C29.36 72.4799 29.0791 72.2002 28.7478 72.2002Z" fill="#990028"/>
<path d="M24.6205 71.899C24.6133 71.9061 24.6133 71.9061 24.6061 71.9133C24.4116 72.0926 24.3828 72.401 24.5124 72.6305C24.6493 72.8672 24.923 72.9604 25.1823 72.903C25.1895 72.903 25.1967 72.903 25.2039 72.8959C25.5857 72.8098 25.7514 72.3436 25.5641 72.0209C25.3624 71.6838 24.8942 71.6336 24.6205 71.899Z" fill="#990028"/>
<path d="M22.0129 70.7228C22.0057 70.7299 21.9985 70.7299 21.9913 70.7371C21.7032 70.9451 21.624 71.3109 21.8833 71.5834C21.8905 71.5906 21.8977 71.5977 21.8977 71.6049C22.193 71.9133 22.7332 71.7555 22.8413 71.3539C22.8917 71.1603 22.8413 70.9523 22.6972 70.8088C22.5316 70.6439 22.2146 70.5722 22.0129 70.7228Z" fill="#990028"/>
<path d="M31.1106 80.7205C30.6135 80.7205 30.6135 81.4808 31.1106 81.4808C31.6004 81.4808 31.6004 80.7205 31.1106 80.7205Z" fill="#0C0A35"/>
<path d="M36.4984 73.1039C36.4984 73.0967 36.4984 73.0967 36.4984 73.0896C36.4984 72.6162 35.7637 72.6162 35.7637 73.0896C35.7637 73.0967 35.7637 73.0967 35.7637 73.1039C35.7637 73.5773 36.4984 73.5773 36.4984 73.1039Z" fill="#0C0A35"/>
<path d="M32.7744 73.3621C32.2126 73.3621 32.2126 74.2299 32.7744 74.2299C33.3363 74.2299 33.3363 73.3621 32.7744 73.3621Z" fill="#0C0A35"/>
<path d="M28.6541 73.5844C28.1859 73.5844 28.1859 74.3016 28.6541 74.3016C29.1151 74.3087 29.1151 73.5844 28.6541 73.5844Z" fill="#0C0A35"/>
<path d="M24.6853 73.1828C24.1882 73.1828 24.1882 73.9502 24.6853 73.9502C25.1823 73.9574 25.1823 73.1828 24.6853 73.1828Z" fill="#0C0A35"/>
<path d="M21.8112 71.9349C21.3574 71.9349 21.3574 72.6377 21.8112 72.6377C22.265 72.6377 22.265 71.9349 21.8112 71.9349Z" fill="#0C0A35"/>
<path d="M19.3478 46.5246C19.6143 46.2736 19.6143 45.8576 19.5855 45.4919C19.5423 44.9181 19.4918 44.3372 19.2685 43.8065C19.0452 43.2757 18.6347 42.7952 18.0872 42.6231C17.4317 42.4223 12.8865 42.8598 11.3018 43.0462C10.9921 43.0821 10.6824 43.1395 10.3942 43.2614C9.68832 43.5626 9.1913 44.2726 9.07605 45.0329C8.91038 46.1015 9.51544 47.2418 10.4951 47.7152C11.4171 48.1598 12.5048 48.0164 13.5204 47.8658C15.3284 47.5933 17.1364 47.3207 18.8796 46.7685C19.038 46.7111 19.2181 46.6466 19.3478 46.5246Z" fill="#222272"/>
<path d="M20.2914 47.9878C20.5939 48.8269 20.2121 49.7736 19.9312 50.6199C19.78 51.0646 17.9359 52.9078 15.0979 54.0409C12.8433 54.9374 11.1649 53.6536 10.3726 53.1301C9.50821 52.5563 8.83112 50.6199 9.06162 49.6158C9.33534 48.4324 10.0124 47.7726 11.1794 47.4069C13.0954 46.8044 14.003 47.2132 15.5373 46.9981C16.7474 46.8331 18.3177 46.2378 19.4486 46.704C19.8736 46.8833 20.1257 47.5503 20.2914 47.9878Z" fill="#191956"/>
<path d="M13.4484 53.2663C12.4903 53.8544 11.2874 52.4057 10.8264 51.7387C10.4807 51.2438 10.243 50.6629 10.2502 50.0533C10.2574 49.3576 10.8048 48.6476 11.5611 48.8484C11.8277 48.9201 12.0942 49.207 12.0654 49.501C12.0365 49.7305 11.8709 50.0605 11.8637 50.1537C11.8421 50.4836 12.0149 50.8422 12.159 51.1291C12.4687 51.753 12.9009 52.2981 13.4484 52.7213C13.6285 52.8719 13.6645 53.1372 13.4484 53.2663Z" fill="#990028"/>
<path d="M14.9682 52.585C14.3271 52.6925 13.7653 51.5737 13.5132 51.1219C13.0594 50.3186 12.8793 49.293 13.7221 48.6834C14.2839 48.2746 15.0763 49.0779 14.6801 49.6373C14.3776 50.0604 14.8025 50.6844 14.9682 51.1004C15.0835 51.4016 15.6237 52.4774 14.9682 52.585Z" fill="#990028"/>
<path d="M16.4593 51.2797C16.236 50.9498 16.1928 50.5051 16.0992 50.125C15.9983 49.7162 15.8614 49.2142 15.9191 48.791C16.0127 48.0738 16.9059 47.9232 17.1724 48.6189C17.3309 49.0277 17.3237 49.5225 17.3669 49.9529C17.4101 50.3832 17.4317 50.8924 17.2228 51.2797C17.0572 51.5881 16.6322 51.545 16.4593 51.2797Z" fill="#990028"/>
<path d="M18.4834 50.3617C18.3826 50.0102 18.4618 49.6373 18.4114 49.2715C18.3466 48.8269 18.1305 48.4252 18.008 48.0021C17.8783 47.5718 18.4618 47.2132 18.7715 47.5574C19.3982 48.2603 19.7512 49.8668 18.8652 50.5123C18.7283 50.6199 18.5266 50.5051 18.4834 50.3617Z" fill="#990028"/>
<path d="M10.639 46.6681C10.8911 46.6681 10.8911 47.0554 10.639 47.0554C10.3869 47.0554 10.3941 46.6681 10.639 46.6681Z" fill="#F70032"/>
<path d="M9.77483 45.9222C9.92609 45.9222 9.92609 46.1517 9.77483 46.1517C9.62356 46.1517 9.62356 45.9222 9.77483 45.9222Z" fill="#F70032"/>
<path d="M10.7184 45.5063C11.0209 45.5063 11.0209 45.9724 10.7184 45.9724C10.4158 45.9653 10.4158 45.5063 10.7184 45.5063Z" fill="#F70032"/>
<path d="M10.3006 44.6385C10.5022 44.6385 10.5022 44.954 10.3006 44.954C10.0989 44.9469 10.0989 44.6385 10.3006 44.6385Z" fill="#F70032"/>
<path d="M11.5467 44.703C11.5683 44.703 11.5683 44.7389 11.5467 44.7389C11.5251 44.7389 11.5251 44.703 11.5467 44.703Z" fill="#F70032"/>
<path d="M11.626 44.6528C11.8061 44.6528 11.8061 44.9325 11.626 44.9325C11.4459 44.9325 11.4459 44.6528 11.626 44.6528Z" fill="#F70032"/>
<path d="M11.7412 46.5319C11.9285 46.5319 11.9285 46.8259 11.7412 46.8259C11.5467 46.8188 11.5467 46.5319 11.7412 46.5319Z" fill="#F70032"/>
<path d="M12.2671 45.6927C12.512 45.6927 12.512 46.0728 12.2671 46.0728C12.0221 46.0728 12.0221 45.6927 12.2671 45.6927Z" fill="#F70032"/>
<path d="M11.0569 43.412C11.3306 43.412 11.3306 43.8423 11.0569 43.8423C10.7831 43.8423 10.7831 43.412 11.0569 43.412Z" fill="#F70032"/>
<path d="M12.6056 43.9643C12.8505 43.9643 12.8505 44.3444 12.6056 44.3444C12.3606 44.3444 12.3606 43.9643 12.6056 43.9643Z" fill="#F70032"/>
<path d="M13.2539 44.8895C13.4628 44.8895 13.4628 45.2194 13.2539 45.2194C13.0378 45.2194 13.0378 44.8895 13.2539 44.8895Z" fill="#F70032"/>
<path d="M13.4771 46.1518C13.7148 46.1518 13.7148 46.5247 13.4771 46.5247C13.2394 46.5247 13.2394 46.1518 13.4771 46.1518Z" fill="#F70032"/>
<path d="M14.8025 46.3884C15.0258 46.3884 15.0258 46.7327 14.8025 46.7327C14.5792 46.7327 14.5792 46.3884 14.8025 46.3884Z" fill="#F70032"/>
<path d="M14.6513 45.3341C14.8818 45.3341 14.8818 45.6927 14.6513 45.6927C14.4208 45.6856 14.4208 45.3341 14.6513 45.3341Z" fill="#F70032"/>
<path d="M15.6309 45.7716C15.7821 45.7716 15.7821 46.0011 15.6309 46.0011C15.4868 46.0011 15.4868 45.7716 15.6309 45.7716Z" fill="#F70032"/>
<path d="M14.3488 44.1436C14.6009 44.1436 14.6009 44.538 14.3488 44.538C14.0966 44.538 14.0966 44.1436 14.3488 44.1436Z" fill="#F70032"/>
<path d="M13.6645 43.1969C13.823 43.1969 13.823 43.4479 13.6645 43.4479C13.506 43.4479 13.506 43.1969 13.6645 43.1969Z" fill="#F70032"/>
<path d="M12.0942 43.1108C12.1014 43.1037 12.1086 43.0965 12.1159 43.0965C12.2239 43.0032 12.404 43.0606 12.404 43.2184C12.404 43.369 12.2239 43.4336 12.1159 43.3403C12.1086 43.3332 12.1014 43.326 12.0942 43.326C12.0366 43.2614 12.0366 43.161 12.0942 43.1108Z" fill="#F70032"/>
<path d="M15.5588 44.244C15.7821 44.244 15.7821 44.5882 15.5588 44.5882C15.3355 44.5882 15.3355 44.244 15.5588 44.244Z" fill="#F70032"/>
<path d="M15.2203 43.1395C15.4076 43.1395 15.4076 43.4335 15.2203 43.4335C15.0258 43.4335 15.0258 43.1395 15.2203 43.1395Z" fill="#F70032"/>
<path d="M36.4985 35.0853C36.4193 35.0136 36.3473 34.9706 36.2464 34.9419C36.0951 34.8917 35.9295 34.9706 35.8502 35.0997C35.7494 35.2718 35.8214 35.4654 35.9727 35.5802C36.0303 35.6232 36.0879 35.6447 36.16 35.6591C36.4769 35.7165 36.7722 35.3292 36.4985 35.0853Z" fill="#0C0A35"/>
<path d="M19.1677 53.5388C18.894 53.5388 18.894 53.9691 19.1677 53.9691C19.4414 53.9619 19.4414 53.5388 19.1677 53.5388Z" fill="#0C0A35"/>
<path d="M25.9962 48.755C25.7441 48.755 25.7441 49.1423 25.9962 49.1423C26.2483 49.1423 26.2483 48.755 25.9962 48.755Z" fill="#0C0A35"/>
<path d="M33.0554 39.2236C32.6664 39.2236 32.6664 39.826 33.0554 39.826C33.4444 39.8332 33.4444 39.2236 33.0554 39.2236Z" fill="#0C0A35"/>
<path d="M25.7873 53.4312C25.3984 53.4312 25.3984 54.0336 25.7873 54.0336C26.1763 54.0336 26.1763 53.4312 25.7873 53.4312Z" fill="#0C0A35"/>
<path d="M36.1672 40.6723C36.2032 40.6364 36.2392 40.6006 36.2608 40.5504C36.4337 40.1918 35.9294 39.8834 35.7134 40.2348C35.7062 40.242 35.7061 40.2492 35.6989 40.2563C35.735 40.2205 35.7782 40.1846 35.8142 40.1416C35.7998 40.1488 35.7854 40.1631 35.7782 40.1703C35.6413 40.2778 35.5693 40.4428 35.6629 40.6006C35.7782 40.7871 36.0159 40.8086 36.1672 40.6723Z" fill="#0C0A35"/>
<path d="M34.2223 36.9572C33.8045 36.9572 33.8045 37.5955 34.2223 37.5955C34.6329 37.5955 34.6329 36.9572 34.2223 36.9572Z" fill="#0C0A35"/>
<path d="M39.956 32.6468C40.0568 32.6325 40.1216 32.5823 40.2009 32.5177C40.4602 32.3097 40.1288 31.9153 39.8551 32.0731C39.8623 32.0731 39.8695 32.0659 39.8767 32.0659C39.4517 32.0731 39.5238 32.7257 39.956 32.6468Z" fill="#0C0A35"/>
<path d="M33.5813 33.7657C33.5741 33.7585 33.5741 33.7442 33.5669 33.737C33.4732 33.5433 33.1563 33.5433 33.0554 33.737C33.0482 33.7442 33.0482 33.7585 33.041 33.7657C32.9402 33.9737 33.0626 34.2318 33.3075 34.2318C33.5597 34.2318 33.6821 33.9737 33.5813 33.7657Z" fill="#0C0A35"/>
<path d="M7.59218 16.5457C7.59218 16.6892 7.53456 16.89 7.53456 17.0334C7.53456 17.1769 7.53455 17.3203 7.54896 17.4638C7.60658 17.9514 7.77946 18.4248 8.14682 18.7547C7.81548 18.7762 6.9727 18.7762 6.64136 18.7547C7.00872 18.4248 7.1888 17.9586 7.23922 17.4638C7.25363 17.3203 7.25363 17.1769 7.25363 17.0334C7.25363 16.89 7.19601 16.6892 7.19601 16.5457H7.59218Z" fill="#0C0A35"/>
<path d="M7.49129 16.8971C7.63536 16.9187 7.7146 17.0549 7.96671 17.3275C8.19721 17.5785 8.42771 17.8438 8.95354 17.9084C9.22006 17.9371 9.57301 17.8008 9.73148 17.5857C9.86834 17.4064 9.94038 17.184 9.998 16.9689C10.1061 16.5601 10.07 16.1513 9.86114 15.7783C9.65945 15.4054 9.11201 15.2404 8.77346 15.4412C8.59338 15.5488 8.53576 15.6779 8.37008 15.7138C8.31966 15.7209 8.27644 15.6779 8.29085 15.6277C8.35568 15.3767 8.53575 15.348 8.62219 15.0468C8.72304 14.6954 8.77346 14.4156 8.26924 13.971C7.88027 13.6339 6.93665 13.6626 6.52607 13.971C6.10829 14.2866 6.07227 14.5734 6.16591 14.9249C6.24515 15.2046 6.40361 15.3337 6.48285 15.5703C6.51166 15.6492 6.43243 15.7281 6.35319 15.6994C6.23074 15.6492 6.16591 15.5416 6.01465 15.4484C5.6761 15.2476 5.13586 15.4126 4.92696 15.7855C4.72528 16.1584 4.68205 16.5672 4.7901 16.976C4.84773 17.1984 4.91976 17.4135 5.05662 17.5928C5.21509 17.808 5.57525 17.9514 5.83457 17.9156C6.3604 17.851 6.58369 17.5857 6.8214 17.3346C7.08071 17.0549 7.15995 16.9258 7.29681 16.9043H7.49129V16.8971Z" fill="#0C0A35"/>
<path d="M11.0714 12.2569H9.95486L7.50579 7.76006L5.63296 10.0909V12.2641H4.61011V4.1167H5.63296V8.84302L9.3354 4.1167H10.4447L8.22611 6.96397L11.0714 12.2569Z" fill="#0C0A35"/>
<path d="M50.4078 71.4614C50.4078 71.318 50.4654 71.1172 50.4654 70.9737C50.4654 70.8303 50.4654 70.6869 50.451 70.5434C50.3934 70.0557 50.2205 69.5824 49.8531 69.2525C50.1845 69.231 51.0273 69.231 51.3586 69.2525C50.9912 69.5824 50.8112 70.0486 50.7607 70.5434C50.7463 70.6869 50.7463 70.8303 50.7463 70.9737C50.7463 71.1172 50.804 71.318 50.804 71.4614H50.4078Z" fill="#0C0A35"/>
<path d="M50.5087 71.1028C50.3646 71.0813 50.2854 70.945 50.0333 70.6725C49.8028 70.4215 49.5723 70.1561 49.0464 70.0916C48.7799 70.0557 48.427 70.1992 48.2685 70.4143C48.1316 70.5936 48.0596 70.8159 48.002 71.0311C47.8939 71.4399 47.9299 71.8487 48.1388 72.2216C48.3405 72.5946 48.888 72.7595 49.2265 72.5587C49.4066 72.4511 49.4642 72.3221 49.6299 72.2934C49.6803 72.2862 49.7235 72.3292 49.7091 72.3794C49.6443 72.6304 49.4642 72.6591 49.3778 72.9604C49.2769 73.3118 49.2265 73.5915 49.7307 74.0362C50.1197 74.3732 51.0633 74.3446 51.4739 74.0362C51.8917 73.7206 51.9277 73.4337 51.8341 73.0823C51.7548 72.8026 51.5964 72.6735 51.5171 72.4368C51.4883 72.3579 51.5675 72.279 51.6468 72.3077C51.7692 72.3579 51.8341 72.4655 51.9853 72.5587C52.3239 72.7595 52.8641 72.5946 53.073 72.2216C53.2747 71.8487 53.3179 71.4399 53.2099 71.0311C53.1522 70.8088 53.0802 70.5936 52.9433 70.4143C52.7849 70.1992 52.4247 70.0557 52.1654 70.0916C51.6396 70.1561 51.4163 70.4215 51.1858 70.6725C50.9265 70.9522 50.8472 71.0813 50.7104 71.1028H50.5087Z" fill="#0C0A35"/>
<path d="M46.9287 75.7431H48.0524L50.5015 80.2399L52.3743 77.909V75.7359H53.3972V83.8833H52.3743V79.157L48.6719 83.8833H47.5626L49.7812 81.036L46.9287 75.7431Z" fill="#0C0A35"/>
<path d="M14.5864 83.6394H8.55735C6.30996 83.6394 4.41553 81.5667 4.41553 79.1211V22.061C4.41553 21.9892 4.47315 21.9247 4.54518 21.9247C4.61722 21.9247 4.68204 21.9821 4.68204 22.061V79.1211C4.68204 81.4305 6.45403 83.3741 8.55735 83.3741H14.5864C14.6584 83.3741 14.7233 83.4315 14.7233 83.5032C14.7161 83.5821 14.6584 83.6394 14.5864 83.6394Z" fill="#191956"/>
<path d="M46.5253 83.6395H43.075C43.0029 83.6395 42.9453 83.5821 42.9453 83.5032C42.9453 83.4315 43.0029 83.3741 43.075 83.3741H46.5253C46.5973 83.3741 46.6621 83.4315 46.6621 83.5032C46.6621 83.5821 46.5973 83.6395 46.5253 83.6395Z" fill="#191956"/>
<path d="M53.4548 66.355C53.3828 66.355 53.3252 66.2976 53.3252 66.2187V8.88604C53.3252 6.54081 51.5244 4.63307 49.3202 4.63307H43.5144C43.4424 4.63307 43.3848 4.57569 43.3848 4.50397C43.3848 4.43225 43.4424 4.3677 43.5144 4.3677H49.3202C51.6756 4.3677 53.5917 6.39737 53.5917 8.88604V66.2259C53.5845 66.2976 53.5268 66.355 53.4548 66.355Z" fill="#191956"/>
<path d="M14.9754 4.63307H11.8925C11.8204 4.63307 11.7628 4.57569 11.7628 4.50397C11.7628 4.43225 11.8204 4.3677 11.8925 4.3677H14.9754C15.0475 4.3677 15.1123 4.42508 15.1123 4.50397C15.1123 4.56852 15.0547 4.63307 14.9754 4.63307Z" fill="#191956"/>
</svg>
