<svg width="58" height="88" viewBox="0 0 58 88" fill="none" xmlns="http://www.w3.org/2000/svg">
<path d="M4.79836 0C2.14949 0 0 2.13652 0 4.76939V83.2306C0 85.8635 2.14949 88 4.79836 88H53.2016C55.8505 88 58 85.8635 58 83.2306V4.76939C58 2.13652 55.8505 0 53.2016 0H4.79836Z" fill="white"/>
<path d="M25.331 28.7531C24.1296 28.9258 22.9282 29.1344 21.8064 29.5013C19.3819 30.2998 17.4568 31.832 16.1396 33.5801C14.8224 35.3281 14.0625 37.2848 13.4835 39.2487C11.5656 39.9249 9.3003 42.8023 8.92396 44.3849C7.44755 50.5859 8.56208 53.1612 15.3579 56.535C16.8633 57.2832 38.5246 60.9088 44.4231 56.3192C48.201 53.3842 49.6484 51.8304 49.7859 47.0466C49.9234 42.27 51.863 37.1841 48.9392 32.9542C48.3819 32.1485 47.7161 31.3716 46.862 30.7314C44.329 28.8179 40.5366 28.2927 36.9759 28.1561C33.0894 28.005 29.1668 28.2064 25.331 28.7531Z" fill="#990028"/>
<path d="M32.2861 59.1319C33.4875 58.9593 34.6889 58.7506 35.8107 58.3838C38.2352 57.5853 40.1531 56.053 41.4775 54.305C42.7947 52.5569 43.5546 50.6002 44.1336 48.6364C46.0515 47.9602 48.3168 45.0899 48.6931 43.5001C50.1695 37.2992 49.055 34.7238 42.2592 31.35C40.761 30.6019 22.9861 26.2569 12.4703 32.5442C10.7985 33.5441 8.09893 35.5223 7.96142 40.3061C7.82391 45.0827 5.7468 50.7009 8.67069 54.9308C9.22796 55.7365 9.89378 56.5134 10.7406 57.1537C13.2736 59.0672 17.066 59.5923 20.6268 59.729C24.5349 59.8801 28.4576 59.6858 32.2861 59.1319Z" fill="#990028"/>
<path d="M13.2953 46.5502C11.182 47.7587 9.11218 47.3271 6.99888 48.5357C6.2462 49.924 6.66596 53.6863 7.54168 55.1035C9.35825 58.0241 14.229 58.4197 15.6837 57.9162C18.7813 56.8443 19.7221 54.9956 22.5519 53.3482C28.7832 49.7082 35.6153 47.0969 41.5499 43.0037C44.5389 40.9392 48.2517 41.4499 50.213 38.4142C51.1756 36.9251 50.1044 34.3642 48.6063 32.3355C47.4483 30.7745 46.0443 29.0912 44.1047 28.9257C42.0782 28.7531 38.6115 29.9041 36.9035 30.9975C35.1955 32.091 33.7046 33.4793 32.069 34.6735C28.1174 37.5653 23.3842 39.2774 19.4688 42.2196C18.347 43.0613 17.2976 43.9965 16.1541 44.795C15.2422 45.4352 14.2724 45.9963 13.2953 46.5502Z" fill="#222272"/>
<path d="M19.7366 51.4203C20.8656 50.5714 22.0236 49.1471 22.067 47.7371C22.1032 46.6941 21.8427 45.0611 20.8584 43.795C20.3952 43.2051 19.8886 42.8742 19.8813 41.8527C19.932 41.6441 19.9754 41.4787 19.9899 41.3995C21.2926 34.7454 20.1709 34.5656 18.4701 33.7742C17.2687 33.2131 16.5884 34.1843 16.2916 34.4792C14.5981 36.1625 14.0915 36.8891 13.8454 38.0473C13.7513 38.5005 13.8165 39.0256 13.5197 39.3781C13.3171 39.6155 12.9914 39.709 12.7091 39.8457C12.4993 39.9536 12.246 40.1119 11.9854 40.2917C10.8057 40.9247 9.74908 41.8959 9.45235 42.1045C9.00363 42.421 8.53321 42.6224 7.71539 43.5217C6.57189 44.7877 6.36924 46.9602 6.39819 47.4926C6.49951 49.4133 7.49828 50.7369 8.7431 51.3987C10.7768 52.4418 16.2627 54.0388 19.7366 51.4203Z" fill="#F70032"/>
<path d="M38.047 36.6804C36.9107 37.5221 35.7455 38.9393 35.6804 40.342C35.637 41.3779 35.883 43.0253 36.8528 44.2985C37.3088 44.8956 37.8154 45.2265 37.8154 46.248C37.7575 46.4566 37.714 46.6221 37.6996 46.7012C36.339 53.3482 37.468 53.5352 39.1543 54.3337C40.3484 54.902 41.036 53.938 41.34 53.6431C43.048 51.967 43.5546 51.2548 43.8151 50.0966C43.9165 49.6434 43.8513 49.1255 44.1553 48.773C44.3579 48.5356 44.6836 48.4421 44.9659 48.3054C45.1757 48.2047 45.4291 48.0464 45.6896 47.8666C46.8765 47.2407 47.9404 46.2768 48.2371 46.0682C48.6858 45.7517 49.1635 45.5574 49.9886 44.6654C51.1465 43.4065 51.3564 41.234 51.3347 40.7089C51.2479 38.7882 50.2636 37.4574 49.0188 36.7884C47.014 35.7309 41.5354 34.0907 38.047 36.6804Z" fill="#F70032"/>
<path d="M23.1092 30.8033C23.9415 31.6306 25.2297 31.7744 26.4094 31.8392C27.1115 31.8751 27.8207 31.8967 28.5227 31.9111C29.0149 31.9183 29.507 31.9183 29.9847 31.8248C30.665 31.6953 31.2946 31.3932 31.9098 31.0766C33.0967 30.4724 34.2692 29.8321 35.4127 29.1487C35.7384 28.9545 36.064 28.7603 36.3318 28.4941C36.9325 27.9186 37.2075 27.0914 37.374 26.2785C37.9602 23.4154 37.4247 20.4516 36.8891 17.5742C36.8167 17.1713 36.7371 16.7685 36.5417 16.4088C36.1364 15.6678 35.2896 15.2866 34.4718 15.0708C33.1329 14.7183 31.7289 14.6967 30.3538 14.7614C28.0885 14.8621 25.8087 15.2074 23.6954 16.0275C23.7244 16.639 23.7606 17.2576 23.7895 17.8691C23.7968 17.9914 23.804 18.1209 23.7678 18.236C23.7027 18.4446 23.5217 18.5885 23.3481 18.7323C21.8933 19.9409 20.9887 21.6601 20.1202 23.3363C19.7511 24.0484 19.3675 24.811 19.4399 25.6095C19.8162 25.7965 20.2722 25.8037 20.6485 25.631C21.0031 25.4728 21.3578 25.1635 21.7197 25.3073C22.0598 25.4368 22.1322 25.8756 22.1394 26.2353C22.1539 27.0338 22.096 27.8395 22.1828 28.6308C22.2769 29.4293 22.5375 30.235 23.1092 30.8033Z" fill="#FFD6A1"/>
<path d="M25.0269 19.5165C24.8605 18.7252 24.7736 17.9626 24.9184 17.4303C24.9473 17.3224 24.9473 17.2073 25.0125 17.1282C25.121 16.9987 25.3092 16.9771 25.4757 16.9699C27.0172 16.8836 28.5732 16.4951 30.1003 16.7037C33.0314 17.1066 32.8433 18.1784 32.8722 18.5022C32.8794 18.6101 32.6623 18.6173 32.5755 18.682C32.5393 18.7036 32.4959 18.7108 32.4524 18.718C31.1642 18.9482 29.8832 19.1784 28.5949 19.4158C28.1462 19.4949 27.7047 19.574 27.2488 19.6388C26.6191 19.7251 26.0691 19.9769 25.4395 19.9841C25.3598 19.9912 25.1283 20.0128 25.0269 19.5165Z" fill="#0C0A35"/>
<path d="M27.3792 18.1928C29.1306 17.4374 31.1064 17.7539 32.8651 18.5021C32.8723 18.6891 32.7493 18.8546 32.6263 18.9984C31.7361 20.0343 30.4551 20.7177 29.1017 20.8904C27.7483 21.063 26.3298 20.7177 25.208 19.9336C25.3528 19.5667 26.0041 18.7898 27.3792 18.1928Z" fill="white"/>
<path d="M28.9713 20.3724C29.3983 20.3509 29.8543 20.1351 30.0569 19.7034C30.3102 19.1783 30.0642 18.4302 29.5648 18.2215C29.3187 18.1208 29.0509 18.1352 28.7904 18.1784C28.3562 18.2503 27.8713 18.4373 27.6976 18.8977C27.5528 19.279 27.6903 19.7394 27.9581 20.0128C28.2259 20.2933 28.6095 20.394 28.9713 20.3724Z" fill="#0C0A35"/>
<path d="M38.1193 29.4077C37.8949 32.8175 37.1133 36.1626 34.2111 38.0114C32.3945 39.1623 29.5286 39.7378 27.4008 40.0687C26.6553 40.1838 25.9099 40.2917 25.1572 40.2917C24.0644 40.2846 22.9932 40.04 21.9294 39.7954C21.7774 39.7594 21.6181 39.7234 21.5023 39.6155C21.2635 39.3997 21.2997 39.0257 21.3649 38.7091C21.4951 38.1049 21.6616 37.515 21.8715 36.9323C22.6241 34.7814 22.7182 33.8247 22.6169 30.3573C22.6097 30.1847 22.407 29.1488 22.4649 28.9833C22.5807 28.638 22.9209 28.9258 23.2827 28.8826C27.4949 28.3862 31.9892 29.6811 36.1724 29.0049C36.5488 28.9474 36.9251 28.8682 37.3015 28.9258C37.6778 28.9905 38.141 29.0337 38.1193 29.4077Z" fill="#D6002B"/>
<path d="M20.5977 40.5435C21.4589 40.3349 21.8715 39.781 22.2985 39.0328C22.863 38.0329 23.5216 36.9395 23.7098 35.8029C23.9196 34.5512 23.9631 33.1844 24.0789 31.9111C24.2019 30.5731 23.7025 29.3142 23.9486 27.9762C23.992 27.7532 23.6808 27.5949 23.565 27.8179C23.2248 28.4438 23.3045 29.0984 23.3841 29.789C23.5433 31.1989 23.5071 32.4075 23.29 33.8174C23.0946 35.1123 23.1959 36.1625 22.5445 37.3711C21.98 38.4357 21.6037 39.6659 20.4891 40.2989C20.3516 40.3636 20.4457 40.5795 20.5977 40.5435Z" fill="#0C0A35"/>
<path d="M21.6688 41.1981C22.4505 40.5219 23.2031 40.04 23.84 39.1839C24.5855 38.1768 24.9691 36.8891 25.2441 35.6878C25.852 33.0046 25.5625 30.4292 25.121 27.7604C25.0848 27.5446 24.7881 27.5949 24.7302 27.7604C24.4118 28.6164 24.6723 29.4221 24.846 30.2926C25.15 31.7888 24.9184 33.5657 24.6796 35.0548C24.4624 36.4144 24.0065 37.6876 23.2755 38.853C22.7544 39.6731 21.8498 40.1838 21.4879 41.0902C21.4445 41.1981 21.5965 41.2557 21.6688 41.1981Z" fill="#0C0A35"/>
<path d="M23.4709 41.3349C25.5625 40.04 26.431 38.0042 26.9955 35.6734C27.2994 34.4002 27.4948 33.0981 27.5455 31.7889C27.6034 30.235 26.8797 28.8251 27.104 27.2641C27.1402 27.0123 26.829 26.8468 26.677 27.0842C26.2356 27.782 26.3731 28.5086 26.5323 29.2927C26.8797 31.0048 26.952 32.4363 26.6625 34.1772C26.2211 36.8532 25.2585 39.2055 23.3913 41.2269C23.3334 41.2845 23.4057 41.378 23.4709 41.3349Z" fill="#0C0A35"/>
<path d="M24.9763 41.8168C27.1258 40.4644 28.139 38.0905 28.5443 35.7022C28.9785 33.17 29.2897 30.3285 28.5588 27.8251C28.5154 27.6813 28.2983 27.6741 28.2621 27.8251C28.0377 28.8179 28.2838 29.8322 28.3489 30.8393C28.4502 32.2493 28.2548 33.7096 28.0522 35.1051C27.8857 36.2993 27.6758 37.479 27.1475 38.5797C26.5758 39.7666 25.4902 40.5723 24.8316 41.6873C24.7881 41.7665 24.8895 41.8744 24.9763 41.8168Z" fill="#0C0A35"/>
<path d="M26.9232 41.6154C29.0727 40.4356 29.7819 38.2631 30.2885 36.0331C30.5708 34.8174 30.7155 33.6088 30.73 32.3571C30.7445 30.9831 30.4043 29.6739 30.3247 28.3215C30.303 27.9546 29.8109 27.8899 29.6878 28.2352C29.3839 29.0984 29.753 30.0048 29.8398 30.8896C29.9629 32.2204 29.9267 33.5441 29.7313 34.8749C29.5648 35.9755 29.326 37.0977 29.0147 38.1624C28.6022 39.5868 27.5022 40.2845 26.7857 41.4787C26.735 41.565 26.8363 41.6585 26.9232 41.6154Z" fill="#0C0A35"/>
<path d="M28.7904 41.6082C30.701 40.8816 31.4537 38.3351 31.8807 36.5511C32.1775 35.3066 32.3005 34.0189 32.4163 32.7528C32.561 31.1486 32.7999 29.2423 32.3439 27.6813C32.3005 27.5446 32.1051 27.5446 32.0689 27.6813C31.7505 28.7747 31.8518 29.9473 31.8084 31.0767C31.7505 32.5946 31.6491 34.1196 31.432 35.6231C31.0919 37.9826 30.2596 39.6875 28.7108 41.4787C28.6674 41.5291 28.7108 41.637 28.7904 41.6082Z" fill="#0C0A35"/>
<path d="M30.8458 41.1622C32.7203 40.0759 33.5019 38.1408 33.7624 36.0331C34.1171 33.1125 34.7323 29.9401 34.2835 27.0051C34.2618 26.8468 34.0302 26.8396 33.9579 26.9619C33.5309 27.6957 33.7118 28.4654 33.7118 29.2926C33.7118 30.7458 33.5888 32.1989 33.4223 33.6448C33.0966 36.4503 32.9012 38.9537 30.7952 41.0902C30.7517 41.1262 30.8024 41.191 30.8458 41.1622Z" fill="#0C0A35"/>
<path d="M33.5598 40.0184C34.9711 38.6732 35.6659 36.5582 35.9771 34.6879C36.1363 33.7023 36.1652 32.7096 36.0929 31.7097C36.0205 30.7026 36.1291 29.5948 35.6587 28.6812C35.5573 28.4869 35.3185 28.6092 35.2968 28.7819C35.0652 30.5659 35.4415 32.3283 35.2751 34.1196C35.1737 35.1914 34.9132 36.2345 34.5513 37.2488C34.2474 38.112 34.0664 39.2558 33.5164 39.9896C33.5019 40.0112 33.5381 40.0399 33.5598 40.0184Z" fill="#0C0A35"/>
<path d="M36.4619 37.479C37.4028 36.1194 37.591 34.7238 37.7647 33.0981C37.9166 31.6234 38.0252 29.7098 37.3739 28.343C37.316 28.2136 37.1133 28.2567 37.0771 28.379C36.7225 29.7026 37.0771 31.2061 37.0265 32.5729C36.9686 34.2275 36.4185 35.8029 36.3534 37.443C36.3606 37.5078 36.433 37.5222 36.4619 37.479Z" fill="#0C0A35"/>
<path d="M34.4428 30.7529C33.7118 29.9545 32.9664 28.9473 33.2052 27.8899C33.3645 27.2065 33.9073 26.6885 34.327 26.1202C34.7468 25.5519 35.0435 24.7606 34.6672 24.1708C34.3704 23.7032 33.7842 23.5377 33.3355 23.214C32.619 22.6889 32.3078 21.6746 32.619 20.8401C32.8 20.3509 33.1546 19.9553 33.3789 19.4877C33.8421 18.5237 33.7046 17.3512 33.2052 16.4016C32.7059 15.452 31.888 14.7111 31.0123 14.0924C32.3585 14.1572 33.6467 14.1356 34.9929 14.2075C35.7238 14.2435 36.4548 14.2795 37.1568 14.4881C38.4378 14.8694 39.5162 15.8549 40.0228 17.085C40.3195 17.8116 40.4209 18.6101 40.6959 19.351C40.9058 19.9193 41.2242 20.4444 41.5137 20.9768C43.0987 23.9046 43.9672 27.1993 45.8054 29.976C45.9285 30.1631 46.0515 30.4077 45.9212 30.5803C45.8416 30.681 45.7041 30.717 45.5738 30.7386C44.1119 30.9831 42.621 30.7529 41.1374 30.7961C39.6682 30.8393 38.2207 31.1486 36.7588 31.2493C35.8975 31.3141 35.0218 31.386 34.4428 30.7529Z" fill="#D6002B"/>
<path d="M37.989 12.7616C38.1483 11.0711 37.9891 8.51732 37.714 6.43116C37.5403 5.12911 37.1712 3.79109 37.0771 2.88469C36.9252 1.35244 35.8975 1.65457 35.8468 2.12216C35.4849 5.5895 35.7165 7.31598 35.0796 10.0783C34.9277 10.7402 33.9 10.6898 33.748 10.1791C33.3427 8.84823 33.292 7.64689 33.1328 6.30167C32.8288 3.75512 32.5683 2.28042 32.1123 1.71931C31.9024 1.46034 31.4393 1.43876 31.3235 1.75528C30.2596 4.72626 31.6202 10.0424 29.9194 10.6682C29.5865 10.7905 29.2246 10.5531 29.1523 10.215C28.5588 7.48863 29.297 4.40974 27.9581 1.93512C27.8713 1.77686 27.7555 1.61141 27.5818 1.58263C27.3212 1.53947 27.1258 1.82002 27.0245 2.06461C25.8882 4.7982 27.2127 9.95605 26.1415 10.8912C25.7435 11.2437 25.425 11.0279 25.3744 10.5028C24.9257 5.85567 24.5131 2.74801 23.565 2.36674C23.0367 2.15813 22.7979 3.78389 22.8196 4.41693C22.9209 7.73321 23.1091 11.0423 23.2973 14.3514C23.2755 14.2794 23.2828 14.2291 23.319 14.2938C23.3552 14.3586 23.442 14.3586 23.5144 14.3514C28.0811 14.0349 32.6479 13.7111 37.2074 13.3946C37.3811 13.3802 37.5403 13.3299 37.6923 13.2436C37.8371 13.1285 37.9746 12.927 37.989 12.7616Z" fill="#F70032"/>
<path d="M23.2104 16.0131C23.6881 16.5958 35.4777 15.3801 38.0035 15.2506C38.2496 15.2362 38.4667 15.0851 38.5608 14.8621C38.7779 14.3514 38.6332 13.8982 38.5029 13.3515C38.4812 13.2436 38.445 13.1285 38.3654 13.0493C38.2351 12.9199 38.0252 12.9199 37.8371 12.9342C34.1822 13.1644 30.5201 13.3946 26.8653 13.6248L23.7387 13.8191C23.4999 13.8334 23.2683 13.891 23.0657 14.0133C22.5373 14.3298 22.6387 14.7542 22.74 15.1355C22.8341 15.4664 23.0005 15.747 23.2104 16.0131Z" fill="#0C0A35"/>
<path d="M23.4348 2.3883C23.6664 2.3883 23.8618 2.19407 23.8618 1.96388C23.8618 1.73368 23.6664 1.53945 23.4348 1.53945C23.2032 1.53945 23.0078 1.73368 23.0078 1.96388C23.0078 2.19407 23.2032 2.3883 23.4348 2.3883Z" fill="#0C0A35"/>
<path d="M27.5384 1.82727C28.0884 1.82727 28.0884 0.978416 27.5384 0.978416C26.9883 0.978416 26.9883 1.82727 27.5384 1.82727Z" fill="#0C0A35"/>
<path d="M31.6926 1.64738C31.9387 1.64738 32.1413 1.44596 32.1413 1.20138C32.1413 0.956793 31.9387 0.755371 31.6926 0.755371C31.4465 0.755371 31.2439 0.956793 31.2439 1.20138C31.2439 1.43877 31.4538 1.64738 31.6926 1.64738Z" fill="#0C0A35"/>
<path d="M36.3534 1.99265C36.6067 1.99265 36.8166 1.78403 36.8166 1.53945C36.8166 1.28767 36.6067 1.08625 36.3534 1.08625C36.1073 1.08625 35.8975 1.29487 35.8975 1.53945C35.8975 1.78403 36.1073 1.99265 36.3534 1.99265Z" fill="#0C0A35"/>
<path d="M23.9776 9.88411C23.7387 10.9919 24.0427 12.1213 24.1151 13.2364C24.1368 13.6248 24.6941 13.6248 24.7158 13.2364C24.7954 12.1141 24.3394 11.0279 24.2381 9.92007C24.2236 9.7762 24.0065 9.72585 23.9776 9.88411Z" fill="#0C0A35"/>
<path d="M27.6977 9.7187C27.5457 10.3302 27.4806 10.9488 27.5095 11.5747C27.5312 12.0638 27.5095 12.776 27.9076 13.1213C28.0668 13.2652 28.3201 13.2076 28.3852 12.999C28.53 12.5098 28.2839 11.8768 28.2477 11.3732C28.2043 10.8193 28.1392 10.2654 28.0089 9.72589C27.9655 9.57483 27.7339 9.57483 27.6977 9.7187Z" fill="#0C0A35"/>
<path d="M31.9097 9.51005C32.04 10.51 32.0617 11.5099 32.1196 12.517C32.1485 12.9846 32.8433 12.9918 32.8578 12.517C32.8795 11.4739 32.6045 10.4524 32.3439 9.4525C32.286 9.21511 31.8807 9.25828 31.9097 9.51005Z" fill="#0C0A35"/>
<path d="M36.5923 9.45246C36.0929 10.1143 36.1436 11.2725 36.2015 12.0494C36.2377 12.5817 37.0193 12.5961 37.041 12.0494C37.0555 11.6537 37.0265 11.2509 37.0048 10.8624C36.9831 10.4308 37.0193 9.99198 36.9831 9.56036C36.9686 9.33736 36.7153 9.28701 36.5923 9.45246Z" fill="#0C0A35"/>
<path d="M33.7335 14.9772C34.1822 15.5167 34.4283 16.4807 34.602 17.1281C34.9421 18.3798 34.3197 19.4732 34.0881 20.6602C33.8348 21.9694 35.2461 22.6456 36.035 23.4082C37.8371 25.1418 34.3704 27.5014 34.1677 29.2782C34.0157 30.609 35.2606 32.3211 36.3462 32.9614C36.4475 33.0189 36.585 32.8966 36.5126 32.7959C35.9119 31.9902 35.2027 31.3859 34.8046 30.4148C34.1605 28.861 35.3546 27.9618 36.1508 26.8467C36.8311 25.8972 37.5186 24.3002 36.5995 23.2427C36.1146 22.6816 35.4705 22.3147 34.9349 21.804C34.0013 20.9192 35.152 19.4517 35.1737 18.4805C35.2099 17.2648 34.9059 15.6031 33.7552 14.934C33.7335 14.934 33.719 14.9628 33.7335 14.9772Z" fill="#0C0A35"/>
<path d="M35.3474 15.1426C37.3522 16.4231 35.6876 18.2143 35.9047 19.8976C35.9554 20.2861 36.3317 20.6314 36.585 20.8976C37.3667 21.7176 38.1555 22.2716 38.5174 23.4153C39.2484 25.7173 36.7949 26.9258 36.1074 28.825C35.6297 30.1414 36.0495 31.465 37.2943 32.1988C37.4463 32.2851 37.6417 32.1053 37.5404 31.9542C37.3305 31.6377 37.1061 31.3428 36.8818 31.0478C36.1653 30.0982 36.6574 29.1487 37.1785 28.2711C37.6779 27.4294 38.4595 26.8107 38.901 25.9403C39.5668 24.6311 39.3135 22.8255 38.3509 21.732C37.7285 21.0199 36.339 20.2789 36.5416 19.1567C36.6719 18.4445 36.9614 17.8978 36.9758 17.1569C36.9903 16.1857 36.5271 14.9196 35.3836 14.9844C35.2968 14.9844 35.2678 15.0923 35.3474 15.1426Z" fill="#0C0A35"/>
<path d="M37.0048 14.7542C37.3884 15.0419 37.8805 16.1498 38.047 16.5526C38.3292 17.2504 37.7647 18.61 37.866 19.4157C37.9384 20.0272 38.3003 20.4084 38.749 20.7969C39.6609 21.581 40.4498 22.1133 40.8333 23.3075C41.9551 26.818 36.1725 30.0983 40.182 33.0908C40.3991 33.2563 40.7103 32.9326 40.5583 32.7168C39.6247 31.4075 39.0747 30.5083 39.7912 28.8825C40.153 28.0769 40.7103 27.3575 41.007 26.5158C41.6077 24.8469 41.7308 23.2571 40.6741 21.7608C40.2037 21.099 39.4727 20.6674 38.8792 20.1207C37.8154 19.1351 38.9154 17.8331 38.6838 16.7325C38.5608 16.1426 37.8588 14.4808 37.012 14.6463C36.9614 14.6679 36.9686 14.7326 37.0048 14.7542Z" fill="#0C0A35"/>
<path d="M40.3773 14.8262C39.1759 15.0636 39.3134 16.9123 39.3351 17.8403C39.3786 19.8186 41.0649 20.4228 42.3024 21.6817C43.0262 22.4155 42.7801 23.4514 42.7005 24.3865C42.5775 25.9044 41.9188 27.1633 41.3833 28.5517C40.7464 30.1846 41.1734 32.8391 43.2867 33.0837C43.4532 33.1052 43.4821 32.8966 43.4025 32.7959C42.4182 31.5586 41.6004 30.9256 41.955 29.1919C42.1649 28.1704 42.7729 27.1993 43.0696 26.1921C43.417 24.9836 43.7716 23.178 43.3157 21.9551C42.9104 20.8616 41.5353 20.207 40.674 19.5452C39.9214 18.9625 39.8852 18.1352 39.8635 17.2936C39.849 16.8044 39.7477 15.1211 40.3918 14.9053C40.4497 14.8837 40.4352 14.8118 40.3773 14.8262Z" fill="#0C0A35"/>
<path d="M45.762 25.667C44.0323 24.48 41.6729 31.1342 44.2567 32.6592C44.358 32.7168 44.4955 32.5945 44.4231 32.4938C43.5619 31.2996 43.475 29.9688 43.7935 28.566C44.0178 27.5877 44.6909 26.1705 45.7403 25.89C45.8417 25.8612 45.8489 25.7245 45.762 25.667Z" fill="#0C0A35"/>
<path d="M46.5436 27.2208C45.7258 27.0625 45.0455 28.048 44.7849 28.7099C44.3362 29.8609 44.5606 31.1341 45.3712 32.0693C45.4291 32.134 45.5666 32.0837 45.5521 31.9974C45.4508 31.091 45.0238 30.3141 45.1758 29.3789C45.3277 28.4581 45.9646 27.9833 46.5798 27.3647C46.6232 27.3215 46.6087 27.2352 46.5436 27.2208Z" fill="#0C0A35"/>
<path d="M21.5676 26.0914C21.3432 27.0194 21.4952 28.0265 21.9874 28.8466C22.1393 29.0984 22.342 29.3502 22.6242 29.4365C22.8703 29.5084 23.1381 29.4509 23.3769 29.3574C24.4625 28.9473 25.2514 27.8467 25.2803 26.6885C25.6422 28.1344 27.1838 28.9977 28.6674 29.2494C30.1438 29.5012 31.6781 29.3286 33.1546 29.5804C33.0098 28.6955 32.4525 27.9402 31.9097 27.228C31.3886 26.5302 30.8386 25.8181 30.0715 25.4008C29.2898 24.9764 28.3634 24.9189 27.4732 24.8757C25.8376 24.7894 24.173 24.7031 22.5736 25.0699C22.3854 25.1131 22.1972 25.1635 22.0452 25.2714C21.7775 25.4512 21.6472 25.7749 21.5676 26.0914Z" fill="#D6002B"/>
<path d="M24.4119 24.1779C24.3395 24.6455 24.3685 25.0411 24.3974 25.5231C24.4698 26.6957 23.7823 27.7459 23.0079 28.5444C22.1611 29.4149 21.64 30.2925 21.7124 31.537C21.7196 31.6737 21.8861 31.7168 21.9657 31.6089C22.4868 30.8752 22.5881 30.0191 23.196 29.3141C23.5796 28.8681 23.9849 28.4797 24.3323 28.0049C25.2297 26.7604 24.9257 25.4943 24.5205 24.1779C24.4987 24.1347 24.4191 24.1203 24.4119 24.1779Z" fill="#0C0A35"/>
<path d="M23.4566 24.2211C23.3915 24.6599 23.3842 25.0915 23.377 25.5375C23.3625 26.4655 22.6388 27.1417 22.067 27.8035C21.4736 28.4869 20.8512 29.3645 21.0393 30.3069C21.061 30.422 21.2565 30.458 21.3071 30.3429C21.7993 29.2206 22.4434 28.4221 23.1888 27.451C24.0645 26.3 23.804 25.5878 23.6231 24.2498C23.6158 24.1563 23.4711 24.1131 23.4566 24.2211Z" fill="#0C0A35"/>
<path d="M22.8776 24.3865C22.7183 24.7822 22.617 25.1778 22.494 25.5879C22.3203 26.1633 21.9005 26.5086 21.4373 26.8467C20.9886 27.1705 20.5109 27.5373 20.3734 28.0912C20.3517 28.1848 20.4603 28.2495 20.5326 28.1848C21.0899 27.6452 21.7992 27.3215 22.3492 26.782C22.9933 26.149 22.8631 25.221 22.9789 24.4081C22.9861 24.3433 22.8993 24.3218 22.8776 24.3865Z" fill="#0C0A35"/>
<path d="M25.3383 24.1779C24.9475 25.5591 26.2285 26.8971 27.0029 27.9186C27.7845 28.9545 29.4347 30.4796 30.8677 30.2494C30.9979 30.2278 30.9979 30.0407 30.9039 29.9832C29.659 29.2135 28.4866 28.6811 27.5023 27.5373C26.6411 26.5374 25.7798 25.4728 25.4397 24.1779C25.4179 24.1347 25.3528 24.1347 25.3383 24.1779Z" fill="#0C0A35"/>
<path d="M26.3226 24.0125C25.787 24.8325 27.3503 26.2569 27.7556 26.8252C28.2188 27.4726 28.7254 28.12 29.3912 28.5661C29.9991 28.9689 30.636 29.3214 31.2078 29.7818C31.6492 30.1415 31.9387 30.6522 32.373 31.0191C32.4743 31.1054 32.648 31.0263 32.6046 30.8896C32.1776 29.4509 30.8821 28.8178 29.7096 28.0337C28.8484 27.4582 28.2694 26.5878 27.647 25.7893C27.22 25.2498 26.5542 24.739 26.4166 24.034C26.4022 23.9837 26.337 23.9837 26.3226 24.0125Z" fill="#0C0A35"/>
<path d="M27.9076 24.0638C27.5602 25.3155 28.8267 26.301 29.6662 27.042C30.3538 27.6462 30.9907 28.2289 31.6131 28.9123C32.373 29.7468 32.7711 30.5237 33.2704 31.502C33.3211 31.6099 33.4948 31.5812 33.5237 31.4661C33.8784 29.8906 32.7783 29.0993 31.8012 28.0491C30.636 26.7902 28.5155 25.8334 28.0957 24.0638C28.074 23.9703 27.9365 23.9775 27.9076 24.0638Z" fill="#0C0A35"/>
<path d="M20.5906 26.0842C21.4591 25.4871 22.4217 25.0627 23.4856 25.0052C24.079 24.9764 24.7014 24.7893 25.114 24.3433C25.8087 23.588 25.0199 22.6313 24.2021 22.4802C23.9777 22.437 23.8836 22.7679 24.108 22.8255C24.5856 22.9406 25.0633 23.1276 25.0778 23.6959C25.0995 24.3074 24.3106 24.5663 23.8402 24.6743C23.1888 24.8181 22.5881 24.7678 21.9585 25.0483C21.4157 25.2929 20.9018 25.5591 20.5544 26.0482C20.54 26.077 20.5689 26.0986 20.5906 26.0842Z" fill="#0C0A35"/>
<path d="M23.9269 9.05685C24.2309 9.05685 24.2309 8.58207 23.9269 8.58207C23.6157 8.58207 23.6157 9.05685 23.9269 9.05685Z" fill="#0C0A35"/>
<path d="M23.7677 8.20797C23.7822 8.20797 23.7967 8.20797 23.8039 8.20077C24.0934 8.1648 24.0934 7.79073 23.8039 7.75477C23.7894 7.75477 23.7822 7.75477 23.7677 7.74757C23.471 7.7116 23.471 8.24393 23.7677 8.20797Z" fill="#0C0A35"/>
<path d="M23.6954 7.35192C23.9704 7.35192 23.9704 6.92749 23.6954 6.92749C23.4204 6.92749 23.4204 7.35192 23.6954 7.35192Z" fill="#0C0A35"/>
<path d="M27.8496 8.96331C28.2332 8.96331 28.2332 8.37343 27.8496 8.37343C27.466 8.37343 27.466 8.96331 27.8496 8.96331Z" fill="#0C0A35"/>
<path d="M27.8496 7.90587C27.8424 7.91307 27.8424 7.91307 27.8352 7.92026C27.77 7.92745 27.7049 7.93465 27.6325 7.94903C27.6397 7.94903 27.6542 7.94903 27.6615 7.95623C27.8713 7.9922 28.0812 7.82674 28.0161 7.60374C27.9582 7.40232 27.6832 7.31599 27.5312 7.47425C27.4154 7.60374 27.4009 7.79077 27.5312 7.90587C27.6325 7.985 27.7556 7.985 27.8496 7.90587Z" fill="#0C0A35"/>
<path d="M27.6976 7.0354C28.0595 7.0354 28.0595 6.47429 27.6976 6.47429C27.3285 6.47429 27.3285 7.0354 27.6976 7.0354Z" fill="#0C0A35"/>
<path d="M32.1269 8.58926C32.1341 8.58926 32.1414 8.58207 32.1486 8.58207C32.344 8.51013 32.4815 8.3231 32.4164 8.10729C32.3585 7.91306 32.1414 7.77638 31.9387 7.84112C31.9315 7.84112 31.9242 7.84832 31.917 7.84832C31.7144 7.91306 31.5913 8.11448 31.6492 8.3231C31.7071 8.51013 31.9315 8.6612 32.1269 8.58926Z" fill="#0C0A35"/>
<path d="M32.2137 7.4167C32.2209 7.4095 32.2281 7.39512 32.2281 7.38792C32.3874 7.08579 32.011 6.80524 31.765 7.02824C31.7577 7.03543 31.7505 7.04263 31.736 7.04982C31.4176 7.35195 32.0038 7.80515 32.2137 7.4167Z" fill="#0C0A35"/>
<path d="M32.1413 6.43113C32.1413 6.41674 32.1486 6.40955 32.1558 6.39516C32.2861 6.02109 31.5768 6.02109 31.7071 6.39516C31.7143 6.40955 31.7143 6.41674 31.7216 6.43113C31.7867 6.63975 32.069 6.63975 32.1413 6.43113Z" fill="#0C0A35"/>
<path d="M36.6212 8.68281C37.1351 8.68281 37.1351 7.89151 36.6212 7.89151C36.1074 7.89151 36.1074 8.68281 36.6212 8.68281Z" fill="#0C0A35"/>
<path d="M36.6212 7.52463C37.0265 7.52463 37.0265 6.89878 36.6212 6.89878C36.2159 6.89878 36.2159 7.52463 36.6212 7.52463Z" fill="#0C0A35"/>
<path d="M36.5562 6.6686C36.5706 6.67579 36.5779 6.67579 36.5923 6.68298C36.7443 6.74053 36.9035 6.58947 36.9035 6.44559C36.9035 6.30172 36.7443 6.15065 36.5923 6.2082C36.5779 6.2154 36.5706 6.2154 36.5562 6.22259C36.339 6.31611 36.339 6.58227 36.5562 6.6686Z" fill="#0C0A35"/>
<path d="M14.9454 44.2338H14.9382C14.8876 44.2338 14.8441 44.241 14.7935 44.241C14.8007 44.241 14.8079 44.241 14.8152 44.241C14.7718 44.2194 14.7283 44.1978 14.6777 44.1763C14.7573 44.241 14.8297 44.2698 14.931 44.2626C14.8803 44.2554 14.8369 44.241 14.7862 44.2338C14.7935 44.241 14.8079 44.2482 14.8152 44.2482C15.0323 44.3633 15.2349 44.1331 15.177 43.9317C15.177 43.9389 15.177 43.9389 15.177 43.9461C15.1553 43.7878 15.0251 43.6583 14.8586 43.6727C14.6921 43.6871 14.5691 43.8094 14.5546 43.9748C14.5402 44.1691 14.7573 44.3921 14.9454 44.2338Z" fill="#0C0A35"/>
<path d="M14.7862 45.4999C14.8006 45.4999 14.8079 45.4999 14.8224 45.4927C15.3073 45.4208 15.2566 44.7374 14.7645 44.7374C14.75 44.7374 14.7427 44.7374 14.7283 44.7374C14.2361 44.7446 14.294 45.5719 14.7862 45.4999Z" fill="#0C0A35"/>
<path d="M14.5618 46.8667C14.6559 46.8883 14.7428 46.8667 14.8296 46.8164C14.9888 46.7085 15.0106 46.3919 14.8007 46.32C14.7934 46.32 14.7862 46.3128 14.779 46.3128C14.6487 46.2696 14.5184 46.2696 14.4171 46.3847C14.3013 46.5142 14.3302 46.6941 14.446 46.8092C14.475 46.8379 14.5184 46.8523 14.5618 46.8667Z" fill="#0C0A35"/>
<path d="M14.4099 48.0321C14.4243 48.0321 14.4388 48.0393 14.446 48.0393C14.779 48.0968 14.8731 47.6004 14.5474 47.5285C14.5329 47.5285 14.5184 47.5213 14.5112 47.5213C14.1855 47.4566 14.0842 47.9745 14.4099 48.0321Z" fill="#0C0A35"/>
<path d="M14.2941 49.032C14.5402 49.0824 14.6125 48.7011 14.3665 48.6579C14.1276 48.6148 14.048 48.9888 14.2941 49.032Z" fill="#0C0A35"/>
<path d="M17.0733 49.7945C17.0877 49.7802 17.1022 49.773 17.1167 49.7586C17.2614 49.6363 17.1239 49.4349 16.9575 49.5212C16.943 49.5284 16.9285 49.5356 16.9068 49.55C16.7331 49.6363 16.9285 49.924 17.0733 49.7945Z" fill="#0C0A35"/>
<path d="M17.3917 49.0176C17.4496 49.0752 17.5147 49.0967 17.5943 49.1183C17.92 49.2047 18.0286 48.6507 17.6956 48.6076C17.6088 48.6004 17.5437 48.5932 17.4713 48.6292C17.3048 48.7011 17.2686 48.8953 17.3917 49.0176Z" fill="#0C0A35"/>
<path d="M18.1443 48.1976C18.5496 48.2767 18.6799 47.6437 18.2673 47.5645C17.8548 47.4854 17.7318 48.1184 18.1443 48.1976Z" fill="#0C0A35"/>
<path d="M18.47 46.9242C18.8608 47.0034 18.9766 46.3991 18.5857 46.32C18.1949 46.2409 18.0791 46.8451 18.47 46.9242Z" fill="#0C0A35"/>
<path d="M18.6799 45.8524C19.049 45.9243 19.1648 45.356 18.7884 45.2841C18.4193 45.2121 18.3108 45.7804 18.6799 45.8524Z" fill="#0C0A35"/>
<path d="M16.9067 51.9742C16.4291 51.9167 16.2771 51.3699 16.8705 49.665C17.464 47.9601 17.5219 46.5286 17.2758 45.5143C17.0225 44.5 16.7041 42.867 17.5291 42.8886C18.3542 42.9102 18.9766 44.3202 19.0996 45.7157C19.2371 47.1832 18.9187 48.3558 18.6292 49.4492C18.3469 50.5427 17.4206 52.0318 16.9067 51.9742Z" fill="#990028"/>
<path d="M13.4835 51.5282C12.89 51.5569 12.4124 51.2836 12.6512 49.1039C12.89 46.9242 13.6934 42.6296 14.5619 42.385C15.4303 42.1476 15.633 42.6296 15.633 43.4065C15.633 44.1906 14.5763 51.485 13.4835 51.5282Z" fill="#990028"/>
<path d="M17.7318 49.6794C17.6522 49.6362 17.5798 49.629 17.4857 49.629C17.2107 49.629 17.1311 50.0463 17.3844 50.1542C17.4712 50.1901 17.5364 50.2045 17.6305 50.1973C17.9055 50.1829 17.9778 49.8017 17.7318 49.6794Z" fill="#0C0A35"/>
<path d="M17.8114 48.9097C18.0358 48.9528 18.2529 48.8018 18.2963 48.586C18.3397 48.363 18.1878 48.1471 17.9706 48.104C17.7463 48.0608 17.5291 48.2119 17.4857 48.4277C17.4351 48.6435 17.5871 48.8665 17.8114 48.9097Z" fill="#0C0A35"/>
<path d="M18.3687 46.5789C18.3542 46.5717 18.3397 46.5645 18.3253 46.5574C18.0937 46.4279 17.7969 46.5933 17.7463 46.8379C17.6956 47.0825 17.9127 47.3487 18.1733 47.3127C18.1878 47.3127 18.2095 47.3055 18.2239 47.3055C18.6147 47.2623 18.7088 46.766 18.3687 46.5789Z" fill="#0C0A35"/>
<path d="M18.4122 45.1114C18.2457 44.9532 18.0214 44.9316 17.8259 45.0539C17.674 45.1546 17.6305 45.3704 17.7319 45.5215C17.8621 45.7085 18.0792 45.7733 18.2964 45.6869C18.5424 45.579 18.6003 45.2985 18.4122 45.1114Z" fill="#0C0A35"/>
<path d="M17.9707 43.6583C17.92 43.6295 17.8693 43.608 17.8042 43.608C17.4496 43.572 17.3555 44.0468 17.6956 44.1475C17.7535 44.1619 17.8114 44.1691 17.8693 44.1619C18.1371 44.1259 18.2022 43.795 17.9707 43.6583Z" fill="#0C0A35"/>
<path d="M14.5546 43.0181C14.5474 43.0253 14.5401 43.0253 14.5401 43.0325C14.3737 43.1764 14.3447 43.4569 14.5763 43.5648C14.5836 43.5648 14.5908 43.572 14.598 43.572C14.8224 43.6727 15.0829 43.5073 15.0612 43.2627C15.0395 43.0397 14.7428 42.8599 14.5546 43.0181Z" fill="#0C0A35"/>
<path d="M14.3955 44.2195C14.3882 44.2267 14.381 44.2339 14.3738 44.2339C14.229 44.3562 14.1928 44.5144 14.2869 44.6871C14.2869 44.6943 14.2941 44.7015 14.3014 44.7086C14.4534 44.9964 14.8948 44.8597 14.9455 44.5792C14.9962 44.2986 14.6415 44.0109 14.3955 44.2195Z" fill="#0C0A35"/>
<path d="M14.1711 45.5287C14.1132 45.5502 14.048 45.579 13.9974 45.615C13.8309 45.7085 13.773 45.9387 13.8309 46.1041C13.896 46.2912 14.077 46.3919 14.2651 46.3847C14.2941 46.3847 14.3231 46.3847 14.352 46.3775C14.5908 46.3343 14.779 46.1689 14.7573 45.9099C14.7356 45.6294 14.4388 45.4279 14.1711 45.5287Z" fill="#0C0A35"/>
<path d="M14.0262 47.8091C14.5763 47.917 14.7427 47.0681 14.1927 46.9602C13.6427 46.8451 13.4762 47.7012 14.0262 47.8091Z" fill="#0C0A35"/>
<path d="M13.7658 49.1327C14.1855 49.2118 14.3158 48.5644 13.896 48.4853C13.469 48.3989 13.346 49.0536 13.7658 49.1327Z" fill="#0C0A35"/>
<path d="M13.5703 50.1255C13.9177 50.1902 14.019 49.6579 13.6789 49.5859C13.3315 49.5212 13.2229 50.0607 13.5703 50.1255Z" fill="#0C0A35"/>
<path d="M17.1599 51.0103C17.4494 51.0678 17.5363 50.6146 17.2468 50.5643C16.9573 50.5067 16.8705 50.9527 17.1599 51.0103Z" fill="#0C0A35"/>
<path d="M8.99635 50.5283C9.47402 50.5643 9.80694 50.2046 9.90102 48.399C9.99511 46.6006 10.48 45.2481 11.0952 44.3993C11.7104 43.5504 12.6295 42.1621 11.8479 41.8743C11.0735 41.5938 9.96617 42.6584 9.32204 43.9101C8.64173 45.2194 8.5187 46.4279 8.35224 47.5429C8.16407 48.7371 8.45355 50.4851 8.99635 50.5283Z" fill="#990028"/>
<path d="M9.09763 48.0968C9.19172 48.0896 9.25685 48.104 9.3437 48.14C9.597 48.2407 9.51017 48.6651 9.24239 48.6651C9.1483 48.6651 9.08314 48.6579 8.9963 48.6148C8.75023 48.4997 8.82261 48.1184 9.09763 48.0968Z" fill="#0C0A35"/>
<path d="M9.31468 47.3487C9.09032 47.3055 8.94559 47.0825 8.98902 46.8667C9.03244 46.6437 9.25678 46.4999 9.4739 46.543C9.69826 46.5862 9.84302 46.8092 9.79959 47.025C9.76341 47.248 9.53904 47.3919 9.31468 47.3487Z" fill="#0C0A35"/>
<path d="M9.6766 44.982C9.69107 44.982 9.71279 44.9748 9.72726 44.9748C9.98781 44.946 10.2049 45.205 10.1543 45.4495C10.1036 45.6941 9.80688 45.8596 9.57529 45.7301C9.56081 45.7229 9.54634 45.7157 9.53186 45.7085C9.19171 45.5287 9.28578 45.0323 9.6766 44.982Z" fill="#0C0A35"/>
<path d="M10.1905 43.608C10.4003 43.5216 10.6247 43.5864 10.755 43.7734C10.8563 43.9245 10.8201 44.1403 10.6609 44.241C10.4727 44.3633 10.2411 44.3417 10.0747 44.1835C9.88648 43.9964 9.94438 43.7087 10.1905 43.608Z" fill="#0C0A35"/>
<path d="M11.1531 42.4283C11.211 42.4211 11.2689 42.4211 11.3268 42.4426C11.6742 42.5434 11.5801 43.0181 11.2182 42.9822C11.1531 42.975 11.1097 42.9606 11.0518 42.9318C10.8202 42.7951 10.8853 42.4642 11.1531 42.4283Z" fill="#0C0A35"/>
<path d="M9.12663 49.5427C8.83714 49.4852 8.92398 49.0392 9.21348 49.0967C9.50297 49.1471 9.41613 49.6003 9.12663 49.5427Z" fill="#0C0A35"/>
<path d="M34.2619 39.2055C33.4007 38.4933 32.1631 39.594 31.6565 40.2774C31.3236 40.7306 31.215 41.4427 31.7868 41.7664C32.3223 42.0686 32.9665 41.8456 33.4586 41.565C34.0303 41.2413 34.6093 40.8097 35.0291 40.3061C35.4416 39.7954 35.6081 38.9393 34.8481 38.63C34.0665 38.3135 33.35 38.8242 32.7638 39.299C32.2282 39.7306 31.5117 40.4284 31.5262 41.1622C31.5407 41.8312 32.4671 42.0326 32.7855 41.4643C33.1329 40.8457 33.6902 40.1047 34.385 39.8817C34.3488 39.8961 34.1968 39.8529 34.356 39.8889C34.1099 39.8242 34.0593 39.299 34.0376 39.4069C34.0738 39.2559 34.0086 39.4285 33.9869 39.4573C34.0014 39.4285 33.8566 39.594 33.8277 39.6299C33.5599 39.9105 33.2415 40.1479 32.9085 40.3637C32.6118 40.5579 32.5612 40.6155 32.2572 40.6226C32.4309 40.6226 32.5467 40.7665 32.6118 40.9176C32.6263 40.9464 32.5974 41.1622 32.6263 41.0327C32.648 40.9248 32.6697 40.8888 32.771 40.7306C32.9375 40.45 33.1763 40.1982 33.4079 39.968C33.4948 39.8817 33.9363 39.3853 34.0738 39.4429C34.2258 39.5076 34.3994 39.3206 34.2619 39.2055Z" fill="#0C0A35"/>
<path d="M25.6061 45.2194C25.0343 45.0467 24.202 45.5719 23.7533 45.8812C23.1381 46.3056 22.6171 46.8451 22.5592 47.622C22.5374 47.9026 22.7473 48.2263 23.0296 48.2982C24.4698 48.6507 26.3081 47.1545 26.7134 45.8308C26.8292 45.4639 26.6265 45.0611 26.2574 44.946C25.5192 44.7158 24.7665 45.1043 24.1876 45.5359C23.6375 45.9459 22.8486 46.6581 22.8704 47.4134C22.8848 47.881 23.4204 48.3702 23.8908 48.0537C23.9198 48.0393 23.9415 48.0177 23.9704 48.0033C24.2961 47.7875 24.4264 47.3559 24.1369 47.0394C24.1152 47.0178 24.0935 46.9962 24.079 46.9746C24.1297 47.2048 24.1803 47.4278 24.231 47.658C24.3974 47.2839 24.6218 47.0178 24.9402 46.7444C25.1429 46.5718 25.635 46.2409 25.816 46.2912C25.664 45.9963 25.512 45.7013 25.36 45.4064C25.2297 45.8308 24.8389 46.1617 24.5132 46.4423C24.2889 46.6293 23.7316 47.0609 23.4421 47.0106C23.6013 47.2336 23.7606 47.4638 23.9125 47.6868C23.9343 46.7013 25.4613 46.4207 25.7942 45.6222C25.8739 45.4639 25.7581 45.2697 25.6061 45.2194Z" fill="#0C0A35"/>
<path d="M28.349 41.7737C27.8858 42.083 27.6469 42.2988 27.4081 42.8167C27.1548 43.3635 27.1765 44.0756 27.4081 44.6296C27.8568 45.7086 29.0076 46.0395 30.0498 45.6511C30.911 45.3273 31.3887 44.3706 31.5189 43.5289C31.6782 42.5146 31.0123 41.6658 30.1149 41.2917C29.1885 40.9032 27.9292 41.0975 27.2996 41.9103C26.764 42.6081 26.8436 43.5289 27.1548 44.2986C27.4588 45.0684 28.2332 45.6511 29.0655 45.6726C30.2452 45.7014 30.9906 44.7375 31.1715 43.68C31.309 42.8887 30.8531 42.1765 30.1438 41.8672C29.4418 41.5651 28.3779 41.9391 28.0522 42.6225C27.77 43.2124 27.7989 44.0972 28.4286 44.4785C29.2102 44.9461 29.8833 44.3418 30.1149 43.6081C30.3248 42.9318 29.5865 42.2844 28.9424 42.6297C28.5806 42.8239 28.3056 43.0973 28.0522 43.421C27.7917 43.7591 27.9292 44.349 28.2983 44.5576C28.32 44.572 28.349 44.5864 28.3707 44.6008C28.8266 44.8454 29.3405 44.6727 29.5287 44.1907C29.4201 44.4713 29.5938 43.9605 29.5576 43.8239C29.5431 43.7519 29.5214 43.68 29.4852 43.6152C29.8109 44.3346 29.2464 44.3346 29.7096 44.09C29.3188 43.7663 28.928 43.4426 28.5371 43.1117C28.4358 43.4498 28.899 42.7232 29.4418 43.2052C29.5648 43.3131 29.5142 43.4354 29.5142 43.3203C29.5142 43.4714 29.4925 43.4138 29.4852 43.4138C29.4201 43.4786 29.5938 43.421 29.63 43.4282C29.5069 43.3922 29.4852 43.2268 29.5287 43.4066C29.5431 43.4714 29.4997 43.6224 29.4708 43.716C29.4056 43.9174 29.2681 43.9893 29.1451 44.0253C29.0293 44.0541 29.1668 44.0469 28.9714 44.0253C29.051 44.0325 29.022 44.0397 28.899 43.9605C28.8049 43.903 28.7398 43.8023 28.6385 43.6009C28.5878 43.493 28.5444 43.2987 28.5444 43.162C28.5444 42.9462 28.5227 43.1333 28.5878 42.9247C28.5661 42.9966 28.6312 42.8599 28.6457 42.8455C28.6891 42.8096 28.7326 42.7952 28.7036 42.8024C28.8556 42.752 28.9352 42.752 29.1016 42.752C29.3332 42.7592 29.6372 42.8455 29.7385 42.939C29.8543 43.0469 29.8688 43.162 29.8688 43.2843C29.8688 43.493 29.7964 43.6872 29.6734 43.8814C29.4635 44.2195 29.2464 44.3058 28.9569 44.162C28.3924 43.8742 28.3417 42.6009 28.6819 42.1621C28.8628 41.9463 28.5733 41.6298 28.349 41.7737Z" fill="#0C0A35"/>
<path d="M29.1813 43.7878C29.8399 43.8166 29.8833 42.7951 29.2247 42.7663C28.5661 42.7448 28.5227 43.7591 29.1813 43.7878Z" fill="#F70032"/>
<path d="M27.8568 41.9463C28.0088 41.9535 28.0161 41.7233 27.8641 41.7161C27.7193 41.7089 27.7121 41.9391 27.8568 41.9463Z" fill="#F70032"/>
<path d="M27.4588 42.7448C27.6035 42.752 27.618 42.5218 27.466 42.5218C27.3213 42.5146 27.314 42.7376 27.4588 42.7448Z" fill="#F70032"/>
<path d="M27.4515 43.6584C27.6469 43.6656 27.6614 43.3634 27.466 43.3562C27.2706 43.349 27.2561 43.6512 27.4515 43.6584Z" fill="#F70032"/>
<path d="M27.8135 44.4857C28.0016 44.4929 28.0161 44.1979 27.828 44.1907C27.6326 44.1835 27.6253 44.4785 27.8135 44.4857Z" fill="#F70032"/>
<path d="M28.4793 45.2338C28.4865 45.2338 28.501 45.2266 28.5082 45.2266C28.6096 45.1906 28.6168 45.0683 28.5154 45.0252C28.5082 45.018 28.501 45.018 28.4865 45.0108C28.3056 44.9245 28.2911 45.2985 28.4793 45.2338Z" fill="#F70032"/>
<path d="M29.4201 45.4568C29.4273 45.4568 29.4418 45.4496 29.449 45.4496C29.5866 45.4208 29.5938 45.2194 29.4635 45.1763C29.4563 45.1763 29.4418 45.1691 29.4346 45.1691C29.1957 45.0971 29.1813 45.5072 29.4201 45.4568Z" fill="#F70032"/>
<path d="M30.3393 45.0827C30.4985 45.0899 30.5058 44.8453 30.3465 44.8381C30.1946 44.8309 30.1873 45.0755 30.3393 45.0827Z" fill="#F70032"/>
<path d="M30.9182 44.313C31.0702 44.3202 31.0775 44.09 30.9255 44.0828C30.7807 44.0756 30.7735 44.3058 30.9182 44.313Z" fill="#F70032"/>
<path d="M31.1208 43.2555C31.2583 43.2627 31.2728 43.0469 31.1281 43.0397C30.9905 43.0325 30.9761 43.2483 31.1208 43.2555Z" fill="#F70032"/>
<path d="M30.788 42.3635C30.9689 42.3707 30.9761 42.0973 30.8025 42.0902C30.6215 42.083 30.6143 42.3563 30.788 42.3635Z" fill="#F70032"/>
<path d="M29.9918 41.7809C30.2017 41.788 30.2161 41.4643 30.0063 41.4499C29.7964 41.4499 29.7819 41.7737 29.9918 41.7809Z" fill="#F70032"/>
<path d="M29.0004 41.6442C29.0077 41.6442 29.0221 41.6442 29.0294 41.6442C29.1886 41.6298 29.1958 41.4212 29.0366 41.3996C29.0294 41.3996 29.0149 41.3996 29.0077 41.3924C28.8412 41.3636 28.834 41.6586 29.0004 41.6442Z" fill="#F70032"/>
<path d="M17.5364 17.1426C17.4423 17.1714 17.3627 17.2289 17.2976 17.2937C17.1022 17.4879 16.9936 17.7756 17.0226 18.0562C17.0443 18.3367 17.2035 18.5957 17.4279 18.754C17.5509 18.8403 17.7029 18.8978 17.8549 18.8763C18.1878 18.8331 18.3687 18.4662 18.4556 18.1353C18.5062 17.9195 18.5569 17.603 18.195 17.3296C17.9996 17.193 17.7608 17.0779 17.5364 17.1426Z" fill="#990028"/>
<path d="M18.2094 17.6965C18.6436 17.7612 19.0706 17.8548 19.4976 17.9843C19.0272 18.272 18.4699 18.3943 17.9271 18.3439C17.9995 18.1497 17.7896 17.8763 17.9489 17.7397C18.014 17.6749 18.1153 17.6821 18.2094 17.6965Z" fill="#990028"/>
<path d="M13.8743 24.2931C14.7862 24.5089 15.7994 24.4729 16.61 24.0125C17.4278 23.5449 17.9923 22.6026 17.8403 21.6818C17.7824 21.3293 17.6232 20.9912 17.3916 20.7106C17.1673 20.4373 16.914 20.1495 16.5811 20.0344C15.025 19.4805 12.89 20.4445 12.2169 21.3077C12.0722 21.4876 11.9492 21.6818 11.884 21.9048C11.7103 22.4587 11.9347 23.0846 12.34 23.509C12.738 23.919 13.3026 24.1564 13.8743 24.2931Z" fill="#990028"/>
<path d="M9.52465 20.5236C8.08442 20.6962 6.96987 21.9983 6.68038 23.4082C6.39089 24.8182 6.80342 26.2857 7.45478 27.5733C7.49097 27.6453 7.52713 27.7172 7.59227 27.7604C8.35219 26.8828 12.5209 23.3291 13.3098 21.9623C13.0348 21.6026 12.6801 21.3796 12.2821 21.1638C11.3557 20.6746 10.5668 20.4013 9.52465 20.5236Z" fill="#990028"/>
<path d="M17.0949 22.5738C16.9791 22.5522 16.8778 22.4803 16.791 22.4083C15.9876 21.7681 14.75 21.0991 14.5691 20.092C15.4086 19.6028 16.8561 17.9555 17.493 17.2217C17.8187 18.4374 17.9562 20.8617 17.8548 22.1134C17.8404 22.3076 17.6812 22.1206 17.5871 22.2932C17.4857 22.4731 17.2903 22.6026 17.0949 22.5738Z" fill="#990028"/>
<path d="M17.008 16.7469C16.9283 16.5383 16.6751 16.4591 16.4507 16.4519C16.248 16.4447 16.0309 16.4879 15.9151 16.6534C15.8283 16.7828 15.8355 16.9555 15.9006 17.0922C15.9658 17.2289 16.0888 17.3368 16.2263 17.4087C15.9947 17.3152 15.6691 17.4231 15.6184 17.6677C15.5677 17.8763 15.7269 18.0849 15.9151 18.1928C16.1033 18.3007 16.3204 18.3295 16.5231 18.4086C16.7474 18.4949 16.9428 18.6244 17.1455 18.7611C17.3264 18.4086 17.5073 18.0561 17.6955 17.7036C17.7751 17.5454 17.862 17.3871 17.9343 17.2217C18.0067 17.049 18.0719 16.8764 18.0791 16.6893C18.0863 16.5023 18.0284 16.3081 17.8909 16.1858C17.8403 16.1426 17.7823 16.1066 17.7244 16.0851C17.5146 15.9987 17.2613 16.0059 17.0876 16.1498C16.9211 16.2865 16.8705 16.567 17.008 16.7469Z" fill="#990028"/>
<path d="M13.194 22.2572C13.8671 22.9119 14.75 23.4658 15.6981 22.9838C16.335 22.6601 17.2542 21.8688 16.8995 21.0703C16.8633 20.9912 16.7258 20.9912 16.6896 21.0703C16.4074 21.6746 16.2482 22.1493 15.6402 22.5306C14.8659 23.0198 13.9684 22.6529 13.317 22.1421C13.2302 22.0702 13.1144 22.1781 13.194 22.2572Z" fill="#0C0A35"/>
<path d="M10.8274 21.4587C9.44502 20.4444 8.22916 22.1134 7.78044 23.3075C7.17974 24.8973 7.78045 27.0122 9.11935 28.0409C9.2062 28.1057 9.32923 27.9978 9.29304 27.9042C8.92394 26.8108 8.25087 26.0123 8.18573 24.8038C8.10612 23.3147 9.08316 21.4228 10.7912 21.5738C10.8563 21.5738 10.8635 21.4875 10.8274 21.4587Z" fill="#0C0A35"/>
<path d="M10.7984 22.171C8.69232 22.3436 8.75744 25.9404 10.27 26.8181C10.3641 26.8756 10.4872 26.7821 10.4582 26.6742C10.2701 26.0124 9.9299 25.4225 9.79962 24.7391C9.60422 23.7104 10.024 22.9407 10.849 22.358C10.9142 22.3076 10.9069 22.1638 10.7984 22.171Z" fill="#0C0A35"/>
<path d="M11.1169 22.8471C10.0458 23.5809 10.2991 25.3146 11.5367 25.7534C11.6525 25.7965 11.7176 25.6599 11.6742 25.5735C11.2834 24.7031 10.4511 23.9837 11.2761 23.0486C11.363 22.9478 11.2399 22.7608 11.1169 22.8471Z" fill="#0C0A35"/>
<path d="M17.7897 40.8529C17.9706 40.8673 18.1515 40.8817 18.3325 40.8385C18.7088 40.745 18.9766 40.3925 19.0924 40.0184C19.2082 39.6444 19.2082 39.2559 19.2443 38.8674C19.295 38.3279 19.4325 37.7956 19.6352 37.292C19.8233 36.8316 20.0694 36.3928 20.1345 35.9037C20.2648 34.8822 19.57 33.947 18.8825 33.1701C18.1877 32.3716 17.4278 32.2205 16.7185 30.4581C16.3567 29.566 16.2336 29.1057 16.0527 29.0049C15.7704 28.8539 15.5099 29.1992 15.3869 29.3646C15.2638 29.9977 15.1987 30.0336 15.4158 31.0479C15.5461 31.6666 15.452 31.9184 16.0237 33.3859C16.2192 33.8822 16.154 33.5945 16.429 34.0549C15.9803 34.5225 15.5027 34.1556 14.8947 34.393C14.294 34.6304 14.1058 35.3785 14.0552 36.0188C14.0045 36.7165 14.019 37.4143 14.0986 38.1049C14.1927 38.9106 14.4243 39.7738 15.0757 40.263C15.5967 40.6515 16.2915 40.7234 16.9429 40.781C17.2179 40.8025 17.5074 40.8241 17.7897 40.8529Z" fill="#FCC07E"/>
<path d="M15.9152 35.3929C16.2481 35.7885 16.8778 36.2273 16.762 36.8244C16.6606 37.3711 15.8863 37.033 15.5895 36.9827C15.5099 36.9683 15.452 37.0402 15.4882 37.1122C15.7125 37.5797 16.6896 37.479 16.9646 37.105C17.1817 36.8028 17.0876 36.4216 16.9357 36.1122C16.7475 35.7166 16.3495 35.5008 15.9803 35.3137C15.9224 35.2778 15.8718 35.3425 15.9152 35.3929Z" fill="#0C0A35"/>
<path d="M15.7198 37.292C15.8935 37.4863 16.1468 37.5582 16.3277 37.738C16.5376 37.9395 16.6896 38.3567 16.4797 38.6013C16.1902 38.9322 15.6546 38.7308 15.3 38.6732C15.2349 38.666 15.1842 38.7236 15.2132 38.7811C15.452 39.2631 16.3422 39.0976 16.6606 38.7811C16.8705 38.5725 16.8633 38.2056 16.7475 37.9539C16.6679 37.7812 16.5593 37.6373 16.4218 37.515C16.2481 37.3568 16.002 37.328 15.8211 37.1841C15.7487 37.1338 15.6546 37.2201 15.7198 37.292Z" fill="#0C0A35"/>
<path d="M15.7125 40.155C16.125 40.2773 16.6172 40.1982 16.733 39.7234C16.8488 39.2558 16.5014 38.9681 16.0961 38.8314C15.9948 38.7954 15.5388 38.6947 15.5967 38.9465C15.6546 39.1839 16.0093 39.2343 16.2047 39.3062C16.429 39.3925 16.5593 39.6011 16.3784 39.8241C16.2481 39.9896 15.9007 40.0184 15.7125 40.0759C15.6763 40.0903 15.6763 40.1479 15.7125 40.155Z" fill="#0C0A35"/>
<path d="M15.9586 34.4434C15.6112 34.4578 15.2348 33.9398 15.1914 33.6233C15.1263 33.1269 15.2348 33.4291 15.1697 32.9327C14.9888 31.5515 14.7355 29.379 14.7065 27.9835C14.6848 26.7893 14.5111 25.5952 14.6124 24.4082C14.6269 24.2212 14.8078 24.0126 14.9019 23.8471C14.996 23.6817 15.1986 23.5522 15.4013 23.5738C15.1407 26.2354 15.3868 28.2856 15.5316 31.6594C15.575 32.5874 15.9948 33.5154 15.9586 34.4434Z" fill="#990028"/>
<path d="M16.9502 34.7814C16.8488 35.1051 16.5159 35.3497 16.1758 35.3569C15.8718 35.3641 15.5895 35.2058 15.329 35.0476C15.1191 34.9253 14.9092 34.803 14.7066 34.6807C14.3302 34.4577 13.9539 34.2347 13.6861 33.8966C13.4183 33.5585 13.2881 33.0765 13.4762 32.6881C13.5993 32.4291 13.9756 31.5443 14.9744 32.0406C15.5099 32.3068 16.2626 33.2707 16.8271 33.9829C16.9719 34.1771 17.0298 34.544 16.9502 34.7814Z" fill="#FFD6A1"/>
<path d="M15.5606 35.2058C15.785 35.5296 16.4653 35.7022 16.8271 35.5152C17.2397 35.2994 17.3555 34.7455 17.037 34.4074C17.0153 34.3786 16.9574 34.4002 16.9647 34.4361C16.9936 34.6951 16.9574 35.1555 16.6679 35.2562C16.3784 35.3569 15.9225 35.249 15.6619 35.1123C15.5968 35.0836 15.5172 35.1483 15.5606 35.2058Z" fill="#0C0A35"/>
<path d="M17.5653 18.0346C17.8187 18.0346 17.8187 17.6461 17.5653 17.6461C17.312 17.6461 17.312 18.0346 17.5653 18.0346Z" fill="#0C0A35"/>
<path d="M34.5151 57.0889C33.6828 56.2544 32.3946 56.1105 31.2149 56.053C30.5129 56.017 29.8036 55.9954 29.1016 55.9811C28.6094 55.9739 28.1173 55.9739 27.6396 56.0674C26.9593 56.1969 26.3297 56.499 25.7145 56.8155C24.5276 57.4198 23.3551 58.06 22.2116 58.7434C21.8859 58.9377 21.5603 59.1319 21.2925 59.398C20.6918 59.9735 20.4168 60.8008 20.2503 61.6137C19.6641 64.4768 20.1996 67.4406 20.7352 70.318C20.8076 70.7209 20.8872 71.1237 21.0826 71.4834C21.4879 72.2243 22.3347 72.6056 23.1525 72.8214C24.4914 73.1739 25.8882 73.1955 27.2705 73.1307C29.5358 73.0228 31.8156 72.6847 33.9289 71.8646C33.8999 71.2532 33.8637 70.6345 33.8348 70.0231C33.8275 69.9008 33.8203 69.7713 33.8565 69.6562C33.9216 69.4476 34.1026 69.3037 34.2763 69.1598C35.731 67.9513 36.6356 66.232 37.5041 64.5559C37.8732 63.8437 38.2568 63.0812 38.1844 62.2827C37.8081 62.0957 37.3521 62.0885 36.9758 62.2611C36.6212 62.4194 36.2665 62.7287 35.9119 62.5848C35.5717 62.4554 35.4994 62.0165 35.4921 61.6569C35.4777 60.8584 35.5356 60.0527 35.4487 59.2614C35.3474 58.4629 35.0868 57.6572 34.5151 57.0889Z" fill="#FFD6A1"/>
<path d="M32.5973 68.3757C32.7637 69.167 32.8506 69.9295 32.7058 70.4547C32.6769 70.5626 32.6769 70.6777 32.6117 70.7568C32.5032 70.8863 32.315 70.9079 32.1486 70.9151C30.607 71.0014 29.051 71.3899 27.5239 71.174C24.5928 70.7712 24.781 69.6993 24.752 69.3756C24.7448 69.2677 24.9547 69.2533 25.0487 69.1958C25.0849 69.1742 25.1283 69.167 25.1718 69.1598C26.46 68.9296 27.7483 68.6994 29.0293 68.462C29.478 68.3829 29.9195 68.3038 30.3754 68.239C31.0051 68.1527 31.5551 67.9009 32.1847 67.8937C32.2571 67.9009 32.496 67.8793 32.5973 68.3757Z" fill="#0C0A35"/>
<path d="M30.2452 69.6922C28.4938 70.4476 26.518 70.131 24.7593 69.3829C24.7521 69.1959 24.8751 69.0304 24.9982 68.8865C25.8884 67.8506 27.1694 67.1672 28.5228 66.9946C29.8761 66.822 31.2947 67.1672 32.4164 67.9514C32.2645 68.3182 31.6203 69.1023 30.2452 69.6922Z" fill="white"/>
<path d="M28.653 67.5125C28.226 67.534 27.77 67.7499 27.5674 68.1815C27.3141 68.7066 27.5601 69.4548 28.0595 69.6634C28.3056 69.7641 28.5734 69.7497 28.8339 69.7065C29.2681 69.6346 29.753 69.4476 29.9267 68.9872C30.0715 68.6059 29.934 68.1455 29.6662 67.8721C29.3984 67.5988 29.0148 67.4981 28.653 67.5125Z" fill="#0C0A35"/>
<path d="M19.505 58.4773C19.7294 55.0675 20.511 51.7224 23.4132 49.8736C25.2297 48.7227 28.0957 48.1472 30.2235 47.8163C30.9689 47.7012 31.7144 47.5933 32.4671 47.5933C33.5599 47.6004 34.631 47.845 35.6949 48.0896C35.8469 48.1256 36.0061 48.1616 36.1219 48.2695C36.3608 48.4853 36.3246 48.8593 36.2522 49.1759C36.1219 49.7801 35.9555 50.37 35.7456 50.9527C34.9857 53.1036 34.8988 54.0604 35.0001 57.5277C35.0074 57.7003 35.21 58.7362 35.1521 58.9017C35.0363 59.247 34.6962 58.9592 34.3343 59.0024C30.1222 59.4988 25.6278 58.2039 21.4446 58.8801C21.0683 58.9377 20.6919 59.0168 20.3156 58.9592C19.9465 58.9017 19.4833 58.8513 19.505 58.4773Z" fill="#D6002B"/>
<path d="M37.0193 47.3486C36.1581 47.5573 35.7456 48.1112 35.3185 48.8593C34.754 49.8592 34.0954 50.9527 33.9073 52.0893C33.6974 53.341 33.6539 54.7078 33.5381 55.981C33.4151 57.319 33.9145 58.5779 33.6684 59.916C33.625 60.139 33.929 60.2972 34.052 60.0742C34.3922 59.4484 34.3126 58.7937 34.2329 58.1032C34.0737 56.6932 34.1099 55.4847 34.327 54.0747C34.5224 52.7799 34.4211 51.7296 35.0725 50.521C35.637 49.4564 36.0061 48.2263 37.1279 47.5932C37.2726 47.5213 37.1785 47.3055 37.0193 47.3486Z" fill="#0C0A35"/>
<path d="M35.9554 46.6941C35.1738 47.3703 34.4211 47.8522 33.7842 48.7083C33.0387 49.7154 32.6552 51.0031 32.3801 52.2044C31.7722 54.8876 32.0617 57.463 32.5032 60.1318C32.5394 60.3476 32.8289 60.2973 32.894 60.1318C33.2124 59.2758 32.9519 58.4701 32.7782 57.5996C32.4742 56.1034 32.7058 54.3265 32.9447 52.8374C33.1618 51.485 33.6177 50.2046 34.3487 49.0392C34.8625 48.2191 35.7745 47.7084 36.1363 46.802C36.1797 46.6869 36.0278 46.6293 35.9554 46.6941Z" fill="#0C0A35"/>
<path d="M34.1534 46.5574C32.0618 47.8522 31.1933 49.888 30.6288 52.2188C30.3248 53.4921 30.1294 54.7941 30.0787 56.1034C30.0209 57.6572 30.7446 59.0671 30.5202 60.6282C30.4841 60.8799 30.7953 61.0454 30.9472 60.808C31.3887 60.1102 31.2512 59.3765 31.092 58.5996C30.7446 56.8875 30.6722 55.4559 30.9617 53.7151C31.4032 51.039 32.3658 48.6867 34.233 46.6653C34.2837 46.6077 34.2185 46.5142 34.1534 46.5574Z" fill="#0C0A35"/>
<path d="M32.6479 46.0682C30.4984 47.4206 29.4852 49.7945 29.0727 52.1828C28.6384 54.715 28.3272 57.5565 29.0582 60.0599C29.1016 60.2037 29.3187 60.2109 29.3549 60.0599C29.5793 59.0671 29.3405 58.0528 29.2681 57.0457C29.1668 55.6358 29.3694 54.1755 29.5648 52.7799C29.7313 51.5857 29.9412 50.406 30.4695 49.3054C31.0412 48.1184 32.1268 47.3127 32.7854 46.1977C32.8361 46.1186 32.7348 46.0179 32.6479 46.0682Z" fill="#0C0A35"/>
<path d="M30.701 46.2768C28.5516 47.4565 27.8423 49.629 27.3357 51.8591C27.0534 53.0748 26.9087 54.2833 26.9014 55.535C26.887 56.909 27.2271 58.2183 27.3067 59.5707C27.3285 59.9375 27.8206 60.0023 27.9436 59.657C28.2476 58.7938 27.8785 57.8874 27.7916 57.0025C27.6686 55.6645 27.7048 54.3481 27.9074 53.0172C28.0739 51.9166 28.3127 50.7944 28.6239 49.7225C29.0365 48.2982 30.1365 47.6004 30.853 46.4063C30.8892 46.3199 30.7879 46.2264 30.701 46.2768Z" fill="#0C0A35"/>
<path d="M28.8339 46.284C26.9232 47.0106 26.1705 49.5571 25.7363 51.3412C25.4396 52.5857 25.3165 53.8733 25.2007 55.1394C25.056 56.7436 24.8172 58.6499 25.2731 60.2109C25.3165 60.3476 25.5119 60.3476 25.5481 60.2109C25.8666 59.1175 25.7652 57.9521 25.8087 56.8155C25.8666 55.2977 25.9679 53.7726 26.185 52.2691C26.5252 49.9096 27.3575 48.2047 28.9062 46.4135C28.9569 46.3631 28.9135 46.2552 28.8339 46.284Z" fill="#0C0A35"/>
<path d="M26.7784 46.7228C24.904 47.8091 24.1223 49.7513 23.869 51.8519C23.5144 54.7725 22.8992 57.9449 23.3479 60.8799C23.3696 61.0382 23.6012 61.0454 23.6736 60.9231C24.1006 60.1893 23.9197 59.4196 23.9197 58.5924C23.9197 57.1392 24.0427 55.6861 24.2092 54.2402C24.5349 51.4347 24.7303 48.9313 26.8363 46.7948C26.8725 46.7588 26.8218 46.7012 26.7784 46.7228Z" fill="#0C0A35"/>
<path d="M24.0645 47.8666C22.6532 49.2118 21.9584 51.3268 21.6472 53.1971C21.488 54.1827 21.4591 55.1754 21.5314 56.1753C21.6038 57.1824 21.4953 58.2902 21.9657 59.2038C22.0598 59.3981 22.3058 59.2758 22.3276 59.1031C22.5591 57.3191 22.1756 55.5566 22.3493 53.7654C22.4506 52.6936 22.7111 51.6505 23.073 50.6362C23.377 49.7729 23.5579 48.6291 24.1079 47.8954C24.1224 47.8738 24.0862 47.8522 24.0645 47.8666Z" fill="#0C0A35"/>
<path d="M21.1624 50.4132C20.2215 51.7728 20.0333 53.1684 19.8596 54.7941C19.7077 56.2688 19.5919 58.1823 20.2505 59.5491C20.3084 59.6786 20.511 59.6355 20.5472 59.5132C20.9018 58.1895 20.5472 56.686 20.5978 55.3193C20.6557 53.6647 21.2058 52.0821 21.2709 50.442C21.2637 50.3772 21.1913 50.37 21.1624 50.4132Z" fill="#0C0A35"/>
<path d="M23.1816 57.1393C23.9125 57.9378 24.6652 58.9449 24.4191 60.0023C24.2599 60.6857 23.7171 61.2037 23.2974 61.772C22.8776 62.3403 22.5809 63.1316 22.9572 63.7215C23.2539 64.1891 23.8402 64.3545 24.2889 64.6782C25.0054 65.2034 25.3166 66.2177 25.0054 67.0521C24.8244 67.5413 24.4698 67.9369 24.2454 68.4045C23.7823 69.3685 23.9198 70.5411 24.4191 71.4906C24.9185 72.433 25.7291 73.1811 26.6121 73.7998C25.2659 73.735 23.9777 73.7566 22.6315 73.6919C21.9006 73.6559 21.1696 73.6199 20.4676 73.4113C19.1865 73.0301 18.1082 72.0445 17.6016 70.8144C17.3048 70.0879 17.2035 69.2894 16.9285 68.5484C16.7186 67.9801 16.4002 67.455 16.1107 66.9226C14.5257 63.9948 13.6572 60.7001 11.819 57.9234C11.6959 57.7363 11.5729 57.4918 11.7032 57.3191C11.7828 57.2184 11.9203 57.1824 12.0505 57.1609C13.5125 56.9163 15.0034 57.1465 16.487 57.1033C17.9562 57.0601 19.4037 56.7508 20.8656 56.6501C21.7269 56.5782 22.5953 56.499 23.1816 57.1393Z" fill="#D6002B"/>
<path d="M19.6352 75.1306C19.476 76.8211 19.6352 79.3749 19.9102 81.461C20.0839 82.7631 20.4531 84.1011 20.5471 85.0075C20.6991 86.5398 21.7268 86.2376 21.7775 85.77C22.1393 82.3027 21.9077 80.5762 22.5446 77.8138C22.6966 77.152 23.7243 77.2024 23.8763 77.7131C24.2816 79.044 24.3322 80.2453 24.4915 81.5905C24.7954 84.1371 25.056 85.619 25.5119 86.1729C25.7218 86.4319 26.185 86.4534 26.3008 86.1369C27.3647 83.1659 26.0041 77.8498 27.7048 77.224C28.0378 77.1017 28.3996 77.3391 28.472 77.6772C29.0655 80.4036 28.3273 83.4824 29.6662 85.9571C29.753 86.1153 29.8688 86.2808 30.0425 86.3096C30.3031 86.3527 30.4912 86.0722 30.5998 85.8276C31.7433 83.094 30.4116 77.9361 31.4827 77.001C31.8808 76.6485 32.1992 76.8643 32.2499 77.3894C32.6986 82.0365 33.1111 85.1442 34.0665 85.5254C34.5948 85.7341 34.8336 84.1083 34.8119 83.4753C34.7106 80.159 34.5224 76.8499 34.3342 73.5408C34.356 73.6127 34.3487 73.6631 34.3125 73.5984C34.2763 73.5336 34.1895 73.5336 34.1171 73.5408C29.5504 73.8573 24.9836 74.1811 20.4241 74.4976C20.2504 74.512 20.0912 74.5623 19.9392 74.6486C19.7872 74.7565 19.6497 74.958 19.6352 75.1306Z" fill="#F70032"/>
<path d="M34.4067 71.8791C33.929 71.2964 22.1394 72.5193 19.6136 72.6416C19.3675 72.656 19.1504 72.8071 19.0563 73.0301C18.8319 73.5408 18.9839 73.994 19.1142 74.5407C19.1431 74.6486 19.1721 74.7637 19.2517 74.8429C19.382 74.9724 19.5919 74.9724 19.78 74.958C23.4349 74.7278 27.0969 74.4976 30.7518 74.2674L33.8783 74.0732C34.1172 74.0588 34.356 74.0012 34.5586 73.8789C35.087 73.5624 34.9857 73.138 34.8843 72.7567C34.7902 72.4258 34.6238 72.1381 34.4067 71.8791Z" fill="#0C0A35"/>
<path d="M34.1896 85.5039C33.958 85.5039 33.7626 85.6981 33.7626 85.9283C33.7626 86.1585 33.958 86.3527 34.1896 86.3527C34.4212 86.3527 34.6166 86.1585 34.6166 85.9283C34.6094 85.6981 34.4212 85.5039 34.1896 85.5039Z" fill="#0C0A35"/>
<path d="M30.086 86.0649C29.536 86.0649 29.536 86.9138 30.086 86.9138C30.6288 86.9138 30.6288 86.0649 30.086 86.0649Z" fill="#0C0A35"/>
<path d="M25.9244 86.2448C25.6783 86.2448 25.4757 86.4462 25.4757 86.6908C25.4757 86.9354 25.6783 87.1368 25.9244 87.1368C26.1705 87.1368 26.3731 86.9354 26.3731 86.6908C26.3804 86.4462 26.1705 86.2448 25.9244 86.2448Z" fill="#0C0A35"/>
<path d="M21.2709 85.8995C21.0176 85.8995 20.8149 86.1081 20.8149 86.3527C20.8149 86.6045 21.0248 86.8059 21.2709 86.8059C21.517 86.8059 21.7269 86.5973 21.7269 86.3527C21.7269 86.1009 21.517 85.8995 21.2709 85.8995Z" fill="#0C0A35"/>
<path d="M33.6466 78.008C33.8782 76.9002 33.5815 75.7708 33.5092 74.6558C33.4874 74.2673 32.9302 74.2673 32.9084 74.6558C32.8288 75.778 33.2848 76.8642 33.3861 77.972C33.4006 78.1159 33.6177 78.1663 33.6466 78.008Z" fill="#0C0A35"/>
<path d="M29.9267 78.1663C30.0787 77.5548 30.1439 76.9362 30.1149 76.3103C30.0932 75.8212 30.1149 75.109 29.7168 74.7637C29.5576 74.6198 29.3043 74.6774 29.2392 74.886C29.0872 75.3752 29.3405 76.0082 29.3767 76.5118C29.4201 77.0657 29.4853 77.6196 29.6155 78.1591C29.6589 78.3174 29.8905 78.3174 29.9267 78.1663Z" fill="#0C0A35"/>
<path d="M25.7146 78.3821C25.577 77.3822 25.5626 76.3823 25.5047 75.3752C25.4757 74.9076 24.7809 74.9004 24.7665 75.3752C24.7448 76.4183 25.0198 77.4398 25.2803 78.4397C25.3382 78.6699 25.7435 78.6267 25.7146 78.3821Z" fill="#0C0A35"/>
<path d="M21.032 78.4397C21.5313 77.7779 21.4807 76.6197 21.4228 75.8428C21.3866 75.3104 20.605 75.2961 20.5832 75.8428C20.5688 76.2384 20.5977 76.6413 20.6194 77.0297C20.6411 77.4613 20.605 77.9002 20.6412 78.3318C20.6556 78.5476 20.9089 78.6051 21.032 78.4397Z" fill="#0C0A35"/>
<path d="M23.8908 72.9077C23.4421 72.3682 23.196 71.4043 23.0223 70.7568C22.6821 69.5051 23.3046 68.4117 23.5362 67.2248C23.7895 65.9155 22.3782 65.2393 21.5893 64.4768C19.7872 62.7431 23.2539 60.3836 23.4565 58.6068C23.6085 57.2759 22.3637 55.5638 21.2781 54.9236C21.184 54.8661 21.0393 54.9883 21.1116 55.0891C21.7123 55.8947 22.4216 56.499 22.8269 57.4702C23.471 59.024 22.2768 59.9232 21.4807 61.0382C20.8004 61.9878 20.1129 63.5848 21.032 64.6422C21.5169 65.2033 22.1611 65.5702 22.6966 66.081C23.6302 66.9658 22.4867 68.4333 22.4578 69.3972C22.4216 70.613 22.7255 72.2747 23.8763 72.9437C23.8835 72.9509 23.9052 72.9293 23.8908 72.9077Z" fill="#0C0A35"/>
<path d="M22.2769 72.7423C20.2722 71.4618 21.9368 69.6706 21.7196 67.9873C21.669 67.5988 21.2926 67.2535 21.0393 66.9874C20.2577 66.1673 19.4688 65.6134 19.0997 64.4696C18.3688 62.1676 20.8222 60.9591 21.5098 59.06C21.9874 57.7435 21.5677 56.4199 20.3228 55.6861C20.1709 55.5998 19.9754 55.7797 20.0768 55.9307C20.2866 56.2472 20.511 56.5422 20.7354 56.8371C21.4519 57.7867 20.9597 58.7362 20.4386 59.6139C19.9392 60.4555 19.1576 61.0742 18.7162 61.9446C18.0503 63.2539 18.3036 65.0595 19.2662 66.1529C19.8886 66.8651 21.2782 67.606 21.0755 68.7354C20.9452 69.4476 20.6558 69.9943 20.6413 70.7353C20.6268 71.7064 21.09 72.9725 22.2335 72.9077C22.3203 72.9077 22.3565 72.7926 22.2769 72.7423Z" fill="#0C0A35"/>
<path d="M20.6195 73.1308C20.2359 72.843 19.7438 71.7352 19.5773 71.3324C19.2951 70.6346 19.8596 69.275 19.7582 68.4693C19.6859 67.8578 19.324 67.4766 18.8753 67.0881C17.9706 66.304 17.1745 65.7717 16.7909 64.5775C15.6691 61.067 21.4518 57.7867 17.4423 54.7941C17.2252 54.6287 16.914 54.9524 17.066 55.1682C17.9996 56.4775 18.5496 57.3767 17.8331 59.0024C17.4712 59.8081 16.914 60.5275 16.6172 61.3692C16.0165 63.0381 15.8935 64.6279 16.9502 66.1242C17.4206 66.786 18.1515 67.2176 18.745 67.7643C19.8089 68.7498 18.7088 70.0519 18.9404 71.1525C19.0635 71.7424 19.7655 73.4041 20.6122 73.2387C20.6557 73.2243 20.6557 73.1596 20.6195 73.1308Z" fill="#0C0A35"/>
<path d="M17.2469 73.066C18.4483 72.8286 18.3108 70.9799 18.2891 70.0519C18.2457 68.0736 16.5594 67.4694 15.3218 66.2105C14.598 65.4767 14.8441 64.4408 14.9237 63.5057C15.0467 61.9878 15.6981 60.7289 16.2409 59.3405C16.8778 57.7076 16.4508 55.0531 14.3375 54.8085C14.171 54.7869 14.1421 54.9956 14.2145 55.0963C15.1987 56.3336 16.0166 56.9666 15.6619 58.7003C15.4521 59.7218 14.8441 60.6929 14.5474 61.7C14.2 62.9086 13.8454 64.7214 14.3013 65.9371C14.7066 67.0305 16.0817 67.6852 16.9429 68.347C17.6956 68.9297 17.7318 69.7569 17.7535 70.5986C17.768 71.0878 17.8693 72.7711 17.2252 72.9869C17.1745 73.0013 17.189 73.0732 17.2469 73.066Z" fill="#0C0A35"/>
<path d="M11.8624 62.2179C13.5921 63.4049 15.9515 56.7507 13.3677 55.2257C13.2664 55.1681 13.1289 55.2904 13.2013 55.3911C14.0625 56.5853 14.1494 57.9161 13.8309 59.3189C13.6066 60.2972 12.9335 61.7144 11.8841 61.9949C11.7828 62.0237 11.7755 62.1604 11.8624 62.2179Z" fill="#0C0A35"/>
<path d="M11.0807 60.6641C11.8985 60.8224 12.5788 59.8368 12.8393 59.1822C13.288 58.0312 13.0637 56.7579 12.2531 55.8228C12.1952 55.758 12.0577 55.8084 12.0722 55.8947C12.1735 56.8011 12.6005 57.578 12.4485 58.5132C12.2965 59.434 11.6597 59.9088 11.0445 60.5274C11.0011 60.5706 11.0155 60.6497 11.0807 60.6641Z" fill="#0C0A35"/>
<path d="M36.0567 61.7935C36.281 60.8655 36.129 59.8584 35.6441 59.0383C35.4921 58.7866 35.2895 58.5348 35.0072 58.4485C34.7612 58.3765 34.4934 58.4341 34.2546 58.5276C33.169 58.9376 32.3801 60.0382 32.3512 61.1964C31.9893 59.7505 30.4477 58.8873 28.9641 58.6355C27.4877 58.3837 25.9533 58.5564 24.4769 58.3046C24.6217 59.1894 25.1789 59.9447 25.7145 60.6569C26.2356 61.3547 26.7856 62.0669 27.5528 62.4841C28.3344 62.9085 29.2608 62.9661 30.151 63.0092C31.7866 63.0956 33.4512 63.1819 35.0507 62.815C35.2388 62.7718 35.427 62.7215 35.579 62.6136C35.8468 62.4337 35.9771 62.11 36.0567 61.7935Z" fill="#D6002B"/>
<path d="M33.2125 63.7071C33.2848 63.2395 33.2559 62.8438 33.2269 62.3691C33.1546 61.1965 33.8421 60.1462 34.6165 59.3477C35.4633 58.4773 35.9843 57.5925 35.912 56.3552C35.9047 56.2185 35.7311 56.1753 35.6587 56.2832C35.1376 57.017 35.0363 57.873 34.4283 58.578C34.0447 59.024 33.6394 59.4125 33.2921 59.8872C32.3946 61.1318 32.6986 62.3978 33.1039 63.7143C33.1256 63.7574 33.2052 63.7646 33.2125 63.7071Z" fill="#0C0A35"/>
<path d="M34.1678 63.6639C34.2329 63.2251 34.2402 62.7934 34.2474 62.3474C34.2619 61.4195 34.9856 60.7433 35.5574 60.0814C36.1508 59.398 36.7733 58.5204 36.5851 57.5781C36.5634 57.463 36.3679 57.427 36.3173 57.5421C35.8251 58.6643 35.181 59.4628 34.4356 60.4339C33.5599 61.5849 33.8204 62.2971 34.0013 63.6351C34.0086 63.7286 34.1533 63.7718 34.1678 63.6639Z" fill="#0C0A35"/>
<path d="M34.7467 63.5056C34.9059 63.11 35.0144 62.7143 35.1302 62.3043C35.3039 61.7288 35.7237 61.3835 36.1869 61.0454C36.6356 60.7217 37.1133 60.3548 37.2508 59.8009C37.2725 59.7074 37.1639 59.6426 37.0915 59.7074C36.5343 60.2469 35.825 60.5706 35.275 61.1101C34.6308 61.7432 34.7611 62.6711 34.6453 63.484C34.6381 63.5416 34.7249 63.5632 34.7467 63.5056Z" fill="#0C0A35"/>
<path d="M32.286 63.707C32.6768 62.3258 31.3958 60.9878 30.6287 59.9663C29.847 58.9304 28.1897 57.4054 26.7639 57.6356C26.6336 57.6572 26.6336 57.8442 26.7277 57.9017C27.9725 58.6715 29.145 59.2038 30.1293 60.3404C30.9905 61.3403 31.8518 62.405 32.1919 63.6998C32.2064 63.7574 32.2715 63.7502 32.286 63.707Z" fill="#0C0A35"/>
<path d="M31.3017 63.8725C31.8301 63.0524 30.274 61.628 29.8688 61.0597C29.4056 60.4123 28.8989 59.7649 28.2331 59.3189C27.6252 58.916 26.9883 58.5635 26.4238 58.1031C25.9823 57.7435 25.6928 57.2327 25.2586 56.8658C25.1572 56.7795 24.9836 56.8586 25.027 56.9953C25.454 58.434 26.7495 59.0671 27.9219 59.8512C28.7832 60.4267 29.3621 61.2971 29.9845 62.0956C30.4115 62.6351 31.0774 63.1459 31.2149 63.8509C31.2221 63.9012 31.28 63.9012 31.3017 63.8725Z" fill="#0C0A35"/>
<path d="M29.7168 63.8221C30.0642 62.5704 28.7976 61.5849 27.9581 60.8511C27.2706 60.2468 26.6337 59.6642 26.0113 58.9808C25.2513 58.1463 24.8533 57.3694 24.3539 56.391C24.3032 56.2903 24.1296 56.3119 24.1006 56.427C23.746 58.0024 24.846 58.7937 25.8231 59.844C26.9955 61.1029 29.1089 62.0596 29.5286 63.8293C29.5503 63.9156 29.6878 63.9084 29.7168 63.8221Z" fill="#0C0A35"/>
<path d="M37.0338 61.8007C36.1653 62.3978 35.2028 62.8222 34.1389 62.8798C33.5454 62.9086 32.923 63.0956 32.5105 63.5416C31.8157 64.2969 32.6045 65.2537 33.4224 65.4048C33.6467 65.4479 33.7408 65.117 33.5164 65.0595C33.0388 64.9444 32.5611 64.7573 32.5466 64.189C32.5322 63.5776 33.321 63.3186 33.7842 63.2107C34.4356 63.0668 35.0363 63.1172 35.6659 62.8366C36.2087 62.592 36.7226 62.3259 37.07 61.8367C37.0845 61.8151 37.0555 61.7864 37.0338 61.8007Z" fill="#0C0A35"/>
<path d="M33.6973 78.8354C33.3934 78.8354 33.3934 79.3101 33.6973 79.3101C34.0085 79.3029 34.0085 78.8354 33.6973 78.8354Z" fill="#0C0A35"/>
<path d="M33.8566 79.6842C33.8421 79.6842 33.8276 79.6842 33.8204 79.6914C33.5309 79.7273 33.5309 80.1014 33.8204 80.1374C33.8349 80.1374 33.8493 80.1374 33.8566 80.1446C34.1533 80.1734 34.1533 79.641 33.8566 79.6842Z" fill="#0C0A35"/>
<path d="M33.9289 80.5402C33.6539 80.5402 33.6539 80.9647 33.9289 80.9647C34.2039 80.9647 34.2039 80.5402 33.9289 80.5402Z" fill="#0C0A35"/>
<path d="M29.7747 78.9289C29.3912 78.9289 29.3912 79.5188 29.7747 79.5188C30.1583 79.5188 30.1583 78.9289 29.7747 78.9289Z" fill="#0C0A35"/>
<path d="M29.7747 79.9863C29.782 79.9791 29.782 79.972 29.7892 79.972C29.8543 79.9648 29.9267 79.9576 29.9918 79.9432C29.9846 79.9432 29.9701 79.9432 29.9629 79.936C29.753 79.9 29.5431 80.0655 29.6083 80.2885C29.6662 80.4899 29.9412 80.5762 30.0932 80.418C30.209 80.2885 30.2234 80.1014 30.0932 79.9863C29.9919 79.9 29.8688 79.9 29.7747 79.9863Z" fill="#0C0A35"/>
<path d="M29.9267 80.8567C29.5648 80.8567 29.5648 81.4178 29.9267 81.4178C30.2958 81.4106 30.2958 80.8567 29.9267 80.8567Z" fill="#0C0A35"/>
<path d="M25.4975 79.3029C25.4903 79.3029 25.483 79.3101 25.4758 79.3101C25.2804 79.382 25.1429 79.569 25.208 79.7849C25.2659 79.9791 25.483 80.1158 25.6857 80.051C25.6929 80.051 25.7002 80.0438 25.7074 80.0438C25.91 79.9791 26.0331 79.7777 25.9752 79.569C25.9173 79.382 25.6929 79.2309 25.4975 79.3029Z" fill="#0C0A35"/>
<path d="M25.4106 80.4683C25.4033 80.4755 25.3961 80.4899 25.3961 80.4971C25.2369 80.792 25.6132 81.0798 25.8593 80.8568C25.8665 80.8496 25.8738 80.8424 25.8883 80.8352C26.2067 80.5402 25.6205 80.0798 25.4106 80.4683Z" fill="#0C0A35"/>
<path d="M25.483 81.461C25.4758 81.4754 25.4758 81.4826 25.4686 81.497C25.3383 81.8711 26.0476 81.8711 25.9173 81.497C25.91 81.4826 25.9101 81.4754 25.9028 81.461C25.8377 81.2524 25.5554 81.2524 25.483 81.461Z" fill="#0C0A35"/>
<path d="M21.0031 79.2094C20.4892 79.2094 20.4892 80.0007 21.0031 80.0007C21.5169 80.0007 21.5169 79.2094 21.0031 79.2094Z" fill="#0C0A35"/>
<path d="M21.0031 80.3604C20.5978 80.3604 20.5978 80.9862 21.0031 80.9862C21.4084 80.9862 21.4084 80.3604 21.0031 80.3604Z" fill="#0C0A35"/>
<path d="M21.0682 81.2164C21.0538 81.2092 21.0465 81.2092 21.032 81.202C20.88 81.1444 20.7208 81.2955 20.7208 81.4394C20.7208 81.5833 20.88 81.7343 21.032 81.6768C21.0465 81.6696 21.0538 81.6696 21.0682 81.6624C21.2853 81.5689 21.2853 81.3099 21.0682 81.2164Z" fill="#0C0A35"/>
<path d="M42.7802 43.9029H42.7874C42.8381 43.9029 42.8815 43.8958 42.9322 43.8958C42.925 43.8958 42.9177 43.8958 42.9105 43.8958C42.9539 43.9173 42.9973 43.9389 43.0408 43.9605C42.9611 43.8958 42.8888 43.867 42.7874 43.8742C42.8381 43.8814 42.8815 43.8958 42.9322 43.9029C42.925 43.8958 42.9105 43.8886 42.9032 43.8886C42.6934 43.7663 42.4835 43.9965 42.5414 44.2051C42.5414 44.1979 42.5414 44.1979 42.5414 44.1907C42.5631 44.349 42.6861 44.4784 42.8526 44.4641C43.019 44.4497 43.1421 44.3346 43.1638 44.1619C43.1783 43.9749 42.9684 43.7447 42.7802 43.9029Z" fill="#0C0A35"/>
<path d="M42.9467 42.6368C42.9322 42.6368 42.925 42.6368 42.9105 42.644C42.4256 42.7088 42.4763 43.3922 42.9612 43.3994C42.9756 43.3994 42.9829 43.3994 42.9973 43.3994C43.4967 43.3994 43.4388 42.5721 42.9467 42.6368Z" fill="#0C0A35"/>
<path d="M43.1782 41.2773C43.0842 41.2485 42.9973 41.2701 42.9105 41.3276C42.7512 41.4355 42.7223 41.752 42.9394 41.824C42.9467 41.824 42.9539 41.8312 42.9611 41.8312C43.0914 41.8743 43.2217 41.8743 43.323 41.7664C43.4388 41.6369 43.4098 41.4643 43.3013 41.342C43.2651 41.306 43.2289 41.2916 43.1782 41.2773Z" fill="#0C0A35"/>
<path d="M43.3375 40.1047C43.323 40.1047 43.3085 40.0975 43.3013 40.0975C42.9684 40.0327 42.867 40.5363 43.2 40.6082C43.2144 40.6082 43.2217 40.6154 43.2361 40.6154C43.5618 40.6873 43.6704 40.1694 43.3375 40.1047Z" fill="#0C0A35"/>
<path d="M43.4677 39.1119C43.2217 39.0615 43.1493 39.4356 43.3881 39.486C43.6342 39.5363 43.7066 39.1551 43.4677 39.1119Z" fill="#0C0A35"/>
<path d="M40.6886 38.3207C40.6741 38.3351 40.6596 38.3423 40.6451 38.3566C40.5004 38.4789 40.6379 38.6804 40.8044 38.594C40.8188 38.5868 40.8406 38.5797 40.855 38.5725C41.0287 38.4861 40.8405 38.1984 40.6886 38.3207Z" fill="#0C0A35"/>
<path d="M40.363 39.1048C40.3051 39.0472 40.24 39.0184 40.1604 38.9969C39.8347 38.9105 39.7189 39.4644 40.0591 39.5076C40.1387 39.522 40.2038 39.522 40.2834 39.486C40.4499 39.4213 40.4933 39.2271 40.363 39.1048Z" fill="#0C0A35"/>
<path d="M39.6103 39.9176C39.2051 39.8385 39.0748 40.4644 39.4801 40.5435C39.8926 40.6298 40.0156 39.9968 39.6103 39.9176Z" fill="#0C0A35"/>
<path d="M39.2701 41.1909C38.8793 41.1118 38.7562 41.716 39.1471 41.7952C39.5379 41.8671 39.6609 41.27 39.2701 41.1909Z" fill="#0C0A35"/>
<path d="M39.053 42.2556C38.6839 42.1836 38.5681 42.7519 38.9372 42.8239C39.3063 42.8958 39.4221 42.3275 39.053 42.2556Z" fill="#0C0A35"/>
<path d="M40.8768 36.1554C41.3545 36.2201 41.4992 36.7668 40.8913 38.4645C40.2834 40.1622 40.211 41.601 40.4571 42.6153C40.6959 43.6296 41.0071 45.2697 40.1821 45.2338C39.357 45.205 38.7491 43.795 38.6333 42.3923C38.5102 40.9248 38.8359 39.7594 39.1326 38.666C39.4294 37.5725 40.363 36.0834 40.8768 36.1554Z" fill="#990028"/>
<path d="M44.2929 36.6157C44.8863 36.5941 45.364 36.8675 45.1034 39.0472C44.8429 41.2268 44.0034 45.5143 43.1349 45.7516C42.2664 45.9818 42.0637 45.4999 42.071 44.723C42.0927 43.9388 43.2 36.6589 44.2929 36.6157Z" fill="#990028"/>
<path d="M40.0373 38.4357C40.1169 38.4789 40.1893 38.4861 40.2834 38.4861C40.5584 38.4861 40.638 38.0688 40.3919 37.9609C40.3051 37.925 40.2399 37.9106 40.1459 37.9178C39.8708 37.9322 39.7912 38.3134 40.0373 38.4357Z" fill="#0C0A35"/>
<path d="M39.9504 39.2054C39.726 39.1623 39.5089 39.3061 39.4583 39.5291C39.4148 39.7522 39.5596 39.968 39.7839 40.0183C40.0083 40.0615 40.2326 39.9176 40.2761 39.6946C40.3195 39.4716 40.1747 39.2558 39.9504 39.2054Z" fill="#0C0A35"/>
<path d="M39.3714 41.529C39.3859 41.5362 39.4004 41.5434 39.4149 41.5506C39.6465 41.6801 39.9432 41.5218 39.9939 41.27C40.0445 41.0254 39.8346 40.7593 39.5669 40.788C39.5524 40.788 39.5379 40.7952 39.5162 40.7952C39.1326 40.8456 39.0313 41.3419 39.3714 41.529Z" fill="#0C0A35"/>
<path d="M39.3135 42.9965C39.4727 43.162 39.7043 43.1835 39.8997 43.0612C40.0517 42.9605 40.0951 42.7447 39.9938 42.5937C39.8635 42.4066 39.6464 42.3347 39.4293 42.4282C39.1904 42.5289 39.1325 42.8167 39.3135 42.9965Z" fill="#0C0A35"/>
<path d="M39.7478 44.4496C39.7985 44.4784 39.8491 44.5 39.9143 44.5072C40.2689 44.5503 40.363 44.0683 40.0228 43.9676C39.9649 43.9532 39.9143 43.946 39.8491 43.9532C39.5886 43.9892 39.5235 44.3201 39.7478 44.4496Z" fill="#0C0A35"/>
<path d="M43.1638 45.1187C43.171 45.1115 43.1783 45.1115 43.1783 45.1043C43.352 44.9676 43.3737 44.6798 43.1493 44.5719C43.1421 44.5719 43.1348 44.5647 43.1276 44.5647C42.9105 44.464 42.6427 44.6223 42.6572 44.8741C42.6717 45.0971 42.9684 45.2769 43.1638 45.1187Z" fill="#0C0A35"/>
<path d="M43.3302 43.9245C43.3375 43.9173 43.3447 43.9102 43.3519 43.9102C43.5039 43.7879 43.5329 43.6296 43.446 43.457C43.4388 43.4498 43.4388 43.4426 43.4316 43.4354C43.2868 43.1476 42.8381 43.2843 42.7802 43.5577C42.7223 43.8382 43.0769 44.1332 43.3302 43.9245Z" fill="#0C0A35"/>
<path d="M43.5619 42.6153C43.6198 42.5937 43.6777 42.5649 43.7356 42.5361C43.902 42.4426 43.96 42.2124 43.9021 42.047C43.8369 41.8599 43.6632 41.7592 43.4678 41.7592C43.4389 41.7592 43.4099 41.7592 43.381 41.7664C43.1421 41.8096 42.954 41.975 42.9684 42.234C43.0046 42.5145 43.2941 42.716 43.5619 42.6153Z" fill="#0C0A35"/>
<path d="M43.721 40.3421C43.171 40.2342 42.9973 41.083 43.5474 41.1909C44.1046 41.2988 44.2783 40.45 43.721 40.3421Z" fill="#0C0A35"/>
<path d="M43.9961 39.0184C43.5763 38.9321 43.446 39.5795 43.8658 39.6658C44.2856 39.7521 44.4158 39.0975 43.9961 39.0184Z" fill="#0C0A35"/>
<path d="M44.1988 38.0257C43.8514 37.9537 43.7428 38.4933 44.0902 38.558C44.4376 38.6299 44.5462 38.0904 44.1988 38.0257Z" fill="#0C0A35"/>
<path d="M44.4086 37.6156C44.4159 37.6084 44.4231 37.6084 44.4304 37.6012C44.5027 37.5581 44.5172 37.4574 44.4738 37.3854C44.4665 37.3782 44.4665 37.371 44.4593 37.3639C44.3724 37.2344 44.1626 37.2703 44.1264 37.4286C44.0974 37.5869 44.2784 37.702 44.4086 37.6156Z" fill="#0C0A35"/>
<path d="M40.6162 37.1121C40.3267 37.0545 40.2327 37.5005 40.5221 37.5581C40.8116 37.6156 40.9057 37.1696 40.6162 37.1121Z" fill="#0C0A35"/>
<path d="M48.7799 37.6588C48.3022 37.6157 47.9693 37.9754 47.8608 39.781C47.7522 41.5794 47.2528 42.9318 46.6376 43.7735C46.0152 44.6151 45.0888 46.0035 45.8632 46.2912C46.6304 46.579 47.7522 45.5215 48.4036 44.277C49.0911 42.9678 49.2286 41.7664 49.4023 40.6514C49.5905 39.4501 49.3227 37.702 48.7799 37.6588Z" fill="#990028"/>
<path d="M48.6569 40.0831C48.5629 40.0903 48.4977 40.0687 48.4109 40.0399C48.1576 39.9392 48.2444 39.5148 48.5194 39.5148C48.6135 39.5148 48.6787 39.5292 48.7655 39.5652C49.0043 39.6874 48.932 40.0687 48.6569 40.0831Z" fill="#0C0A35"/>
<path d="M48.4326 40.8312C48.6569 40.8744 48.8017 41.0974 48.7583 41.3204C48.7148 41.5434 48.4905 41.6873 48.2661 41.6441C48.0418 41.6009 47.897 41.3779 47.9404 41.1549C47.9839 40.9319 48.2082 40.788 48.4326 40.8312Z" fill="#0C0A35"/>
<path d="M48.0563 43.1979C48.0418 43.1979 48.0201 43.2051 48.0056 43.2051C47.7451 43.2339 47.5279 42.9749 47.5858 42.7232C47.6365 42.4786 47.9333 42.3131 48.1648 42.4426C48.1793 42.4498 48.1938 42.457 48.2083 42.4642C48.5412 42.6584 48.4398 43.1548 48.0563 43.1979Z" fill="#0C0A35"/>
<path d="M47.5279 44.5719C47.3181 44.6583 47.0937 44.5935 46.9634 44.4065C46.8621 44.2554 46.9055 44.0396 47.0575 43.9389C47.2457 43.8166 47.4773 43.8382 47.6437 44.0036C47.8319 44.1835 47.774 44.4712 47.5279 44.5719Z" fill="#0C0A35"/>
<path d="M46.5581 45.7373C46.4929 45.7445 46.4422 45.7445 46.3843 45.7229C46.0442 45.6222 46.1383 45.1474 46.4929 45.1834C46.558 45.1906 46.6015 45.205 46.6594 45.241C46.891 45.3776 46.8186 45.7085 46.5581 45.7373Z" fill="#0C0A35"/>
<path d="M48.6425 38.6443C48.932 38.7019 48.8451 39.1551 48.5484 39.0903C48.2589 39.0328 48.353 38.5868 48.6425 38.6443Z" fill="#0C0A35"/>
<path d="M40.088 70.7497C40.182 70.7209 40.2616 70.6634 40.3268 70.5986C40.5222 70.4044 40.6308 70.1166 40.6018 69.8361C40.5801 69.5555 40.4209 69.2966 40.1965 69.1383C40.0735 69.052 39.9215 68.9944 39.7695 69.016C39.4294 69.0592 39.2484 69.426 39.1688 69.757C39.1181 69.9728 39.0675 70.2893 39.4294 70.5626C39.6248 70.6993 39.8636 70.8144 40.088 70.7497Z" fill="#990028"/>
<path d="M39.4148 70.1885C38.9806 70.1238 38.5536 70.0303 38.1266 69.9008C38.597 69.6131 39.1543 69.4908 39.6971 69.5411C39.6247 69.7425 39.8346 70.0087 39.6754 70.1454C39.6103 70.2101 39.5089 70.2029 39.4148 70.1885Z" fill="#990028"/>
<path d="M43.75 63.5992C42.8381 63.3833 41.8249 63.4193 41.0071 63.8797C40.1893 64.3401 39.6247 65.2897 39.7767 66.2105C39.8346 66.5629 39.9939 66.901 40.2254 67.1816C40.4498 67.455 40.7031 67.7427 41.036 67.8578C42.5921 68.4117 44.7271 67.4478 45.4001 66.5845C45.5449 66.4047 45.6679 66.2033 45.733 65.9874C45.9067 65.4335 45.6824 64.8077 45.2771 64.3833C44.8863 63.9732 44.3218 63.7358 43.75 63.5992Z" fill="#990028"/>
<path d="M48.0997 67.3614C49.5399 67.1888 50.6545 65.8867 50.944 64.4767C51.2335 63.0668 50.8209 61.5993 50.1696 60.3116C50.1334 60.2397 50.0972 60.1677 50.0321 60.1246C49.2721 61.0022 45.1034 64.5487 44.3146 65.9227C44.5896 66.2824 44.9442 66.5054 45.3423 66.7212C46.2686 67.2103 47.0575 67.4837 48.0997 67.3614Z" fill="#990028"/>
<path d="M40.5295 65.3112C40.6453 65.3328 40.7466 65.4048 40.8334 65.4767C41.6368 66.1169 42.8744 66.7859 43.0553 67.7931C42.2158 68.2822 40.7683 69.9296 40.1314 70.6633C39.8057 69.4476 39.6682 67.0233 39.7696 65.7716C39.784 65.5774 39.9432 65.7644 40.0373 65.5918C40.1387 65.4192 40.3341 65.2825 40.5295 65.3112Z" fill="#990028"/>
<path d="M40.6162 71.1453C40.6959 71.3539 40.9492 71.433 41.1735 71.4402C41.3762 71.4474 41.5933 71.4043 41.7091 71.2388C41.7959 71.1093 41.7887 70.9367 41.7236 70.8C41.6584 70.6633 41.5354 70.5554 41.4051 70.4835C41.6367 70.577 41.9624 70.4691 42.0131 70.2245C42.0637 70.0159 41.9045 69.8073 41.7091 69.6994C41.5209 69.5915 41.3038 69.5627 41.1012 69.4835C40.8768 69.3972 40.6814 69.2677 40.486 69.1311C40.305 69.4835 40.1169 69.836 39.9359 70.1885C39.8563 70.3468 39.7695 70.505 39.6971 70.6705C39.6247 70.8431 39.5596 71.0158 39.5524 71.2028C39.5451 71.3899 39.603 71.5841 39.7405 71.7064C39.7912 71.7495 39.8491 71.7855 39.907 71.8071C40.1169 71.8934 40.3702 71.8862 40.5439 71.7352C40.7031 71.5985 40.7538 71.3179 40.6162 71.1453Z" fill="#990028"/>
<path d="M44.4304 65.6278C43.7573 64.9732 42.8671 64.4192 41.9263 64.9012C41.2894 65.2249 40.3703 66.0162 40.7249 66.8219C40.7611 66.9011 40.8986 66.9011 40.9348 66.8219C41.217 66.2177 41.3762 65.7429 41.9842 65.3616C42.7586 64.8724 43.656 65.2393 44.3074 65.7501C44.387 65.8148 44.51 65.7069 44.4304 65.6278Z" fill="#0C0A35"/>
<path d="M46.797 66.4334C48.1793 67.4477 49.3952 65.7788 49.8439 64.5847C50.4446 62.9949 49.8439 60.8799 48.4978 59.8512C48.4109 59.7865 48.2879 59.8944 48.3241 59.9879C48.6932 61.0813 49.3663 61.8798 49.4314 63.0884C49.511 64.5703 48.5267 66.4694 46.826 66.3183C46.7608 66.3183 46.7608 66.3975 46.797 66.4334Z" fill="#0C0A35"/>
<path d="M46.826 65.714C48.932 65.5414 48.8669 61.9446 47.3543 61.0669C47.2602 61.0094 47.1372 61.1029 47.1661 61.2108C47.3543 61.8726 47.6945 62.4625 47.8247 63.1459C48.0201 64.1746 47.6004 64.9443 46.7753 65.5342C46.7029 65.5846 46.7174 65.7212 46.826 65.714Z" fill="#0C0A35"/>
<path d="M46.5075 65.0378C47.5786 64.3041 47.3325 62.5704 46.0877 62.1316C45.9719 62.0884 45.9068 62.2251 45.9502 62.3114C46.341 63.1819 47.1733 63.9012 46.3482 64.8364C46.2614 64.9371 46.3844 65.1241 46.5075 65.0378Z" fill="#0C0A35"/>
<path d="M39.8274 47.0393C39.6465 47.0249 39.4656 47.0105 39.2846 47.0537C38.9083 47.1472 38.6405 47.4997 38.5247 47.8738C38.4089 48.2407 38.4089 48.6363 38.3727 49.0248C38.3221 49.5643 38.1846 50.0966 37.9819 50.6002C37.7937 51.0606 37.5477 51.4994 37.4825 51.9886C37.3523 53.0101 38.0471 53.9452 38.7346 54.7221C39.4294 55.5206 40.1893 55.6717 40.8986 57.4342C41.2604 58.3262 41.3834 58.7866 41.5644 58.8873C41.8466 59.0383 42.1072 58.693 42.2302 58.5276C42.3533 57.8945 42.4184 57.8586 42.2013 56.8443C42.071 56.2256 42.1723 55.981 41.5933 54.5063C41.3979 54.01 41.4631 54.2977 41.188 53.8373C41.6368 53.3697 42.1144 53.7366 42.7224 53.492C43.3231 53.2546 43.5112 52.5065 43.5619 51.8663C43.6126 51.1685 43.5981 50.4707 43.5185 49.7801C43.4244 48.9744 43.1928 48.1112 42.5414 47.622C42.0203 47.2335 41.3256 47.1616 40.6742 47.1041C40.3992 47.0825 40.1169 47.0609 39.8274 47.0393Z" fill="#FCC07E"/>
<path d="M41.7091 52.4993C41.3761 52.1037 40.7465 51.6649 40.8623 51.075C40.9636 50.5283 41.738 50.8664 42.0347 50.9167C42.1144 50.9311 42.1722 50.8592 42.1361 50.7872C41.9117 50.3196 40.9346 50.4203 40.6596 50.7944C40.4425 51.0966 40.5366 51.4778 40.6886 51.7871C40.8768 52.1828 41.2748 52.3986 41.6439 52.5856C41.7018 52.6144 41.7525 52.5425 41.7091 52.4993Z" fill="#0C0A35"/>
<path d="M41.9045 50.6002C41.7308 50.406 41.4775 50.334 41.2966 50.1542C41.0867 49.9528 40.9347 49.5355 41.1446 49.291C41.4341 48.9601 41.9697 49.1615 42.3243 49.219C42.3894 49.2334 42.4401 49.1687 42.4111 49.1111C42.1723 48.6291 41.2821 48.7946 40.9637 49.1111C40.7538 49.3197 40.761 49.6866 40.8768 49.9384C40.9564 50.111 41.065 50.2549 41.2025 50.3772C41.3762 50.5355 41.6223 50.5642 41.8032 50.7081C41.8756 50.7585 41.9696 50.6721 41.9045 50.6002Z" fill="#0C0A35"/>
<path d="M41.9117 47.7299C41.4992 47.6076 41.007 47.6868 40.8912 48.1615C40.7754 48.6291 41.1228 48.9169 41.5281 49.0535C41.6294 49.0895 42.0854 49.1902 42.0275 48.9385C41.9696 48.7011 41.615 48.6507 41.4196 48.5788C41.1952 48.4924 41.0649 48.2838 41.2459 48.0608C41.3761 47.8954 41.7235 47.8666 41.9117 47.809C41.9479 47.7947 41.9479 47.7443 41.9117 47.7299Z" fill="#0C0A35"/>
<path d="M41.6657 53.4489C42.0131 53.4345 42.3894 53.9524 42.4328 54.269C42.498 54.7653 42.3894 54.4632 42.4545 54.9595C42.6355 56.3407 42.8888 58.5132 42.9177 59.9088C42.9394 61.1029 43.1131 62.2971 43.0118 63.484C42.9973 63.6711 42.8164 63.8797 42.7151 64.0451C42.621 64.2106 42.4184 64.3401 42.2157 64.3185C42.4763 61.6568 42.2302 59.6067 42.0854 56.2328C42.0492 55.2976 41.6295 54.3769 41.6657 53.4489Z" fill="#990028"/>
<path d="M40.6742 53.1108C40.7755 52.7871 41.1085 52.5425 41.4486 52.5353C41.7526 52.5281 42.0348 52.6864 42.2954 52.8446C42.5053 52.9669 42.7151 53.0892 42.9178 53.2115C43.2941 53.4345 43.6705 53.6575 43.9382 53.9956C44.206 54.3337 44.3363 54.8157 44.1481 55.2041C44.0251 55.4631 43.6487 56.3479 42.65 55.8516C42.1144 55.5854 41.3617 54.6215 40.7972 53.9093C40.6525 53.7079 40.5946 53.3482 40.6742 53.1108Z" fill="#FFD6A1"/>
<path d="M42.0638 52.6792C41.8394 52.3555 41.1591 52.1829 40.7972 52.3699C40.3847 52.5857 40.2689 53.1396 40.5874 53.4849C40.6091 53.5137 40.667 53.4921 40.667 53.4561C40.638 53.1972 40.6742 52.7368 40.9637 52.6361C41.2532 52.5353 41.7092 52.6432 41.9769 52.7799C42.0276 52.8015 42.1072 52.744 42.0638 52.6792Z" fill="#0C0A35"/>
<path d="M40.059 69.8576C39.8057 69.8576 39.8057 70.2461 40.059 70.2461C40.3123 70.2461 40.3123 69.8576 40.059 69.8576Z" fill="#0C0A35"/>
<path d="M39.5016 34.4288C39.4872 34.4216 39.4727 34.4144 39.4582 34.4073C39.2266 34.2778 38.9299 34.4432 38.8792 34.6878C38.8286 34.9324 39.0457 35.1986 39.3062 35.1626C39.3207 35.1626 39.3424 35.1554 39.3569 35.1554C39.7405 35.1122 39.8418 34.6159 39.5016 34.4288Z" fill="#0C0A35"/>
<path d="M15.7271 54.0964C15.7126 54.0892 15.6982 54.082 15.6837 54.0748C15.4521 53.9453 15.1553 54.1107 15.1047 54.3553C15.054 54.5999 15.2711 54.8661 15.5317 54.8301C15.5462 54.8301 15.5606 54.8301 15.5823 54.8229C15.9659 54.7798 16.0673 54.2906 15.7271 54.0964Z" fill="#0C0A35"/>
<path d="M12.0794 55.7005C12.0649 55.6933 12.0504 55.6861 12.036 55.6789C11.8044 55.5495 11.5076 55.7149 11.457 55.9595C11.4063 56.2041 11.6234 56.4702 11.884 56.4343C11.8985 56.4343 11.9129 56.4271 11.9346 56.4271C12.3182 56.3839 12.4195 55.8876 12.0794 55.7005Z" fill="#0C0A35"/>
<path d="M17.4062 53.2331C17.3917 53.2259 17.3772 53.2187 17.3627 53.2115C17.1311 53.082 16.8344 53.2474 16.7838 53.492C16.7331 53.7366 16.9502 54.0028 17.2108 53.9668C17.2252 53.9668 17.2397 53.9668 17.2614 53.9596C17.645 53.9165 17.7463 53.4201 17.4062 53.2331Z" fill="#0C0A35"/>
<path d="M14.0118 54.9524C13.9973 54.9452 13.9828 54.938 13.9683 54.9308C13.7368 54.8013 13.44 54.9667 13.3893 55.2113C13.3387 55.4559 13.5558 55.7221 13.8163 55.6861C13.8308 55.6861 13.8525 55.6789 13.867 55.6789C14.2506 55.6358 14.3447 55.1394 14.0118 54.9524Z" fill="#0C0A35"/>
<path d="M41.3255 33.2923C41.311 33.2851 41.2965 33.2779 41.2821 33.2707C41.0505 33.1412 40.7537 33.3067 40.7031 33.5512C40.6524 33.7958 40.8695 34.062 41.1301 34.026C41.1446 34.026 41.159 34.0188 41.1807 34.0188C41.5643 33.9757 41.6656 33.4865 41.3255 33.2923Z" fill="#0C0A35"/>
<path d="M43.142 32.2276C43.1275 32.2204 43.1131 32.2132 43.0986 32.206C42.867 32.0766 42.5703 32.242 42.5196 32.4866C42.4689 32.7312 42.6861 32.9973 42.9466 32.9614C42.9611 32.9614 42.9828 32.9542 42.9973 32.9542C43.3881 32.911 43.4822 32.4147 43.142 32.2276Z" fill="#0C0A35"/>
<path d="M44.8645 31.3787C44.8501 31.3715 44.8356 31.3643 44.8211 31.3571C44.5895 31.2277 44.2928 31.3931 44.2421 31.6377C44.1915 31.8823 44.4086 32.1485 44.6691 32.1125C44.6836 32.1125 44.6981 32.1053 44.7198 32.1053C45.1034 32.0621 45.2047 31.5658 44.8645 31.3787Z" fill="#0C0A35"/>
<path d="M7.82349 17.4014C8.06232 17.1856 8.33012 17.0202 8.58342 16.8331C8.86568 16.6245 9.16964 16.4375 9.394 16.1713C9.58217 15.9483 9.66901 15.7325 9.76309 15.4591C9.85718 15.1858 9.86443 14.6031 9.71245 14.3585C9.27097 13.6535 8.04062 13.0421 7.2228 14.5887C7.20833 14.6103 7.1866 14.6247 7.16489 14.6247C7.14318 14.6247 7.12148 14.6103 7.107 14.5887C6.29642 13.0421 5.05884 13.6535 4.61736 14.3585C4.46537 14.6031 4.47261 15.1858 4.56669 15.4591C4.66078 15.7325 4.74763 15.9483 4.9358 16.1713C5.16016 16.4375 5.46412 16.6245 5.74638 16.8331C6.00692 17.0273 6.26746 17.1928 6.50629 17.4014C6.62933 17.5093 7.15767 18.0776 7.15767 18.0776C7.15767 18.0776 7.70046 17.5093 7.82349 17.4014Z" fill="#D6002B"/>
<path d="M49.9665 69.9079C49.7277 70.1238 49.4599 70.2892 49.2066 70.4762C48.9243 70.6849 48.6204 70.8719 48.396 71.1381C48.2078 71.3611 48.121 71.5769 48.0269 71.8502C47.9328 72.1236 47.9256 72.7063 48.0776 72.9509C48.519 73.6558 49.7494 74.2745 50.5672 72.7207C50.5817 72.6991 50.6034 72.6847 50.6251 72.6847C50.6468 72.6847 50.6685 72.6991 50.683 72.7207C51.4936 74.2673 52.7312 73.6558 53.1726 72.9509C53.3246 72.7063 53.3174 72.1236 53.2233 71.8502C53.1292 71.5769 53.0424 71.3611 52.8542 71.1381C52.6298 70.8719 52.3259 70.6849 52.0436 70.4762C51.7831 70.282 51.5225 70.1166 51.2837 69.9079C51.1679 69.8 50.6323 69.2317 50.6323 69.2317C50.6323 69.2317 50.0823 69.8 49.9665 69.9079Z" fill="#D6002B"/>
<path d="M10.8487 11.7616H9.7197L7.25901 7.2512L5.3773 9.58914V11.7688H4.34961V3.58963H5.3773V8.33025L9.0973 3.58963H10.2119L7.98274 6.44551L10.8487 11.7616Z" fill="#D6002B"/>
<path d="M46.8834 75.4399H48.0124L50.4731 79.9503L52.3548 77.6124V75.4327H53.3826V83.6047H52.3548V78.864L48.6349 83.6047H47.5203L49.7494 80.7488L46.8834 75.4399Z" fill="#D6002B"/>
<path d="M18.5855 83.3529H8.45323C6.08662 83.3529 4.1615 81.3171 4.1615 78.8209V21.5881H4.42928V78.8209C4.42928 81.1732 6.23861 83.0867 8.45323 83.0867H18.5783V83.3529H18.5855Z" fill="#D6002B"/>
<path d="M46.4782 83.0867H36.3531V83.3529H46.4782V83.0867Z" fill="#D6002B"/>
<path d="M53.5708 65.8867H53.303V8.38059C53.303 6.02826 51.4937 4.11475 49.279 4.11475H39.0382V3.84139H49.279C51.6456 3.84139 53.5708 5.87719 53.5708 8.37339V65.8867Z" fill="#D6002B"/>
<path d="M20.8724 3.84139H11.681V4.10755H20.8724V3.84139Z" fill="#D6002B"/>
</svg>
