<svg width="59" height="89" viewBox="0 0 59 89" fill="none" xmlns="http://www.w3.org/2000/svg">
<path d="M4.98829 0.189941C2.33943 0.189941 0.189941 2.32646 0.189941 4.95934V83.4205C0.189941 86.0534 2.33943 88.1899 4.98829 88.1899H53.3916C56.0405 88.1899 58.1899 86.0534 58.1899 83.4205V4.95934C58.1899 2.32646 56.0405 0.189941 53.3916 0.189941H4.98829Z" fill="white"/>
<path d="M45.872 56.171C45.7779 54.2935 45.6838 52.4159 45.5969 50.5456C45.5752 50.1643 45.5608 49.7758 45.7272 49.4233C45.9805 48.891 46.5885 48.5385 47.0951 48.1429C48.3688 47.1358 49.0419 45.7042 49.0998 44.2799C49.1577 42.8555 48.6294 41.4312 47.7681 40.1795C47.5293 39.8342 47.2688 39.5033 47.1457 39.122C46.8635 38.2732 47.3194 37.3884 47.3484 36.5035C47.4135 34.7123 45.7489 33.1945 44.0264 32.0507C41.8987 30.6407 39.4814 29.4825 36.8253 28.8711C35.3923 28.5402 33.9086 28.3747 32.425 28.2164C29.5373 27.9071 26.6279 27.6266 23.7257 27.7848C20.8235 27.9431 17.8924 28.5689 15.5403 29.9357C13.0434 31.3889 9.13525 31.9715 7.94833 36.5971C6.55876 41.9851 10.1412 53.9697 10.6551 54.574C21.4894 67.278 35.5732 56.1494 36.8325 56.0775C38.6563 55.9768 40.5453 55.7034 42.2678 56.1782C42.8395 56.3365 43.3823 56.5738 43.9758 56.6674C44.5692 56.7753 45.4956 56.5523 45.872 56.171Z" fill="#0C0A35"/>
<path d="M11.7553 32.4967C11.8494 34.3742 11.9362 36.2518 12.0303 38.1221C12.052 38.5034 12.0665 38.8919 11.8928 39.2443C11.6395 39.7767 11.0315 40.1292 10.5249 40.5248C9.25116 41.5319 8.57809 42.9635 8.52019 44.3878C8.46229 45.8121 8.99062 47.2365 9.85186 48.4882C10.0907 48.8335 10.3512 49.1644 10.4743 49.5457C10.7565 50.3945 10.3006 51.2793 10.2716 52.157C10.2065 53.9482 11.8711 55.466 13.5936 56.6098C15.7213 58.0198 18.1386 59.178 20.7947 59.7894C22.2277 60.1203 23.7114 60.2858 25.195 60.444C28.0827 60.7534 30.9921 61.0339 33.8943 60.8757C36.7965 60.7174 39.7276 60.0916 42.0797 58.7248C44.5766 57.2716 48.4847 56.689 49.6717 52.0634C51.0612 46.6754 50.6704 38.6473 50.6487 37.856C50.6342 37.3236 49.5414 29.6048 38.1715 28.5258C27.5833 27.5259 14.0061 32.0435 13.6515 31.9859C13.0508 31.8924 12.1244 32.1154 11.7553 32.4967Z" fill="#0C0A35"/>
<path d="M28.4373 1.10352C28.5748 1.0028 28.7774 1.02439 28.9222 1.1179C29.0669 1.20423 29.1682 1.3481 29.2623 1.49197C29.6604 2.13221 29.9209 2.85877 30.015 3.60691C29.19 3.9522 28.2563 4.04572 27.3806 3.87307C27.5977 3.01703 27.8945 2.17537 28.2563 1.36968C28.2998 1.26897 28.3504 1.16826 28.4373 1.10352Z" fill="#222272"/>
<path d="M10.0255 53.1424C10.7927 56.2213 11.9869 57.5953 14.9831 58.6744C15.1785 58.7463 15.3812 58.811 15.5911 58.7895C15.9023 58.7679 16.1628 58.5593 16.4089 58.365C26.8958 50.0564 38.9604 44.8841 48.89 35.8489C49.0203 35.7266 49.8164 34.8418 49.8381 34.6619C49.8526 34.4893 49.7513 34.331 49.6572 34.1943C48.8177 32.9858 47.9637 31.7629 46.8563 30.7917C45.7418 29.8206 44.6345 29.4609 43.1581 29.4969C40.6829 29.5472 37.4189 32.7268 34.6035 34.6619C27.7643 39.3666 22.6909 41.8268 16.0542 46.812C14.0857 48.2867 12.2329 49.9053 10.5032 51.6534C10.2861 51.8764 10.0545 52.1137 9.98936 52.4159C9.91698 52.6605 9.96764 52.9051 10.0255 53.1424Z" fill="#222272"/>
<path d="M31.5203 24.5117C33.6047 21.7781 34.1113 18.1525 33.9448 14.7283C33.9159 14.0737 33.8507 13.3903 33.4816 12.8508C33.0691 12.2393 32.3454 11.9228 31.6434 11.6926C27.9234 10.4768 23.6823 10.9085 20.2952 12.8579C20.0057 13.0234 19.6873 13.2536 19.6583 13.5845C19.6366 13.8866 19.861 14.1456 20.0853 14.3614C20.686 14.9441 21.3302 15.4764 22.0105 15.9584C19.8755 18.282 17.726 20.8861 17.3713 24.0153C18.6668 23.634 19.8972 23.0442 21.0045 22.2673C20.6788 23.4686 20.4834 24.7059 20.4183 25.9504C20.3893 26.5547 20.3893 27.1949 20.7077 27.7129C21.2505 28.6264 22.4809 28.8063 23.5375 28.8998C24.5073 28.9789 25.5061 29.0581 26.4252 28.7559C27.2286 28.4898 27.9017 27.9502 28.553 27.4107C29.6169 26.5259 30.6808 25.6123 31.5203 24.5117Z" fill="#FFD6A1"/>
<path d="M18.1892 38.6832C18.9129 38.9422 19.6294 39.2659 20.2228 39.7694C21.265 40.6542 21.8368 41.9995 22.3723 43.2943C22.7414 44.1863 23.1105 45.0999 23.154 46.0711C23.2119 47.6465 22.3651 49.1284 21.2288 50.1499C20.0926 51.1642 18.703 51.79 17.3279 52.3871C16.0107 52.9554 14.6646 53.5237 13.2533 53.7107C11.842 53.8978 10.3222 53.6604 9.17867 52.7612C8.10755 51.9195 7.47066 50.5815 7.15946 49.2075C6.55152 46.5459 7.09432 43.5965 8.66482 41.424C10.2426 39.2515 12.8335 37.9279 15.4173 38.0717C16.3581 38.1221 17.2845 38.3595 18.1892 38.6832Z" fill="#B70027"/>
<path d="M29.7617 17.9727C29.588 18.1309 29.1682 18.4475 28.9728 18.5626C28.3504 18.9222 27.5905 18.9294 26.874 18.8647C26.2443 18.8071 25.5061 18.3539 25.0212 17.9511C24.4567 17.4763 24.0659 17.0663 23.8922 16.6634C25.5496 15.3973 28.1767 14.8003 30.0801 15.6563C30.3769 15.793 30.869 16.0664 31.1078 16.2102C30.7822 16.9943 30.3841 17.39 29.7617 17.9727Z" fill="white"/>
<path d="M39.4379 49.9845C38.7142 49.7255 37.9977 49.4018 37.4043 48.8982C36.3621 48.0134 35.7903 46.6682 35.2548 45.3733C34.8857 44.4813 34.5166 43.5677 34.4731 42.5966C34.4152 41.0212 35.262 39.5321 36.3983 38.5178C37.5345 37.5035 38.9241 36.8776 40.2992 36.2805C41.6164 35.7122 42.9625 35.1439 44.3738 34.9569C45.7851 34.7699 47.3049 35.0073 48.4484 35.9065C49.5196 36.7481 50.1564 38.0862 50.4676 39.4601C51.0756 42.1218 50.5328 45.0712 48.9623 47.2437C47.3845 49.4162 44.7936 50.7398 42.2098 50.5959C41.269 50.5456 40.3354 50.3082 39.4379 49.9845Z" fill="#B70027"/>
<path d="M37.4405 40.6543C36.2681 42.0858 36.1161 44.1288 36.8833 45.7977C37.607 47.3803 39.315 49.3946 41.2691 49.1356C41.5586 49.0996 41.7829 48.7543 41.5296 48.5169C40.4875 47.5386 39.2354 47.0638 38.3959 45.8193C37.3899 44.3158 37.5419 42.6109 37.9544 40.9636C38.0268 40.6758 37.6504 40.4025 37.4405 40.6543Z" fill="#222272"/>
<path d="M40.7987 41.3304C39.3874 43.2368 41.0231 48.6752 43.3824 49.2219C43.7371 49.301 44.0555 48.9989 43.9687 48.6392C43.6574 47.4019 42.5139 46.3732 42.0508 45.1359C41.6672 44.1144 41.0665 42.6828 41.4935 41.611C41.6672 41.1938 41.0375 41.0139 40.7987 41.3304Z" fill="#222272"/>
<path d="M43.7877 41.2729C44.6489 42.4886 45.0976 43.7835 45.1555 45.2726C45.199 46.2941 44.6489 47.5098 45.2134 48.4234C45.3437 48.6392 45.6115 48.6967 45.8286 48.5816C47.0372 47.9486 46.878 46.0063 46.7477 44.8553C46.5668 43.2152 45.7924 41.7764 44.5983 40.6542C44.1857 40.2658 43.4403 40.7837 43.7877 41.2729Z" fill="#222272"/>
<path d="M48.13 45.9488C50.3012 45.7258 49.7946 42.2441 49.4545 40.8053C49.2156 39.8054 47.6306 35.2446 46.0457 37.4099C45.7851 37.7696 46.0384 38.4314 46.4872 38.4962C47.4352 38.6328 47.9057 40.5176 48.1445 41.3449C48.5208 42.6325 48.6656 44.4597 47.9563 45.6467C47.884 45.769 47.978 45.9704 48.13 45.9488Z" fill="#222272"/>
<path d="M39.2499 45.5747C39.6696 45.5747 39.6696 44.9273 39.2499 44.9273C38.8301 44.9273 38.8301 45.5747 39.2499 45.5747Z" fill="#222272"/>
<path d="M43.2232 45.3949C43.7877 45.3949 43.7877 44.5245 43.2232 44.5245C42.6587 44.5245 42.6587 45.3949 43.2232 45.3949Z" fill="#222272"/>
<path d="M47.486 42.9347C48.0288 42.9347 48.0288 42.1002 47.486 42.1002C46.9432 42.1002 46.9432 42.9347 47.486 42.9347Z" fill="#222272"/>
<path d="M49.5775 39.0429C49.8091 39.0429 49.8091 38.6832 49.5775 38.6832C49.3459 38.6832 49.3459 39.0429 49.5775 39.0429Z" fill="#222272"/>
<path d="M35.3488 44.0281C35.7252 44.0281 35.7252 43.4526 35.3488 43.4526C34.9797 43.4526 34.9797 44.0281 35.3488 44.0281Z" fill="#222272"/>
<path d="M39.0327 44.2223C39.2788 44.2223 39.2788 43.841 39.0327 43.841C38.7866 43.841 38.7866 44.2223 39.0327 44.2223Z" fill="#222272"/>
<path d="M39.105 43.1217C39.3294 43.1217 39.3294 42.7764 39.105 42.7764C38.8807 42.7836 38.8807 43.1217 39.105 43.1217Z" fill="#222272"/>
<path d="M39.3222 42.2585C39.5321 42.2585 39.5321 41.9276 39.3222 41.9276C39.1123 41.9276 39.1123 42.2585 39.3222 42.2585Z" fill="#222272"/>
<path d="M39.9735 46.0711C39.8794 45.8049 39.4669 45.8841 39.5465 46.1646C39.6189 46.4308 40.0531 46.3157 39.9735 46.0711Z" fill="#222272"/>
<path d="M40.3717 46.8409C40.35 46.8409 40.3282 46.8337 40.2993 46.8265C40.0532 46.7833 40.0532 47.1574 40.2993 47.1214C40.321 47.1142 40.3427 47.1142 40.3717 47.107C40.5092 47.0854 40.5092 46.8624 40.3717 46.8409Z" fill="#222272"/>
<path d="M42.9336 44.1863C43.3244 44.1863 43.3244 43.5893 42.9336 43.5893C42.5428 43.5893 42.5428 44.1863 42.9336 44.1863Z" fill="#222272"/>
<path d="M42.7165 43.2152C43.0567 43.2152 43.0567 42.6901 42.7165 42.6901C42.3764 42.6901 42.3764 43.2152 42.7165 43.2152Z" fill="#222272"/>
<path d="M42.6441 42.093C42.8322 42.093 42.8322 41.8053 42.6441 41.8053C42.4559 41.8053 42.4559 42.093 42.6441 42.093Z" fill="#222272"/>
<path d="M43.4403 46.1214C43.462 46.1214 43.4909 46.1214 43.5126 46.1214C43.708 46.1214 43.708 45.8193 43.5126 45.8193C43.4909 45.8193 43.462 45.8193 43.4403 45.8193C43.2448 45.8121 43.2448 46.1214 43.4403 46.1214Z" fill="#222272"/>
<path d="M43.8021 46.9343C44.0337 46.9343 44.0337 46.5819 43.8021 46.5819C43.5705 46.5819 43.5705 46.9343 43.8021 46.9343Z" fill="#222272"/>
<path d="M44.1133 47.3587C44.106 47.3731 44.0916 47.3875 44.0843 47.4019C44.0409 47.4522 44.0409 47.5026 44.0843 47.553C44.0916 47.5673 44.106 47.5817 44.1133 47.5889C44.2074 47.704 44.3955 47.6033 44.3955 47.4738C44.3955 47.3443 44.2146 47.2436 44.1133 47.3587Z" fill="#222272"/>
<path d="M47.0517 41.5391C47.4498 41.5391 47.4498 40.9204 47.0517 40.9204C46.6537 40.9204 46.6537 41.5391 47.0517 41.5391Z" fill="#222272"/>
<path d="M46.6898 40.8269C47.001 40.8269 47.001 40.3449 46.6898 40.3449C46.3786 40.3449 46.3786 40.8269 46.6898 40.8269Z" fill="#222272"/>
<path d="M46.1108 40.0788C46.3858 40.0788 46.3858 39.6544 46.1108 39.6544C45.8358 39.6544 45.8358 40.0788 46.1108 40.0788Z" fill="#222272"/>
<path d="M45.4594 39.5752C45.7345 39.5752 45.7345 39.1507 45.4594 39.1507C45.1844 39.1507 45.1844 39.5752 45.4594 39.5752Z" fill="#222272"/>
<path d="M47.6234 43.9058C47.9274 43.9058 47.9274 43.4454 47.6234 43.4454C47.3267 43.4382 47.3267 43.9058 47.6234 43.9058Z" fill="#222272"/>
<path d="M47.6234 44.8769C47.8912 44.8769 47.8912 44.4669 47.6234 44.4669C47.3628 44.4741 47.3628 44.8769 47.6234 44.8769Z" fill="#222272"/>
<path d="M47.5584 45.6826C47.7465 45.6826 47.7465 45.3949 47.5584 45.3949C47.3702 45.3949 47.3702 45.6826 47.5584 45.6826Z" fill="#222272"/>
<path d="M49.2157 37.748C49.4473 37.748 49.4473 37.3883 49.2157 37.3883C48.9841 37.3883 48.9841 37.748 49.2157 37.748Z" fill="#222272"/>
<path d="M48.5643 36.8991C48.8103 36.8991 48.8103 36.5251 48.5643 36.5251C48.3254 36.5179 48.3254 36.8991 48.5643 36.8991Z" fill="#222272"/>
<path d="M47.913 36.4603C48.1445 36.4603 48.1445 36.1006 47.913 36.1006C47.6814 36.1006 47.6814 36.4603 47.913 36.4603Z" fill="#222272"/>
<path d="M46.9359 35.8776C46.9286 35.892 46.9141 35.9064 46.9069 35.9208C46.8707 35.964 46.8707 36.0143 46.9069 36.0647C46.9214 36.0791 46.9286 36.0934 46.9359 36.1078C47.2398 36.4747 47.2398 35.5108 46.9359 35.8776Z" fill="#222272"/>
<path d="M50.0842 39.755C50.0625 39.755 50.0335 39.7622 50.0118 39.7622C49.9684 39.7694 49.9684 39.8198 50.0118 39.827C50.0335 39.827 50.0625 39.8342 50.0842 39.8342C50.1348 39.8414 50.1348 39.7478 50.0842 39.755Z" fill="#222272"/>
<path d="M50.0118 40.0141C50.2941 40.0141 50.2941 39.5752 50.0118 39.5752C49.7223 39.5752 49.7223 40.0141 50.0118 40.0141Z" fill="#222272"/>
<path d="M50.2071 40.7046C50.1926 40.719 50.1854 40.7262 50.1709 40.7406C50.1419 40.7694 50.1419 40.8197 50.1709 40.8557C50.1854 40.8701 50.1926 40.8773 50.2071 40.8916C50.4676 41.1722 50.4676 40.4312 50.2071 40.7046Z" fill="#222272"/>
<path d="M50.2289 41.8196C50.4388 41.8196 50.4388 41.5031 50.2289 41.5031C50.0191 41.5031 50.0191 41.8196 50.2289 41.8196Z" fill="#222272"/>
<path d="M35.4213 42.8339C35.6384 42.8339 35.6384 42.4958 35.4213 42.4958C35.2041 42.4958 35.2041 42.8339 35.4213 42.8339Z" fill="#222272"/>
<path d="M35.7108 41.9635C35.9207 41.9635 35.9207 41.647 35.7108 41.647C35.5082 41.647 35.5082 41.9635 35.7108 41.9635Z" fill="#222272"/>
<path d="M36.2173 41.0931C36.4996 41.0931 36.4996 40.6543 36.2173 40.6543C35.9351 40.6543 35.9351 41.0931 36.2173 41.0931Z" fill="#222272"/>
<path d="M36.724 40.3593C36.8036 40.3593 36.8036 40.237 36.724 40.237C36.6444 40.237 36.6444 40.3593 36.724 40.3593Z" fill="#222272"/>
<path d="M35.6384 45.1071C35.8266 45.1071 35.8266 44.8194 35.6384 44.8194C35.4503 44.8194 35.4503 45.1071 35.6384 45.1071Z" fill="#222272"/>
<path d="M36.0003 45.9776C36.1957 45.9776 36.1957 45.6754 36.0003 45.6754C35.8049 45.6754 35.8049 45.9776 36.0003 45.9776Z" fill="#222272"/>
<path d="M36.3622 46.7905C36.5938 46.7905 36.5938 46.4308 36.3622 46.4308C36.1306 46.4308 36.1306 46.7905 36.3622 46.7905Z" fill="#222272"/>
<path d="M36.7675 47.4307C36.7819 47.4451 36.7892 47.4523 36.8036 47.4667C36.8398 47.5026 36.8977 47.5026 36.9339 47.4667C36.9484 47.4523 36.9556 47.4451 36.9701 47.4307C37.2741 47.143 36.4635 47.143 36.7675 47.4307Z" fill="#222272"/>
<path d="M37.4477 48.2292C37.6793 48.2292 37.6793 47.8695 37.4477 47.8695C37.2088 47.8695 37.2088 48.2292 37.4477 48.2292Z" fill="#222272"/>
<path d="M20.1795 48.0134C21.3519 46.5818 21.5039 44.5388 20.7368 42.8699C20.013 41.2873 18.305 39.2803 16.3509 39.5321C16.0615 39.568 15.8371 39.9133 16.0904 40.1507C17.1326 41.129 18.3846 41.6038 19.2242 42.8483C20.2302 44.3518 20.0782 46.0567 19.6656 47.704C19.5933 47.9918 19.9696 48.2652 20.1795 48.0134Z" fill="#222272"/>
<path d="M16.8214 47.3371C18.2326 45.4308 16.5898 39.9924 14.2376 39.4457C13.883 39.3666 13.5646 39.6687 13.6514 40.0284C13.9626 41.2657 15.1061 42.2944 15.5693 43.5317C15.9529 44.5532 16.5536 45.9847 16.1266 47.0566C15.9601 47.4738 16.5898 47.6537 16.8214 47.3371Z" fill="#222272"/>
<path d="M13.8322 47.3947C12.971 46.1789 12.5223 44.8841 12.4644 43.395C12.421 42.3735 12.971 41.165 12.4065 40.2442C12.2762 40.0284 12.0084 39.9708 11.7913 40.0859C10.5827 40.719 10.7419 42.6612 10.8722 43.8122C11.0531 45.4524 11.8347 46.8839 13.0289 48.0133C13.4342 48.4018 14.1796 47.8838 13.8322 47.3947Z" fill="#222272"/>
<path d="M9.48987 42.7189C7.31867 42.9419 7.82528 46.4236 8.16544 47.8623C8.40427 48.8623 9.98925 53.423 11.5742 51.2578C11.8348 50.8981 11.5815 50.2362 11.1327 50.1715C10.1847 50.0348 9.71423 48.1501 9.4754 47.3228C9.09905 46.0352 8.95431 44.208 9.66357 43.021C9.73594 42.8987 9.64185 42.6973 9.48987 42.7189Z" fill="#222272"/>
<path d="M18.3701 43.7404C18.7899 43.7404 18.7899 43.0929 18.3701 43.0929C17.9504 43.0929 17.9504 43.7404 18.3701 43.7404Z" fill="#222272"/>
<path d="M14.3968 44.1432C14.9613 44.1432 14.9613 43.2728 14.3968 43.2728C13.8323 43.2728 13.8323 44.1432 14.3968 44.1432Z" fill="#222272"/>
<path d="M10.1412 46.5602C10.684 46.5602 10.684 45.7258 10.1412 45.7258C9.59843 45.733 9.59843 46.5602 10.1412 46.5602Z" fill="#222272"/>
<path d="M8.04235 49.9844C8.27394 49.9844 8.27394 49.6248 8.04235 49.6248C7.81075 49.6248 7.81075 49.9844 8.04235 49.9844Z" fill="#222272"/>
<path d="M22.271 45.215C22.6474 45.215 22.6474 44.6395 22.271 44.6395C21.8947 44.6395 21.8947 45.215 22.271 45.215Z" fill="#222272"/>
<path d="M18.5871 44.8337C18.8332 44.8337 18.8332 44.4525 18.5871 44.4525C18.3411 44.4453 18.3411 44.8337 18.5871 44.8337Z" fill="#222272"/>
<path d="M18.5148 45.884C18.7392 45.884 18.7392 45.5387 18.5148 45.5387C18.2905 45.5387 18.2905 45.884 18.5148 45.884Z" fill="#222272"/>
<path d="M18.2978 46.7401C18.5077 46.7401 18.5077 46.4092 18.2978 46.4092C18.0879 46.4092 18.0879 46.7401 18.2978 46.7401Z" fill="#222272"/>
<path d="M17.6464 42.5965C17.7405 42.8627 18.153 42.7835 18.0734 42.503C18.0011 42.2368 17.5668 42.3519 17.6464 42.5965Z" fill="#222272"/>
<path d="M17.2483 41.8268C17.2701 41.834 17.2918 41.834 17.3207 41.8412C17.5668 41.8844 17.5668 41.5103 17.3207 41.5463C17.299 41.5535 17.2773 41.5535 17.2483 41.5607C17.1181 41.5822 17.1181 41.8052 17.2483 41.8268Z" fill="#222272"/>
<path d="M14.6864 45.0783C15.0772 45.0783 15.0772 44.4813 14.6864 44.4813C14.3028 44.4813 14.3028 45.0783 14.6864 45.0783Z" fill="#222272"/>
<path d="M14.9034 45.9775C15.2436 45.9775 15.2436 45.4524 14.9034 45.4524C14.5633 45.4524 14.5633 45.9775 14.9034 45.9775Z" fill="#222272"/>
<path d="M14.9758 46.8624C15.164 46.8624 15.164 46.5746 14.9758 46.5746C14.7877 46.5746 14.7877 46.8624 14.9758 46.8624Z" fill="#222272"/>
<path d="M14.1796 42.5462C14.1579 42.5462 14.129 42.5462 14.1072 42.5462C13.9118 42.5462 13.9118 42.8484 14.1072 42.8484C14.129 42.8484 14.1579 42.8484 14.1796 42.8484C14.3823 42.8555 14.3823 42.5462 14.1796 42.5462Z" fill="#222272"/>
<path d="M13.8251 42.0858C14.0567 42.0858 14.0567 41.7333 13.8251 41.7333C13.5935 41.7333 13.5935 42.0858 13.8251 42.0858Z" fill="#222272"/>
<path d="M13.5066 41.3089C13.5139 41.2945 13.5283 41.2801 13.5356 41.2657C13.579 41.2154 13.579 41.165 13.5356 41.1146C13.5211 41.1003 13.5139 41.0859 13.5066 41.0715C13.4125 40.9564 13.2244 41.0571 13.2244 41.1866C13.2244 41.3233 13.4125 41.424 13.5066 41.3089Z" fill="#222272"/>
<path d="M10.5755 47.7472C10.9735 47.7472 10.9735 47.1286 10.5755 47.1286C10.1702 47.1286 10.1702 47.7472 10.5755 47.7472Z" fill="#222272"/>
<path d="M10.9302 48.3227C11.2414 48.3227 11.2414 47.8407 10.9302 47.8407C10.619 47.8407 10.619 48.3227 10.9302 48.3227Z" fill="#222272"/>
<path d="M11.5091 49.0133C11.7841 49.0133 11.7841 48.5889 11.5091 48.5889C11.2341 48.5889 11.2341 49.0133 11.5091 49.0133Z" fill="#222272"/>
<path d="M12.1605 49.5169C12.4355 49.5169 12.4355 49.0924 12.1605 49.0924C11.8855 49.0924 11.8855 49.5169 12.1605 49.5169Z" fill="#222272"/>
<path d="M9.99653 45.2294C10.2933 45.2294 10.2933 44.769 9.99653 44.769C9.69256 44.7618 9.69256 45.2294 9.99653 45.2294Z" fill="#222272"/>
<path d="M9.99649 44.1935C10.2643 44.1935 10.2643 43.7835 9.99649 43.7835C9.72871 43.7907 9.72871 44.1935 9.99649 44.1935Z" fill="#222272"/>
<path d="M10.0689 43.2728C10.257 43.2728 10.257 42.985 10.0689 42.985C9.88069 42.985 9.88069 43.2728 10.0689 43.2728Z" fill="#222272"/>
<path d="M8.40429 51.2793C8.63588 51.2793 8.63588 50.9196 8.40429 50.9196C8.17269 50.9196 8.17269 51.2793 8.40429 51.2793Z" fill="#222272"/>
<path d="M9.05565 52.1497C9.30172 52.1497 9.30172 51.7757 9.05565 51.7757C8.80958 51.7757 8.80958 52.1497 9.05565 52.1497Z" fill="#222272"/>
<path d="M9.70702 52.5669C9.93862 52.5669 9.93862 52.2073 9.70702 52.2073C9.47543 52.2073 9.47543 52.5669 9.70702 52.5669Z" fill="#222272"/>
<path d="M10.684 52.7899C10.6913 52.7755 10.7057 52.7612 10.713 52.754C10.7492 52.7108 10.7492 52.6604 10.713 52.6101C10.6985 52.5957 10.6913 52.5813 10.684 52.5669C10.3801 52.1929 10.3801 53.1568 10.684 52.7899Z" fill="#222272"/>
<path d="M7.54306 48.9126C7.56477 48.9126 7.59372 48.9054 7.61543 48.9054C7.65885 48.8982 7.65885 48.8478 7.61543 48.8406C7.59372 48.8406 7.56477 48.8334 7.54306 48.8334C7.48516 48.8262 7.48516 48.9198 7.54306 48.9126Z" fill="#222272"/>
<path d="M7.61544 49.0924C7.89769 49.0924 7.89769 48.6536 7.61544 48.6536C7.32594 48.6536 7.32594 49.0924 7.61544 49.0924Z" fill="#222272"/>
<path d="M7.42007 47.963C7.43455 47.9486 7.44179 47.9414 7.45626 47.9271C7.48521 47.8983 7.48521 47.8479 7.45626 47.812C7.44179 47.7976 7.43455 47.7904 7.42007 47.776C7.15229 47.4954 7.15229 48.2364 7.42007 47.963Z" fill="#222272"/>
<path d="M7.39838 47.1645C7.60826 47.1645 7.60826 46.848 7.39838 46.848C7.1885 46.848 7.1885 47.1645 7.39838 47.1645Z" fill="#222272"/>
<path d="M22.1987 46.1718C22.4158 46.1718 22.4158 45.8337 22.1987 45.8337C21.9816 45.8337 21.9816 46.1718 22.1987 46.1718Z" fill="#222272"/>
<path d="M21.9091 47.0206C22.119 47.0206 22.119 46.7041 21.9091 46.7041C21.6992 46.7041 21.6992 47.0206 21.9091 47.0206Z" fill="#222272"/>
<path d="M21.4026 48.0134C21.6849 48.0134 21.6849 47.5746 21.4026 47.5746C21.1204 47.5746 21.1204 48.0134 21.4026 48.0134Z" fill="#222272"/>
<path d="M20.896 48.4306C20.9756 48.4306 20.9756 48.3083 20.896 48.3083C20.8236 48.3083 20.8236 48.4306 20.896 48.4306Z" fill="#222272"/>
<path d="M21.9815 43.8482C22.1696 43.8482 22.1696 43.5605 21.9815 43.5605C21.7933 43.5605 21.7933 43.8482 21.9815 43.8482Z" fill="#222272"/>
<path d="M21.6197 42.9922C21.8151 42.9922 21.8151 42.6901 21.6197 42.6901C21.4243 42.6901 21.4243 42.9922 21.6197 42.9922Z" fill="#222272"/>
<path d="M21.2578 42.2369C21.4894 42.2369 21.4894 41.8772 21.2578 41.8772C21.0262 41.8772 21.0262 42.2369 21.2578 42.2369Z" fill="#222272"/>
<path d="M20.8598 41.2369C20.8453 41.2225 20.8381 41.2153 20.8236 41.2009C20.7874 41.165 20.7295 41.165 20.6933 41.2009C20.6789 41.2153 20.6716 41.2225 20.6572 41.2369C20.346 41.5247 21.1565 41.5247 20.8598 41.2369Z" fill="#222272"/>
<path d="M20.1794 40.7981C20.411 40.7981 20.411 40.4384 20.1794 40.4384C19.9405 40.4384 19.9405 40.7981 20.1794 40.7981Z" fill="#222272"/>
<path d="M33.1487 21.3896C32.7289 20.8788 32.0486 20.6199 31.3828 20.6055C30.717 20.5839 30.0656 20.7781 29.4504 21.0299C28.4661 21.4327 27.5325 22.001 26.816 22.778C26.0923 23.5549 25.5929 24.5548 25.5205 25.6123C24.4784 24.9936 22.9079 24.6411 21.9308 25.3677C21.5038 25.6842 21.2505 26.1806 21.0406 26.6625C19.5208 30.1443 19.3399 34.0432 19.1951 37.8343C19.1589 38.7551 19.1227 39.6902 18.7971 40.5535C18.6017 41.0642 18.3049 41.5534 18.2687 42.1001C18.2615 42.2008 18.2687 42.3159 18.3339 42.3951C18.4641 42.5605 18.7247 42.4886 18.9201 42.4094C20.6209 41.6685 22.3216 40.9276 24.0152 40.1866C27.3299 38.7407 30.84 37.1365 32.7868 34.108C33.4816 33.0289 33.9448 31.8204 34.3429 30.5975C34.835 29.094 35.2403 27.533 35.1752 25.9504C35.11 24.3678 34.1547 22.6125 33.1487 21.3896Z" fill="#0C0A35"/>
<path d="M17.8852 43.2151C19.3399 42.4886 20.0057 41.1146 20.4183 39.5823C20.9611 37.5609 21.3229 35.5467 21.9888 33.5541C22.6618 31.547 23.2987 29.5112 23.6244 27.4107C23.9139 25.5619 22.4013 24.3821 21.7789 22.7708C21.692 22.5406 21.3808 22.5837 21.3519 22.8283C21.1492 24.5836 23.0744 25.4972 22.9658 27.3243C22.85 29.2307 22.1842 31.2377 21.5762 33.0361C20.9755 34.8129 20.5485 36.5898 20.1505 38.417C19.984 39.1651 19.832 39.9564 19.5208 40.6614C19.2386 41.3016 18.8767 41.8555 18.4063 42.3735C17.8852 42.9418 17.972 42.5965 17.7332 43.0785C17.7043 43.172 17.7911 43.2583 17.8852 43.2151Z" fill="#B70027"/>
<path d="M19.0648 43.3014C20.2083 42.9849 20.809 41.8555 21.2939 40.87C22.0032 39.4384 22.5315 37.8918 22.973 36.3667C23.6461 34.072 24.3047 31.7916 24.9488 29.4968C25.6146 27.1229 25.4843 24.2526 25.1152 21.8427C25.0718 21.5406 24.6593 21.6629 24.6231 21.9075C24.2902 24.3965 24.956 26.8351 24.3191 29.3241C23.798 31.3384 23.2914 33.3382 22.6328 35.3165C22.1769 36.6833 21.7644 38.0429 21.2577 39.3953C20.8307 40.5247 20.2952 42.7115 19.0359 43.2583C19.0069 43.2655 19.0286 43.3158 19.0648 43.3014Z" fill="#B70027"/>
<path d="M21.6124 42.9346C21.7716 42.1073 22.4157 41.6398 22.8644 40.9851C23.3855 40.2226 23.7908 39.3737 24.2467 38.5753C25.2165 36.8776 25.7738 34.8417 26.4397 33.0074C27.2141 30.878 27.4891 28.5977 27.7786 26.3676C27.9305 25.1807 28.0608 24.0009 28.1187 22.8068C28.1694 21.7853 28.5168 20.5551 28.1983 19.5696C28.0753 19.1812 27.4963 19.3394 27.5904 19.7351C27.8003 20.6846 27.5035 21.8428 27.4529 22.8068C27.395 24.0009 27.2719 25.1807 27.1127 26.3676C26.8088 28.6912 26.4686 30.9931 25.6653 33.2088C24.9488 35.1798 24.4204 37.2157 23.4434 39.0788C23.0019 39.9133 22.5677 40.6686 21.9742 41.4096C21.6341 41.834 21.3373 42.3088 21.236 42.8411C21.1998 43.0713 21.5689 43.172 21.6124 42.9346Z" fill="#B70027"/>
<path d="M23.5158 41.5966C24.9633 40.05 26.3673 38.5609 27.2503 36.6114C28.0536 34.8346 28.5747 32.8635 29.1103 30.9932C29.6531 29.1156 30.0294 27.0942 30.3044 25.1663C30.5867 23.1809 30.5143 21.0012 31.3249 19.1452C31.4045 18.9582 31.2742 18.692 31.0281 18.764C29.9353 19.1092 30.138 21.0947 30.0149 21.9651C29.6965 24.2527 29.3491 26.5115 28.9293 28.7847C28.5602 30.7702 27.8727 32.6765 27.2937 34.6044C26.5121 37.2085 25.1008 39.3522 23.2987 41.3808C23.1684 41.5247 23.3783 41.7405 23.5158 41.5966Z" fill="#B70027"/>
<path d="M26.7871 39.9852C28.1043 39.2226 28.4589 37.7551 29.1175 36.4747C29.8991 34.964 30.3768 33.2807 30.869 31.6693C31.4841 29.6335 32.1138 27.5114 32.396 25.4036C32.5263 24.4181 32.5987 23.4326 32.6566 22.4398C32.7217 21.3248 33.1921 20.1523 32.9461 19.0372C32.9026 18.8502 32.6204 18.8574 32.5697 19.0372C32.121 20.7134 32.0486 22.4039 31.9111 24.1232C31.7302 26.3172 31.1367 28.4825 30.5577 30.6046C30.1307 32.1801 29.6386 33.7339 29.0379 35.2517C28.5023 36.6185 27.8365 38.8198 26.6351 39.7262C26.4759 39.8413 26.6062 40.0931 26.7871 39.9852Z" fill="#B70027"/>
<path d="M28.8425 39.0069C30.0511 38.1148 30.7748 36.5178 31.4769 35.2374C32.3309 33.6979 32.9822 32.1081 33.6987 30.4968C34.2777 29.1947 34.3284 27.7991 34.4659 26.3964C34.6251 24.7418 35.1824 22.9362 34.1402 21.4615C34.0606 21.3536 33.8507 21.3752 33.8652 21.5335C33.981 23.0945 33.9158 24.4901 33.7421 26.0439C33.5685 27.5977 33.5395 29.0436 32.8954 30.4968C32.3019 31.8492 31.7808 33.2088 31.0643 34.5036C30.3551 35.7841 29.7906 37.7839 28.6543 38.7551C28.524 38.8846 28.705 39.1076 28.8425 39.0069Z" fill="#B70027"/>
<path d="M32.6638 26.7058C32.8592 26.8425 33.1125 26.8425 33.3441 26.8353C34.7844 26.7849 36.6878 26.6411 38.0774 26.267C39.3584 25.9217 40.4657 25.4397 41.1243 24.2887C41.4572 23.6989 41.3052 22.6702 40.7914 22.2242C40.415 21.9004 40.0097 21.7853 39.5465 21.5911C38.3958 21.1235 37.8602 19.8143 37.8168 18.577C37.7734 17.3397 37.9181 16.016 37.2885 14.9514C36.7964 14.1241 35.8989 13.5918 34.9653 13.34C34.0317 13.0882 33.0474 13.0738 32.0776 13.0666C31.6723 13.0666 31.2019 13.0882 30.9486 13.4047C30.7025 13.7141 30.7821 14.1529 30.869 14.5341C31.4263 16.8865 32.1789 19.2532 31.9763 21.6559C31.9184 22.3321 31.7881 23.0083 31.7881 23.6845C31.7881 24.5333 32.0125 25.375 32.3237 26.1663C32.3961 26.3677 32.4901 26.5763 32.6638 26.7058Z" fill="#191956"/>
<path d="M37.3826 9.69997C37.3754 9.94456 37.3464 10.1963 37.2161 10.3978C36.9918 10.7431 36.5503 10.851 36.145 10.9301C31.0789 11.9228 25.839 12.4695 20.7729 11.4984C20.4255 11.4336 20.0492 11.3329 19.8538 11.0452C19.7235 10.851 19.709 10.6064 19.7018 10.3762C19.6656 9.49136 19.7018 8.56337 20.0926 7.76488C20.4328 7.06709 20.9973 6.18227 21.569 5.64994C22.9296 4.39105 24.0804 3.7724 25.8825 3.32639C27.88 2.83003 30.5723 3.00987 32.4974 3.72204C33.7712 4.19682 34.7989 4.83706 35.7759 5.77943C36.8253 6.77935 37.426 8.23966 37.3826 9.69997Z" fill="#0C0A35"/>
<path d="M40.7551 35.6115C40.8926 35.6475 41.0229 35.6763 41.1604 35.7122C41.0301 35.6691 40.8926 35.6331 40.7551 35.6115Z" fill="#FCC07E"/>
<path d="M31.267 12.1675C32.7579 15.3758 32.9895 19.5266 32.9389 23.0155C32.9027 25.3318 32.1862 28.7273 34.5094 30.2667C34.6541 30.3602 34.7989 30.1804 34.7337 30.0437C34.0534 28.6553 33.5396 27.5763 33.5251 25.9865C33.5034 24.3103 33.6771 22.6558 33.583 20.9797C33.4021 17.9727 32.9244 14.714 31.5927 11.9804C31.4769 11.7646 31.1657 11.9516 31.267 12.1675Z" fill="#B70027"/>
<path d="M32.852 12.2682C34.6107 15.0809 33.7929 19.059 34.1258 22.217C34.4008 24.8283 34.314 27.7705 36.9918 29.1877C37.1293 29.2596 37.2813 29.1157 37.2017 28.979C36.3404 27.5043 35.4068 26.3677 35.1752 24.5981C34.9726 23.0227 34.8061 21.4041 34.712 19.8215C34.5456 17.0663 34.6035 14.5486 33.0113 12.1747C32.9534 12.0668 32.7869 12.1603 32.852 12.2682Z" fill="#B70027"/>
<path d="M34.0173 12.1387C35.1318 13.0235 35.1897 15.9513 35.2766 17.1527C35.4141 19.0446 35.2911 20.9006 35.747 22.7493C36.2681 24.8715 36.8905 27.2022 38.6999 28.605C38.8084 28.6913 39.0038 28.5762 38.9097 28.4395C37.2886 26.1088 36.1089 23.0443 36.0582 20.2028C36.022 18.3181 35.8918 16.347 35.5082 14.4982C35.32 13.5918 35.1029 12.3689 34.191 11.9013C34.0535 11.8366 33.8798 12.0308 34.0173 12.1387Z" fill="#B70027"/>
<path d="M36.6082 11.4912C36.6805 12.5199 35.6239 13.1098 35.9206 14.2464C36.3983 16.1095 36.5503 18.0087 36.8253 19.915C37.0931 21.7853 37.5056 23.6773 38.2076 25.4325C38.7287 26.7418 39.5899 28.4754 40.965 29.0581C41.0736 29.1013 41.2256 29.0006 41.146 28.8783C40.6972 28.2165 40.111 27.6841 39.6478 27.0295C39.1123 26.267 38.7866 25.375 38.4899 24.5045C37.8819 22.7205 37.5562 20.8286 37.3029 18.9654C37.1003 17.462 37.0713 15.7571 36.5068 14.3399C36.0726 13.2465 37.151 12.4767 36.8687 11.4624C36.818 11.3186 36.5937 11.3401 36.6082 11.4912Z" fill="#B70027"/>
<path d="M38.0991 13.2537C37.1365 16.1096 37.9833 19.6273 38.9893 22.3609C39.6479 24.1377 40.9579 28.1374 43.5199 27.6482C43.6501 27.6266 43.7008 27.4324 43.5995 27.3461C42.7382 26.6555 41.8842 26.4541 41.2763 25.4038C40.6177 24.2672 40.0821 22.9364 39.6189 21.7134C38.6926 19.282 37.6938 15.9297 38.3524 13.3184C38.3814 13.1602 38.1498 13.1026 38.0991 13.2537Z" fill="#B70027"/>
<path d="M36.5214 14.7211C37.8314 13.8219 38.5986 12.2897 38.8374 10.7287C39.069 9.16763 38.8157 7.57064 38.4104 6.04558C36.6445 7.29728 35.1102 9.29712 33.8364 11.038C33.5035 9.30431 32.5264 6.96637 31.6797 5.41254C30.1092 7.06708 29.0091 9.11008 27.6195 10.9157C27.1201 9.73593 26.628 8.55617 26.1069 7.3908C25.7812 6.65704 25.2819 5.89452 24.7101 5.29744C23.4363 7.01673 22.083 9.08131 21.4895 11.1675C20.9684 9.61364 20.6065 9.30431 19.2459 7.58503C18.9275 7.18218 18.2689 6.65704 17.8925 6.31175C17.5017 7.82242 17.1109 9.36905 17.1833 10.9229C17.2557 12.4839 17.8636 14.0953 19.1301 15.0233C19.7019 15.4405 20.5269 15.4261 21.2217 15.311C25.2601 14.6564 29.3927 14.5629 33.46 15.0448C34.7049 15.1887 36.1885 15.3038 36.9774 14.3327L36.5214 14.7211Z" fill="#222272"/>
<path d="M18.2037 10.4625C19.2241 11.3905 20.2663 12.1602 21.0407 13.2968C20.1433 13.3184 19.4413 13.304 18.5438 13.3184C18.2254 12.7789 18.153 10.4193 18.2037 10.4625Z" fill="#F70032"/>
<path d="M24.6087 9.97335C24.6521 9.95177 24.6955 9.99493 24.7245 10.0381C25.412 11.0596 26.0055 12.1458 26.4976 13.2752C25.3831 13.2393 24.2685 13.1961 23.154 13.1601C23.0961 12.9156 23.2191 12.671 23.3277 12.4552C23.7402 11.6495 24.1527 10.8438 24.5653 10.0309C24.5797 10.0021 24.587 9.98055 24.6087 9.97335Z" fill="#F70032"/>
<path d="M32.5408 13.4191C31.5204 13.3255 30.167 13.2248 29.1393 13.2248C29.6242 12.2393 30.565 10.743 31.2236 9.8654C31.9112 10.8437 32.3599 12.2465 32.5408 13.4191Z" fill="#F70032"/>
<path d="M34.4805 13.5126C34.8785 13.0163 35.197 12.6925 35.6312 12.225C36.2319 11.5847 36.905 11.1027 37.5491 10.5344C37.5491 11.448 37.3392 12.3688 36.9412 13.1961C36.8977 13.2824 36.8543 13.3759 36.7747 13.4335C36.6444 13.5414 36.449 13.5414 36.2753 13.5342C35.7398 13.5198 35.016 13.5342 34.4805 13.5126Z" fill="#F70032"/>
<path d="M44.0048 30.3817C44.3884 28.2883 44.6417 25.9576 45.0253 23.8642C45.1266 23.3103 45.9083 18.1741 46.0675 17.318C46.2339 17.318 46.8491 17.4187 47.0156 17.4187C46.755 16.8145 46.7406 16.4476 46.5741 15.7138C46.9504 15.9728 47.4209 16.2965 48.1808 15.9081C48.5861 15.6995 48.5499 15.0808 48.5065 14.7283C48.217 12.2321 47.6886 10.4337 47.3847 8.33315C46.4728 10.0812 45.3944 11.7429 44.1641 13.2896C43.918 13.6061 43.6575 13.9226 43.5344 14.3039C43.4186 14.6851 43.4548 15.1815 43.7805 15.4117C44.3957 15.8433 44.8588 15.6635 45.3003 15.5772C45.047 16.0807 44.5766 16.5555 44.345 17.0662C44.6996 17.0734 44.9819 17.2101 45.3365 17.2101C45.0832 19.0517 44.7069 20.5911 44.4174 22.3824C43.9542 25.231 43.4476 28.425 42.9989 31.2809C42.8179 32.4103 41.7396 38.1149 41.7034 38.2516C41.8915 38.3235 42.4778 38.417 42.637 38.4458C42.8469 37.8199 43.8167 31.432 44.0048 30.3817Z" fill="#141247"/>
<path d="M23.0019 21.8572C23.6967 21.6126 24.4856 21.8644 25.108 22.2529C26.2443 22.9651 27.0621 24.116 27.5325 25.3677C28.0102 26.6194 28.1622 27.9646 28.1911 29.3027C28.2056 29.9357 28.1839 30.5831 27.9233 31.1586C27.4095 31.3241 26.8667 31.0363 26.418 30.727C24.6665 29.5257 23.1322 27.6985 23.1033 25.5835C23.2263 28.1085 21.5979 30.6191 19.2385 31.5615C19.4412 30.281 20.2156 29.1372 20.3748 27.8495C20.5847 26.1446 19.7162 24.3318 20.3965 22.7564C20.4544 22.6198 20.5268 22.4831 20.6498 22.3968C20.9682 22.1594 21.417 22.3608 21.815 22.3248C22.242 22.3032 22.5966 22.0011 23.0019 21.8572Z" fill="#0C0A35"/>
<path d="M23.0019 21.8572C23.6967 21.6126 24.4856 21.8644 25.108 22.2528C26.2443 22.965 27.0621 24.116 27.5325 25.3677C28.0102 26.6194 28.1622 27.9646 28.1911 29.3026C28.2056 29.9357 28.1839 30.5831 27.9233 31.1586C27.4095 31.324 26.8667 31.0363 26.418 30.727C24.6665 29.5256 23.1322 27.6984 23.1033 25.5835C23.2263 28.1085 21.5979 30.6191 19.2385 31.5614C19.4412 30.2809 20.2156 29.1372 20.3748 27.8495C20.5847 26.1446 19.7162 24.3318 20.3965 22.7564C20.4544 22.6197 20.5268 22.483 20.6498 22.3967C20.9682 22.1593 21.417 22.3607 21.815 22.3248C22.242 22.3032 22.5966 22.0011 23.0019 21.8572Z" fill="#191956"/>
<path d="M21.2723 21.5119C20.2663 21.9435 20.5341 23.4614 20.5413 24.3318C20.5558 25.6986 20.6354 27.051 20.4327 28.4106C20.259 29.5544 19.6294 30.5255 19.3906 31.619C19.3616 31.7485 19.5136 31.842 19.6149 31.7485C20.7584 30.7054 21.0117 28.8998 21.1565 27.4323C21.2578 26.4036 21.1782 25.3533 21.1637 24.3246C21.1492 23.598 20.9466 22.3535 21.4677 21.7637C21.598 21.6198 21.4387 21.4399 21.2723 21.5119Z" fill="#B70027"/>
<path d="M22.242 21.1881C21.3446 22.6556 22.0249 24.0008 21.9959 25.6122C21.9742 26.5618 21.9453 27.4969 21.7933 28.4393C21.6268 29.4392 21.0479 30.2809 20.8452 31.2592C20.8163 31.3887 20.9538 31.511 21.0768 31.4391C22.3651 30.6478 22.5026 28.5976 22.5894 27.238C22.6473 26.3244 22.6473 25.382 22.5749 24.4756C22.4809 23.375 22.0756 22.4038 22.5026 21.296C22.5532 21.1449 22.3216 21.0586 22.242 21.1881Z" fill="#B70027"/>
<path d="M22.4664 21.368C22.7776 21.6989 22.8644 22.3607 23.0236 22.7707C23.2625 23.3894 23.5013 24.0081 23.7184 24.6267C24.1599 25.8928 24.1599 27.2596 24.5507 28.5401C24.833 29.4752 25.4047 30.2953 26.0416 31.0291C26.6206 31.6909 27.2502 32.5397 28.1549 32.698C28.4082 32.7412 28.6398 32.4462 28.4227 32.2376C26.5989 30.5183 25.2383 29.0436 24.8185 26.4827C24.5507 24.8785 23.9355 22.3535 22.6184 21.2169C22.517 21.1306 22.3723 21.2673 22.4664 21.368Z" fill="#B70027"/>
<path d="M23.8126 21.0731C24.6955 21.7781 25.0646 23.1377 25.3975 24.1592C25.8173 25.4324 26.1213 26.7273 26.5989 27.9862C27.0694 29.2307 28.3069 32.1441 30.0367 31.8204C30.1959 31.7916 30.2104 31.5974 30.1235 31.4967C29.4287 30.655 28.6254 30.0148 28.0319 29.0581C27.3371 27.9358 26.9246 26.641 26.5338 25.3893C26.0344 23.7923 25.6002 21.7061 23.979 20.8645C23.8487 20.7853 23.6823 20.9652 23.8126 21.0731Z" fill="#B70027"/>
<path d="M27.576 17.9367C28.0754 17.9367 28.5024 17.5195 28.5024 17.0159C28.5024 16.5196 28.0826 16.1023 27.576 16.1023C27.0694 16.1023 26.6569 16.5196 26.6569 17.0159C26.6569 17.5195 27.0766 17.9367 27.576 17.9367Z" fill="#0C0A35"/>
<path d="M20.7006 22.4471C21.3519 22.1881 22.1191 22.5622 22.7704 22.2169C23.2191 21.9795 23.5014 21.5983 23.5521 21.0875C23.581 20.7494 23.5159 20.2459 23.183 20.0588C22.8645 19.879 22.2711 19.9509 22.2493 20.3969C22.2493 20.4689 22.3 20.5192 22.3579 20.5408C22.5823 20.6343 22.8428 20.3753 23.031 20.548C23.2264 20.7278 23.1323 21.1379 23.0527 21.3465C22.879 21.8429 22.3145 21.9436 21.8513 21.9508C21.3592 21.9651 21.0407 21.9795 20.6209 22.2601C20.5341 22.3248 20.592 22.4903 20.7006 22.4471Z" fill="#0C0A35"/>
<path d="M21.6341 6.51315C21.9091 6.51315 21.9091 6.08153 21.6341 6.08153C21.3518 6.08153 21.3518 6.51315 21.6341 6.51315Z" fill="#B70027"/>
<path d="M22.6618 6.03119C22.6184 6.06716 22.5895 6.11032 22.5822 6.16787C22.5533 6.33333 22.6763 6.45562 22.8428 6.42684C22.85 6.42684 22.8573 6.42684 22.8645 6.42684C22.8066 6.41965 22.7487 6.41246 22.6908 6.40526C22.698 6.41246 22.7053 6.41246 22.7125 6.41965C22.8717 6.51317 23.0744 6.39088 23.0744 6.21103C23.0744 5.98084 22.8138 5.89451 22.6618 6.03119Z" fill="#F70032"/>
<path d="M26.4759 6.36212C26.7509 6.36212 26.7509 5.93769 26.4759 5.93769C26.2009 5.93769 26.2009 6.36212 26.4759 6.36212Z" fill="#F70032"/>
<path d="M27.9596 6.37648C28.3142 6.37648 28.3142 5.82977 27.9596 5.82977C27.6049 5.82977 27.6049 6.37648 27.9596 6.37648Z" fill="#F70032"/>
<path d="M29.588 6.44126C30.0222 6.44126 30.0222 5.77225 29.588 5.77225C29.1538 5.77225 29.1538 6.44126 29.588 6.44126Z" fill="#F70032"/>
<path d="M33.4237 6.37648C33.7783 6.37648 33.7783 5.82977 33.4237 5.82977C33.0691 5.82977 33.0691 6.37648 33.4237 6.37648Z" fill="#F70032"/>
<path d="M34.7699 6.27577C35.1752 6.27577 35.1752 5.64993 34.7699 5.64993C34.3646 5.64993 34.3646 6.27577 34.7699 6.27577Z" fill="#F70032"/>
<path d="M26.3819 41.906C26.3747 41.9131 26.3674 41.9203 26.3602 41.9347C27.5833 41.5679 28.8136 41.2082 30.0367 40.8413C30.0223 40.8341 30.015 40.8269 30.0006 40.8197C30.2539 40.9564 30.4999 41.0859 30.7532 41.2226C30.7388 41.2154 30.7315 41.2082 30.7171 41.201C30.4637 41.0643 30.2177 40.9348 29.9644 40.7981C29.4288 40.5967 28.8715 40.5463 28.307 40.6399C27.1997 40.8269 26.2589 41.5966 25.8608 42.6469C25.5641 43.431 25.593 44.3086 25.9404 45.0712C26.172 45.5747 26.5122 45.9991 26.9681 46.3229C27.4458 46.661 27.9741 46.8624 28.5531 46.9199C28.582 46.9199 28.611 46.9199 28.6399 46.9199C28.915 46.9055 29.19 46.8983 29.4578 46.8912C30.0006 46.7976 30.4927 46.5746 30.9197 46.2365C31.1079 46.0423 31.296 45.8409 31.4842 45.6467C31.8244 45.1791 32.0198 44.6539 32.0777 44.0784C32.0777 44.0712 32.0849 44.0569 32.0849 44.0497C32.1356 43.5029 32.0415 42.9706 31.8171 42.4671C31.477 41.7117 30.8329 41.1146 30.0512 40.8269C29.5157 40.6327 28.9729 40.5751 28.4083 40.6686C28.1478 40.7478 27.8945 40.8269 27.634 40.906C27.1273 41.1218 26.7076 41.4599 26.3819 41.906Z" fill="#B70027"/>
<path d="M30.3697 40.3953C30.8474 40.3593 31.0717 39.7622 30.7388 39.4241C30.5868 39.2658 30.3986 39.1723 30.167 39.2083C29.9572 39.2443 29.7762 39.3881 29.7039 39.5896C29.6315 39.791 29.6677 40.014 29.7979 40.1794C29.9427 40.3593 30.1453 40.4096 30.3697 40.3953Z" fill="#B70027"/>
<path d="M24.5436 42.8987C25.2818 43.172 25.716 42.0354 24.9778 41.7621C24.2324 41.4815 23.8054 42.6181 24.5436 42.8987Z" fill="#B70027"/>
<path d="M32.6857 45.4093C32.9824 45.5172 33.3153 45.3661 33.4311 45.0784C33.5397 44.7834 33.3877 44.4525 33.0982 44.3374C32.8015 44.2295 32.4686 44.3806 32.3528 44.6683C32.2442 44.9633 32.3962 45.3014 32.6857 45.4093Z" fill="#B70027"/>
<path d="M28.0175 48.0421C27.9958 47.9055 27.9524 47.7328 27.8439 47.6249C27.7932 47.5746 27.7353 47.5098 27.6774 47.4667C27.5109 47.3444 27.3445 47.33 27.1491 47.3516C27.3083 47.3875 27.4748 47.4235 27.634 47.4667C27.6267 47.4667 27.6267 47.4595 27.6195 47.4595C27.4169 47.3444 27.2142 47.294 26.9898 47.3947C26.7076 47.5242 26.6135 47.7832 26.628 48.0709C26.628 48.0781 26.628 48.0853 26.628 48.0853C26.6642 47.927 26.7004 47.7688 26.7438 47.6033C26.6714 47.7328 26.6207 47.7976 26.6063 47.9558C26.5918 48.0925 26.628 48.1932 26.6714 48.3155C26.7293 48.4738 26.8523 48.5745 26.9754 48.6824C27.1563 48.8263 27.4313 48.8406 27.634 48.7471C27.909 48.6248 28.061 48.3299 28.0175 48.0421Z" fill="#B70027"/>
<path d="M27.9016 44.5461C28.097 44.7619 28.249 44.8913 28.524 44.9921C28.8859 45.1287 29.2912 45.1144 29.6458 44.9561C30.5071 44.5676 30.7749 43.4382 30.1814 42.7045C29.6748 42.0858 28.7339 41.9923 28.1187 42.4887C27.5325 42.9706 27.3661 43.9634 27.9016 44.5461Z" fill="#0C0A35"/>
<path d="M29.5301 42.0211C30.2032 42.2728 30.594 41.237 29.9209 40.9852C29.2551 40.7262 28.857 41.7693 29.5301 42.0211Z" fill="#0C0A35"/>
<path d="M26.6207 43.4166C26.8596 43.5029 27.1346 43.3807 27.2214 43.1433C27.3083 42.9059 27.1853 42.6397 26.9464 42.5462C26.7076 42.4599 26.4326 42.5822 26.3457 42.8196C26.2589 43.0569 26.3819 43.3231 26.6207 43.4166Z" fill="#0C0A35"/>
<path d="M28.09 46.3085C28.7413 46.5531 29.1249 45.5459 28.4736 45.3014C27.815 45.0568 27.4314 46.0639 28.09 46.3085Z" fill="#0C0A35"/>
<path d="M30.8256 44.8841C31.0789 44.9776 31.3756 44.8481 31.4697 44.5964C31.5638 44.3446 31.4335 44.0496 31.1802 43.9561C30.9269 43.8626 30.6302 43.9921 30.5361 44.2439C30.442 44.4957 30.5723 44.7906 30.8256 44.8841Z" fill="#0C0A35"/>
<path d="M25.9909 15.3397C26.4831 15.6203 27.0838 15.5052 27.6338 15.4836C28.2562 15.462 29.0234 15.5484 29.5807 15.2678C29.6964 15.2103 29.6964 15.0232 29.5807 14.9657C29.0668 14.7139 28.4589 14.8506 27.8944 14.8865C27.2937 14.9225 26.5193 14.8578 25.9909 15.1743C25.933 15.2103 25.933 15.3038 25.9909 15.3397Z" fill="#0C0A35"/>
<path d="M40.4802 54.0704C40.1762 52.7468 39.9012 51.4088 39.7926 50.0492C39.6913 48.7759 39.7492 47.4954 39.7999 46.2222C39.8505 45.0352 39.894 43.8554 39.9446 42.6685C39.9808 41.7117 40.0242 40.7478 40.0604 39.791C40.0677 39.5536 40.0894 39.2947 40.2558 39.122C40.3644 39.0069 40.5308 38.9566 40.6828 38.9134C41.2835 38.7551 43.8094 35.3885 44.4173 35.5108C45.3871 41.0859 44.1423 46.2006 44.743 50.2074C46.3352 49.4881 47.7754 48.632 48.861 47.481C48.6439 49.0637 48.5353 50.7757 48.3254 52.3512C48.2241 53.0993 48.007 53.8259 47.7826 54.5524C47.3339 56.0271 46.8852 57.509 46.4293 58.9837C46.2701 59.5088 46.0457 60.1059 45.5246 60.3001C45.3364 60.3721 45.1338 60.3721 44.9311 60.3793C43.9324 60.3937 42.8034 60.3577 42.152 59.6024C41.848 59.2427 41.7033 58.7751 41.573 58.3219C41.175 56.9047 40.8059 55.4948 40.4802 54.0704Z" fill="#191956"/>
<path d="M43.1073 34.5828C39.5465 33.3527 38.5405 33.9426 38.6997 34.5972C38.801 35.0216 39.532 35.1871 39.959 35.295C40.3571 35.3957 40.1182 35.3957 40.5163 35.4892C40.6538 35.518 39.6912 35.4532 38.7359 35.6115C38.3957 35.6691 38.1714 35.9352 38.1642 36.2733C38.1497 37.0574 39.8649 37.1366 40.1038 37.3668C39.836 37.3164 38.9096 37.3883 38.6491 37.4747C38.3885 37.561 38.2365 37.8919 38.3017 38.1581C38.3668 38.4314 38.5767 38.6041 38.8517 38.6904C39.3294 38.8271 39.9156 38.899 40.4077 38.9853C40.0893 39.0429 39.6912 39.0213 39.3728 39.0789C39.1629 39.1148 38.9241 39.158 38.7431 39.2731C38.5622 39.3954 38.5477 39.6975 38.5984 39.8989C38.6635 40.1651 38.9675 40.273 39.2353 40.3521C39.8143 40.5176 42.5862 40.978 43.0566 40.6686C43.8455 40.1507 43.9106 39.5968 44.3304 38.5034C44.6126 37.7696 44.7646 36.2086 44.4172 35.5036C44.1494 34.9569 43.5632 34.7339 43.1073 34.5828Z" fill="#FFD6A1"/>
<path d="M43.3316 35.295C43.1073 35.3813 43.006 35.5683 43.0566 35.8057C43.1073 36.0503 43.4981 35.9927 43.4909 35.7482C43.4909 35.6762 43.4692 35.5971 43.5198 35.5395C43.5994 35.4244 43.4619 35.2446 43.3316 35.295Z" fill="#0C0A35"/>
<path d="M42.9409 36.7985C42.854 36.9567 42.8395 37.1869 42.883 37.3596C42.9336 37.561 43.2376 37.561 43.2883 37.3596C43.3317 37.1797 43.3172 36.9567 43.2304 36.7985C43.1725 36.6906 42.9988 36.6906 42.9409 36.7985Z" fill="#0C0A35"/>
<path d="M42.7672 38.3738C42.6297 38.5465 42.4632 38.8486 42.6442 39.0428C42.6948 39.1004 42.8106 39.1004 42.854 39.0428C42.9554 38.9205 42.9264 38.7623 43.0277 38.6328C43.1652 38.453 42.9119 38.194 42.7672 38.3738Z" fill="#0C0A35"/>
<path d="M42.3184 39.8846C42.2895 39.9781 42.2533 40.0716 42.2388 40.1723C42.1954 40.3881 42.4994 40.5464 42.6152 40.3306C42.6803 40.2011 42.702 40.0788 42.7165 39.9421C42.7382 39.7047 42.3763 39.676 42.3184 39.8846Z" fill="#0C0A35"/>
<path d="M29.1827 87.5641C29.0452 87.6648 28.8425 87.6432 28.6978 87.5497C28.553 87.4562 28.4517 87.3123 28.3649 87.1685C27.9668 86.5282 27.7063 85.8017 27.6122 85.0535C28.4372 84.7082 29.3709 84.6147 30.2466 84.7874C30.0295 85.6434 29.7327 86.4851 29.3709 87.2908C29.3274 87.3987 29.2768 87.4994 29.1827 87.5641Z" fill="#222272"/>
<path d="M26.0996 64.1559C24.0153 66.8895 23.5086 70.5151 23.6751 73.9393C23.704 74.5939 23.7692 75.2773 24.1383 75.8168C24.5508 76.4283 25.2746 76.7448 25.9766 76.975C29.6966 78.1908 33.9376 77.7591 37.332 75.8096C37.6214 75.6442 37.9399 75.414 37.9688 75.0831C37.9905 74.781 37.7662 74.522 37.5418 74.3062C36.9411 73.7235 36.297 73.1912 35.6167 72.7092C37.7517 70.3856 39.9012 67.7815 40.2558 64.6523C38.9604 65.0336 37.73 65.6234 36.6227 66.4004C36.9484 65.199 37.1438 63.9617 37.2089 62.7172C37.2379 62.1129 37.2379 61.4727 36.9194 60.9548C36.3766 60.0412 35.1463 59.8613 34.0896 59.7678C33.1198 59.6887 32.1211 59.6095 31.2019 59.9117C30.3986 60.1778 29.7255 60.7174 29.0742 61.2569C28.0103 62.1417 26.9464 63.0553 26.0996 64.1559Z" fill="#FFD6A1"/>
<path d="M27.8654 70.695C28.0391 70.5367 28.4589 70.2202 28.6543 70.1051C29.2767 69.7454 30.0366 69.7382 30.7531 69.803C31.3828 69.8605 32.121 70.3137 32.6059 70.7166C33.1704 71.1914 33.5612 71.6014 33.7349 72.0042C32.0776 73.2703 29.4504 73.8674 27.547 73.0114C27.2503 72.8747 26.7581 72.6013 26.5193 72.4574C26.845 71.6733 27.2358 71.2777 27.8654 70.695Z" fill="white"/>
<path d="M24.4713 67.278C24.891 67.7887 25.5713 68.0477 26.2372 68.0621C26.903 68.0837 27.5544 67.8894 28.1695 67.6377C29.1538 67.2348 30.0874 66.6665 30.8039 65.8896C31.5277 65.1127 32.027 64.1056 32.0994 63.0553C33.1416 63.674 34.7121 64.0264 35.6891 63.2999C36.1161 62.9834 36.3694 62.487 36.5793 62.005C38.0992 58.5233 38.2801 54.6243 38.4248 50.8333C38.461 49.9125 38.4972 48.9773 38.8229 48.1141C39.0183 47.6033 39.315 47.1142 39.3512 46.5674C39.3584 46.4667 39.3512 46.3516 39.2861 46.2725C39.1558 46.107 38.8953 46.179 38.6999 46.2581C36.9991 46.9991 35.2983 47.74 33.6048 48.4809C30.2901 49.9269 26.78 51.5311 24.8259 54.5596C24.1311 55.6386 23.6679 56.8472 23.2699 58.0701C22.7777 59.5736 22.3724 61.1346 22.4376 62.7172C22.5099 64.2998 23.4725 66.055 24.4713 67.278Z" fill="#0C0A35"/>
<path d="M39.7421 45.4524C38.2873 46.179 37.6215 47.5529 37.209 49.0852C36.6662 51.1066 36.2971 53.1208 35.6385 55.1135C34.9654 57.1205 34.3285 59.1563 34.0028 61.2569C33.7134 63.1056 35.226 64.2854 35.8484 65.8968C35.9352 66.127 36.2464 66.0838 36.2754 65.8392C36.478 64.084 34.5529 63.1704 34.6614 61.3432C34.7772 59.4369 35.4358 57.437 36.051 55.6314C36.6517 53.8546 37.0787 52.0778 37.4768 50.2506C37.6432 49.5024 37.7952 48.7111 38.1064 48.0061C38.3887 47.3659 38.7505 46.812 39.221 46.2941C39.7421 45.7258 39.6552 46.0711 39.894 45.5891C39.9157 45.4956 39.8289 45.4092 39.7421 45.4524Z" fill="#B70027"/>
<path d="M38.5551 45.3661C37.4116 45.6826 36.8109 46.812 36.3188 47.7976C35.6095 49.2291 35.0884 50.7757 34.6397 52.3008C33.9666 54.5956 33.308 56.876 32.6639 59.1707C31.9981 61.5446 32.1211 64.4077 32.4975 66.8248C32.5409 67.1269 32.9534 67.0046 32.9896 66.76C33.3225 64.271 32.6567 61.8324 33.2936 59.3434C33.8146 57.3292 34.3213 55.3293 34.9799 53.3511C35.4358 51.9843 35.8483 50.6247 36.355 49.2723C36.782 48.1428 37.3175 45.956 38.5768 45.4093C38.613 45.4021 38.5913 45.3517 38.5551 45.3661Z" fill="#B70027"/>
<path d="M36.0075 45.7329C35.8483 46.5602 35.2042 47.0278 34.7627 47.6824C34.2416 48.4449 33.8363 49.2938 33.3804 50.0923C32.4106 51.79 31.8533 53.8258 31.1874 55.6602C30.4131 57.7895 30.138 60.0699 29.8485 62.2999C29.6966 63.4797 29.5663 64.6666 29.5084 65.8608C29.4577 66.8823 29.1103 68.1124 29.4288 69.0979C29.5518 69.4864 30.1308 69.3281 30.0367 68.9325C29.8268 67.9829 30.1236 66.8247 30.1742 65.8608C30.2321 64.6666 30.3552 63.4869 30.5144 62.2999C30.8183 59.9764 31.1585 57.6744 31.9618 55.4588C32.6783 53.4949 33.2067 51.4519 34.1837 49.5887C34.6252 48.7543 35.0594 47.9989 35.6529 47.258C35.993 46.8336 36.2898 46.3588 36.3911 45.8265C36.42 45.5963 36.0582 45.4955 36.0075 45.7329Z" fill="#B70027"/>
<path d="M34.1113 47.071C32.6638 48.6176 31.2598 50.1067 30.3768 52.0562C29.5735 53.8402 29.0524 55.8041 28.5096 57.6744C27.974 59.552 27.5905 61.5734 27.3154 63.5013C27.0332 65.4867 27.1056 67.6664 26.295 69.5224C26.2081 69.7166 26.3456 69.9756 26.5845 69.9036C27.6773 69.5583 27.4747 67.5729 27.5977 66.7025C27.9161 64.4149 28.2635 62.1561 28.6833 59.8829C29.0524 57.8974 29.74 55.9911 30.3189 54.0632C31.1006 51.4591 32.5119 49.3154 34.314 47.2868C34.4515 47.1429 34.2416 46.9271 34.1113 47.071Z" fill="#B70027"/>
<path d="M30.8401 48.6824C29.5229 49.4449 29.1683 50.9124 28.5097 52.1929C27.728 53.7035 27.2504 55.3868 26.7582 56.9982C26.143 59.034 25.5134 61.1562 25.2384 63.2639C25.1081 64.2494 25.0357 65.235 24.9778 66.2277C24.9127 67.3427 24.4423 68.5153 24.6883 69.6303C24.7318 69.8173 25.014 69.8101 25.0647 69.6303C25.5134 67.9542 25.5858 66.2637 25.7233 64.5444C25.9042 62.3503 26.4977 60.185 27.0767 58.0629C27.5037 56.4875 27.9958 54.9336 28.5965 53.4158C29.1321 52.049 29.7979 49.8477 30.9993 48.9413C31.1513 48.8262 31.0138 48.5744 30.8401 48.6824Z" fill="#B70027"/>
<path d="M28.7846 49.6607C27.576 50.5527 26.8523 52.1569 26.143 53.4302C25.289 54.9696 24.6376 56.5594 23.9211 58.1708C23.3421 59.4729 23.2915 60.8684 23.154 62.2712C22.9948 63.9257 22.4375 65.7314 23.4797 67.2061C23.5593 67.314 23.7691 67.2924 23.7547 67.1341C23.6389 65.5731 23.704 64.1775 23.8777 62.6237C24.0514 61.0699 24.0804 59.6239 24.7245 58.1708C25.3179 56.8184 25.839 55.4588 26.5555 54.164C27.2648 52.8835 27.8293 50.8765 28.9656 49.9125C29.0958 49.783 28.9221 49.56 28.7846 49.6607Z" fill="#B70027"/>
<path d="M24.9561 61.9618C24.7606 61.8252 24.5073 61.8252 24.2757 61.8323C22.8355 61.8827 20.9321 62.0266 19.5425 62.4006C18.2615 62.7459 17.1542 63.2279 16.4956 64.3789C16.1627 64.9688 16.3147 65.9975 16.8285 66.4435C17.2049 66.7672 17.6102 66.8895 18.0733 67.0765C19.2241 67.5441 19.7596 68.8605 19.8031 70.0907C19.8465 71.328 19.7017 72.6516 20.3314 73.7163C20.8235 74.5435 21.721 75.0759 22.6546 75.3276C23.5882 75.5794 24.5725 75.5938 25.5423 75.601C25.9476 75.601 26.418 75.5794 26.6713 75.2629C26.9174 74.9536 26.845 74.5148 26.7509 74.1335C26.1936 71.7812 25.441 69.4145 25.6436 67.0118C25.7015 66.3356 25.8318 65.6666 25.8318 64.9832C25.8245 64.1343 25.6074 63.2927 25.2962 62.5014C25.2311 62.2999 25.137 62.0913 24.9561 61.9618Z" fill="#191956"/>
<path d="M20.2447 78.9676C20.2519 78.7231 20.2809 78.4713 20.4111 78.2699C20.6355 77.9246 21.077 77.8167 21.4823 77.7375C26.5411 76.7448 31.7882 76.1981 36.8543 77.1692C37.2017 77.234 37.5781 77.3347 37.7735 77.6224C37.9038 77.8167 37.9182 78.0612 37.9255 78.2914C37.9617 79.1763 37.9255 80.1042 37.5347 80.9027C37.1945 81.6005 36.63 82.4853 36.0582 83.0177C34.6976 84.2766 33.5469 84.8952 31.7448 85.3412C29.7473 85.8376 27.055 85.6649 25.1299 84.9456C23.8561 84.4708 22.8284 83.8306 21.8514 82.8882C20.7947 81.8883 20.194 80.428 20.2447 78.9676Z" fill="#0C0A35"/>
<path d="M16.8648 53.0561C16.7273 53.0202 16.597 52.9914 16.4595 52.9554C16.597 52.9986 16.7273 53.0274 16.8648 53.0561Z" fill="#FCC07E"/>
<path d="M26.3602 76.5003C24.8693 73.2919 24.6377 69.1412 24.6884 65.6522C24.7245 63.3359 25.441 59.9405 23.1179 58.401C22.9731 58.3075 22.8284 58.4874 22.8935 58.624C23.5738 60.0124 24.0877 61.0915 24.1021 62.6813C24.1238 64.3574 23.9501 66.0119 24.0442 67.688C24.2252 70.695 24.7028 73.9537 26.0345 76.6873C26.1431 76.9031 26.4543 76.7161 26.3602 76.5003Z" fill="#B70027"/>
<path d="M24.768 76.3996C23.0093 73.5868 23.8271 69.6088 23.4942 66.4507C23.2192 63.8394 23.306 60.8972 20.6282 59.4801C20.4907 59.4081 20.3387 59.552 20.4183 59.6887C21.2796 61.1634 22.2132 62.3 22.4448 64.0696C22.6474 65.645 22.8139 67.2636 22.908 68.8462C23.0744 71.6014 23.0093 74.1192 24.6088 76.4931C24.6739 76.601 24.8404 76.5075 24.768 76.3996Z" fill="#B70027"/>
<path d="M23.6027 76.529C22.4882 75.6442 22.4303 72.7164 22.3434 71.5151C22.2059 69.6231 22.329 67.7672 21.873 65.9184C21.3519 63.7963 20.7295 61.4655 18.9202 60.0628C18.8116 59.9764 18.6162 60.0915 18.7103 60.2282C20.3315 62.559 21.5111 65.6234 21.5618 68.4649C21.598 70.3497 21.7283 72.3207 22.1118 74.1695C22.3 75.0759 22.5171 76.2988 23.429 76.7664C23.5666 76.8312 23.7402 76.6369 23.6027 76.529Z" fill="#B70027"/>
<path d="M21.0119 77.1765C20.9395 76.1478 21.9962 75.5579 21.6995 74.4213C21.2218 72.5581 21.0698 70.659 20.7948 68.7527C20.527 66.8823 20.1145 64.9904 19.4125 63.2352C18.8914 61.9259 18.0301 60.1922 16.655 59.6096C16.5465 59.5664 16.3945 59.6671 16.4741 59.7894C16.9228 60.4512 17.509 60.9835 17.9722 61.6382C18.5078 62.4007 18.8335 63.2927 19.1302 64.1631C19.7381 65.9472 20.0638 67.8391 20.3171 69.7023C20.5198 71.2057 20.5487 72.9106 21.1132 74.3278C21.5475 75.4212 20.4691 76.1909 20.7586 77.2052C20.802 77.3491 21.0264 77.3275 21.0119 77.1765Z" fill="#B70027"/>
<path d="M19.5209 75.4141C20.4835 72.5582 19.6367 69.0405 18.6307 66.3069C17.9721 64.53 16.6621 60.5304 14.1001 61.0195C13.9699 61.0411 13.9192 61.2353 14.0205 61.3217C14.8818 62.0123 15.7358 62.2137 16.3437 63.264C17.0023 64.4006 17.5379 65.7314 18.0011 66.9543C18.9274 69.3858 19.9262 72.738 19.2676 75.3493C19.2386 75.5076 19.4702 75.5651 19.5209 75.4141Z" fill="#B70027"/>
<path d="M21.0986 73.9465C19.7886 74.8457 19.0215 76.3779 18.7826 77.939C18.551 79.5 18.8043 81.097 19.2096 82.622C20.9755 81.3703 22.5099 79.3705 23.7836 77.6296C24.1165 79.3633 25.0936 81.7012 25.9403 83.2551C27.5108 81.6005 28.6109 79.5575 30.0005 77.7519C30.4999 78.9317 30.992 80.1114 31.5131 81.2768C31.8388 82.0106 32.3382 82.7731 32.9099 83.3702C34.1837 81.6581 35.5371 79.5863 36.1305 77.5001C36.6516 79.054 37.0135 79.3633 38.3741 81.0826C38.6925 81.4854 39.3511 82.0106 39.7275 82.3559C40.1183 80.8452 40.5091 79.2986 40.4367 77.7375C40.3644 76.1765 39.7564 74.5651 38.4899 73.6372C37.9181 73.2199 37.0931 73.2343 36.3983 73.3494C32.3599 74.004 28.2273 74.0975 24.16 73.6156C22.9151 73.4717 21.4315 73.3566 20.6426 74.3277L21.0986 73.9465Z" fill="#222272"/>
<path d="M39.4163 78.2052C38.3958 77.2772 37.3536 76.5075 36.5792 75.3709C37.4767 75.3493 38.1859 75.3637 39.0761 75.3493C39.3945 75.8888 39.4669 78.2483 39.4163 78.2052Z" fill="#F70032"/>
<path d="M33.0113 78.6943C32.9678 78.7159 32.9244 78.6727 32.8955 78.6295C32.2079 77.608 31.6145 76.5218 31.1223 75.3924C32.2369 75.4356 33.3514 75.4715 34.466 75.5147C34.5239 75.7593 34.4008 76.0039 34.2923 76.2197C33.8797 77.0254 33.4672 77.8382 33.0547 78.6439C33.0474 78.6655 33.033 78.6871 33.0113 78.6943Z" fill="#F70032"/>
<path d="M25.0791 75.2486C26.0996 75.3421 27.4529 75.4428 28.4806 75.4428C27.9957 76.4283 27.0549 77.9246 26.3963 78.8022C25.7087 77.8311 25.26 76.4211 25.0791 75.2486Z" fill="#F70032"/>
<path d="M23.1394 75.155C22.7414 75.6514 22.4229 75.9751 21.9887 76.4427C21.388 77.0829 20.7149 77.5649 20.0708 78.1332C20.0708 77.2196 20.2807 76.2988 20.6787 75.4715C20.7222 75.3852 20.7656 75.2917 20.8452 75.2342C20.9755 75.1263 21.1709 75.1263 21.3446 75.1334C21.8801 75.1478 22.6039 75.1334 23.1394 75.155Z" fill="#F70032"/>
<path d="M13.6152 58.2859C13.2316 60.3792 12.9783 62.71 12.5947 64.8033C12.4934 65.3572 11.7117 70.4935 11.5525 71.3496C11.3861 71.3496 10.7709 71.2488 10.6044 71.2488C10.865 71.8531 10.8794 72.22 11.0459 72.9537C10.6696 72.6948 10.1991 72.3711 9.43922 72.7595C9.03393 72.9681 9.07011 73.5868 9.11354 73.9393C9.40303 76.4355 9.93136 78.2339 10.2353 80.3344C11.1472 78.5864 12.2256 76.9246 13.4559 75.378C13.702 75.0615 13.9626 74.745 14.0856 74.3637C14.2014 73.9824 14.1652 73.4861 13.8395 73.2559C13.2171 72.8243 12.7612 73.0041 12.3197 73.0904C12.573 72.5869 13.0434 72.1121 13.275 71.6013C12.9204 71.5941 12.6381 71.4575 12.2835 71.4503C12.5368 69.6087 12.9131 68.0692 13.2026 66.278C13.6658 63.4293 14.1724 60.2282 14.6211 57.3795C14.8021 56.2501 15.8804 50.5455 15.9166 50.4088C15.7285 50.3369 15.1422 50.2434 14.983 50.2146C14.7731 50.8476 13.8033 57.2356 13.6152 58.2859Z" fill="#141247"/>
<path d="M34.6252 66.8104C33.9304 67.055 33.1415 66.8032 32.5191 66.4148C31.3829 65.7026 30.565 64.5516 30.0946 63.2999C29.6169 62.0482 29.465 60.703 29.436 59.365C29.4215 58.7319 29.4433 58.0845 29.7038 57.509C30.2176 57.3436 30.7604 57.6313 31.2092 57.9406C32.9606 59.142 34.4949 60.9692 34.5239 63.0841C34.4008 60.5591 36.0292 58.0485 38.3886 57.1062C38.186 58.3866 37.4116 59.5304 37.2523 60.8181C37.0425 62.523 37.9109 64.3358 37.2306 65.9112C37.1727 66.0479 37.1004 66.1846 36.9773 66.2709C36.6589 66.5083 36.2102 66.3069 35.8121 66.3356C35.3779 66.3644 35.0232 66.6665 34.6252 66.8104Z" fill="#0C0A35"/>
<path d="M34.6252 66.8104C33.9304 67.055 33.1415 66.8032 32.5191 66.4147C31.3829 65.7025 30.565 64.5516 30.0946 63.2999C29.6169 62.0482 29.465 60.703 29.436 59.3649C29.4215 58.7319 29.4433 58.0845 29.7038 57.509C30.2176 57.3435 30.7604 57.6313 31.2092 57.9406C32.9606 59.1419 34.4949 60.9691 34.5239 63.0841C34.4008 60.5591 36.0292 58.0485 38.3886 57.1061C38.186 58.3866 37.4116 59.5304 37.2523 60.8181C37.0425 62.5229 37.9109 64.3358 37.2306 65.9112C37.1727 66.0478 37.1004 66.1845 36.9773 66.2708C36.6589 66.5082 36.2102 66.3068 35.8121 66.3356C35.3779 66.3644 35.0232 66.6665 34.6252 66.8104Z" fill="#191956"/>
<path d="M36.3478 67.1557C37.3538 66.7241 37.086 65.2062 37.0787 64.3358C37.0643 62.969 36.9847 61.6166 37.1873 60.257C37.361 59.1204 37.9906 58.142 38.2295 57.0414C38.2584 56.9119 38.1064 56.8184 38.0051 56.9119C36.8616 57.955 36.6083 59.7606 36.4636 61.2281C36.3622 62.2568 36.4419 63.3071 36.4563 64.3358C36.4636 65.0623 36.6734 66.3068 36.1524 66.8967C36.0221 67.0478 36.1813 67.2276 36.3478 67.1557Z" fill="#B70027"/>
<path d="M35.3779 67.4793C36.2753 66.0118 35.595 64.6666 35.624 63.048C35.6457 62.0985 35.6746 61.1633 35.8338 60.2209C36.0003 59.221 36.5793 58.3794 36.7819 57.401C36.8109 57.2715 36.6734 57.1492 36.5503 57.2212C35.2621 58.0125 35.1246 60.0627 35.0377 61.4223C34.9798 62.3359 34.9798 63.2782 35.0522 64.1846C35.1463 65.2853 35.5516 66.2564 35.1246 67.3642C35.0667 67.5225 35.2983 67.6088 35.3779 67.4793Z" fill="#B70027"/>
<path d="M35.1535 67.2996C34.8423 66.9687 34.7555 66.3068 34.5962 65.8968C34.3574 65.2781 34.1186 64.6595 33.9014 64.0408C33.46 62.7748 33.46 61.408 33.0692 60.1275C32.7869 59.1923 32.2151 58.3722 31.5783 57.6385C30.9993 56.9767 30.3696 56.1278 29.465 55.9696C29.2117 55.9264 28.9801 56.2213 29.1972 56.4299C31.021 58.1492 32.3816 59.6239 32.8014 62.1849C33.0692 63.8034 33.6843 66.3284 34.9943 67.465C35.1101 67.537 35.2476 67.4003 35.1535 67.2996Z" fill="#B70027"/>
<path d="M33.8074 67.5944C32.9244 66.8894 32.5553 65.5298 32.2224 64.5083C31.8026 63.2351 31.4914 61.9402 31.021 60.6813C30.5506 59.4368 29.313 56.5234 27.5833 56.8543C27.424 56.8831 27.4096 57.0773 27.4964 57.178C28.1912 58.0197 28.9945 58.6599 29.588 59.6167C30.2828 60.7389 30.6953 62.0337 31.0861 63.2854C31.5855 64.8824 32.0198 66.9686 33.6409 67.8102C33.7712 67.8822 33.9376 67.7023 33.8074 67.5944Z" fill="#B70027"/>
<path d="M30.0439 70.7309C29.5446 70.7309 29.1176 71.1482 29.1176 71.6517C29.1176 72.1481 29.5373 72.5725 30.0439 72.5725C30.5505 72.5725 30.9631 72.1553 30.9631 71.6517C30.9703 71.1482 30.5505 70.7309 30.0439 70.7309Z" fill="#0C0A35"/>
<path d="M36.9194 66.2205C36.2681 66.4795 35.5009 66.1054 34.8496 66.4507C34.4008 66.6881 34.1186 67.0694 34.0679 67.5801C34.039 67.9182 34.1041 68.4218 34.437 68.6088C34.7555 68.7887 35.3562 68.7095 35.3706 68.2707C35.3706 68.1988 35.32 68.1484 35.2621 68.1269C35.0377 68.0333 34.7772 68.2923 34.589 68.1197C34.3936 67.9398 34.4877 67.5298 34.5673 67.3212C34.741 66.8248 35.3055 66.7241 35.7687 66.7169C36.2608 66.7025 36.5793 66.6881 36.999 66.4076C37.0859 66.3428 37.028 66.1774 36.9194 66.2205Z" fill="#0C0A35"/>
<path d="M35.9858 82.1617C35.7108 82.1617 35.7108 82.5933 35.9858 82.5933C36.2681 82.5861 36.2681 82.1617 35.9858 82.1617Z" fill="#B70027"/>
<path d="M34.9654 82.6364C35.0088 82.6005 35.0378 82.5573 35.045 82.507C35.074 82.3415 34.9509 82.2192 34.7845 82.248C34.7772 82.248 34.77 82.248 34.7628 82.248C34.8207 82.2552 34.8786 82.2624 34.9365 82.2696C34.9292 82.2624 34.922 82.2624 34.9147 82.2552C34.7555 82.1617 34.5529 82.284 34.5529 82.4638C34.5456 82.6868 34.8062 82.7731 34.9654 82.6364Z" fill="#F70032"/>
<path d="M31.144 82.3055C30.869 82.3055 30.869 82.7299 31.144 82.7299C31.419 82.7299 31.419 82.3055 31.144 82.3055Z" fill="#F70032"/>
<path d="M29.6604 82.2912C29.3058 82.2912 29.3058 82.8379 29.6604 82.8379C30.015 82.8379 30.015 82.2912 29.6604 82.2912Z" fill="#F70032"/>
<path d="M28.032 82.2264C27.5977 82.2264 27.5977 82.8954 28.032 82.8954C28.4662 82.8954 28.4662 82.2264 28.032 82.2264Z" fill="#F70032"/>
<path d="M24.1961 82.2912C23.8415 82.2912 23.8415 82.8379 24.1961 82.8379C24.5508 82.8379 24.5508 82.2912 24.1961 82.2912Z" fill="#F70032"/>
<path d="M22.85 82.3919C22.4447 82.3919 22.4447 83.0177 22.85 83.0177C23.2553 83.0177 23.2553 82.3919 22.85 82.3919Z" fill="#F70032"/>
<path d="M31.6289 73.3279C31.1367 73.0473 30.536 73.1624 29.986 73.184C29.3636 73.2056 28.5964 73.1192 28.0319 73.3998C27.9161 73.4573 27.9161 73.6444 28.0319 73.7019C28.5458 73.9537 29.1537 73.817 29.7182 73.7811C30.3189 73.7451 31.0933 73.8098 31.6216 73.4933C31.6868 73.4573 31.694 73.3638 31.6289 73.3279Z" fill="#0C0A35"/>
<path d="M17.1397 34.5972C17.4437 35.9208 17.7187 37.2588 17.8273 38.6184C17.9286 39.8917 17.8707 41.1722 17.8201 42.4454C17.7694 43.6324 17.726 44.8122 17.6753 45.9991C17.6391 46.9559 17.5957 47.9198 17.5595 48.8766C17.5523 49.114 17.5306 49.3729 17.3641 49.5456C17.2555 49.6607 17.0891 49.7182 16.9371 49.7542C16.3364 49.9125 13.8106 53.2791 13.2026 53.1568C12.2328 47.5817 13.4777 42.467 12.877 38.4602C11.2847 39.1795 9.84451 40.0428 8.75891 41.1865C8.97603 39.6039 9.08459 37.899 9.29447 36.3164C9.3958 35.5683 9.61292 34.8417 9.83727 34.1152C10.286 32.6405 10.7347 31.1658 11.1907 29.6839C11.3499 29.1588 11.5742 28.5617 12.0953 28.3675C12.2835 28.2955 12.4861 28.2955 12.6888 28.2883C13.6875 28.2739 14.8166 28.3099 15.4679 29.0652C15.7719 29.4249 15.9166 29.8925 16.0469 30.3457C16.4522 31.7629 16.8141 33.1728 17.1397 34.5972Z" fill="#191956"/>
<path d="M14.5199 54.0848C18.0806 55.315 19.0866 54.7251 18.9274 54.0704C18.8261 53.646 18.0951 53.4806 17.6681 53.3727C17.27 53.272 17.5089 53.272 17.1108 53.1784C16.9733 53.1497 17.9359 53.2144 18.8912 53.0561C19.2314 52.9986 19.4557 52.7324 19.463 52.3943C19.4774 51.6102 17.7622 51.5311 17.5233 51.3009C17.7911 51.3512 18.7175 51.2793 18.978 51.193C19.2386 51.1067 19.3906 50.7758 19.3327 50.5096C19.2675 50.2362 19.0577 50.0636 18.7826 49.9845C18.305 49.8478 17.7188 49.7758 17.2266 49.6895C17.5451 49.632 17.9431 49.6535 18.2616 49.596C18.4714 49.56 18.7103 49.5169 18.8912 49.4018C19.0721 49.2795 19.0866 48.9773 19.0359 48.7759C18.9708 48.5098 18.6668 48.3947 18.3991 48.3227C17.8201 48.1573 15.0482 47.6969 14.5777 48.0062C13.7889 48.5241 13.7237 49.0781 13.304 50.1715C13.0217 50.9052 12.8697 52.4663 13.2171 53.1712C13.4777 53.7108 14.0639 53.9338 14.5199 54.0848Z" fill="#FFD6A1"/>
<path d="M14.2955 53.3726C14.5198 53.2863 14.6211 53.0993 14.5705 52.8619C14.5198 52.6173 14.129 52.6749 14.1362 52.9194C14.1362 52.9914 14.1579 53.0705 14.1073 53.1281C14.0204 53.2432 14.1652 53.423 14.2955 53.3726Z" fill="#0C0A35"/>
<path d="M14.6791 51.8692C14.7659 51.7109 14.7804 51.4807 14.737 51.3081C14.6863 51.1066 14.3824 51.1066 14.3317 51.3081C14.2883 51.4879 14.3027 51.7109 14.3896 51.8692C14.4547 51.9771 14.6212 51.9771 14.6791 51.8692Z" fill="#0C0A35"/>
<path d="M14.86 50.2937C14.9975 50.1211 15.1639 49.8189 14.983 49.6247C14.9323 49.5672 14.8165 49.5672 14.7731 49.6247C14.6718 49.747 14.7008 49.9053 14.5994 50.0348C14.4547 50.2146 14.708 50.4736 14.86 50.2937Z" fill="#0C0A35"/>
<path d="M15.3086 48.7903C15.3376 48.6968 15.3738 48.6033 15.3882 48.5025C15.4317 48.2867 15.1277 48.1285 15.0119 48.3443C14.9468 48.4738 14.9251 48.5961 14.9106 48.7327C14.8816 48.9701 15.2435 48.9917 15.3086 48.7903Z" fill="#0C0A35"/>
<path d="M50.598 71.9179C50.598 71.774 50.6559 71.5654 50.6559 71.4143C50.6559 71.2633 50.6559 71.1194 50.6414 70.9683C50.5835 70.4648 50.4026 69.9828 50.0262 69.6519C50.3664 69.6303 51.2349 69.6303 51.575 69.6519C51.1987 69.99 51.0105 70.4648 50.9599 70.9683C50.9454 71.1122 50.9454 71.2633 50.9454 71.4143C50.9454 71.5582 51.0033 71.7668 51.0033 71.9179H50.598Z" fill="#0C0A35"/>
<path d="M50.7282 71.3639C50.4243 70.8963 49.8887 70.5726 49.3314 70.5942C48.7742 70.6157 48.2314 71.0186 48.1228 71.5581C48.0287 72.0329 48.2603 72.5293 48.5932 72.8818C48.9261 73.2414 49.3821 73.4716 49.7946 73.745C50.2144 74.0184 50.8006 74.7017 50.8006 74.7017C50.8006 74.7017 51.4447 74.0399 51.7994 73.7666C52.1902 73.4716 52.6679 73.2486 53.0008 72.8889C53.3337 72.5293 53.5653 72.0401 53.4712 71.5653C53.3626 71.0186 52.8198 70.6158 52.2626 70.6014C51.7053 70.5798 51.1697 70.9107 50.8658 71.3711H50.7282V71.3639Z" fill="#0C0A35"/>
<path d="M7.57933 16.0663C7.57933 16.2102 7.52144 16.4188 7.52144 16.5699C7.52144 16.7209 7.52144 16.8648 7.53591 17.0159C7.59381 17.5194 7.77474 18.0014 8.15108 18.3323C7.81093 18.3539 6.94969 18.3539 6.60229 18.3323C6.97864 17.9942 7.16681 17.5122 7.21747 17.0159C7.23194 16.872 7.23194 16.7209 7.23194 16.5699C7.23194 16.426 7.17404 16.2174 7.17404 16.0663H7.57933Z" fill="#0C0A35"/>
<path d="M7.45621 16.6202C7.76017 17.0878 8.29574 17.4115 8.85301 17.3899C9.41029 17.3684 9.95309 16.9655 10.0616 16.426C10.1557 15.9512 9.92414 15.4548 9.59122 15.1024C9.2583 14.7427 8.80235 14.5125 8.38982 14.2391C7.97006 13.9658 7.38383 13.2824 7.38383 13.2824C7.38383 13.2824 6.73971 13.9442 6.38508 14.2175C5.99426 14.5125 5.5166 14.7355 5.18368 15.0952C4.85077 15.4548 4.61917 15.944 4.71326 16.4188C4.82182 16.9655 5.36462 17.3684 5.92189 17.3827C6.47917 17.4043 7.01473 17.0734 7.3187 16.613H7.45621V16.6202Z" fill="#0C0A35"/>
<path d="M11.169 12.3473H10.0473L7.58657 7.83683L5.70486 10.1748V12.3545H4.66992V4.18246H5.69762V8.92308L9.41761 4.18246H10.5322L8.30306 7.03834L11.169 12.3473Z" fill="#0C0A35"/>
<path d="M47.2036 76.0255H48.3254L50.7861 80.5359L52.6678 78.198V76.0183H53.6955V84.1903H52.6678V79.4497L48.9478 84.1903H47.8333L50.0624 81.3416L47.2036 76.0255Z" fill="#0C0A35"/>
<path d="M21.2578 83.9457H8.78063C6.41402 83.9457 4.48889 81.9099 4.48889 79.4137V22.181C4.48889 22.109 4.54679 22.0443 4.61916 22.0443C4.69154 22.0443 4.75667 22.1018 4.75667 22.181V79.4137C4.75667 81.766 6.56601 83.6795 8.78063 83.6795H21.2578C21.3302 83.6795 21.3953 83.7371 21.3953 83.809C21.3881 83.8882 21.3302 83.9457 21.2578 83.9457Z" fill="#191956"/>
<path d="M46.7911 83.9457H37.9399C37.8675 83.9457 37.8024 83.8882 37.8024 83.8091C37.8024 83.7371 37.8603 83.6796 37.9399 83.6796H46.7984C46.8707 83.6796 46.9286 83.7371 46.9286 83.8091C46.9286 83.8882 46.8708 83.9457 46.7911 83.9457Z" fill="#191956"/>
<path d="M53.7534 66.609C53.681 66.609 53.6159 66.5514 53.6159 66.4723V8.96622C53.6159 6.61389 51.8065 4.70038 49.5919 4.70038H37.2667C37.1944 4.70038 37.1365 4.64283 37.1365 4.5709C37.1365 4.49896 37.1944 4.43422 37.2667 4.43422H49.5919C51.9585 4.43422 53.8837 6.47002 53.8837 8.96622V66.4795C53.8909 66.5514 53.8258 66.609 53.7534 66.609Z" fill="#191956"/>
<path d="M20.5847 4.70038H12.0012C11.9289 4.70038 11.871 4.64283 11.871 4.5709C11.871 4.49896 11.9289 4.43422 12.0012 4.43422H20.592C20.6643 4.43422 20.7295 4.49176 20.7295 4.5709C20.7222 4.63564 20.6643 4.70038 20.5847 4.70038Z" fill="#191956"/>
</svg>
