<svg width="58" height="88" viewBox="0 0 58 88" fill="none" xmlns="http://www.w3.org/2000/svg">
<path d="M4.79607 0C2.14922 0 0 2.14302 0 4.77342V83.2266C0 85.857 2.15643 88 4.79607 88H53.1967C55.8436 88 58 85.857 58 83.2266V4.77342C58 2.14302 55.8436 0 53.1967 0H4.79607Z" fill="white"/>
<path d="M45.0038 54.0628C44.9749 54.5215 44.8956 54.9946 44.6504 55.4031C44.3186 55.955 43.7272 56.342 43.107 56.6431C40.7703 57.797 37.9648 57.9475 35.2891 57.8328C34.438 57.797 33.4716 57.7755 32.8874 58.3202C32.5124 58.6642 32.397 59.1588 32.3321 59.6318C32.195 60.6137 32.2095 61.61 32.3826 62.5847C32.4186 62.7854 32.4547 63.0004 32.3609 63.1868C32.26 63.3875 32.022 63.5022 31.7984 63.6097C30.291 64.3121 27.1321 66.9998 25.5599 67.5804C25.293 65.8029 26.5768 61.8609 25.1993 60.5349C23.6631 59.0584 21.2182 58.6857 18.9608 58.3847C16.7106 58.0837 14.2657 57.6823 12.7583 56.1844C11.828 55.2598 11.3952 54.0127 11.2798 52.7871C11.1645 51.5543 11.3592 50.3215 11.5467 49.1031C11.5755 48.9167 11.6116 48.716 11.7631 48.5727C11.9794 48.372 12.3472 48.3935 12.6574 48.4078C14.107 48.4939 15.5566 48.2932 16.9991 48.1211C21.2831 47.6051 25.6536 47.3256 29.9232 47.9133C31.344 48.1068 32.7504 48.4007 34.1712 48.6014C36.2555 48.8952 38.3831 49.0027 40.4962 48.8451C41.4122 48.7805 42.3714 48.6659 43.2296 48.9597C44.0879 49.2536 44.7802 50.1208 44.4268 50.8662C44.874 51.8696 45.0687 52.9734 45.0038 54.0628Z" fill="#FCC07E"/>
<path d="M13.3714 34.2166C13.4002 33.7579 13.4795 33.2849 13.7247 32.8764C14.0565 32.3245 14.6479 31.9374 15.2681 31.6364C17.6049 30.4825 20.4104 30.332 23.0933 30.4467C23.9443 30.4825 24.9108 30.504 25.495 29.9593C25.8628 29.6152 25.9854 29.1207 26.0503 28.6477C26.1873 27.6657 26.1729 26.6695 25.9998 25.6947C25.9637 25.4941 25.9205 25.279 26.0214 25.0927C26.1224 24.892 26.3604 24.7773 26.584 24.6698C28.0913 23.9674 31.2502 21.2797 32.8225 20.6991C33.0821 22.4766 31.8056 26.4186 33.1831 27.7446C34.7193 29.221 37.1642 29.5937 39.4144 29.8948C41.6646 30.1958 44.1095 30.5972 45.6168 32.0951C46.5472 33.0197 46.9799 34.2668 47.0953 35.4924C47.2035 36.7252 47.016 37.958 46.8285 39.1764C46.7996 39.3628 46.7635 39.5634 46.6121 39.7068C46.3957 39.9075 46.0279 39.886 45.7178 39.8716C44.2682 39.7856 42.8185 39.9863 41.3761 40.1583C37.0921 40.6672 32.7215 40.9539 28.4519 40.3662C27.0311 40.1727 25.6248 39.8788 24.204 39.6781C22.1197 39.3843 19.9921 39.2768 17.8789 39.4344C16.963 39.4989 16.0038 39.6136 15.1455 39.3198C14.2873 39.0259 13.5949 38.1587 13.9483 37.4133C13.5012 36.4027 13.2992 35.3061 13.3714 34.2166Z" fill="#FCC07E"/>
<path d="M43.107 35.3275C43.6191 35.3562 46.8646 34.0733 47.1891 35.2559C47.6723 37.0262 46.3958 40.0938 46.9006 41.5774C47.3189 42.8102 44.9966 44.5805 45.0904 45.8635C45.2635 48.372 45.8765 53.3676 44.8884 53.4178C43.9004 53.4751 41.441 53.1024 40.453 53.0666C31.0772 52.7082 25.5094 52.8659 17.266 52.5075C15.7298 52.443 13.6238 52.7727 13.5734 52.7799C12.7944 52.8946 10.6596 54.4069 10.4649 52.5649C10.2774 50.7946 10.3423 47.2826 10.4938 45.5123C10.5947 44.3153 10.6957 43.1184 10.8472 41.9286C11.1068 39.8859 11.5107 37.8504 12.0588 35.8508C12.1165 35.6357 12.1814 35.4207 12.3329 35.2415C12.5132 35.0265 12.8017 34.9118 13.0829 34.8115C17.1866 33.3135 21.8168 33.6576 26.2451 34.0374C27.839 34.1736 29.4473 34.3098 30.9979 34.6825C32.0869 34.9405 40.8785 35.1985 43.107 35.3275Z" fill="#191956"/>
<path d="M36.5583 79.6716C38.1666 78.0374 38.2315 69.3937 38.2459 69.1715C38.2892 68.1322 37.366 62.5489 37.7843 61.5598C38.1233 60.7643 38.9166 60.3916 39.3782 59.6677C39.847 58.9438 39.9913 57.9834 39.6234 57.2021C39.3061 56.5284 38.657 56.0482 37.9646 55.7758C36.2121 55.0949 34.4018 55.3458 32.7431 56.2345C32.4618 56.3851 31.993 56.8079 31.7622 57.0301C31.517 57.2595 31.3295 57.5533 31.1997 57.8615C30.9112 58.5424 30.8967 59.295 30.9256 60.0332C31.0338 62.3554 31.6468 64.6274 32.2526 66.8708C32.4257 67.5015 32.5988 68.1394 32.9306 68.7056C33.7528 70.0674 31.6324 80.5603 36.5583 79.6716Z" fill="#0C0A35"/>
<path d="M10.5442 53.5755C10.4865 53.3461 10.4432 53.0953 10.5514 52.8874C10.6596 52.6724 10.8904 52.5506 11.1067 52.4431C15.6504 50.171 18.6434 47.5478 22.5452 44.3082C24.4275 42.7529 36.003 32.9337 39.6235 30.1313C39.811 29.9879 40.0058 29.8374 40.2293 29.7657C40.5683 29.6582 40.9361 29.7299 41.2895 29.8088C42.6815 30.1098 44.095 30.418 45.3067 31.1634C46.5183 31.9088 47.3333 33.1774 47.189 35.2631C43.143 37.2771 37.2796 43.0324 30.9978 47.1894C29.5986 48.114 20.4248 55.6755 18.0592 58.6858C17.9294 58.8506 17.7924 59.0226 17.5976 59.1086C17.3308 59.2305 16.3067 59.209 16.0326 59.1158C13.7392 58.3489 11.1139 55.912 10.5442 53.5755Z" fill="#0C0A35"/>
<path d="M35.6497 74.9555C37.3517 73.7442 38.9023 69.881 36.3709 68.6339C36.2483 68.5766 36.0896 68.6984 36.1761 68.8274C36.8252 69.8882 37.2291 70.6981 37.0128 71.9811C36.8397 73.006 36.2338 74.0452 35.5487 74.8193C35.4838 74.891 35.5631 75.0128 35.6497 74.9555Z" fill="#B70027"/>
<path d="M36.306 68.7271C36.1473 68.2827 35.9382 67.8885 35.6497 67.5087C35.3756 67.1431 35.0727 66.6414 34.64 66.4551C34.5318 66.4049 34.402 66.4837 34.4308 66.6127C34.5318 67.0284 34.9068 67.351 35.1809 67.6663C35.5055 68.039 35.8372 68.4189 36.1473 68.8059C36.2122 68.8919 36.3348 68.8131 36.306 68.7271Z" fill="#B70027"/>
<path d="M35.0222 74.1241C36.7531 73.565 36.7964 70.8415 35.1736 70.1247C35.051 70.0746 34.914 70.1821 34.9861 70.3111C35.2818 70.8271 35.7073 71.1998 35.8444 71.8019C36.0103 72.5401 35.5992 73.565 34.9284 73.9019C34.8058 73.9592 34.8924 74.1671 35.0222 74.1241Z" fill="#B70027"/>
<path d="M37.2796 80.4528C36.5151 79.2415 36.2627 77.851 36.5296 76.4534C36.782 75.1275 38.1235 74.3964 38.6283 73.1923C39.6308 70.7984 38.8447 68.5264 37.395 66.4981C36.5079 65.2581 36.2411 63.624 36.2339 62.1404C36.2267 60.8717 36.7459 59.6246 36.7387 58.3345C36.7315 57.4243 36.2699 56.5857 35.7435 55.8761C35.3684 55.3744 34.9429 54.9659 34.5967 54.4355C34.2073 53.855 34.1712 53.1239 33.8683 52.5075C33.789 52.3498 33.5293 52.4573 33.587 52.6294C33.9188 53.6543 34.0702 54.5215 34.6688 55.4461C34.9934 55.9478 35.4261 56.3563 35.7362 56.8652C36.3132 57.8041 36.205 58.9079 36.0536 59.94C35.6785 62.4199 35.5271 64.5486 36.9046 66.7919C37.8061 68.2612 38.5345 69.5155 38.5778 71.3073C38.6211 73.0561 37.0921 74.1886 36.306 75.5718C35.4333 77.1128 36.0464 79.3203 37.2292 80.5029C37.2508 80.5173 37.3013 80.4886 37.2796 80.4528Z" fill="#B70027"/>
<path d="M38.1955 79.3562C37.1569 78.8975 37.294 77.8869 37.8132 77.077C38.2171 76.4534 39.0177 75.966 39.1908 75.2206C39.2196 75.0916 39.0898 74.9913 38.9672 75.0486C38.145 75.4643 36.9622 76.8046 36.8612 77.765C36.7747 78.5821 37.2363 79.521 38.1666 79.4637C38.2171 79.4565 38.2532 79.3848 38.1955 79.3562Z" fill="#B70027"/>
<path d="M40.0995 67.1717C40.0345 66.9496 39.8614 66.8349 39.6811 66.6844C39.1835 66.2758 38.9744 65.8171 38.6282 65.2868C37.5608 63.6741 37.5031 62.0543 38.4911 60.3557C39.71 58.2485 39.3278 55.2239 37.0631 54.0484C36.9333 53.9768 36.7602 54.1201 36.8468 54.2635C37.3372 55.0375 38.0368 55.4747 38.3613 56.3993C38.6714 57.2809 38.5561 58.4635 38.3181 59.3307C38.0512 60.3126 37.3805 61.0079 37.2435 62.0686C37.1208 63.0721 37.1208 64.1902 37.7844 65.0216C38.1522 65.4731 38.419 66.1038 38.8013 66.5195C39.1114 66.8564 39.6162 66.9496 39.9264 67.2649C40.0057 67.3366 40.1283 67.2649 40.0995 67.1717Z" fill="#B70027"/>
<path d="M34.3659 64.8711C34.3586 63.5021 34.0846 62.384 34.7553 61.0868C35.1015 60.413 35.4549 59.4956 35.4405 58.7359C35.3972 57.0946 34.0774 55.8045 32.7576 54.9587C32.6566 54.8942 32.5268 55.0232 32.5917 55.1236C32.9451 55.6396 33.3778 56.0625 33.8033 56.5212C34.7697 57.5533 34.813 58.7144 34.4813 60.0332C34.3009 60.7499 33.861 61.3376 33.7023 62.0687C33.5148 62.9431 33.9764 64.0468 34.0846 64.8854C34.1062 65.0503 34.3659 65.0574 34.3659 64.8711Z" fill="#B70027"/>
<path d="M33.0029 63.0793C32.7432 61.9397 32.8442 61.0509 33.2264 59.9687C33.4212 59.4168 33.5149 58.7574 33.3851 58.184C33.1327 57.0659 32.5052 55.998 31.4162 55.5249C31.3008 55.4748 31.1782 55.6038 31.2792 55.7041C32.462 56.9512 33.3274 58.0478 32.8586 59.8612C32.5413 61.1011 32.3826 61.8895 32.6927 63.1581C32.7432 63.3731 33.0534 63.2871 33.0029 63.0793Z" fill="#B70027"/>
<path d="M31.9787 63.1509C31.5387 61.6314 32.4547 59.9328 32.0219 58.3488C31.7551 57.3669 31.0195 56.213 29.9016 56.1914C29.7213 56.1843 29.678 56.4136 29.815 56.5068C31.3007 57.4887 31.6253 58.9795 31.5532 60.6567C31.5243 61.3089 31.2791 62.7137 31.8921 63.2082C31.9282 63.2297 32.0003 63.2011 31.9787 63.1509Z" fill="#B70027"/>
<path d="M23.8794 81.9723C23.8939 82.0726 23.7424 82.0941 23.6487 82.0655C23.252 81.9723 22.8625 81.8576 22.4803 81.7143C21.4778 81.3344 20.533 80.7682 19.8406 79.9583C18.5929 78.4962 18.3333 76.4535 18.2684 74.5398C18.2035 72.6261 17.9222 70.5906 17.3597 68.4046C17.3308 67.9244 20.9153 67.9172 21.5788 67.9674C21.7735 70.82 21.961 73.6797 22.4226 76.4965C22.5524 77.2992 22.7111 78.1163 23.0717 78.8473C23.4395 79.5784 24.0381 80.2306 24.817 80.4887C24.6295 81.2054 24.1174 81.8289 23.4467 82.1515L23.8794 81.9723Z" fill="#222272"/>
<path d="M34.9068 78.5391C36.0968 77.0053 36.3276 74.8408 35.6352 73.0347C35.5631 72.8411 35.4766 72.6405 35.491 72.4326C35.5343 72.0026 37.1642 70.2609 37.5753 69.5729C37.6546 69.4367 37.734 69.2933 37.7412 69.1356C37.7484 68.7486 37.3157 68.4978 36.9334 68.4404C36.544 68.3831 36.1257 68.4117 35.7939 68.2039C35.253 67.8599 35.2674 67.0858 35.2891 66.4479C35.3395 64.9643 35.051 63.3516 33.9764 62.3267C32.8369 61.2445 31.0123 61.0724 29.5554 61.6817C28.1058 62.2909 27.0095 63.5667 26.3388 64.9858C26.0792 65.5377 25.8772 66.111 25.6897 66.6916C25.0695 68.6626 24.6872 70.7053 24.5574 72.7695C24.4925 73.7585 24.4925 74.762 24.7161 75.7296C24.9396 76.6971 25.4228 77.6217 26.1873 78.2596C26.6129 78.6036 27.1105 78.8545 27.6153 79.0552C29.4616 79.7719 31.5532 79.8579 33.4572 79.2989C34.0918 79.1125 34.7193 78.8402 35.152 78.3456L34.9068 78.5391Z" fill="#FFD6A1"/>
<path d="M35.4404 81.105C36.1833 80.5961 36.7098 79.7934 36.8829 78.9118C37.0055 78.3026 36.955 77.6791 36.9117 77.0627C36.4141 76.8907 36.003 76.9337 35.4765 76.9767C32.5916 77.2204 29.6852 77.206 26.8075 76.948C27.435 72.9271 26.5839 68.8275 26.6056 64.7564C26.62 62.1332 26.8436 60.8789 26.1728 58.3417C25.5598 56.0338 24.2616 55.9335 22.6028 55.955C21.0378 55.9765 19.3213 56.256 18.1385 57.2738C16.9557 58.2915 16.6817 60.4274 17.2731 61.868C17.7419 62.9933 18.8814 63.7243 20.0642 64.0612C20.3526 64.14 20.67 64.2261 20.8286 64.4769C20.9224 64.6274 20.9368 64.8209 20.944 65.0001C21.1099 67.9674 21.283 70.9275 21.4561 73.8947C21.5282 75.1992 21.7734 76.2599 22.1701 77.507C22.5668 78.7541 23.663 79.5354 24.8097 80.1661C25.8627 80.7538 26.62 81.4849 27.8244 81.5422C29.2957 81.6139 30.767 81.6856 32.2383 81.7572C32.8513 81.7859 33.4715 81.8146 34.0629 81.6712L35.4404 81.105Z" fill="#0C0A35"/>
<path d="M35.7433 64.9213C35.7649 64.8209 35.7649 64.7063 35.7072 64.6131C35.6568 64.5271 35.2601 63.9752 34.6254 64.2906C34.4884 64.3551 34.0629 64.6346 33.9331 64.7134C32.9089 65.294 32.4762 65.4732 31.7622 65.6953C32.5772 65.7527 33.2046 65.982 33.6518 66.2401C34.0124 66.4479 34.3009 66.6199 34.6831 66.7776C35.0726 66.9425 35.5846 66.9138 35.8226 66.5698C35.8587 66.5124 35.902 66.4479 35.902 66.3834C35.8948 65.8172 35.5197 65.6953 35.3827 65.5592C35.3394 65.4947 35.6784 65.251 35.7433 64.9213Z" fill="#F70032"/>
<path d="M28.0769 75.7009C29.3246 76.8549 31.9498 76.8047 33.2119 75.6651C33.2985 75.5863 33.2336 75.4071 33.1109 75.4214C32.3104 75.4859 31.5748 75.8586 30.767 75.959C29.8583 76.0736 29 75.8801 28.1562 75.5576C28.0841 75.5289 28.0192 75.6436 28.0769 75.7009Z" fill="#0C0A35"/>
<path d="M32.3969 73.4002C32.5195 73.5866 32.6133 73.7872 32.7359 73.9736C32.8224 74.1169 32.9522 74.3248 33.1469 74.289C33.1974 74.2818 33.2191 74.2316 33.2191 74.1886C33.2263 74.1026 33.1974 74.0668 33.1397 74.0023C33.0748 73.9306 33.0243 73.8446 32.9739 73.7657C32.8729 73.5866 32.7936 73.4002 32.6854 73.2282C32.57 73.0562 32.2743 73.2282 32.3969 73.4002Z" fill="#0C0A35"/>
<path d="M30.6661 73.2998C30.4714 73.5579 30.493 73.9521 30.3848 74.2531C30.2983 74.4968 30.2045 74.9196 30.4353 75.106C30.4786 75.1418 30.5363 75.149 30.5868 75.106C30.7671 74.934 30.7887 74.5398 30.7959 74.3104C30.8031 73.9807 30.7959 73.6367 30.7526 73.307C30.7382 73.264 30.6877 73.2712 30.6661 73.2998Z" fill="#0C0A35"/>
<path d="M31.3296 73.3286C31.2286 73.6009 31.3151 73.8661 31.4161 74.1241C31.4738 74.2675 31.5315 74.4037 31.582 74.547C31.6253 74.6688 31.6469 74.7764 31.7695 74.8337C31.8056 74.8552 31.8416 74.848 31.8777 74.8194C32.0652 74.6688 31.9426 74.3678 31.8849 74.1815C31.8056 73.8804 31.6902 73.5651 31.5243 73.2999C31.4738 73.221 31.3584 73.2426 31.3296 73.3286Z" fill="#0C0A35"/>
<path d="M29.0217 73.0633C28.5313 73.0562 27.7236 73.393 27.637 73.9449C27.6298 74.0094 27.6731 74.0596 27.738 74.0453C27.9471 74.0094 28.1563 73.8374 28.315 73.7012C28.5457 73.5077 28.7982 73.3429 29.0506 73.1852C29.1083 73.1494 29.0867 73.0633 29.0217 73.0633Z" fill="#0C0A35"/>
<path d="M29.6419 73.4575C29.2741 73.6869 28.863 74.1599 28.8702 74.6115C28.8702 74.6831 28.9351 74.7333 29.0072 74.719C29.4904 74.59 29.6347 73.9449 29.7212 73.5292C29.7357 73.479 29.6852 73.4289 29.6419 73.4575Z" fill="#0C0A35"/>
<path d="M30.6372 72.9916C30.731 72.7408 30.7742 72.4828 30.7526 72.2176C30.7382 72.0097 30.7598 71.7159 30.5939 71.5653C30.5507 71.5223 30.4858 71.5223 30.4425 71.5653C30.2694 71.7374 30.3415 71.9954 30.3704 72.2176C30.4064 72.4756 30.5002 72.7265 30.5507 72.9916C30.5507 73.0346 30.6228 73.0275 30.6372 72.9916Z" fill="#0C0A35"/>
<path d="M31.4667 72.8913C31.5388 72.6906 31.5965 72.4828 31.6614 72.2821C31.7191 72.1029 31.7912 71.8735 31.6831 71.7015C31.647 71.6514 31.5893 71.6298 31.5316 71.6657C31.3441 71.766 31.3297 71.9882 31.2864 72.1817C31.2287 72.4039 31.2287 72.6404 31.2431 72.8626C31.2503 72.9916 31.4234 73.0131 31.4667 72.8913Z" fill="#0C0A35"/>
<path d="M32.296 72.92C32.4474 72.7623 32.5556 72.5974 32.6638 72.4039C32.7575 72.2319 32.909 72.0814 32.9306 71.8735C32.9306 71.8305 32.8946 71.7875 32.8513 71.7947C32.6277 71.8162 32.5268 72.0097 32.4258 72.1889C32.3104 72.3968 32.2455 72.6189 32.1589 72.8411C32.1229 72.92 32.2383 72.9773 32.296 72.92Z" fill="#0C0A35"/>
<path d="M29.6564 73.0561C30.0603 72.8554 29.6852 71.6083 29.2669 71.852C29.0289 71.9882 29.2814 72.4111 29.3535 72.5759C29.3895 72.6476 29.5121 73.1278 29.6564 73.0561Z" fill="#0C0A35"/>
<path d="M28.9856 73.1278C28.9712 72.9271 28.9856 72.7551 28.8991 72.5616C28.8197 72.3681 28.7043 72.1889 28.4952 72.1172C28.4375 72.0957 28.3654 72.1172 28.3221 72.1602C28.1706 72.3107 28.3798 72.5258 28.4736 72.6333C28.5457 72.7193 28.6034 72.8125 28.6755 72.9056C28.7476 72.9916 28.8342 73.0633 28.9063 73.1493C28.9351 73.1852 28.9856 73.1636 28.9856 73.1278Z" fill="#0C0A35"/>
<path d="M33.7385 72.9916C32.8947 73.6725 31.8201 74.0596 30.731 74.0882C29.642 74.1169 28.553 73.7729 27.6731 73.135C28.0914 72.834 28.6179 72.7265 29.1227 72.6333C29.5627 72.5473 30.1829 72.4613 30.6301 72.4469C31.2647 72.4326 31.8273 72.4684 32.4403 72.5974C32.9235 72.6978 33.2697 72.748 33.7385 72.9916Z" fill="white"/>
<path d="M30.666 72.5545C30.3271 72.5545 30.0458 72.834 30.0458 73.1709C30.0458 73.5077 30.3271 73.7872 30.666 73.7872C31.005 73.7872 31.2863 73.5077 31.2863 73.1709C31.2863 72.834 31.005 72.5545 30.666 72.5545Z" fill="#0C0A35"/>
<path d="M35.0077 82.1372C35.9453 81.5853 36.2771 80.7539 36.1545 79.6931C36.0968 79.2129 35.8948 78.7757 35.6496 78.3744C34.7842 76.9696 35.3034 76.0737 35.8444 74.719C35.8804 74.6259 35.7506 74.5327 35.6713 74.59C34.6399 75.3354 34.4524 76.4034 34.575 77.6146C34.6327 78.1665 34.9933 78.489 35.2746 78.9334C35.8804 79.8795 35.7073 81.27 34.8996 82.0082C34.8347 82.0727 34.9284 82.1802 35.0077 82.1372Z" fill="#B70027"/>
<path d="M33.6229 82.5745C34.1639 81.9868 34.6182 81.0478 34.3874 80.2308C34.2216 79.6359 33.9186 79.1628 33.6013 78.6325C32.7719 77.242 33.6951 76.1024 34.034 74.8123C34.0773 74.6546 33.8754 74.5399 33.76 74.6546C32.945 75.486 32.6493 76.5969 32.6998 77.7437C32.7214 78.3171 33.046 78.8546 33.3345 79.3277C33.9258 80.3096 34.0701 81.4564 33.5075 82.4956C33.4715 82.5601 33.5725 82.639 33.6229 82.5745Z" fill="#B70027"/>
<path d="M31.9281 82.0512C32.5484 81.1123 32.4618 80.2737 32.0868 79.2345C31.8777 78.6539 31.4882 78.145 31.2574 77.5716C30.8391 76.5324 31.6325 75.5361 31.8055 74.5327C31.8272 74.3894 31.6685 74.2747 31.5531 74.3822C30.7237 75.1491 30.3631 76.1167 30.4569 77.2348C30.6011 79.0409 32.5917 79.9798 31.8488 82.0082C31.8272 82.0727 31.9065 82.0942 31.9281 82.0512Z" fill="#B70027"/>
<path d="M30.7238 82.2089C31.0628 81.1983 30.6877 80.4959 30.0891 79.6574C29.541 78.8905 29.2669 78.2597 29.2237 77.3065C29.1804 76.2959 29.7862 75.5434 29.9521 74.6044C29.9737 74.4826 29.8656 74.3966 29.7502 74.4468C28.6034 74.9556 28.5097 76.6328 28.5746 77.7222C28.6756 79.4782 30.6373 80.4601 30.5219 82.1731C30.5219 82.3021 30.6877 82.3164 30.7238 82.2089Z" fill="#B70027"/>
<path d="M29.303 82.5243C29.4256 81.1625 28.8558 80.2164 27.9254 79.2703C26.2522 77.5717 28.0769 75.6867 28.2933 73.8877C28.3077 73.7587 28.1202 73.687 28.0336 73.7802C27.0888 74.841 26.5407 76.4679 26.5696 77.8727C26.5768 78.3744 26.8148 79.0052 27.161 79.385C28.0697 80.3884 28.9496 81.1052 29.202 82.5386C29.2092 82.596 29.2957 82.5816 29.303 82.5243Z" fill="#B70027"/>
<path d="M28.0337 82.044C27.8245 81.2485 27.0384 80.6321 26.6273 79.9297C25.6464 78.2597 25.2426 76.5324 25.6897 74.6331C26.0143 73.2426 26.7932 72.017 27.0817 70.6122C27.3197 69.4583 26.8004 68.4334 26.4326 67.3726C25.971 66.0467 25.3147 64.5989 25.1704 63.2012C25.0262 61.8251 25.8916 60.492 26.3677 59.2521C27.024 57.5247 26.584 55.4319 25.2353 54.1705C25.1416 54.0844 24.9757 54.1991 25.055 54.3066C26.8292 56.9657 25.7402 59.0227 24.8747 61.7176C24.1752 63.8893 25.5815 66.5699 26.3965 68.5337C27.4927 71.1784 25.055 73.9092 25.019 76.6327C25.0046 77.7222 25.4733 78.7686 25.9277 79.7362C26.4326 80.8041 27.2475 81.1911 27.8678 82.1014C27.9255 82.1946 28.0625 82.1444 28.0337 82.044Z" fill="#B70027"/>
<path d="M28.589 66.8207C27.637 65.8818 26.9014 64.8354 26.7499 63.4808C26.6273 62.3842 27.125 61.3234 27.1322 60.2268C27.1322 60.0763 26.9374 60.0333 26.8653 60.1552C25.2498 62.6637 26.1946 65.3371 28.3727 67.0286C28.5241 67.1504 28.7333 66.9641 28.589 66.8207Z" fill="#B70027"/>
<path d="M25.3363 81.6498C24.6223 80.7252 24.1318 79.9225 23.8794 78.7686C23.526 77.1774 24.0597 75.5505 24.5646 74.0453C25.2425 72.0242 26.346 70.3112 25.2786 68.1466C24.7305 67.0285 24.0597 66.0896 23.728 64.864C23.2375 63.0579 23.6486 61.5742 24.3626 59.8971C25.1415 58.0623 25.4228 55.9909 24.002 54.4213C23.9011 54.3138 23.6919 54.4284 23.7496 54.5646C24.3122 55.9694 24.5069 57.1807 24.1174 58.6715C23.8145 59.8469 23.0212 60.9148 22.8986 62.1476C22.7832 63.2944 22.9274 64.3838 23.2087 65.4947C23.526 66.7275 24.3338 67.6879 24.7809 68.8634C25.7762 71.4866 23.3746 74.2317 23.1871 76.8692C23.0572 78.6682 23.4683 80.8973 25.2281 81.7502C25.293 81.786 25.394 81.7143 25.3363 81.6498Z" fill="#B70027"/>
<path d="M22.3576 79.901C22.3504 78.5392 21.961 77.3709 22.2783 75.9805C22.5884 74.633 23.1365 73.3716 23.5621 72.0599C24.4275 69.4009 23.1077 67.3582 22.2134 64.9213C21.6941 63.5165 21.4345 62.1906 21.9249 60.7285C22.3432 59.4814 23.0933 58.4779 23.3818 57.1735C23.8433 55.095 22.5884 53.7977 21.009 52.7584C20.8359 52.6438 20.6556 52.8588 20.7421 53.0236C21.2398 53.9769 22.1341 54.4642 22.5307 55.5393C23.0933 57.0373 21.997 58.693 21.384 59.9902C20.4825 61.8896 20.9296 63.7244 21.6508 65.595C22.098 66.749 22.7399 67.8097 23.1149 68.9852C23.5981 70.476 23.0861 71.9811 22.574 73.3716C22.1557 74.504 21.7735 75.6508 21.521 76.8334C21.283 77.9443 21.8456 78.8975 22.1413 79.9225C22.1701 80.0515 22.3576 80.03 22.3576 79.901Z" fill="#B70027"/>
<path d="M20.5547 74.6403C21.7014 73.2785 22.1413 71.63 21.9538 69.874C21.8024 68.4549 21.3119 66.6272 19.819 66.104C19.6387 66.0395 19.4584 66.2689 19.5666 66.4266C21.1749 68.7416 22.1269 71.9167 20.3167 74.4539C20.2157 74.5973 20.4393 74.7764 20.5547 74.6403Z" fill="#B70027"/>
<path d="M20.6989 64.6633C19.7541 63.2156 19.4368 61.8538 20.1508 60.2125C20.6557 59.0442 21.312 58.1268 21.5428 56.8438C21.8457 55.1309 20.2662 53.7547 18.7372 53.3964C18.5641 53.3534 18.4199 53.5684 18.5569 53.7046C19.3575 54.4571 20.3888 54.9087 20.7566 56.0268C21.2182 57.4315 19.7902 59.0944 19.2781 60.3271C18.6074 61.9254 19.0113 63.918 20.5475 64.821C20.634 64.8712 20.7566 64.7637 20.6989 64.6633Z" fill="#B70027"/>
<path d="M18.9535 64.1616C18.0953 62.5418 17.9005 61.0367 18.6722 59.3381C19.0617 58.4851 19.4295 57.8114 19.4512 56.8582C19.48 55.5251 18.153 54.1991 16.8908 54.0558C16.7755 54.0414 16.7322 54.1991 16.8043 54.2708C17.4895 55.0018 18.2395 55.4534 18.6506 56.4353C19.141 57.6107 18.052 58.9654 17.6914 60.0476C17.1865 61.5814 17.8068 63.0794 18.7372 64.2907C18.8237 64.4197 19.0329 64.3122 18.9535 64.1616Z" fill="#B70027"/>
<path d="M36.4862 84.5166C36.5655 84.8105 36.753 85.3409 36.8035 85.7208C36.8179 85.8211 36.7169 85.9071 36.616 85.8784C36.3924 85.8211 34.7697 84.4952 34.1062 84.0436C33.998 83.9719 33.8465 84.0078 33.796 84.1296C33.3921 85.09 33.1253 86.2511 32.9162 87.2832C32.8873 87.4122 32.7214 87.4481 32.6421 87.3406C32.0146 86.4446 31.279 85.5129 30.8318 84.5095C30.803 84.445 30.7092 84.445 30.6876 84.5166C30.2837 85.5559 29.8149 86.5737 29.2884 87.5627C29.2091 87.7133 28.9855 87.7061 28.9134 87.5484C28.4591 86.5307 28.3797 85.5631 28.0191 84.4951C27.9758 84.3661 27.9037 84.2228 27.7739 84.2013C27.6369 84.1798 27.5143 84.3016 27.4421 84.4235C27.1753 84.8392 26.144 86.7313 25.6319 87.2044C25.4949 87.3334 25.2641 87.2689 25.2208 87.0825C24.9395 85.9143 25.0477 83.9218 24.6871 83.6852C24.4563 83.5347 22.6461 85.6634 21.8455 85.6634C21.8095 85.6634 21.8095 85.6419 21.7878 85.6133C21.5715 85.3122 22.1629 83.205 22.4441 81.8647C22.4874 81.6712 22.9778 78.7613 23.1076 78.8688C23.7712 79.4279 25.0261 80.0658 26.6055 80.4671C29.8077 81.2914 31.6612 81.2269 34.95 80.8757C35.1086 80.8613 35.2817 80.847 35.4188 80.933C35.5125 80.9975 35.5702 81.105 35.6207 81.2054C35.8443 81.7501 36.0534 82.8897 36.4862 84.5166Z" fill="#191956"/>
<path d="M35.9164 84.2371C35.765 83.8788 35.563 83.5347 35.3467 83.2122C35.1087 82.8539 34.5173 83.2122 34.7697 83.5419C35.0077 83.8573 35.3178 84.1225 35.5126 84.4665C35.664 84.7389 36.0318 84.5023 35.9164 84.2371Z" fill="#F70032"/>
<path d="M32.8152 85.3409C32.7648 84.8105 33.1181 84.0723 32.6133 83.6494C32.2743 83.3699 31.7118 83.6279 31.8416 84.0938C31.8993 84.3088 32.0219 84.4951 32.0868 84.7173C32.1517 84.9538 32.2527 85.176 32.3104 85.4054C32.3825 85.6849 32.8441 85.6347 32.8152 85.3409Z" fill="#F70032"/>
<path d="M29.4472 85.6061C29.5915 85.1043 29.8151 84.6385 29.8367 84.1153C29.8583 83.506 28.9063 83.506 28.8847 84.1153C28.8703 84.6098 28.9712 85.1187 29.0506 85.6061C29.0866 85.8067 29.3967 85.7852 29.4472 85.6061Z" fill="#F70032"/>
<path d="M26.144 85.0112C26.3532 84.6027 26.6561 84.2372 26.7643 83.7856C26.8653 83.3413 26.1873 83.0044 25.9854 83.4559C25.7906 83.8931 25.8051 84.359 25.6753 84.8106C25.5887 85.0901 26.007 85.2693 26.144 85.0112Z" fill="#F70032"/>
<path d="M22.9924 83.9505C23.3747 83.4703 24.5286 83.1119 24.1175 82.2948C23.9805 82.0153 23.6055 82.0153 23.3963 82.2017C23.2809 82.302 23.2521 82.4453 23.1944 82.56C23.1295 82.6962 23.0429 82.8324 22.9564 82.9614C22.8049 83.1979 22.6535 83.4344 22.5453 83.6924C22.4443 83.9361 22.8266 84.1583 22.9924 83.9505Z" fill="#F70032"/>
<path d="M35.3972 82.0941C35.1303 82.0941 35.1303 82.5026 35.3972 82.5026C35.6568 82.5026 35.6568 82.0941 35.3972 82.0941Z" fill="#0C0A35"/>
<path d="M34.6256 82.2661C34.2866 82.2661 34.2866 82.7893 34.6256 82.7893C34.9717 82.7893 34.9717 82.2661 34.6256 82.2661Z" fill="#0C0A35"/>
<path d="M33.8466 82.4596C33.486 82.4596 33.486 83.0115 33.8466 83.0115C34.2 83.0115 34.2 82.4596 33.8466 82.4596Z" fill="#0C0A35"/>
<path d="M32.8585 82.6316C32.5123 82.6316 32.5123 83.1692 32.8585 83.1692C33.2119 83.1692 33.2119 82.6316 32.8585 82.6316Z" fill="#0C0A35"/>
<path d="M31.7983 82.7033C31.4377 82.7033 31.4377 83.2552 31.7983 83.2552C32.1517 83.2552 32.1517 82.7033 31.7983 82.7033Z" fill="#0C0A35"/>
<path d="M30.7813 82.7392C30.3919 82.7392 30.3919 83.3341 30.7813 83.3341C31.1708 83.3341 31.1708 82.7392 30.7813 82.7392Z" fill="#0C0A35"/>
<path d="M29.6708 82.6962C29.3029 82.6962 29.3029 83.2624 29.6708 83.2624C30.0386 83.2624 30.0386 82.6962 29.6708 82.6962Z" fill="#0C0A35"/>
<path d="M28.5817 82.5385C28.149 82.5385 28.149 83.1978 28.5817 83.1978C29.0073 83.1978 29.0073 82.5385 28.5817 82.5385Z" fill="#0C0A35"/>
<path d="M27.4855 82.3378C27.0455 82.3378 27.0455 83.0187 27.4855 83.0187C27.9326 83.0187 27.9326 82.3378 27.4855 82.3378Z" fill="#0C0A35"/>
<path d="M26.3748 82.044C25.9997 82.044 25.9997 82.6245 26.3748 82.6245C26.757 82.6317 26.757 82.044 26.3748 82.044Z" fill="#0C0A35"/>
<path d="M25.4372 81.6856C24.99 81.6856 24.99 82.3737 25.4372 82.3737C25.8843 82.3737 25.8915 81.6856 25.4372 81.6856Z" fill="#0C0A35"/>
<path d="M24.6006 81.3559C24.1968 81.3559 24.1968 81.9795 24.6006 81.9795C25.0045 81.9795 25.0045 81.3559 24.6006 81.3559Z" fill="#0C0A35"/>
<path d="M23.6848 81.1623C23.6776 81.1623 23.6703 81.1623 23.6631 81.1623C23.4684 81.1982 23.4684 81.5207 23.6631 81.5565C23.6703 81.5565 23.6776 81.5565 23.6848 81.5565C24.0237 81.6282 24.0237 81.0978 23.6848 81.1623Z" fill="#0C0A35"/>
<path d="M22.9347 80.9689C22.913 80.9689 22.913 81.0047 22.9347 81.0047C22.9563 81.0047 22.9563 80.9689 22.9347 80.9689Z" fill="#0C0A35"/>
<path d="M22.9923 80.7753C22.6173 80.7753 22.6173 81.3487 22.9923 81.3487C23.3674 81.3487 23.3674 80.7753 22.9923 80.7753Z" fill="#0C0A35"/>
<path d="M22.372 79.9224C22.2422 79.7934 22.1124 79.6572 21.9826 79.5282C21.8888 79.4351 21.7085 79.3061 21.5859 79.4279C21.4633 79.5497 21.6004 79.7218 21.6941 79.8078C21.8311 79.9296 21.9682 80.0586 22.1052 80.1805C22.2927 80.3381 22.5451 80.0873 22.372 79.9224Z" fill="#191956"/>
<path d="M21.4995 80.3309C21.3841 80.2306 21.2831 80.1159 21.1893 80.0012C21.0812 79.8651 20.973 79.7289 20.7999 79.6859C20.6845 79.6572 20.5907 79.7432 20.5763 79.8507C20.5402 80.2019 21.009 80.4743 21.2759 80.6033C21.4562 80.6965 21.6653 80.4743 21.4995 80.3309Z" fill="#191956"/>
<path d="M22.3071 78.7183C22.235 78.5391 22.1556 78.3743 22.033 78.2309C21.8744 78.0446 21.557 78.2453 21.6292 78.4675C21.6796 78.6251 21.7806 78.7613 21.8455 78.9118C21.9681 79.1699 22.4225 78.9835 22.3071 78.7183Z" fill="#191956"/>
<path d="M20.8575 78.7326C20.7638 78.4961 20.6556 78.2166 20.4104 78.1091C20.2734 78.0517 20.0858 78.1449 20.1435 78.3169C20.2157 78.5319 20.3815 78.6896 20.4897 78.8903C20.5979 79.0838 20.9441 78.9476 20.8575 78.7326Z" fill="#191956"/>
<path d="M21.2109 77.4067C21.1677 77.2132 21.1027 77.0053 21.0162 76.8261C20.9657 76.7186 20.9224 76.647 20.807 76.604C20.908 76.6398 20.7638 76.5681 20.7493 76.5681C20.7133 76.5609 20.6772 76.5538 20.6412 76.561C20.4464 76.6111 20.4536 76.8907 20.5113 77.034C20.5835 77.2203 20.7133 77.3924 20.7926 77.5787C20.908 77.8224 21.2686 77.6432 21.2109 77.4067Z" fill="#191956"/>
<path d="M21.2398 75.4429C21.1532 75.1992 21.009 74.8552 20.771 74.7262C20.6268 74.6473 20.432 74.7763 20.4825 74.9484C20.5619 75.192 20.7999 75.3569 20.9225 75.5791C21.0162 75.7439 21.3047 75.6293 21.2398 75.4429Z" fill="#191956"/>
<path d="M19.8046 76.9766C19.7686 76.7688 19.7614 76.5323 19.5811 76.3889C19.4945 76.3244 19.3863 76.2886 19.2854 76.3531C19.1988 76.4032 19.1411 76.5251 19.1772 76.6254C19.2349 76.7831 19.307 76.9408 19.3719 77.0985C19.4801 77.3565 19.8623 77.2633 19.8046 76.9766Z" fill="#191956"/>
<path d="M19.6098 75.2278C19.5666 74.9985 19.6459 74.7118 19.5305 74.5039C19.4584 74.3749 19.2564 74.3749 19.1843 74.5039C19.1122 74.6258 19.1266 74.7476 19.1411 74.891C19.1483 75.0415 19.1699 75.192 19.2132 75.3425C19.2781 75.6005 19.6531 75.4859 19.6098 75.2278Z" fill="#191956"/>
<path d="M19.5954 78.3169C19.5521 78.1163 19.5738 77.9156 19.4223 77.7507C19.2781 77.6002 19.0545 77.7579 19.0905 77.9442C19.1266 78.1162 19.2348 78.2883 19.343 78.4244C19.4367 78.5463 19.6315 78.4746 19.5954 78.3169Z" fill="#191956"/>
<path d="M20.2228 73.8374C20.2228 73.6653 20.2084 73.4933 20.194 73.3285C20.1796 73.2138 20.1219 73.0346 19.9776 73.0346C19.8262 73.0346 19.7757 73.2066 19.7613 73.3285C19.7468 73.5077 19.8406 73.7155 19.8839 73.8875C19.9343 74.0667 20.2228 74.0309 20.2228 73.8374Z" fill="#191956"/>
<path d="M20.9441 72.8698C21.0234 72.5975 21.0595 72.1674 20.8215 71.9667C20.6772 71.8449 20.4897 71.8951 20.4248 72.0671C20.3166 72.3394 20.5546 72.5975 20.5907 72.8627C20.6123 73.0633 20.8936 73.0347 20.9441 72.8698Z" fill="#191956"/>
<path d="M19.0761 73.4002C19.0329 73.1995 19.0184 72.8698 18.8021 72.7767C18.7588 72.7552 18.7011 72.7552 18.6723 72.791C18.5064 72.9917 18.6362 73.2784 18.6723 73.5077C18.7155 73.7801 19.1338 73.6654 19.0761 73.4002Z" fill="#191956"/>
<path d="M19.5377 71.6227C19.4656 71.4506 19.4728 71.2213 19.2636 71.1568C19.2059 71.1353 19.1627 71.1783 19.141 71.2285C19.0689 71.4005 19.1699 71.637 19.242 71.7947C19.3213 72.0025 19.6242 71.8233 19.5377 71.6227Z" fill="#191956"/>
<path d="M20.4898 70.691C20.497 70.4975 20.461 70.2538 20.3744 70.0746C20.3095 69.9456 20.0931 69.9742 20.0643 70.1176C20.021 70.3111 20.122 70.4975 20.1148 70.691C20.1076 70.9347 20.4826 70.9347 20.4898 70.691Z" fill="#191956"/>
<path d="M18.6146 70.7698C18.6001 70.6695 18.5857 70.5691 18.5569 70.4688C18.5352 70.3684 18.5352 70.2609 18.4992 70.1678C18.4848 70.1176 18.4415 70.0603 18.3766 70.0459C18.3621 70.0459 18.3477 70.0387 18.3333 70.0387C18.254 70.0387 18.1891 70.0889 18.1674 70.1678C18.1097 70.3828 18.2323 70.605 18.2684 70.8128C18.3117 71.0063 18.6434 70.9633 18.6146 70.7698Z" fill="#191956"/>
<path d="M19.3574 69.7019C19.3214 69.5227 19.3646 69.3292 19.2781 69.1644C19.206 69.0282 18.9463 69.0425 18.9247 69.2074C18.8958 69.4009 18.9247 69.6231 18.968 69.8094C19.0112 70.0674 19.4007 69.9599 19.3574 69.7019Z" fill="#191956"/>
<path d="M20.569 69.0138C20.5401 68.8347 20.4896 68.6411 20.367 68.505C20.3238 68.4548 20.2372 68.4333 20.1723 68.4548C19.891 68.5551 20.1074 68.935 20.1435 69.1357C20.1795 69.4152 20.6195 69.2934 20.569 69.0138Z" fill="#191956"/>
<path d="M18.4703 68.9207C18.4487 68.7773 18.4198 68.6483 18.2972 68.5623C18.1962 68.4906 18.052 68.5838 18.052 68.6985C18.052 68.7917 18.0953 68.8777 18.1025 68.9709C18.1241 69.2432 18.5136 69.1859 18.4703 68.9207Z" fill="#191956"/>
<path d="M29.1443 67.7595C28.452 67.7595 27.875 68.3329 27.875 69.0209C27.875 69.709 28.452 70.2824 29.1443 70.2824C29.8367 70.2824 30.4137 69.709 30.4137 69.0209C30.4137 68.3329 29.8367 67.7595 29.1443 67.7595Z" fill="#F70032"/>
<path d="M32.8081 57.0444C32.3753 57.0444 32.3753 57.711 32.8081 57.711C33.2408 57.711 33.2408 57.0444 32.8081 57.0444Z" fill="#F70032"/>
<path d="M32.0436 56.4209C31.683 56.4209 31.683 56.9728 32.0436 56.9728C32.4043 56.9728 32.4043 56.4209 32.0436 56.4209Z" fill="#F70032"/>
<path d="M31.1637 56.0912C30.7742 56.0912 30.7742 56.6933 31.1637 56.6933C31.5531 56.6933 31.5531 56.0912 31.1637 56.0912Z" fill="#F70032"/>
<path d="M30.1684 55.9049C29.7862 55.9049 29.7862 56.4926 30.1684 56.4926C30.5506 56.4926 30.5506 55.9049 30.1684 55.9049Z" fill="#F70032"/>
<path d="M29.2092 55.8475C28.7981 55.8475 28.7981 56.4782 29.2092 56.4782C29.6203 56.4782 29.6203 55.8475 29.2092 55.8475Z" fill="#F70032"/>
<path d="M28.2572 55.8762C27.8389 55.8762 27.8389 56.5212 28.2572 56.5212C28.6755 56.5212 28.6755 55.8762 28.2572 55.8762Z" fill="#F70032"/>
<path d="M27.2619 56.0697C26.8941 56.0697 26.8941 56.6359 27.2619 56.6359C27.6298 56.6359 27.6298 56.0697 27.2619 56.0697Z" fill="#F70032"/>
<path d="M26.2667 56.3635C25.834 56.3635 25.834 57.0229 26.2667 57.0229C26.6922 57.0229 26.6922 56.3635 26.2667 56.3635Z" fill="#F70032"/>
<path d="M29.2668 54.2564C28.8918 54.2564 28.5745 54.5717 28.5745 54.9444C28.5745 55.3171 28.8918 55.6325 29.2668 55.6325C29.6419 55.6325 29.9592 55.3171 29.9592 54.9444C29.9592 54.5717 29.6419 54.2564 29.2668 54.2564Z" fill="#F70032"/>
<path d="M42.3209 44.9604C42.1983 45.9638 42.2127 46.9744 42.3786 47.9778C42.6887 47.9993 43.4099 51.8625 43.5758 51.9987C44.9461 53.0738 45.0759 50.6584 44.8524 51.927C44.773 52.357 43.9653 52.8229 44.2465 53.2386C44.4196 53.3318 45.1841 53.425 46.0856 52.9662C46.8718 52.5649 47.1386 51.9628 47.3117 51.4038C47.4848 50.8447 47.3622 50.257 46.8501 49.7625C46.6914 49.6048 46.4895 49.4614 46.3453 49.2966C45.9991 48.9167 45.963 48.4795 45.9053 48.0638C45.7683 47.0747 45.4726 46.0856 45.1697 45.1037C45.1336 44.9962 45.0976 44.8815 44.9317 44.8099C44.8163 44.7669 44.672 44.7454 44.5278 44.7382C44.0013 44.688 43.4676 44.6665 42.9339 44.6522C42.7897 44.6522 42.6382 44.6522 42.5228 44.6952C42.3642 44.7525 42.3353 44.86 42.3209 44.9604Z" fill="#222272"/>
<path d="M45.0471 68.8203C45.0904 69.9957 45.0687 70.605 45.0904 71.3074C45.0976 71.5654 44.8235 71.8449 44.6865 71.7087C44.5639 71.5869 44.1889 66.8063 43.4821 66.9353C43.2369 66.9783 43.5037 69.9169 43.4172 71.1784C43.3955 71.5009 43.2296 71.8664 43.0493 71.8306C42.8186 71.7804 42.631 67.7811 42.2344 67.2435C42.0324 66.9712 41.8161 69.8452 41.5636 71.1067C41.4987 71.4364 41.2752 71.9381 41.0876 71.6944C40.9578 71.5295 40.8713 70.6408 40.828 67.9531C40.8064 66.5053 40.691 66.1971 41.0949 65.5735C41.4987 64.9428 41.7007 65.3513 42.2344 64.9285C42.3714 64.821 42.4147 64.2619 42.4219 64.0827C42.5012 62.6851 42.4435 61.5742 42.5229 60.1694C42.5878 59.0656 41.982 50.7444 41.917 49.7768C41.9026 49.5475 41.8882 49.2966 42.0036 49.0959C42.119 48.8952 42.3642 48.5297 42.5229 51.1888C42.9267 57.7898 42.97 58.8291 42.8763 64.5558C42.8763 64.7565 42.9989 64.993 43.3234 65.079C43.6552 65.165 43.9941 64.8783 44.6432 65.81C44.8957 66.1756 44.9966 67.3438 45.0471 68.8203Z" fill="#F70032"/>
<path d="M45.7107 56.2489C45.5015 56.5786 45.0039 56.9369 44.6072 56.9369C43.7273 56.9298 43.1504 56.8223 42.2128 56.7004C42.0613 56.6789 41.8955 56.6001 41.8305 56.4639C41.7873 56.3779 41.6286 55.9765 42.2561 55.7902C42.4508 55.7328 42.6599 55.7185 42.8619 55.7185C43.3451 55.7113 44.5423 55.8977 44.5784 55.7113C44.6216 55.4892 42.4508 55.3458 41.7296 54.9014C41.643 54.8513 41.5565 54.7939 41.5132 54.7008C41.3906 54.4427 41.5709 54.2134 41.8522 54.1274C42.5013 53.9339 43.41 54.4642 44.3836 54.4929C44.463 54.4929 44.4846 54.3854 44.4125 54.3567C43.5038 53.9769 42.22 53.6042 41.7584 52.8803C41.5998 52.6366 41.8738 52.3499 42.1695 52.3212C42.6094 52.2782 43.9004 53.0809 44.1961 53.0164C44.2755 52.9949 44.2827 52.8158 43.9293 52.6366C43.5182 52.4287 42.9628 52.056 42.6888 51.8052C42.5373 51.6618 42.4652 51.4396 42.5373 51.2461C42.6455 50.9666 43.0566 51.1314 43.3018 51.1458C43.5254 51.1601 44.1961 51.5256 44.5351 51.7263C44.8092 51.8912 44.7082 51.3106 44.6865 50.9881C44.6505 50.4935 44.7082 50.0062 44.9534 49.9202C45.4438 49.7482 45.9631 50.0492 46.3958 50.3359C46.5328 50.4291 46.6771 50.5222 46.7636 50.6656C46.8358 50.7802 47.081 51.2963 47.081 51.4325C47.1315 54.0199 46.7059 54.7008 45.7107 56.2489Z" fill="#FFD6A1"/>
<path d="M42.8689 56.3994C42.7896 56.1916 42.6453 56.1271 42.4434 56.0554C42.3497 56.0196 42.2487 55.9981 42.1477 55.9909C42.0972 55.9837 42.0251 55.9837 41.9818 56.0052C41.953 56.0124 41.8232 56.0769 41.9025 56.0411C41.7655 56.0984 41.6789 56.2131 41.715 56.3636C41.6861 56.2346 41.751 56.4854 41.7583 56.4854C41.7799 56.5284 41.816 56.5714 41.852 56.6073C41.9386 56.6933 42.054 56.7219 42.1693 56.7578C42.3424 56.808 42.6021 56.808 42.7535 56.7076C42.8401 56.6359 42.9122 56.5141 42.8689 56.3994Z" fill="#990028"/>
<path d="M42.3138 54.5073C42.1118 54.3138 41.9099 54.1919 41.6214 54.2349C41.3401 54.2779 41.2319 54.708 41.4483 54.8871C41.6142 55.0233 41.8522 55.1237 42.0758 55.095C42.1984 55.0807 42.3066 55.0377 42.3787 54.923C42.4508 54.794 42.4292 54.6148 42.3138 54.5073Z" fill="#990028"/>
<path d="M42.5733 53.0236C42.5733 52.995 42.5733 52.8875 42.5733 52.9806C42.5733 52.9735 42.5012 52.7584 42.5372 52.8445C42.4868 52.7298 42.4218 52.6294 42.3353 52.5434C42.2055 52.4073 42.0612 52.3499 41.8665 52.3786C41.7439 52.4001 41.6141 52.5076 41.5925 52.6294C41.5636 52.7799 41.6069 52.9376 41.7151 53.0451C41.7439 53.0666 41.7655 53.0881 41.7944 53.1096C41.7655 53.081 41.7655 53.0881 41.8016 53.1168C41.8593 53.1598 41.9098 53.2028 41.9747 53.2315C42.1983 53.3462 42.5445 53.3247 42.5733 53.0236Z" fill="#990028"/>
<path d="M43.309 51.6833C43.2801 51.5901 43.2441 51.5184 43.1719 51.4109C43.0854 51.2819 42.9628 51.1529 42.8041 51.1314C42.5589 51.0956 42.2921 51.2819 42.3786 51.5543C42.4651 51.8266 42.8257 52.1205 43.1287 52.013C43.2585 51.9628 43.345 51.8338 43.309 51.6833Z" fill="#990028"/>
<path d="M45.725 56.3134C45.7611 56.2203 45.7899 56.1199 45.7827 56.0196C45.7683 55.8404 45.5447 55.8189 45.4798 55.9766C45.4438 56.0554 45.4365 56.1414 45.4077 56.2203C45.3284 56.4281 45.6601 56.5141 45.725 56.3134Z" fill="#0C0A35"/>
<path d="M45.8476 55.224C45.9197 55.095 45.9702 54.9445 45.9125 54.794C45.8332 54.5861 45.4798 54.6004 45.5014 54.8513C45.5087 54.9516 45.5303 55.0376 45.5231 55.138C45.5014 55.31 45.7683 55.3602 45.8476 55.224Z" fill="#0C0A35"/>
<path d="M45.9918 53.9769C46.0207 53.8263 46.0423 53.6687 45.9269 53.5468C45.8476 53.4608 45.6673 53.4967 45.6529 53.6185C45.6384 53.726 45.6745 53.8263 45.6673 53.9338C45.6673 54.113 45.9558 54.1632 45.9918 53.9769Z" fill="#0C0A35"/>
<path d="M45.9558 52.5147C45.9125 52.3786 45.8548 52.2424 45.725 52.1707C45.588 52.0919 45.4004 52.2209 45.4509 52.3786C45.487 52.4789 45.5519 52.5649 45.6024 52.6653C45.6961 52.8659 46.0135 52.7226 45.9558 52.5147Z" fill="#0C0A35"/>
<path d="M44.4629 58.9294C44.2032 58.5496 43.7417 58.3274 43.2801 58.3059C43.1503 58.2987 43.0205 58.3059 42.8978 58.3417C42.8618 58.356 42.8257 58.3632 42.7969 58.3919C42.7392 58.4564 42.7536 58.5567 42.7897 58.6356C42.8978 58.8721 42.9916 59.2806 43.5109 59.5673C44.1239 59.9113 44.5999 60.0332 44.91 60.0045C44.9172 59.983 44.9172 59.983 44.9317 59.9615C44.7514 59.6462 44.6792 59.2448 44.4629 58.9294Z" fill="#F70032"/>
<path d="M42.6166 57.2953C42.631 57.324 42.631 57.3526 42.6238 57.3885C42.5517 57.84 42.1262 58.1697 41.6862 58.2987C41.2463 58.4277 40.7775 58.4134 40.3159 58.4636C40.4241 58.2557 40.5467 58.055 40.6982 57.8759C40.7775 57.7755 40.864 57.6752 40.965 57.5892C41.3833 57.2165 41.9963 57.0803 42.5373 57.2451C42.5589 57.2523 42.595 57.2666 42.6166 57.2953Z" fill="#F70032"/>
<path d="M41.1742 40.2515C40.3592 41.2764 40.3448 43.018 40.3952 43.6129C40.4457 44.2508 40.4962 44.8959 40.7054 45.5051C41.0011 46.3652 41.5925 47.0819 42.1766 47.7843C42.3786 48.028 42.2416 48.4938 42.494 48.6945C43.4893 49.4901 44.8163 48.5512 46.0928 48.63C46.1649 48.2358 46.4246 47.9205 46.6914 47.6194C47.4487 46.788 48.069 46.8095 48.8551 45.5337C49.9802 43.7133 49.2013 41.5989 47.9175 39.9289C47.1097 38.8825 45.4149 38.9255 44.2321 38.947C42.9844 38.9685 41.9459 39.2839 41.1742 40.2515Z" fill="#222272"/>
<path d="M42.6165 46.0069C42.393 44.9461 42.3497 43.8782 42.4002 42.7959C42.4435 41.8713 43.2584 41.2621 43.2007 40.3949C43.1647 39.8931 42.4651 39.6208 42.1982 40.1225C41.715 41.0399 41.2967 41.7136 41.3112 42.7959C41.3328 43.9713 41.6285 45.1539 42.1045 46.2219C42.2415 46.5229 42.6742 46.2935 42.6165 46.0069Z" fill="#990028"/>
<path d="M44.5927 46.3007C45.0903 45.4048 45.2057 44.4515 45.2706 43.4409C45.3356 42.459 45.0182 41.5058 45.112 40.5382C45.1841 39.7785 43.9652 39.7713 43.9075 40.5382C43.8499 41.3839 44.1167 42.2082 44.1528 43.0539C44.196 44.0932 44.0951 45.1253 44.0879 46.1645C44.0879 46.4369 44.4629 46.5444 44.5927 46.3007Z" fill="#990028"/>
<path d="M46.5111 46.4799C47.2251 45.5266 47.4415 44.4444 47.5064 43.2761C47.5569 42.3802 47.3405 40.9467 46.4823 40.4737C46.2948 40.3662 46.0856 40.4665 46.0135 40.6601C45.7178 41.4556 46.4029 42.416 46.4318 43.269C46.4678 44.258 46.2659 45.3188 46.0135 46.272C45.9414 46.5802 46.338 46.7092 46.5111 46.4799Z" fill="#990028"/>
<path d="M42.5013 47.6553C42.5013 47.6624 42.5013 47.6624 42.5013 47.6696C42.5157 47.7341 42.5807 47.8129 42.6528 47.8201H42.66C42.8836 47.8559 43.0711 47.6051 42.8908 47.4259C42.7249 47.2539 42.4436 47.4259 42.5013 47.6553Z" fill="#F70032"/>
<path d="M43.446 47.3399C43.1215 47.3399 43.1215 47.8416 43.446 47.8416C43.7706 47.8416 43.7706 47.3399 43.446 47.3399Z" fill="#F70032"/>
<path d="M44.2466 47.3686C43.9582 47.3686 43.9582 47.813 44.2466 47.813C44.5351 47.813 44.5351 47.3686 44.2466 47.3686Z" fill="#F70032"/>
<path d="M45.0111 47.3399C44.6649 47.3399 44.6649 47.8775 45.0111 47.8775C45.3573 47.8775 45.3573 47.3399 45.0111 47.3399Z" fill="#F70032"/>
<path d="M45.8116 47.4116C45.4943 47.4116 45.4943 47.9061 45.8116 47.9061C46.1289 47.9061 46.1289 47.4116 45.8116 47.4116Z" fill="#F70032"/>
<path d="M37.7989 51.927C37.4528 51.927 37.4528 52.4574 37.7989 52.4574C38.1451 52.4645 38.1451 51.927 37.7989 51.927Z" fill="#F70032"/>
<path d="M39.2845 48.8523C39.2845 48.8451 39.2773 48.8379 39.2701 48.8308C39.1691 48.6086 38.8374 48.6946 38.7797 48.9024C38.7797 48.9096 38.7725 48.9239 38.7725 48.9311C38.7292 49.1031 38.8662 49.2751 39.0393 49.268C39.2701 49.2608 39.3639 49.0314 39.2845 48.8523Z" fill="#F70032"/>
<path d="M40.2149 50.3359C39.9264 50.3359 39.9264 50.7802 40.2149 50.7802C40.5034 50.7802 40.5034 50.3359 40.2149 50.3359Z" fill="#F70032"/>
<path d="M41.8304 47.3471C41.4698 47.3471 41.4698 47.8989 41.8304 47.8989C42.191 47.8989 42.191 47.3471 41.8304 47.3471Z" fill="#F70032"/>
<path d="M39.811 46.6447C39.8038 46.6447 39.7965 46.6376 39.7821 46.6304C39.6307 46.5587 39.4576 46.6447 39.4504 46.8168C39.4504 46.8239 39.4504 46.8382 39.4504 46.8454C39.4432 47.0246 39.6595 47.1393 39.811 47.0533C39.9552 46.9744 39.9841 46.7164 39.811 46.6447Z" fill="#F70032"/>
<path d="M37.0416 49.5618C37.0416 49.5474 37.0344 49.5331 37.0344 49.5116C36.9767 49.2536 36.5656 49.2536 36.5079 49.5116C36.5079 49.5259 36.5007 49.5474 36.5007 49.5618C36.4646 49.741 36.58 49.9201 36.7748 49.9201C36.9551 49.9201 37.0777 49.741 37.0416 49.5618Z" fill="#F70032"/>
<path d="M34.8346 51.4826C34.4091 51.4826 34.4091 52.1348 34.8346 52.1348C35.2602 52.142 35.2602 51.4826 34.8346 51.4826Z" fill="#F70032"/>
<path d="M32.9811 48.9024C32.6277 48.9024 32.6277 49.4471 32.9811 49.4471C33.3345 49.4471 33.3417 48.9024 32.9811 48.9024Z" fill="#F70032"/>
<path d="M31.1564 51.5973C30.8175 51.5973 30.8175 52.1205 31.1564 52.1205C31.4954 52.1277 31.4954 51.5973 31.1564 51.5973Z" fill="#F70032"/>
<path d="M34.6688 47.3686C34.7626 47.2682 34.7842 47.1822 34.7626 47.0532C34.7481 46.96 34.6327 46.8884 34.5462 46.8884C34.4164 46.8884 34.3298 46.9887 34.3226 47.1106C34.3226 47.1177 34.3226 47.132 34.3226 47.1464C34.3298 47.1105 34.3443 47.0676 34.3515 47.0317C34.3515 47.0389 34.3443 47.0389 34.3443 47.046C34.1207 47.2539 34.4669 47.5908 34.6688 47.3686Z" fill="#F70032"/>
<path d="M36.0752 44.5805C35.7507 44.5805 35.7507 45.0822 36.0752 45.0822C36.3997 45.0822 36.3997 44.5805 36.0752 44.5805Z" fill="#F70032"/>
<path d="M31.1853 49.4973C30.7598 49.4973 30.7598 50.1495 31.1853 50.1495C31.6109 50.1567 31.6109 49.4973 31.1853 49.4973Z" fill="#F70032"/>
<path d="M33.1686 51.0311C33.1614 51.0239 33.1542 51.0239 33.147 51.0167C32.9955 50.9235 32.7431 51.0454 32.7647 51.2317C32.7647 51.2389 32.7647 51.2532 32.7647 51.2604C32.7864 51.4539 32.9811 51.5973 33.1686 51.4898C33.3489 51.3894 33.3345 51.1386 33.1686 51.0311Z" fill="#F70032"/>
<path d="M29.0433 49.6263C28.7115 49.6263 28.7115 50.1352 29.0433 50.1352C29.375 50.1352 29.375 49.6263 29.0433 49.6263Z" fill="#F70032"/>
<path d="M28.8269 51.3464C28.4158 51.3464 28.4158 51.9771 28.8269 51.9771C29.238 51.9843 29.238 51.3464 28.8269 51.3464Z" fill="#F70032"/>
<path d="M38.6859 50.7945C38.7219 50.7444 38.7364 50.687 38.7364 50.6297C38.7219 50.3645 38.3181 50.2857 38.2532 50.5652C38.2532 50.5724 38.2532 50.5795 38.2459 50.5795C38.2676 50.5437 38.2892 50.5078 38.3109 50.472C38.3036 50.4792 38.2964 50.4864 38.2892 50.4935C38.0152 50.7014 38.4551 51.1171 38.6859 50.7945Z" fill="#F70032"/>
<path d="M39.6019 41.8641C39.3134 41.8641 39.3134 42.3085 39.6019 42.3085C39.8903 42.3085 39.8903 41.8641 39.6019 41.8641Z" fill="#F70032"/>
<path d="M38.5777 44.9747C38.1883 44.9747 38.1883 45.5696 38.5777 45.5696C38.96 45.5696 38.96 44.9747 38.5777 44.9747Z" fill="#F70032"/>
<path d="M35.5415 47.9921C35.1232 47.9921 35.1232 48.63 35.5415 48.63C35.9526 48.63 35.9526 47.9921 35.5415 47.9921Z" fill="#F70032"/>
<path d="M37.5898 47.1894C37.597 47.1822 37.597 47.1751 37.6042 47.1607C37.734 46.9314 37.5249 46.702 37.2869 46.745C37.2075 46.7594 37.1354 46.831 37.1066 46.9027C37.0489 47.0461 37.0633 47.2037 37.2075 47.2898C37.3373 47.3686 37.5176 47.3256 37.5898 47.1894Z" fill="#F70032"/>
<path d="M37.5825 43.0826C37.5681 43.0826 37.5464 43.0826 37.532 43.0754C37.4022 43.0611 37.2796 43.1757 37.2507 43.2904C37.2147 43.4266 37.2796 43.5413 37.3878 43.6201C37.4022 43.6273 37.4166 43.6416 37.431 43.6488C37.5969 43.7635 37.8349 43.6416 37.8854 43.4624C37.9359 43.2617 37.7772 43.1041 37.5825 43.0826Z" fill="#F70032"/>
<path d="M39.6812 43.914C39.6812 43.8997 39.6812 43.8925 39.6739 43.8782C39.6595 43.7707 39.6162 43.6846 39.5008 43.656C39.3855 43.6273 39.2412 43.6918 39.2124 43.8208C39.2124 43.8352 39.2051 43.8423 39.2051 43.8567C39.133 44.2222 39.7172 44.2294 39.6812 43.914Z" fill="#F70032"/>
<path d="M46.6626 36.8399C46.6626 36.8255 46.6626 36.8183 46.6626 36.804C46.6698 36.4958 46.1938 36.4958 46.1794 36.804C46.1794 36.8183 46.1794 36.8255 46.1794 36.8399C46.165 37.148 46.6554 37.148 46.6626 36.8399Z" fill="#F70032"/>
<path d="M44.5783 37.5852C44.1311 37.5852 44.1311 38.2733 44.5783 38.2733C45.0254 38.2733 45.0254 37.5852 44.5783 37.5852Z" fill="#F70032"/>
<path d="M46.1071 38.0583C46.0134 38.0225 45.9341 38.13 45.9485 38.216C45.9485 38.2231 45.9485 38.2303 45.9557 38.2375C45.9773 38.345 46.1216 38.3665 46.1865 38.302C46.2658 38.2231 46.2225 38.1085 46.1216 38.0726L46.1071 38.0583Z" fill="#F70032"/>
<path d="M21.8096 8.60789C20.2013 10.242 20.1364 18.8858 20.122 19.108C20.0787 20.1472 21.0019 25.7305 20.5836 26.7196C20.2446 27.5152 19.4512 27.8879 18.9897 28.6118C18.5209 29.3357 18.3766 30.2961 18.7445 31.0773C19.0618 31.7582 19.7037 32.2313 20.4032 32.5036C22.1558 33.1845 23.966 32.9337 25.6248 32.0449C25.9061 31.8944 26.3749 31.4715 26.6057 31.2494C26.8509 31.02 27.0384 30.7261 27.1682 30.4179C27.4567 29.7371 27.4711 28.9845 27.4423 28.2463C27.3341 25.9241 26.7211 23.652 26.1153 21.4087C25.9422 20.7779 25.7691 20.1401 25.4373 19.5738C24.6151 18.2121 26.7355 7.71914 21.8096 8.60789Z" fill="#0C0A35"/>
<path d="M22.7256 13.324C21.0235 14.5353 19.4729 18.3984 22.0043 19.6455C22.1269 19.71 22.2856 19.581 22.1991 19.452C21.55 18.3912 21.1461 17.5813 21.3625 16.2984C21.5355 15.2735 22.1414 14.2342 22.8265 13.4601C22.8914 13.3885 22.8049 13.2666 22.7256 13.324Z" fill="#B70027"/>
<path d="M22.0693 19.5452C22.2279 19.9895 22.4371 20.3837 22.7256 20.7636C22.9996 21.1291 23.3025 21.6308 23.7353 21.8172C23.8435 21.8674 23.9733 21.7885 23.9444 21.6595C23.8434 21.2438 23.4684 20.9213 23.1944 20.6059C22.8698 20.2332 22.5381 19.8534 22.2279 19.4663C22.163 19.3875 22.0404 19.4663 22.0693 19.5452Z" fill="#B70027"/>
<path d="M23.3458 14.1554C21.6148 14.7144 21.5716 17.438 23.1943 18.1547C23.3169 18.2049 23.4539 18.0974 23.3818 17.9684C23.0861 17.4523 22.6606 17.0796 22.5236 16.4776C22.3577 15.7393 22.7688 14.7144 23.4395 14.3704C23.5621 14.3202 23.4756 14.1124 23.3458 14.1554Z" fill="#B70027"/>
<path d="M21.0955 7.82666C21.86 9.03794 22.1124 10.4284 21.8456 11.826C21.5932 13.152 20.2517 13.883 19.7396 15.0871C18.7371 17.481 19.5233 19.753 20.9801 21.7814C21.8672 23.0213 22.1341 24.6555 22.1413 26.1391C22.1485 27.4077 21.6292 28.6548 21.6364 29.9449C21.6436 30.8552 22.1052 31.6937 22.6317 32.4033C23.0067 32.905 23.4322 33.3136 23.7784 33.8439C24.1679 34.4245 24.2039 35.1555 24.5069 35.7719C24.5862 35.9296 24.8458 35.8149 24.7881 35.6501C24.4564 34.618 24.3049 33.7579 23.7063 32.8334C23.3818 32.3316 22.949 31.9231 22.6389 31.4142C22.0619 30.4753 22.1701 29.3715 22.3288 28.3395C22.7038 25.8596 22.8553 23.7309 21.4778 21.4875C20.5762 20.0182 19.8478 18.764 19.8045 16.9721C19.7613 15.2305 21.2902 14.0909 22.0764 12.7076C22.949 11.1666 22.336 8.9591 21.1532 7.7765C21.1171 7.76216 21.0739 7.79083 21.0955 7.82666Z" fill="#B70027"/>
<path d="M20.1724 8.92331C21.211 9.38201 21.074 10.3926 20.5547 11.2025C20.1508 11.8261 19.3503 12.3134 19.1772 13.0588C19.1483 13.1878 19.2781 13.2882 19.4007 13.2308C20.2229 12.8151 21.4057 11.4749 21.5067 10.5144C21.5932 9.69737 21.1317 8.75845 20.2013 8.81579C20.1508 8.81579 20.1147 8.89464 20.1724 8.92331Z" fill="#B70027"/>
<path d="M18.2684 21.1077C18.3333 21.3299 18.5064 21.4446 18.6867 21.5951C19.1843 22.0108 19.3935 22.4623 19.7397 22.9927C20.8071 24.6053 20.8648 26.2251 19.8767 27.9238C18.6579 30.031 19.0401 33.0556 21.3047 34.231C21.4345 34.3027 21.6076 34.1593 21.5139 34.0231C21.0234 33.2491 20.3239 32.8119 19.9993 31.8873C19.6892 31.0057 19.8046 29.8231 20.0426 28.9559C20.3094 27.974 20.9802 27.2787 21.1172 26.218C21.2398 25.2145 21.2398 24.0965 20.5763 23.265C20.2085 22.8135 19.9416 22.1828 19.5594 21.7671C19.2493 21.4302 18.7444 21.337 18.4343 21.0217C18.3622 20.9428 18.2468 21.0145 18.2684 21.1077Z" fill="#B70027"/>
<path d="M24.002 23.4012C24.0092 24.7702 24.2833 25.8883 23.6126 27.1856C23.2664 27.8593 22.913 28.7767 22.9274 29.5364C22.9707 31.1777 24.2905 32.4679 25.6103 33.3136C25.7113 33.3781 25.8411 33.2491 25.7762 33.1488C25.4228 32.6327 24.9901 32.2098 24.5646 31.7511C23.5982 30.719 23.5549 29.5579 23.8866 28.2392C24.0669 27.5224 24.5069 26.9347 24.6656 26.2037C24.8531 25.3292 24.3915 24.2255 24.2833 23.3869C24.2617 23.2292 24.002 23.2221 24.002 23.4012Z" fill="#B70027"/>
<path d="M25.3651 25.2002C25.6247 26.3398 25.5237 27.2285 25.1415 28.3108C24.9468 28.8626 24.853 29.522 24.9828 30.0954C25.2352 31.2135 25.8627 32.2815 26.9517 32.7545C27.0671 32.8047 27.1897 32.6757 27.0888 32.5753C25.906 31.3282 25.0477 30.2316 25.5093 28.4183C25.8266 27.1783 25.9853 26.3899 25.6752 25.1213C25.6319 24.9063 25.3218 24.9923 25.3651 25.2002Z" fill="#B70027"/>
<path d="M26.3893 25.1286C26.8292 26.648 25.9133 28.3467 26.346 29.9306C26.6128 30.9054 27.3485 32.0665 28.4664 32.0952C28.6467 32.1023 28.6899 31.8658 28.5529 31.7798C27.0672 30.7979 26.7427 29.3071 26.8148 27.6299C26.8436 26.9705 27.0888 25.5729 26.4758 25.0784C26.4398 25.0497 26.3748 25.0784 26.3893 25.1286Z" fill="#B70027"/>
<path d="M34.4885 6.29998C34.4741 6.19964 34.6255 6.17814 34.7193 6.19964C35.1159 6.29282 35.5054 6.40749 35.8876 6.55083C36.8901 6.9307 37.8349 7.49692 38.5273 8.30683C39.775 9.76896 40.0346 11.8116 40.0995 13.7253C40.1644 15.639 40.4457 17.6745 41.0082 19.8605C41.0371 20.3407 37.4527 20.3479 36.7892 20.2977C36.5944 17.4451 36.4069 14.5854 35.9453 11.7686C35.8155 10.9587 35.6568 10.1488 35.2962 9.41775C34.9284 8.68669 34.3298 8.03447 33.5509 7.77645C33.7384 7.05972 34.2505 6.43616 34.9212 6.11363L34.4885 6.29998Z" fill="#222272"/>
<path d="M23.4684 9.74035C22.2784 11.2742 22.0476 13.4387 22.7399 15.2448C22.8121 15.4383 22.8986 15.639 22.8842 15.8469C22.8409 16.2769 21.211 18.0186 20.7999 18.7066C20.7205 18.8428 20.6412 18.9862 20.634 19.1438C20.6268 19.5309 21.0595 19.7817 21.4418 19.8391C21.8312 19.8964 22.2495 19.8677 22.5741 20.0756C23.115 20.4196 23.1005 21.1937 23.0789 21.8316C23.0284 23.3152 23.3169 24.9278 24.3915 25.9528C25.531 27.035 27.3557 27.207 28.8126 26.5978C30.2622 25.9886 31.3584 24.7128 32.0292 23.2937C32.2888 22.7418 32.4907 22.1684 32.6711 21.5879C33.2913 19.6169 33.6735 17.5742 33.8034 15.51C33.8683 14.5209 33.8755 13.5175 33.6447 12.5499C33.4211 11.5823 32.9379 10.6506 32.1734 10.0199C31.7479 9.67585 31.2503 9.42499 30.7454 9.22431C28.8991 8.50758 26.8076 8.42156 24.9036 8.98061C24.2689 9.16696 23.6415 9.43932 23.2087 9.93386L23.4684 9.74035Z" fill="#FFD6A1"/>
<path d="M22.9275 7.17444C22.1847 7.68332 21.6582 8.48606 21.4851 9.36763C21.3625 9.97685 21.413 10.6004 21.4562 11.2168C21.9539 11.3888 22.365 11.3458 22.8915 11.3028C25.7763 11.0591 28.6828 11.0735 31.5604 11.3315C30.933 15.3523 31.784 19.452 31.7624 23.523C31.748 26.1463 31.5244 27.4005 32.1951 29.9378C32.8081 32.2456 34.1063 32.346 35.7651 32.3245C37.3302 32.303 39.0466 32.0234 40.2294 31.0057C41.4122 29.9879 41.6863 27.8521 41.0949 26.4114C40.6261 25.2862 39.4866 24.5551 38.3038 24.2183C38.0153 24.1394 37.698 24.0534 37.5393 23.8026C37.4455 23.652 37.4311 23.4585 37.4239 23.2793C37.2508 20.3121 37.0849 17.352 36.9118 14.3847C36.8397 13.0803 36.5945 12.0195 36.1906 10.7724C35.794 9.52531 34.6977 8.74408 33.551 8.10619C32.498 7.51847 31.7408 6.7874 30.5363 6.73006C29.065 6.65839 27.5938 6.58673 26.1225 6.51505C25.5095 6.48638 24.8892 6.45771 24.2978 6.60822L22.9275 7.17444Z" fill="#0C0A35"/>
<path d="M22.6318 23.3581C22.6102 23.4585 22.6102 23.5732 22.6679 23.6663C22.7184 23.7523 23.115 24.3042 23.7497 23.9889C23.8867 23.9172 24.3122 23.6448 24.4421 23.566C25.4662 22.9854 25.8989 22.8063 26.6129 22.5841C25.7979 22.5267 25.1705 22.2974 24.7233 22.0394C24.3555 21.8315 24.0742 21.6595 23.692 21.5018C23.3025 21.337 22.7833 21.3656 22.5525 21.7097C22.5164 21.767 22.4731 21.8315 22.4731 21.896C22.4804 22.4622 22.8554 22.5841 22.9924 22.7203C23.0357 22.7848 22.6895 23.0213 22.6318 23.3581Z" fill="#F70032"/>
<path d="M30.291 12.5785C29.0433 11.4246 26.4181 11.4748 25.156 12.6144C25.0694 12.6932 25.1343 12.8724 25.2569 12.8581C26.0575 12.7936 26.7931 12.4209 27.6009 12.3205C28.5096 12.2058 29.3679 12.3994 30.2117 12.7219C30.291 12.7506 30.3487 12.6359 30.291 12.5785Z" fill="#0C0A35"/>
<path d="M25.971 14.8793C25.8484 14.6929 25.7546 14.4922 25.632 14.3059C25.5382 14.1626 25.4156 13.9547 25.2209 13.9905C25.1776 13.9977 25.1488 14.0479 25.1488 14.0909C25.1416 14.1769 25.1704 14.2127 25.2281 14.2772C25.293 14.3489 25.3435 14.4349 25.394 14.5137C25.495 14.6929 25.5743 14.8793 25.6825 15.0513C25.7979 15.2233 26.0936 15.0513 25.971 14.8793Z" fill="#0C0A35"/>
<path d="M27.7018 14.9796C27.8966 14.7216 27.8749 14.3274 27.9831 14.0264C28.0696 13.7827 28.1634 13.3598 27.9326 13.1734C27.8894 13.1376 27.8316 13.1304 27.7812 13.1734C27.6009 13.3455 27.5792 13.7397 27.572 13.969C27.5648 14.2987 27.572 14.6427 27.6153 14.9724C27.6297 15.0154 27.6874 15.0083 27.7018 14.9796Z" fill="#0C0A35"/>
<path d="M27.0384 14.951C27.1394 14.6786 27.0528 14.4134 26.9519 14.1554C26.8942 14.012 26.8365 13.8759 26.786 13.7325C26.7427 13.6107 26.7211 13.5032 26.5985 13.4458C26.5624 13.4243 26.5264 13.4315 26.4903 13.4602C26.3028 13.6107 26.4254 13.9117 26.4831 14.0981C26.5624 14.3991 26.6778 14.7144 26.8437 14.9796C26.9014 15.0513 27.0096 15.0298 27.0384 14.951Z" fill="#0C0A35"/>
<path d="M29.3535 15.2162C29.8439 15.2233 30.6517 14.8865 30.7382 14.3346C30.7455 14.2701 30.7022 14.2199 30.6373 14.2342C30.4281 14.2701 30.219 14.4421 30.0603 14.5783C29.8295 14.7718 29.5771 14.9366 29.3247 15.0943C29.267 15.1302 29.2814 15.2162 29.3535 15.2162Z" fill="#0C0A35"/>
<path d="M28.726 14.8219C29.0938 14.5926 29.5049 14.1195 29.4977 13.668C29.4977 13.5963 29.4328 13.5461 29.3607 13.5605C28.8775 13.6895 28.7332 14.3345 28.6467 14.7502C28.6323 14.8004 28.6827 14.8506 28.726 14.8219Z" fill="#0C0A35"/>
<path d="M27.7378 15.2878C27.6441 15.5315 27.6008 15.7967 27.6224 16.0619C27.6368 16.2697 27.6152 16.5564 27.7811 16.7141C27.8244 16.7571 27.8893 16.7571 27.9325 16.7141C28.1056 16.5421 28.0335 16.2841 28.0047 16.0619C27.9686 15.8039 27.8748 15.553 27.8244 15.2878C27.8171 15.2376 27.7522 15.252 27.7378 15.2878Z" fill="#0C0A35"/>
<path d="M26.9085 15.3882C26.8364 15.5888 26.7787 15.7967 26.7138 15.9974C26.6561 16.1766 26.584 16.4059 26.6921 16.5779C26.7282 16.6281 26.7859 16.6496 26.8436 16.6138C27.0311 16.5134 27.0455 16.2912 27.0888 16.0977C27.1393 15.8755 27.1465 15.639 27.1321 15.4168C27.1177 15.2878 26.9518 15.2663 26.9085 15.3882Z" fill="#0C0A35"/>
<path d="M26.0791 15.3594C25.9205 15.5171 25.8195 15.682 25.7113 15.8755C25.6176 16.0475 25.4661 16.198 25.4445 16.4059C25.4445 16.4489 25.4805 16.4919 25.5238 16.4847C25.7474 16.4632 25.8483 16.2697 25.9493 16.0905C26.0647 15.8826 26.1296 15.6605 26.2162 15.4454C26.245 15.3594 26.1296 15.3021 26.0791 15.3594Z" fill="#0C0A35"/>
<path d="M28.7116 15.2233C28.3078 15.424 28.6828 16.6711 29.1011 16.4274C29.3391 16.2912 29.0867 15.8684 29.0145 15.7035C28.9785 15.6319 28.8631 15.1516 28.7116 15.2233Z" fill="#0C0A35"/>
<path d="M29.3895 15.1516C29.4039 15.3523 29.3895 15.5243 29.476 15.7178C29.5554 15.9114 29.6708 16.0905 29.8799 16.1622C29.9376 16.1837 30.0097 16.1622 30.053 16.1192C30.2045 15.9687 29.9953 15.7537 29.9015 15.6462C29.8294 15.5602 29.7717 15.4598 29.6996 15.3738C29.6275 15.2878 29.5409 15.2161 29.4688 15.123C29.4328 15.0943 29.3823 15.1158 29.3895 15.1516Z" fill="#0C0A35"/>
<path d="M24.6294 15.2878C25.4732 14.6069 26.5478 14.2198 27.6369 14.1912C28.7259 14.1625 29.8149 14.5065 30.6948 15.1444C30.2765 15.4455 29.75 15.5458 29.2452 15.6461C28.8052 15.7321 28.185 15.8182 27.7378 15.8325C27.1032 15.8468 26.5406 15.811 25.9276 15.682C25.4516 15.5816 25.0982 15.5315 24.6294 15.2878Z" fill="white"/>
<path d="M27.7018 15.725C28.0408 15.725 28.322 15.4455 28.322 15.1086C28.322 14.7718 28.0408 14.4922 27.7018 14.4922C27.3628 14.4922 27.0815 14.7718 27.0815 15.1086C27.0888 15.4455 27.37 15.725 27.7018 15.725Z" fill="#0C0A35"/>
<path d="M23.3601 6.14241C22.4226 6.69429 22.0908 7.5257 22.2134 8.58646C22.2711 9.06667 22.4731 9.50387 22.7183 9.90524C23.5837 11.31 23.0645 12.2059 22.5235 13.5606C22.4875 13.6537 22.6173 13.7469 22.6966 13.6896C23.728 12.9442 23.9155 11.8762 23.7929 10.665C23.7352 10.1131 23.3746 9.79057 23.0933 9.34619C22.4875 8.40011 22.6606 7.00965 23.4683 6.27142C23.5332 6.20691 23.4467 6.09941 23.3601 6.14241Z" fill="#B70027"/>
<path d="M24.7448 5.70518C24.2039 6.28573 23.7496 7.23181 23.9804 8.04889C24.1462 8.64377 24.4492 9.11681 24.7665 9.64719C25.5959 11.0376 24.6727 12.1772 24.3338 13.4674C24.2905 13.625 24.4924 13.7469 24.6078 13.625C25.4228 12.7936 25.7185 11.6827 25.668 10.5359C25.6464 9.96255 25.3218 9.41783 25.0333 8.95196C24.4419 7.97004 24.2977 6.82328 24.8602 5.78402C24.8963 5.71951 24.8025 5.64067 24.7448 5.70518Z" fill="#B70027"/>
<path d="M26.4397 6.22119C25.8195 7.16011 25.906 7.99867 26.2811 9.03793C26.4902 9.61848 26.8797 10.1274 27.1105 10.7007C27.5288 11.74 26.7354 12.7363 26.5624 13.7397C26.5407 13.883 26.6994 13.9977 26.8148 13.8902C27.6442 13.1161 28.0048 12.1557 27.9182 11.0376C27.774 9.23145 25.7834 8.29254 26.5263 6.26419C26.5407 6.20685 26.4686 6.18535 26.4397 6.22119Z" fill="#B70027"/>
<path d="M27.6441 6.07071C27.3051 7.0813 27.6802 7.78369 28.2788 8.62227C28.8269 9.38917 29.1009 10.0199 29.1442 10.9731C29.1875 11.9837 28.5817 12.7363 28.4158 13.6752C28.3942 13.7971 28.5023 13.8831 28.6177 13.8329C29.7645 13.324 29.8582 11.6469 29.7933 10.5574C29.6923 8.80146 27.7306 7.81953 27.846 6.10655C27.8532 5.97754 27.6801 5.9632 27.6441 6.07071Z" fill="#B70027"/>
<path d="M29.0722 5.75536C28.9496 7.11715 29.5193 8.06324 30.4497 9.00932C32.1229 10.708 30.2982 12.593 30.0819 14.392C30.0675 14.521 30.255 14.5926 30.3415 14.4995C31.2863 13.4387 31.8344 11.8117 31.8056 10.4069C31.7984 9.90523 31.5604 9.27451 31.2142 8.89464C30.3055 7.89122 29.4256 7.1745 29.1732 5.74104C29.1587 5.6837 29.0722 5.69803 29.0722 5.75536Z" fill="#B70027"/>
<path d="M30.3343 6.23559C30.5434 7.03115 31.3295 7.64753 31.7406 8.34276C32.7287 10.0199 33.1254 11.7401 32.6782 13.6394C32.3537 15.0298 31.5748 16.2554 31.2863 17.6602C31.0483 18.8142 31.5675 19.8391 31.9354 20.8999C32.3969 22.2258 33.0532 23.6736 33.1975 25.0712C33.3417 26.4473 32.4763 27.7805 32.0003 29.0204C31.344 30.7477 31.7839 32.8406 33.1254 34.102C33.2191 34.188 33.385 34.0733 33.3057 33.9658C31.5315 31.3068 32.6205 29.2498 33.486 26.5548C34.1855 24.3832 32.7792 21.7026 31.9642 19.7388C30.868 17.094 33.3057 14.3633 33.3417 11.6397C33.3562 10.5503 32.8874 9.50386 32.433 8.53628C31.9281 7.46835 31.1132 7.08132 30.4929 6.17107C30.4425 6.08506 30.3054 6.13524 30.3343 6.23559Z" fill="#B70027"/>
<path d="M29.7789 21.4589C30.731 22.3978 31.4666 23.4442 31.618 24.7988C31.7407 25.8954 31.243 26.9562 31.2358 28.0528C31.2358 28.2033 31.4305 28.2463 31.5026 28.1245C33.1182 25.6159 32.1734 22.9425 29.9953 21.251C29.8439 21.1292 29.6347 21.3155 29.7789 21.4589Z" fill="#B70027"/>
<path d="M33.0316 6.62979C33.7456 7.55437 34.236 8.35711 34.4884 9.51104C34.8418 11.1022 34.3081 12.7292 33.8033 14.2343C33.1253 16.2555 32.0219 17.9684 33.0893 20.133C33.6374 21.2511 34.3081 22.19 34.6399 23.4156C35.1303 25.2217 34.7192 26.7054 34.0052 28.3825C33.2263 30.2173 32.945 32.2887 34.3658 33.8583C34.4668 33.9658 34.676 33.8512 34.6183 33.7078C34.0557 32.303 33.861 31.0918 34.2504 29.601C34.5533 28.4255 35.3467 27.3576 35.4693 26.1248C35.5847 24.9781 35.4404 23.8886 35.1592 22.7777C34.8418 21.5449 34.0341 20.5845 33.5869 19.4091C32.5916 16.7858 34.9933 14.0479 35.1808 11.4032C35.3106 9.60421 34.8995 7.37519 33.1326 6.52228C33.0821 6.49361 32.9811 6.55811 33.0316 6.62979Z" fill="#B70027"/>
<path d="M36.0102 8.37857C36.0174 9.74035 36.4069 10.9086 36.0896 12.3062C35.7794 13.6537 35.2313 14.9151 34.8058 16.2267C33.9404 18.8858 35.2602 20.9285 36.1545 23.3654C36.6737 24.7702 36.9334 26.0961 36.443 27.5582C36.0247 28.8054 35.2746 29.8088 34.9861 31.1132C34.5245 33.1917 35.7794 34.489 37.3589 35.5283C37.532 35.6429 37.7123 35.4279 37.6258 35.2631C37.1281 34.3098 36.2338 33.8225 35.8371 32.7474C35.2746 31.2494 36.3708 29.5938 36.9839 28.2965C37.8854 26.3971 37.4382 24.5623 36.717 22.6916C36.2699 21.5377 35.628 20.477 35.253 19.3015C34.777 17.8107 35.2818 16.3056 35.7939 14.9151C36.2122 13.7827 36.5944 12.6359 36.8468 11.4462C37.0848 10.3352 36.5223 9.38199 36.2266 8.35707C36.1978 8.22806 36.0102 8.24956 36.0102 8.37857Z" fill="#B70027"/>
<path d="M37.8206 13.6322C36.6738 14.994 36.2339 16.6424 36.4214 18.3984C36.5729 19.8176 37.0633 21.6452 38.5562 22.1684C38.7365 22.2329 38.9168 22.0036 38.8086 21.8459C37.2003 19.5309 36.2483 16.3558 38.0586 13.8185C38.1595 13.6752 37.9287 13.5032 37.8206 13.6322Z" fill="#B70027"/>
<path d="M37.6761 23.6163C38.6209 25.0641 38.931 26.4258 38.2243 28.0672C37.7194 29.2354 37.0631 30.1528 36.8323 31.4358C36.5294 33.1488 38.1089 34.5249 39.6378 34.8832C39.8109 34.9262 39.9552 34.7112 39.8181 34.5751C39.0176 33.8225 37.9862 33.3709 37.6184 32.2528C37.1569 30.8481 38.5776 29.1852 39.0969 27.9525C39.7676 26.3542 39.3638 24.3617 37.8276 23.4586C37.7338 23.4084 37.6112 23.5159 37.6761 23.6163Z" fill="#B70027"/>
<path d="M39.4215 24.1179C40.2798 25.7377 40.4745 27.2429 39.7028 28.9415C39.3134 29.7944 38.9456 30.4681 38.9311 31.4214C38.9023 32.7545 40.2293 34.0804 41.4914 34.2238C41.6068 34.2381 41.6501 34.0805 41.578 34.0088C40.8928 33.2777 40.1428 32.8262 39.7317 31.8443C39.2412 30.6688 40.3303 29.3142 40.6909 28.2319C41.1957 26.6981 40.5755 25.2002 39.6451 23.9889C39.5442 23.8599 39.3422 23.9674 39.4215 24.1179Z" fill="#B70027"/>
<path d="M21.8889 3.76279C21.8096 3.46177 21.6221 2.93856 21.5716 2.55869C21.5571 2.45835 21.6581 2.37234 21.7591 2.40101C21.9827 2.45835 23.6054 3.7843 24.2689 4.23584C24.3771 4.30751 24.5285 4.27168 24.579 4.14983C24.9829 3.18942 25.2498 2.02831 25.4589 0.996219C25.4878 0.867208 25.6536 0.831381 25.733 0.93889C26.3604 1.8348 27.0961 2.76655 27.5432 3.76997C27.5721 3.83447 27.6658 3.83447 27.6875 3.76279C28.0913 2.72354 28.5601 1.70578 29.0866 0.716695C29.1659 0.566182 29.3895 0.573352 29.4616 0.731033C29.916 1.74879 29.9953 2.71637 30.356 3.78429C30.3992 3.91331 30.4713 4.05665 30.6012 4.07816C30.7382 4.09966 30.8608 3.97782 30.9329 3.85597C31.1998 3.44027 32.2311 1.5481 32.7432 1.07506C32.8802 0.946048 33.111 1.01055 33.1543 1.1969C33.4355 2.36517 33.3274 4.35768 33.688 4.5942C33.9187 4.74471 35.729 2.61603 36.5295 2.61603C36.5656 2.61603 36.5656 2.63753 36.5872 2.6662C36.7964 2.96723 36.2122 5.07442 35.9309 6.4147C35.8877 6.60822 35.3972 9.51813 35.2674 9.41062C34.6039 8.85157 33.349 8.21369 31.7695 7.81232C28.5673 6.99525 26.7138 7.05258 23.4251 7.40378C23.2664 7.41811 23.0933 7.43245 22.9563 7.34644C22.8625 7.28193 22.8048 7.17442 22.7544 7.06692C22.5236 6.52937 22.3216 5.3826 21.8889 3.76279Z" fill="#191956"/>
<path d="M22.4515 4.0423C22.6029 4.40066 22.8049 4.7447 23.0212 5.06723C23.2592 5.42559 23.8506 5.06722 23.5982 4.73753C23.3602 4.42217 23.0501 4.15698 22.8554 3.81295C22.7039 3.54059 22.3361 3.77711 22.4515 4.0423Z" fill="#F70032"/>
<path d="M25.5526 2.93854C25.6031 3.46892 25.2497 4.20715 25.7545 4.63002C26.0935 4.90954 26.6561 4.65153 26.5262 4.18565C26.4685 3.97063 26.3459 3.77711 26.281 3.56209C26.2161 3.32557 26.1151 3.10339 26.0574 2.87404C25.9853 2.59451 25.5238 2.64468 25.5526 2.93854Z" fill="#F70032"/>
<path d="M28.9279 2.67333C28.7837 3.17504 28.5601 3.64092 28.5385 4.16413C28.5096 4.77335 29.4689 4.77335 29.4905 4.16413C29.5049 3.66959 29.4039 3.16071 29.3246 2.67333C29.2813 2.47265 28.9784 2.49415 28.9279 2.67333Z" fill="#F70032"/>
<path d="M32.2311 3.26822C32.022 3.67676 31.7191 4.04228 31.6109 4.49382C31.5027 4.93819 32.1878 5.27506 32.3898 4.82352C32.5845 4.38632 32.5701 3.92044 32.6999 3.4689C32.7792 3.18938 32.3609 3.00303 32.2311 3.26822Z" fill="#F70032"/>
<path d="M35.3828 4.32898C35.0005 4.80919 33.8466 5.16039 34.2577 5.98463C34.3947 6.26415 34.7697 6.26415 34.9789 6.0778C35.0943 5.97746 35.1231 5.83412 35.1808 5.71944C35.2457 5.58326 35.3323 5.44707 35.4188 5.31806C35.5703 5.08154 35.7217 4.84503 35.8299 4.58701C35.9237 4.34332 35.5486 4.12113 35.3828 4.32898Z" fill="#F70032"/>
<path d="M22.978 6.18532C23.2448 6.18532 23.2448 5.77679 22.978 5.77679C22.7111 5.77679 22.7111 6.18532 22.978 6.18532Z" fill="#0C0A35"/>
<path d="M23.7424 6.01329C24.0814 6.01329 24.0814 5.49008 23.7424 5.49008C23.4034 5.49008 23.4034 6.01329 23.7424 6.01329Z" fill="#0C0A35"/>
<path d="M24.5285 5.81982C24.8891 5.81982 24.8891 5.26794 24.5285 5.26794C24.1679 5.26794 24.1679 5.81982 24.5285 5.81982Z" fill="#0C0A35"/>
<path d="M25.5094 5.64783C25.8556 5.64783 25.8556 5.11028 25.5094 5.11028C25.1632 5.11028 25.1632 5.64783 25.5094 5.64783Z" fill="#0C0A35"/>
<path d="M26.5769 5.57613C26.9375 5.57613 26.9375 5.02425 26.5769 5.02425C26.2162 5.01709 26.2162 5.57613 26.5769 5.57613Z" fill="#0C0A35"/>
<path d="M27.5865 5.54031C27.9759 5.54031 27.9759 4.94542 27.5865 4.94542C27.2042 4.93825 27.2042 5.54031 27.5865 5.54031Z" fill="#0C0A35"/>
<path d="M28.6971 5.57614C29.0649 5.57614 29.0649 5.00993 28.6971 5.00993C28.3293 5.00993 28.3293 5.57614 28.6971 5.57614Z" fill="#0C0A35"/>
<path d="M29.7933 5.74097C30.226 5.74097 30.226 5.08158 29.7933 5.08158C29.3606 5.08158 29.3606 5.74097 29.7933 5.74097Z" fill="#0C0A35"/>
<path d="M30.8825 5.94166C31.3224 5.94166 31.3224 5.26077 30.8825 5.26077C30.4353 5.26077 30.4353 5.94166 30.8825 5.94166Z" fill="#0C0A35"/>
<path d="M31.9931 6.23547C32.3681 6.23547 32.3681 5.65491 31.9931 5.65491C31.618 5.65491 31.618 6.23547 31.9931 6.23547Z" fill="#0C0A35"/>
<path d="M32.9307 6.5939C33.3779 6.5939 33.3779 5.90584 32.9307 5.90584C32.4835 5.90584 32.4835 6.5939 32.9307 6.5939Z" fill="#0C0A35"/>
<path d="M33.7744 6.9236C34.1783 6.9236 34.1783 6.30004 33.7744 6.30004C33.3633 6.29288 33.3633 6.9236 33.7744 6.9236Z" fill="#0C0A35"/>
<path d="M34.6905 7.11706C34.6977 7.11706 34.7049 7.11706 34.7049 7.11706C34.8997 7.08123 34.8997 6.7587 34.7049 6.72286C34.6977 6.72286 34.6905 6.72286 34.6905 6.72286C34.3515 6.65119 34.3515 7.18157 34.6905 7.11706Z" fill="#0C0A35"/>
<path d="M35.4404 7.31057C35.4621 7.31057 35.4621 7.27473 35.4404 7.27473C35.4188 7.27473 35.4116 7.31057 35.4404 7.31057Z" fill="#0C0A35"/>
<path d="M35.3828 7.5041C35.7579 7.5041 35.7579 6.93071 35.3828 6.93071C35.0078 6.93071 35.0078 7.5041 35.3828 7.5041Z" fill="#0C0A35"/>
<path d="M35.9957 8.35704C36.1255 8.48605 36.2554 8.62223 36.3852 8.75124C36.4789 8.84442 36.6592 8.97343 36.7818 8.85158C36.9044 8.72974 36.7674 8.55773 36.6737 8.47172C36.5366 8.34987 36.3996 8.22086 36.2626 8.09902C36.0823 7.94134 35.8226 8.18502 35.9957 8.35704Z" fill="#191956"/>
<path d="M36.8685 7.94131C36.9839 8.04166 37.0849 8.15634 37.1786 8.27101C37.2868 8.40719 37.395 8.54337 37.5681 8.58638C37.6835 8.61505 37.7773 8.52903 37.7917 8.42152C37.8277 8.07032 37.359 7.79798 37.0921 7.66896C36.9118 7.58296 36.7099 7.80514 36.8685 7.94131Z" fill="#191956"/>
<path d="M36.0607 9.56112C36.1328 9.74031 36.2122 9.90515 36.3348 10.0485C36.4934 10.2348 36.8108 10.0342 36.7386 9.81197C36.6882 9.65429 36.5872 9.51812 36.5223 9.36761C36.4069 9.10958 35.9525 9.29594 36.0607 9.56112Z" fill="#191956"/>
<path d="M37.5104 9.54681C37.6041 9.78333 37.7123 10.0629 37.9575 10.1704C38.0945 10.2277 38.2821 10.1345 38.2244 9.96252C38.1522 9.7475 37.9864 9.58982 37.8782 9.38913C37.7772 9.19562 37.431 9.33179 37.5104 9.54681Z" fill="#191956"/>
<path d="M37.1569 10.8727C37.2074 11.0662 37.2651 11.2741 37.3516 11.4533C37.4021 11.5608 37.4454 11.6325 37.5608 11.6755C37.4598 11.6396 37.6113 11.7113 37.6185 11.7113C37.6546 11.7185 37.6906 11.7256 37.7267 11.7185C37.9214 11.6683 37.9142 11.3888 37.8565 11.2454C37.7844 11.0591 37.6546 10.8871 37.5752 10.7007C37.467 10.457 37.1064 10.6362 37.1569 10.8727Z" fill="#191956"/>
<path d="M37.1353 12.8366C37.2219 13.0875 37.3661 13.4243 37.6113 13.5533C37.7556 13.6322 37.9503 13.5032 37.8998 13.3312C37.8205 13.0875 37.5825 12.9226 37.4599 12.7004C37.3517 12.5356 37.0704 12.6503 37.1353 12.8366Z" fill="#191956"/>
<path d="M38.5634 11.3028C38.5994 11.5106 38.6066 11.7471 38.7869 11.8905C38.8735 11.9622 38.9817 11.9908 39.0826 11.9263C39.1692 11.8762 39.2269 11.7543 39.1908 11.654C39.1331 11.4963 39.061 11.3386 38.9961 11.1809C38.8879 10.9229 38.5129 11.0161 38.5634 11.3028Z" fill="#191956"/>
<path d="M38.7581 13.0516C38.8014 13.281 38.722 13.5748 38.8374 13.7755C38.9096 13.9045 39.1115 13.9045 39.1836 13.7755C39.2557 13.6537 39.2413 13.5318 39.2269 13.3885C39.2197 13.238 39.1908 13.0874 39.1548 12.9369C39.0899 12.6789 38.7148 12.7936 38.7581 13.0516Z" fill="#191956"/>
<path d="M38.7725 9.96255C38.8158 10.1632 38.7942 10.3639 38.9456 10.5288C39.0899 10.6864 39.3134 10.5216 39.2774 10.3352C39.2413 10.1632 39.1331 9.99121 39.025 9.85503C38.9384 9.73319 38.7437 9.80486 38.7725 9.96255Z" fill="#191956"/>
<path d="M38.1522 14.442C38.1522 14.6141 38.1667 14.7861 38.1811 14.9581C38.1955 15.0728 38.2532 15.2519 38.3974 15.2519C38.5489 15.2519 38.5994 15.0799 38.6138 14.9581C38.6282 14.7789 38.5345 14.5711 38.484 14.399C38.4335 14.2127 38.145 14.2485 38.1522 14.442Z" fill="#191956"/>
<path d="M37.4311 15.4025C37.3517 15.6749 37.3157 16.1049 37.5537 16.3056C37.6979 16.4274 37.8854 16.3773 37.9504 16.1981C38.0585 15.9257 37.8205 15.6677 37.7845 15.4025C37.7556 15.2162 37.4744 15.2448 37.4311 15.4025Z" fill="#191956"/>
<path d="M39.2918 14.8721C39.335 15.0728 39.3495 15.4025 39.5658 15.4957C39.6091 15.51 39.6668 15.5172 39.6956 15.4813C39.8615 15.2806 39.7317 14.9939 39.6956 14.7646C39.6524 14.4994 39.2413 14.6069 39.2918 14.8721Z" fill="#191956"/>
<path d="M38.8373 16.6567C38.9095 16.8287 38.9023 17.0581 39.1114 17.1226C39.1691 17.1441 39.2124 17.1011 39.234 17.0509C39.3061 16.8789 39.2052 16.6424 39.133 16.4775C39.0465 16.2769 38.7508 16.456 38.8373 16.6567Z" fill="#191956"/>
<path d="M37.8781 17.5813C37.8709 17.7749 37.9069 18.0185 37.9935 18.1977C38.0584 18.3267 38.2748 18.2981 38.3036 18.1547C38.3469 17.9612 38.2459 17.7749 38.2531 17.5813C38.2603 17.3448 37.8853 17.3448 37.8781 17.5813Z" fill="#191956"/>
<path d="M39.7533 17.5096C39.7678 17.61 39.7822 17.7103 39.8038 17.8107C39.8254 17.911 39.8254 18.0185 39.8615 18.1117C39.8831 18.1619 39.9192 18.2192 39.9841 18.2335C39.9985 18.2335 40.013 18.2407 40.0274 18.2407C40.1067 18.2407 40.1716 18.1905 40.1933 18.1117C40.251 17.8967 40.1284 17.6745 40.0923 17.4666C40.0635 17.2731 39.7317 17.3161 39.7533 17.5096Z" fill="#191956"/>
<path d="M39.0177 18.5776C39.0537 18.7567 39.0105 18.9503 39.097 19.1151C39.1691 19.2513 39.4288 19.237 39.4504 19.0721C39.4793 18.8786 39.4504 18.6564 39.4071 18.4701C39.3567 18.2049 38.9672 18.3195 39.0177 18.5776Z" fill="#191956"/>
<path d="M37.7988 19.2657C37.8277 19.4449 37.8782 19.6384 38.0008 19.7746C38.044 19.8247 38.1306 19.8462 38.1955 19.8247C38.4768 19.7244 38.2604 19.3445 38.2244 19.1438C38.1883 18.8643 37.7483 18.9861 37.7988 19.2657Z" fill="#191956"/>
<path d="M39.8977 19.3588C39.9193 19.5021 39.9482 19.6311 40.0708 19.7171C40.1717 19.7888 40.316 19.6956 40.316 19.581C40.316 19.4878 40.2727 19.4018 40.2655 19.3086C40.2438 19.0363 39.8616 19.0864 39.8977 19.3588Z" fill="#191956"/>
<path d="M29.2237 20.5199C29.916 20.5199 30.493 19.9466 30.493 19.2585C30.493 18.5704 29.916 17.9971 29.2237 17.9971C28.5313 17.9971 27.9543 18.5704 27.9543 19.2585C27.9543 19.9466 28.5313 20.5199 29.2237 20.5199Z" fill="#F70032"/>
<path d="M25.5599 31.235C25.9926 31.235 25.9926 30.5685 25.5599 30.5685C25.1272 30.5613 25.1272 31.235 25.5599 31.235Z" fill="#F70032"/>
<path d="M26.3244 31.8586C26.685 31.8586 26.685 31.3067 26.3244 31.3067C25.9638 31.3067 25.9638 31.8586 26.3244 31.8586Z" fill="#F70032"/>
<path d="M27.2042 32.1883C27.5937 32.1883 27.5937 31.5862 27.2042 31.5862C26.8147 31.5862 26.8147 32.1883 27.2042 32.1883Z" fill="#F70032"/>
<path d="M28.1995 32.3746C28.5818 32.3746 28.5818 31.7869 28.1995 31.7869C27.8173 31.7797 27.8173 32.3746 28.1995 32.3746Z" fill="#F70032"/>
<path d="M29.1587 32.432C29.5698 32.432 29.5698 31.8013 29.1587 31.8013C28.7476 31.8013 28.7476 32.432 29.1587 32.432Z" fill="#F70032"/>
<path d="M30.1179 32.4033C30.5362 32.4033 30.5362 31.7583 30.1179 31.7583C29.6996 31.7511 29.6996 32.4033 30.1179 32.4033Z" fill="#F70032"/>
<path d="M31.1133 32.2097C31.4811 32.2097 31.4811 31.6435 31.1133 31.6435C30.7454 31.6435 30.7454 32.2097 31.1133 32.2097Z" fill="#F70032"/>
<path d="M32.1085 31.9159C32.5412 31.9159 32.5412 31.2565 32.1085 31.2565C31.6758 31.2493 31.6758 31.9159 32.1085 31.9159Z" fill="#F70032"/>
<path d="M29.1081 34.0231C29.4832 34.0231 29.8005 33.7077 29.8005 33.335C29.8005 32.9623 29.4832 32.647 29.1081 32.647C28.7331 32.647 28.4158 32.9623 28.4158 33.335C28.4158 33.7077 28.7259 34.0231 29.1081 34.0231Z" fill="#F70032"/>
<path d="M16.047 43.3191C16.1696 42.3156 16.148 41.3051 15.9893 40.3016C15.6792 40.2801 14.8282 36.7538 14.6551 36.6248C13.2848 35.5497 13.2848 37.6282 13.5155 36.3596C13.5949 35.9296 14.4026 35.4565 14.1214 35.048C13.9483 34.9548 13.1838 34.8617 12.2823 35.3204C11.4962 35.7217 11.2293 36.3238 11.0562 36.8828C10.8831 37.4419 11.0057 38.0296 11.5178 38.5241C11.6765 38.6818 11.8784 38.8252 12.0226 38.99C12.3688 39.3699 12.4049 39.8071 12.4626 40.2228C12.5996 41.2119 12.8953 42.201 13.1982 43.1829C13.2271 43.2904 13.2703 43.4051 13.4362 43.4767C13.5516 43.5197 13.6959 43.5412 13.8401 43.5484C14.3666 43.5914 14.9003 43.6201 15.434 43.6344C15.5782 43.6344 15.7297 43.6344 15.8451 43.5914C16.0109 43.5269 16.0326 43.4194 16.047 43.3191Z" fill="#222272"/>
<path d="M13.3209 19.4592C13.2776 18.2837 13.2992 17.6745 13.2776 16.9721C13.2704 16.7141 13.5445 16.4417 13.6815 16.5707C13.8041 16.6926 14.1791 21.4732 14.8859 21.3513C15.1311 21.3083 14.8643 18.3697 14.9508 17.1083C14.9725 16.7858 15.1383 16.4202 15.3186 16.4561C15.5494 16.5062 15.7369 20.5056 16.1408 21.0431C16.3428 21.3083 16.5591 18.4342 16.8115 17.18C16.8765 16.8503 17.1 16.3486 17.2876 16.5922C17.4102 16.7571 17.5039 17.6458 17.5472 20.3336C17.5688 21.7814 17.6842 22.0895 17.2803 22.7131C16.8765 23.3438 16.6745 22.9353 16.1408 23.3582C16.0038 23.4657 15.9605 24.0247 15.9533 24.2039C15.8668 25.6015 15.9317 26.7125 15.8523 28.1172C15.7874 29.221 16.3932 37.5422 16.4582 38.5098C16.4726 38.7392 16.487 38.99 16.3716 39.1907C16.2562 39.3914 16.011 39.7569 15.8523 37.0979C15.4485 30.4968 15.4052 29.4575 15.4989 23.7309C15.4989 23.5302 15.3763 23.2937 15.0518 23.2076C14.72 23.1216 14.3811 23.4083 13.732 22.4766C13.4795 22.1039 13.3786 20.9356 13.3209 19.4592Z" fill="#F70032"/>
<path d="M12.6574 32.0234C12.8665 31.6937 13.3642 31.3354 13.7609 31.3354C14.6407 31.3425 15.2177 31.4501 16.1553 31.5647C16.3067 31.5862 16.4726 31.6651 16.5375 31.8013C16.5808 31.8873 16.7395 32.2886 16.112 32.475C15.9173 32.5323 15.7081 32.5467 15.5062 32.5467C15.023 32.5538 13.8258 32.3675 13.7897 32.5538C13.7464 32.776 15.9173 32.9194 16.6385 33.3637C16.725 33.4139 16.8116 33.4784 16.8549 33.5644C16.9847 33.8224 16.7972 34.0518 16.5159 34.1378C15.8668 34.3313 14.9581 33.8009 13.9844 33.7723C13.9051 33.7723 13.8835 33.8798 13.9556 33.9084C14.8643 34.2883 16.1481 34.661 16.6096 35.3849C16.7683 35.6286 16.4942 35.9153 16.1986 35.944C15.7586 35.987 14.4676 35.1842 14.1719 35.2487C14.0926 35.2702 14.0854 35.4494 14.4388 35.6286C14.8499 35.8364 15.4052 36.2091 15.6793 36.46C15.8307 36.6033 15.9029 36.8255 15.8307 37.019C15.7225 37.2986 15.3115 37.1337 15.0662 37.1194C14.8427 37.1051 14.1719 36.7395 13.833 36.5388C13.5589 36.374 13.6599 36.9545 13.6815 37.2771C13.7176 37.7716 13.6599 38.259 13.4147 38.345C12.9242 38.517 12.405 38.216 11.9722 37.9293C11.8352 37.8361 11.691 37.7429 11.6044 37.5996C11.5323 37.4849 11.2871 36.9689 11.2871 36.8327C11.2438 34.2525 11.6621 33.5787 12.6574 32.0234Z" fill="#FFD6A1"/>
<path d="M15.499 31.8801C15.5783 32.0879 15.7226 32.1524 15.9245 32.2241C16.0183 32.26 16.1192 32.2815 16.2202 32.2958C16.2707 32.303 16.3428 32.2958 16.3861 32.2815C16.4149 32.2743 16.5448 32.2098 16.4654 32.2456C16.6025 32.1883 16.689 32.0736 16.6529 31.9231C16.6818 32.0521 16.6169 31.8012 16.6097 31.8012C16.588 31.7582 16.552 31.7152 16.5159 31.6794C16.4294 31.6006 16.314 31.5647 16.2058 31.5289C16.0327 31.4787 15.7731 31.4787 15.6216 31.5791C15.5351 31.6436 15.4557 31.7654 15.499 31.8801Z" fill="#990028"/>
<path d="M16.0543 33.7722C16.2563 33.9658 16.4582 34.0876 16.7539 34.0446C17.0352 34.0016 17.1433 33.5716 16.927 33.3924C16.7611 33.2562 16.5231 33.1559 16.2995 33.1845C16.1769 33.1989 16.0687 33.2419 15.9966 33.3565C15.9245 33.4856 15.9461 33.6647 16.0543 33.7722Z" fill="#990028"/>
<path d="M15.7947 35.2487C15.7947 35.2774 15.7947 35.3849 15.7947 35.2917C15.7947 35.2989 15.8668 35.5139 15.8307 35.4279C15.8812 35.5425 15.9461 35.6429 16.0327 35.7289C16.1625 35.8651 16.3139 35.9224 16.5015 35.8937C16.6241 35.8722 16.7539 35.7647 16.7755 35.6429C16.8044 35.4924 16.7611 35.3347 16.6529 35.2272C16.6241 35.2057 16.6024 35.1842 16.5736 35.1627C16.6024 35.1913 16.6024 35.1842 16.5664 35.1555C16.5087 35.1125 16.4582 35.0767 16.3933 35.0408C16.1769 34.9333 15.8307 34.9548 15.7947 35.2487Z" fill="#990028"/>
<path d="M15.0662 36.5961C15.0951 36.6893 15.1311 36.761 15.2033 36.8685C15.2898 36.9975 15.4124 37.1265 15.5711 37.148C15.8163 37.1838 16.0831 36.9975 15.9966 36.7251C15.9101 36.4528 15.5494 36.1589 15.2537 36.2736C15.1095 36.3166 15.023 36.4456 15.0662 36.5961Z" fill="#990028"/>
<path d="M12.6429 31.9661C12.6069 32.0592 12.578 32.1596 12.5852 32.2599C12.5996 32.4391 12.8232 32.4606 12.8881 32.3029C12.9242 32.2241 12.9314 32.1381 12.9603 32.0592C13.0396 31.8514 12.715 31.7654 12.6429 31.9661Z" fill="#0C0A35"/>
<path d="M12.5204 33.0555C12.4483 33.1845 12.3978 33.335 12.4555 33.4856C12.5348 33.6934 12.8882 33.6791 12.8666 33.4282C12.8594 33.3279 12.8377 33.2419 12.8449 33.1415C12.8666 32.9695 12.5997 32.9122 12.5204 33.0555Z" fill="#0C0A35"/>
<path d="M12.3761 34.3026C12.3472 34.4531 12.3256 34.6108 12.441 34.7327C12.5203 34.8187 12.7006 34.7828 12.715 34.661C12.7295 34.5535 12.7006 34.4531 12.7006 34.3456C12.7078 34.1593 12.4121 34.1163 12.3761 34.3026Z" fill="#0C0A35"/>
<path d="M12.4194 35.7647C12.4627 35.9009 12.5204 36.0299 12.6502 36.1087C12.7872 36.1876 12.9747 36.0586 12.9242 35.9009C12.8882 35.8006 12.8233 35.7145 12.7728 35.6142C12.679 35.4135 12.3545 35.5569 12.4194 35.7647Z" fill="#0C0A35"/>
<path d="M13.9121 29.35C14.1718 29.7299 14.6334 29.9521 15.0949 29.9736C15.2248 29.9808 15.3546 29.9736 15.4772 29.9378C15.5132 29.9306 15.5493 29.9163 15.5782 29.8876C15.6358 29.8231 15.6214 29.7227 15.5854 29.6439C15.4772 29.4074 15.3834 28.9988 14.8642 28.7122C14.2511 28.3681 13.7751 28.2463 13.465 28.2749C13.4578 28.2964 13.4578 28.2964 13.4434 28.3179C13.6237 28.6261 13.6958 29.0275 13.9121 29.35Z" fill="#F70032"/>
<path d="M15.7585 30.9842C15.7441 30.9555 15.7441 30.9268 15.7513 30.891C15.8234 30.4395 16.249 30.1098 16.6889 29.9808C17.1288 29.8518 17.5976 29.8661 18.0592 29.8159C17.951 30.0238 17.8284 30.2244 17.6842 30.4036C17.6048 30.504 17.5183 30.6043 17.4173 30.6903C16.999 31.063 16.386 31.1992 15.8451 31.0344C15.809 31.0272 15.773 31.0129 15.7585 30.9842Z" fill="#F70032"/>
<path d="M17.1938 48.028C18.0087 47.003 18.0231 45.2614 17.9727 44.6665C17.9222 44.0286 17.8717 43.3836 17.6625 42.7743C17.3668 41.9143 16.7754 41.1975 16.1913 40.4951C15.9893 40.2514 15.773 39.6924 15.5277 39.4989C14.5325 38.7033 13.5516 39.7354 12.2823 39.6566C12.2102 40.0508 11.9505 40.3661 11.6837 40.66C10.9264 41.4914 9.38301 41.8641 8.73392 43.6631C8.00549 45.6699 8.67622 46.8095 9.95998 48.4795C10.7677 49.5259 12.953 49.3611 14.143 49.3396C15.3907 49.3109 16.4221 48.9955 17.1938 48.028Z" fill="#222272"/>
<path d="M15.7514 42.2727C15.975 43.3406 16.0183 44.4013 15.9678 45.4908C15.9245 46.4153 15.1095 47.0246 15.1672 47.8918C15.2033 48.3935 15.9029 48.6659 16.1697 48.1642C16.6529 47.2468 17.0712 46.573 17.0568 45.4908C17.0352 44.3153 16.7395 43.1327 16.2635 42.0648C16.1264 41.7566 15.6937 41.986 15.7514 42.2727Z" fill="#990028"/>
<path d="M13.7752 41.9716C13.2776 42.8675 13.1622 43.8208 13.0973 44.8314C13.0324 45.8133 13.3569 46.7665 13.2559 47.7341C13.1838 48.4939 14.4027 48.501 14.4604 47.7341C14.5181 46.8884 14.2512 46.0641 14.2152 45.2184C14.1719 44.1791 14.2729 43.1471 14.2801 42.1006C14.2873 41.8426 13.905 41.7351 13.7752 41.9716Z" fill="#990028"/>
<path d="M11.8569 41.7996C11.1429 42.7528 10.9265 43.8351 10.8616 45.0034C10.8111 45.8993 11.0275 47.3328 11.8857 47.8058C12.0733 47.9133 12.2824 47.8058 12.3545 47.6194C12.6502 46.8239 11.9651 45.8635 11.9362 45.0105C11.9002 44.0215 12.1021 42.9607 12.3545 42.0074C12.4266 41.6921 12.03 41.5702 11.8569 41.7996Z" fill="#990028"/>
<path d="M15.8739 40.6241C15.8739 40.617 15.8739 40.617 15.8739 40.6098C15.8595 40.5453 15.7946 40.4665 15.7225 40.4593H15.7152C15.4917 40.4234 15.3042 40.6743 15.4845 40.8535C15.6431 41.0255 15.9316 40.8535 15.8739 40.6241Z" fill="#F70032"/>
<path d="M14.9292 40.9395C15.2538 40.9395 15.2538 40.4378 14.9292 40.4378C14.5975 40.4378 14.5975 40.9395 14.9292 40.9395Z" fill="#F70032"/>
<path d="M14.1214 40.9109C14.4099 40.9109 14.4099 40.4665 14.1214 40.4665C13.8329 40.4665 13.8329 40.9109 14.1214 40.9109Z" fill="#F70032"/>
<path d="M13.3641 40.9324C13.7103 40.9324 13.7103 40.3949 13.3641 40.3949C13.0179 40.402 13.0179 40.9324 13.3641 40.9324Z" fill="#F70032"/>
<path d="M12.5564 40.8679C12.8737 40.8679 12.8737 40.3733 12.5564 40.3733C12.239 40.3733 12.239 40.8679 12.5564 40.8679Z" fill="#F70032"/>
<path d="M29.3173 42.6453C29.7861 41.9788 29.6779 41.0972 29.6996 40.3159C29.7212 39.6064 28.5817 39.5992 28.5889 40.3159C28.5961 41.0972 28.6466 41.9358 28.9856 42.6453C29.0433 42.7887 29.238 42.7528 29.3173 42.6453Z" fill="#990028"/>
<path d="M29.1875 44.344C28.9206 44.7239 28.9134 45.2256 28.899 45.6771C28.8846 46.2362 28.8052 46.8311 29.0432 47.3471C29.1875 47.6481 29.714 47.6553 29.8582 47.3471C30.0746 46.8741 29.9952 46.3867 29.9375 45.885C29.8798 45.3761 29.8798 44.7884 29.5913 44.3512C29.4976 44.1863 29.2956 44.1935 29.1875 44.344Z" fill="#990028"/>
<path d="M28.5601 43.319C28.1634 43.0109 27.5071 43.018 27.0383 43.1327C26.5118 43.2545 26.62 44.1505 27.1681 44.086C27.6153 44.0286 28.2067 43.9283 28.5601 43.6344C28.6466 43.5627 28.6466 43.3907 28.5601 43.319Z" fill="#990028"/>
<path d="M30.2045 43.3334C30.3343 43.5485 30.6155 43.5843 30.8463 43.613C31.1348 43.6488 31.4882 43.7277 31.7695 43.6273C32.0291 43.5341 32.1517 43.2116 31.9354 43.0037C31.6974 42.7672 31.3584 42.7601 31.0339 42.7887C30.7598 42.8174 30.3559 42.8676 30.2045 43.1256C30.1612 43.1829 30.1612 43.2689 30.2045 43.3334Z" fill="#990028"/>
<path d="M29.4328 43.7348C29.7501 43.7348 29.7501 43.2474 29.4328 43.2474C29.1227 43.2546 29.1227 43.7348 29.4328 43.7348Z" fill="#F70032"/>
<path d="M20.5763 36.3525C20.9225 36.3525 20.9225 35.8221 20.5763 35.8221C20.2301 35.8149 20.2301 36.3525 20.5763 36.3525Z" fill="#F70032"/>
<path d="M19.0834 39.4273C19.0834 39.4344 19.0906 39.4416 19.0978 39.4488C19.1988 39.6709 19.5305 39.5849 19.581 39.3771C19.581 39.3699 19.5882 39.3556 19.5882 39.3484C19.6315 39.1764 19.4945 39.0044 19.3214 39.0116C19.0978 39.0187 19.004 39.2481 19.0834 39.4273Z" fill="#F70032"/>
<path d="M18.153 37.9436C18.4415 37.9436 18.4415 37.4992 18.153 37.4992C17.8645 37.4992 17.8645 37.9436 18.153 37.9436Z" fill="#F70032"/>
<path d="M16.5446 40.9324C16.9052 40.9324 16.9052 40.3805 16.5446 40.3805C16.184 40.3805 16.184 40.9324 16.5446 40.9324Z" fill="#F70032"/>
<path d="M17.7996 41.4054C17.8069 41.4126 17.8141 41.4126 17.8285 41.4198C17.9799 41.4914 18.153 41.4054 18.1602 41.2334C18.1602 41.2262 18.1602 41.2119 18.1602 41.2047C18.1675 41.0255 17.9511 40.9109 17.7996 40.9969C17.6626 41.0757 17.6338 41.3266 17.7996 41.4054Z" fill="#F70032"/>
<path d="M21.3335 38.7177C21.3335 38.7321 21.3407 38.7464 21.3407 38.7679C21.3984 39.0259 21.8095 39.0259 21.8672 38.7679C21.8672 38.7536 21.8744 38.7392 21.8744 38.7177C21.9105 38.5385 21.7951 38.3594 21.6004 38.3594C21.4129 38.3594 21.2903 38.5385 21.3335 38.7177Z" fill="#F70032"/>
<path d="M23.5332 36.7969C23.9588 36.7969 23.9588 36.1447 23.5332 36.1447C23.1077 36.1375 23.1077 36.7969 23.5332 36.7969Z" fill="#F70032"/>
<path d="M23.9877 38.99C24.3411 38.99 24.3411 38.4453 23.9877 38.4453C23.6343 38.4453 23.6343 38.99 23.9877 38.99Z" fill="#F70032"/>
<path d="M27.2115 36.675C27.5505 36.675 27.5505 36.1518 27.2115 36.1518C26.8725 36.1518 26.8725 36.675 27.2115 36.675Z" fill="#F70032"/>
<path d="M23.7063 40.9109C23.6126 41.0112 23.5909 41.0972 23.6126 41.2262C23.627 41.3266 23.7352 41.3911 23.8289 41.3911C23.9588 41.3911 24.0453 41.2907 24.0525 41.1689C24.0525 41.1545 24.0525 41.1474 24.0525 41.133C24.0453 41.1689 24.0309 41.2119 24.0237 41.2477C24.0237 41.2405 24.0309 41.2405 24.0309 41.2334C24.2472 41.0255 23.9011 40.6887 23.7063 40.9109Z" fill="#F70032"/>
<path d="M22.3 43.699C22.6245 43.699 22.6245 43.1973 22.3 43.1973C21.9682 43.1973 21.9682 43.699 22.3 43.699Z" fill="#F70032"/>
<path d="M28.4881 38.5599C28.9136 38.5599 28.9136 37.9077 28.4881 37.9077C28.0626 37.9077 28.0626 38.5599 28.4881 38.5599Z" fill="#F70032"/>
<path d="M18.016 35.4135C18.0232 35.4207 18.0304 35.4207 18.0376 35.4279C18.1891 35.5282 18.4415 35.3992 18.4199 35.2128C18.4199 35.2057 18.4199 35.1913 18.4199 35.1842C18.3982 34.9906 18.2035 34.8473 18.016 34.9548C17.8357 35.0623 17.8501 35.306 18.016 35.4135Z" fill="#F70032"/>
<path d="M25.43 35.1913C25.7617 35.1913 25.7617 34.6824 25.43 34.6824C25.0982 34.6824 25.0982 35.1913 25.43 35.1913Z" fill="#F70032"/>
<path d="M29.916 36.3955C30.3271 36.3955 30.3271 35.7648 29.916 35.7648C29.5049 35.7576 29.5049 36.3955 29.916 36.3955Z" fill="#F70032"/>
<path d="M31.7912 47.469C31.7551 47.5192 31.7407 47.5765 31.7407 47.6338C31.7551 47.899 32.159 47.9779 32.2239 47.6983C32.2239 47.6912 32.2239 47.684 32.2311 47.684C32.2095 47.7198 32.1879 47.7557 32.1662 47.7915C32.1734 47.7843 32.1807 47.7772 32.1879 47.77C32.4547 47.5622 32.0148 47.1465 31.7912 47.469Z" fill="#F70032"/>
<path d="M22.3216 35.2702C22.6101 35.2702 22.6101 34.8258 22.3216 34.8258C22.0331 34.8258 22.0331 35.2702 22.3216 35.2702Z" fill="#F70032"/>
<path d="M19.7973 43.3047C20.1868 43.3047 20.1868 42.7098 19.7973 42.7098C19.4079 42.7027 19.4079 43.3047 19.7973 43.3047Z" fill="#F70032"/>
<path d="M20.9513 41.1474C21.3696 41.1474 21.3696 40.5095 20.9513 40.5095C20.533 40.5095 20.533 41.1474 20.9513 41.1474Z" fill="#F70032"/>
<path d="M34.164 45.5195C34.1568 45.5266 34.1568 45.541 34.1496 45.5481C34.0197 45.7775 34.2289 46.0068 34.4669 45.9638C34.5462 45.9495 34.6183 45.8778 34.6472 45.8061C34.7121 45.6628 34.6905 45.5051 34.5462 45.4191C34.4164 45.3403 34.2361 45.3905 34.164 45.5195Z" fill="#F70032"/>
<path d="M25.7474 39.1334C25.7618 39.1334 25.7834 39.1334 25.7979 39.1406C25.9277 39.1549 26.0503 39.0402 26.0791 38.9255C26.1152 38.7894 26.0503 38.6747 25.9421 38.5958C25.9277 38.5887 25.9133 38.5744 25.8988 38.5672C25.733 38.4525 25.495 38.5744 25.4445 38.7464C25.394 38.9471 25.5454 39.1119 25.7474 39.1334Z" fill="#F70032"/>
<path d="M40.0706 52.2209C40.0706 52.2352 40.0706 52.2424 40.0778 52.2567C40.0923 52.3642 40.1427 52.4502 40.2509 52.4789C40.3663 52.5148 40.5106 52.4431 40.5394 52.3141C40.5394 52.2997 40.5466 52.2926 40.5466 52.2782C40.6187 51.9127 40.0274 51.9055 40.0706 52.2209Z" fill="#F70032"/>
<path d="M19.0184 45.0249C19.0184 45.0392 19.0184 45.0464 19.0184 45.0607C19.0112 45.3689 19.4872 45.3689 19.5016 45.0607C19.5016 45.0464 19.5016 45.0392 19.5016 45.0249C19.5232 44.7167 19.0256 44.7167 19.0184 45.0249Z" fill="#F70032"/>
<path d="M26.2233 52.271C26.6705 52.271 26.6705 51.583 26.2233 51.583C25.7762 51.5901 25.7762 52.271 26.2233 52.271Z" fill="#F70032"/>
<path d="M11.4817 50.4147C11.8567 50.4147 11.8567 49.8413 11.4817 49.8413C11.1067 49.8413 11.1067 50.4147 11.4817 50.4147Z" fill="#F70032"/>
<path d="M13.5084 50.0563C13.5156 50.0563 13.5228 50.0635 13.53 50.0635C13.6238 50.0993 13.7031 49.9918 13.6887 49.9058C13.6887 49.8986 13.6887 49.8914 13.6815 49.8843C13.6599 49.7839 13.5156 49.7553 13.4507 49.8269C13.3642 49.9058 13.4074 50.0205 13.5084 50.0563Z" fill="#F70032"/>
<path d="M7.59435 16.578C7.59435 16.7213 7.53665 16.922 7.53665 17.0654C7.53665 17.2087 7.53665 17.352 7.55108 17.4954C7.60156 17.9828 7.78187 18.4558 8.14968 18.7855C7.81793 18.807 6.9741 18.807 6.63513 18.7855C7.00295 18.4558 7.18326 17.9899 7.23374 17.4954C7.24816 17.352 7.24817 17.2087 7.24817 17.0654C7.24817 16.922 7.19047 16.7213 7.19047 16.578H7.59435Z" fill="#0C0A35"/>
<path d="M7.49338 16.9364C7.63762 16.9579 7.71696 17.094 7.96939 17.3664C8.20017 17.6173 8.43096 17.8824 8.95744 17.947C9.22429 17.9756 9.57769 17.8394 9.73636 17.6244C9.87339 17.4452 9.94551 17.2231 10.0032 17.008C10.1114 16.5995 10.0753 16.191 9.86618 15.8183C9.66424 15.4456 9.11611 15.2807 8.77714 15.4814C8.59684 15.5889 8.53914 15.7179 8.37326 15.7538C8.32278 15.7609 8.27951 15.7179 8.29393 15.6677C8.35884 15.4169 8.53914 15.3882 8.62569 15.0872C8.72666 14.736 8.77714 14.4565 8.27229 14.0121C7.88284 13.6752 6.93805 13.7039 6.52696 14.0121C6.10865 14.3275 6.07259 14.6142 6.16635 14.9654C6.24568 15.2449 6.40435 15.3739 6.48368 15.6104C6.51253 15.6892 6.4332 15.7681 6.35386 15.7394C6.23126 15.6893 6.16635 15.5817 6.0149 15.4886C5.67593 15.2879 5.13502 15.4527 4.92586 15.8254C4.72392 16.1981 4.68065 16.6067 4.78883 17.0152C4.84653 17.2374 4.91865 17.4524 5.05568 17.6316C5.21435 17.8466 5.57496 17.99 5.83459 17.9541C6.36108 17.8896 6.58465 17.6244 6.82265 17.3736C7.08229 17.094 7.16163 16.965 7.29866 16.9435H7.49338V16.9364Z" fill="#0C0A35"/>
<path d="M6.92373 11.4031C5.87076 11.4031 5.04857 11.0018 4.44997 10.2062C3.85136 9.41062 3.55566 8.41437 3.55566 7.2246C3.55566 5.95599 3.86579 4.9239 4.48603 4.12833C5.10627 3.3256 5.92124 2.9314 6.92373 2.9314C7.90458 2.9314 8.71234 3.31126 9.33979 4.07816C9.96725 4.84506 10.2846 5.84848 10.2846 7.10275C10.2846 8.14201 10.0466 9.05943 9.5778 9.84066C9.1018 10.6219 8.50319 11.1093 7.76755 11.3028L7.76034 11.4175C7.76034 12.0124 8.12094 12.3134 8.84937 12.3134C9.19555 12.3134 9.51289 12.2847 9.79416 12.2345V13.0516C9.5201 13.1376 9.23883 13.1735 8.95034 13.1735C8.32289 13.1735 7.83967 13.0444 7.5007 12.7792C7.15452 12.5141 6.967 12.0554 6.92373 11.4031ZM6.92373 10.5717C7.63773 10.5717 8.20028 10.2492 8.60416 9.59697C9.00804 8.95191 9.20998 8.11334 9.20998 7.08842C9.20998 6.03482 9.00083 5.21775 8.58252 4.6372C8.16422 4.04949 7.60889 3.76279 6.91652 3.76279C6.21694 3.76279 5.66161 4.07816 5.25051 4.70888C4.83942 5.3396 4.63027 6.171 4.63027 7.18876C4.63027 8.18501 4.83942 9.00209 5.25773 9.62564C5.66882 10.2635 6.22415 10.5717 6.92373 10.5717Z" fill="#0C0A35"/>
<path d="M50.4634 71.4579C50.4634 71.3146 50.5211 71.1139 50.5211 70.9705C50.5211 70.8272 50.5211 70.6838 50.5067 70.5405C50.449 70.0531 50.2759 69.5801 49.9081 69.2504C50.2398 69.2289 51.0837 69.2289 51.4154 69.2504C51.0476 69.5801 50.8673 70.046 50.8168 70.5405C50.8024 70.6838 50.8024 70.8272 50.8024 70.9705C50.8024 71.1139 50.8601 71.3146 50.8601 71.4579H50.4634Z" fill="#0C0A35"/>
<path d="M50.5643 71.0996C50.4201 71.0781 50.3408 70.9419 50.0884 70.6695C49.8576 70.4187 49.6268 70.1535 49.1003 70.089C48.8334 70.0603 48.4801 70.1965 48.3214 70.4115C48.1844 70.5907 48.1122 70.8129 48.0545 71.0279C47.9463 71.4364 47.9824 71.8449 48.1916 72.2176C48.3935 72.5903 48.9416 72.7552 49.2806 72.5545C49.4609 72.447 49.5186 72.318 49.6845 72.2822C49.735 72.275 49.7782 72.318 49.7638 72.3682C49.6989 72.619 49.5186 72.6477 49.432 72.9487C49.3311 73.2999 49.2806 73.5794 49.7854 74.0238C50.1749 74.3607 51.1197 74.332 51.5308 74.0238C51.9491 73.7084 51.9851 73.4218 51.8914 73.0706C51.8121 72.791 51.6534 72.662 51.5813 72.4255C51.5524 72.3467 51.6318 72.2678 51.7111 72.3037C51.8337 72.3538 51.8986 72.4613 52.0501 72.5545C52.389 72.7552 52.9299 72.5903 53.1391 72.2176C53.341 71.8449 53.3843 71.4364 53.2761 71.0279C53.2184 70.8129 53.1463 70.5907 53.0093 70.4115C52.8506 70.1965 52.49 70.0531 52.2304 70.089C51.7039 70.1535 51.4803 70.4187 51.2495 70.6695C50.9899 70.949 50.9105 71.0781 50.7735 71.0996H50.5643Z" fill="#0C0A35"/>
<path d="M51.1341 76.6326C52.187 76.6326 53.0092 77.034 53.6078 77.8296C54.2064 78.6251 54.5021 79.6214 54.5021 80.8112C54.5021 82.0798 54.192 83.1119 53.5718 83.9074C52.9515 84.7102 52.1365 85.1044 51.1341 85.1044C50.1532 85.1044 49.3454 84.7245 48.718 83.9576C48.0905 83.1907 47.7732 82.1873 47.7732 80.933C47.7732 79.8937 48.0112 78.9763 48.48 78.1951C48.9488 77.4139 49.5546 76.9265 50.2902 76.733L50.2974 76.6183C50.2974 76.0234 49.9368 75.7224 49.2084 75.7224C48.8622 75.7224 48.5449 75.7511 48.2636 75.8012V74.9842C48.5377 74.8982 48.819 74.8623 49.1074 74.8623C49.7349 74.8623 50.2181 74.9913 50.5571 75.2565C50.9105 75.5217 51.098 75.9804 51.1341 76.6326ZM51.1413 77.464C50.4273 77.464 49.8647 77.7866 49.4608 78.4388C49.057 79.0838 48.855 79.9224 48.855 80.9473C48.855 82.0009 49.0642 82.818 49.4825 83.3986C49.9008 83.9863 50.4561 84.273 51.1485 84.273C51.8481 84.273 52.4034 83.9576 52.8145 83.3269C53.2256 82.6962 53.4347 81.8648 53.4347 80.847C53.4347 79.8507 53.2256 79.0337 52.8073 78.4101C52.3962 77.7794 51.8408 77.464 51.1413 77.464Z" fill="#0C0A35"/>
<path d="M20.6339 83.6279H8.69062C6.33225 83.6279 4.41382 81.5996 4.41382 79.1125V22.0967C4.41382 22.025 4.47151 21.9605 4.55085 21.9605C4.62297 21.9605 4.68788 22.0179 4.68788 22.0967V79.1125C4.68788 81.4562 6.49091 83.3627 8.69782 83.3627H20.6411C20.7132 83.3627 20.7782 83.4201 20.7782 83.4989C20.7709 83.5706 20.706 83.6279 20.6339 83.6279Z" fill="#191956"/>
<path d="M46.576 83.6279H37.6474C37.5753 83.6279 37.5176 83.5706 37.5176 83.4989C37.5176 83.4272 37.5753 83.3627 37.6474 83.3627H46.576C46.6481 83.3627 46.7131 83.4201 46.7131 83.4989C46.7131 83.5706 46.6554 83.6279 46.576 83.6279Z" fill="#191956"/>
<path d="M53.514 66.3619C53.4419 66.3619 53.3842 66.3046 53.3842 66.2329V8.93042C53.3842 6.58671 51.5812 4.68021 49.3743 4.68021H37.5969C37.5247 4.68021 37.467 4.62287 37.467 4.5512C37.467 4.47953 37.5247 4.41502 37.5969 4.41502H49.3671C51.7254 4.41502 53.6439 6.44337 53.6439 8.93042V66.2329C53.6511 66.2974 53.5862 66.3619 53.514 66.3619Z" fill="#191956"/>
<path d="M21.1604 4.67309H11.9C11.8279 4.67309 11.7629 4.61575 11.7629 4.54408C11.7629 4.47241 11.8206 4.4079 11.9 4.4079H21.1604C21.2325 4.4079 21.2974 4.46524 21.2974 4.54408C21.2974 4.61575 21.2325 4.67309 21.1604 4.67309Z" fill="#191956"/>
</svg>
