<svg width="58" height="89" viewBox="0 0 58 89" fill="none" xmlns="http://www.w3.org/2000/svg">
<path d="M4.79836 0.47998C2.14949 0.47998 0 2.6165 0 5.24938V83.7106C0 86.3435 2.14949 88.48 4.79836 88.48H53.2016C55.8505 88.48 58 86.3363 58 83.7106V5.24938C58 2.6165 55.8505 0.47998 53.2016 0.47998H4.79836Z" fill="white"/>
<path d="M44.5965 55.2741C44.6399 55.4683 44.0899 55.9359 43.9089 56.0079C42.6931 56.5114 38.4665 56.756 37.1854 57.0725C35.9117 57.389 34.2326 58.1372 33.7115 59.3385C33.328 60.209 33.4293 61.2233 33.7115 62.1369C33.7911 62.4102 33.8925 62.6764 33.8852 62.9569C33.878 63.2735 33.7405 63.5684 33.5668 63.8346C33.0746 64.5971 32.3292 65.1582 31.5548 65.6402C30.2448 66.4459 28.7323 67.0789 27.1979 66.9278C26.5972 66.8703 26.0038 66.6833 25.5406 66.302C24.5274 65.4819 24.3899 64.0216 24.3247 62.7267C24.2523 61.4319 24.5129 59.2666 23.3838 58.612C22.32 57.9933 15.1116 56.943 19.0994 56.8567C19.2658 56.8567 22.016 56.7128 22.1028 56.569C22.9713 55.1734 24.8241 55.7849 25.9676 54.5979C26.8288 53.6987 27.7986 52.8498 28.9638 52.4182C30.1291 51.9866 31.4028 52.0082 32.6404 52.0298C33.328 52.0442 34.0227 52.0514 34.6741 52.26C36.317 52.7707 37.417 54.3821 39.031 54.9648C39.6317 55.1878 44.5748 55.1734 44.5965 55.2741Z" fill="#FFD6A1"/>
<path d="M10.6968 36.7935C11.283 38.8365 11.4567 40.9371 11.2179 43.016C11.1672 43.4405 11.1021 43.8721 10.9356 44.2821C10.458 45.4547 9.18421 46.4042 8.67036 47.5696C8.25059 48.512 8.37361 49.5767 8.99602 50.4615C9.62567 51.3463 10.7475 52.0513 12.0647 52.3822C12.2094 52.4181 12.3686 52.4541 12.4844 52.526C12.6798 52.6411 12.7594 52.821 12.8246 52.9936C13.0851 53.6626 13.2661 53.8928 13.5266 54.5619C13.7582 55.1661 14.178 55.6481 14.5977 56.202C15.0175 56.7559 15.6399 57.1084 16.4071 57.4249C17.7098 57.9645 18.8388 58.1155 20.308 57.8637C21.3357 57.6839 22.1463 57.54 23.0654 57.1803C23.9845 56.8207 28.0375 54.9719 28.848 54.4396C30.7876 53.1807 34.0444 53.1231 36.0926 54.2957C36.9756 54.7992 37.6414 55.497 38.5967 55.9358C39.7909 56.4826 40.7752 56.835 42.1937 56.8279C43.8872 56.8207 45.5011 56.0294 45.9209 55.792C47.3105 54.9935 47.8243 54.3173 48.273 53.0943C48.7 51.9218 49.127 50.742 49.554 49.5695C49.8363 48.7997 50.1186 48.0228 50.2416 47.2315C50.3429 46.5769 50.3429 45.9223 50.3429 45.2677C50.3429 42.9297 50.3357 40.5774 49.9955 38.2538C49.9521 37.9517 49.8942 37.6424 49.6698 37.3834C49.4382 37.1316 48.9823 36.9518 48.5842 37.0525C46.7098 37.5201 44.3432 37.4266 42.3746 37.6208C39.8271 37.8726 37.2433 37.7575 34.6813 37.6424C31.8877 37.5201 29.0941 37.3906 26.2933 37.2683C23.6951 37.1532 21.0896 37.0381 18.4914 36.9158C17.5795 36.8727 16.6604 36.8367 15.7774 36.6856C15.184 36.5849 14.605 36.441 14.0043 36.3691C12.9187 36.218 11.7028 36.4626 10.6968 36.7935Z" fill="#B70027"/>
<path d="M20.5902 29.3913C20.7784 29.2186 20.9087 28.9884 21.1258 28.8661C21.437 28.6863 21.8351 28.7654 22.1607 28.9021C22.4937 29.0388 22.8049 29.2402 23.1595 29.2977C23.753 29.3912 24.3392 29.0603 24.7517 28.6359C25.1715 28.2115 25.4682 27.6792 25.8518 27.226C26.1196 26.9023 26.4308 26.6145 26.6986 26.2836C27.5091 25.2621 27.7914 23.8449 27.4512 22.5861C27.1111 21.3272 26.1702 20.2481 24.9688 19.7086C24.853 19.6582 24.73 19.6079 24.607 19.6151C24.455 19.6223 24.3175 19.6942 24.1872 19.7733C23.847 19.9676 23.5141 20.1618 23.1957 20.3848C22.1608 21.1114 21.3502 22.1329 20.8797 23.2982C20.735 23.6507 20.6192 24.032 20.3586 24.3125C20.0474 24.6506 19.577 24.7873 19.1645 24.9887C18.3177 25.406 17.6446 26.1541 17.3262 27.0389C17.0295 27.8662 17.1236 28.9452 17.869 29.4128C18.1295 29.5783 18.4408 29.643 18.752 29.6934C19.3888 29.7941 20.1198 29.8229 20.5902 29.3913Z" fill="#990028"/>
<path d="M17.8691 30.9091C17.4421 29.8301 17.4059 28.5424 17.9704 27.5065C18.5132 26.4922 19.881 25.9671 20.7785 25.3125C22.1753 24.2982 22.4865 22.8594 22.7108 21.2409C22.7181 21.1833 22.6457 21.1402 22.6095 21.1977C21.9147 22.4134 21.9943 23.7011 20.9015 24.7514C20.0909 25.5355 18.9908 25.9527 18.1585 26.7152C17.0512 27.7224 16.8052 29.8085 17.8039 30.9451C17.8256 30.9811 17.8835 30.9523 17.8691 30.9091Z" fill="#0C0A35"/>
<path d="M18.5349 30.4344C18.448 29.1971 18.6941 28.2619 19.729 27.4922C20.4311 26.967 21.191 26.5138 21.922 26.039C22.9424 25.37 23.8109 24.4277 23.6951 23.1472C23.6806 23.0249 23.5286 23.0033 23.4852 23.1184C22.9786 24.3485 22.4792 25.0607 21.3647 25.816C20.641 26.3052 19.91 26.7872 19.2152 27.3195C18.202 28.0964 17.9269 29.2834 18.4118 30.4488C18.4336 30.5063 18.5421 30.5063 18.5349 30.4344Z" fill="#0C0A35"/>
<path d="M19.1211 30.7436C19.4975 28.8805 20.6916 28.1539 22.1897 27.1756C23.1595 26.5425 24.057 25.78 24.2379 24.5859C24.2596 24.4636 24.1076 24.3916 24.0353 24.4995C23.478 25.3124 23.2102 25.9671 22.3707 26.5857C21.6904 27.0821 20.8725 27.4345 20.2429 27.9957C19.4251 28.7222 18.8244 29.6142 18.9981 30.7436C19.0125 30.8012 19.1066 30.8012 19.1211 30.7436Z" fill="#0C0A35"/>
<path d="M20.5902 30.6933C20.9159 29.1754 21.7627 28.3697 23.1595 27.7942C24.0641 27.4202 24.6359 26.6073 24.9688 25.7153C24.9977 25.6362 24.8892 25.557 24.8241 25.6002C24.3102 25.9455 24.1148 26.5498 23.695 27.003C23.1812 27.5569 22.3055 27.6 21.7337 28.082C21.01 28.6935 20.2718 29.7006 20.4889 30.6933C20.4961 30.7365 20.5757 30.7365 20.5902 30.6933Z" fill="#0C0A35"/>
<path d="M22.0595 30.7221C22.3056 28.5137 25.3742 28.1324 25.6927 25.8017C25.7071 25.7082 25.5841 25.6434 25.5334 25.7369C25.186 26.3628 24.8821 26.9527 24.3827 27.4778C23.9629 27.9238 23.4419 28.2331 22.9642 28.6072C22.378 29.0676 21.3792 29.9524 21.9727 30.7437C22.0016 30.7869 22.0523 30.7725 22.0595 30.7221Z" fill="#0C0A35"/>
<path d="M14.88 33.9448C14.8366 33.7506 15.3866 33.283 15.5676 33.2111C16.7834 32.7075 21.01 32.463 22.291 32.1464C23.5648 31.8299 25.2439 31.0818 25.765 29.8804C26.1485 29.01 26.0472 27.9957 25.765 27.0821C25.6853 26.8159 25.584 26.5426 25.5913 26.262C25.5985 25.9455 25.736 25.6506 25.9097 25.3844C26.4018 24.6219 27.1473 24.0608 27.9217 23.5788C29.2316 22.7731 30.7442 22.1401 32.2786 22.2911C32.8792 22.3487 33.4727 22.5357 33.9431 22.917C34.9564 23.737 35.0939 25.1974 35.159 26.4922C35.2314 27.7871 34.9708 29.9524 36.0999 30.607C37.1637 31.2256 44.3721 32.2759 40.3844 32.3622C40.2179 32.3694 37.4677 32.5061 37.3809 32.65C36.5124 34.0456 34.6596 33.4341 33.5161 34.621C32.6549 35.5203 31.6851 36.3691 30.5199 36.8007C29.3547 37.2323 28.0809 37.2108 26.8433 37.1892C26.1558 37.1748 25.461 37.1604 24.8096 36.959C23.1667 36.4482 22.0667 34.8369 20.4528 34.2542C19.8376 34.024 14.8945 34.0384 14.88 33.9448Z" fill="#FFD6A1"/>
<path d="M48.7723 52.4182C48.1861 50.3752 48.0124 48.2747 48.2512 46.1885C48.3019 45.7641 48.367 45.3325 48.5335 44.9296C49.0112 43.7571 50.2849 42.8075 50.7988 41.6421C51.2185 40.6997 51.0955 39.6351 50.4731 38.7503C49.8434 37.8654 48.7217 37.1605 47.4045 36.8368C47.2597 36.8008 47.1077 36.7648 46.9847 36.6929C46.7893 36.5778 46.7169 36.3979 46.6446 36.2253C46.384 35.5563 46.2031 35.3261 45.9425 34.6571C45.7109 34.0528 45.2912 33.5708 44.8714 33.0169C44.4516 32.463 43.8292 32.1105 43.0621 31.794C41.7593 31.2545 40.6303 31.1034 39.1612 31.3552C38.1335 31.535 37.3229 31.6789 36.4037 32.0386C35.4846 32.3983 31.4317 34.247 30.6211 34.7794C28.6815 36.0383 25.4247 36.0958 23.3765 34.9232C22.4863 34.4197 21.8277 33.7219 20.8724 33.2831C19.6782 32.7364 18.694 32.3839 17.2754 32.3911C15.5819 32.3983 13.9607 33.1896 13.5482 33.427C12.1587 34.2183 11.6448 34.9017 11.1961 36.1246C10.7691 37.2972 10.3421 38.4769 9.91509 39.6495C9.63283 40.4192 9.35057 41.1961 9.22753 41.9874C9.12621 42.642 9.12622 43.2967 9.12622 43.9513C9.12622 46.2892 9.13344 48.6416 9.4736 50.9651C9.51702 51.2672 9.57493 51.5766 9.79929 51.8355C10.0309 52.0873 10.4868 52.2672 10.8849 52.1664C12.7594 51.6989 15.126 51.7924 17.0945 51.5981C19.6421 51.3464 22.2258 51.4615 24.7878 51.5766C27.5814 51.6989 30.375 51.8283 33.1759 51.9506C35.7741 52.0657 38.3795 52.188 40.9777 52.3031C41.8896 52.3463 42.8088 52.3822 43.6917 52.5333C44.2852 52.634 44.8642 52.7779 45.4649 52.8498C46.5505 53.0009 47.7736 52.7563 48.7723 52.4182Z" fill="#B70027"/>
<path d="M32.6911 26.3772C32.9516 26.8375 33.2121 27.3771 33.0167 27.859C32.9154 28.1036 32.7128 28.2907 32.5029 28.4633C30.6067 30.01 27.9868 30.643 25.584 30.1251C25.9965 29.5711 26.011 28.6288 26.0978 28.6432C28.421 28.9381 31.0265 27.9885 32.416 26.1182C32.5463 26.1398 32.6259 26.2621 32.6911 26.3772Z" fill="#990028"/>
<path d="M27.8927 34.247C27.6539 34.4197 27.2993 34.3549 27.0821 34.1535C26.8723 33.9521 26.7854 33.6428 26.7927 33.3478C26.7999 33.0529 26.8867 32.7723 26.9808 32.4918C27.0966 32.1321 27.2052 31.7724 27.321 31.4127C27.4295 31.0674 27.5453 30.7077 27.7914 30.4488C27.8348 30.3984 27.9072 30.3553 27.9579 30.3984C27.9723 30.4128 27.9796 30.4416 27.9868 30.4632C28.2112 31.5206 28.4428 32.6141 28.2039 33.6643C28.1533 33.8873 28.0737 34.1175 27.8927 34.247Z" fill="#0C0A35"/>
<path d="M23.6515 32.3766C23.4706 32.1968 23.4851 31.8947 23.6154 31.6717C23.7456 31.4559 23.9555 31.3048 24.1654 31.1609C24.5707 30.8804 25.0556 30.571 25.4174 30.2329C25.6201 30.0387 25.6852 30.2545 25.6852 30.4272C25.6273 30.8876 25.4536 31.1609 25.2582 31.5853C25.0628 32.0098 24.7154 32.3838 24.2595 32.4917C24.0496 32.5493 23.8035 32.5349 23.6515 32.3766Z" fill="#0C0A35"/>
<path d="M30.9541 32.5349C31.2219 32.6932 31.5982 32.5925 31.837 32.3911C32.0035 32.24 31.9962 31.7293 31.9528 31.5063C31.7936 30.5998 31.3738 30.3193 30.8672 29.8733C30.7731 29.7942 30.6284 29.7078 30.5343 29.7942C30.4909 29.8373 30.4836 29.9093 30.4836 29.974C30.4836 30.456 30.4619 30.938 30.4909 31.4199C30.5343 32.0458 30.6574 32.3623 30.9541 32.5349Z" fill="#0C0A35"/>
<path d="M23.0509 11.1914C22.9568 11.1123 22.8266 11.213 22.7542 11.3137C21.9943 12.3855 22.3489 13.8458 22.1607 15.1407C22.0594 15.8529 21.6975 16.6658 21.2705 17.2412C20.7205 17.9966 19.9678 18.5433 19.8014 19.4281C19.7724 19.5936 19.9099 19.7159 20.0691 19.759C20.4527 19.8669 21.0462 19.795 21.314 20.0324C21.4298 20.1331 21.4225 20.3273 21.4298 20.4784C21.4587 21.2193 21.1982 21.9747 21.3646 22.7012C21.56 23.5789 22.3344 24.2119 22.6746 25.0464C22.841 25.4564 22.8989 25.9096 23.0075 26.3412C23.1595 26.9455 23.4273 27.5138 23.7891 28.0245C24.1076 28.4777 24.8241 28.6792 25.3452 28.4777C26.2209 28.1396 26.9808 27.5857 27.7262 27.0318C28.7756 26.2621 29.8612 25.4492 30.4475 24.2982C30.6139 23.9745 30.737 23.6292 30.8962 23.3127C31.3594 22.4063 32.141 21.6941 32.6838 20.8237C33.4075 19.6727 33.6753 18.2987 33.7984 16.9463C33.8563 16.3205 33.8924 15.6874 33.7839 15.0616C33.5957 13.9897 32.9805 13.0186 32.1483 12.3136C31.316 11.6086 30.281 11.1698 29.2027 10.9612C28.2835 10.7885 27.3354 10.7813 26.3946 10.7813C25.6129 10.7813 24.8313 10.7741 24.0497 10.7741C23.7529 10.7885 23.1016 10.8821 23.0509 11.1914Z" fill="#FFD6A1"/>
<path d="M28.7032 11.7093C28.7394 11.7309 28.7611 11.7597 28.7828 11.7957C28.9855 12.0978 29.1881 12.3999 29.3908 12.702C28.421 13.1768 27.3426 13.479 26.257 13.443C25.1714 13.407 24.0786 13.0186 23.3114 12.256C23.5864 12.0043 23.8615 11.7525 24.1437 11.5007C25.4464 12.2632 27.1255 12.3496 28.5006 11.7381C28.5657 11.7093 28.6381 11.6805 28.7032 11.7093Z" fill="#0C0A35"/>
<path d="M30.1797 18.2267C29.9337 18.0181 29.6297 17.8743 29.3112 17.8311C28.9494 17.7879 28.5803 17.903 28.2691 18.0901C27.7986 18.3778 27.4223 18.8814 27.444 19.4281C27.473 20.0971 28.0736 20.6222 28.7178 20.8452C29.1882 21.0035 29.7382 21.0323 30.1363 20.7445C30.4041 20.5503 30.5561 20.2338 30.6646 19.9172C30.7949 19.5432 30.9107 18.8454 30.1797 18.2267Z" fill="#F70032"/>
<path d="M21.9146 21.5142C22.0739 21.1185 22.2693 20.7948 22.6963 20.7589C23.1378 20.7229 23.4417 21.1977 23.3693 21.5645C23.1522 22.6436 22.8338 23.4421 22.3344 24.4276C22.0377 24.255 20.735 22.5285 20.7639 21.7156C20.7711 21.4926 20.8146 21.2624 20.9665 21.1041C21.1185 20.9459 21.3791 20.8955 21.5817 20.9819C21.7916 21.0682 21.9291 21.2912 21.9146 21.5142Z" fill="#F70032"/>
<path d="M39.3422 21.4207C39.3784 22.2696 39.4073 23.14 39.125 23.9385C38.9875 24.3269 38.7777 24.6866 38.6763 25.0895C38.575 25.4851 38.604 25.9527 38.8934 26.2477C39.0599 26.4131 39.2843 26.5066 39.4652 26.6577C39.9791 27.0749 40.037 27.8734 39.7475 28.4633C39.458 29.0532 38.9007 29.4704 38.3289 29.7941C37.294 30.3768 36.0998 30.7365 34.9129 30.6358C33.726 30.5351 32.5535 29.9236 31.9311 28.9165C31.6851 28.5065 31.5258 28.0389 31.5476 27.5641C31.5765 27.0893 31.6996 26.5498 32.0542 26.2333C33.0385 25.3556 33.9359 25.6794 33.9142 24.737C33.8997 24.0536 32.9516 23.9745 32.6187 23.9313C31.5331 23.8018 29.4922 22.3991 31.316 20.4496C31.7647 19.9676 32.322 19.6079 32.8792 19.2482C33.024 19.1547 33.1687 19.054 33.2556 18.9101C33.5234 18.4569 33.0457 17.8958 32.5391 17.7304C32.0325 17.5721 31.4607 17.6081 31.0048 17.3419C30.4475 17.0182 30.2086 16.3348 30.1652 15.6946C30.1218 15.0543 30.2231 14.4069 30.1363 13.7739C30.0567 13.1912 29.8178 12.6229 29.4487 12.1625C29.2895 11.9539 29.0941 11.7668 28.848 11.6589C28.6309 11.5582 28.3849 11.5366 28.146 11.5222C27.2993 11.4575 26.4525 11.4215 25.6057 11.4143C25.157 11.4143 24.6938 11.4215 24.2958 11.623C22.993 12.2776 22.8772 14.5004 21.6107 15.2198C21.039 15.5435 20.2718 15.5507 19.6422 15.3637C18.8316 15.1335 18.3684 14.5364 18.0644 13.7523C17.6664 12.7164 18.3973 11.5007 19.4106 11.0403C19.9461 10.7957 20.6481 10.7525 20.9593 10.2562C21.4081 9.5368 20.9449 9.28502 21.1186 8.80304C21.3863 8.0549 22.4502 7.42186 23.2536 7.36431C24.028 7.31395 24.9109 7.33554 25.2366 8.04051C25.309 8.19877 25.3596 8.37142 25.4392 8.52968C25.7505 9.11956 26.5393 9.32098 27.1907 9.16991C27.8421 9.02604 28.3993 8.616 28.9494 8.23474C29.4994 7.85347 30.0929 7.48659 30.7659 7.43624C31.3232 7.40027 31.8732 7.59451 32.3654 7.86067C34.1385 8.8462 35.1518 10.7525 36.0564 12.5653C36.7223 13.9105 37.3809 15.2629 37.8368 16.6873C38.3507 18.2843 39.277 19.7518 39.3422 21.4207Z" fill="#D6002B"/>
<path d="M20.8797 22.3846C21.2054 22.9026 22.168 22.7371 22.6674 22.6508C23.3838 22.5285 24.274 22.1832 24.7155 21.5861C24.7445 21.5502 24.6938 21.4926 24.6576 21.507C24.0642 21.7516 23.5358 22.0753 22.9062 22.2479C22.2114 22.435 21.589 22.3055 20.9014 22.3343C20.8797 22.3343 20.8653 22.363 20.8797 22.3846Z" fill="#0C0A35"/>
<path d="M25.9241 28.3554C27.2486 28.0029 28.2401 26.9958 29.2461 26.1254C30.0277 25.4492 30.5705 24.5788 30.7804 23.5573C30.7948 23.4925 30.7008 23.4709 30.6791 23.5285C30.2882 24.5716 29.8033 25.1255 28.9783 25.852C28.4572 26.3196 27.9289 26.7872 27.3716 27.2116C26.8939 27.5713 26.3222 27.7943 25.8373 28.1396C25.7287 28.2188 25.7939 28.3842 25.9241 28.3554Z" fill="#0C0A35"/>
<path d="M23.4852 14.5651C23.5214 14.7594 23.6154 15.0399 23.8688 15.0111C23.9049 15.004 23.9122 14.9608 23.8977 14.932C23.8253 14.7738 23.6444 14.6802 23.5576 14.5364C23.5431 14.4932 23.4779 14.5148 23.4852 14.5651Z" fill="#0C0A35"/>
<path d="M26.0254 13.6587C25.9603 13.745 25.9748 13.8386 25.9748 13.9465C25.9748 14.1263 26.257 14.1263 26.2498 13.9465C26.2498 13.8457 26.257 13.7522 26.1991 13.6587C26.1557 13.594 26.0761 13.594 26.0254 13.6587Z" fill="#0C0A35"/>
<path d="M24.5634 14.0328C24.549 14.1551 24.6141 14.2414 24.6865 14.3277C24.795 14.4644 25.0121 14.2918 24.9253 14.1479C24.8674 14.0544 24.8023 13.9681 24.6865 13.9465C24.6213 13.9321 24.5707 13.9681 24.5634 14.0328Z" fill="#0C0A35"/>
<path d="M28.5585 15.0471C28.6598 15.0975 28.7322 15.0255 28.819 14.9608C28.9348 14.8673 29.0072 14.7737 29.0289 14.6299C29.0362 14.5723 28.971 14.5579 28.9276 14.5723C28.8263 14.6155 28.7684 14.6874 28.7032 14.7738C28.6381 14.8529 28.5368 14.8889 28.5368 14.9968C28.5295 15.0111 28.5368 15.0327 28.5585 15.0471Z" fill="#0C0A35"/>
<path d="M27.4585 14.2846C27.5308 14.1551 27.6394 14.0616 27.6756 13.9034C27.6828 13.8674 27.6539 13.8386 27.6177 13.8458C27.4223 13.889 27.292 14.0041 27.2269 14.1839C27.169 14.3206 27.3861 14.4069 27.4585 14.2846Z" fill="#0C0A35"/>
<path d="M24.1003 16.6729C24.1727 16.565 24.2596 16.4715 24.3464 16.3852C24.4188 16.3132 24.4694 16.2701 24.4694 16.1693C24.4694 16.1406 24.4405 16.1118 24.4115 16.1118C24.1799 16.1046 24.0352 16.4427 23.9845 16.6297C23.9701 16.6945 24.0641 16.7305 24.1003 16.6729Z" fill="#0C0A35"/>
<path d="M25.3089 17.0254C25.403 16.8959 25.4754 16.6729 25.4103 16.5219C25.3886 16.4715 25.3524 16.4571 25.3017 16.4787C25.1135 16.5578 25.1063 16.8312 25.1353 17.0039C25.1497 17.0902 25.2655 17.0758 25.3089 17.0254Z" fill="#0C0A35"/>
<path d="M26.315 17.1333C26.4235 17.011 26.5248 16.7664 26.3728 16.6441C26.3294 16.6082 26.2788 16.6082 26.2353 16.6441C26.0834 16.7664 26.1847 17.011 26.286 17.1333C26.2932 17.1477 26.3077 17.1477 26.315 17.1333Z" fill="#0C0A35"/>
<path d="M27.9795 16.6801C27.9795 16.5866 27.9289 16.5003 27.8999 16.4068C27.8637 16.3061 27.8348 16.2413 27.719 16.2126C27.69 16.2054 27.6611 16.2125 27.6466 16.2413C27.596 16.342 27.6177 16.3996 27.6611 16.5003C27.7045 16.5938 27.7335 16.7017 27.8348 16.7521C27.8999 16.7952 27.9795 16.7521 27.9795 16.6801Z" fill="#0C0A35"/>
<path d="M29.0434 16.378C29.0941 16.2341 28.9204 16.0255 28.8046 15.9607C28.6671 15.8888 28.544 16.0327 28.6019 16.1622C28.6454 16.2557 28.9566 16.6154 29.0434 16.378Z" fill="#0C0A35"/>
<path d="M29.4125 15.5651C27.6394 16.8815 25.0484 16.9894 23.174 15.8241C23.5865 15.0831 24.2885 14.5076 25.1063 14.2487C25.9169 13.9897 26.8288 14.0544 27.596 14.4285C27.842 14.5508 28.0736 14.6947 28.3052 14.8457C28.6671 15.0903 29.0362 15.3277 29.4125 15.5651Z" fill="white"/>
<path d="M26.8215 15.004C26.6189 14.7522 26.2426 14.594 25.83 14.6731C25.5116 14.7378 25.1859 15.0759 25.1859 15.3925C25.1859 15.709 25.4392 15.9823 25.7287 16.1118C25.9603 16.2197 26.2353 16.2629 26.4814 16.1838C26.7274 16.1118 27.3137 15.6083 26.8215 15.004Z" fill="#0C0A35"/>
<path d="M21.9869 8.21312C21.6468 8.54403 21.6757 8.93249 21.6613 9.39288C21.6178 11.1481 20.2427 11.4647 18.9328 12.1193C17.659 12.7523 17.7676 14.2702 18.3104 15.3349C18.361 15.4356 18.5058 15.3636 18.4913 15.2629C18.238 13.9465 18.1222 12.7595 19.7144 12.1553C20.2644 11.9466 20.6915 11.7884 21.1547 11.4215C22.3488 10.4863 21.6468 9.46482 22.1389 8.30664C22.1751 8.21313 22.0448 8.15557 21.9869 8.21312Z" fill="#0C0A35"/>
<path d="M22.6962 8.8246C22.5442 10.2705 22.0738 11.2273 20.9086 12.1049C20.3368 12.5365 19.6927 12.8099 19.1571 13.2991C18.3538 14.0328 18.4406 15.4859 19.0631 16.27C19.1282 16.3563 19.2512 16.2628 19.2295 16.1693C18.8894 14.6874 18.9835 13.7235 20.4309 12.9106C20.9158 12.6372 21.3573 12.3351 21.7915 11.9898C22.7903 11.1841 22.9061 10.0116 22.812 8.8246C22.8048 8.75266 22.7034 8.75266 22.6962 8.8246Z" fill="#0C0A35"/>
<path d="M23.8398 8.29941C23.4489 9.52233 23.6299 10.6877 22.9279 11.8531C22.3561 12.8026 21.2633 13.2199 20.4672 13.9464C19.7507 14.6082 19.3092 16.1549 19.9895 16.939C20.1125 17.0829 20.3297 16.8958 20.2428 16.7448C19.0776 14.7018 21.8929 13.5939 22.9496 12.4214C24.0062 11.2416 23.9917 9.79568 23.97 8.31379C23.9628 8.24185 23.8615 8.22747 23.8398 8.29941Z" fill="#0C0A35"/>
<path d="M20.9014 16.6081C20.7277 14.8889 23.3186 13.4501 24.2667 12.2128C25.099 11.1266 25.0484 9.44327 24.976 8.16999C24.9615 7.91821 24.5996 7.91821 24.5852 8.16999C24.5345 9.06201 24.5852 9.93244 24.4259 10.8245C24.2016 12.0761 23.1884 12.9897 22.3127 13.8314C21.4804 14.6371 20.5178 15.3493 20.7639 16.6297C20.7783 16.7017 20.9086 16.6873 20.9014 16.6081Z" fill="#0C0A35"/>
<path d="M25.7287 8.11959C25.4175 8.63034 25.5912 9.35689 25.5767 9.93238C25.5477 10.8676 24.8964 11.7236 24.9687 12.6444C24.976 12.7595 25.1207 12.8027 25.1859 12.7019C25.8517 11.6948 26.4886 9.22021 25.7721 8.11959C25.7504 8.1052 25.7359 8.1052 25.7287 8.11959Z" fill="#0C0A35"/>
<path d="M27.1039 8.27062C26.6696 8.73821 26.5538 9.29932 26.4887 9.91797C26.4091 10.6589 26.2643 11.5581 26.6986 12.2127C26.742 12.2775 26.8723 12.2631 26.8578 12.1696C26.7782 11.5581 26.7492 10.9754 26.7999 10.3568C26.8506 9.659 26.7999 8.96121 27.198 8.34975C27.2414 8.28501 27.1545 8.22026 27.1039 8.27062Z" fill="#0C0A35"/>
<path d="M28.5946 8.45046C28.0011 8.70944 27.9577 9.64461 27.8781 10.1913C27.7117 11.3063 27.6682 12.2919 28.3558 13.2414C28.4209 13.3278 28.5512 13.2774 28.5295 13.1695C28.4499 12.8098 28.2834 12.4789 28.1748 12.1192C28.0084 11.5725 28.1459 10.8388 28.2255 10.2848C28.2979 9.7741 28.2979 8.95402 28.6597 8.53678C28.7104 8.48643 28.6525 8.42169 28.5946 8.45046Z" fill="#0C0A35"/>
<path d="M30.0712 8.92525C29.4705 8.5296 29.2751 9.81007 29.2244 10.1266C29.0507 11.2128 28.8698 12.8602 29.7527 13.6803C29.8034 13.7306 29.8975 13.6803 29.8758 13.6083C29.5646 12.6516 29.4922 11.8099 29.5501 10.8172C29.579 10.364 29.5067 9.0979 30.0639 8.94683C30.0784 8.94683 30.0784 8.93245 30.0712 8.92525Z" fill="#0C0A35"/>
<path d="M30.8889 9.15546C30.737 11.1697 30.281 13.9392 31.1929 15.8456C31.7936 17.1116 33.1832 17.7735 34.5149 17.1404C34.6089 17.0973 34.5583 16.9462 34.4642 16.9462C33.7622 16.9606 33.0963 16.9462 32.4305 16.6656C31.5331 16.2916 31.3232 14.9679 31.2436 14.1407C31.0844 12.4861 31.0771 10.8172 30.9469 9.15546C30.9396 9.11949 30.8889 9.11949 30.8889 9.15546Z" fill="#0C0A35"/>
<path d="M31.7792 9.3713C31.1712 10.846 31.5476 12.5653 31.8298 14.0832C32.0904 15.5003 33.5161 16.2844 34.8695 16.119C34.9346 16.1118 34.9636 16.0111 34.884 15.9967C33.2339 15.6514 32.2713 15.0399 32.018 13.2415C31.8443 11.961 31.6199 10.6806 31.8226 9.38569C31.8298 9.34973 31.7864 9.34253 31.7792 9.3713Z" fill="#0C0A35"/>
<path d="M35.253 18.5863C34.0878 19.0683 31.8949 20.0035 31.8153 21.5357C31.7212 23.3198 33.8273 23.0752 34.855 23.9168C36.2084 25.0247 33.3496 26.6504 32.7489 27.1612C32.293 27.5496 31.9456 28.2042 31.9022 28.7941C31.7936 30.1465 32.5608 31.4126 33.9576 31.6284C34.0372 31.6428 34.0878 31.5421 34.0155 31.4989C32.018 30.2688 32.0035 28.3265 33.8924 26.9741C34.732 26.3699 35.6077 25.7152 35.6584 24.6146C35.7018 23.6794 34.7609 23.2262 34.0155 22.996C33.5885 22.8594 33.1977 22.7658 32.7851 22.5788C31.4535 21.9745 32.5897 20.7444 33.0384 20.2984C33.7043 19.6438 34.58 19.241 35.2675 18.6007C35.2675 18.5863 35.2603 18.5791 35.253 18.5863Z" fill="#0C0A35"/>
<path d="M36.1432 18.9389C34.9201 18.9173 33.7187 19.9747 33.2483 21.0538C32.9009 21.8523 33.8418 22.2983 34.4135 22.5285C35.9551 23.1472 37.6414 24.4996 36.0057 26.226C35.3906 26.8735 34.5727 27.2403 33.9865 27.9381C32.9878 29.1251 33.5957 30.5494 34.5293 31.5421C34.6234 31.6429 34.7681 31.5134 34.7102 31.4055C34.0516 30.0746 33.545 29.0316 34.8477 27.7583C35.2965 27.3195 35.8682 26.9814 36.3386 26.5641C37.0551 25.9383 37.2071 25.0894 37.0479 24.1974C36.8887 23.3486 36.0926 22.7227 35.3399 22.4134C34.7826 22.1832 33.2338 22.0177 33.7115 20.9459C34.1096 20.0467 35.2748 19.3993 36.1649 19.1115C36.2663 19.0827 36.2518 18.9389 36.1432 18.9389Z" fill="#0C0A35"/>
<path d="M35.89 19.7949C35.1517 19.9891 34.276 20.4351 34.7175 21.3055C34.8912 21.658 35.6149 21.8666 35.9189 22.0321C37.1058 22.6651 37.6269 23.3269 37.7065 24.7153C37.8368 26.9741 36.0854 27.4201 35.1807 29.0819C34.5583 30.2257 35.586 31.5277 36.317 32.319C36.3966 32.4053 36.5196 32.2974 36.469 32.2039C35.9334 31.1896 35.1517 30.2688 35.8031 29.0819C36.0926 28.5495 36.7584 28.1323 37.1999 27.7223C37.9598 27.0245 38.177 26.1181 38.2493 25.1254C38.3072 24.3053 38.1914 23.1615 37.569 22.5428C37.2433 22.2263 36.896 21.9961 36.4907 21.7803C36.2591 21.658 36.0058 21.5501 35.7669 21.4566C34.7827 21.0753 35.1156 20.2696 35.9117 19.8452C35.9334 19.8164 35.9189 19.7877 35.89 19.7949Z" fill="#0C0A35"/>
<path d="M37.2722 31.5062C36.9466 30.9235 36.8959 30.3336 37.1203 29.7222C37.2433 29.197 37.569 28.7222 37.8657 28.2762C38.3072 27.6216 38.9803 27.1396 39.4507 26.5066C40.1672 25.5426 39.9428 24.3125 39.4362 23.3342C39.3928 23.2551 39.2408 23.2838 39.2553 23.3846C39.4145 24.701 39.6027 25.78 38.6184 26.8663C38.148 27.3842 37.692 27.8302 37.3157 28.4201C36.6933 29.3913 36.3386 30.7077 37.1203 31.6644C37.1565 31.7076 37.2361 31.6932 37.2578 31.6501C37.2867 31.5781 37.2867 31.5853 37.2722 31.5062C37.2795 31.5062 37.2795 31.5062 37.2722 31.5062Z" fill="#0C0A35"/>
<path d="M38.3361 30.9451C38.1262 30.7005 38.3071 29.7365 38.3433 29.4919C38.4519 28.8085 39.0164 28.2906 39.5085 27.8518C40.2974 27.1396 40.7317 26.4202 40.7461 25.3412C40.7461 25.2693 40.6448 25.2405 40.6086 25.3052C40.2395 26.0246 40.0948 26.7512 39.4796 27.3554C38.9875 27.8374 38.5098 28.2259 38.1769 28.8301C37.8874 29.3553 37.6992 30.499 38.1117 30.9954C38.1334 31.0242 38.1769 31.0314 38.2131 31.0242C38.2492 31.017 38.2854 31.0098 38.3144 31.0026C38.3506 31.0026 38.3578 30.9594 38.3361 30.9451Z" fill="#0C0A35"/>
<path d="M38.8355 24.2407C39.3422 24.2982 39.6823 23.7659 39.9935 23.363C40.8403 22.248 41.3614 21.5862 42.6062 20.3201C42.9174 20.0036 43.2358 19.7015 43.4747 19.3274C43.547 19.2051 43.6194 19.0756 43.6122 18.9317C43.6049 18.7375 43.4674 18.5793 43.3299 18.4426C42.5483 17.6657 41.6653 17.0038 40.9561 16.1622C40.2468 15.3133 39.125 13.5005 39.0165 13.1121C38.3796 10.9108 38.1842 9.93248 39.5014 6.25652C39.6317 5.89683 39.3856 5.50838 39.002 5.4868C37.7789 5.42206 36.5124 5.34293 35.311 5.29257C35.1517 5.28538 34.9853 5.34292 34.8767 5.45802C34.5438 5.8249 34.3195 6.46513 34.0951 6.85359C33.8563 7.25644 33.1542 7.96862 32.7634 8.99731C31.6995 11.7813 32.1917 14.2487 33.4003 16.9751C34.2181 18.8238 35.1228 20.205 36.9755 22.1185C37.2506 22.4063 38.7559 24.0968 38.8355 24.2407Z" fill="#B70027"/>
<path d="M38.5099 6.7744C38.7704 6.7744 38.9803 6.55859 38.9803 6.30681C38.9803 6.05503 38.7632 5.83922 38.5099 5.83922C38.2565 5.83922 38.0394 6.05503 38.0394 6.30681C38.0394 6.56578 38.2493 6.7744 38.5099 6.7744Z" fill="#0C0A35"/>
<path d="M37.8658 8.38578C38.1191 8.38578 38.329 8.17716 38.329 7.92539C38.329 7.67361 38.1191 7.46499 37.8658 7.46499C37.6125 7.46499 37.4026 7.67361 37.4026 7.92539C37.4026 8.16997 37.6125 8.38578 37.8658 8.38578Z" fill="#0C0A35"/>
<path d="M37.5473 10.1051C38.119 10.1051 38.119 9.22029 37.5473 9.22029C36.9683 9.22029 36.9683 10.1051 37.5473 10.1051Z" fill="#0C0A35"/>
<path d="M37.5256 11.9826C38.1625 11.9826 38.1625 11.0043 37.5256 11.0043C36.8888 11.0043 36.8888 11.9826 37.5256 11.9826Z" fill="#0C0A35"/>
<path d="M37.8513 13.666C38.1046 13.666 38.3144 13.4574 38.3144 13.2056C38.3144 12.9538 38.1046 12.7452 37.8513 12.7452C37.598 12.7452 37.3881 12.9538 37.3881 13.2056C37.3881 13.4574 37.598 13.666 37.8513 13.666Z" fill="#0C0A35"/>
<path d="M38.4592 15.1838C38.6836 15.1838 38.879 14.9968 38.879 14.7666C38.879 14.5436 38.6908 14.3494 38.4592 14.3494C38.2348 14.3494 38.0394 14.5364 38.0394 14.7666C38.0394 14.9968 38.2276 15.1838 38.4592 15.1838Z" fill="#0C0A35"/>
<path d="M39.2481 16.5507C39.8415 16.5507 39.8415 15.6371 39.2481 15.6371C38.6546 15.6371 38.6546 16.5507 39.2481 16.5507Z" fill="#0C0A35"/>
<path d="M40.1672 17.7879C40.435 17.7879 40.6593 17.5649 40.6593 17.2987C40.6593 17.0326 40.435 16.8095 40.1672 16.8095C39.8994 16.8095 39.675 17.0326 39.675 17.2987C39.675 17.5649 39.8994 17.7879 40.1672 17.7879Z" fill="#0C0A35"/>
<path d="M41.2528 18.831C41.5278 18.831 41.7522 18.608 41.7522 18.3346C41.7522 18.0613 41.5278 17.8383 41.2528 17.8383C40.9778 17.8383 40.7534 18.0613 40.7534 18.3346C40.7534 18.6008 40.9778 18.831 41.2528 18.831Z" fill="#0C0A35"/>
<path d="M42.7364 19.4712L42.7436 19.464C42.9028 19.3345 42.9028 19.018 42.7436 18.8957C42.7364 18.8957 42.7364 18.8885 42.7364 18.8885C42.6206 18.795 42.4903 18.7374 42.3311 18.7806C42.1501 18.831 42.0271 18.9964 42.0271 19.1835C42.0271 19.3273 42.1067 19.464 42.237 19.5431C42.4107 19.6367 42.5916 19.5863 42.7364 19.4712Z" fill="#0C0A35"/>
<path d="M32.8213 6.68815C31.0048 10.0692 31.8371 13.8386 33.1398 17.2412C33.7549 18.8454 34.58 20.1547 35.8755 21.2913C37.1058 22.3775 37.9309 24.1615 39.4145 24.9241C39.7836 25.1111 40.1672 25.0608 40.4784 24.7874C40.5218 24.7442 40.5653 24.7083 40.6159 24.6651C40.8837 24.4277 40.9054 23.9026 40.6159 23.6652C39.5376 22.7732 38.7053 21.7373 37.7861 20.6798C37.294 20.1115 35.557 17.8095 35.282 17.119C34.3556 14.8458 33.7622 13.0258 33.7332 11.3568C33.6971 9.15558 33.9286 8.17724 33.697 6.47234C33.6464 6.20618 32.9371 6.46515 32.8213 6.68815Z" fill="#0C0A35"/>
<path d="M20.9954 9.52959C20.8217 9.27781 20.6625 8.75267 19.946 7.14849C19.5769 6.32841 19.3526 5.40044 19.4032 4.50123C19.4539 3.68115 19.6565 3.48692 19.9026 3.19198C20.1342 2.91862 20.5467 2.88265 20.8941 2.97617C21.2415 3.06968 21.5455 3.25672 21.8856 3.37182C22.6021 3.6164 23.4417 3.46533 24.0351 2.99775C24.7009 2.47261 25.0556 1.59498 25.8155 1.22091C26.7202 0.774905 27.8854 1.28565 28.4427 2.12012C28.5947 2.35032 28.7249 2.6021 28.9493 2.76755C29.3401 3.0553 30.0638 3.09846 30.5053 2.89704C30.9468 2.69561 31.2797 2.41506 31.7574 2.33593C32.2929 2.24961 32.937 2.23522 33.4075 2.50858C35.5714 3.75308 35.1155 5.28534 34.9852 5.86083C34.8477 6.47229 34.1095 7.40026 33.1252 9.11235C32.5318 10.141 32.3508 10.7309 32.0758 10.6518C29.4631 9.93962 27.7406 9.72382 24.4549 9.57995C23.6805 9.55837 21.1691 9.77417 20.9954 9.52959Z" fill="#F70032"/>
<path d="M26.3367 3.19203C27.1979 2.86112 27.8059 3.52294 27.9506 4.21353C28.0519 4.70989 27.9578 5.22064 27.8493 5.717C27.7335 6.27091 27.6032 6.81763 27.4585 7.35715C27.3789 7.63771 27.292 7.92546 27.1183 8.16285L27.1111 8.17004C26.836 8.52253 26.2788 8.4362 26.0906 8.03336C25.7288 7.26364 25.4899 6.43637 25.3958 5.58752C25.3162 4.88974 25.3379 4.1344 25.8156 3.5661C25.9459 3.40065 26.134 3.27116 26.3367 3.19203Z" fill="#0C0A35"/>
<path d="M32.9226 4.60916C33.2772 4.76023 33.4075 5.23502 33.2989 5.60189C33.1904 5.97596 32.9009 6.2637 32.6186 6.52987C32.2061 6.90394 30.9396 8.39302 30.4547 8.67358C30.4547 8.67358 30.4474 8.67358 30.4474 8.68078C30.1869 8.83184 29.8902 8.56568 29.9987 8.28512C30.4112 7.27801 31.258 5.78173 31.7212 5.15588C31.8659 4.96884 32.0252 4.78181 32.235 4.6739C32.4449 4.55161 32.7055 4.51565 32.9226 4.60916Z" fill="#0C0A35"/>
<path d="M21.2054 4.37171C21.4008 4.28538 21.6251 4.24223 21.8278 4.30697C22.0376 4.3789 22.3488 4.494 22.4574 5.33566C22.5443 5.99028 22.7686 8.38577 22.414 8.45051C21.9218 8.53683 20.952 5.79606 20.8724 4.90404C20.8652 4.79614 20.8652 4.68103 20.9231 4.58032C20.9882 4.4868 21.0968 4.42206 21.2054 4.37171Z" fill="#0C0A35"/>
<path d="M24.332 32.0673C24.7445 32.0673 24.7445 31.4343 24.332 31.4343C23.9195 31.4343 23.9195 32.0673 24.332 32.0673Z" fill="#F70032"/>
<path d="M27.5308 33.8297C28.0012 33.8297 28.0012 33.1104 27.5308 33.1104C27.0604 33.1032 27.0604 33.8297 27.5308 33.8297Z" fill="#F70032"/>
<path d="M31.2726 32.1537C31.7285 32.1537 31.7285 31.4487 31.2726 31.4487C30.8094 31.4487 30.8094 32.1537 31.2726 32.1537Z" fill="#F70032"/>
<path d="M26.1991 30.6501C26.5465 30.6501 26.5465 30.1178 26.1991 30.1178C25.8518 30.1178 25.8518 30.6501 26.1991 30.6501Z" fill="#F70032"/>
<path d="M27.0386 30.6862C27.4294 30.6862 27.4294 30.0819 27.0386 30.0819C26.6478 30.0819 26.6478 30.6862 27.0386 30.6862Z" fill="#F70032"/>
<path d="M28.8118 30.5495C29.2244 30.5495 29.2244 29.9165 28.8118 29.9165C28.3993 29.9237 28.3993 30.5495 28.8118 30.5495Z" fill="#F70032"/>
<path d="M29.7455 30.3121C30.1653 30.3121 30.1653 29.6647 29.7455 29.6647C29.3257 29.6719 29.3257 30.3121 29.7455 30.3121Z" fill="#F70032"/>
<path d="M29.1737 36.4267C28.117 36.3404 26.9663 37.0238 27.2413 38.2107C27.5381 39.4696 29.2244 39.52 30.1652 39.074C30.6718 38.8366 31.1205 38.2683 31.0699 37.6928C31.012 36.9231 30.3172 36.4699 29.5935 36.3836C29.0579 36.3188 28.3848 36.5418 28.0302 36.9518C27.7914 37.2252 27.6756 37.5705 27.7841 37.9302C27.9072 38.3474 28.2907 38.5704 28.6743 38.6999C29.0579 38.8294 29.4849 38.556 29.5935 38.182C29.7093 37.7791 29.456 37.4051 29.0724 37.2684C28.9059 37.2108 29.0579 37.2756 29.1013 37.3115C29.2244 37.4122 29.2461 37.6353 29.2171 37.7791C29.2099 37.8079 29.0579 38.0237 29.152 37.9302C29.0145 38.0597 29.1809 37.923 29.2316 37.8942C29.0796 37.9734 29.2533 37.887 29.2895 37.8798C29.3329 37.8655 29.3764 37.8583 29.4125 37.8511C29.3257 37.8583 29.3184 37.8655 29.4053 37.8583C29.4487 37.8583 29.6297 37.887 29.456 37.8511C29.5066 37.8654 29.5501 37.8798 29.5935 37.8942C29.5428 37.8726 29.55 37.8798 29.6224 37.9158C29.7961 38.0093 29.5428 37.8295 29.6658 37.9518C29.6441 37.9302 29.5573 37.7144 29.5935 37.8439C29.5862 37.8079 29.5862 37.7719 29.579 37.736C29.579 37.8151 29.579 37.8007 29.5862 37.6784C29.5645 37.7504 29.5718 37.7432 29.6079 37.6353C29.5645 37.7 29.5718 37.6928 29.6369 37.6137C29.6007 37.6568 29.5573 37.7 29.5139 37.736C29.6369 37.6209 29.4415 37.7719 29.4053 37.7935C29.5428 37.7216 29.3546 37.8079 29.3329 37.8151C29.2895 37.8295 29.2388 37.8367 29.1954 37.8511C29.2678 37.8439 29.2606 37.8439 29.1665 37.8511C29.0941 37.8583 29.0217 37.8583 28.9566 37.8583C28.9276 37.8583 28.7105 37.8367 28.8987 37.8654C28.8408 37.8583 28.7901 37.8439 28.7322 37.8295C28.602 37.7935 28.8553 37.9014 28.6743 37.8079C28.6237 37.7791 28.5223 37.6856 28.6816 37.8223C28.5296 37.6928 28.725 37.9086 28.6671 37.8151C28.6309 37.7647 28.6019 37.6424 28.6743 37.8583C28.6092 37.6784 28.6743 37.9949 28.6671 37.8726C28.6599 37.7288 28.6309 38.0669 28.6599 37.9302C28.6743 37.8726 28.7395 37.7719 28.6381 37.9662C28.6671 37.9158 28.7467 37.8223 28.6092 37.9877C28.7322 37.8439 28.5151 38.0381 28.6237 37.9662C28.6599 37.9374 28.8046 37.8798 28.6164 37.959C28.6816 37.9302 28.7539 37.9158 28.8263 37.9014C28.6381 37.9374 28.8335 37.9014 28.877 37.9014C28.971 37.8942 29.0651 37.9014 29.1592 37.9086C29.5645 37.9446 29.9047 37.5489 29.9047 37.1677C29.9191 36.7432 29.579 36.4627 29.1737 36.4267Z" fill="#0C0A35"/>
<path d="M29.1737 38.4337C29.4704 38.4625 29.6731 38.3042 29.8323 38.0812C29.9553 37.9157 29.9553 37.6064 29.8323 37.441C29.6731 37.218 29.4632 37.0597 29.1737 37.0885C28.8046 37.1244 28.5006 37.369 28.5006 37.7647C28.4934 38.1531 28.8046 38.3977 29.1737 38.4337Z" fill="#F70032"/>
<path d="M26.192 37.1892C25.9314 37.0669 25.7288 37.0669 25.4682 37.1892C25.0412 37.3834 25.0195 38.0093 25.3235 38.3042C25.5985 38.5776 26.0617 38.5776 26.3367 38.3042C26.6407 38.0093 26.619 37.3834 26.192 37.1892Z" fill="#0C0A35"/>
<path d="M23.3332 37.513C23.3404 37.5201 23.3476 37.5201 23.3476 37.5273C23.6154 37.6928 23.9845 37.5345 24.0641 37.2396C24.1582 36.8871 23.8253 36.5418 23.4634 36.6425C23.4562 36.6425 23.449 36.6425 23.4417 36.6497C23.0437 36.7648 22.9785 37.2971 23.3332 37.513Z" fill="#0C0A35"/>
<path d="M21.5094 36.8655C22.0739 36.8655 22.0739 35.9951 21.5094 35.9951C20.9376 35.9951 20.9376 36.8655 21.5094 36.8655Z" fill="#0C0A35"/>
<path d="M19.4973 36.2253C19.9967 36.2253 19.9967 35.4555 19.4973 35.4555C18.998 35.4555 18.998 36.2253 19.4973 36.2253Z" fill="#0C0A35"/>
<path d="M17.8617 35.6857C18.238 35.6857 18.238 35.1031 17.8617 35.1031C17.4781 35.1031 17.4781 35.6857 17.8617 35.6857Z" fill="#0C0A35"/>
<path d="M32.3799 37.5705C32.4885 37.5057 32.626 37.3906 32.6767 37.2683C32.8286 36.9302 32.7056 36.5778 32.3437 36.4555C32.1628 36.3907 31.924 36.4339 31.7648 36.5274C31.4825 36.7 31.3739 37.0597 31.5476 37.3547C31.7141 37.6352 32.0977 37.7503 32.3799 37.5705Z" fill="#0C0A35"/>
<path d="M34.1602 36.8151C34.1747 36.8151 34.1964 36.8151 34.2109 36.8151C34.5076 36.8223 34.7464 36.5633 34.7464 36.2756C34.7464 35.995 34.5004 35.7289 34.2109 35.7361C34.1964 35.7361 34.1747 35.7361 34.1602 35.7361C33.8707 35.7433 33.6246 35.9734 33.6246 36.2684C33.6246 36.5633 33.8707 36.8079 34.1602 36.8151Z" fill="#0C0A35"/>
<path d="M36.3965 36.0814C36.4037 36.0742 36.411 36.067 36.4255 36.0598C36.7005 35.8584 36.7005 35.5203 36.4255 35.3188C36.4182 35.3117 36.411 35.3045 36.3965 35.2973C36.1142 35.0886 35.7162 35.3764 35.7162 35.6857C35.7162 36.0022 36.1142 36.29 36.3965 36.0814Z" fill="#0C0A35"/>
<path d="M38.3796 35.4052C38.3941 35.398 38.4086 35.398 38.423 35.3908C38.8645 35.2757 38.8645 34.6211 38.423 34.506C38.4086 34.4988 38.3941 34.4988 38.3796 34.4916C38.0829 34.4125 37.7789 34.6355 37.7789 34.9448C37.7789 35.2613 38.0829 35.4843 38.3796 35.4052Z" fill="#0C0A35"/>
<path d="M39.9646 34.7937C40.4351 34.7937 40.4351 34.0671 39.9646 34.0671C39.4942 34.0671 39.4942 34.7937 39.9646 34.7937Z" fill="#0C0A35"/>
<path d="M41.6075 34.1535C42.0779 34.1535 42.0779 33.427 41.6075 33.427C41.137 33.427 41.137 34.1535 41.6075 34.1535Z" fill="#0C0A35"/>
<path d="M43.4674 33.801C43.9379 33.801 43.9379 33.0745 43.4674 33.0745C42.997 33.0745 42.997 33.801 43.4674 33.801Z" fill="#0C0A35"/>
<path d="M15.7846 41.527C15.7773 41.5557 15.7629 41.5845 15.7557 41.6133C16.132 41.7715 16.3491 42.1888 16.3998 42.5916C16.4504 42.9945 16.3491 43.3973 16.2405 43.7858C15.7339 45.6201 15.0391 47.4042 14.1634 49.0947C13.7726 49.1954 13.3673 49.0947 12.9765 49.0012C11.5001 48.6343 10.0237 48.2674 8.54725 47.9005C8.33737 47.8502 8.12027 47.7926 7.97552 47.6416C7.74393 47.4042 7.76562 47.0301 7.80181 46.7064C8.00445 45.0447 8.38081 43.4045 8.92361 41.8147C9.1552 41.1313 9.50983 40.3688 10.2046 40.153C10.5882 40.0379 10.9935 40.1098 11.3843 40.1889C12.9837 40.5055 14.3516 40.7356 15.7846 41.527Z" fill="#FFD6A1"/>
<path d="M13.8523 34.3693C12.8463 34.1895 11.6449 33.9665 10.6968 34.3406C9.74146 34.7146 8.9526 35.4484 8.4677 36.3476C8.15649 36.9231 7.98279 37.6496 8.30847 38.2107C8.56902 38.6567 9.08286 38.8869 9.50263 39.1963C9.91516 39.5128 9.43748 40.5918 9.19865 41.0522C10.6968 41.6493 12.4193 42.1169 13.9681 42.5701C15.6688 43.0665 16.4432 43.7642 16.5663 43.1744C16.7544 42.268 16.9354 41.6277 17.1814 41.2608C17.5795 40.6638 18.0933 40.5055 18.6579 40.0523C19.302 39.5272 19.4033 38.5345 19.0849 37.7719C18.7592 37.0094 18.1006 36.4339 17.4058 35.9735C16.5518 35.4052 15.278 34.6211 13.8523 34.3693Z" fill="#F70032"/>
<path d="M12.4699 34.8081C11.4566 34.2973 10.248 35.5634 9.73416 36.3188C9.23479 37.0525 9.18412 38.8222 10.1322 39.1962C10.7112 39.4264 11.2902 38.8509 11.1816 38.2754C11.1237 37.9661 10.8921 37.369 11.0731 37.0165C11.4567 36.2612 12.0212 35.8008 12.535 35.1678C12.6146 35.0671 12.5857 34.8728 12.4699 34.8081Z" fill="#990028"/>
<path d="M14.1055 35.0742C13.4324 35.1246 12.9837 35.7576 12.5929 36.254C12.0139 36.9949 11.6593 37.9085 11.4928 38.8221C11.3264 39.7069 12.8752 40.0091 13.0633 39.1243C13.2153 38.4121 13.3963 37.7287 13.6423 37.0525C13.8522 36.4914 14.3082 35.9806 14.395 35.3907C14.4167 35.2469 14.2647 35.067 14.1055 35.0742Z" fill="#990028"/>
<path d="M15.1768 35.7072C14.6485 36.9374 14.1708 38.1963 13.6569 39.4336C13.2878 40.3112 14.7353 40.8075 15.0682 39.9083C15.3722 39.0883 15.64 38.261 15.8137 37.4049C15.9222 36.8366 16.038 36.0813 15.5893 35.6281C15.4518 35.4842 15.2492 35.5346 15.1768 35.7072Z" fill="#990028"/>
<path d="M16.6964 36.4986C16.6964 37.1604 16.9425 37.7431 16.7109 38.3977C16.53 38.9085 16.1175 39.3401 15.7484 39.7286C15.5674 39.9156 15.401 40.2034 15.495 40.4767C15.5964 40.7645 15.6977 40.9659 16.0161 41.0594C16.255 41.1313 16.5951 41.1097 16.7833 40.9083C17.3478 40.2825 17.9775 39.5415 18.0354 38.6567C18.1005 37.7575 17.7748 36.7576 16.9063 36.3619C16.8123 36.3116 16.6964 36.3979 16.6964 36.4986Z" fill="#990028"/>
<path d="M10.0309 40.2033C9.91512 40.2537 9.84998 40.4191 9.79932 40.527C9.72695 40.6853 9.698 40.8435 9.7559 41.009C9.80656 41.1529 10.0237 41.1457 10.0961 41.0306C10.2119 40.8507 10.3132 40.3616 10.1033 40.2105C10.0888 40.1889 10.0526 40.1889 10.0309 40.2033Z" fill="#990028"/>
<path d="M10.8415 40.4839C10.733 40.4479 10.5737 40.563 10.5158 40.6493C10.4145 40.8076 10.3421 41.0378 10.4218 41.2104C10.4941 41.3759 10.6968 41.3471 10.7981 41.2392C10.885 41.1385 10.9139 40.9227 10.9284 40.786C10.9356 40.714 10.9356 40.5198 10.8415 40.4839Z" fill="#990028"/>
<path d="M11.4712 40.7141C11.3264 40.7213 11.2396 40.8004 11.1817 40.9299C11.131 41.0378 11.0804 41.2177 11.0876 41.34C11.1021 41.5486 11.3699 41.6853 11.5001 41.4766C11.5653 41.3759 11.5725 41.2608 11.5942 41.1457C11.6087 41.0378 11.6376 40.9371 11.6087 40.8292C11.587 40.7717 11.5363 40.7069 11.4712 40.7141Z" fill="#990028"/>
<path d="M12.1226 40.9514C11.8476 40.9443 11.7752 41.3903 11.739 41.5845C11.6956 41.8506 12.1298 41.8866 12.1733 41.6061C12.1877 41.491 12.3904 40.9658 12.1226 40.9514Z" fill="#990028"/>
<path d="M12.6726 41.2464C12.5206 41.3831 12.3541 41.7715 12.5351 41.937C12.6292 42.0233 12.7449 42.0377 12.8463 41.9586C12.9621 41.8794 12.9548 41.7356 12.9693 41.6133C12.991 41.4838 12.9693 41.3687 12.8969 41.2608C12.8535 41.1889 12.7305 41.196 12.6726 41.2464Z" fill="#990028"/>
<path d="M13.5338 41.4334C13.2661 41.4406 13.172 41.8075 13.1937 42.0161C13.2154 42.2391 13.5338 42.2175 13.6062 42.0449C13.6424 41.937 13.7727 41.4263 13.5338 41.4334Z" fill="#990028"/>
<path d="M14.0839 41.678C13.932 41.7787 13.8741 41.9729 13.8668 42.1528C13.8524 42.4477 14.2649 42.4549 14.3155 42.1816C14.3445 42.0161 14.3373 41.8075 14.1925 41.6924C14.1636 41.6636 14.1129 41.6564 14.0839 41.678Z" fill="#990028"/>
<path d="M14.7498 41.937C14.605 42.0665 14.5254 42.3398 14.605 42.5197C14.6412 42.5988 14.7353 42.6276 14.8149 42.5916C15.0175 42.4981 15.0827 42.1744 14.9814 41.9802C14.9452 41.901 14.8221 41.8723 14.7498 41.937Z" fill="#990028"/>
<path d="M15.3432 42.1528C15.184 42.3255 15.1478 42.6132 15.2853 42.8074C15.3504 42.901 15.5097 42.9009 15.5893 42.829C15.7557 42.6779 15.7702 42.3326 15.5965 42.1672C15.5386 42.1096 15.4156 42.0737 15.3432 42.1528Z" fill="#990028"/>
<path d="M16.1538 42.4189C15.9656 42.3902 15.857 42.6995 15.8426 42.8362C15.8208 43.016 16.0886 43.1023 16.1755 42.9513C16.2406 42.8434 16.3709 42.4477 16.1538 42.4189Z" fill="#990028"/>
<path d="M29.7454 41.6709C29.8829 41.7213 30.0059 41.6997 30.129 41.6277C30.3678 41.4983 30.3678 41.1242 30.129 40.9947C29.9987 40.9228 29.8829 40.9012 29.7454 40.9515C29.3835 41.081 29.3835 41.5486 29.7454 41.6709Z" fill="#990028"/>
<path d="M33.8417 44.4764C33.8489 44.4692 33.8561 44.4548 33.8634 44.4476C34.0298 44.2318 34.0298 44.016 33.8634 43.8002C33.8561 43.793 33.8489 43.7786 33.8417 43.7714C33.7331 43.6348 33.516 43.5988 33.3568 43.642C33.1396 43.6995 32.9877 43.9009 32.9877 44.1167C32.9877 44.2894 33.0818 44.4548 33.2337 44.5484C33.4147 44.6563 33.7042 44.6491 33.8417 44.4764Z" fill="#990028"/>
<path d="M36.317 40.7213C36.3894 40.7213 36.4617 40.7141 36.5269 40.6853C36.9322 40.5343 36.9322 40.0091 36.5269 39.8653C36.4545 39.8365 36.3894 39.8365 36.317 39.8293C35.7452 39.8221 35.7452 40.7357 36.317 40.7213Z" fill="#990028"/>
<path d="M40.5146 43.9441C40.7824 43.9441 41.0067 43.7211 41.0067 43.4549C41.0067 43.1888 40.7824 42.9658 40.5146 42.9658C40.2468 42.9658 40.0225 43.1888 40.0225 43.4549C40.0225 43.7211 40.2468 43.9441 40.5146 43.9441Z" fill="#990028"/>
<path d="M41.8679 38.6927C41.9837 38.8581 42.1357 38.9588 42.3456 38.9373C42.7509 38.9013 42.8522 38.4481 42.541 38.2107C42.4397 38.1388 42.3239 38.0956 42.2009 38.11C42.0633 38.1244 41.9403 38.1747 41.8679 38.3042C41.7956 38.4193 41.7883 38.5848 41.8679 38.6927Z" fill="#990028"/>
<path d="M45.0307 41.9874C45.4288 41.9874 45.4288 41.3759 45.0307 41.3759C44.6327 41.3759 44.6327 41.9874 45.0307 41.9874Z" fill="#990028"/>
<path d="M35.3832 50.368C35.9043 50.368 35.9043 49.5623 35.3832 49.5623C34.8622 49.5623 34.8622 50.368 35.3832 50.368Z" fill="#990028"/>
<path d="M37.6921 48.4473C38.2132 48.4473 38.2132 47.6416 37.6921 47.6416C37.171 47.6416 37.171 48.4473 37.6921 48.4473Z" fill="#990028"/>
<path d="M38.4954 50.9003C39.0165 50.9003 39.0165 50.0946 38.4954 50.0946C37.9743 50.0946 37.9743 50.9003 38.4954 50.9003Z" fill="#990028"/>
<path d="M21.5093 19.7158C21.7409 19.7158 21.7409 19.3561 21.5093 19.3561C21.2705 19.3561 21.2705 19.7158 21.5093 19.7158Z" fill="#0C0A35"/>
<path d="M38.879 59.8205C38.6908 59.9932 38.5606 60.2162 38.3362 60.3457C38.025 60.5255 37.627 60.4464 37.3013 60.3097C36.9684 60.1658 36.6572 59.9716 36.3025 59.914C35.7091 59.8205 35.1228 60.1514 34.7103 60.5759C34.2905 61.0003 33.9938 61.5326 33.6102 61.9858C33.3425 62.3095 33.0313 62.5973 32.7635 62.9282C31.9529 63.9497 31.6706 65.3668 32.0108 66.6257C32.3509 67.8846 33.2918 68.9637 34.4932 69.5032C34.609 69.5535 34.732 69.6039 34.8551 69.5967C35.007 69.5895 35.1445 69.5176 35.2748 69.4384C35.615 69.2442 35.9479 69.05 36.2663 68.827C37.3013 68.1004 38.1119 67.0789 38.5823 65.9136C38.727 65.5611 38.8428 65.1798 39.1034 64.8992C39.4146 64.5611 39.885 64.4245 40.2975 64.223C41.1443 63.8058 41.8174 63.0577 42.1358 62.1729C42.4325 61.3456 42.3385 60.2665 41.593 59.7989C41.3325 59.6335 41.0213 59.5688 40.7101 59.5184C40.0804 59.4177 39.3494 59.3961 38.879 59.8205Z" fill="#990028"/>
<path d="M41.6002 58.3026C42.0272 59.3817 42.0634 60.6693 41.5061 61.7052C40.9633 62.7195 39.5954 63.2447 38.698 63.8993C37.3084 64.9136 36.99 66.3523 36.7656 67.9709C36.7584 68.0285 36.8308 68.0716 36.867 68.0141C37.5617 66.7983 37.4821 65.5107 38.575 64.4604C39.3856 63.6763 40.4856 63.2591 41.3179 62.4965C42.4252 61.4894 42.6713 59.4033 41.6726 58.2667C41.6436 58.2379 41.5857 58.2667 41.6002 58.3026Z" fill="#0C0A35"/>
<path d="M40.9344 58.7847C41.0213 60.022 40.7752 60.9643 39.7403 61.7269C39.0382 62.252 38.2783 62.7052 37.5473 63.1872C36.5269 63.8562 35.6584 64.7986 35.7742 66.079C35.7887 66.2013 35.9407 66.2229 35.9841 66.1078C36.4907 64.8777 36.9901 64.1655 38.1046 63.4102C38.8283 62.921 39.5593 62.439 40.2541 61.9067C41.2673 61.1298 41.5424 59.9428 41.0575 58.7775C41.0357 58.7055 40.9344 58.7055 40.9344 58.7847Z" fill="#0C0A35"/>
<path d="M40.3481 58.4754C39.9718 60.3385 38.7777 61.0651 37.2795 62.0434C36.3097 62.6764 35.4123 63.439 35.2314 64.6331C35.2096 64.7554 35.3616 64.8273 35.434 64.7194C35.9913 63.9066 36.2591 63.2519 37.0986 62.6405C37.7789 62.1369 38.5967 61.7916 39.2264 61.2305C40.0442 60.504 40.6449 59.6119 40.4712 58.4825C40.4567 58.4106 40.3626 58.4178 40.3481 58.4754Z" fill="#0C0A35"/>
<path d="M38.879 58.5257C38.5461 60.0435 37.7065 60.8492 36.3097 61.4247C35.4051 61.7988 34.8333 62.6117 34.5004 63.5037C34.4715 63.5828 34.58 63.6619 34.6524 63.6188C35.1662 63.2663 35.3544 62.6692 35.7742 62.216C36.288 61.6621 37.1637 61.6189 37.7355 61.137C38.4592 60.5255 39.1974 59.5184 38.9803 58.5257C38.9731 58.4753 38.8935 58.4753 38.879 58.5257Z" fill="#0C0A35"/>
<path d="M37.4098 58.4897C37.1638 60.6981 34.0951 61.0866 33.7767 63.4101C33.7622 63.5036 33.8852 63.5684 33.9359 63.4749C34.2833 62.849 34.5873 62.2591 35.0866 61.734C35.5064 61.288 36.0275 60.9787 36.5052 60.6046C37.0914 60.1442 38.0901 59.2594 37.4967 58.4681C37.4677 58.4321 37.4171 58.4465 37.4098 58.4897Z" fill="#0C0A35"/>
<path d="M26.778 62.8418C26.5175 62.3814 26.257 61.8419 26.4524 61.3599C26.5537 61.1153 26.7563 60.9283 26.9662 60.7557C28.8624 59.209 31.4823 58.576 33.8851 59.0939C33.4654 59.6478 33.4581 60.5902 33.3713 60.5758C31.0553 60.2809 28.4426 61.2304 27.0531 63.1008C26.9228 63.072 26.8432 62.9497 26.778 62.8418Z" fill="#990028"/>
<path d="M31.5765 54.9647C31.8153 54.7921 32.1699 54.8568 32.387 55.0583C32.5969 55.2597 32.6838 55.569 32.6765 55.8639C32.6693 56.1589 32.5825 56.4394 32.4884 56.72C32.3726 57.0797 32.264 57.4394 32.1482 57.799C32.0397 58.1443 31.9239 58.4968 31.6778 58.763C31.6344 58.8133 31.5548 58.8565 31.5113 58.8133C31.4969 58.799 31.4896 58.7702 31.4824 58.7486C31.258 57.6911 31.0264 56.5977 31.2653 55.5474C31.3159 55.3244 31.3955 55.0942 31.5765 54.9647Z" fill="#0C0A35"/>
<path d="M35.8248 56.8351C36.0058 57.015 35.9913 57.3171 35.861 57.5401C35.7308 57.7559 35.5209 57.907 35.311 58.0508C34.9057 58.3314 34.4208 58.6407 34.0589 58.9788C33.8563 59.173 33.7911 58.9572 33.7911 58.7846C33.849 58.3242 34.0227 58.0508 34.2181 57.6264C34.4135 57.202 34.7609 56.8279 35.2169 56.72C35.4195 56.6625 35.6656 56.684 35.8248 56.8351Z" fill="#0C0A35"/>
<path d="M28.5224 56.6769C28.2546 56.5186 27.8782 56.6193 27.6394 56.8207C27.4729 56.9718 27.4802 57.4825 27.5236 57.7055C27.6828 58.6119 28.1026 58.8925 28.6092 59.3385C28.7033 59.4176 28.848 59.504 28.9349 59.4176C28.9783 59.3745 28.9783 59.3025 28.9783 59.2378C28.9783 58.7558 29 58.2738 28.9711 57.7919C28.9421 57.166 28.8191 56.8495 28.5224 56.6769Z" fill="#0C0A35"/>
<path d="M36.4183 78.0276C36.5124 78.1068 36.6426 78.0061 36.715 77.9053C37.4749 76.8335 37.1203 75.3732 37.3085 74.0783C37.4098 73.3661 37.7717 72.5533 38.1987 71.9778C38.7487 71.2224 39.4941 70.6757 39.6678 69.7909C39.6968 69.6254 39.5665 69.5031 39.4001 69.46C39.0165 69.3521 38.423 69.424 38.1552 69.1866C38.0394 69.0859 38.0467 68.8917 38.0394 68.7406C38.0105 67.9997 38.271 67.2443 38.1046 66.5178C37.9092 65.6402 37.1348 65.0071 36.7946 64.1727C36.6282 63.7626 36.5703 63.3094 36.4617 62.885C36.3097 62.2807 36.0419 61.7124 35.6801 61.2017C35.3616 60.7485 34.6451 60.547 34.124 60.7485C33.2483 61.0866 32.4884 61.6405 31.743 62.1944C30.6936 62.9641 29.6079 63.777 29.0217 64.928C28.8553 65.2517 28.7322 65.5898 28.573 65.9135C28.1098 66.8199 27.3282 67.5321 26.7854 68.4025C26.0617 69.5535 25.7939 70.9275 25.6636 72.2799C25.6057 72.9057 25.5695 73.5388 25.6781 74.1646C25.8663 75.2365 26.4814 76.2076 27.3137 76.9126C28.146 77.6176 29.1809 78.0564 30.2593 78.265C31.1784 78.4377 32.1265 78.4449 33.0601 78.4449C33.8418 78.4449 34.6234 78.4521 35.4051 78.4521C35.7163 78.4305 36.3676 78.337 36.4183 78.0276Z" fill="#FFD6A1"/>
<path d="M30.7659 77.5025C30.7297 77.4809 30.708 77.4521 30.6863 77.4162C30.4837 77.114 30.281 76.8119 30.0784 76.5098C31.0482 76.035 32.1265 75.7328 33.2121 75.7688C34.2977 75.8048 35.3833 76.1932 36.1577 76.9558C35.8827 77.2075 35.6077 77.4593 35.3254 77.7111C34.0227 76.9486 32.3437 76.8622 30.9686 77.4737C30.9034 77.5025 30.8311 77.5385 30.7659 77.5025Z" fill="#0C0A35"/>
<path d="M29.2895 70.9922C29.5355 71.2008 29.8395 71.3447 30.158 71.3878C30.5198 71.431 30.8889 71.3159 31.2001 71.1289C31.6706 70.8411 32.0469 70.3376 32.0252 69.7908C31.9962 69.1218 31.3955 68.5967 30.7514 68.3737C30.281 68.2154 29.7309 68.1867 29.3329 68.4744C29.0651 68.6758 28.9131 68.9851 28.8046 69.3017C28.6743 69.6685 28.5585 70.3663 29.2895 70.9922Z" fill="#F70032"/>
<path d="M37.5545 67.7047C37.3953 68.1004 37.1998 68.4241 36.7728 68.46C36.3314 68.496 36.0274 68.0212 36.0998 67.6544C36.3169 66.5753 36.6353 65.7768 37.1347 64.7913C37.4314 64.9639 38.7342 66.6904 38.7052 67.5033C38.698 67.7263 38.6546 67.9565 38.5026 68.1147C38.3506 68.273 38.09 68.3234 37.8874 68.237C37.6775 68.1507 37.54 67.9277 37.5545 67.7047Z" fill="#F70032"/>
<path d="M20.1271 67.7911C20.0909 66.9422 20.0619 66.0718 20.3442 65.2733C20.4817 64.8848 20.6916 64.5251 20.7929 64.1223C20.8942 63.7266 20.8653 63.259 20.5758 62.9641C20.4093 62.7987 20.185 62.7051 19.9968 62.5541C19.4829 62.1368 19.425 61.3383 19.7145 60.7485C20.004 60.1586 20.5613 59.7414 21.1331 59.4176C22.168 58.835 23.3622 58.4753 24.5491 58.5832C25.736 58.6839 26.9085 59.2953 27.5309 60.3025C27.7769 60.7053 27.9362 61.1801 27.9144 61.6549C27.8855 62.1296 27.7624 62.6692 27.4078 62.9929C26.4235 63.8705 25.5261 63.5468 25.5478 64.4892C25.5623 65.1726 26.5104 65.2517 26.8433 65.2949C27.9289 65.4243 29.9698 66.8271 28.146 68.7766C27.6973 69.2586 27.14 69.6182 26.5828 69.9779C26.438 70.0714 26.2933 70.1722 26.2064 70.316C25.9386 70.7692 26.4163 71.3303 26.9229 71.4958C27.4295 71.654 28.0013 71.6181 28.4572 71.8842C29.0145 72.208 29.2533 72.8914 29.2968 73.5316C29.3402 74.1718 29.2389 74.8193 29.3257 75.4523C29.4053 76.035 29.6442 76.6033 30.0133 77.0637C30.1797 77.2723 30.3679 77.4593 30.614 77.5672C30.8311 77.6679 31.0772 77.6895 31.316 77.7039C32.1628 77.7687 33.0095 77.8046 33.8563 77.8118C34.305 77.8118 34.7682 77.8046 35.1662 77.6032C36.469 76.9486 36.5848 74.7257 37.8513 74.0064C38.4231 73.6827 39.1902 73.6755 39.8199 73.8625C40.6304 74.0999 41.0936 74.6898 41.3976 75.4739C41.7956 76.5098 41.0647 77.7255 40.0514 78.1859C39.5231 78.4233 38.8139 78.4736 38.5027 78.97C38.0539 79.6894 38.5171 79.9411 38.3434 80.4231C38.0757 81.1713 37.0118 81.8043 36.2084 81.8618C35.4268 81.9122 34.5511 81.8906 34.2254 81.1856C34.153 81.0274 34.1096 80.8547 34.0227 80.6965C33.7115 80.1066 32.9227 79.9052 32.2713 80.0562C31.6199 80.2001 31.0627 80.6101 30.5126 80.9914C29.9626 81.3727 29.3691 81.7395 28.6961 81.7899C28.1388 81.8259 27.5888 81.6316 27.0966 81.3655C25.3235 80.3799 24.3102 78.4736 23.4056 76.6608C22.7397 75.3156 22.0811 73.9632 21.6252 72.5389C21.1186 70.9275 20.1922 69.4672 20.1271 67.7911Z" fill="#D6002B"/>
<path d="M38.5894 66.8271C38.2637 66.3092 37.3012 66.4746 36.8018 66.5609C36.0853 66.6832 35.1951 67.0285 34.7536 67.6256C34.7247 67.6616 34.7681 67.7191 34.8115 67.7047C35.405 67.4601 35.9333 67.1364 36.563 66.9638C37.2578 66.7768 37.8802 66.9062 38.5677 66.8775C38.5894 66.8775 38.6111 66.8487 38.5894 66.8271Z" fill="#0C0A35"/>
<path d="M33.545 60.8635C32.2206 61.216 31.2291 62.2231 30.2231 63.0936C29.4414 63.7698 28.8986 64.6402 28.6888 65.6617C28.6743 65.7264 28.7684 65.748 28.7901 65.6905C29.1809 64.6474 29.6658 64.0935 30.4909 63.3597C31.0119 62.8921 31.5403 62.4246 32.0975 62.0001C32.5752 61.6333 33.147 61.4174 33.6319 61.0722C33.7404 61.0002 33.6825 60.8276 33.545 60.8635Z" fill="#0C0A35"/>
<path d="M35.9841 74.6538C35.9479 74.4596 35.8538 74.179 35.6005 74.2078C35.5643 74.215 35.5571 74.2581 35.5716 74.2869C35.6439 74.4452 35.8249 74.5387 35.9117 74.6826C35.9334 74.7257 35.9913 74.697 35.9841 74.6538Z" fill="#0C0A35"/>
<path d="M33.4436 75.5529C33.5088 75.4666 33.4943 75.3731 33.4943 75.2652C33.4943 75.0854 33.212 75.0854 33.2193 75.2652C33.2193 75.3659 33.2121 75.4594 33.2699 75.5529C33.3206 75.6177 33.393 75.6177 33.4436 75.5529Z" fill="#0C0A35"/>
<path d="M34.9056 75.1789C34.9201 75.0566 34.8549 74.9703 34.7825 74.884C34.674 74.7473 34.4569 74.9199 34.5437 75.0638C34.6016 75.1573 34.6667 75.2436 34.7825 75.2652C34.8477 75.2868 34.8983 75.2436 34.9056 75.1789Z" fill="#0C0A35"/>
<path d="M30.9107 74.1718C30.8021 74.1215 30.7298 74.1934 30.6501 74.2581C30.5343 74.3445 30.462 74.4452 30.4403 74.589C30.433 74.6466 30.4982 74.661 30.5416 74.6466C30.6429 74.6034 30.7008 74.5315 30.7659 74.4452C30.8311 74.366 30.9324 74.3229 30.9324 74.2222C30.9396 74.2006 30.9324 74.179 30.9107 74.1718Z" fill="#0C0A35"/>
<path d="M32.0107 74.9343C31.9384 75.0638 31.8298 75.1573 31.7936 75.3156C31.7864 75.3515 31.8153 75.3803 31.8515 75.3731C32.0469 75.3371 32.1772 75.2148 32.2423 75.035C32.3002 74.8911 32.0831 74.8048 32.0107 74.9343Z" fill="#0C0A35"/>
<path d="M35.3761 72.5389C35.3037 72.6468 35.2169 72.7403 35.13 72.8266C35.0576 72.8986 35.007 72.9417 35.007 73.0424C35.007 73.0712 35.0359 73.1 35.0649 73.1C35.2965 73.1072 35.4412 72.7691 35.4919 72.582C35.4991 72.5173 35.4123 72.4885 35.3761 72.5389Z" fill="#0C0A35"/>
<path d="M34.1603 72.1936C34.059 72.323 33.9938 72.546 34.059 72.7043C34.0807 72.7547 34.1169 72.769 34.1675 72.7475C34.3557 72.6683 34.3629 72.395 34.334 72.2223C34.3195 72.1288 34.2037 72.136 34.1603 72.1936Z" fill="#0C0A35"/>
<path d="M33.1542 72.0784C33.0456 72.2007 32.9443 72.4453 33.0963 72.5676C33.1397 72.6036 33.1904 72.6036 33.2338 72.5676C33.3858 72.4453 33.2845 72.2007 33.1759 72.0784C33.1832 72.0712 33.1614 72.0712 33.1542 72.0784Z" fill="#0C0A35"/>
<path d="M31.4896 72.5316C31.4896 72.6251 31.5403 72.7115 31.5692 72.805C31.6054 72.9057 31.6344 72.9704 31.7502 72.9992C31.7791 73.0064 31.8081 72.9992 31.8225 72.9704C31.8732 72.8625 31.8515 72.8122 31.8008 72.7115C31.7574 72.6179 31.7285 72.51 31.6271 72.4597C31.5692 72.4165 31.4896 72.4597 31.4896 72.5316Z" fill="#0C0A35"/>
<path d="M30.4257 72.841C30.375 72.9848 30.5487 73.1935 30.6645 73.2582C30.802 73.3301 30.925 73.1863 30.8671 73.0568C30.8237 72.9561 30.5125 72.6036 30.4257 72.841Z" fill="#0C0A35"/>
<path d="M30.0566 73.6467C31.8298 72.3303 34.4207 72.2224 36.2952 73.3877C35.8827 74.1287 35.1807 74.7042 34.3629 74.9631C33.5523 75.2221 32.6404 75.1502 31.8732 74.7833C31.6271 74.661 31.3955 74.5171 31.164 74.3661C30.8021 74.1287 30.433 73.8841 30.0566 73.6467Z" fill="white"/>
<path d="M32.6477 74.2078C32.8503 74.4596 33.2267 74.6178 33.6392 74.5387C33.9576 74.474 34.2833 74.1359 34.2833 73.8193C34.2833 73.5028 34.03 73.2295 33.7405 73.1C33.5089 72.9921 33.2339 72.9489 32.9878 73.028C32.7418 73.1 32.1556 73.6035 32.6477 74.2078Z" fill="#0C0A35"/>
<path d="M37.4822 80.9986C37.8224 80.6677 37.7934 80.2792 37.8079 79.8188C37.8513 78.0636 39.2264 77.7471 40.5364 77.0924C41.8029 76.4594 41.6943 74.9415 41.1588 73.8769C41.1081 73.7762 40.9634 73.8481 40.9778 73.9488C41.2311 75.2653 41.3469 76.4522 39.7547 77.0565C39.2047 77.2651 38.7777 77.4234 38.3145 77.7902C37.1203 78.7254 37.8224 79.7469 37.3302 80.9051C37.294 80.9986 37.4243 81.0634 37.4822 80.9986Z" fill="#0C0A35"/>
<path d="M36.7729 80.3872C36.9249 78.9412 37.3953 77.9845 38.5605 77.1068C39.1323 76.6752 39.7837 76.4019 40.312 75.9127C41.1153 75.1789 41.0285 73.7258 40.4061 72.9417C40.3409 72.8554 40.2179 72.9489 40.2396 73.0424C40.5798 74.5243 40.4857 75.4883 39.0382 76.3083C38.5533 76.5817 38.1118 76.8838 37.6776 77.2363C36.6788 78.042 36.563 79.2146 36.6571 80.4015C36.6644 80.4591 36.7657 80.4591 36.7729 80.3872Z" fill="#0C0A35"/>
<path d="M35.6293 80.9194C36.0274 79.6965 35.8392 78.5311 36.5412 77.3658C37.113 76.4162 38.2058 75.999 39.0019 75.2724C39.7257 74.6106 40.1599 73.0639 39.4796 72.2798C39.3566 72.136 39.1394 72.3158 39.2263 72.4741C40.3915 74.5171 37.5762 75.6249 36.5195 76.7975C35.4629 77.9772 35.4774 79.4231 35.4991 80.905C35.5135 80.977 35.6076 80.9842 35.6293 80.9194Z" fill="#0C0A35"/>
<path d="M38.5677 72.6108C38.7414 74.3301 36.1505 75.7688 35.2024 77.0061C34.3701 78.0923 34.4207 79.7757 34.4931 81.0489C34.5076 81.3007 34.8695 81.3007 34.8839 81.0489C34.9346 80.1569 34.8839 79.2865 35.0432 78.3945C35.2675 77.1428 36.2807 76.2292 37.1564 75.3875C37.9887 74.5818 38.9513 73.8697 38.7052 72.5892C38.6908 72.5101 38.5605 72.5316 38.5677 72.6108Z" fill="#0C0A35"/>
<path d="M33.7404 81.0993C34.0516 80.5886 33.8779 79.862 33.8924 79.2865C33.9214 78.3513 34.5727 77.4953 34.5003 76.5745C34.4931 76.4594 34.3483 76.4162 34.2832 76.5169C33.6174 77.5241 32.9805 79.9987 33.697 81.0993C33.7187 81.1065 33.7332 81.1065 33.7404 81.0993Z" fill="#0C0A35"/>
<path d="M32.3654 80.9482C32.7996 80.4806 32.9154 79.9195 32.9806 79.3009C33.0602 78.5599 33.2049 77.6607 32.7707 77.0061C32.7273 76.9414 32.597 76.9557 32.6042 77.0493C32.6839 77.6607 32.7128 78.2434 32.6621 78.8621C32.6115 79.5599 32.6621 80.2576 32.2641 80.8691C32.2279 80.9266 32.322 80.9986 32.3654 80.9482Z" fill="#0C0A35"/>
<path d="M30.8745 80.7684C31.468 80.5094 31.5114 79.5742 31.591 79.0275C31.7575 77.9125 31.8009 76.927 31.1134 75.9774C31.0482 75.8911 30.918 75.9414 30.9397 76.0494C31.0193 76.409 31.1785 76.7399 31.2943 77.0996C31.4608 77.6463 31.3233 78.3801 31.2437 78.934C31.1713 79.4448 31.164 80.2648 30.8094 80.6821C30.766 80.7324 30.8166 80.79 30.8745 80.7684Z" fill="#0C0A35"/>
<path d="M29.3981 80.2864C29.9988 80.6821 30.1942 79.4016 30.2448 79.0851C30.4185 77.9988 30.5995 76.3515 29.7165 75.5314C29.6658 75.481 29.5718 75.5314 29.5935 75.6033C29.9047 76.5601 29.977 77.4017 29.9192 78.3945C29.8902 78.8477 29.9626 80.1138 29.4053 80.272C29.3908 80.272 29.3908 80.2792 29.3981 80.2864Z" fill="#0C0A35"/>
<path d="M28.5875 80.0562C28.7395 78.042 29.1955 75.2724 28.2836 73.3661C27.6829 72.1 26.2933 71.4382 24.9616 72.0712C24.8675 72.1144 24.911 72.2655 25.0123 72.2655C25.7143 72.2511 26.3801 72.2655 27.046 72.546C27.9434 72.9273 28.1533 74.2437 28.2329 75.071C28.3921 76.7255 28.3993 78.3945 28.5369 80.0562C28.5296 80.0922 28.5803 80.0922 28.5875 80.0562Z" fill="#0C0A35"/>
<path d="M27.6972 79.8476C28.3052 78.3729 27.9288 76.6536 27.6466 75.1357C27.386 73.7186 25.9603 72.9345 24.6069 73.0999C24.5418 73.1071 24.5128 73.2078 24.5924 73.2222C26.2425 73.5675 27.2051 74.179 27.4584 75.9774C27.6321 77.2579 27.8565 78.5383 27.6538 79.8332C27.6393 79.862 27.6828 79.8692 27.6972 79.8476Z" fill="#0C0A35"/>
<path d="M24.216 70.6326C25.3812 70.1506 27.5741 69.2154 27.6538 67.6832C27.7478 65.8991 25.6418 66.1437 24.6141 65.3021C23.2607 64.1942 26.1195 62.5685 26.7202 62.0577C27.1761 61.6693 27.5235 61.0146 27.5742 60.4248C27.6827 59.0724 26.9156 57.8063 25.5188 57.5833C25.4391 57.5689 25.3885 57.6696 25.4608 57.72C27.4583 58.9501 27.4728 60.8923 25.5839 62.2448C24.7371 62.849 23.8686 63.5036 23.818 64.6043C23.7746 65.5395 24.7154 65.9927 25.4608 66.2228C25.8878 66.3595 26.2787 66.4459 26.6912 66.6401C28.0229 67.2443 26.8866 68.4745 26.4379 68.9205C25.7721 69.5751 24.8963 69.9779 24.2088 70.6182C24.2016 70.6254 24.2088 70.6326 24.216 70.6326Z" fill="#0C0A35"/>
<path d="M23.326 70.2729C24.5491 70.2944 25.7505 69.237 26.221 68.1579C26.5683 67.3594 25.6275 66.9134 25.0557 66.6832C23.5142 66.0646 21.8279 64.7122 23.4635 62.9857C24.0787 62.3311 24.8965 61.9714 25.4827 61.2736C26.4815 60.0866 25.8735 58.6623 24.9399 57.6696C24.8458 57.5689 24.7011 57.6983 24.759 57.8062C25.4176 59.1371 25.9242 60.1802 24.6215 61.4534C24.1728 61.8923 23.601 62.2303 23.1306 62.6476C22.4141 63.2806 22.2549 64.1223 22.4214 65.0143C22.5806 65.8631 23.3767 66.489 24.1294 66.7983C24.6866 67.0285 26.2354 67.194 25.7578 68.2658C25.3597 69.165 24.1945 69.8125 23.3043 70.1002C23.203 70.129 23.2247 70.2729 23.326 70.2729Z" fill="#0C0A35"/>
<path d="M23.5793 69.424C24.3175 69.2298 25.1932 68.7838 24.7517 67.9134C24.578 67.5609 23.8543 67.3523 23.5503 67.1868C22.3634 66.5538 21.8423 65.8919 21.7627 64.5036C21.6324 62.2447 23.3838 61.7987 24.2885 60.137C24.9109 58.9932 23.8832 57.6912 23.1522 56.8999C23.0726 56.8135 22.9496 56.9215 23.0003 57.015C23.5358 58.0293 24.3102 58.9501 23.6661 60.137C23.3766 60.6693 22.7108 61.0866 22.2693 61.4966C21.5094 62.1944 21.2995 63.1008 21.2199 64.0935C21.162 64.9136 21.2778 66.0574 21.9002 66.676C22.2259 66.9926 22.5733 67.2228 22.9785 67.4386C23.2101 67.5609 23.4634 67.6688 23.7023 67.7623C24.6866 68.1435 24.3537 68.9492 23.5575 69.3809C23.5431 69.3952 23.5575 69.4312 23.5793 69.424Z" fill="#0C0A35"/>
<path d="M22.1969 57.7128C22.5226 58.2954 22.5733 58.8853 22.3489 59.4968C22.2259 60.0219 21.9002 60.4967 21.6035 60.9427C21.162 61.5973 20.4889 62.0793 20.0185 62.7124C19.302 63.6763 19.5263 64.9064 20.0329 65.8847C20.0764 65.9711 20.2283 65.9351 20.2139 65.8344C20.0547 64.518 19.8665 63.4389 20.8508 62.3527C21.3212 61.8347 21.7772 61.3887 22.1535 60.7988C22.7759 59.8277 23.1305 58.5113 22.3489 57.5617C22.3127 57.5185 22.2331 57.5329 22.2114 57.5833C22.1824 57.6408 22.1824 57.6336 22.1969 57.7128C22.1897 57.7128 22.1897 57.7128 22.1969 57.7128Z" fill="#0C0A35"/>
<path d="M21.1331 58.2738C21.3429 58.5184 21.162 59.4823 21.1258 59.7269C21.0173 60.4103 20.4528 60.9283 19.9606 61.3671C19.1718 62.0793 18.7375 62.7986 18.723 63.8777C18.723 63.9496 18.8243 63.9784 18.8605 63.9136C19.2296 63.1943 19.3744 62.4677 19.9896 61.8634C20.4817 61.3815 20.9594 60.993 21.2923 60.3887C21.5818 59.8636 21.77 58.7198 21.3574 58.2235C21.3357 58.1947 21.2923 58.1875 21.2561 58.1947C21.2199 58.2019 21.1837 58.2091 21.1548 58.2163C21.1186 58.2163 21.1186 58.2522 21.1331 58.2738Z" fill="#0C0A35"/>
<path d="M20.6409 64.9783C20.127 64.9207 19.7941 65.4459 19.4829 65.8559C18.6361 66.9709 18.115 67.6327 16.8702 68.8988C16.559 69.2154 16.2406 69.5175 16.009 69.8916C15.9366 70.0138 15.8642 70.1433 15.8715 70.2872C15.8787 70.4814 16.0162 70.6397 16.1537 70.7764C16.9354 71.5533 17.8183 72.2151 18.5276 73.0568C19.2368 73.9056 20.3586 75.7184 20.4672 76.1069C21.1041 78.3081 21.2995 79.2865 19.9823 82.9624C19.852 83.3221 20.0981 83.7106 20.4817 83.7322C21.7048 83.7969 22.9713 83.876 24.1727 83.9264C24.3319 83.9336 24.4984 83.876 24.6069 83.7609C24.9399 83.3941 25.1642 82.7538 25.3886 82.3654C25.6274 81.9625 26.3294 81.2503 26.7203 80.2216C27.7914 77.4377 27.292 74.9703 26.0834 72.2439C25.2583 70.3951 24.3609 69.0139 22.5009 67.1004C22.2186 66.8127 20.7133 65.1222 20.6409 64.9783Z" fill="#B70027"/>
<path d="M20.9593 82.4373C20.706 82.4373 20.4889 82.6532 20.4889 82.9049C20.4889 83.1567 20.706 83.3725 20.9593 83.3725C21.2126 83.3725 21.4298 83.1567 21.4298 82.9049C21.4298 82.6532 21.2199 82.4373 20.9593 82.4373Z" fill="#0C0A35"/>
<path d="M21.6035 80.8331C21.3502 80.8331 21.1403 81.0417 21.1403 81.2935C21.1403 81.5453 21.3502 81.7539 21.6035 81.7539C21.8568 81.7539 22.0666 81.5453 22.0666 81.2935C22.0666 81.0417 21.8568 80.8331 21.6035 80.8331Z" fill="#0C0A35"/>
<path d="M21.9292 79.1067C21.3574 79.1067 21.3574 79.9915 21.9292 79.9915C22.5009 79.9915 22.5009 79.1067 21.9292 79.1067Z" fill="#0C0A35"/>
<path d="M21.9436 77.2291C21.3067 77.2291 21.3067 78.2074 21.9436 78.2074C22.5805 78.2074 22.5805 77.2291 21.9436 77.2291Z" fill="#0C0A35"/>
<path d="M21.6178 75.5458C21.3645 75.5458 21.1547 75.7544 21.1547 76.0062C21.1547 76.2579 21.3645 76.4666 21.6178 76.4666C21.8711 76.4666 22.081 76.2579 22.081 76.0062C22.081 75.7544 21.8711 75.5458 21.6178 75.5458Z" fill="#0C0A35"/>
<path d="M21.01 74.0279C20.7856 74.0279 20.5902 74.215 20.5902 74.4451C20.5902 74.6682 20.7784 74.8624 21.01 74.8624C21.2343 74.8624 21.4297 74.6753 21.4297 74.4451C21.4297 74.215 21.2416 74.0279 21.01 74.0279Z" fill="#0C0A35"/>
<path d="M20.2212 72.6611C19.6278 72.6611 19.6278 73.5747 20.2212 73.5747C20.8219 73.5819 20.8219 72.6611 20.2212 72.6611Z" fill="#0C0A35"/>
<path d="M19.302 71.431C19.0342 71.431 18.8098 71.654 18.8098 71.9202C18.8098 72.1863 19.0342 72.4094 19.302 72.4094C19.5698 72.4094 19.7941 72.1863 19.7941 71.9202C19.7941 71.654 19.5698 71.431 19.302 71.431Z" fill="#0C0A35"/>
<path d="M18.2163 70.388C17.9413 70.388 17.7169 70.611 17.7169 70.8843C17.7169 71.1577 17.9413 71.3807 18.2163 71.3807C18.4913 71.3807 18.7157 71.1577 18.7157 70.8843C18.7157 70.611 18.4913 70.388 18.2163 70.388Z" fill="#0C0A35"/>
<path d="M16.7327 69.7477L16.7255 69.7549C16.5663 69.8843 16.5663 70.2009 16.7255 70.3232L16.7327 70.3303C16.8558 70.4239 16.9788 70.4814 17.138 70.4382C17.3189 70.3879 17.442 70.2224 17.442 70.0354C17.442 69.8915 17.3624 69.7549 17.2321 69.6757C17.0656 69.5822 16.8847 69.6254 16.7327 69.7477Z" fill="#0C0A35"/>
<path d="M26.648 82.5309C28.4645 79.1498 27.6322 75.3876 26.3295 71.9778C25.7144 70.3664 24.8893 69.0643 23.5938 67.9277C22.3635 66.8415 21.5384 65.0575 20.0548 64.2949C19.6856 64.1079 19.3021 64.1583 18.9981 64.4316C18.9547 64.4748 18.9113 64.5108 18.8606 64.5539C18.5928 64.7913 18.5783 65.3164 18.8606 65.5538C19.939 66.4459 20.7713 67.4817 21.6904 68.5392C22.1825 69.1075 23.9195 71.4095 24.1945 72.1001C25.1209 74.3733 25.7144 76.1933 25.7433 77.8622C25.7795 80.0634 25.5479 81.0418 25.7795 82.7467C25.8229 83.0128 26.5322 82.7467 26.648 82.5309Z" fill="#0C0A35"/>
<path d="M38.4809 79.6893C38.6546 79.9411 38.8139 80.4662 39.5303 82.0704C39.8995 82.8905 40.1238 83.8185 40.0731 84.7177C40.0225 85.5378 39.8198 85.732 39.5738 86.0269C39.3422 86.3003 38.9297 86.3363 38.5823 86.2427C38.2349 86.1492 37.9309 85.9622 37.5907 85.8471C36.8743 85.6025 36.0347 85.7536 35.4413 86.2212C34.7754 86.7463 34.4208 87.6239 33.6609 87.998C32.749 88.444 31.591 87.9333 31.0337 87.0988C30.8817 86.8686 30.7515 86.6168 30.5271 86.4514C30.1363 86.1636 29.4126 86.1205 28.9711 86.3219C28.5296 86.5233 28.1967 86.8038 27.7118 86.883C27.1762 86.9693 26.5321 86.9837 26.0617 86.7103C23.8977 85.4658 24.3537 83.9336 24.4839 83.3581C24.6215 82.7466 25.3596 81.8186 26.3439 80.1066C26.9374 79.0779 27.1183 78.488 27.3933 78.5671C30.006 79.2793 31.7285 79.4951 35.0143 79.639C35.7887 79.6606 38.3073 79.4375 38.4809 79.6893Z" fill="#F70032"/>
<path d="M33.1324 86.0269C32.2712 86.3579 31.6633 85.696 31.5185 85.0054C31.4172 84.5091 31.5113 83.9983 31.6198 83.502C31.7356 82.9481 31.8659 82.4013 32.0107 81.8618C32.0903 81.5813 32.1771 81.2935 32.3508 81.0561L32.358 81.0489C32.6331 80.6964 33.1903 80.7828 33.3785 81.1856C33.7404 81.9553 33.9792 82.7826 34.0733 83.6315C34.1529 84.3293 34.1312 85.0846 33.6535 85.6529C33.5233 85.8111 33.3423 85.9478 33.1324 86.0269Z" fill="#0C0A35"/>
<path d="M26.5466 84.6098C26.1919 84.4587 26.0617 83.9839 26.1702 83.6171C26.2788 83.243 26.5683 82.9552 26.8505 82.6891C27.2631 82.315 28.5296 80.8259 29.0145 80.5454C29.0145 80.5454 29.0217 80.5454 29.0217 80.5382C29.2823 80.3871 29.579 80.6533 29.4705 80.9338C29.0579 81.9481 28.2039 83.4372 27.7407 84.0631C27.596 84.2501 27.4368 84.4372 27.2269 84.5522C27.0315 84.6602 26.7709 84.7033 26.5466 84.6098Z" fill="#0C0A35"/>
<path d="M38.2638 84.8399C38.0684 84.9263 37.844 84.9694 37.6414 84.9047C37.4315 84.8327 37.1203 84.7177 37.0117 83.876C36.9249 83.2214 36.7005 80.8259 37.0552 80.7611C37.5473 80.6748 38.5171 83.4156 38.5967 84.3076C38.604 84.4155 38.604 84.5306 38.5461 84.6313C38.4882 84.7248 38.3723 84.7896 38.2638 84.8399Z" fill="#0C0A35"/>
<path d="M35.1445 57.1444C34.732 57.1444 34.732 57.7775 35.1445 57.7775C35.557 57.7775 35.5498 57.1444 35.1445 57.1444Z" fill="#F70032"/>
<path d="M31.9383 55.3891C31.4678 55.3891 31.4678 56.1085 31.9383 56.1085C32.4087 56.1085 32.4087 55.3891 31.9383 55.3891Z" fill="#F70032"/>
<path d="M28.1966 57.0581C27.7406 57.0581 27.7406 57.7631 28.1966 57.7631C28.6598 57.7703 28.6598 57.0581 28.1966 57.0581Z" fill="#F70032"/>
<path d="M33.2701 58.5688C32.9227 58.5688 32.9227 59.1011 33.2701 59.1011C33.6175 59.1011 33.6175 58.5688 33.2701 58.5688Z" fill="#F70032"/>
<path d="M32.4306 58.5328C32.0397 58.5328 32.0397 59.137 32.4306 59.137C32.8286 59.137 32.8286 58.5328 32.4306 58.5328Z" fill="#F70032"/>
<path d="M30.6573 58.6623C30.2448 58.6623 30.2448 59.2953 30.6573 59.2953C31.0698 59.2953 31.0698 58.6623 30.6573 58.6623Z" fill="#F70032"/>
<path d="M29.7238 58.8996C29.304 58.8996 29.304 59.5471 29.7238 59.5471C30.1435 59.5471 30.1435 58.8996 29.7238 58.8996Z" fill="#F70032"/>
<path d="M30.2955 52.7851C31.3522 52.8714 32.5101 52.188 32.2279 51.0011C31.9311 49.7422 30.2448 49.699 29.304 50.1378C28.7974 50.3752 28.3486 50.9435 28.3993 51.519C28.4572 52.2887 29.152 52.7419 29.8757 52.8283C30.4113 52.893 31.0844 52.67 31.439 52.26C31.6778 51.9866 31.7936 51.6413 31.6923 51.2816C31.5693 50.8644 31.1857 50.6414 30.8021 50.5119C30.4185 50.3824 29.9915 50.6558 29.8902 51.0298C29.7744 51.4327 30.0277 51.814 30.4113 51.9362C30.5778 51.9938 30.4258 51.9291 30.3823 51.8931C30.2593 51.7924 30.2304 51.5694 30.2665 51.4255C30.2738 51.3967 30.4258 51.1809 30.3317 51.2744C30.4619 51.1449 30.3027 51.2816 30.2521 51.3104C30.4041 51.2313 30.2304 51.3176 30.1942 51.3248C30.1507 51.3392 30.1146 51.3464 30.0711 51.3536C30.1652 51.3464 30.1652 51.3392 30.0784 51.3464C30.0349 51.3464 29.854 51.3176 30.0277 51.3536C29.977 51.3392 29.9336 51.3248 29.8902 51.3104C29.9481 51.332 29.9336 51.3248 29.8613 51.2888C29.6876 51.1953 29.9409 51.3751 29.8178 51.2528C29.8395 51.2744 29.9264 51.4902 29.8902 51.3608C29.8974 51.3967 29.8974 51.4327 29.9047 51.4687C29.9047 51.3895 29.9047 51.4039 29.8974 51.5262C29.9264 51.4543 29.9191 51.4615 29.8757 51.5694C29.9191 51.5046 29.9119 51.5118 29.8468 51.591C29.883 51.5478 29.9264 51.5046 29.9698 51.4687C29.8468 51.5838 30.0422 51.4327 30.0784 51.4111C29.9409 51.483 30.129 51.3967 30.1507 51.3895C30.1942 51.3751 30.2448 51.3679 30.2883 51.3536C30.2159 51.3608 30.2231 51.3608 30.3172 51.3536C30.3896 51.3464 30.4619 51.3464 30.5271 51.3464C30.556 51.3464 30.7732 51.368 30.585 51.3464C30.6429 51.3536 30.6935 51.368 30.7514 51.3823C30.8817 51.4183 30.6284 51.3104 30.8093 51.4039C30.86 51.4327 30.9613 51.5262 30.8021 51.3895C30.9541 51.519 30.7587 51.3032 30.8166 51.3967C30.8528 51.4471 30.8817 51.5694 30.8093 51.3536C30.8745 51.5334 30.8094 51.2169 30.8166 51.332C30.8238 51.4759 30.8528 51.1378 30.8238 51.2816C30.8093 51.3392 30.7514 51.4399 30.8455 51.2457C30.8238 51.296 30.737 51.3895 30.8745 51.2241C30.7514 51.368 30.9686 51.1737 30.86 51.2457C30.8238 51.2672 30.6791 51.332 30.8672 51.2528C30.8021 51.2816 30.7297 51.296 30.6574 51.3104C30.8455 51.2744 30.6501 51.3104 30.6067 51.3104C30.5126 51.3176 30.4185 51.3104 30.3244 51.3032C29.9191 51.2672 29.579 51.6629 29.579 52.0442C29.55 52.4758 29.8902 52.7491 30.2955 52.7851Z" fill="#0C0A35"/>
<path d="M30.2954 50.778C29.9987 50.7492 29.7961 50.9075 29.6368 51.1305C29.5138 51.296 29.5138 51.6053 29.6368 51.7707C29.8033 51.9937 30.0059 52.152 30.2954 52.1232C30.6645 52.0873 30.9757 51.8427 30.9757 51.447C30.9757 51.0586 30.6645 50.814 30.2954 50.778Z" fill="#F70032"/>
<path d="M33.2773 52.0225C33.5379 52.1448 33.7405 52.1448 34.001 52.0225C34.428 51.8283 34.4497 51.2024 34.1458 50.9075C33.8708 50.6341 33.4076 50.6341 33.1326 50.9075C32.8286 51.2096 32.8503 51.8283 33.2773 52.0225Z" fill="#0C0A35"/>
<path d="M36.1432 51.6988C36.136 51.6988 36.1288 51.6916 36.1288 51.6844C35.861 51.519 35.4919 51.6772 35.4122 51.9722C35.3182 52.3246 35.6511 52.6699 36.013 52.5692C36.0202 52.5692 36.0274 52.5692 36.0347 52.562C36.4255 52.4541 36.4906 51.9146 36.1432 51.6988Z" fill="#0C0A35"/>
<path d="M37.9598 52.3462C37.3952 52.3462 37.3952 53.2166 37.9598 53.2166C38.5315 53.2238 38.5315 52.3462 37.9598 52.3462Z" fill="#0C0A35"/>
<path d="M39.9718 52.9937C39.4724 52.9937 39.4724 53.7634 39.9718 53.7634C40.4712 53.7634 40.4712 52.9937 39.9718 52.9937Z" fill="#0C0A35"/>
<path d="M41.6075 53.5332C41.2311 53.5332 41.2311 54.1159 41.6075 54.1159C41.991 54.1159 41.991 53.5332 41.6075 53.5332Z" fill="#0C0A35"/>
<path d="M27.0894 51.6413C26.9808 51.706 26.8433 51.8211 26.7927 51.9434C26.6407 52.2815 26.7637 52.634 27.1256 52.7563C27.3065 52.821 27.5453 52.7851 27.7046 52.6844C27.9868 52.5117 28.0954 52.152 27.9217 51.8571C27.7625 51.5837 27.3716 51.4686 27.0894 51.6413Z" fill="#0C0A35"/>
<path d="M25.309 52.3966C25.2945 52.3966 25.2728 52.3966 25.2583 52.3966C24.9616 52.3822 24.7228 52.6483 24.7228 52.9361C24.7228 53.2166 24.9688 53.4828 25.2583 53.4756C25.2728 53.4756 25.2945 53.4756 25.309 53.4756C25.5985 53.4684 25.8446 53.2382 25.8446 52.9433C25.8446 52.6484 25.6057 52.411 25.309 52.3966Z" fill="#0C0A35"/>
<path d="M23.0726 53.1375C23.0654 53.1447 23.0581 53.1519 23.0437 53.1591C22.7686 53.3605 22.7686 53.6986 23.0437 53.9001C23.0509 53.9073 23.0581 53.9145 23.0726 53.9216C23.3549 54.1303 23.7529 53.8425 23.7529 53.5332C23.7529 53.2095 23.3549 52.9217 23.0726 53.1375Z" fill="#0C0A35"/>
<path d="M21.0896 53.8137C21.0751 53.8137 21.0607 53.8209 21.0462 53.8281C20.6047 53.9432 20.6047 54.5978 21.0462 54.7129C21.0607 54.7201 21.0751 54.7201 21.0896 54.7273C21.3863 54.8065 21.6903 54.5835 21.6903 54.2741C21.6903 53.9576 21.3863 53.7346 21.0896 53.8137Z" fill="#0C0A35"/>
<path d="M19.5047 54.418C19.0342 54.418 19.0342 55.1446 19.5047 55.1446C19.9751 55.1446 19.9751 54.418 19.5047 54.418Z" fill="#0C0A35"/>
<path d="M17.8617 55.0582C17.3913 55.0582 17.3913 55.7848 17.8617 55.7848C18.3322 55.7848 18.3322 55.0582 17.8617 55.0582Z" fill="#0C0A35"/>
<path d="M16.0017 55.4107C15.5313 55.4107 15.5313 56.1373 16.0017 56.1373C16.4722 56.1445 16.4722 55.4107 16.0017 55.4107Z" fill="#0C0A35"/>
<path d="M43.6845 47.6919C43.6918 47.6632 43.7062 47.6344 43.7135 47.6056C43.3371 47.4474 43.12 47.0301 43.0693 46.6201C43.0187 46.2172 43.12 45.8144 43.2286 45.4259C43.7352 43.5916 44.43 41.8075 45.3057 40.117C45.6965 40.0163 46.1018 40.117 46.4926 40.2105C47.969 40.5774 49.4454 40.9443 50.9219 41.3112C51.1317 41.3615 51.3488 41.4191 51.4936 41.5701C51.7252 41.8075 51.7035 42.1816 51.6673 42.5053C51.4646 44.167 51.0883 45.8072 50.5455 47.397C50.3139 48.0804 49.9593 48.8429 49.2645 49.0515C48.8809 49.1666 48.4756 49.0947 48.0848 49.0156C46.4854 48.7134 45.1175 48.4832 43.6845 47.6919Z" fill="#FFD6A1"/>
<path d="M45.6169 54.8425C46.6229 55.0223 47.8243 55.2453 48.7724 54.8712C49.7277 54.4972 50.5166 53.7634 51.0015 52.8642C51.3127 52.2887 51.4864 51.5622 51.1607 51.0011C50.9002 50.5551 50.3863 50.3248 49.9665 50.0155C49.554 49.7062 50.0317 48.6199 50.2705 48.1596C48.7724 47.5625 47.0499 47.0949 45.5011 46.6417C43.8003 46.1453 43.0259 45.4475 42.9029 46.0374C42.7147 46.9438 42.5338 47.5841 42.2877 47.9509C41.8897 48.548 41.3758 48.6991 40.8113 49.1595C40.1672 49.6846 40.0659 50.6773 40.3843 51.4399C40.71 52.2024 41.3686 52.7779 42.0634 53.2383C42.9174 53.8066 44.1911 54.5907 45.6169 54.8425Z" fill="#F70032"/>
<path d="M46.9992 54.4037C48.0124 54.9144 49.2211 53.6483 49.7349 52.9002C50.2415 52.1664 50.285 50.3968 49.3369 50.0227C48.7579 49.7925 48.1789 50.368 48.2875 50.9435C48.3454 51.2528 48.5769 51.8427 48.396 52.2024C48.0124 52.9577 47.4479 53.4109 46.9341 54.0512C46.8545 54.1519 46.8834 54.3461 46.9992 54.4037Z" fill="#990028"/>
<path d="M45.3636 54.1375C46.0366 54.0871 46.4854 53.4541 46.8762 52.9577C47.4552 52.2168 47.8098 51.3032 47.9835 50.3824C48.1427 49.4976 46.6012 49.1954 46.413 50.0802C46.2538 50.7924 46.0801 51.4758 45.834 52.152C45.6241 52.7131 45.1682 53.2239 45.0813 53.8138C45.0524 53.9648 45.2044 54.1519 45.3636 54.1375Z" fill="#990028"/>
<path d="M44.2997 53.5116C44.828 52.2815 45.3057 51.0226 45.8195 49.7853C46.1886 48.9077 44.7412 48.4113 44.4083 49.3105C44.1043 50.1306 43.8293 50.9579 43.6628 51.8139C43.5543 52.3822 43.4385 53.1376 43.8872 53.5908C44.0174 53.7274 44.2201 53.6843 44.2997 53.5116Z" fill="#990028"/>
<path d="M42.7799 52.7204C42.7799 52.0586 42.5338 51.4759 42.7654 50.8212C42.9464 50.3105 43.3589 49.8789 43.728 49.4904C43.9089 49.3034 44.0754 49.0156 43.9813 48.7423C43.8872 48.4545 43.7786 48.2531 43.4674 48.1596C43.2286 48.0876 42.8812 48.1092 42.7003 48.3107C42.1358 48.9365 41.5061 49.6775 41.4482 50.5623C41.3831 51.4615 41.7088 52.4614 42.5773 52.857C42.6641 52.9002 42.7799 52.8139 42.7799 52.7204Z" fill="#990028"/>
<path d="M49.4382 49.0157C49.554 48.9653 49.6191 48.7999 49.6698 48.692C49.7421 48.5337 49.7711 48.3754 49.7132 48.21C49.6625 48.0661 49.4454 48.0733 49.3658 48.1884C49.25 48.3682 49.1487 48.8574 49.3586 49.0085C49.3875 49.0229 49.4165 49.0229 49.4382 49.0157Z" fill="#990028"/>
<path d="M48.6276 48.7278C48.7362 48.7638 48.8954 48.6487 48.9533 48.5624C49.0546 48.4041 49.127 48.1739 49.0474 47.9941C48.975 47.8286 48.7724 47.8574 48.671 47.9653C48.5842 48.066 48.5552 48.2818 48.5408 48.4185C48.5335 48.4976 48.5335 48.6991 48.6276 48.7278Z" fill="#990028"/>
<path d="M48.0052 48.5049C48.15 48.4977 48.2368 48.4186 48.2947 48.2891C48.3454 48.1812 48.396 48.0013 48.3888 47.879C48.3743 47.6704 48.1065 47.5337 47.9763 47.7352C47.9111 47.8359 47.9039 47.951 47.8822 48.0661C47.8677 48.174 47.846 48.2747 47.8677 48.3826C47.8822 48.4402 47.9401 48.5049 48.0052 48.5049Z" fill="#990028"/>
<path d="M47.3466 48.2603C47.6216 48.2675 47.694 47.8215 47.7302 47.6273C47.7736 47.3611 47.3321 47.3251 47.2959 47.6057C47.2814 47.7208 47.0788 48.2531 47.3466 48.2603Z" fill="#990028"/>
<path d="M46.7966 47.9654C46.9486 47.8287 47.115 47.4402 46.9341 47.2748C46.84 47.1885 46.7242 47.1741 46.6229 47.2532C46.5071 47.3323 46.5143 47.4762 46.4999 47.5985C46.4781 47.728 46.4999 47.8431 46.5722 47.951C46.6157 48.0229 46.7387 48.0229 46.7966 47.9654Z" fill="#990028"/>
<path d="M45.9353 47.7855C46.1959 47.7783 46.2972 47.4115 46.2755 47.2028C46.2538 46.9798 45.9353 47.0014 45.8629 47.1741C45.8268 47.282 45.6965 47.7855 45.9353 47.7855Z" fill="#990028"/>
<path d="M45.3853 47.5409C45.5373 47.4402 45.5952 47.246 45.6024 47.0662C45.6169 46.7712 45.2044 46.764 45.1537 47.0374C45.1248 47.2028 45.132 47.4115 45.2767 47.5266C45.3057 47.5553 45.3564 47.5553 45.3853 47.5409Z" fill="#990028"/>
<path d="M44.7195 47.2747C44.8642 47.1452 44.9438 46.8647 44.8642 46.6848C44.828 46.6057 44.734 46.5841 44.6544 46.6129C44.4517 46.7064 44.3866 47.0301 44.4879 47.2244C44.5313 47.3107 44.6471 47.3395 44.7195 47.2747Z" fill="#990028"/>
<path d="M44.126 47.0662C44.2853 46.8935 44.3215 46.6058 44.1839 46.4115C44.1188 46.318 43.9596 46.318 43.88 46.39C43.7135 46.541 43.699 46.8935 43.8727 47.0518C43.9306 47.1093 44.0537 47.1453 44.126 47.0662Z" fill="#990028"/>
<path d="M43.3154 46.7999C43.5036 46.8287 43.6121 46.5194 43.6266 46.3827C43.6483 46.2029 43.3806 46.1165 43.2937 46.2676C43.2358 46.3683 43.0983 46.7712 43.3154 46.7999Z" fill="#990028"/>
<path d="M29.7237 47.5409C29.5862 47.4905 29.4632 47.5121 29.3401 47.584C29.1013 47.7135 29.1013 48.0876 29.3401 48.2171C29.4704 48.2818 29.5862 48.3106 29.7237 48.2602C30.0856 48.1379 30.0856 47.6704 29.7237 47.5409Z" fill="#990028"/>
<path d="M25.6274 44.7425C25.6202 44.7497 25.6129 44.7569 25.6057 44.7713C25.4392 44.9871 25.4392 45.2029 25.6057 45.4187C25.6129 45.4259 25.6202 45.4403 25.6274 45.4475C25.736 45.5842 25.9603 45.6202 26.1123 45.577C26.3222 45.5195 26.4814 45.318 26.4814 45.095C26.4814 44.9224 26.3873 44.7569 26.2353 44.6706C26.0544 44.5627 25.7649 44.5699 25.6274 44.7425Z" fill="#990028"/>
<path d="M23.1523 48.4976C23.0799 48.4976 23.0075 48.5048 22.9424 48.5336C22.5371 48.6775 22.5371 49.2098 22.9424 49.3537C23.0148 49.3753 23.0799 49.3825 23.1523 49.3896C23.724 49.3968 23.724 48.4832 23.1523 48.4976Z" fill="#990028"/>
<path d="M18.9545 45.2677C18.6868 45.2677 18.4624 45.4907 18.4624 45.7569C18.4624 46.023 18.6868 46.246 18.9545 46.246C19.2223 46.246 19.4467 46.023 19.4467 45.7569C19.4467 45.4907 19.2223 45.2677 18.9545 45.2677Z" fill="#990028"/>
<path d="M17.6084 50.519C17.4926 50.3536 17.3406 50.2529 17.1307 50.2744C16.7254 50.3104 16.6241 50.7636 16.9353 51.001C17.0366 51.0729 17.1524 51.1161 17.2755 51.1017C17.413 51.0873 17.536 51.037 17.6084 50.9147C17.6735 50.7996 17.6808 50.6269 17.6084 50.519Z" fill="#990028"/>
<path d="M13.78 46.4619C13.3819 46.4619 13.3819 47.0733 13.78 47.0733C14.178 47.0733 14.178 46.4619 13.78 46.4619Z" fill="#990028"/>
<path d="M22.5299 41.1385C22.0088 41.1385 22.0088 41.9442 22.5299 41.9442C23.0509 41.9442 23.0509 41.1385 22.5299 41.1385Z" fill="#990028"/>
<path d="M21.2415 38.7934C20.7204 38.7934 20.7204 39.5991 21.2415 39.5991C21.7698 39.5991 21.7698 38.7934 21.2415 38.7934Z" fill="#990028"/>
<path d="M19.3671 41.4047C18.846 41.4047 18.846 42.2104 19.3671 42.2104C19.8882 42.2104 19.8882 41.4047 19.3671 41.4047Z" fill="#990028"/>
<path d="M37.9598 69.4959C37.7282 69.4959 37.7282 69.8556 37.9598 69.8556C38.1987 69.8556 38.1987 69.4959 37.9598 69.4959Z" fill="#0C0A35"/>
<path d="M7.78739 52.0441C7.22287 50.0083 7.03469 47.3323 7.7729 46.8934C10.3639 45.3684 13.2299 44.8145 16.1248 43.9944C20.4382 42.7715 23.847 42.1097 28.2039 41.0306C30.5633 40.4479 32.6693 39.5847 34.5293 38.9517C38.9296 37.4626 42.4687 35.326 45.6314 33.5708C46.9776 32.8227 51.689 37.6208 51.8555 41.2464C51.8627 41.4119 51.8627 41.5773 51.7904 41.7284C51.6818 41.9586 51.4285 42.0737 51.1969 42.1744C44.6109 45.0015 39.1323 46.3971 32.17 48.1308C30.3462 48.584 26.9518 49.699 25.1425 50.2097C21.1909 51.3247 17.4637 52.5836 13.874 54.5691C13.4036 54.828 12.9187 55.1014 12.3831 55.159C11.7245 55.2237 11.0804 54.9575 10.4869 54.6698C9.31445 54.0943 8.13478 53.2886 7.78739 52.0441Z" fill="#222272"/>
<path d="M30.708 42.5916C31.1784 42.2032 31.8225 41.8219 32.3726 42.0881C32.7851 42.2895 33.2989 42.9657 33.2483 43.4189C33.1976 43.8721 32.9515 44.2821 32.7055 44.6634C32.1192 45.5554 31.1205 46.2172 30.375 46.9797C30.2882 47.0661 30.1869 47.1596 30.0638 47.174C29.9625 47.1884 29.8612 47.138 29.7671 47.0948C28.9276 46.6704 28.2038 46.0302 27.6683 45.2533C27.3281 44.7569 27.0603 44.1814 27.0531 43.5771C27.0459 42.9729 27.3426 42.3398 27.8854 42.0737C28.3341 41.8507 28.8914 41.9154 29.3112 42.1816C29.7309 42.4549 30.0059 42.9153 30.0856 43.4045C30.1507 43.0808 30.4329 42.8218 30.708 42.5916Z" fill="#F70032"/>
<path d="M30.0276 45.0878C30.4547 45.0878 30.4547 44.426 30.0276 44.426C29.6006 44.426 29.6006 45.0878 30.0276 45.0878Z" fill="#0C0A35"/>
<path d="M25.5188 43.8362C24.3246 43.4405 22.4429 42.5269 21.4297 43.7786C21.256 43.9944 21.3501 44.3397 21.6613 44.3397C22.262 44.3469 22.8265 44.1239 23.4272 44.1167C24.1147 44.1095 24.7878 44.1383 25.4681 44.1887C25.6852 44.2103 25.6997 43.9009 25.5188 43.8362Z" fill="#0C0A35"/>
<path d="M25.1063 45.4403C23.8832 45.7209 22.6601 45.9583 21.4587 46.3323C20.6771 46.5769 19.606 46.8503 19.2875 47.6848C19.2296 47.8358 19.3744 47.9653 19.5119 47.9725C20.3224 48.0516 21.2995 47.5553 22.0666 47.3035C23.1595 46.9438 24.1727 46.4187 25.2873 46.1021C25.7143 45.9798 25.5406 45.3468 25.1063 45.4403Z" fill="#0C0A35"/>
<path d="M35.6584 42.8434C36.8742 42.5413 38.0973 42.2823 39.2843 41.8939C40.0659 41.6349 41.137 41.3471 41.4338 40.5127C41.4844 40.3616 41.3469 40.2321 41.2094 40.2249C40.3988 40.1602 39.429 40.6709 38.6691 40.9371C37.5835 41.3112 36.5775 41.8579 35.4702 42.196C35.0577 42.3183 35.2314 42.9513 35.6584 42.8434Z" fill="#0C0A35"/>
<path d="M26.1123 47.2099C25.5913 47.7279 24.8675 48.0732 24.1872 48.3322C23.5793 48.5623 22.8266 48.7638 22.566 49.4112C22.4937 49.5982 22.6457 49.7637 22.8049 49.8284C23.4852 50.1018 24.4043 49.5766 24.9978 49.2601C25.736 48.8717 26.2426 48.3321 26.59 47.5768C26.7275 47.2747 26.3729 46.9582 26.1123 47.2099Z" fill="#0C0A35"/>
<path d="M34.5655 41.3328C35.0939 41.0163 35.6222 40.6926 36.1577 40.3976C36.715 40.0883 37.2795 39.9085 37.6631 39.3761C37.7355 39.2682 37.6631 39.0884 37.5401 39.0668C36.8453 38.9445 36.2663 39.2395 35.6728 39.5704C35.007 39.9372 34.5004 40.3976 34.3122 41.1458C34.276 41.2824 34.4353 41.4119 34.5655 41.3328Z" fill="#0C0A35"/>
<path d="M35.6149 44.3038C35.9551 44.9224 37.0479 44.9008 37.6703 44.9296C38.4158 44.9656 39.7402 44.7714 40.2179 44.1671C40.2975 44.0592 40.3119 43.8937 40.1744 43.8218C39.4507 43.4333 38.4592 44.0016 37.6775 44.052C37.0407 44.0952 36.0853 43.6563 35.6221 44.2534C35.6004 44.2678 35.6077 44.2894 35.6149 44.3038Z" fill="#0C0A35"/>
<path d="M18.3394 48.5336C19.0921 48.5336 19.0921 47.3754 18.3394 47.3754C17.5867 47.3754 17.5867 48.5336 18.3394 48.5336Z" fill="#990028"/>
<path d="M16.4577 49.0587C17.1959 49.0587 17.1959 47.9221 16.4577 47.9221C15.7195 47.9221 15.7195 49.0587 16.4577 49.0587Z" fill="#990028"/>
<path d="M14.7425 49.5767C15.3287 49.5767 15.3287 48.6775 14.7425 48.6775C14.1635 48.6775 14.1635 49.5767 14.7425 49.5767Z" fill="#990028"/>
<path d="M13.2443 50.0803C13.7871 50.0803 13.7871 49.2386 13.2443 49.2386C12.6943 49.2458 12.6943 50.0803 13.2443 50.0803Z" fill="#990028"/>
<path d="M11.8475 50.5838C12.3541 50.5838 12.3541 49.8069 11.8475 49.8069C11.3409 49.8069 11.3409 50.5838 11.8475 50.5838Z" fill="#990028"/>
<path d="M42.9897 40.3328C42.9897 40.3112 42.9898 40.2825 42.9825 40.2609C42.9319 39.5991 42.0055 39.5991 41.9476 40.2609C41.9476 40.2825 41.9476 40.3112 41.9403 40.3328C41.8897 41.0018 43.0404 41.0018 42.9897 40.3328Z" fill="#990028"/>
<path d="M44.0248 40.153C44.6834 40.153 44.6834 39.1315 44.0248 39.1315C43.3589 39.1315 43.3589 40.153 44.0248 40.153Z" fill="#990028"/>
<path d="M45.7616 39.2754C45.7689 39.261 45.7761 39.2466 45.7906 39.2394C45.9498 39.0092 45.7399 38.6999 45.4794 38.6999C45.2188 38.6999 45.009 39.0092 45.1682 39.2394C45.1754 39.2538 45.1827 39.2682 45.1971 39.2754C45.3274 39.484 45.6169 39.484 45.7616 39.2754Z" fill="#990028"/>
<path d="M46.869 39.074C47.3756 39.074 47.3756 38.297 46.869 38.297C46.3624 38.2899 46.3624 39.074 46.869 39.074Z" fill="#990028"/>
<path d="M48.3164 38.4553C48.7217 38.4553 48.7217 37.8367 48.3164 37.8367C47.9111 37.8367 47.9111 38.4553 48.3164 38.4553Z" fill="#990028"/>
<path d="M7.95386 18.2771C8.19269 18.0613 8.46049 17.8958 8.7138 17.7088C8.99605 17.5002 9.30002 17.3131 9.52437 17.047C9.71254 16.824 9.7994 16.6082 9.89348 16.3348C9.98757 16.0614 9.9948 15.4788 9.84282 15.2342C9.40134 14.5292 8.17099 13.9177 7.35317 15.4644C7.3387 15.4859 7.317 15.5003 7.29528 15.5003C7.27357 15.5003 7.25185 15.4859 7.23737 15.4644C6.42679 13.9177 5.18921 14.5292 4.74773 15.2342C4.59574 15.4788 4.60298 16.0614 4.69706 16.3348C4.79115 16.6082 4.878 16.824 5.06617 17.047C5.29053 17.3131 5.5945 17.5002 5.87675 17.7088C6.1373 17.903 6.39785 18.0685 6.63668 18.2771C6.75972 18.385 7.28804 18.9533 7.28804 18.9533C7.28804 18.9533 7.83806 18.385 7.95386 18.2771Z" fill="#D6002B"/>
<path d="M50.0969 70.7836C49.858 70.9994 49.5903 71.1649 49.337 71.3519C49.0547 71.5605 48.7507 71.7476 48.5264 72.0137C48.3382 72.2295 48.2514 72.4525 48.1573 72.7259C48.0632 72.9993 48.056 73.5819 48.2079 73.8265C48.6494 74.5315 49.8798 75.143 50.6976 73.5963C50.7121 73.5747 50.7338 73.5604 50.7555 73.5604C50.7772 73.5604 50.7989 73.5747 50.8134 73.5963C51.6239 75.143 52.8615 74.5315 53.303 73.8265C53.455 73.5819 53.4478 72.9993 53.3537 72.7259C53.2596 72.4525 53.1727 72.2367 52.9846 72.0137C52.7602 71.7476 52.4562 71.5605 52.174 71.3519C51.9134 71.1577 51.6529 70.9922 51.4141 70.7836C51.291 70.6757 50.7627 70.1074 50.7627 70.1074C50.7627 70.1074 50.2199 70.6757 50.0969 70.7836Z" fill="#D6002B"/>
<path d="M6.81759 11.4791C5.76094 11.4791 4.93587 11.0762 4.33517 10.2777C3.73447 9.47923 3.43774 8.47931 3.43774 7.28516C3.43774 6.01189 3.74896 4.97599 4.37137 4.1775C4.99378 3.37181 5.8116 2.97616 6.81759 2.97616C7.80187 2.97616 8.61245 3.35743 9.2421 4.12715C9.87175 4.89687 10.1902 5.90398 10.1902 7.16287C10.1902 8.20595 9.95135 9.12673 9.48092 9.91084C9.00326 10.695 8.40255 11.1841 7.66434 11.3784L7.65712 11.4934C7.65712 12.0905 8.01897 12.3927 8.74994 12.3927C9.09734 12.3927 9.41578 12.3639 9.69803 12.3135V13.1336C9.42301 13.2199 9.14077 13.2559 8.85128 13.2559C8.22163 13.2559 7.73672 13.1264 7.39657 12.8602C7.04917 12.5941 6.85378 12.1337 6.81759 11.4791ZM6.81034 10.6446C7.52684 10.6446 8.09134 10.3209 8.49663 9.66626C8.90192 9.01883 9.10459 8.17717 9.10459 7.14848C9.10459 6.09101 8.89469 5.27094 8.47492 4.68825C8.05516 4.09837 7.49788 3.81062 6.8031 3.81062C6.10108 3.81062 5.54381 4.12714 5.13128 4.76018C4.71875 5.39322 4.50888 6.22769 4.50888 7.24919C4.50888 8.24911 4.71876 9.06918 5.13852 9.69503C5.55105 10.3353 6.10832 10.6446 6.81034 10.6446Z" fill="#D6002B"/>
<path d="M51.1824 77.4809C52.2391 77.4809 53.0641 77.8838 53.6648 78.6823C54.2655 79.4808 54.5623 80.4807 54.5623 81.6748C54.5623 82.9409 54.251 83.984 53.6286 84.7825C53.0062 85.5882 52.1884 85.9838 51.1824 85.9838C50.1981 85.9838 49.3948 85.6026 48.7579 84.8328C48.1283 84.0631 47.8098 83.056 47.8098 81.7971C47.8098 80.7468 48.0487 79.8332 48.5191 79.0491C48.9895 78.265 49.5975 77.7759 50.3357 77.5816L50.3429 77.4665C50.3429 76.8695 49.981 76.5673 49.2501 76.5673C48.9027 76.5673 48.5842 76.5961 48.3019 76.6465V75.8264C48.577 75.7401 48.8592 75.7041 49.1487 75.7041C49.7784 75.7041 50.2633 75.8336 50.6034 76.0997C50.9508 76.3659 51.139 76.8263 51.1824 77.4809ZM51.1897 78.3154C50.4732 78.3154 49.9086 78.6391 49.5033 79.2937C49.0981 79.9483 48.8954 80.7828 48.8954 81.8115C48.8954 82.869 49.1053 83.6891 49.5251 84.2717C49.9448 84.8616 50.5021 85.1494 51.1969 85.1494C51.8989 85.1494 52.4562 84.8328 52.8687 84.1998C53.2813 83.5668 53.4911 82.7323 53.4911 81.7108C53.4911 80.7109 53.2812 79.8908 52.8615 79.265C52.4417 78.6247 51.8844 78.3154 51.1897 78.3154Z" fill="#D6002B"/>
<path d="M18.9981 84.2358H8.59081C6.2242 84.2358 4.29907 82.2 4.29907 79.7038V22.471H4.56685V79.7038C4.56685 82.0561 6.37618 83.9696 8.59081 83.9696H18.9981V84.2358Z" fill="#D6002B"/>
<path d="M46.6084 83.9696H41.1298V84.2358H46.6084V83.9696Z" fill="#D6002B"/>
<path d="M53.7011 66.7695H53.4333V9.25625C53.4333 6.90392 51.624 4.99042 49.4094 4.99042H41.1299V4.72425H49.4094C51.776 4.72425 53.7011 6.76005 53.7011 9.25625V66.7695Z" fill="#D6002B"/>
<path d="M18.1441 4.72425H11.8114V4.99042H18.1441V4.72425Z" fill="#D6002B"/>
</svg>
