<svg width="59" height="89" viewBox="0 0 59 89" fill="none" xmlns="http://www.w3.org/2000/svg">
<path d="M4.98829 0.47998C2.33943 0.47998 0.189941 2.6165 0.189941 5.24938V83.7106C0.189941 86.3435 2.34667 88.48 4.98829 88.48H53.3916C56.0405 88.48 58.1899 86.3363 58.1899 83.7106V5.24938C58.1899 2.6165 56.0405 0.47998 53.3916 0.47998H4.98829Z" fill="white"/>
<path d="M24.3554 49.5119C25.166 49.0803 25.9766 48.6487 26.7944 48.2171C30.3334 46.3323 33.9159 44.4188 36.6878 41.8435C38.5912 40.0739 40.0532 38.0381 41.5079 36.0166C42.4994 34.6355 43.4982 33.2543 44.4897 31.8659C44.7357 31.8443 44.6272 32.204 44.8732 32.1824C45.4667 33.7075 47.7971 34.1751 48.7597 35.5706C49.1939 36.2037 49.4328 36.9087 49.6427 37.6136C50.3736 40.0882 51.0467 46.9294 50.1493 57.1876C49.6065 63.3597 46.147 64.4388 44.6706 63.6187C43.5054 62.9713 40.0821 55.2525 38.6491 55.346C34.741 55.5978 30.7749 54.8424 27.2865 53.4109C26.3819 53.0368 25.4772 52.6052 24.8548 51.965C24.2251 51.3175 23.9574 50.2601 24.3554 49.5119Z" fill="#222272"/>
<path d="M10.1413 36.4699C9.309 37.5202 8.96885 38.7719 8.71554 40.002C8.00628 43.4046 8.33196 46.8503 8.67936 50.2889C9.76496 60.9499 10.9374 63.3094 12.5369 63.5108C16.8069 64.0576 19.0577 55.3604 23.3711 55.418C27.4241 55.4683 31.5928 55.8856 35.4285 54.8569C35.6022 54.303 35.0377 53.785 34.5094 53.3894C33.1705 52.3751 31.8099 51.3751 30.3045 50.5191C26.4615 48.3466 21.8875 47.4186 17.8418 44.239C13.5284 40.8436 11.748 36.995 10.1413 36.4699Z" fill="#222272"/>
<path d="M34.4442 39.4984C33.6336 39.93 32.8231 40.3617 32.0125 40.7933C28.4734 42.678 24.8909 44.5915 22.119 47.1669C20.2156 48.9365 18.7537 50.9723 17.299 52.9937C16.3075 54.3749 15.3087 55.7561 14.3172 57.1445C14.0711 57.166 14.1797 56.8064 13.9336 56.8279C13.3402 55.3029 11.0097 54.8353 10.0472 53.4397C9.61293 52.8067 9.3741 52.1017 9.16422 51.3967C8.43325 48.9149 7.85426 41.5918 8.75169 31.3408C9.29449 25.1687 13.5718 25.1615 14.1435 25.3917C16.7634 26.4851 18.732 33.7579 20.165 33.6644C24.0731 33.4126 28.0392 34.1679 31.5276 35.5995C32.4323 35.9735 33.3369 36.4051 33.9593 37.0454C34.5745 37.6856 34.8423 38.7503 34.4442 39.4984Z" fill="#222272"/>
<path d="M48.6584 52.5333C49.4907 51.483 49.8309 50.2313 50.0842 49.0012C50.7934 45.5986 50.4677 42.1528 50.1203 38.7143C49.0347 28.0533 49.0709 25.3485 46.2122 25.2046C41.298 24.96 39.742 33.6355 35.4286 33.578C31.3829 33.5276 27.2069 33.1104 23.3712 34.1391C23.1975 34.693 23.762 35.2109 24.2903 35.6066C25.6292 36.6209 26.9898 37.6208 28.4952 38.4769C32.3382 40.6494 36.9122 41.5773 40.9579 44.7569C45.2713 48.1667 47.0517 52.0153 48.6584 52.5333Z" fill="#222272"/>
<path d="M29.8485 24.6579C30.3623 24.5572 30.8979 24.478 31.4045 24.5931C31.9545 24.7226 32.3815 25.0607 32.7434 25.4132C33.1632 25.8232 33.5178 26.2693 33.8073 26.744C33.952 26.9814 34.0823 27.2332 34.3139 27.4202C34.6324 27.672 35.0811 27.7655 35.5081 27.8662C37.8313 28.3842 40.0748 29.1323 42.1737 30.0747C43.252 30.5639 44.3376 31.1322 44.989 31.9738C45.0831 32.0961 45.1699 32.2328 45.1771 32.3767C45.1989 32.7579 44.6922 32.9953 44.2725 33.1752C39.1484 35.3261 36.391 39.9228 31.7881 42.7283C30.5071 43.5125 28.7918 44.1599 27.3226 43.6204C26.7654 43.4117 26.3167 43.0592 25.8824 42.7068C23.7184 40.9587 21.5545 39.2106 19.3905 37.4554C18.6596 36.8655 17.9213 36.2684 17.0529 35.808C15.8804 35.1894 14.4836 34.8153 13.4993 34.0096C13.1881 33.7578 12.7611 33.4413 12.3775 33.614C12.2617 33.3694 12.4716 33.1032 12.6743 32.8946C15.0192 30.5351 18.826 29.2834 22.5967 29.1755C23.0164 29.1611 23.4724 29.1539 23.8053 28.9525C24.5435 28.5065 24.1527 27.5425 24.5363 26.8663C24.7606 26.4635 25.2455 26.1973 25.7232 25.9743C27.0259 25.3844 28.4155 24.9384 29.8485 24.6579Z" fill="#FCC07E"/>
<path d="M10.8433 46.8647C10.9302 46.9367 11.0242 47.0086 11.0532 47.1093C11.1039 47.2748 10.9808 47.4402 10.9012 47.5985C10.5683 48.2171 10.8578 49.0372 11.4295 49.4401C12.0013 49.8501 12.7684 49.8933 13.4488 49.7206C14.1291 49.548 14.7442 49.1883 15.3449 48.8214C17.7839 47.3395 20.1795 45.7857 22.5244 44.1671C22.6546 44.0808 22.7994 43.9585 22.7922 43.8002C22.7849 43.6708 22.6764 43.5772 22.575 43.4981C19.5136 41.0019 16.3654 38.4482 12.6092 37.1965C11.9579 36.9807 11.1256 36.8512 10.6769 37.3691C10.4597 37.6209 10.4018 37.9662 10.3874 38.2971C10.3584 38.9517 10.4887 39.6135 10.7565 40.2178C9.7939 41.0379 9.21492 42.2968 9.22939 43.5628C9.2511 44.8217 9.85904 46.0662 10.8433 46.8647Z" fill="#F70032"/>
<path d="M48.2821 46.8647C48.1953 46.9367 48.1012 47.0086 48.0722 47.1093C48.0216 47.2748 48.1446 47.4402 48.2242 47.5985C48.5571 48.2171 48.2676 49.0372 47.6959 49.4401C47.1241 49.8501 46.357 49.8933 45.6767 49.7206C44.9964 49.548 44.3812 49.1883 43.7805 48.8214C41.3415 47.3395 38.9459 45.7857 36.601 44.1671C36.4708 44.0808 36.326 43.9585 36.3333 43.8002C36.3405 43.6708 36.4491 43.5772 36.5431 43.4981C39.6045 41.0019 42.7528 38.4482 46.509 37.1965C47.1603 36.9807 47.9926 36.8512 48.4413 37.3691C48.6584 37.6209 48.7163 37.9662 48.7308 38.2971C48.7598 38.9517 48.6295 39.6135 48.3617 40.2178C49.3315 41.0379 49.9033 42.2968 49.8888 43.5628C49.8743 44.8217 49.2664 46.0662 48.2821 46.8647Z" fill="#F70032"/>
<path d="M28.43 43.3182C28.3649 43.3542 28.2925 43.3901 28.2129 43.3973C28.1188 43.3973 28.032 43.3542 27.9596 43.311C26.4615 42.419 25.3107 41.1529 24.7173 39.7358C27.0405 39.7429 29.3637 39.2322 31.6579 39.5271C30.9776 40.4048 30.2973 41.2824 29.617 42.1528C29.284 42.5772 28.9366 43.0161 28.43 43.3182Z" fill="#990028"/>
<path d="M9.88082 35.9375C9.64199 35.3045 9.90977 34.6283 10.3006 34.0168C10.8434 33.168 11.8783 32.3551 13.4199 32.0817C14.0133 31.981 14.643 31.9666 15.2582 31.981C17.7695 32.0601 20.1289 32.7004 21.8658 33.7147C24.5437 35.2685 25.2529 36.2684 26.9971 38.3114C27.1708 38.5129 27.4893 38.8366 27.8222 39.074C27.9669 39.1747 28.2492 39.1603 28.336 39.038C28.9874 38.1747 29.7184 37.2827 30.6592 36.5202C32.9462 34.6642 36.4997 32.9306 40.0605 31.8659C43.491 30.8372 45.2063 31.348 45.9083 31.5638C47.6452 32.0889 48.8901 33.7363 48.6802 34.9088C48.6078 35.2973 47.8045 36.7216 47.5511 37.0813C46.509 38.5776 45.3293 39.4049 43.2594 40.9875C42.0942 41.8723 39.9085 42.9873 39.0183 43.4333C36.2681 44.7929 32.0488 45.8 28.4012 45.541C24.7535 45.2821 22.1264 44.4188 19.4775 42.9945C18.7031 42.5773 16.4306 41.2249 15.7358 40.7717C14.3101 39.8293 10.4743 37.5057 9.88082 35.9375Z" fill="#141247"/>
<path d="M11.2703 41.2392C10.7564 42.6708 10.59 45.131 11.7045 46.3611C11.8565 46.5266 12.0953 46.5266 12.2835 46.433C12.8408 46.1741 12.2401 45.3468 12.1315 45.0159C11.7914 43.9297 11.5598 42.5197 11.842 41.4047C11.9434 41.0162 11.3933 40.8795 11.2703 41.2392Z" fill="#990028"/>
<path d="M13.0362 42.9801C12.6671 43.8218 12.7539 45.3109 13.5138 45.9295C13.8612 46.2173 14.3968 45.8576 14.1579 45.4332C13.7744 44.7426 13.3546 43.9009 13.427 43.0808C13.4487 42.8866 13.123 42.7931 13.0362 42.9801Z" fill="#990028"/>
<path d="M15.0193 44.462C15.0845 44.9511 15.1134 45.7137 15.6273 45.9726C15.895 46.1093 16.2207 45.8863 16.1339 45.5842C16.0687 45.3396 15.8661 45.1598 15.7213 44.9583C15.5766 44.7569 15.4463 44.5483 15.345 44.3181C15.2654 44.1239 14.9976 44.2821 15.0193 44.462Z" fill="#990028"/>
<path d="M47.2615 41.4407C47.551 42.5845 47.2615 43.8937 46.972 45.0159C46.8852 45.354 46.2628 46.1597 46.8273 46.4187C47.0155 46.505 47.2471 46.5122 47.399 46.3467C48.5064 45.131 48.3399 42.6995 47.8333 41.2824C47.703 40.9299 47.1602 41.0738 47.2615 41.4407Z" fill="#990028"/>
<path d="M45.4667 43.6851C45.5391 44.498 45.1265 45.3324 44.743 46.0158C44.5114 46.4331 45.0325 46.7928 45.3798 46.505C46.1253 45.8864 46.2194 44.4116 45.8503 43.5844C45.7707 43.3901 45.445 43.4837 45.4667 43.6851Z" fill="#990028"/>
<path d="M43.6212 44.8577C43.5271 45.0879 43.3896 45.2821 43.2521 45.4907C43.1146 45.6921 42.9119 45.872 42.8468 46.1094C42.7672 46.4115 43.0856 46.6273 43.3462 46.4906C43.8528 46.2317 43.8817 45.4763 43.9541 44.9944C43.9686 44.8145 43.708 44.6491 43.6212 44.8577Z" fill="#990028"/>
<path d="M29.3637 49.3753C31.1947 49.3753 32.729 47.8575 32.729 46.0303C32.729 44.2031 31.2019 42.6852 29.3637 42.6852C27.5254 42.6852 25.9983 44.2031 25.9983 46.0303C25.9983 47.8575 27.5254 49.3753 29.3637 49.3753Z" fill="#990028"/>
<path d="M29.3998 46.6921C30.4565 46.6921 30.4565 45.0592 29.3998 45.0592C28.336 45.0592 28.336 46.6921 29.3998 46.6921Z" fill="#0C0A35"/>
<path d="M27.3517 44.7067C27.3517 44.6995 27.3589 44.6923 27.3589 44.6923C27.4603 44.4981 27.3734 44.2535 27.1563 44.1959C26.9464 44.1384 26.7221 44.3038 26.7293 44.5196C26.7293 44.5268 26.7293 44.534 26.7293 44.5412C26.7365 44.8577 27.1925 45.0088 27.3517 44.7067Z" fill="#F70032"/>
<path d="M28.0755 45.5411C28.5748 45.5411 28.5748 44.7714 28.0755 44.7714C27.5761 44.7786 27.5761 45.5411 28.0755 45.5411Z" fill="#F70032"/>
<path d="M30.5723 45.5196C31.0355 45.5196 31.0355 44.8074 30.5723 44.8074C30.1164 44.8074 30.1164 45.5196 30.5723 45.5196Z" fill="#F70032"/>
<path d="M31.4191 44.8505C31.9329 44.8505 31.9329 44.0592 31.4191 44.0592C30.9052 44.0664 30.9052 44.8505 31.4191 44.8505Z" fill="#F70032"/>
<path d="M28.3722 47.3899C28.5966 47.3899 28.7848 47.2029 28.7848 46.9799C28.7848 46.7569 28.5966 46.5698 28.3722 46.5698C28.1479 46.5698 27.9597 46.7569 27.9597 46.9799C27.967 47.2029 28.1479 47.3899 28.3722 47.3899Z" fill="#F70032"/>
<path d="M27.4746 48.2459C27.9378 48.2459 27.9378 47.5266 27.4746 47.5266C27.0042 47.5266 27.0042 48.2459 27.4746 48.2459Z" fill="#F70032"/>
<path d="M30.6881 47.3899C30.6954 47.3827 30.7026 47.3827 30.7171 47.3755C30.9414 47.246 30.9414 46.9007 30.7171 46.7712C30.7098 46.764 30.7026 46.764 30.6881 46.7568C30.4493 46.6202 30.1309 46.7928 30.1309 47.0734C30.1309 47.3539 30.4493 47.5266 30.6881 47.3899Z" fill="#F70032"/>
<path d="M31.5204 47.6705C31.5059 47.6633 31.4987 47.6561 31.4842 47.6489C31.3033 47.5266 31.0645 47.6921 31.0645 47.8863C31.0645 48.0877 31.3105 48.246 31.4842 48.1237C31.4987 48.1165 31.5059 48.1093 31.5204 48.1021C31.6796 47.9942 31.6796 47.7784 31.5204 47.6705Z" fill="#F70032"/>
<path d="M23.9429 44.4764C24.5653 44.4764 24.5653 43.7067 23.9429 43.7067C23.3205 43.6995 23.3205 44.4764 23.9429 44.4764Z" fill="#990028"/>
<path d="M24.9996 45.5267C25.6655 45.5267 25.6655 44.6994 24.9996 44.6994C24.3338 44.6994 24.3338 45.5267 24.9996 45.5267Z" fill="#990028"/>
<path d="M33.3803 46.0087C33.9014 46.0087 33.9014 45.3612 33.3803 45.3612C32.8592 45.3612 32.8592 46.0087 33.3803 46.0087Z" fill="#990028"/>
<path d="M34.6903 45.2461C35.1101 45.2461 35.1101 44.7282 34.6903 44.7282C34.2705 44.7282 34.2705 45.2461 34.6903 45.2461Z" fill="#990028"/>
<path d="M35.7832 44.5987C36.3549 44.5987 36.3549 43.8937 35.7832 43.8937C35.2114 43.8937 35.2114 44.5987 35.7832 44.5987Z" fill="#990028"/>
<path d="M28.9511 64.3525C28.4372 64.4532 27.8944 64.5323 27.395 64.4172C26.845 64.2949 26.418 63.9568 26.0561 63.5971C25.6364 63.1871 25.2817 62.7411 24.9922 62.2663C24.8475 62.0289 24.7172 61.7771 24.4856 61.5901C24.1672 61.3383 23.7185 61.2448 23.2915 61.1441C20.9683 60.6261 18.7247 59.878 16.6259 58.9356C15.5475 58.4465 14.4619 57.8782 13.8105 57.0365C13.7165 56.9142 13.6296 56.7775 13.6224 56.6337C13.6079 56.2524 14.1073 56.015 14.527 55.8352C19.6511 53.6843 22.4085 49.0875 27.0114 46.282C28.2925 45.4979 30.0077 44.8433 31.4769 45.3828C32.0342 45.5914 32.4829 45.9439 32.9171 46.2964C35.0811 48.0444 37.245 49.7997 39.409 51.5478C40.14 52.1376 40.8782 52.7347 41.7467 53.1951C42.9191 53.8209 44.3159 54.1878 45.3002 54.9935C45.6114 55.2453 46.0384 55.5618 46.422 55.3892C46.5378 55.6409 46.3279 55.8999 46.1252 56.1085C43.7804 58.4681 39.9735 59.7197 36.2029 59.8277C35.7831 59.842 35.3271 59.8492 34.9942 60.0507C34.256 60.4967 34.6468 61.4606 34.2633 62.1368C34.0389 62.5397 33.554 62.8058 33.0763 63.0288C31.7736 63.6187 30.3913 64.0719 28.9511 64.3525Z" fill="#FCC07E"/>
<path d="M30.3697 45.6921C30.4348 45.6562 30.5072 45.613 30.5868 45.613C30.6809 45.613 30.7678 45.6561 30.8401 45.6993C32.3383 46.5913 33.489 47.8574 34.0824 49.2746C31.7593 49.2674 29.4361 49.7781 27.1418 49.4832C27.8222 48.6056 28.5025 47.7279 29.1828 46.8575C29.5157 46.4259 29.8631 45.9943 30.3697 45.6921Z" fill="#990028"/>
<path d="M46.0167 45.0519C46.3858 44.2175 46.2917 42.75 45.5462 42.1313C45.1988 41.8436 44.6705 42.2032 44.9094 42.6205C45.2929 43.3039 45.7055 44.1383 45.6331 44.9512C45.6114 45.1526 45.9371 45.239 46.0167 45.0519Z" fill="#990028"/>
<path d="M44.0482 43.5844C43.983 43.0952 43.9541 42.3399 43.4402 42.0881C43.1797 41.9586 42.854 42.1673 42.9408 42.4694C43.006 42.7068 43.2086 42.8938 43.3461 43.088C43.4909 43.2895 43.6212 43.4909 43.7152 43.7211C43.8093 43.9225 44.0771 43.7642 44.0482 43.5844Z" fill="#990028"/>
<path d="M48.919 53.0224C49.1578 53.7202 48.89 54.454 48.4992 55.123C47.9564 56.051 46.9215 56.9502 45.3799 57.2379C44.7864 57.353 44.1568 57.3674 43.5416 57.3458C41.0303 57.2595 38.6709 56.5545 36.9339 55.4467C34.2561 53.7418 33.5469 52.6412 31.8027 50.4111C31.629 50.1881 31.3105 49.8357 30.9848 49.5767C30.8401 49.4616 30.5578 49.4832 30.471 49.6126C29.8196 50.5622 29.0887 51.5334 28.1478 52.375C25.8608 54.4108 22.3073 56.3028 18.7465 57.4753C15.316 58.6047 13.6008 58.0436 12.8987 57.8134C11.1618 57.2379 9.91696 55.4323 10.1268 54.1518C10.1992 53.7274 11.0026 52.1664 11.2559 51.7707C12.298 50.1306 13.4777 49.2242 15.5476 47.4905C16.7128 46.5194 18.8985 45.2965 19.7887 44.8145C22.5389 43.3254 26.7582 42.2248 30.4059 42.5053C34.0535 42.7859 36.6806 43.7354 39.3295 45.2965C40.1039 45.7497 42.3764 47.2315 43.0712 47.7351C44.4897 48.7638 48.3255 51.3104 48.919 53.0224Z" fill="#141247"/>
<path d="M49.2011 34.0672C49.3531 34.283 49.3893 34.729 49.107 35.0887C48.9695 35.2613 48.8609 35.4412 48.6872 35.5779C44.0481 39.3545 40.0169 40.671 34.1619 44.4692C32.6131 45.4763 30.5215 46.6849 28.9293 47.62C27.1851 48.6343 25.5422 49.8285 23.8487 50.9147C21.3084 52.6268 18.7681 54.3389 16.2206 56.051C15.229 56.7416 14.1651 57.3746 13.2967 58.2235C13.0144 58.4969 12.6887 58.8206 12.2979 58.7558C12.0663 58.7199 11.8854 58.5472 11.7189 58.3818C10.7564 57.4034 10.4307 56.4467 10.105 54.2526C10.0616 53.972 10.0543 53.7347 10.2932 53.5189C16.3291 48.1308 22.4302 44.4692 29.378 40.225C30.6807 39.4265 31.9979 38.6496 33.3079 37.8726C37.0134 35.6786 40.2992 33.9593 44.0047 31.7652C44.381 31.5422 44.7935 31.3048 45.235 31.3552C45.6186 31.3912 46.1035 31.3696 46.82 31.794C47.8911 32.4198 48.3254 32.8443 49.2011 34.0672Z" fill="#F70032"/>
<path d="M29.5807 40.2754C27.7496 40.2754 26.2153 41.7932 26.2153 43.6204C26.2153 45.4404 27.7424 46.9655 29.5807 46.9655C31.419 46.9655 32.9461 45.4476 32.9461 43.6204C32.9461 41.7932 31.4117 40.2754 29.5807 40.2754Z" fill="#990028"/>
<path d="M29.5444 42.9513C28.4878 42.9513 28.4878 44.5843 29.5444 44.5843C30.6083 44.5843 30.6083 42.9513 29.5444 42.9513Z" fill="#0C0A35"/>
<path d="M31.5855 44.944C31.5855 44.9512 31.5783 44.9584 31.5783 44.9584C31.4769 45.1526 31.5638 45.3972 31.7809 45.4548C31.9908 45.5123 32.2151 45.3469 32.2079 45.1311C32.2079 45.1239 32.2079 45.1167 32.2079 45.1095C32.2007 44.793 31.752 44.6347 31.5855 44.944Z" fill="#F70032"/>
<path d="M30.8689 44.1023C30.3695 44.1023 30.3695 44.8648 30.8689 44.8648C31.3683 44.872 31.3683 44.1023 30.8689 44.1023Z" fill="#F70032"/>
<path d="M28.3648 44.1311C27.9017 44.1311 27.9017 44.8433 28.3648 44.8433C28.828 44.8433 28.828 44.1311 28.3648 44.1311Z" fill="#F70032"/>
<path d="M27.5253 44.7929C27.0114 44.7929 27.0114 45.5842 27.5253 45.5842C28.0391 45.5842 28.0391 44.7929 27.5253 44.7929Z" fill="#F70032"/>
<path d="M30.565 42.2608C30.3406 42.2608 30.1525 42.4478 30.1525 42.6708C30.1525 42.8938 30.3406 43.0808 30.565 43.0808C30.7894 43.0808 30.9775 42.8938 30.9775 42.6708C30.9775 42.4478 30.7894 42.2608 30.565 42.2608Z" fill="#F70032"/>
<path d="M31.4697 41.4047C31.0065 41.4047 31.0065 42.124 31.4697 42.124C31.9329 42.124 31.9329 41.4047 31.4697 41.4047Z" fill="#F70032"/>
<path d="M28.2563 42.2607C28.2491 42.2679 28.2346 42.2679 28.2274 42.2751C28.003 42.4046 28.003 42.7499 28.2274 42.8794C28.2346 42.8866 28.2418 42.8866 28.2563 42.8938C28.4951 43.0305 28.8136 42.8578 28.8136 42.5773C28.8063 42.2967 28.4951 42.1241 28.2563 42.2607Z" fill="#F70032"/>
<path d="M27.4239 41.9802C27.4384 41.9874 27.4456 41.9946 27.4601 42.0018C27.641 42.1241 27.8799 41.9586 27.8799 41.7644C27.8799 41.563 27.6338 41.4047 27.4601 41.527C27.4456 41.5342 27.4384 41.5414 27.4239 41.5486C27.2575 41.6565 27.2575 41.8723 27.4239 41.9802Z" fill="#F70032"/>
<path d="M13.5936 44.3613C13.5212 43.5412 13.9337 42.6996 14.3245 42.009C14.5634 41.5846 14.0278 41.2249 13.6804 41.5126C12.9277 42.1385 12.8336 43.6276 13.2027 44.462C13.2824 44.6563 13.6153 44.5627 13.5936 44.3613Z" fill="#990028"/>
<path d="M15.4607 43.1816C15.562 42.9514 15.6923 42.7499 15.837 42.5413C15.9818 42.3327 16.1844 42.1601 16.2495 41.9155C16.3364 41.6133 16.0107 41.3975 15.7429 41.527C15.2291 41.786 15.2001 42.5485 15.135 43.0377C15.106 43.2247 15.3738 43.383 15.4607 43.1816Z" fill="#990028"/>
<path d="M28.1984 61.4894C28.2129 61.1441 28.2056 60.7988 28.1694 60.4535C30.0294 60.1874 31.9184 60.1226 33.7928 60.2737C33.7349 60.5111 33.6553 60.7413 33.5612 60.9643C33.5468 61.0002 33.5251 61.0434 33.4961 61.0722C33.4455 61.1225 33.3658 61.1297 33.2935 61.1297C31.5927 61.252 29.8919 61.3671 28.1984 61.4894Z" fill="#222272"/>
<path d="M31.3683 56.2452C30.992 56.2956 30.6084 56.31 30.2248 56.2812C30.2682 56.7992 30.3189 57.2739 30.5071 57.7559C30.3406 57.612 30.2899 57.5473 30.0801 57.4825C29.8702 57.4178 29.6096 57.4538 29.4721 57.6336C29.3853 57.7559 29.3491 57.9214 29.3853 58.0652C29.559 58.7055 30.4636 59.6838 30.8979 60.2089C31.2525 59.6766 31.6071 59.1443 31.9545 58.6119C32.0631 58.4537 32.1716 58.3026 32.2585 58.1444C32.4539 57.7919 32.3092 57.4466 31.8243 57.3603C31.6723 57.3315 31.513 57.4106 31.39 57.4897C31.2597 57.5689 31.1946 57.6768 31.115 57.7056C31.0716 57.7199 31.2091 57.4322 31.2453 57.2308C31.3104 56.9142 31.4624 56.3819 31.3683 56.2452Z" fill="#0C0A35"/>
<path d="M36.8182 78.4377C37.028 77.4449 37.1655 76.4378 37.2379 75.4235C37.2741 74.848 37.2958 74.2725 37.2234 73.7042C37.1655 73.1935 37.0353 72.6971 36.9629 72.1936C36.8109 71.1505 36.8833 70.0858 36.9412 69.0355C37.1438 65.3164 37.1583 61.5829 36.9846 57.8566C36.9412 56.9718 36.9919 56.087 37.1004 55.2021C37.2162 54.2454 37.2958 53.267 37.6215 52.3534C37.9327 51.483 38.461 50.2673 39.2933 50.2026C39.3223 50.1738 39.344 50.145 39.3657 50.1162C39.3729 49.9723 38.9532 49.8573 38.6926 49.886C35.6385 50.1594 34.6976 51.6125 34.1548 53.5404C33.4673 55.9431 33.2429 57.4969 33.0403 59.4824C32.8231 61.6692 32.6712 63.8633 32.8593 66.0502C33.0186 67.9637 33.4311 69.8412 33.8436 71.7188C34.0101 72.4885 34.1838 73.2582 34.3502 74.0279C34.5673 75.0279 34.7917 76.0278 35.1463 76.9917C35.4141 77.7111 35.9569 78.5312 36.7168 78.4305C36.7458 78.3369 36.7747 78.2506 36.8037 78.1571L36.8182 78.4377Z" fill="#0C0A35"/>
<path d="M23.3132 61.4175C23.1974 62.4965 22.9948 63.5612 22.8717 64.6402C22.7053 66.1293 22.6908 67.64 22.6908 69.1363C22.6908 70.3016 22.7053 71.4742 22.727 72.6396C22.7415 73.3158 22.7559 73.9992 22.879 74.661C23.2987 76.963 25.0357 78.9844 27.2648 79.7469C27.9379 79.9771 28.8353 80.0203 29.2116 79.416C29.5518 78.8693 29.2189 78.1715 29.0452 77.5528C28.8715 76.9342 28.8642 76.2868 28.8498 75.6465C28.7629 67.7479 29.0307 59.8061 27.8944 51.9938C27.7425 50.9363 27.5398 49.8357 26.8812 48.994C26.3674 48.3394 25.6147 47.9006 24.8258 47.6344C23.704 47.2532 22.4737 47.1884 21.3085 47.4474C22.2131 48.4905 22.4592 49.9292 22.6619 51.2888C23.1685 54.6411 23.6751 58.0437 23.3132 61.4175Z" fill="#0C0A35"/>
<path d="M40.1472 49.7206C38.005 49.994 36.7963 51.2097 35.9858 53.152C35.4285 54.4828 35.3706 56.0007 35.3127 57.4178C35.2331 59.3961 35.2475 61.4319 35.3851 63.4029C35.3923 63.554 35.6094 63.554 35.6239 63.4029C35.9134 58.9932 34.1185 51.1162 40.1762 49.9148C40.2847 49.8932 40.263 49.7062 40.1472 49.7206Z" fill="#F70032"/>
<path d="M38.157 49.5695C36.2391 49.3177 34.8713 52.0369 34.3502 53.5044C34.1258 54.1375 34.1982 54.9144 34.1548 55.5762C34.1041 56.2884 33.9377 56.9862 33.8798 57.6983C33.7422 59.3889 33.5975 61.216 33.6482 62.9066C33.6482 62.9857 33.7784 63.0145 33.7929 62.9281C34.1475 60.6334 34.0896 58.2954 34.3574 55.9934C34.5239 54.5619 34.6252 53.3894 35.3489 52.1017C35.9931 50.9507 36.8181 49.9724 38.157 49.6702C38.2294 49.6558 38.2077 49.5767 38.157 49.5695Z" fill="#F70032"/>
<path d="M27.0043 69.2298C27.7208 67.6328 27.5833 65.4172 27.7787 63.6907C28.0682 61.1513 27.9162 58.5256 27.7497 55.9791C27.5398 52.8786 26.874 47.4618 23.3349 46.3108C23.2915 46.2964 23.2698 46.3612 23.306 46.3827C26.7582 48.7566 27.2576 53.2383 27.4747 57.0941C27.5833 59.1083 27.6701 61.1513 27.5181 63.1655C27.4385 64.2086 27.2938 65.2517 27.178 66.2948C27.0839 67.1868 27.1924 68.3378 26.9464 69.201C26.9247 69.237 26.9898 69.2658 27.0043 69.2298Z" fill="#F70032"/>
<path d="M25.7957 68.5104C26.5845 66.4243 26.6714 63.7626 26.7003 61.5542C26.7293 59.1874 26.5411 56.8135 26.1865 54.4756C25.7088 51.3535 24.5508 47.3898 20.8887 46.9222C20.7947 46.9079 20.7512 47.0661 20.8381 47.1021C22.5823 47.9078 23.8416 48.9437 24.5798 50.7421C25.2311 52.3319 25.5858 54.1519 25.8029 55.8352C26.3529 60.137 25.9549 64.187 25.5858 68.4744C25.5785 68.6111 25.7595 68.6183 25.7957 68.5104Z" fill="#F70032"/>
<path d="M24.2106 67.7263C25.1081 67.5321 25.0646 66.0358 25.137 65.3308C25.4193 62.662 25.3324 60.0507 25.014 57.389C24.5146 53.1879 23.3422 49.1451 19.6077 46.7208C19.4702 46.6345 19.3471 46.8 19.405 46.9223C19.6801 47.4834 20.0926 47.8287 20.5775 48.2243C21.3591 48.8646 21.9888 49.5983 22.5316 50.44C23.6534 52.1736 24.0587 54.4109 24.4205 56.4035C24.7969 58.4681 24.8837 60.5614 24.8548 62.6548C24.8403 63.6116 24.7462 64.5539 24.6594 65.5035C24.5942 66.1941 24.6738 67.0789 24.1383 67.6112C24.1021 67.6688 24.1455 67.7407 24.2106 67.7263Z" fill="#F70032"/>
<path d="M23.6317 66.0143C24.3916 62.475 24.3337 58.3458 22.5606 55.0799C22.5244 55.0152 22.4158 55.0583 22.4448 55.1303C23.7909 58.5041 23.6028 62.439 23.4797 65.9999C23.4725 66.079 23.61 66.1006 23.6317 66.0143Z" fill="#F70032"/>
<path d="M28.0103 78.5024C28.582 79.0778 29.1827 79.6749 29.9499 79.9483C30.3045 80.0778 30.6881 80.1281 31.0644 80.1785C32.7146 80.4015 34.4588 80.6029 35.9931 79.9555C36.1595 79.8835 36.3332 79.7972 36.4635 79.6677C36.6082 79.5239 36.7023 79.3368 36.7747 79.1426C37.3899 77.56 36.9991 75.7688 36.3622 74.1934C36.2826 73.9991 36.203 73.7977 36.1885 73.5891C36.174 73.2222 36.3839 72.8913 36.5793 72.5892C37.7662 70.7404 38.8663 68.7549 39.1558 66.5825C39.1703 66.4674 39.1124 66.3451 38.9966 66.3091C38.6781 66.2012 38.2801 66.3379 37.9544 66.4817C37.3682 66.7407 36.7747 66.9997 36.1885 67.2515C36.1233 65.3883 35.7977 63.5324 35.2187 61.7627C35.1246 61.4822 35.016 61.18 34.7917 60.9858C34.3502 60.6045 33.6626 60.7628 33.1343 61.0146C32.2658 61.4318 31.5059 62.0433 30.7605 62.6475C30.2539 63.0576 29.7472 63.4748 29.342 63.9784C28.8932 64.5395 28.5965 65.2085 28.3287 65.8703C27.026 69.1722 26.5266 72.7834 26.8885 76.3155C26.9175 76.6248 26.9609 76.9341 27.0694 77.2219C27.2576 77.7326 27.6412 78.1211 28.0103 78.5024Z" fill="#FFD6A1"/>
<path d="M33.8435 65.6186C34.1764 65.5898 35.6456 65.6617 36.0509 65.8344C36.3259 65.9567 36.4996 65.7337 36.5647 65.633C36.6588 65.5035 36.5068 65.3308 36.3549 65.2949C36.2029 65.2589 36.1667 65.2517 36.0292 65.1726C36.1667 64.9999 36.3114 64.9352 36.3114 64.7122C36.3114 64.5539 36.1305 64.4388 35.964 64.4532C35.8048 64.4604 35.6601 64.5539 35.5226 64.6402C34.9436 65.0071 34.4949 65.3812 33.8435 65.6186Z" fill="#F70032"/>
<path d="M34.162 66.935C33.9955 66.6832 33.6771 66.7192 33.5106 66.8846C33.3441 67.0501 33.5034 67.381 33.735 67.3954C33.981 67.417 34.1764 67.1724 34.162 66.935Z" fill="#0C0A35"/>
<path d="M29.1104 73.9129C29.5446 73.6323 29.9861 73.3518 30.471 73.1576C31.752 72.6396 33.2935 72.8123 34.4298 73.6036C34.1692 74.1647 33.5758 74.5028 32.9823 74.6826C31.6651 75.0855 30.1236 74.8409 29.1104 73.9129Z" fill="white"/>
<path d="M31.5492 73.3805C31.2742 73.4381 31.0716 73.7258 31.115 73.9992C31.1584 74.2725 31.4334 74.4883 31.7157 74.4668C31.9039 74.4452 32.5118 74.3229 32.3598 73.7258C32.3092 73.5172 32.0559 73.4309 31.846 73.3877C31.7447 73.3661 31.6433 73.3589 31.5492 73.3805Z" fill="#0C0A35"/>
<path d="M29.1176 76.5529C29.711 77.0277 30.5072 77.1284 31.2671 77.1428C32.027 77.1644 32.7001 77.0565 33.4021 76.855C33.735 76.7615 34.5818 76.445 34.9581 76.1069C35.4141 75.6969 35.3489 75.5314 35.0739 75.0638C35.0232 74.9775 34.9147 74.92 34.8134 74.9415C34.5673 75.0063 34.3068 75.2365 34.1186 75.3731C33.0402 76.1501 30.9414 76.6033 29.3275 76.1357C29.0742 76.0637 28.9077 76.3875 29.1176 76.5529Z" fill="#0C0A35"/>
<path d="M29.5373 82.6819C29.7038 82.8186 29.8992 83.0272 29.7906 83.2215C29.7327 83.3222 29.74 83.4804 29.6242 83.5092C28.2563 83.8689 26.6424 83.761 25.3035 83.3006C23.9646 82.8402 22.7777 81.9122 22.1118 80.6677C21.5039 79.5311 21.3447 78.2219 21.2651 76.9342C20.9756 72.4022 23.002 68.0284 20.3531 62.8059C21.7717 62.885 23.0382 63.8489 24.0659 64.8273C25.0574 65.784 25.5713 65.9855 26.6858 67.3954C26.7944 67.5321 27.576 68.1148 27.5398 68.2802C27.4168 68.8773 27.2141 69.0428 27.0404 70.4887C26.8957 71.7188 27.0839 71.8699 27.0043 73.1072C26.8957 74.7977 27.2503 76.4522 27.3589 78.1427C27.3878 78.6103 27.4385 79.0779 27.5398 79.5383C27.8366 80.7684 28.5675 81.8834 29.5373 82.6819Z" fill="#222272"/>
<path d="M20.6209 62.0217C20.3965 61.921 20.1215 61.9426 19.9261 62.1008C19.7379 62.2519 19.6511 62.5253 19.7307 62.7555C19.832 63.036 20.1794 63.2015 20.4617 63.1008C20.6209 63.0432 20.7512 62.9137 20.8308 62.7627C20.9248 62.5828 20.9466 62.3454 20.8163 62.18C20.7656 62.108 20.6933 62.0577 20.6209 62.0217Z" fill="#F70032"/>
<path d="M26.9897 71.3015C26.693 73.5244 26.5265 75.7688 26.4903 78.0132C26.4759 78.7901 26.4831 79.5742 26.6496 80.3368C26.8015 81.0273 27.0766 81.6748 27.3443 82.3222C27.8437 83.5092 28.3503 84.6889 28.8497 85.8759C29.7471 84.5738 30.6229 83.2646 31.4696 81.9337C31.817 83.4156 32.4394 84.8328 33.3007 86.0917C33.7639 84.9407 34.3573 83.2214 34.8205 82.0704C35.4357 82.9768 36.1015 84.3292 37.0207 84.9335C37.3753 82.8761 37.8602 82.0488 37.701 79.3512C37.6865 79.0994 37.274 77.56 37.0279 77.6319C36.9628 78.0204 36.9049 78.416 36.7239 78.7685C36.6226 78.97 36.4923 79.1786 36.2824 79.2721C35.9785 79.4088 35.6021 79.2505 35.385 78.9915C35.1751 78.7326 35.081 78.3945 35.0014 78.0707C34.5744 78.934 33.706 79.5526 32.7506 79.7181C31.7953 79.8836 30.7821 79.5958 30.0366 78.9915C28.9221 78.0923 28.4661 76.6392 28.0681 75.2724C27.67 73.92 27.3878 72.6467 26.9897 71.3015Z" fill="#141247"/>
<path d="M37.1582 86.7535C37.1944 86.7319 37.2233 86.6888 37.245 86.6528C37.5562 86.0845 37.7661 85.4659 37.8674 84.8256C37.3246 84.876 36.7818 84.9335 36.2463 84.9839C36.1232 84.9983 37.1292 86.7751 37.1582 86.7535Z" fill="#F70032"/>
<path d="M33.1995 87.8973C33.2429 87.8757 33.2646 87.8398 33.2935 87.7966C33.6409 87.2499 33.887 86.6456 34.0318 86.0126C33.489 86.0342 32.9462 86.0486 32.4034 86.0701C32.2803 86.0773 33.1633 87.9117 33.1995 87.8973Z" fill="#F70032"/>
<path d="M28.553 87.624C28.5964 87.6096 28.6253 87.5737 28.6543 87.5377C29.0451 87.0197 29.3418 86.4371 29.5372 85.8184C28.9944 85.7968 28.4516 85.768 27.9088 85.7465C27.7858 85.7393 28.524 87.6384 28.553 87.624Z" fill="#F70032"/>
<path d="M36.3477 66.8559C36.1885 66.9494 36.0292 66.9997 35.87 67.1148C35.7036 67.2371 35.5371 67.3522 35.3706 67.4745C35.0522 67.7191 34.7844 68.0284 34.7627 68.4457C34.7482 68.719 34.893 69.0068 35.1318 69.1434C35.3851 69.2801 35.7398 69.1506 35.7542 68.8485C35.7542 68.791 35.718 68.7478 35.6601 68.7262C35.5009 68.6759 35.32 68.8125 35.2042 68.6615C35.0015 68.3953 35.2838 68.0644 35.4647 67.8845C35.6384 67.7047 35.8483 67.568 36.051 67.417C36.2536 67.2659 36.3187 67.1436 36.4345 66.935C36.4562 66.8846 36.3984 66.8271 36.3477 66.8559Z" fill="#0C0A35"/>
<path d="M30.5071 68.1292C28.2636 67.6184 26.8233 69.8269 26.9319 71.8411C26.9391 71.9059 27.0332 71.9274 27.0549 71.8555C27.2938 70.7765 27.5181 69.719 28.3504 68.9205C28.9004 68.3954 29.74 68.1795 30.4854 68.2731C30.5795 68.2875 30.594 68.1436 30.5071 68.1292Z" fill="#0C0A35"/>
<path d="M35.9786 80.3871C36.0582 80.7396 36.0727 81.128 36.0871 81.4877C36.1016 81.8042 36.022 82.0992 36.0871 82.4085C36.1812 82.8545 36.9556 82.761 36.8977 82.3006C36.8109 81.5812 36.5648 80.9698 36.297 80.3008C36.2174 80.1065 35.9279 80.1785 35.9786 80.3871Z" fill="#990028"/>
<path d="M33.3803 80.6821C33.156 81.4158 32.8592 82.1999 32.8882 82.9768C32.8954 83.2574 33.2935 83.4948 33.5034 83.2286C33.7422 82.9337 33.6988 82.6243 33.7133 82.2575C33.7422 81.7539 33.8508 81.2503 33.9014 80.7468C33.9376 80.4447 33.4599 80.4087 33.3803 80.6821Z" fill="#990028"/>
<path d="M29.7545 80.0922C29.3202 80.4375 29.2044 80.8691 28.9728 81.3511C28.7485 81.8187 28.43 82.2503 28.5458 82.7898C28.6616 83.3006 29.3275 83.1999 29.4867 82.7898C29.8124 81.9482 30.0729 81.1497 30.1236 80.2433C30.1308 80.0419 29.892 79.9843 29.7545 80.0922Z" fill="#990028"/>
<path d="M25.8318 82.2143C25.8391 82.1064 25.8246 82.0129 25.7812 81.9122C25.7088 81.7323 25.4555 81.8331 25.5351 82.0129C25.564 82.0776 25.5713 82.1424 25.564 82.2071C25.564 82.387 25.8246 82.387 25.8318 82.2143Z" fill="#F70032"/>
<path d="M23.8777 80.121C23.8995 79.9699 23.8995 79.8333 23.8488 79.6966C23.7619 79.4376 23.3784 79.5887 23.5014 79.8404C23.5376 79.9124 23.5448 79.9915 23.5376 80.0778C23.5376 80.2649 23.8488 80.3152 23.8777 80.121Z" fill="#F70032"/>
<path d="M25.5134 77.4305C25.5568 77.2938 25.5351 77.15 25.5134 77.0061C25.4699 76.7255 25.0285 76.8406 25.0791 77.1284C25.1008 77.2723 25.1442 77.3946 25.2383 77.5025C25.3252 77.6032 25.4772 77.5384 25.5134 77.4305Z" fill="#F70032"/>
<path d="M22.1553 77.2795C22.206 77.15 22.1698 76.9773 22.1481 76.8407C22.1191 76.6176 21.7645 76.7112 21.8007 76.9342C21.8224 77.0636 21.8513 77.2291 21.9454 77.3298C22.0178 77.4018 22.1191 77.3658 22.1553 77.2795Z" fill="#F70032"/>
<path d="M23.429 74.5603C23.4941 74.3877 23.4869 74.1575 23.3928 73.9992C23.3349 73.8985 23.1467 73.9345 23.1612 74.064C23.1757 74.215 23.2336 74.3445 23.1757 74.4956C23.1178 74.6538 23.3711 74.7186 23.429 74.5603Z" fill="#F70032"/>
<path d="M25.6944 73.2366C25.7161 73.0496 25.7885 72.8698 25.7233 72.6827C25.6654 72.5173 25.3687 72.4669 25.3325 72.6827C25.2963 72.9129 25.3615 73.1359 25.5135 73.3158C25.5858 73.3877 25.6872 73.323 25.6944 73.2366Z" fill="#F70032"/>
<path d="M23.9574 70.2081C24.0081 70.0283 24.0515 69.8484 24.0008 69.6686C23.9502 69.4815 23.6751 69.4815 23.6245 69.6686C23.5666 69.8844 23.6245 70.093 23.7692 70.2585C23.8271 70.3232 23.9429 70.28 23.9574 70.2081Z" fill="#F70032"/>
<path d="M26.7292 68.1292C26.7581 67.9709 26.7654 67.8414 26.7364 67.6832C26.7147 67.5681 26.57 67.5033 26.4686 67.5321C26.3456 67.5681 26.2949 67.6832 26.3167 67.7983C26.3384 67.9565 26.418 68.0788 26.5482 68.1795C26.5989 68.2227 26.7147 68.2227 26.7292 68.1292Z" fill="#F70032"/>
<path d="M22.054 71.6684C22.0684 71.5029 22.0902 71.3663 21.9961 71.2224C21.9671 71.172 21.9092 71.1792 21.873 71.2224C21.7717 71.3591 21.7645 71.5029 21.7428 71.6684C21.721 71.8698 22.0395 71.8698 22.054 71.6684Z" fill="#F70032"/>
<path d="M22.6329 66.1293C22.5822 65.9279 22.6691 65.7121 22.6039 65.525C22.546 65.374 22.3579 65.3812 22.3 65.525C22.2204 65.7337 22.3072 66.0358 22.4158 66.2228C22.4809 66.3379 22.6618 66.2588 22.6329 66.1293Z" fill="#F70032"/>
<path d="M32.2876 60.8707C32.2948 60.8707 32.302 60.8779 32.3093 60.8779C32.4613 60.9355 32.606 60.7628 32.5698 60.6261C32.5264 60.4823 32.3237 60.4175 32.2224 60.5326C32.2152 60.5398 32.2079 60.547 32.2079 60.5542C32.0994 60.6621 32.15 60.8132 32.2876 60.8707Z" fill="#F70032"/>
<path d="M31.5856 60.4679C31.2599 60.4679 31.2599 60.9643 31.5856 60.9643C31.904 60.9643 31.904 60.4679 31.5856 60.4679Z" fill="#F70032"/>
<path d="M30.8328 60.5038C30.5144 60.5038 30.5144 60.993 30.8328 60.993C31.1513 61.0002 31.1513 60.5038 30.8328 60.5038Z" fill="#F70032"/>
<path d="M29.9789 60.5758C29.6242 60.5758 29.6242 61.1297 29.9789 61.1297C30.3335 61.1297 30.3335 60.5758 29.9789 60.5758Z" fill="#F70032"/>
<path d="M29.19 60.6406C28.8716 60.6406 28.8716 61.1297 29.19 61.1297C29.5084 61.1297 29.5084 60.6406 29.19 60.6406Z" fill="#F70032"/>
<path d="M37.1438 78.6319C36.9267 78.6319 36.9267 78.97 37.1438 78.97C37.3609 78.9628 37.3609 78.6319 37.1438 78.6319Z" fill="#F70032"/>
<path d="M36.7167 79.2937C36.4779 79.2937 36.4779 79.6534 36.7167 79.6534C36.9556 79.6606 36.9556 79.2937 36.7167 79.2937Z" fill="#F70032"/>
<path d="M35.8773 79.5527C35.6023 79.5527 35.6023 79.9771 35.8773 79.9771C36.1523 79.9771 36.1523 79.5527 35.8773 79.5527Z" fill="#F70032"/>
<path d="M35.1246 79.3585C34.799 79.3585 34.799 79.862 35.1246 79.862C35.4503 79.8692 35.4503 79.3585 35.1246 79.3585Z" fill="#F70032"/>
<path d="M34.922 78.7254C34.6325 78.7254 34.6325 79.1714 34.922 79.1714C35.2114 79.1714 35.2114 78.7254 34.922 78.7254Z" fill="#F70032"/>
<path d="M34.3357 79.2649C34.0535 79.2649 34.0535 79.6966 34.3357 79.6966C34.618 79.6894 34.618 79.2649 34.3357 79.2649Z" fill="#F70032"/>
<path d="M33.6192 79.6174C33.2718 79.6174 33.2718 80.1497 33.6192 80.1497C33.9666 80.1497 33.9666 79.6174 33.6192 79.6174Z" fill="#F70032"/>
<path d="M32.8303 79.8476C32.5191 79.8476 32.5191 80.3224 32.8303 80.3224C33.1415 80.3296 33.1415 79.8476 32.8303 79.8476Z" fill="#F70032"/>
<path d="M31.9763 79.9771C31.6506 79.9771 31.6506 80.4735 31.9763 80.4735C32.302 80.4735 32.302 79.9771 31.9763 79.9771Z" fill="#F70032"/>
<path d="M31.1585 79.8189C30.8472 79.8189 30.8472 80.2936 31.1585 80.2936C31.4624 80.2936 31.4624 79.8189 31.1585 79.8189Z" fill="#F70032"/>
<path d="M30.3335 79.4808C29.9572 79.4808 29.9572 80.0563 30.3335 80.0563C30.7099 80.0563 30.7099 79.4808 30.3335 79.4808Z" fill="#F70032"/>
<path d="M29.6025 79.0995C29.2696 79.0995 29.2696 79.6174 29.6025 79.6174C29.9354 79.6174 29.9354 79.0995 29.6025 79.0995Z" fill="#F70032"/>
<path d="M28.9801 78.4809C28.6834 78.4809 28.6834 78.9341 28.9801 78.9341C29.2768 78.9412 29.2768 78.4809 28.9801 78.4809Z" fill="#F70032"/>
<path d="M28.5892 77.8693C28.3287 77.8693 28.3287 78.265 28.5892 78.265C28.8498 78.265 28.8498 77.8693 28.5892 77.8693Z" fill="#F70032"/>
<path d="M28.2636 77.0708C27.9886 77.0708 27.9886 77.4953 28.2636 77.4953C28.5387 77.4953 28.5387 77.0708 28.2636 77.0708Z" fill="#F70032"/>
<path d="M28.0103 76.3587C27.7208 76.3587 27.7208 76.8119 28.0103 76.8119C28.2998 76.8119 28.2998 76.3587 28.0103 76.3587Z" fill="#F70032"/>
<path d="M27.8004 75.5818C27.5543 75.5818 27.5543 75.9559 27.8004 75.9559C28.0465 75.9559 28.0465 75.5818 27.8004 75.5818Z" fill="#F70032"/>
<path d="M27.5832 74.8408C27.3733 74.8408 27.3733 75.1645 27.5832 75.1645C27.7858 75.1645 27.7858 74.8408 27.5832 74.8408Z" fill="#F70032"/>
<path d="M27.3082 73.8985C26.9825 73.8985 26.9825 74.4021 27.3082 74.4021C27.6339 74.4093 27.6339 73.8985 27.3082 73.8985Z" fill="#F70032"/>
<path d="M27.0694 73.2079C26.8089 73.2079 26.8089 73.6035 27.0694 73.6035C27.3227 73.6035 27.3227 73.2079 27.0694 73.2079Z" fill="#F70032"/>
<path d="M28.7412 74.1646C29.1754 74.1646 29.834 74.5459 30.2538 74.7041C30.8111 74.9271 31.3611 74.9991 31.9546 75.0134C32.9823 75.035 34.1041 74.6466 34.5962 73.7114C34.6903 73.5244 34.437 73.3805 34.3139 73.5459C33.3224 74.9559 31.542 74.7329 30.1308 74.2078C29.6386 74.0279 29.1971 73.7905 28.7195 74.0855C28.6833 74.107 28.6978 74.1646 28.7412 74.1646Z" fill="#141247"/>
<path d="M30.6013 27.5209C30.5796 27.8662 30.5941 28.2115 30.6302 28.5568C28.7703 28.823 26.8813 28.8805 25.0068 28.7367C25.0647 28.4993 25.1443 28.2691 25.2384 28.0461C25.2529 28.0101 25.2746 27.9669 25.3036 27.9382C25.3542 27.8878 25.4338 27.8806 25.5062 27.8806C27.207 27.7583 28.9078 27.6432 30.6013 27.5209Z" fill="#222272"/>
<path d="M27.4312 32.7651C27.8075 32.7148 28.1911 32.7004 28.5747 32.7292C28.5312 32.2112 28.4806 31.7364 28.2924 31.2545C28.4589 31.3983 28.5095 31.4631 28.7194 31.5278C28.9293 31.5926 29.1898 31.5566 29.3274 31.3767C29.4142 31.2544 29.4504 31.089 29.4142 30.9451C29.2405 30.3049 28.3358 29.3266 27.9016 28.8014C27.547 29.3338 27.1923 29.8661 26.8449 30.3984C26.7364 30.5567 26.6278 30.7077 26.541 30.866C26.3456 31.2185 26.4903 31.5638 26.9752 31.6501C27.1272 31.6789 27.2864 31.5998 27.4095 31.5206C27.5397 31.4415 27.6049 31.3336 27.6845 31.3048C27.7279 31.2904 27.5904 31.571 27.5542 31.7796C27.4891 32.0961 27.3371 32.6284 27.4312 32.7651Z" fill="#0C0A35"/>
<path d="M21.9816 10.5655C21.7717 11.5582 21.6342 12.5654 21.5618 13.5797C21.5256 14.1552 21.5039 14.7307 21.5763 15.299C21.6342 15.8097 21.7645 16.3061 21.8368 16.8168C21.9888 17.8599 21.9165 18.9246 21.8586 19.9748C21.6559 23.6939 21.6414 27.4275 21.8151 31.1538C21.8586 32.0386 21.8079 32.9234 21.6993 33.8082C21.5835 34.765 21.5039 35.7433 21.1782 36.6569C20.867 37.5202 20.3387 38.7431 19.5064 38.8078C19.4775 38.8366 19.4558 38.8654 19.4341 38.8941C19.4268 39.038 19.8466 39.1531 20.1144 39.1243C23.1685 38.851 24.1094 37.3979 24.6522 35.47C25.3397 33.0673 25.5641 31.5135 25.7667 29.528C25.9838 27.3411 26.1358 25.1471 25.9477 22.9602C25.7884 21.0467 25.3759 19.1691 24.9561 17.2916C24.7897 16.5219 24.616 15.7522 24.4495 14.9824C24.2324 13.9825 24.008 12.9826 23.6534 12.0186C23.3929 11.2993 22.8428 10.4792 22.0829 10.5799C22.054 10.6734 22.025 10.7669 21.9961 10.8533L21.9816 10.5655Z" fill="#0C0A35"/>
<path d="M35.4865 27.5929C35.6022 26.5138 35.8049 25.4491 35.9279 24.3701C36.1016 22.881 36.1089 21.3703 36.1089 19.8741C36.1089 18.7087 36.0944 17.5361 36.0727 16.3708C36.0582 15.6946 36.0437 15.0112 35.9207 14.3421C35.5009 12.0402 33.764 10.0188 31.5349 9.26342C30.8618 9.03323 29.9644 8.99006 29.588 9.59433C29.2479 10.141 29.5808 10.8388 29.7545 11.4575C29.9282 12.0761 29.9427 12.7236 29.9427 13.3638C30.0295 21.2624 29.7617 29.2042 30.898 37.0166C31.05 38.074 31.2526 39.1746 31.9112 40.0163C32.4251 40.6709 33.1777 41.1097 33.9666 41.3759C35.0884 41.7572 36.3187 41.8219 37.484 41.5629C36.5793 40.527 36.3332 39.0811 36.1306 37.7215C35.6312 34.3693 35.1246 30.9667 35.4865 27.5929Z" fill="#0C0A35"/>
<path d="M18.6524 39.2897C20.7947 39.0164 22.0033 37.8007 22.8139 35.8512C23.3712 34.5203 23.4291 33.0025 23.487 31.5853C23.5666 29.6071 23.5521 27.5713 23.4146 25.6002C23.4073 25.4491 23.1902 25.4491 23.1758 25.6002C22.8863 30.0099 24.6811 37.887 18.6307 39.0883C18.5149 39.1099 18.5366 39.3041 18.6524 39.2897Z" fill="#F70032"/>
<path d="M20.6427 39.4407C22.5606 39.6925 23.9284 36.9733 24.4495 35.5058C24.6739 34.8728 24.6015 34.0959 24.6449 33.434C24.6884 32.7219 24.862 32.0241 24.9199 31.3047C25.0575 29.6142 25.2022 27.787 25.1515 26.0965C25.1515 26.0174 25.0213 25.9886 25.0068 26.0749C24.6522 28.3697 24.7101 30.7076 24.4423 33.0096C24.2758 34.4412 24.1745 35.6137 23.4508 36.9014C22.8066 38.0524 21.9816 39.0307 20.6427 39.3328C20.5703 39.3544 20.592 39.4336 20.6427 39.4407Z" fill="#F70032"/>
<path d="M31.7954 19.7806C31.0789 21.3776 31.2164 23.5932 31.021 25.3197C30.7315 27.859 30.8835 30.4847 31.05 33.0313C31.2599 36.1317 31.9257 41.5486 35.4647 42.6996C35.5082 42.7139 35.5299 42.6492 35.4937 42.6276C32.0415 40.2537 31.5421 35.7721 31.325 31.9163C31.2164 29.902 31.1296 27.859 31.2816 25.8448C31.3612 24.8017 31.5132 23.7587 31.6217 22.7156C31.7158 21.8236 31.6072 20.6726 31.8533 19.8093C31.875 19.7662 31.8099 19.7374 31.7954 19.7806Z" fill="#F70032"/>
<path d="M33.004 20.4927C32.2151 22.5789 32.1283 25.2406 32.0993 27.449C32.0704 29.8157 32.2586 32.1896 32.6132 34.5276C33.0909 37.6496 34.2488 41.6133 37.9109 42.0809C38.005 42.0953 38.0484 41.937 37.9616 41.9011C36.2174 41.0954 34.9581 40.0595 34.2199 38.2611C33.5685 36.6713 33.2139 34.8513 32.9968 33.168C32.4395 28.8662 32.8448 24.8161 33.2139 20.5287C33.2211 20.3992 33.0402 20.392 33.004 20.4927Z" fill="#F70032"/>
<path d="M34.5891 21.2769C33.6916 21.4711 33.7351 22.9674 33.6627 23.6724C33.3877 26.3412 33.4673 28.9525 33.7857 31.6142C34.2851 35.8153 35.4575 39.8581 39.192 42.2824C39.3295 42.3687 39.4526 42.2032 39.3947 42.0809C39.1196 41.5198 38.7071 41.1746 38.2222 40.7717C37.4406 40.1387 36.8109 39.3977 36.2681 38.5561C35.1463 36.8224 34.7411 34.5852 34.3792 32.5925C34.0028 30.5279 33.916 28.4346 33.9449 26.3412C33.9594 25.3845 34.0463 24.4421 34.1404 23.4925C34.2055 22.802 34.1259 21.9171 34.6614 21.3776C34.6976 21.3416 34.6542 21.2625 34.5891 21.2769Z" fill="#F70032"/>
<path d="M35.1752 22.9961C34.4153 26.5354 34.4732 30.6646 36.2464 33.9305C36.2826 33.9952 36.3911 33.9521 36.3622 33.8801C35.016 30.5063 35.2042 26.5786 35.3272 23.0105C35.3272 22.9314 35.1897 22.9098 35.1752 22.9961Z" fill="#F70032"/>
<path d="M30.7894 10.5079C30.2176 9.92526 29.6169 9.33538 28.8498 9.06202C28.4879 8.93254 28.1116 8.88218 27.7352 8.83182C26.0851 8.60882 24.3409 8.40739 22.8066 9.05482C22.6401 9.12676 22.4664 9.21309 22.3362 9.34258C22.1914 9.48645 22.0973 9.67348 22.025 9.86771C21.4098 11.4503 21.8006 13.2415 22.4375 14.8169C22.5171 15.0112 22.5967 15.2054 22.604 15.4212C22.6184 15.7881 22.4085 16.119 22.2131 16.4211C21.0262 18.2699 19.9261 20.2554 19.6366 22.4278C19.6222 22.5429 19.6873 22.6652 19.7959 22.7012C20.1143 22.8091 20.5124 22.6724 20.838 22.5285C21.4243 22.2696 22.0177 22.0106 22.604 21.7588C22.6691 23.622 22.9948 25.4779 23.5738 27.2476C23.6678 27.5281 23.7764 27.8303 24.0008 28.0245C24.4422 28.4058 25.1298 28.2475 25.6581 27.9957C26.5266 27.5785 27.2865 26.967 28.032 26.3628C28.5386 25.9527 29.0452 25.5355 29.4505 25.0247C29.8992 24.4636 30.1959 23.8018 30.4637 23.1328C31.7664 19.8309 32.2658 16.2197 31.9039 12.6876C31.875 12.3783 31.8316 12.069 31.723 11.7812C31.5421 11.2777 31.1585 10.882 30.7894 10.5079Z" fill="#FFD6A1"/>
<path d="M24.9561 23.3846C24.6231 23.4134 23.154 23.3414 22.7487 23.1688C22.4737 23.0465 22.3 23.2695 22.2348 23.3702C22.1407 23.4997 22.2927 23.6723 22.4447 23.7083C22.5967 23.7443 22.6329 23.7515 22.7704 23.8306C22.6329 24.0033 22.4881 24.068 22.4881 24.291C22.4881 24.4493 22.6763 24.5644 22.8355 24.55C22.9947 24.5428 23.1395 24.4493 23.277 24.3629C23.856 24.0032 24.3047 23.6292 24.9561 23.3846Z" fill="#F70032"/>
<path d="M24.6377 22.0682C24.8042 22.3199 25.1226 22.284 25.2891 22.1185C25.4555 21.953 25.2963 21.6221 25.0647 21.6078C24.8187 21.5934 24.6232 21.838 24.6377 22.0682Z" fill="#0C0A35"/>
<path d="M29.6893 15.0975C29.2551 15.3781 28.8136 15.6586 28.3287 15.8528C27.0477 16.3708 25.5061 16.1981 24.3699 15.4068C24.6304 14.8457 25.2239 14.5076 25.8173 14.3278C27.1345 13.9177 28.6761 14.1695 29.6893 15.0975Z" fill="white"/>
<path d="M27.2503 15.6299C27.5253 15.5723 27.7279 15.2846 27.6845 15.0112C27.6411 14.7379 27.366 14.5221 27.0838 14.5436C26.8956 14.558 26.2877 14.6875 26.4397 15.2846C26.4903 15.486 26.7436 15.5795 26.9535 15.6227C27.0548 15.6443 27.1562 15.6443 27.2503 15.6299Z" fill="#0C0A35"/>
<path d="M29.6821 12.4574C29.0887 11.9826 28.2926 11.8819 27.5327 11.8675C26.7727 11.8459 26.0997 11.9539 25.3976 12.1553C25.0647 12.2488 24.218 12.5653 23.8416 12.9034C23.3857 13.3135 23.4508 13.4789 23.7258 13.9465C23.7765 14.0328 23.885 14.0904 23.9864 14.0688C24.2324 14.004 24.493 13.781 24.6812 13.6444C25.7595 12.8674 27.8583 12.4142 29.4723 12.8818C29.7256 12.9466 29.892 12.6229 29.6821 12.4574Z" fill="#0C0A35"/>
<path d="M29.2624 6.32128C29.096 6.1846 28.9005 5.97598 29.0091 5.78895C29.067 5.68104 29.0598 5.52998 29.1756 5.50121C30.5434 5.14152 32.1573 5.24942 33.4963 5.70982C34.8352 6.17021 36.0221 7.0982 36.6879 8.3427C37.2959 9.4793 37.4551 10.7885 37.5347 12.0762C37.8242 16.6082 35.7977 20.982 38.4466 26.2045C37.0281 26.1254 35.7615 25.1615 34.7338 24.1831C33.7423 23.2336 33.2285 23.025 32.1139 21.615C32.0054 21.4783 31.2237 20.8956 31.2599 20.7302C31.383 20.1331 31.5856 19.9676 31.7593 18.5217C31.904 17.2916 31.7159 17.1333 31.7955 15.9032C31.904 14.2127 31.5494 12.5582 31.4409 10.8677C31.4119 10.4001 31.3612 9.93249 31.2599 9.4721C30.9632 8.23479 30.2395 7.12697 29.2624 6.32128Z" fill="#222272"/>
<path d="M38.1786 26.9886C38.403 27.0893 38.678 27.0606 38.8734 26.9095C39.0616 26.7584 39.1484 26.4851 39.0688 26.2549C38.9675 25.9743 38.6201 25.8089 38.3379 25.9096C38.1786 25.9671 38.0484 26.0966 37.9688 26.2477C37.8747 26.4275 37.853 26.6649 37.9832 26.8304C38.0339 26.9023 38.1063 26.9527 38.1786 26.9886Z" fill="#F70032"/>
<path d="M31.8098 17.7088C32.1066 15.486 32.273 13.2416 32.3092 10.9971C32.3237 10.2202 32.3165 9.43612 32.15 8.67359C31.998 7.99019 31.723 7.33557 31.448 6.68814C30.9486 5.50119 30.442 4.32143 29.9426 3.13447C29.0452 4.43653 28.1695 5.74577 27.3227 7.0766C26.9753 5.5947 26.3529 4.17755 25.4917 2.91866C25.0285 4.06965 24.435 5.78894 23.9718 6.93993C23.3566 6.03352 22.6908 4.68111 21.7717 4.07684C21.417 6.13423 20.9321 6.9615 21.0914 9.65913C21.1058 9.9109 21.5184 11.4503 21.7644 11.3784C21.8296 10.99 21.8875 10.5943 22.0684 10.2418C22.1697 10.0404 22.3 9.83177 22.5099 9.73826C22.8138 9.60158 23.1902 9.75984 23.4073 10.0188C23.6172 10.2778 23.7113 10.6159 23.7909 10.9396C24.2179 10.0764 25.0864 9.4577 26.0417 9.29224C26.997 9.12679 28.0102 9.41454 28.7557 10.0188C29.8702 10.918 30.3262 12.3711 30.7242 13.7451C31.1295 15.0903 31.4118 16.3636 31.8098 17.7088Z" fill="#141247"/>
<path d="M21.6414 2.24961C21.6052 2.27119 21.5763 2.31436 21.5545 2.35032C21.2433 2.91862 21.0335 3.53727 20.9321 4.17751C21.4749 4.12715 22.0177 4.0696 22.5533 4.01925C22.6763 4.01205 21.6703 2.23523 21.6414 2.24961Z" fill="#F70032"/>
<path d="M25.6002 1.11302C25.5568 1.1346 25.5351 1.17057 25.5062 1.21373C25.1588 1.76045 24.9127 2.36471 24.7679 2.99776C25.3107 2.97618 25.8535 2.96179 26.3963 2.94021C26.5194 2.93301 25.6364 1.09863 25.6002 1.11302Z" fill="#F70032"/>
<path d="M30.2466 1.3864C30.2032 1.40079 30.1742 1.43676 30.1453 1.47272C29.7545 1.99067 29.4577 2.57335 29.2623 3.19201C29.8051 3.21359 30.3479 3.24237 30.8907 3.26395C31.0138 3.27114 30.2756 1.37202 30.2466 1.3864Z" fill="#F70032"/>
<path d="M22.4593 22.1545C22.6185 22.061 22.7777 22.0107 22.937 21.8956C23.1034 21.7733 23.2699 21.6582 23.4363 21.5359C23.7548 21.2913 24.0226 20.982 24.0443 20.5647C24.0587 20.2914 23.914 19.9964 23.6752 19.8669C23.4219 19.7303 23.0672 19.8598 23.0528 20.1619C23.0528 20.2194 23.0889 20.2698 23.1468 20.2842C23.3061 20.3345 23.487 20.1979 23.6028 20.3489C23.8054 20.6151 23.5232 20.946 23.3422 21.1258C23.1686 21.3057 22.9587 21.4424 22.756 21.5934C22.5534 21.7445 22.4882 21.8668 22.3724 22.0754C22.3435 22.1186 22.4014 22.1833 22.4593 22.1545Z" fill="#0C0A35"/>
<path d="M28.2925 20.8812C30.5361 21.3992 31.9763 19.1835 31.8677 17.1693C31.8677 17.1046 31.7664 17.083 31.7519 17.1549C31.5131 18.234 31.2888 19.2914 30.4565 20.0899C29.9064 20.6151 29.0669 20.8309 28.3214 20.7374C28.2201 20.7158 28.2057 20.8596 28.2925 20.8812Z" fill="#0C0A35"/>
<path d="M22.8212 8.62321C22.7415 8.27072 22.7271 7.88226 22.7126 7.52258C22.6981 7.20606 22.7777 6.91112 22.7126 6.60179C22.6185 6.15579 21.8441 6.2493 21.902 6.70969C21.9889 7.42906 22.2349 8.04052 22.5027 8.70953C22.5823 8.90376 22.8718 8.83182 22.8212 8.62321Z" fill="#990028"/>
<path d="M25.4193 8.32827C25.6437 7.59451 25.9404 6.8104 25.9115 6.03349C25.9042 5.75294 25.5062 5.51555 25.2963 5.78172C25.0575 6.07666 25.1009 6.38598 25.0864 6.75285C25.0575 7.25641 24.9489 7.75997 24.8983 8.26353C24.8693 8.56566 25.3397 8.60162 25.4193 8.32827Z" fill="#990028"/>
<path d="M29.0453 8.91813C29.4795 8.57284 29.5953 8.13403 29.8269 7.65924C30.0585 7.19166 30.3697 6.76004 30.2539 6.22051C30.1381 5.70976 29.4723 5.81047 29.3131 6.22051C28.9874 7.06217 28.7268 7.86066 28.6762 8.76706C28.6689 8.96849 28.915 9.01885 29.0453 8.91813Z" fill="#990028"/>
<path d="M32.9678 6.796C32.9606 6.90391 32.9751 6.99743 33.0185 7.09814C33.0909 7.27798 33.3442 7.17727 33.2646 6.99743C33.2356 6.93268 33.2284 6.86795 33.2356 6.80321C33.2356 6.62336 32.9751 6.62336 32.9678 6.796Z" fill="#F70032"/>
<path d="M34.922 8.8894C34.9003 9.04047 34.9003 9.17714 34.9509 9.31382C35.0378 9.5728 35.4214 9.42173 35.2983 9.16995C35.2621 9.09082 35.2549 9.01888 35.2621 8.93256C35.2621 8.74553 34.9509 8.69517 34.922 8.8894Z" fill="#F70032"/>
<path d="M33.2863 11.5798C33.2429 11.7165 33.2646 11.8604 33.2863 12.0043C33.3297 12.2848 33.7712 12.1697 33.7205 11.882C33.6988 11.7381 33.6482 11.6158 33.5613 11.5079C33.4745 11.4072 33.3225 11.4719 33.2863 11.5798Z" fill="#F70032"/>
<path d="M36.6444 11.7237C36.5937 11.8532 36.6299 12.0258 36.6516 12.1625C36.6805 12.3855 37.0352 12.292 36.999 12.069C36.9773 11.9395 36.9483 11.774 36.8542 11.6733C36.7819 11.6014 36.6805 11.6445 36.6444 11.7237Z" fill="#F70032"/>
<path d="M35.3706 14.4429C35.3055 14.6156 35.3127 14.8386 35.4068 15.004C35.4647 15.1047 35.6529 15.0688 35.6384 14.9393C35.6239 14.7882 35.566 14.6587 35.6239 14.5077C35.6818 14.3566 35.4285 14.2919 35.3706 14.4429Z" fill="#F70032"/>
<path d="M32.7218 16.1478C32.7001 16.3348 32.6277 16.5146 32.6928 16.7017C32.7507 16.8671 33.0475 16.9175 33.0837 16.7017C33.1198 16.4715 33.0547 16.2485 32.9027 16.0686C32.8376 15.9967 32.729 16.0686 32.7218 16.1478Z" fill="#F70032"/>
<path d="M34.8424 18.8023C34.7917 18.9821 34.7483 19.1619 34.7989 19.3418C34.8496 19.5288 35.1246 19.5288 35.1753 19.3418C35.2332 19.126 35.1753 18.9174 35.0305 18.7519C34.9726 18.6872 34.8641 18.7231 34.8424 18.8023Z" fill="#F70032"/>
<path d="M32.0703 20.8812C32.0414 21.0394 32.0342 21.1689 32.0631 21.3272C32.0848 21.4423 32.2296 21.507 32.3309 21.4782C32.4539 21.4423 32.5046 21.3272 32.4829 21.2121C32.4612 21.0538 32.3816 20.9315 32.2513 20.8308C32.2006 20.7877 32.0848 20.7877 32.0703 20.8812Z" fill="#F70032"/>
<path d="M36.7456 17.3348C36.7312 17.5002 36.7095 17.6369 36.8035 17.7808C36.8325 17.8311 36.8904 17.8239 36.9266 17.7808C37.0279 17.6441 37.0351 17.5002 37.0568 17.3348C37.0786 17.1405 36.7601 17.1405 36.7456 17.3348Z" fill="#F70032"/>
<path d="M36.1739 22.8811C36.2246 23.0825 36.1377 23.2983 36.2029 23.4853C36.2608 23.6364 36.4489 23.6292 36.5068 23.4853C36.5864 23.2767 36.4996 22.9746 36.391 22.7876C36.3187 22.6725 36.1377 22.7516 36.1739 22.8811Z" fill="#F70032"/>
<path d="M26.5121 28.1396C26.5049 28.1396 26.4976 28.1324 26.4904 28.1324C26.3384 28.0677 26.1937 28.2475 26.2299 28.3914C26.2733 28.5353 26.4759 28.6 26.5773 28.4849C26.5845 28.4777 26.5845 28.4705 26.5917 28.4634C26.7003 28.3411 26.6496 28.1972 26.5121 28.1396Z" fill="#F70032"/>
<path d="M27.2142 28.5353C27.5399 28.5353 27.5399 28.0389 27.2142 28.0389C26.8885 28.0389 26.8958 28.5353 27.2142 28.5353Z" fill="#F70032"/>
<path d="M27.9669 28.4993C28.2853 28.4993 28.2853 28.0101 27.9669 28.0101C27.6484 28.0101 27.6484 28.4993 27.9669 28.4993Z" fill="#F70032"/>
<path d="M28.828 28.4273C29.1827 28.4273 29.1827 27.8734 28.828 27.8734C28.4662 27.8806 28.4662 28.4273 28.828 28.4273Z" fill="#F70032"/>
<path d="M29.6097 28.3626C29.9281 28.3626 29.9281 27.8734 29.6097 27.8734C29.2912 27.8734 29.2912 28.3626 29.6097 28.3626Z" fill="#F70032"/>
<path d="M21.6559 10.3785C21.873 10.3785 21.873 10.0404 21.6559 10.0404C21.4388 10.0404 21.4388 10.3785 21.6559 10.3785Z" fill="#F70032"/>
<path d="M22.0829 9.70943C22.3218 9.70943 22.3218 9.34975 22.0829 9.34975C21.8441 9.34975 21.8441 9.70943 22.0829 9.70943Z" fill="#F70032"/>
<path d="M22.9223 9.45049C23.1973 9.45049 23.1973 9.02607 22.9223 9.02607C22.6473 9.02607 22.6473 9.45049 22.9223 9.45049Z" fill="#F70032"/>
<path d="M23.6752 9.64475C24.0008 9.64475 24.0008 9.14119 23.6752 9.14119C23.3495 9.14119 23.3495 9.64475 23.6752 9.64475Z" fill="#F70032"/>
<path d="M23.8778 10.2778C24.1673 10.2778 24.1673 9.83176 23.8778 9.83176C23.5883 9.83895 23.5883 10.2778 23.8778 10.2778Z" fill="#F70032"/>
<path d="M24.4639 9.74546C24.7461 9.74546 24.7461 9.31384 24.4639 9.31384C24.1816 9.31384 24.1816 9.74546 24.4639 9.74546Z" fill="#F70032"/>
<path d="M25.1805 9.38577C25.5279 9.38577 25.5279 8.85343 25.1805 8.85343C24.8331 8.86063 24.8331 9.38577 25.1805 9.38577Z" fill="#F70032"/>
<path d="M25.9692 9.15556C26.2804 9.15556 26.2804 8.68079 25.9692 8.68079C25.658 8.68079 25.658 9.15556 25.9692 9.15556Z" fill="#F70032"/>
<path d="M26.8234 9.03323C27.149 9.03323 27.149 8.53687 26.8234 8.53687C26.4977 8.53687 26.4977 9.03323 26.8234 9.03323Z" fill="#F70032"/>
<path d="M27.6411 9.19149C27.9523 9.19149 27.9523 8.71671 27.6411 8.71671C27.3371 8.71671 27.3371 9.19149 27.6411 9.19149Z" fill="#F70032"/>
<path d="M28.4662 9.52965C28.8426 9.52965 28.8426 8.95415 28.4662 8.95415C28.0899 8.95415 28.0899 9.52965 28.4662 9.52965Z" fill="#F70032"/>
<path d="M29.2043 9.9109C29.5373 9.9109 29.5373 9.39295 29.2043 9.39295C28.8642 9.39295 28.8642 9.9109 29.2043 9.9109Z" fill="#F70032"/>
<path d="M29.8196 10.5224C30.1163 10.5224 30.1163 10.062 29.8196 10.062C29.5229 10.0692 29.5229 10.5224 29.8196 10.5224Z" fill="#F70032"/>
<path d="M30.2104 11.141C30.471 11.141 30.471 10.7454 30.2104 10.7454C29.9499 10.7454 29.9499 11.141 30.2104 11.141Z" fill="#F70032"/>
<path d="M30.5361 11.9395C30.8111 11.9395 30.8111 11.515 30.5361 11.515C30.2611 11.515 30.2611 11.9395 30.5361 11.9395Z" fill="#F70032"/>
<path d="M30.7894 12.6517C31.0789 12.6517 31.0789 12.1985 30.7894 12.1985C30.4999 12.1985 30.4999 12.6517 30.7894 12.6517Z" fill="#F70032"/>
<path d="M30.9992 13.4286C31.2453 13.4286 31.2453 13.0545 30.9992 13.0545C30.7532 13.0473 30.7532 13.4286 30.9992 13.4286Z" fill="#F70032"/>
<path d="M31.2236 14.1624C31.4335 14.1624 31.4335 13.8387 31.2236 13.8387C31.0137 13.8459 31.0137 14.1624 31.2236 14.1624Z" fill="#F70032"/>
<path d="M31.4913 15.1047C31.817 15.1047 31.817 14.6012 31.4913 14.6012C31.1657 14.6012 31.1657 15.1047 31.4913 15.1047Z" fill="#F70032"/>
<path d="M31.7303 15.8025C31.9908 15.8025 31.9908 15.4068 31.7303 15.4068C31.477 15.4068 31.477 15.8025 31.7303 15.8025Z" fill="#F70032"/>
<path d="M30.0584 14.8457C29.6241 14.8457 28.9655 14.4717 28.5458 14.3062C27.9885 14.0832 27.4385 14.0113 26.845 13.9969C25.8173 13.9753 24.6955 14.3638 24.2034 15.2989C24.1093 15.486 24.3626 15.6298 24.4856 15.4644C25.4771 14.0544 27.2575 14.2774 28.6688 14.8026C29.1609 14.9824 29.6024 15.2198 30.0801 14.9249C30.1163 14.9033 30.1018 14.8457 30.0584 14.8457Z" fill="#141247"/>
<path d="M6.52984 23.2911C6.53708 23.2911 6.53708 23.2839 6.52984 23.2839C6.5226 23.2839 6.5226 23.2911 6.52984 23.2911Z" fill="#141247"/>
<path d="M7.38383 23.5069C7.39107 23.5069 7.39107 23.4997 7.38383 23.4997C7.37659 23.4997 7.38383 23.5069 7.38383 23.5069Z" fill="#141247"/>
<path d="M12.3052 27.8734C12.298 27.8878 12.2907 27.895 12.2835 27.9094C12.1966 28.0533 12.2545 28.2331 12.392 28.3194C12.4065 28.3266 12.4138 28.3338 12.4282 28.341C12.6888 28.5065 13.0144 28.2331 12.9348 27.9526C12.8625 27.672 12.4572 27.6217 12.3052 27.8734Z" fill="#141247"/>
<path d="M13.9264 28.6C13.9192 28.6288 13.9192 28.6504 13.9119 28.6792C13.8395 29.0892 14.4402 29.2762 14.556 28.859C14.5633 28.8302 14.5705 28.8087 14.5777 28.7799C14.6935 28.3555 13.9988 28.1828 13.9264 28.6Z" fill="#141247"/>
<path d="M13.8902 27.3915C14.2304 27.3915 14.2304 26.8664 13.8902 26.8664C13.5501 26.8664 13.5501 27.3915 13.8902 27.3915Z" fill="#141247"/>
<path d="M11.6756 30.6214C11.6684 30.6214 11.6611 30.6214 11.6611 30.6214C11.7335 30.6789 11.8638 30.6358 11.9 30.5566C11.9072 30.5423 11.9144 30.5279 11.9217 30.5207C11.9723 30.4272 11.9579 30.2761 11.8421 30.2257C11.8276 30.2186 11.8059 30.2114 11.7914 30.2042C11.444 30.0531 11.321 30.5998 11.6756 30.6214Z" fill="#141247"/>
<path d="M10.7492 29.0964C10.7637 29.0964 10.7854 29.0892 10.7999 29.0892C11.0387 29.046 11.017 28.7439 10.8578 28.6288C10.8433 28.6144 10.8288 28.6072 10.8143 28.5928C10.4452 28.3195 10.1702 29.1971 10.7492 29.0964Z" fill="#141247"/>
<path d="M13.3691 30.5135C13.3546 30.5279 13.3402 30.5351 13.3329 30.5423C13.2099 30.643 13.2823 30.8588 13.427 30.8948C13.4415 30.902 13.4632 30.902 13.4777 30.9092C13.9409 31.0171 13.7672 30.1898 13.3691 30.5135Z" fill="#141247"/>
<path d="M12.5008 29.6503C12.5225 29.6359 12.5369 29.6287 12.5587 29.6143C12.8626 29.4417 12.4646 28.9957 12.2547 29.305C12.2402 29.3194 12.233 29.341 12.2185 29.3625C12.0882 29.5424 12.3271 29.751 12.5008 29.6503Z" fill="#141247"/>
<path d="M15.8949 29.8445C15.9167 29.8445 15.9167 29.8157 15.8949 29.8157C15.8732 29.8085 15.8732 29.8445 15.8949 29.8445Z" fill="#141247"/>
<path d="M15.8226 30.2258C16.1555 30.2258 16.1555 29.715 15.8226 29.715C15.4896 29.715 15.4896 30.2258 15.8226 30.2258Z" fill="#141247"/>
<path d="M15.4679 28.2979C15.7863 28.2979 15.7863 27.8015 15.4679 27.8015C15.1422 27.8015 15.1422 28.2979 15.4679 28.2979Z" fill="#141247"/>
<path d="M11.5381 26.9383C11.5598 26.9527 11.5743 26.9671 11.596 26.9815C11.6394 27.0102 11.719 27.0102 11.7625 26.9815C11.7842 26.9671 11.7986 26.9527 11.8204 26.9383C12.0375 26.78 11.9796 26.4132 11.6756 26.4132C11.3789 26.4204 11.321 26.7872 11.5381 26.9383Z" fill="#141247"/>
<path d="M10.1919 31.8515C10.59 31.8515 10.59 31.2329 10.1919 31.2329C9.78662 31.2401 9.78662 31.8515 10.1919 31.8515Z" fill="#141247"/>
<path d="M11.6755 32.0602C11.6683 32.089 11.6611 32.1177 11.6538 32.1465C11.6321 32.2184 11.7045 32.2904 11.7769 32.2688C11.8058 32.2616 11.8348 32.2544 11.8637 32.2472C12.1821 32.1681 11.7551 31.7437 11.6755 32.0602Z" fill="#141247"/>
<path d="M9.60564 33.6356C9.58393 33.6356 9.55498 33.6284 9.53327 33.6284C9.21482 33.5924 9.21482 34.1607 9.53327 34.1248C9.55498 34.1248 9.58393 34.1176 9.60564 34.1176C9.91684 34.0816 9.91684 33.6716 9.60564 33.6356Z" fill="#141247"/>
<path d="M9.38862 39.1531C9.69259 39.1531 9.69259 38.6927 9.38862 38.6927C9.08465 38.6927 9.08465 39.1531 9.38862 39.1531Z" fill="#141247"/>
<path d="M9.96027 40.0883C10.2787 40.0883 10.2787 39.5991 9.96027 39.5991C9.64182 39.6063 9.64182 40.0883 9.96027 40.0883Z" fill="#141247"/>
<path d="M9.29451 40.8868C9.25108 40.894 9.20042 40.9012 9.157 40.9084C9.07739 40.9228 9.07739 41.0522 9.157 41.0594C9.20042 41.0666 9.25108 41.0738 9.29451 41.081C9.45373 41.1026 9.45373 40.8652 9.29451 40.8868Z" fill="#141247"/>
<path d="M9.60567 36.8655C9.58396 36.8655 9.56948 36.8727 9.54777 36.8727C9.20762 36.9087 9.32342 37.405 9.60567 37.3043C9.62738 37.2971 9.64186 37.2899 9.66357 37.2827C9.86622 37.2036 9.85898 36.8367 9.60567 36.8655Z" fill="#141247"/>
<path d="M9.49725 47.0949C9.49725 47.0733 9.49001 47.0446 9.49001 47.023C9.42488 46.3756 8.59258 47.2028 9.24394 47.2676C9.26565 47.2676 9.2946 47.2748 9.31632 47.2748C9.4104 47.2891 9.50449 47.1884 9.49725 47.0949Z" fill="#141247"/>
<path d="M10.1774 47.9221C10.4162 47.9221 10.4162 47.5553 10.1774 47.5553C9.93858 47.5553 9.93858 47.9221 10.1774 47.9221Z" fill="#141247"/>
<path d="M9.46093 49.6342C9.80108 49.6342 9.80108 49.1091 9.46093 49.1091C9.12077 49.1091 9.12077 49.6342 9.46093 49.6342Z" fill="#141247"/>
<path d="M10.4452 50.296C10.4597 50.2817 10.4814 50.2745 10.4959 50.2601C10.6334 50.1666 10.6334 49.9867 10.4959 49.8932C10.4814 49.8788 10.4597 49.8716 10.4452 49.8572C9.9748 49.5479 9.9748 50.6126 10.4452 50.296Z" fill="#141247"/>
<path d="M11.4223 50.2025C11.4368 50.2457 11.4512 50.2889 11.4657 50.332C11.5164 50.4687 11.6973 50.4687 11.748 50.332C11.7624 50.2889 11.7769 50.2457 11.7914 50.2025C11.8999 49.8932 11.3065 49.8932 11.4223 50.2025Z" fill="#141247"/>
<path d="M10.6768 51.8571C10.9519 51.8571 10.9519 51.4326 10.6768 51.4326C10.4018 51.4326 10.4018 51.8571 10.6768 51.8571Z" fill="#141247"/>
<path d="M9.67815 51.3967C9.90974 51.3967 9.90974 51.037 9.67815 51.037C9.43932 51.037 9.43932 51.3967 9.67815 51.3967Z" fill="#141247"/>
<path d="M9.68525 52.5549C9.66354 52.5549 9.64907 52.5621 9.62735 52.5621C9.32339 52.6052 9.45366 53.1232 9.75763 53.0297C9.77934 53.0225 9.79381 53.0153 9.81552 53.0081C10.105 52.9146 9.98198 52.5117 9.68525 52.5549Z" fill="#141247"/>
<path d="M10.9591 58.6983C11.2631 58.6983 11.2631 58.2379 10.9591 58.2379C10.6624 58.2379 10.6624 58.6983 10.9591 58.6983Z" fill="#141247"/>
<path d="M11.6756 60.0507C11.9796 60.0507 11.9796 59.5759 11.6756 59.5759C11.3716 59.5831 11.3716 60.0507 11.6756 60.0507Z" fill="#141247"/>
<path d="M12.8191 59.7629C13.1231 59.7629 13.1231 59.3026 12.8191 59.3026C12.5224 59.3026 12.5224 59.7629 12.8191 59.7629Z" fill="#141247"/>
<path d="M13.9626 59.0364C14.2376 59.0364 14.2376 58.612 13.9626 58.612C13.6876 58.612 13.6876 59.0364 13.9626 59.0364Z" fill="#141247"/>
<path d="M14.1073 60.3672C14.3606 60.3672 14.3606 59.9787 14.1073 59.9787C13.854 59.9787 13.854 60.3672 14.1073 60.3672Z" fill="#141247"/>
<path d="M13.0362 61.3815C13.3112 61.3815 13.3112 60.9571 13.0362 60.9571C12.7612 60.9571 12.7612 61.3815 13.0362 61.3815Z" fill="#141247"/>
<path d="M11.6756 61.8131C11.9578 61.8131 11.9578 61.3743 11.6756 61.3743C11.3933 61.3743 11.3933 61.8131 11.6756 61.8131Z" fill="#141247"/>
<path d="M12.8915 62.7123C13.1375 62.7123 13.1375 62.331 12.8915 62.331C12.6454 62.331 12.6454 62.7123 12.8915 62.7123Z" fill="#141247"/>
<path d="M14.3244 62.2951C14.5922 62.2951 14.5922 61.885 14.3244 61.885C14.0566 61.885 14.0566 62.2951 14.3244 62.2951Z" fill="#141247"/>
<path d="M15.3233 61.4822C15.6417 61.4822 15.6417 60.993 15.3233 60.993C15.0049 60.993 15.0049 61.4822 15.3233 61.4822Z" fill="#141247"/>
<path d="M15.3957 59.9499C15.6634 59.9499 15.6634 59.5399 15.3957 59.5399C15.1279 59.5471 15.1279 59.9499 15.3957 59.9499Z" fill="#141247"/>
<path d="M16.3219 60.5614C16.5463 60.5614 16.5463 60.2162 16.3219 60.2162C16.0976 60.2162 16.1048 60.5614 16.3219 60.5614Z" fill="#141247"/>
<path d="M16.6115 59.8349C16.8141 59.8349 16.8141 59.5255 16.6115 59.5255C16.4088 59.5183 16.4088 59.8349 16.6115 59.8349Z" fill="#141247"/>
<path d="M42.9916 28.9957C43.3824 28.9957 43.3824 28.3914 42.9916 28.3914C42.6008 28.3842 42.6008 28.9957 42.9916 28.9957Z" fill="#141247"/>
<path d="M43.9975 27.8303C44.3593 27.8303 44.3593 27.2692 43.9975 27.2692C43.6356 27.2764 43.6356 27.8303 43.9975 27.8303Z" fill="#141247"/>
<path d="M45.1411 29.0676C45.5391 29.0676 45.5391 28.4489 45.1411 28.4489C44.743 28.4561 44.743 29.0676 45.1411 29.0676Z" fill="#141247"/>
<path d="M44.4245 30.1754C44.7792 30.1754 44.7792 29.6215 44.4245 29.6215C44.0699 29.6215 44.0699 30.1754 44.4245 30.1754Z" fill="#141247"/>
<path d="M45.6404 27.3627C45.8575 27.3627 45.8575 27.0246 45.6404 27.0246C45.4233 27.0318 45.4233 27.3627 45.6404 27.3627Z" fill="#141247"/>
<path d="M45.6404 26.4347C45.8503 26.4347 45.8503 26.1038 45.6404 26.1038C45.4306 26.111 45.4306 26.4347 45.6404 26.4347Z" fill="#141247"/>
<path d="M46.9503 25.9959C46.9358 26.0031 46.9213 26.0175 46.8996 26.0247C46.7114 26.1541 46.7983 26.3987 47.0082 26.4275C47.0299 26.4275 47.0444 26.4347 47.0661 26.4347C47.4569 26.485 47.2977 25.7657 46.9503 25.9959Z" fill="#141247"/>
<path d="M47.2109 27.8159C47.551 27.8159 47.551 27.298 47.2109 27.298C46.878 27.2908 46.878 27.8159 47.2109 27.8159Z" fill="#141247"/>
<path d="M46.4148 28.5784C46.4076 28.6072 46.4003 28.636 46.4003 28.6648C46.3859 28.7439 46.451 28.8086 46.5306 28.7942C46.5596 28.7871 46.5885 28.7799 46.6175 28.7799C46.9648 28.7007 46.4872 28.2259 46.4148 28.5784Z" fill="#141247"/>
<path d="M46.2122 30.3409C46.603 30.3409 46.603 29.7366 46.2122 29.7366C45.8214 29.7366 45.8214 30.3409 46.2122 30.3409Z" fill="#141247"/>
<path d="M47.7175 30.4343C48.0431 30.4343 48.0431 29.9308 47.7175 29.9308C47.3845 29.9308 47.3845 30.4343 47.7175 30.4343Z" fill="#141247"/>
<path d="M48.1445 29.2834C48.5425 29.2834 48.5425 28.6648 48.1445 28.6648C47.7464 28.6648 47.7464 29.2834 48.1445 29.2834Z" fill="#141247"/>
<path d="M48.463 31.5566C48.4268 31.5709 48.3906 31.5925 48.3472 31.6069C48.2386 31.6573 48.2386 31.8371 48.3472 31.8803C48.3834 31.8947 48.4195 31.9162 48.463 31.9306C48.8755 32.1249 48.8755 31.3623 48.463 31.5566Z" fill="#141247"/>
<path d="M46.5668 31.3624C46.8057 31.3624 46.8057 30.9955 46.5668 30.9955C46.328 30.9955 46.328 31.3624 46.5668 31.3624Z" fill="#141247"/>
<path d="M48.8828 36.4699C48.8538 36.4771 48.8249 36.4771 48.7959 36.4843C48.2387 36.5706 49.0203 37.3475 49.0999 36.7864C49.1071 36.7577 49.1071 36.7289 49.1144 36.7001C49.1361 36.549 49.0275 36.4483 48.8828 36.4699Z" fill="#141247"/>
<path d="M49.3241 37.9518C49.2663 38.146 49.5485 38.2683 49.6571 38.0885C49.7873 37.8654 49.4038 37.7 49.3241 37.9518Z" fill="#141247"/>
<path d="M49.6644 39.9444C49.6572 39.9156 49.6572 39.894 49.65 39.8652C49.6355 39.8005 49.5703 39.7429 49.5125 39.7286C49.498 39.7214 49.4835 39.7214 49.469 39.7142C49.2519 39.6566 49.1216 39.9156 49.2591 40.0667C49.2809 40.0882 49.3026 40.1026 49.3315 40.1098C49.3822 40.1314 49.4907 40.1746 49.4256 40.1242C49.5486 40.2177 49.6934 40.081 49.6644 39.9444Z" fill="#141247"/>
<path d="M49.8742 46.3324C49.8091 46.5554 50.1348 46.6993 50.2578 46.4906C50.4098 46.2317 49.9611 46.0374 49.8742 46.3324Z" fill="#141247"/>
<path d="M49.2881 47.5481C49.5052 47.5481 49.5052 47.21 49.2881 47.21C49.071 47.21 49.071 47.5481 49.2881 47.5481Z" fill="#141247"/>
<path d="M49.7873 49.0156C50.0623 49.0156 50.0623 48.5912 49.7873 48.5912C49.5123 48.5912 49.5123 49.0156 49.7873 49.0156Z" fill="#141247"/>
<path d="M48.7887 49.9076C49.1144 49.9076 49.1144 49.4041 48.7887 49.4041C48.463 49.4041 48.463 49.9076 48.7887 49.9076Z" fill="#141247"/>
<path d="M48.1445 50.7349C48.3472 50.7349 48.3472 50.4256 48.1445 50.4256C47.9419 50.4256 47.9419 50.7349 48.1445 50.7349Z" fill="#141247"/>
<path d="M49.1432 51.7132C49.5051 51.7132 49.5051 51.1521 49.1432 51.1521C48.7814 51.1521 48.7814 51.7132 49.1432 51.7132Z" fill="#141247"/>
<path d="M49.9322 50.5622C50.1855 50.5622 50.1855 50.1738 49.9322 50.1738C49.6789 50.1738 49.6789 50.5622 49.9322 50.5622Z" fill="#141247"/>
<path d="M49.7368 52.7491C49.6934 52.7635 49.65 52.7779 49.6065 52.7923C49.469 52.8354 49.469 53.0153 49.6065 53.0656C49.65 53.08 49.6934 53.0944 49.7368 53.1088C50.0336 53.1951 50.0336 52.6484 49.7368 52.7491Z" fill="#141247"/>
<path d="M49.5703 55.2957C49.8742 55.2957 49.8742 54.8209 49.5703 54.8209C49.2663 54.8209 49.2663 55.2957 49.5703 55.2957Z" fill="#141247"/>
<path d="M48.861 56.4035C49.1361 56.4035 49.1361 55.9791 48.861 55.9791C48.586 55.9791 48.586 56.4035 48.861 56.4035Z" fill="#141247"/>
<path d="M49.5196 57.3171C49.5341 57.3315 49.5413 57.3387 49.5558 57.3531C49.6065 57.4034 49.6861 57.4034 49.7368 57.3531C49.7512 57.3387 49.7585 57.3315 49.7729 57.3171C50.1565 56.9574 49.1288 56.9574 49.5196 57.3171Z" fill="#141247"/>
<path d="M48.2893 57.7631C48.6657 57.7631 48.6657 57.1876 48.2893 57.1876C47.913 57.1876 47.913 57.7631 48.2893 57.7631Z" fill="#141247"/>
<path d="M46.5017 58.1371C46.8129 58.1371 46.8129 57.6552 46.5017 57.6552C46.1905 57.6624 46.1905 58.1371 46.5017 58.1371Z" fill="#141247"/>
<path d="M47.2832 59.4249C47.6957 59.4249 47.6957 58.7918 47.2832 58.7918C46.8779 58.7918 46.8779 59.4249 47.2832 59.4249Z" fill="#141247"/>
<path d="M48.7887 59.4248C49.1071 59.4248 49.1071 58.9285 48.7887 58.9285C48.463 58.9285 48.463 59.4248 48.7887 59.4248Z" fill="#141247"/>
<path d="M47.7247 60.583C47.7102 60.5902 47.6885 60.6046 47.6741 60.6118C47.4497 60.7412 47.5583 61.0578 47.7971 61.0721C47.8188 61.0721 47.8333 61.0721 47.855 61.0721C48.282 61.1009 48.1228 60.36 47.7247 60.583Z" fill="#141247"/>
<path d="M45.8575 60.6765C46.2338 60.6765 46.2338 60.0938 45.8575 60.0938C45.4739 60.0938 45.4739 60.6765 45.8575 60.6765Z" fill="#141247"/>
<path d="M45.4667 59.0579C45.4088 59.245 45.6911 59.3672 45.7924 59.1946C45.9227 58.9788 45.5463 58.8133 45.4667 59.0579Z" fill="#141247"/>
<path d="M44.2798 59.9931C44.6923 59.9931 44.6923 59.3601 44.2798 59.3601C43.8745 59.3601 43.8745 59.9931 44.2798 59.9931Z" fill="#141247"/>
<path d="M45.141 62.0073C45.5825 62.0073 45.5825 61.3239 45.141 61.3239C44.6996 61.3239 44.6996 62.0073 45.141 62.0073Z" fill="#141247"/>
<path d="M43.9975 61.1153C44.3015 61.1153 44.3015 60.6478 43.9975 60.6478C43.6935 60.6549 43.6935 61.1153 43.9975 61.1153Z" fill="#141247"/>
<path d="M46.4293 62.6691C46.7115 62.6691 46.7115 62.2303 46.4293 62.2303C46.1398 62.2303 46.1398 62.6691 46.4293 62.6691Z" fill="#141247"/>
<path d="M43.3534 59.6622C43.708 59.6622 43.708 59.1155 43.3534 59.1155C42.9987 59.1227 42.9987 59.6622 43.3534 59.6622Z" fill="#141247"/>
<path d="M50.598 72.2079C50.598 72.064 50.6559 71.8554 50.6559 71.7044C50.6559 71.5533 50.6559 71.4094 50.6414 71.2583C50.5835 70.7548 50.4026 70.2728 50.0262 69.9419C50.3664 69.9203 51.2276 69.9203 51.575 69.9419C51.1987 70.28 51.0105 70.762 50.9599 71.2583C50.9454 71.4022 50.9454 71.5533 50.9454 71.7044C50.9454 71.8482 51.0033 72.0568 51.0033 72.2079H50.598Z" fill="#0C0A35"/>
<path d="M50.7282 71.6539C50.4243 71.1863 49.8887 70.8626 49.3314 70.8842C48.7742 70.9058 48.2314 71.3086 48.1228 71.8481C48.0287 72.3229 48.2603 72.8193 48.5932 73.1718C48.9261 73.5315 49.3821 73.7617 49.7946 74.035C50.2144 74.3084 50.8006 74.9918 50.8006 74.9918C50.8006 74.9918 51.4447 74.3299 51.7994 74.0566C52.1902 73.7617 52.6679 73.5386 53.0008 73.179C53.3337 72.8193 53.5653 72.3301 53.4712 71.8553C53.3626 71.3158 52.8198 70.9058 52.2626 70.8914C51.7053 70.8698 51.1697 71.2007 50.8658 71.6611H50.7282V71.6539Z" fill="#0C0A35"/>
<path d="M7.57933 16.3564C7.57933 16.5002 7.52144 16.7088 7.52144 16.8599C7.52144 17.011 7.52144 17.1548 7.53591 17.3059C7.59381 17.8095 7.77474 18.2914 8.15108 18.6224C7.81093 18.6439 6.94245 18.6439 6.60229 18.6224C6.98587 18.2842 7.16681 17.8095 7.21747 17.3059C7.23194 17.162 7.23194 17.011 7.23194 16.8599C7.23194 16.716 7.17404 16.5074 7.17404 16.3564H7.57933Z" fill="#0C0A35"/>
<path d="M7.45621 16.9103C7.76017 17.3707 8.29574 17.7016 8.85301 17.68C9.41029 17.6584 9.95309 17.2556 10.0616 16.716C10.1557 16.2413 9.92414 15.7449 9.59122 15.3924C9.2583 15.0327 8.80235 14.8025 8.38982 14.5292C7.97006 14.2558 7.38383 13.5724 7.38383 13.5724C7.38383 13.5724 6.73971 14.2342 6.38508 14.5076C5.99426 14.8025 5.5166 15.0255 5.18368 15.3852C4.85077 15.7449 4.61917 16.2341 4.71326 16.7088C4.82182 17.2484 5.36462 17.6584 5.92189 17.6728C6.47917 17.6944 7.01473 17.3635 7.3187 16.9031H7.45621V16.9103Z" fill="#0C0A35"/>
<path d="M7.0002 11.4791C5.94355 11.4791 5.11849 11.0762 4.51779 10.2777C3.91709 9.47923 3.62036 8.47931 3.62036 7.28516C3.62036 6.01189 3.93157 4.97599 4.55398 4.1775C5.17639 3.37181 5.99421 2.97616 7.0002 2.97616C7.98447 2.97616 8.79506 3.35743 9.4247 4.12715C10.0544 4.89687 10.3728 5.90398 10.3728 7.16287C10.3728 8.20595 10.134 9.12673 9.66354 9.91084C9.18587 10.695 8.58517 11.1841 7.84697 11.3784L7.83973 11.4934C7.83973 12.0905 8.20159 12.3927 8.93257 12.3927C9.27996 12.3927 9.5984 12.3639 9.88066 12.3135V13.1336C9.60564 13.2199 9.32338 13.2559 9.03389 13.2559C8.40424 13.2559 7.91934 13.1264 7.57918 12.8602C7.23179 12.5941 7.04362 12.1337 7.0002 11.4791ZM7.0002 10.6446C7.71669 10.6446 8.28121 10.3209 8.6865 9.66626C9.09179 9.01883 9.29443 8.17717 9.29443 7.14848C9.29443 6.09101 9.08455 5.27094 8.66478 4.68825C8.24502 4.09837 7.68774 3.81062 6.99296 3.81062C6.29094 3.81062 5.73366 4.12714 5.32114 4.76018C4.90861 5.39322 4.69872 6.22769 4.69872 7.24919C4.69872 8.24911 4.90861 9.06918 5.32837 9.69503C5.7409 10.3353 6.29818 10.6446 7.0002 10.6446Z" fill="#0C0A35"/>
<path d="M51.3652 77.4809C52.4218 77.4809 53.2469 77.8838 53.8476 78.6823C54.4483 79.4808 54.745 80.4807 54.745 81.6748C54.745 82.9409 54.4338 83.984 53.8114 84.7825C53.189 85.5882 52.3711 85.9838 51.3652 85.9838C50.3809 85.9838 49.5703 85.6026 48.9406 84.8328C48.311 84.0631 47.9926 83.056 47.9926 81.7971C47.9926 80.754 48.2314 79.8332 48.7018 79.0491C49.1722 78.265 49.7802 77.7759 50.5184 77.5816L50.5256 77.4665C50.5256 76.8695 50.1638 76.5673 49.4328 76.5673C49.0854 76.5673 48.7669 76.5961 48.4847 76.6465V75.8264C48.7597 75.7401 49.042 75.7041 49.3315 75.7041C49.9611 75.7041 50.446 75.8336 50.7862 76.0997C51.1408 76.3659 51.329 76.8263 51.3652 77.4809ZM51.3724 78.3154C50.6559 78.3154 50.0914 78.6391 49.6861 79.2937C49.2808 79.9483 49.0782 80.7828 49.0782 81.8115C49.0782 82.869 49.288 83.6891 49.7078 84.2717C50.1276 84.8616 50.6848 85.1566 51.3796 85.1566C52.0816 85.1566 52.6389 84.84 53.0515 84.1998C53.464 83.5668 53.6739 82.7323 53.6739 81.7108C53.6739 80.7109 53.464 79.8908 53.0442 79.265C52.6317 78.6247 52.0744 78.3154 51.3724 78.3154Z" fill="#0C0A35"/>
<path d="M23.3421 84.2357H8.78063C6.41402 84.2357 4.48889 82.1999 4.48889 79.7037V22.471C4.48889 22.3991 4.54679 22.3415 4.61916 22.3415C4.69154 22.3415 4.75667 22.3991 4.75667 22.471V79.7037C4.75667 82.0561 6.56601 83.9696 8.78063 83.9696H23.3494C23.4218 83.9696 23.4869 84.0271 23.4869 84.1063C23.4797 84.1782 23.4145 84.2357 23.3421 84.2357Z" fill="#191956"/>
<path d="M46.7911 84.2358H38.8952C38.8228 84.2358 38.7577 84.1782 38.7577 84.1063C38.7577 84.0343 38.8156 83.9696 38.8952 83.9696H46.7911C46.8635 83.9696 46.9214 84.0272 46.9214 84.1063C46.9286 84.1782 46.8707 84.2358 46.7911 84.2358Z" fill="#191956"/>
<path d="M53.7534 66.9063C53.6811 66.9063 53.6232 66.8487 53.6232 66.7768V9.26348C53.6232 6.91116 51.8138 4.99764 49.5992 4.99764H34.3284C34.2561 4.99764 34.1909 4.94009 34.1909 4.86816C34.1909 4.79622 34.2488 4.73867 34.3284 4.73867H49.5992C51.9658 4.73867 53.8909 6.77447 53.8909 9.27067V66.784C53.8909 66.8415 53.8258 66.9063 53.7534 66.9063Z" fill="#191956"/>
<path d="M19.6294 4.99043H12.0013C11.9289 4.99043 11.8638 4.93288 11.8638 4.86095C11.8638 4.78901 11.9217 4.73146 12.0013 4.73146H19.6294C19.7018 4.73146 19.7597 4.78901 19.7597 4.86095C19.7597 4.93288 19.7018 4.99043 19.6294 4.99043Z" fill="#191956"/>
</svg>
