<svg width="58" height="88" viewBox="0 0 58 88" fill="none" xmlns="http://www.w3.org/2000/svg">
<path d="M53.0874 88H4.91257C2.20417 88 0 85.8125 0 83.1087V4.89128C0 2.19462 2.19697 0 4.91257 0H53.0874C55.7958 0 58 2.18745 58 4.89128V83.1159C57.9928 85.8125 55.7958 88 53.0874 88Z" fill="white"/>
<path d="M18.8507 82.8433H8.76624C6.4108 82.8433 4.49475 80.8136 4.49475 78.3249V17.435H4.76127V78.3178C4.76127 80.663 6.56206 82.5707 8.76624 82.5707H18.8435V82.8433H18.8507Z" fill="#0C0A35"/>
<path d="M40.201 82.578H13.9742V82.8433H40.201V82.578Z" fill="#0C0A35"/>
<path d="M53.6637 69.3959H53.3972V8.08996C53.3972 5.74473 51.5964 3.83699 49.3922 3.83699H39.1997V3.57162H49.3922C51.7476 3.57162 53.6637 5.60129 53.6637 8.08996V69.3959Z" fill="#0C0A35"/>
<path d="M42.7869 3.57162H18.3754V3.83699H42.7869V3.57162Z" fill="#0C0A35"/>
<path d="M6.98708 4.2745C6.33879 4.54703 6.00024 4.76219 5.58966 5.33595C5.15027 5.95274 5.0062 6.84206 5.15747 7.5736C5.4528 9.00799 6.7998 9.68216 8.1684 9.44548C9.3065 9.25184 10.1205 8.17605 10.4806 7.1648C10.92 5.95274 10.2933 4.74785 9.28489 4.07368C8.23323 3.378 6.63412 3.32063 5.6761 4.18126C4.85494 4.91997 4.73969 6.06749 4.93417 7.09308C5.12866 8.1115 5.94262 9.01517 6.96547 9.2375C8.41331 9.54589 9.55861 8.53464 10.034 7.26521C10.3942 6.31851 9.99801 5.33595 9.19125 4.79088C8.3989 4.25298 6.99428 4.47531 6.43964 5.23554C5.95703 5.89536 5.78415 6.99267 6.46845 7.60946C7.31843 8.36969 8.29086 7.78159 8.74466 6.92812C9.16244 6.13921 8.40611 5.17099 7.53452 5.4507C7.0375 5.60848 6.64133 5.87385 6.25235 6.2181C5.84898 6.56953 5.88499 7.33693 6.28837 7.67401C6.31719 7.69552 6.33879 7.71704 6.36761 7.73856C6.87183 8.14736 7.54893 8.05412 7.89468 7.49471C7.69299 7.81745 8.02434 7.22935 8.01713 7.05005C8.01713 6.95681 8.00273 6.87075 7.97391 6.77751C8.21162 7.73856 7.51291 7.60946 8.13959 7.40865C7.73621 6.91378 7.33283 6.42609 6.92225 5.93122C6.71336 6.32568 7.46249 5.54393 8.01713 6.26113C8.13959 6.41891 8.05315 6.56953 8.08196 6.42609C8.04595 6.61256 8.03154 6.53367 8.02434 6.53367C7.9307 6.59821 8.15399 6.56235 8.19721 6.58387C8.04595 6.51215 8.06756 6.29699 8.08196 6.53367C8.08196 6.61973 8.00273 6.79186 7.9379 6.89944C7.80824 7.13611 7.62096 7.19349 7.46249 7.20066C7.31122 7.215 7.4769 7.22935 7.24639 7.15763C7.34724 7.18631 7.30402 7.19349 7.16716 7.06439C7.06631 6.97116 7.00869 6.83489 6.92946 6.56235C6.88624 6.41891 6.88623 6.1679 6.92225 5.99577C6.97267 5.72323 6.90064 5.95274 7.0303 5.71606C6.98708 5.79495 7.10233 5.64434 7.12394 5.63C7.18157 5.59414 7.23919 5.58697 7.20317 5.58697C7.39766 5.59414 7.4913 5.61565 7.70019 5.65869C7.98112 5.71606 8.34128 5.89536 8.44212 6.03163C8.55737 6.18941 8.55017 6.34002 8.52136 6.49063C8.47093 6.74883 8.34128 6.96398 8.13959 7.17914C7.80104 7.54491 7.51291 7.60946 7.18877 7.35844C6.56209 6.87075 6.79259 5.28574 7.32563 4.82674C7.57774 4.61158 7.28961 4.1454 6.98708 4.2745Z" fill="#0C0A35"/>
<path d="M7.53449 6.94962C8.34125 7.13609 8.63658 5.88817 7.82982 5.7017C7.02307 5.51523 6.72774 6.76315 7.53449 6.94962Z" fill="#F70032"/>
<path d="M6.34606 4.37487C6.52614 4.4179 6.59817 4.13102 6.41089 4.08799C6.22361 4.04496 6.15878 4.33183 6.34606 4.37487Z" fill="#F70032"/>
<path d="M5.6618 5.2642C5.84188 5.30723 5.9067 5.02753 5.72662 4.9845C5.55375 4.94146 5.48172 5.22117 5.6618 5.2642Z" fill="#F70032"/>
<path d="M5.43844 6.3902C5.67614 6.44757 5.76258 6.0818 5.52487 6.02443C5.28717 5.96705 5.20073 6.33282 5.43844 6.3902Z" fill="#F70032"/>
<path d="M5.69063 7.49474C5.92114 7.55211 6.00757 7.18634 5.77707 7.13614C5.53937 7.07876 5.45293 7.43736 5.69063 7.49474Z" fill="#F70032"/>
<path d="M6.33885 8.57049C6.35325 8.57049 6.36046 8.56332 6.37486 8.56332C6.50452 8.5418 6.54053 8.39119 6.43249 8.31947C6.42528 8.3123 6.41088 8.30513 6.40367 8.29795C6.19478 8.15451 6.08673 8.61352 6.33885 8.57049Z" fill="#F70032"/>
<path d="M7.44093 9.06534C7.45534 9.06534 7.46254 9.06534 7.47695 9.06534C7.65703 9.05817 7.71465 8.81432 7.55618 8.72826C7.54177 8.72109 7.53457 8.71391 7.52737 8.71391C7.24644 8.57047 7.13119 9.07251 7.44093 9.06534Z" fill="#F70032"/>
<path d="M8.6654 8.81437C8.85989 8.8574 8.92471 8.56335 8.73743 8.52032C8.54295 8.47012 8.47092 8.77134 8.6654 8.81437Z" fill="#F70032"/>
<path d="M9.55862 8.00392C9.7387 8.04696 9.81073 7.76008 9.62345 7.71705C9.44337 7.67401 9.37134 7.96089 9.55862 8.00392Z" fill="#F70032"/>
<path d="M10.0485 6.74166C10.2214 6.78469 10.279 6.51933 10.1133 6.4763C9.94043 6.44044 9.8756 6.7058 10.0485 6.74166Z" fill="#F70032"/>
<path d="M9.85398 5.57261C10.0773 5.62281 10.1565 5.28573 9.93322 5.23552C9.71712 5.17815 9.63789 5.5224 9.85398 5.57261Z" fill="#F70032"/>
<path d="M9.01117 4.66891C9.27049 4.72629 9.36413 4.32466 9.10482 4.26728C8.8455 4.20273 8.75186 4.60436 9.01117 4.66891Z" fill="#F70032"/>
<path d="M7.8155 4.26735C7.82991 4.26735 7.84431 4.26735 7.85152 4.27453C8.05321 4.29604 8.11083 4.03785 7.92355 3.9733C7.90914 3.96613 7.90194 3.96613 7.88753 3.95896C7.69305 3.88007 7.60661 4.23867 7.8155 4.26735Z" fill="#F70032"/>
<path d="M19.7368 34.2604L15.8687 36.2184C15.3573 36.4694 14.0319 36.8423 13.5205 36.5913C12.8794 36.2758 12.051 36.2184 11.518 34.3895C10.279 30.1366 10.6536 27.1315 10.1566 22.7279C10.1206 22.4195 10.099 22.0824 10.2934 21.8458C10.4519 21.6449 10.279 21.6736 10.5311 21.6234C11.2154 21.4872 11.6764 21.4943 12.3752 21.48C12.0006 23.3375 12.8218 24.8723 13.3548 27.5762C13.6069 28.8743 13.9382 30.1724 13.9382 31.4849C13.9382 31.7359 14.4425 32.1734 14.673 32.073C16.5962 31.2769 17.5903 30.6673 18.433 30.4521C19.0453 31.7 19.1245 33.0197 19.7368 34.2604Z" fill="#222272"/>
<path d="M49.7092 36.8711C50.7104 38.9223 51.5604 40.9591 51.7549 43.2326C51.7909 43.6343 51.6613 44.1865 51.6181 44.5881C51.5676 45.0686 51.3515 45.5779 51.2003 46.0369C49.9757 49.6731 47.7283 51.0142 48.0165 54.844C47.2457 54.6576 46.4606 54.5285 45.6754 54.4568C45.5962 51.466 45.7835 50.2827 46.6046 47.4067C47.008 46.001 47.6707 43.0533 47.5627 42.3863C47.4402 41.6189 46.6262 40.0841 45.8555 38.7501C47.1233 37.8537 48.2974 37.5022 49.7092 36.8711Z" fill="#0C0A35"/>
<path d="M50.9481 82.7071C51.6468 82.6999 52.0502 82.6354 52.6481 82.2553C53.2892 81.8536 53.7646 81.0934 53.9086 80.3547C54.1896 78.9131 53.2027 77.78 51.8485 77.4716C50.7248 77.2206 49.5579 77.9019 48.8376 78.698C47.966 79.6519 48.0741 81.0002 48.7584 82.0114C49.4643 83.0585 50.9121 83.7184 52.1367 83.288C53.1811 82.9223 53.7286 81.9039 53.9447 80.8854C54.1535 79.867 53.7574 78.7267 52.893 78.1314C51.6757 77.2923 50.2278 77.7943 49.2986 78.7769C48.6071 79.5156 48.5855 80.5699 49.1185 81.3875C49.6444 82.1836 51.0202 82.5206 51.8341 82.0258C52.5328 81.6026 53.1235 80.6488 52.7201 79.824C52.2303 78.7984 51.0994 78.9633 50.3503 79.5801C49.6588 80.1467 49.9829 81.3301 50.9049 81.409C51.4235 81.452 51.8917 81.3588 52.3816 81.1867C52.893 81.0145 53.1523 80.2902 52.9074 79.824C52.893 79.7953 52.8786 79.7666 52.857 79.7307C52.5544 79.157 51.8918 78.9849 51.3587 79.3721C51.6685 79.1498 51.1354 79.573 51.0706 79.7379C51.0346 79.824 51.013 79.91 51.0058 80.0033C51.157 79.0207 51.7477 79.408 51.0994 79.3578C51.2867 79.9674 51.4668 80.577 51.654 81.1867C51.9926 80.9069 51.0058 81.3444 50.7681 80.4695C50.7176 80.2758 50.8545 80.1754 50.7681 80.2973C50.8761 80.1467 50.8545 80.2184 50.8617 80.2184C50.9769 80.1969 50.7536 80.1395 50.7176 80.1037C50.8257 80.2256 50.7248 80.4121 50.8041 80.1898C50.8329 80.1109 50.9769 79.9818 51.0778 79.9029C51.2867 79.7307 51.4812 79.7523 51.6324 79.8025C51.7765 79.8527 51.6252 79.7666 51.8197 79.9244C51.7405 79.8598 51.7765 79.8742 51.8557 80.0391C51.9134 80.1682 51.9134 80.3117 51.8845 80.5914C51.8629 80.742 51.7765 80.9715 51.6757 81.1149C51.5244 81.3444 51.6757 81.1651 51.4668 81.3301C51.5388 81.2727 51.3731 81.366 51.3443 81.3731C51.2723 81.3875 51.2219 81.3731 51.2507 81.3803C51.049 81.3301 50.9769 81.2799 50.8041 81.158C50.5664 80.993 50.307 80.6918 50.2638 80.5268C50.2206 80.3332 50.2854 80.1969 50.3647 80.0678C50.5087 79.8455 50.7176 79.6949 50.9769 79.573C51.4307 79.365 51.7189 79.4152 51.9206 79.7738C52.3095 80.4623 51.4884 81.8393 50.8185 82.0616C50.5303 82.1692 50.6096 82.7071 50.9481 82.7071Z" fill="#0C0A35"/>
<path d="M51.4668 80.0248C50.7969 79.5442 50.0406 80.5842 50.7177 81.0647C51.3875 81.5452 52.1439 80.5053 51.4668 80.0248Z" fill="#F70032"/>
<path d="M51.5819 82.8577C51.4306 82.7501 51.2578 82.9868 51.409 83.0944C51.5603 83.2091 51.7332 82.9725 51.5819 82.8577Z" fill="#F70032"/>
<path d="M52.5471 82.2983C52.3959 82.1907 52.2302 82.4202 52.3814 82.5278C52.5327 82.6354 52.6984 82.4059 52.5471 82.2983Z" fill="#F70032"/>
<path d="M53.1882 81.3445C52.9865 81.201 52.7704 81.5094 52.9649 81.6529C53.1666 81.7891 53.3827 81.4879 53.1882 81.3445Z" fill="#F70032"/>
<path d="M53.3827 80.2256C53.1882 80.0893 52.9721 80.3905 53.1666 80.5268C53.3611 80.6631 53.5772 80.369 53.3827 80.2256Z" fill="#F70032"/>
<path d="M53.2027 78.9849C53.1883 78.9849 53.1811 78.9777 53.1667 78.9777C53.037 78.949 52.9434 79.0709 53.0154 79.1857C53.0226 79.1929 53.0298 79.2072 53.037 79.2144C53.1739 79.4224 53.4476 79.0422 53.2027 78.9849Z" fill="#F70032"/>
<path d="M52.3671 78.1027C52.3527 78.0956 52.3455 78.0955 52.3311 78.0884C52.1654 78.0238 52.0142 78.2318 52.1294 78.3681C52.1366 78.3753 52.1438 78.3896 52.151 78.3968C52.3599 78.6406 52.6624 78.2175 52.3671 78.1027Z" fill="#F70032"/>
<path d="M51.1426 77.8732C50.9842 77.7584 50.8041 78.0094 50.9625 78.1242C51.1282 78.2318 51.3083 77.9879 51.1426 77.8732Z" fill="#F70032"/>
<path d="M50.0045 78.282C49.8532 78.1744 49.6804 78.4111 49.8316 78.5187C49.9901 78.6263 50.163 78.3896 50.0045 78.282Z" fill="#F70032"/>
<path d="M49.0681 79.2574C48.924 79.1569 48.7655 79.3793 48.9096 79.4797C49.0537 79.5801 49.2121 79.3578 49.0681 79.2574Z" fill="#F70032"/>
<path d="M48.7943 80.4121C48.6142 80.283 48.4054 80.5627 48.5926 80.6918C48.7727 80.8281 48.9816 80.5412 48.7943 80.4121Z" fill="#F70032"/>
<path d="M49.2266 81.5668C49.0105 81.409 48.7656 81.7461 48.9889 81.9039C49.205 82.0617 49.4427 81.7246 49.2266 81.5668Z" fill="#F70032"/>
<path d="M50.1773 82.3987C50.1701 82.3915 50.1557 82.3844 50.1413 82.3772C49.9612 82.2768 49.81 82.4919 49.9612 82.6282C49.9684 82.6354 49.9829 82.6425 49.9901 82.6569C50.1413 82.8003 50.3574 82.4991 50.1773 82.3987Z" fill="#F70032"/>
<path d="M33.8694 57.5765C34.8923 56.7015 35.8503 54.8799 36.0087 53.5459C36.3113 50.9568 34.9139 52.4127 33.783 51.7457C33.2139 51.4086 32.5944 51.0644 31.939 51.1289C31.3987 51.1863 28.8704 49.3001 28.4886 49.6874C26.0035 52.1545 24.0515 56.221 21.6024 59.2548C21.0333 59.9576 20.4499 60.768 20.5147 61.6717C20.5579 62.2383 21.4871 63.6512 21.7681 64.1389C23.857 67.7751 25.773 71.1674 27.862 74.8036C27.9412 74.9398 28.0276 75.0833 28.1501 75.1909C28.8128 75.7503 31.053 76.7257 31.9101 76.8906C30.7864 72.5874 30.3615 66.5343 27.084 62.8264C26.8319 62.5395 26.9399 62.0877 27.2641 61.8869C29.4467 60.5027 31.9246 59.2476 33.8694 57.5765Z" fill="#0C0A35"/>
<path d="M29.0721 26.2423C26.3709 26.1634 23.6553 27.1531 21.66 28.9604C21.2782 29.3047 20.9037 29.7135 20.8532 30.2227C20.7596 31.0905 21.6024 31.7288 22.2435 32.3313C23.043 33.0843 24.851 32.0874 25.1679 33.1417C25.4057 33.9378 25.6145 34.7052 25.665 36.2974C25.809 40.6508 26.5366 46.1588 28.4958 50.0604C30.3614 50.1608 31.269 50.3831 33.1347 50.4835C33.6965 50.5122 38.004 51.8964 37.9896 51.337C37.8816 47.8801 36.0952 47.7869 36.4985 45.5994C36.8947 43.4335 37.8672 42.7952 39.0629 39.9192C39.8192 38.1047 41.2382 36.9644 42.859 35.8384C44.0331 35.0208 45.733 34.5761 47.0368 33.988C47.1953 33.9163 47.3609 33.8302 47.4402 33.6796C47.5266 33.5075 47.4762 33.2995 47.4186 33.113C46.8855 31.4778 45.6538 30.1438 44.2348 29.1756C42.8157 28.2074 41.195 27.5619 39.5959 26.9308C37.1612 25.9697 34.4024 25.0159 31.9966 26.0558L29.0721 26.2423Z" fill="#F70032"/>
<path d="M32.2775 16.89C32.4432 16.1441 32.5729 15.3911 32.6809 14.6308C32.861 13.2825 32.9402 11.8911 32.5729 10.5858C32.2055 9.27338 31.3339 8.04697 30.059 7.54493C30.4407 7.37998 31.4204 7.58079 32.2991 8.14021C33.1923 8.69962 33.8046 9.65349 34.0783 10.6647C34.2008 11.1166 34.3016 11.7907 34.3376 12.2569C34.3953 13.053 34.4385 13.5909 34.5826 14.3224C34.6042 14.4085 34.7266 14.4228 34.7554 14.3368C35.3893 12.7016 35.1732 11.1381 35.4613 9.35944C35.6558 8.13304 35.8575 6.66995 36.7507 5.63719C37.5719 6.94966 37.507 8.757 37.3702 10.299C37.2405 11.7118 36.9452 13.1176 36.9596 14.5376C36.9596 14.6021 37.0532 14.6165 37.0749 14.5519C37.6943 12.4936 38.4291 10.3061 40.0426 8.90044C40.4964 8.49881 41.1951 8.24061 41.6993 7.90353C42.1675 7.59514 42.6141 7.30826 43.1687 7.38715C41.8217 9.10125 40.662 10.9588 39.7184 12.9167C39.3655 13.6411 39.0413 14.4085 38.9765 15.2046C38.9693 15.3193 39.1206 15.3767 39.1854 15.2763C39.9777 14.0069 40.8349 12.7374 42.0883 11.9198C43.5721 10.9588 46.1581 10.4783 47.4907 10.8512C46.9144 11.1094 45.8627 11.3604 45.1136 11.8194C43.9755 12.5151 43.284 13.3112 42.3764 14.2938C41.476 15.2763 40.9358 16.6103 40.6116 17.8941C40.5684 18.059 40.5324 18.224 40.4315 18.3603C40.2371 18.6184 39.8553 18.6687 39.5311 18.6041C38.9261 18.4965 38.4074 18.1164 37.8384 17.8797C36.1024 17.1482 33.9775 17.7435 32.2775 16.89Z" fill="#D6002B"/>
<path d="M32.7457 24.4923C30.4983 25.1665 28.1284 25.4175 25.7946 25.231C25.737 25.2238 25.6505 25.231 25.6433 25.2884C25.6217 25.4103 25.8738 25.6541 26.1043 25.7617C27.1992 26.2781 29.3386 26.4359 29.5475 26.5578C29.8428 26.7228 28.9712 26.8662 28.6471 26.981C27.1128 27.5189 25.9675 27.9922 25.3408 28.0496C25.2688 28.0568 25.1967 28.0639 25.1463 28.1141C25.0815 28.1859 25.1031 28.3078 25.1679 28.3723C25.2328 28.444 25.3336 28.4727 25.4272 28.4942C26.8391 28.8959 28.3445 28.9819 29.7924 28.7524C29.9004 28.7381 29.9797 28.8313 29.9508 28.9317C29.5619 30.1581 28.539 31.0833 27.8619 32.1735C27.7395 32.3169 27.617 32.4532 27.4946 32.5966C27.4225 32.6683 27.4874 32.7831 27.5882 32.7687C28.7623 32.5966 29.8788 32.0372 30.7216 31.1981C31.0529 30.8682 31.3483 30.4881 31.73 30.2227C31.8165 30.1653 31.9245 30.2227 31.9317 30.3231C32.0037 31.8077 32.5008 33.1991 33.4804 34.3179C33.538 34.3896 33.6533 34.3537 33.6749 34.2677C33.9054 33.1632 34.0855 32.5894 34.5465 31.5638C34.5753 31.4993 34.7121 31.1909 34.8274 30.9973C34.8706 30.9255 34.9787 30.9255 35.0147 31.0044C35.2884 31.5638 35.5189 31.9798 35.8142 32.5321C35.9727 32.8261 36.2752 33.156 36.4985 33.4357C36.6426 33.615 36.9019 33.8732 37.082 34.0238L37.8311 34.6478C37.8671 34.6765 37.9248 34.6478 37.9176 34.6048C37.8023 33.2851 37.2044 31.9726 37.5502 30.696C37.5934 30.5311 37.7807 30.445 37.9392 30.5096C38.6091 30.7749 39.1781 30.9973 39.8408 31.3128C40.7412 31.7431 42.578 32.6827 42.7221 32.4819C42.7869 32.3886 42.1962 31.6427 41.9081 31.3343C41.3463 30.7319 40.309 29.4338 40.0641 29.0537C40.0353 29.0106 40.0713 28.9532 40.1217 28.9532C41.4543 29.0608 42.9526 29.5414 44.314 29.8856C44.4436 29.9215 44.5301 29.7493 44.422 29.6633C43.6297 29.068 42.7509 28.3078 42.0522 27.7484C41.2022 27.0742 40.4099 26.1992 40.3954 25.1163C40.3882 24.6788 40.4819 24.1911 40.1938 23.8612C39.9777 23.6101 39.6103 23.5528 39.2934 23.5026C38.4866 23.3735 37.6582 23.3304 36.8371 23.3519C36.0159 23.3806 35.1587 23.3448 34.3592 23.5743C33.7037 23.7607 33.3868 24.2986 32.7457 24.4923Z" fill="#222272"/>
<path d="M32.0182 17.6503C32.0902 17.8439 32.0254 18.0662 31.9678 18.2671C31.6652 19.2424 31.4275 20.2393 31.2619 21.2434C31.197 21.645 31.1394 22.0682 31.2907 22.4555C31.4131 22.7567 31.658 23.0436 31.6004 23.3591C31.7301 23.5313 31.5212 23.7608 31.3195 23.8468C31.1178 23.9329 30.8945 23.9114 30.6856 23.9759C30.3975 24.062 30.167 24.3202 30.1094 24.6142C30.0517 24.9083 30.1742 25.231 30.4047 25.4247C30.5776 25.5609 30.7865 25.6255 31.0025 25.69C32.4288 26.106 33.9703 26.522 35.3605 26.0056C36.16 25.7044 36.8083 25.1306 37.4422 24.564C38.1625 23.9257 38.89 23.2659 39.3438 22.4124C39.7976 21.5662 39.9129 20.476 39.4015 19.6656C39.2214 19.3787 38.9693 19.1492 38.7027 18.9412C37.0676 17.6718 34.8635 17.4781 32.7961 17.3347C32.5944 17.3204 32.3784 17.306 32.1911 17.3921C31.9966 17.471 31.9462 17.4638 32.0182 17.6503Z" fill="#FFD6A1"/>
<path d="M32.2415 21.0641C32.3783 21.0426 32.6664 20.9422 32.7313 20.8203C32.9978 20.3541 32.5296 20.0529 32.155 19.9022C31.233 19.5365 30.844 19.3572 29.4754 19.3285C29 19.3141 28.8632 19.515 28.7839 19.6441C28.6759 19.8018 28.7839 20.017 28.9208 20.1533C29.2737 20.5047 29.8644 20.6768 30.3542 20.7772C31.0385 20.9135 31.5499 21.186 32.2415 21.0641Z" fill="#D6002B"/>
<path d="M35.2596 20.2752C35.0147 20.2107 34.7842 20.1103 34.5537 20.0098C34.208 19.8592 33.855 19.7086 33.5453 19.4863C34.2296 19.2138 35.0075 19.2353 35.7279 19.3859C36.3113 19.515 36.9164 19.7588 37.2405 20.2609C36.585 20.3541 35.9079 20.4402 35.2596 20.2752Z" fill="white"/>
<path d="M33.8983 22.6347C33.9415 22.7208 33.8982 22.8284 33.8046 22.8571C33.5957 22.9359 33.394 23.0148 33.1491 23.0722C31.8598 23.3447 32.1623 22.0395 31.7733 22.7208C31.7013 22.8499 31.6941 23.0077 31.7733 23.1296C31.903 23.3304 32.1119 23.3448 32.3496 23.3878C32.7601 23.4523 32.9906 23.481 33.6317 23.2874C33.819 23.23 33.9127 23.1152 34.0063 23.1152C34.0999 23.1152 34.0711 23.273 34.1288 23.3448C34.2296 23.4093 34.2512 23.3591 34.3232 23.3304C34.4097 23.2945 34.4457 23.1941 34.4025 23.1081C34.2944 22.9288 34.2368 22.6993 34.1504 22.3909C34.1288 22.3048 33.9559 22.3263 33.8838 22.3694C33.8334 22.4124 33.855 22.5415 33.8983 22.6347Z" fill="#0C0A35"/>
<path d="M37.1972 22.9646C37.3701 22.814 37.4638 22.5917 37.507 22.3622C37.5286 22.2474 37.543 22.1327 37.5142 22.0251C37.4277 21.6593 37.01 21.5087 36.6426 21.4155C35.8935 21.2362 35.7278 22.1112 35.7566 22.4483C35.771 22.6132 35.8142 22.7782 35.9295 22.8929C35.9943 22.9646 36.0807 23.0077 36.1744 23.0435C36.5057 23.187 36.9235 23.1941 37.1972 22.9646Z" fill="#F70032"/>
<path d="M31.5859 16.4955C31.6868 16.4023 31.8525 16.18 32.2198 16.2087C34.1719 16.3664 38.4001 17.6359 40.5395 18.1881C41.4255 18.4105 40.9861 19.6656 40.4891 19.6512C39.7327 19.6225 35.9079 18.6758 33.4084 18.0949C33.0122 18.0017 32.0758 17.8224 31.766 17.5642C31.4635 17.2988 31.2978 16.7753 31.5859 16.4955Z" fill="#191956"/>
<path d="M29.9005 8.36975C29.8069 8.37692 29.7132 8.36258 29.6268 8.31955C29.4323 8.21197 29.173 8.08287 29.137 7.73862C29.0866 7.22224 29.3171 7.05011 29.5836 6.89233C29.6556 6.8493 29.742 6.83495 29.8213 6.83495C30.2247 6.82061 30.6064 7.16486 30.6208 7.56649C30.6496 7.96812 30.52 8.32672 29.9005 8.36975Z" fill="#0C0A35"/>
<path d="M36.0807 5.15663C35.8935 5.45786 35.8502 5.85949 36.0087 6.18222C36.16 6.50496 36.5057 6.73447 36.8659 6.72729C37.226 6.72012 37.7519 6.34001 37.7591 5.8308C37.7591 5.54392 37.651 5.07057 37.1828 4.94147C36.4553 4.755 36.2032 4.97016 36.0807 5.15663Z" fill="#0C0A35"/>
<path d="M44.0331 7.4158C44.0331 7.27953 43.9826 7.14327 43.9106 7.02134C43.7665 6.77032 43.5144 6.56951 43.2263 6.53365C42.8445 6.49062 42.3331 6.8779 42.2611 7.25802C42.2179 7.48752 42.3259 7.70268 42.4412 7.9035C42.5996 8.19755 42.9742 8.37684 43.2983 8.34098C43.5721 8.3123 43.7881 8.08279 43.9178 7.83178C43.9826 7.70985 44.0331 7.55924 44.0331 7.4158Z" fill="#0C0A35"/>
<path d="M46.8351 11.26C47.0728 11.6186 47.6275 11.7118 47.9948 11.4751C48.1821 11.3532 48.5351 10.9444 48.2829 10.5284C48.1749 10.342 47.9948 10.1985 47.8003 10.1125C47.4978 9.97621 47.1088 10.0694 46.8927 10.3276C46.6766 10.5858 46.655 10.9803 46.8351 11.26Z" fill="#0C0A35"/>
<path d="M28.3014 21.1C27.6675 20.8992 26.9472 20.9996 26.3853 21.3582C25.8235 21.7168 25.4345 22.3264 25.3553 22.9862C25.3409 23.1153 25.3409 23.2587 25.4273 23.3591C25.4777 23.4165 25.557 23.4524 25.6362 23.4667C25.9604 23.5313 26.2773 23.3448 26.515 23.1225C26.7527 22.9001 26.9472 22.6204 27.2209 22.4411C27.4946 22.2547 27.8764 22.1758 28.1429 22.3766C28.4527 22.6133 28.4238 23.0866 28.6255 23.4165C28.7984 23.6962 29.1442 23.854 29.4683 23.7966C30.1454 23.6819 30.5272 22.7782 31.2115 22.7782C31.2547 22.7782 31.3051 22.7854 31.3411 22.8069C31.4564 22.8786 31.4276 23.0436 31.4564 23.1798C31.5212 23.4811 31.9822 23.5671 32.2127 23.352C32.4432 23.144 32.4504 22.7639 32.3136 22.4842C32.0398 21.9104 31.2115 21.6952 30.6928 22.061C30.3759 22.2833 30.1022 22.685 29.7276 22.6061C29.3242 22.5128 29.2738 21.9749 29.0577 21.6307C28.892 21.351 28.6039 21.186 28.3014 21.1Z" fill="#B70027"/>
<path d="M35.4181 20.2608C35.627 20.311 35.8431 20.1748 35.8935 19.974C35.944 19.766 35.8071 19.5508 35.6054 19.5006C35.3965 19.4504 35.1804 19.5867 35.13 19.7875C35.0796 20.0027 35.2164 20.2106 35.4181 20.2608Z" fill="#0C0A35"/>
<path d="M35.1947 21.0497C35.2019 21.0497 35.2092 21.0426 35.2164 21.0426C35.3604 20.9924 35.3964 20.8274 35.2956 20.7198C35.2884 20.7127 35.2884 20.7055 35.2812 20.7055C35.1731 20.5907 34.9642 20.6625 34.9282 20.8059C34.8922 20.9493 35.0435 21.1071 35.1947 21.0497Z" fill="#0C0A35"/>
<path d="M30.7793 20.7414C30.9882 20.7916 31.0674 20.4688 30.8585 20.4186C30.6496 20.3684 30.5704 20.6983 30.7793 20.7414Z" fill="#0C0A35"/>
<path d="M31.1826 20.8777C31.4419 20.935 31.5355 20.5406 31.2762 20.476C31.0169 20.4186 30.9232 20.8203 31.1826 20.8777Z" fill="#0C0A35"/>
<path d="M32.5944 17.5284C32.861 17.5929 33.1347 17.4208 33.1923 17.1626C33.2571 16.8972 33.0843 16.6247 32.8249 16.5673C32.5584 16.5028 32.2847 16.6749 32.2271 16.9331C32.1622 17.1913 32.3279 17.4638 32.5944 17.5284Z" fill="#222272"/>
<path d="M33.9631 17.851C34.2584 17.9228 34.5609 17.7363 34.6258 17.4422C34.6978 17.1482 34.5105 16.847 34.2152 16.7752C33.9199 16.7035 33.6173 16.89 33.5525 17.184C33.4877 17.4781 33.6677 17.7793 33.9631 17.851Z" fill="#222272"/>
<path d="M35.0363 17.9228C35.0363 17.9299 35.0435 17.9371 35.0435 17.9371C35.1731 18.1307 35.4108 18.2312 35.6413 18.1594C35.771 18.1164 35.9006 18.0375 35.9655 17.9156C36.0807 17.6861 36.0087 17.4709 35.8502 17.2845C35.6485 17.0621 35.31 17.1195 35.1083 17.2988C35.1011 17.306 35.1011 17.306 35.0939 17.3131C34.9354 17.4638 34.9138 17.7506 35.0363 17.9228Z" fill="#222272"/>
<path d="M37.2116 17.5713C37.2044 17.5713 37.2044 17.5641 37.1972 17.5641C36.9163 17.4637 36.5994 17.7076 36.5345 17.9729C36.4985 18.1164 36.5273 18.267 36.5994 18.3889C36.6858 18.5252 36.8011 18.5826 36.9451 18.6328C37.2333 18.7403 37.5934 18.5395 37.6654 18.2455C37.6943 18.1092 37.6654 17.9514 37.5934 17.8367C37.4998 17.6932 37.3629 17.6143 37.1972 17.5641C37.3413 17.7363 37.4782 17.9084 37.6222 18.0805C37.6222 18.0734 37.6222 18.0734 37.6222 18.0662C37.615 17.9729 37.5934 17.8869 37.543 17.808C37.4638 17.6717 37.3557 17.6215 37.2116 17.5713Z" fill="#222272"/>
<path d="M38.0616 18.7547C38.1552 18.891 38.2633 18.9914 38.4289 19.0273C38.609 19.0703 38.7531 19.0201 38.9116 18.9484C39.034 18.891 39.1204 18.7404 39.1493 18.6185C39.1997 18.4177 39.1205 18.2599 38.998 18.1093C38.926 18.0232 38.7963 17.9515 38.6883 17.93C38.5226 17.8941 38.3857 17.9371 38.2345 18.0089C37.9896 18.1451 37.8959 18.5324 38.0616 18.7547Z" fill="#222272"/>
<path d="M39.9849 19.4073C40.0642 19.4002 40.1362 19.3786 40.2154 19.3643C40.3883 19.3284 40.4892 19.2137 40.5828 19.0774C40.518 19.142 40.4531 19.2137 40.3883 19.2782C40.3955 19.2711 40.4027 19.2711 40.4027 19.2639C40.518 19.1707 40.6044 19.0918 40.6404 18.9412C40.6764 18.7977 40.6404 18.6758 40.5756 18.5467C40.59 18.5826 40.6044 18.6112 40.6188 18.6471C40.59 18.5539 40.5396 18.4678 40.4676 18.4033C40.3883 18.3244 40.2875 18.2813 40.1794 18.2598C39.9417 18.2096 39.7328 18.2885 39.5528 18.4463C39.4015 18.5754 39.3655 18.8192 39.4231 19.0057C39.4951 19.2424 39.7328 19.4217 39.9849 19.4073Z" fill="#222272"/>
<path d="M38.7964 25.4462C39.2646 26.6511 40.345 26.4144 40.7916 26.2925C41.2454 26.1706 41.5984 25.647 41.4039 25.2239C41.8505 25.5394 42.5132 25.5538 43.039 25.4103C43.3776 25.3171 43.5865 24.98 43.7738 24.6286C43.8962 24.3991 43.9538 23.9329 43.925 23.6747C43.8602 23.1153 43.2263 22.8428 42.6861 22.6778C43.1039 22.7208 43.4424 22.226 43.32 21.8244C43.2047 21.4227 42.7581 21.1789 42.3331 21.186C42.8085 21.0641 43.0534 20.4617 42.8878 20.0027C42.7221 19.5437 42.2467 19.2353 41.7641 19.1707C41.2743 19.099 40.7772 19.2209 40.3234 19.4002C40.2226 19.0631 39.0485 18.6687 38.4074 19.1564C38.1049 19.3859 37.7591 19.7803 37.7735 20.1605C37.7879 20.7557 38.3642 21.1645 38.89 21.4658C38.3642 21.7024 37.932 22.226 37.9464 22.8069C37.968 23.3878 38.5659 23.9186 39.1205 23.7393C38.818 24.2556 38.5731 24.8724 38.7964 25.4462Z" fill="#990028"/>
<path d="M33.1778 12.5653C32.9689 13.1534 33.149 13.8275 33.0265 14.4372C32.9329 14.9248 32.6376 15.5273 33.0914 15.9146C33.2787 16.0724 33.6388 16.1297 33.8117 15.9002C34.0998 15.5058 34.1574 14.7742 34.1358 14.2794C34.1142 13.6984 33.9558 12.8665 33.4876 12.4792C33.3723 12.3788 33.2282 12.429 33.1778 12.5653Z" fill="#0C0A35"/>
<path d="M35.7854 13.1391C35.3244 14.0069 35.2379 14.9392 35.0146 15.8788C34.8418 16.6103 35.9799 16.8828 36.1599 16.1513C36.3977 15.1831 36.2824 14.2364 36.2752 13.261C36.2752 12.9956 35.9078 12.9096 35.7854 13.1391Z" fill="#0C0A35"/>
<path d="M38.0255 13.7558C37.687 14.3153 37.4781 14.9249 37.2692 15.5417C37.1395 15.9218 36.9811 16.4525 37.2332 16.8183C37.6077 17.3705 38.4433 16.9904 38.2848 16.3449C38.2416 16.18 38.3497 15.8859 38.3857 15.6923C38.5009 15.0898 38.5514 14.473 38.5009 13.8634C38.4793 13.6124 38.1552 13.5407 38.0255 13.7558Z" fill="#0C0A35"/>
<path d="M40.6835 14.6022C40.6259 14.6882 40.3738 14.8891 40.2657 15.011C40.0136 15.2835 39.7903 15.5704 39.5958 15.886C39.2933 16.3736 38.9043 17.3275 39.7183 17.5642C39.9992 17.6431 40.3666 17.4351 40.4098 17.141C40.4098 17.1124 40.3882 16.6534 40.4098 16.89C40.4242 17.0191 40.4386 16.8183 40.453 16.7609C40.5323 16.5243 40.6547 16.2948 40.7483 16.0653C40.8924 15.7067 40.9861 15.2046 41.2022 14.8891C41.4038 14.5735 40.8924 14.301 40.6835 14.6022Z" fill="#0C0A35"/>
<path d="M36.7939 10.2415C36.8011 10.2344 36.8083 10.2272 36.8083 10.22C37.0676 9.82558 36.6066 9.27333 36.1672 9.43829C36.16 9.43829 36.1456 9.44546 36.1384 9.44546C35.8071 9.56739 35.627 9.9475 35.8287 10.2702C35.9367 10.4352 36.124 10.5428 36.3257 10.5356C36.5346 10.5213 36.6858 10.4065 36.7939 10.2415Z" fill="#0C0A35"/>
<path d="M32.9834 10.5142C33.2067 10.5644 33.43 10.4281 33.4876 10.2058C33.538 9.98343 33.4012 9.7611 33.1779 9.7109C32.9546 9.66069 32.7313 9.79696 32.6737 10.0193C32.6232 10.2416 32.7673 10.464 32.9834 10.5142Z" fill="#0C0A35"/>
<path d="M39.5022 11.2888C39.5095 11.2959 39.5239 11.3031 39.5311 11.3103C39.7472 11.4465 40.0137 11.3605 40.1793 11.2099C40.1865 11.2027 40.1866 11.2027 40.1938 11.1955C40.3162 11.0879 40.3738 10.8513 40.3162 10.7007C40.3162 10.6935 40.309 10.6863 40.309 10.6863C40.2226 10.4711 40.0281 10.2775 39.7688 10.3062C39.7544 10.3062 39.7472 10.3062 39.7328 10.3134C39.495 10.3421 39.2934 10.4783 39.2357 10.715C39.1853 10.9445 39.3078 11.1597 39.5022 11.2888Z" fill="#0C0A35"/>
<path d="M42.3619 13.3112C42.5996 13.3829 42.8013 13.2897 42.9813 13.1391C43.1974 12.9598 43.1686 12.5582 42.9597 12.386C42.8661 12.3071 42.8013 12.2784 42.686 12.2282C42.5636 12.178 42.4483 12.2067 42.3259 12.2282C42.0809 12.2713 41.9225 12.551 41.9297 12.7805C41.9369 13.053 42.117 13.2395 42.3619 13.3112Z" fill="#0C0A35"/>
<path d="M36.1456 11.3963C36.3257 11.4393 36.5202 11.3246 36.5634 11.1381C36.6066 10.9588 36.4913 10.7651 36.3041 10.7221C36.124 10.6791 35.9295 10.7938 35.8863 10.9803C35.8431 11.1596 35.9583 11.3532 36.1456 11.3963Z" fill="#0C0A35"/>
<path d="M36.2969 9.30206C36.4697 9.34509 36.6498 9.23034 36.6858 9.06539C36.7291 8.89326 36.621 8.71396 36.4481 8.6781C36.2753 8.63507 36.0952 8.74982 36.0592 8.91478C36.0087 9.07973 36.124 9.25903 36.2969 9.30206Z" fill="#0C0A35"/>
<path d="M33.2571 11.2027C33.5884 11.2816 33.7037 10.7723 33.3795 10.6935C33.0482 10.6217 32.9329 11.1238 33.2571 11.2027Z" fill="#0C0A35"/>
<path d="M32.6953 9.53876C32.9546 9.6033 33.0482 9.20167 32.7889 9.1443C32.5368 9.07975 32.4432 9.48138 32.6953 9.53876Z" fill="#0C0A35"/>
<path d="M39.0341 11.8984C39.0341 11.8984 39.0413 11.9055 39.0413 11.9127C39.135 12.0131 39.3006 12.0203 39.4087 11.9486C39.5599 11.8553 39.5815 11.6832 39.5095 11.5326C39.5095 11.5254 39.5023 11.5254 39.5023 11.5182C39.4303 11.3676 39.2142 11.3389 39.0845 11.4178C38.9117 11.5254 38.8972 11.7549 39.0341 11.8984Z" fill="#0C0A35"/>
<path d="M40.1505 10.2775C40.4819 10.3564 40.6043 9.83999 40.273 9.7611C39.9417 9.68221 39.8192 10.1986 40.1505 10.2775Z" fill="#0C0A35"/>
<path d="M41.7857 13.8204C41.937 13.8563 42.0882 13.763 42.1242 13.6124C42.1603 13.4618 42.0666 13.3112 41.9153 13.2753C41.7641 13.2395 41.6128 13.3327 41.5768 13.4833C41.5408 13.6339 41.6416 13.7845 41.7857 13.8204Z" fill="#0C0A35"/>
<path d="M43.1543 12.0992C43.1255 12.1422 43.1183 12.1852 43.1255 12.2283C43.1327 12.3861 43.3128 12.4793 43.4425 12.4004C43.5649 12.3287 43.5865 12.0992 43.4353 12.0418C43.4425 12.049 43.4497 12.049 43.4569 12.0561C43.3632 11.9557 43.212 11.9988 43.1543 12.0992Z" fill="#0C0A35"/>
<path d="M33.5452 14.6524C33.8549 14.7241 33.9702 14.2507 33.6604 14.1719C33.3435 14.1001 33.2354 14.5807 33.5452 14.6524Z" fill="#F70032"/>
<path d="M36.0087 14.8245C35.9438 14.7384 35.8646 14.681 35.7566 14.6882C35.6341 14.6954 35.5189 14.7814 35.4901 14.9034C35.4684 14.9966 35.4973 15.1042 35.5693 15.1687C35.6701 15.262 35.7926 15.262 35.9078 15.2046H35.915C36.0447 15.14 36.0951 14.9321 36.0087 14.8245Z" fill="#F70032"/>
<path d="M37.7448 15.8501C38.1121 15.9362 38.249 15.3696 37.8816 15.2835C37.5143 15.1903 37.3774 15.764 37.7448 15.8501Z" fill="#F70032"/>
<path d="M40.0137 16.5601C40.381 16.6462 40.5179 16.0796 40.1505 15.9935C39.7832 15.9003 39.6463 16.4741 40.0137 16.5601Z" fill="#F70032"/>
<path d="M33.4947 13.928C33.502 13.928 33.502 13.9352 33.5092 13.9352C33.6748 13.9997 33.7829 13.7128 33.6244 13.6411C33.6172 13.6411 33.6172 13.634 33.61 13.634C33.3939 13.5479 33.2787 13.8491 33.4947 13.928Z" fill="#F70032"/>
<path d="M33.5021 15.1687C33.7037 15.2189 33.7758 14.9033 33.5741 14.8531C33.3724 14.8101 33.3004 15.1257 33.5021 15.1687Z" fill="#F70032"/>
<path d="M35.6485 15.4915C35.4468 15.5345 35.526 15.8429 35.7205 15.7855C35.9078 15.7281 35.8285 15.4556 35.6485 15.4915Z" fill="#F70032"/>
<path d="M35.7062 14.2651V14.2723C35.6702 14.5089 35.9871 14.5807 36.0592 14.3583V14.3512C36.1384 14.1288 35.7422 14.0356 35.7062 14.2651Z" fill="#F70032"/>
<path d="M37.9969 15.0755C38.2058 15.0898 38.2058 14.7456 37.9969 14.7528C37.788 14.7599 37.8024 15.0612 37.9969 15.0755Z" fill="#F70032"/>
<path d="M37.579 16.1298C37.579 16.1369 37.5718 16.1369 37.5718 16.1441C37.5286 16.223 37.5574 16.3306 37.6367 16.3736C37.6367 16.3736 37.6439 16.3736 37.6439 16.3808C37.7519 16.4382 37.8816 16.3593 37.8816 16.2373C37.8816 16.2158 37.8744 16.1943 37.8672 16.1656C37.8383 16.0222 37.6511 16.015 37.579 16.1298Z" fill="#F70032"/>
<path d="M40.0281 16.7967C39.9201 16.6174 39.6392 16.7752 39.7472 16.9545C39.8552 17.1266 40.129 16.9689 40.0281 16.7967Z" fill="#F70032"/>
<path d="M40.3235 15.8716C40.5396 15.9218 40.6188 15.5919 40.4027 15.5417C40.1866 15.4914 40.1074 15.8214 40.3235 15.8716Z" fill="#F70032"/>
<path d="M36.376 8.37692C36.6353 8.44147 36.9091 8.26934 36.9667 8.01115C37.0315 7.75296 36.8658 7.48043 36.5993 7.42305C36.34 7.3585 36.0663 7.53063 36.0087 7.78882C35.9438 8.04701 36.1167 8.31955 36.376 8.37692Z" fill="#990028"/>
<path d="M32.1839 8.90044C32.5296 8.97933 32.6593 8.4486 32.3135 8.36971C31.9678 8.28365 31.8381 8.81437 32.1839 8.90044Z" fill="#990028"/>
<path d="M40.6981 9.67498C40.835 9.77538 41.0511 9.7467 41.1807 9.66063C41.4472 9.49568 41.4832 9.12274 41.26 8.90758C41.0727 8.72828 40.7629 8.73545 40.5757 8.92192C40.4892 9.01516 40.4388 9.14425 40.446 9.26617C40.4532 9.45265 40.5612 9.57457 40.6981 9.67498Z" fill="#990028"/>
<path d="M43.6225 11.8768C43.6225 11.884 43.6225 11.8912 43.6225 11.8983C43.6513 12.0561 43.8025 12.1493 43.9394 12.1996C44.0763 12.2426 44.1843 12.1996 44.3068 12.1493C44.5157 12.0561 44.5517 11.7477 44.4436 11.5756C44.35 11.425 44.1843 11.3246 44.0042 11.3389C43.7161 11.3604 43.572 11.6043 43.6225 11.8768Z" fill="#990028"/>
<path d="M41.3824 19.3357C40.7845 18.848 40.3091 19.9596 40.3811 20.433C40.4892 21.1788 41.512 21.5661 42.1027 21.1071C42.6429 20.6912 42.7078 19.5938 41.9154 19.4217C41.5264 19.3357 41.1159 19.6225 41.0438 20.0026C40.9718 20.433 41.3896 20.8203 41.793 20.6266C42.0163 20.519 41.865 20.225 41.6705 20.2106C41.3536 20.1891 41.5913 19.8592 41.8002 19.8377C42.0379 19.809 42.1315 20.0672 42.1315 20.2537C42.1459 20.6194 41.7786 20.9493 41.4256 20.9063C41.0582 20.8633 40.7413 20.5334 40.7845 20.1533C40.8277 19.8162 40.943 19.4361 41.3464 19.4361C41.3968 19.4361 41.4256 19.3715 41.3824 19.3357Z" fill="#D6002B"/>
<path d="M40.5539 20.5908C40.2297 20.9278 39.8047 21.0139 39.3653 20.8848C39.106 20.8059 38.926 20.6338 38.8827 20.3613C38.8323 20.0672 38.9115 19.7158 39.2501 19.6584C39.4086 19.6297 39.5526 19.7158 39.6679 19.8234C39.7471 19.9022 39.9632 20.3182 39.7759 20.3971C39.6679 20.4401 39.5526 20.3111 39.5094 20.2393C39.4806 20.1891 39.495 20.1174 39.4734 20.2178C39.4878 20.1604 39.5238 20.0385 39.4734 20.1748C39.495 20.1174 39.4662 20.0529 39.423 20.0098C39.3509 19.9381 39.2789 19.9309 39.1853 19.9453C39.1132 19.9596 39.0412 20.0385 39.034 20.1102C38.9692 20.5262 39.6535 20.8346 39.9776 20.6338C40.2441 20.4617 40.2081 20.0672 40.1577 19.809C40.1001 19.4719 39.7111 19.2353 39.3942 19.1994C38.3785 19.1062 38.1624 20.3684 38.7099 21.0067C39.2357 21.6235 40.5395 21.5446 40.7123 20.684C40.7412 20.5908 40.6259 20.519 40.5539 20.5908Z" fill="#D6002B"/>
<path d="M41.7065 21.1717C41.3823 20.6768 40.9933 21.4873 40.9573 21.767C40.8709 22.4124 41.6776 23.0292 42.2899 22.8858C42.931 22.7352 43.3992 21.853 42.7293 21.4155C42.2539 21.1143 41.3607 21.7454 41.9226 22.1758C42.081 22.2977 42.3475 22.1829 42.2755 21.9606C42.2395 21.853 42.1963 21.8745 42.2971 21.8387C42.4196 21.7957 42.5348 21.8387 42.578 21.9534C42.6429 22.1112 42.4772 22.2762 42.3692 22.3551C42.2323 22.4555 42.081 22.4411 41.9226 22.3981C41.6921 22.3335 41.3967 22.0538 41.4327 21.7957C41.4399 21.7383 41.5264 21.308 41.6056 21.3151C41.6776 21.3223 41.7569 21.2506 41.7065 21.1717Z" fill="#D6002B"/>
<path d="M41.1806 21.1789C41.0581 21.0211 40.9501 20.8059 40.7196 20.8059C40.5323 20.8059 40.3522 20.892 40.2154 21.0139C39.9056 21.2864 39.8336 21.6379 40.1073 21.9606C40.345 22.2331 40.7772 22.269 40.9861 21.9606C41.0725 21.8315 41.1013 21.6737 41.0509 21.5231C41.0221 21.4442 40.9645 21.3797 40.8925 21.3438C40.7988 21.2936 40.6836 21.3438 40.6476 21.3582C40.5467 21.3869 40.5251 21.5375 40.6259 21.5877C40.6403 21.5948 40.6476 21.602 40.662 21.6092C40.6404 21.5805 40.6187 21.5518 40.5971 21.5231C40.6403 21.6379 40.77 21.6666 40.7052 21.8028C40.6187 21.9965 40.3306 21.7311 40.273 21.645C40.1721 21.4801 40.3954 21.2936 40.5107 21.2076C40.7124 21.0569 40.9213 21.1502 41.1374 21.2219C41.1662 21.2434 41.195 21.2004 41.1806 21.1789Z" fill="#D6002B"/>
<path d="M40.1434 21.9965C40.2154 22.3766 40.129 22.8714 39.776 23.0938C39.5167 23.2587 39.1061 23.1942 38.9188 22.9503C38.7964 22.7854 38.7892 22.5272 38.8324 22.3335C38.8756 22.1399 39.1205 22.0753 39.2862 22.0323C39.5095 21.9749 39.5527 22.1399 39.5239 22.3264C39.5167 22.3766 39.5095 22.4268 39.4663 22.4411C39.3222 22.4841 39.4158 22.4124 39.4086 22.4841C39.387 22.5487 39.3582 22.6132 39.3366 22.6778C39.3438 22.6706 39.351 22.6634 39.3582 22.6563C39.5815 22.4483 39.279 22.1112 39.0341 22.2546C38.89 22.3407 38.8468 22.5057 38.8972 22.6563C38.9476 22.8212 39.1061 22.8571 39.2574 22.8929C39.6175 22.9647 39.8913 22.7782 39.9705 22.4268C40.0425 22.0825 39.9129 21.6952 39.5527 21.5948C39.2142 21.5016 38.7459 21.7096 38.5299 21.9678C38.2849 22.269 38.2921 22.8141 38.4794 23.144C38.6739 23.4882 39.0197 23.646 39.4014 23.6819C40.3234 23.7536 40.7484 22.6204 40.2946 21.9319C40.2442 21.8458 40.129 21.9104 40.1434 21.9965Z" fill="#D6002B"/>
<path d="M41.195 22.061C41.0942 21.5159 40.3235 22.0897 40.201 22.3335C39.9057 22.9145 40.3091 23.7177 40.8925 23.9185C41.1518 24.0046 41.5192 23.854 41.6488 23.6173C41.8001 23.3376 41.7569 23.0507 41.5336 22.8141C41.123 22.3766 40.3523 22.9503 40.9285 23.352C41.0942 23.4667 41.3031 23.23 41.195 23.0722C41.1374 22.9862 41.1302 23.0292 41.2455 23.0722C41.4832 23.1655 41.3679 23.4524 41.195 23.5241C40.8997 23.646 40.662 23.3089 40.5684 23.0866C40.4891 22.9001 40.4243 22.5917 40.5612 22.4124C40.6548 22.2833 40.8709 22.0753 41.0366 22.1758C41.1302 22.2403 41.2095 22.1471 41.195 22.061Z" fill="#D6002B"/>
<path d="M42.0882 22.8499C42.2971 23.0076 42.4556 23.2013 42.65 23.3734C42.9454 23.6388 43.1687 23.897 43.0966 24.3201C43.0318 24.7002 42.5708 24.8795 42.2395 24.7289C42.0666 24.65 42.009 24.4564 42.0306 24.2843C42.0666 24.0691 42.4195 24.0978 42.2971 24.148C42.1242 24.2269 42.045 24.4349 42.1962 24.5855C42.2035 24.5926 42.2107 24.5998 42.2179 24.607C42.2827 24.6715 42.4051 24.7074 42.4988 24.6715C43.2335 24.3775 42.8157 23.2874 42.0738 23.5025C41.2166 23.7464 41.3391 24.9297 42.0738 25.2453C42.8517 25.5752 43.5865 24.9154 43.6225 24.1552C43.6441 23.7177 43.3848 23.3734 43.075 23.1009C42.8229 22.8714 42.4556 22.4841 42.1026 22.7279C42.0666 22.7566 42.0522 22.814 42.0882 22.8499Z" fill="#D6002B"/>
<path d="M41.1087 23.8038C41.1303 23.768 41.1447 23.7249 41.1375 23.6819C41.1231 23.5815 41.0799 23.5313 40.9862 23.4954C40.3523 23.2587 39.4015 23.8971 39.2142 24.478C38.9765 25.231 39.3439 26.2495 40.2947 26.0845C41.0078 25.9554 41.5697 24.9155 40.8926 24.3919C40.3523 23.9688 39.596 24.3919 39.9274 25.0661C39.9706 25.145 40.0714 25.188 40.1579 25.188C40.1867 25.188 40.2227 25.188 40.2515 25.188C40.41 25.188 40.4748 25.0159 40.41 24.8868C40.3307 24.7218 40.3595 24.6501 40.5396 24.729C40.7701 24.8294 40.6693 25.1378 40.59 25.3099C40.4676 25.5681 40.1435 25.6398 39.8913 25.5323C39.6825 25.4462 39.6176 25.1665 39.596 24.9657C39.5456 24.5138 39.9418 24.105 40.3523 23.9688C40.5036 23.9186 40.6621 23.8899 40.8206 23.8827C40.8998 23.8755 41.1375 23.9042 40.943 23.8684C41.0078 23.8899 41.0727 23.8612 41.1087 23.8038Z" fill="#D6002B"/>
<path d="M32.0398 22.8786C31.975 22.3192 31.5644 22.0467 30.9954 22.1686C30.7 22.2332 30.4047 22.5415 30.1526 22.7065C29.4035 23.2014 29.173 22.5631 28.9209 22.0323C28.2654 20.6338 26.054 21.5231 25.7298 22.728C25.6866 22.8858 25.8739 23.0006 26.0036 22.9288C26.6519 22.5631 26.6879 21.9391 27.6099 21.8243C28.8416 21.6737 28.4022 22.7567 29.0145 23.1655C30.1166 23.8899 30.8225 21.9176 31.8958 22.936C31.9534 22.9862 32.0542 22.9503 32.0398 22.8786Z" fill="#990028"/>
<path d="M28.5102 28.1356C28.9136 28.2719 29.3097 28.1787 29.7131 28.0854C30.1093 27.9922 30.5055 27.777 30.9088 27.7196C31.694 27.6049 31.4779 26.4574 30.7288 26.6654C30.3542 26.7729 30.0589 27.024 29.7203 27.1961C29.3313 27.3969 28.9208 27.5906 28.4886 27.6766C28.2437 27.7268 28.3157 28.0639 28.5102 28.1356Z" fill="#F70032"/>
<path d="M28.8776 26.1347C29.2594 26.1347 29.6051 26.2422 29.9869 26.1705C30.1886 26.1347 30.2894 25.8836 30.2318 25.7115C30.167 25.5035 29.9653 25.4246 29.7708 25.4677C29.6196 25.5035 29.4611 25.5179 29.3026 25.5394C29.1153 25.5609 28.9713 25.6111 28.7984 25.6828C28.5535 25.7689 28.6039 26.1347 28.8776 26.1347Z" fill="#F70032"/>
<path d="M30.6135 30.5884C31.3771 29.9286 32.2775 29.2473 32.6808 28.2934C32.9545 27.6408 31.9893 27.0957 31.7012 27.7555C31.2978 28.6664 30.7288 29.4481 30.239 30.3159C30.0949 30.5597 30.419 30.7606 30.6135 30.5884Z" fill="#F70032"/>
<path d="M33.5092 31.6714C33.6101 31.2268 33.8478 30.8036 34.0279 30.3877C34.2079 29.986 34.2728 29.5342 34.4673 29.1397C34.8058 28.4584 33.7541 27.8918 33.4372 28.5732C33.0338 29.441 32.7241 30.7534 32.9906 31.6858C33.0699 31.944 33.4516 31.9296 33.5092 31.6714Z" fill="#F70032"/>
<path d="M36.8011 32.0587C36.9595 31.3917 36.7002 30.8251 36.6354 30.1653C36.5922 29.7135 36.6354 29.1756 36.4841 28.7381C36.2968 28.193 35.5261 28.2145 35.3748 28.774C35.2524 29.2186 35.4541 29.8211 35.5549 30.2514C35.7134 30.9112 36.0375 31.5567 36.3977 32.1304C36.5057 32.281 36.7578 32.2452 36.8011 32.0587Z" fill="#F70032"/>
<path d="M40.237 30.1079C39.8624 29.7637 39.4086 29.4624 39.1421 29.0249C38.8972 28.6233 38.8035 28.2002 38.2633 28.1571C37.9464 28.1284 37.7591 28.4512 37.7375 28.7166C37.7159 29.068 38.1481 29.5557 38.3642 29.8067C38.7891 30.3016 39.3582 30.4665 39.9705 30.5956C40.2514 30.6458 40.4603 30.3016 40.237 30.1079Z" fill="#F70032"/>
<path d="M41.6848 27.9922C41.4111 27.8201 41.1806 27.5548 40.9069 27.3755C40.5972 27.1675 40.2802 26.9738 39.9417 26.8304C39.6535 26.7085 39.3006 26.7587 39.1421 27.0599C39.1205 27.1029 39.0989 27.1531 39.0845 27.2033C39.0125 27.4328 39.1493 27.7484 39.3726 27.8488C39.7112 27.9994 40.0497 28.1572 40.3955 28.2935C40.7412 28.4297 41.1014 28.4799 41.4471 28.6019C41.8217 28.731 41.9874 28.1787 41.6848 27.9922Z" fill="#F70032"/>
<path d="M24.9518 25.6039C24.9518 25.6111 24.959 25.6111 24.959 25.6183C25.1463 25.8765 25.4489 25.9482 25.737 25.7976C25.7442 25.7976 25.7442 25.7904 25.7514 25.7904C25.9315 25.6972 26.0323 25.4748 26.0251 25.2812C26.0179 25.023 25.8306 24.8007 25.5785 24.7433C25.3768 24.6931 25.1679 24.7576 25.0239 24.9083C24.8582 25.0804 24.8006 25.396 24.9518 25.6039Z" fill="#B70027"/>
<path d="M24.9014 28.86C25.6001 29.025 25.8594 27.9492 25.1607 27.7842C24.462 27.6193 24.2027 28.6951 24.9014 28.86Z" fill="#B70027"/>
<path d="M27.2929 33.5792C27.5811 33.6437 27.8764 33.4644 27.9484 33.1775C28.0132 32.8907 27.8332 32.5966 27.545 32.5249C27.2569 32.4604 26.9616 32.6397 26.8895 32.9265C26.8247 33.2134 27.0048 33.5075 27.2929 33.5792Z" fill="#B70027"/>
<path d="M33.2067 34.4111C33.2067 34.4183 33.1995 34.4183 33.1995 34.4255C33.0555 34.6908 33.1563 35.0351 33.4228 35.1785C33.6749 35.3148 34.0567 35.2359 34.1792 34.9562C34.1792 34.949 34.1864 34.949 34.1864 34.9419C34.3088 34.6693 34.244 34.3394 33.9631 34.1888C33.6965 34.0454 33.358 34.1458 33.2067 34.4111Z" fill="#B70027"/>
<path d="M37.5358 34.4757C37.5286 34.4828 37.5286 34.4828 37.5214 34.49C37.4278 34.6048 37.363 34.7339 37.3702 34.8845C37.3774 35.0925 37.4926 35.2287 37.6511 35.3435C37.7015 35.3793 37.7591 35.3865 37.8168 35.408C38.0545 35.5013 38.4146 35.2789 38.4362 35.0279C38.4362 35.0136 38.4362 34.9992 38.4434 34.992C38.5011 34.8199 38.4218 34.5904 38.2922 34.4757C38.285 34.4685 38.285 34.4685 38.2778 34.4613C38.0761 34.2748 37.7303 34.2462 37.5358 34.4757Z" fill="#B70027"/>
<path d="M42.6932 33.1273C42.7004 33.1273 42.7076 33.1273 42.7148 33.1273C42.8517 33.1273 42.9886 33.0628 43.0822 32.9624C43.2191 32.8189 43.2479 32.6324 43.2047 32.4388C43.2047 32.4316 43.2047 32.4245 43.1975 32.4173C43.1038 32.0085 42.542 31.9153 42.2754 32.2021C42.1386 32.3456 42.0882 32.5536 42.1458 32.74C42.225 32.9839 42.4483 33.1273 42.6932 33.1273Z" fill="#B70027"/>
<path d="M44.1628 30.2012C44.17 30.2084 44.17 30.2227 44.1772 30.2299C44.2852 30.4594 44.6094 30.5455 44.8326 30.4737C45.0704 30.402 45.2576 30.1582 45.236 29.9072C45.236 29.9 45.236 29.8856 45.236 29.8785C45.2072 29.5127 44.8615 29.233 44.4869 29.3477C44.3428 29.3908 44.2204 29.4912 44.1483 29.6203C44.0403 29.8211 44.0763 30.0076 44.1628 30.2012Z" fill="#B70027"/>
<path d="M30.4839 26.1347C30.7793 26.2064 30.8873 25.7474 30.592 25.6757C30.2967 25.604 30.1886 26.063 30.4839 26.1347Z" fill="#990028"/>
<path d="M31.514 27.0383C31.8525 27.1172 31.975 26.5937 31.6364 26.5148C31.3051 26.4359 31.1754 26.9594 31.514 27.0383Z" fill="#990028"/>
<path d="M32.6592 27.6121C32.8105 27.648 32.9761 27.5475 33.0122 27.3969C33.0482 27.2463 32.9473 27.0814 32.7961 27.0455C32.6376 27.0097 32.4791 27.1101 32.4431 27.2607C32.4071 27.4185 32.5079 27.5762 32.6592 27.6121Z" fill="#990028"/>
<path d="M34.0351 28.2361C34.1864 28.2719 34.352 28.1715 34.388 28.0209C34.4241 27.8703 34.3232 27.7053 34.172 27.6695C34.0207 27.6336 33.855 27.734 33.819 27.8846C33.7758 28.0424 33.8766 28.2002 34.0351 28.2361Z" fill="#990028"/>
<path d="M35.6702 28.3292C35.8431 28.3723 36.0159 28.2647 36.0592 28.0926C36.1024 27.9204 35.9943 27.7483 35.8214 27.7053C35.6486 27.6623 35.4757 27.7698 35.4325 27.942C35.3893 28.1141 35.5045 28.2934 35.6702 28.3292Z" fill="#990028"/>
<path d="M37.6294 28.1356C37.7807 28.1715 37.9392 28.0782 37.9752 27.9276C38.0112 27.777 37.9176 27.6192 37.7663 27.5834C37.615 27.5475 37.4566 27.6407 37.4206 27.7913C37.3845 27.9491 37.4782 28.0997 37.6294 28.1356Z" fill="#990028"/>
<path d="M38.5515 26.8949C38.5515 26.9021 38.5515 26.9093 38.5515 26.9164C38.6092 27.2105 39.1062 27.1244 39.0702 26.8304C39.0702 26.8232 39.0702 26.816 39.0702 26.8089C39.0557 26.6654 38.9477 26.5507 38.7964 26.5507C38.6164 26.5578 38.5227 26.73 38.5515 26.8949Z" fill="#990028"/>
<path d="M32.0253 26.7013C32.3639 26.7802 32.4935 26.2566 32.1478 26.1777C31.8164 26.0988 31.6868 26.6224 32.0253 26.7013Z" fill="#990028"/>
<path d="M33.0555 26.9522C33.3508 27.0239 33.4588 26.5721 33.1635 26.5004C32.8682 26.4287 32.7601 26.8805 33.0555 26.9522Z" fill="#990028"/>
<path d="M34.1071 27.4615C34.1143 27.4615 34.1215 27.4687 34.1359 27.4687C34.28 27.5189 34.4385 27.397 34.4745 27.2607C34.5033 27.1244 34.4169 26.9451 34.2656 26.9236C34.2584 26.9236 34.244 26.9236 34.2368 26.9236C34.0855 26.9021 33.9414 26.9667 33.9054 27.1244C33.8694 27.2894 33.9703 27.4113 34.1071 27.4615Z" fill="#990028"/>
<path d="M35.6125 27.5834C35.915 27.6551 36.0303 27.189 35.7277 27.1172C35.4252 27.0455 35.31 27.5117 35.6125 27.5834Z" fill="#990028"/>
<path d="M37.1757 27.5834C37.3413 27.6265 37.5142 27.5189 37.5574 27.3539C37.6007 27.189 37.4926 27.0169 37.3197 26.9738C37.1541 26.9308 36.9812 27.0384 36.938 27.2105C36.9019 27.3683 37.01 27.5404 37.1757 27.5834Z" fill="#990028"/>
<path d="M38.2704 26.687C38.5874 26.7587 38.7026 26.2781 38.3857 26.1993C38.0759 26.1275 37.9607 26.6081 38.2704 26.687Z" fill="#990028"/>
<path d="M37.86 26.2279C38.1049 26.2853 38.1985 25.9051 37.9536 25.8478C37.7087 25.7904 37.6151 26.1705 37.86 26.2279Z" fill="#990028"/>
<path d="M37.4926 25.7617C37.7159 25.8119 37.8023 25.4676 37.579 25.4103C37.3557 25.3601 37.2693 25.7043 37.4926 25.7617Z" fill="#990028"/>
<path d="M37.2405 25.3744C37.4421 25.4246 37.5142 25.109 37.3125 25.0588C37.1108 25.0158 37.0388 25.3242 37.2405 25.3744Z" fill="#990028"/>
<path d="M36.8371 26.8949C37.1036 26.9595 37.2045 26.5435 36.9379 26.4861C36.6642 26.4144 36.5634 26.8304 36.8371 26.8949Z" fill="#990028"/>
<path d="M36.5993 26.3355C36.837 26.3929 36.9235 26.0271 36.6858 25.9697C36.4481 25.9124 36.3616 26.2781 36.5993 26.3355Z" fill="#990028"/>
<path d="M36.3689 25.9123C36.5778 25.9625 36.657 25.6398 36.4481 25.5896C36.2392 25.5394 36.16 25.8621 36.3689 25.9123Z" fill="#990028"/>
<path d="M35.5693 26.902C35.7854 26.9522 35.8646 26.6152 35.6485 26.565C35.4324 26.5148 35.3532 26.8447 35.5693 26.902Z" fill="#990028"/>
<path d="M35.5333 26.4215C35.7062 26.4646 35.771 26.192 35.5981 26.149C35.4181 26.1131 35.3532 26.3785 35.5333 26.4215Z" fill="#990028"/>
<path d="M34.2512 26.6726C34.4096 26.7084 34.4673 26.4646 34.3088 26.4287C34.1575 26.3857 34.0927 26.6295 34.2512 26.6726Z" fill="#990028"/>
<path d="M29.7996 26.0199C30.0589 26.0773 30.1526 25.6828 29.8933 25.6183C29.634 25.5609 29.5403 25.9625 29.7996 26.0199Z" fill="#0C0A35"/>
<path d="M30.7792 27.4614C30.9449 27.4973 31.1105 27.3969 31.1538 27.2319C31.1898 27.067 31.0889 26.902 30.9233 26.859C30.7576 26.8231 30.5919 26.9235 30.5487 27.0885C30.5127 27.2606 30.6207 27.4256 30.7792 27.4614Z" fill="#0C0A35"/>
<path d="M32.1334 28.3723C32.3063 28.4154 32.4864 28.3006 32.5296 28.1285C32.5728 27.9564 32.4576 27.7771 32.2847 27.734C32.1118 27.691 31.9317 27.8058 31.8885 27.9779C31.8525 28.1572 31.9605 28.3365 32.1334 28.3723Z" fill="#0C0A35"/>
<path d="M33.8693 29.2114C34.0566 29.2544 34.2439 29.1397 34.2871 28.9532C34.3303 28.7667 34.2151 28.5803 34.0278 28.5372C33.8405 28.4942 33.6532 28.609 33.61 28.7954C33.5668 28.9747 33.6821 29.1684 33.8693 29.2114Z" fill="#0C0A35"/>
<path d="M35.8646 29.3047C36.2896 29.4051 36.4408 28.7525 36.0158 28.6521C35.5981 28.5516 35.4468 29.2043 35.8646 29.3047Z" fill="#0C0A35"/>
<path d="M38.1841 29.0609C38.357 29.1039 38.5371 28.9891 38.5731 28.8242C38.6163 28.652 38.501 28.4728 38.3354 28.4369C38.1625 28.3939 37.9824 28.5086 37.9464 28.6736C37.9032 28.8385 38.0184 29.0178 38.1841 29.0609Z" fill="#0C0A35"/>
<path d="M39.567 27.7412C39.7831 27.7914 40.0136 27.6551 40.064 27.4399C40.1145 27.2248 39.9776 26.9953 39.7615 26.9451C39.5454 26.8949 39.3149 27.0311 39.2645 27.2463C39.2141 27.4686 39.3509 27.691 39.567 27.7412Z" fill="#0C0A35"/>
<path d="M32.6809 17.2127C32.8826 17.2629 32.9546 16.9474 32.7529 16.8971C32.5512 16.8541 32.4792 17.1697 32.6809 17.2127Z" fill="#F70032"/>
<path d="M34.0926 17.4925C34.2943 17.5427 34.3736 17.2271 34.1647 17.1769C33.963 17.1267 33.8909 17.4494 34.0926 17.4925Z" fill="#F70032"/>
<path d="M35.4613 17.8295C35.6846 17.8797 35.7638 17.5355 35.5405 17.4853C35.3245 17.4351 35.238 17.7793 35.4613 17.8295Z" fill="#F70032"/>
<path d="M37.1181 18.2455C37.2909 18.2885 37.3558 18.016 37.1829 17.973C37.01 17.9299 36.9452 18.2025 37.1181 18.2455Z" fill="#F70032"/>
<path d="M38.5803 18.6686C38.8036 18.7188 38.8828 18.3746 38.6595 18.3244C38.4434 18.2741 38.3642 18.6184 38.5803 18.6686Z" fill="#F70032"/>
<path d="M40.0424 18.9986C40.2801 19.0559 40.3738 18.683 40.1289 18.6256C39.8912 18.5754 39.8047 18.9483 40.0424 18.9986Z" fill="#F70032"/>
<path d="M34.4024 18.8551C35.274 19.0129 36.1168 19.5077 37.0172 19.4719C37.1828 19.4647 37.2405 19.2424 37.0892 19.1635C36.6642 18.9412 36.1456 18.9053 35.6774 18.7977C35.2524 18.6973 34.8634 18.6041 34.424 18.6256C34.2944 18.6328 34.2655 18.8336 34.4024 18.8551Z" fill="#0C0A35"/>
<path d="M21.9481 28.2647C21.7824 29.0249 22.0777 29.7565 22.265 30.4522C22.4955 31.32 22.7116 32.3742 23.2951 33.0843C23.8857 33.8086 25.348 33.2707 25.3408 32.3384C25.3336 31.3989 24.7861 30.5024 24.3684 29.6848C24.0154 28.9963 23.4824 28.2002 22.6252 27.9276C22.3659 27.8559 22.0057 27.9993 21.9481 28.2647Z" fill="#141247"/>
<path d="M17.9936 29.8354C17.3021 30.5024 17.8712 31.7718 18.1305 32.403C18.5194 33.3568 18.9876 34.5976 20.1329 34.9562C20.7812 35.157 21.5592 34.5402 21.4799 33.9378C21.4151 33.407 21.0982 33.0484 20.8173 32.6109C20.4787 32.0874 20.2194 31.5352 19.9169 30.9973C19.6864 30.5885 18.7932 29.068 17.9936 29.8354Z" fill="#141247"/>
<path d="M22.9421 33.945C24.4332 33.3569 22.9493 30.5885 22.2939 29.0895C21.3718 26.981 18.0656 28.3508 18.9876 30.4594C19.5638 31.7862 20.2626 33.3712 21.4727 34.2103C21.8617 34.4829 22.6612 34.3609 22.9421 33.945Z" fill="#222272"/>
<path d="M21.271 29.0393C21.2782 29.0465 21.2782 29.0608 21.2854 29.068C21.3791 29.2975 21.7392 29.1469 21.6456 28.9174C21.6456 28.9102 21.6384 28.8958 21.6312 28.8887C21.5303 28.6663 21.1774 28.8098 21.271 29.0393Z" fill="#F70032"/>
<path d="M20.9109 29.6274C20.9541 29.6991 20.9829 29.735 21.0694 29.7493C21.1126 29.7565 21.1702 29.735 21.1918 29.6991C21.235 29.6274 21.235 29.5772 21.2134 29.4983C21.1558 29.2975 20.8101 29.4481 20.9109 29.6274Z" fill="#F70032"/>
<path d="M21.8833 30.0004C21.8906 30.0075 21.8905 30.0147 21.8978 30.0147C21.977 30.1151 22.1499 30.0434 22.1355 29.9143C22.1355 29.9071 22.1355 29.9 22.1355 29.8928C22.0922 29.6704 21.7393 29.8139 21.8833 30.0004Z" fill="#F70032"/>
<path d="M20.205 28.6592C20.1978 28.6664 20.1906 28.6664 20.1834 28.6736C20.0754 28.7381 20.1546 28.9318 20.277 28.9031C20.2843 28.9031 20.2915 28.9031 20.2987 28.8959C20.5148 28.8457 20.3923 28.5516 20.205 28.6592Z" fill="#F70032"/>
<path d="M19.78 29.8569C19.8161 29.9143 19.8377 29.9502 19.9025 29.9789C19.9673 30.0147 20.0682 29.9717 20.0826 29.9C20.1042 29.8354 20.097 29.7924 20.0826 29.7278C20.0249 29.527 19.6792 29.6705 19.78 29.8569Z" fill="#F70032"/>
<path d="M20.6876 30.5526C20.7524 30.7175 21.0117 30.6099 20.9397 30.445C20.8748 30.28 20.6227 30.3876 20.6876 30.5526Z" fill="#F70032"/>
<path d="M21.8618 30.8897C21.9482 31.0977 22.2796 30.9614 22.1931 30.7534C22.1067 30.5454 21.7754 30.6817 21.8618 30.8897Z" fill="#F70032"/>
<path d="M22.6036 31.8507C22.69 32.0659 23.0214 31.9296 22.935 31.7145C22.8485 31.4993 22.5172 31.6356 22.6036 31.8507Z" fill="#F70032"/>
<path d="M21.1774 31.7001C21.1918 31.7145 21.199 31.7288 21.2134 31.7503C21.2854 31.8436 21.4439 31.779 21.4295 31.6643C21.4295 31.6428 21.4223 31.6284 21.4223 31.6069C21.3863 31.3774 21.0477 31.5208 21.1774 31.7001Z" fill="#F70032"/>
<path d="M20.3995 31.3917C20.3779 31.2913 20.3202 31.2339 20.2122 31.2411C20.1474 31.2411 20.0969 31.2985 20.0897 31.363C20.0753 31.4419 20.133 31.4993 20.2122 31.5208C20.2194 31.5208 20.2266 31.5208 20.2266 31.528C20.205 31.5208 20.1834 31.5064 20.1618 31.4993C20.241 31.5853 20.4211 31.5208 20.3995 31.3917Z" fill="#F70032"/>
<path d="M20.8677 32.6181C20.9398 32.7831 21.1919 32.6755 21.1271 32.5105C21.055 32.3456 20.7957 32.4531 20.8677 32.6181Z" fill="#F70032"/>
<path d="M21.9482 32.611C22.013 32.7687 22.2579 32.6683 22.1931 32.5105C22.1283 32.3528 21.8834 32.4532 21.9482 32.611Z" fill="#F70032"/>
<path d="M23.1438 32.8333C23.1366 32.7902 23.1222 32.7615 23.1078 32.7329C23.079 32.6826 22.9926 32.6611 22.9422 32.6898C22.9422 32.6898 22.935 32.6898 22.935 32.697C22.7765 32.7902 22.8701 33.0054 23.043 32.9552H23.0502C23.0286 32.9552 22.9998 32.9624 22.9782 32.9624H22.9854C23.0574 32.9839 23.1583 32.9265 23.1438 32.8333Z" fill="#F70032"/>
<path d="M22.2291 33.615C22.2363 33.6222 22.2363 33.6294 22.2435 33.6366C22.3371 33.78 22.5893 33.6724 22.5532 33.5075C22.5532 33.5003 22.546 33.486 22.546 33.4788C22.5244 33.364 22.4092 33.2851 22.3011 33.3353C22.1859 33.3855 22.1643 33.5218 22.2291 33.615Z" fill="#F70032"/>
<path d="M21.3934 33.4859C21.343 33.5218 21.3142 33.572 21.3214 33.6365C21.3358 33.7441 21.5087 33.78 21.5447 33.6652C21.5231 33.6796 21.5015 33.6939 21.4871 33.7082C21.696 33.658 21.5591 33.3712 21.3934 33.4859Z" fill="#F70032"/>
<path d="M23.043 28.6879C22.9062 28.7381 22.7117 28.774 22.6397 28.9103C22.6108 28.9676 22.6469 29.0537 22.7045 29.0752C22.8558 29.1254 23.0142 29.0107 23.1511 28.9461C23.3168 28.8744 23.2159 28.6234 23.043 28.6879Z" fill="#0C0A35"/>
<path d="M23.6768 29.3908C23.5688 29.3764 23.4679 29.3979 23.3671 29.4266C23.2446 29.4553 23.1222 29.484 22.9997 29.527C22.726 29.6346 22.8557 30.0147 23.1294 30.0004C23.3599 29.986 23.6624 29.8641 23.7921 29.6705C23.8713 29.5629 23.8137 29.4051 23.6768 29.3908Z" fill="#0C0A35"/>
<path d="M24.1738 30.3375C23.965 30.359 23.7489 30.4164 23.5472 30.4737C23.2879 30.5526 23.4103 30.9686 23.6696 30.9256C23.9145 30.8897 24.1666 30.7893 24.3323 30.6028C24.4332 30.4953 24.3107 30.3303 24.1738 30.3375Z" fill="#0C0A35"/>
<path d="M24.5124 31.2626C24.2963 31.2841 24.0802 31.2913 23.8713 31.3702C23.7489 31.4132 23.6985 31.5566 23.7489 31.6714C23.7993 31.7933 23.929 31.8292 24.0514 31.7933C24.2387 31.7359 24.426 31.6785 24.6061 31.5997C24.7933 31.5208 24.7141 31.2411 24.5124 31.2626Z" fill="#0C0A35"/>
<path d="M24.8583 32.2022C24.5918 32.2667 24.3109 32.3456 24.0587 32.4532C23.7202 32.5966 23.9363 33.113 24.2748 32.9767C24.5486 32.8692 24.8367 32.7186 25.0168 32.4747C25.096 32.36 25.0096 32.1663 24.8583 32.2022Z" fill="#0C0A35"/>
<path d="M18.6059 30.5095C18.469 30.5239 18.3393 30.5454 18.2169 30.6171C18.08 30.7032 18.1809 30.9542 18.3393 30.9112C18.4762 30.8753 18.5843 30.8036 18.6923 30.7175C18.7859 30.6458 18.7211 30.5024 18.6059 30.5095Z" fill="#0C0A35"/>
<path d="M19.0597 31.32C18.8292 31.3129 18.3682 31.4706 18.4258 31.7719C18.4474 31.8723 18.5123 31.9512 18.6203 31.9655C18.7716 31.987 18.8508 31.8938 18.9517 31.8149C19.0381 31.7503 19.139 31.6356 19.1822 31.5424C19.2254 31.4563 19.1678 31.3272 19.0597 31.32Z" fill="#0C0A35"/>
<path d="M19.4775 32.3886C19.3334 32.3312 19.1749 32.4173 19.0453 32.489C18.8724 32.5822 18.7355 32.7185 18.7932 32.9265C18.822 33.0197 18.9444 33.0699 19.0381 33.0556C19.1317 33.0413 19.1965 32.9839 19.2686 32.9337C19.3262 32.8906 19.3766 32.8333 19.427 32.7831C19.4991 32.7185 19.5639 32.654 19.5783 32.5607C19.5927 32.489 19.5495 32.4173 19.4775 32.3886Z" fill="#0C0A35"/>
<path d="M20.0177 33.1847C19.8664 33.2206 19.7655 33.2994 19.6431 33.3783C19.5134 33.4644 19.3478 33.4931 19.2397 33.6007C19.1317 33.7011 19.1461 33.866 19.2829 33.9306C19.6359 34.0955 20.1329 33.6724 20.1617 33.321C20.1617 33.2492 20.1041 33.1632 20.0177 33.1847Z" fill="#0C0A35"/>
<path d="M20.6948 33.9593C20.5363 33.9019 20.3706 33.9808 20.2266 34.0382C20.0609 34.1027 19.8808 34.2031 19.852 34.3896C19.8448 34.4255 19.8592 34.4685 19.8952 34.49C20.0465 34.5904 20.1978 34.5402 20.349 34.4613C20.5003 34.3896 20.7092 34.2749 20.7668 34.1099C20.7812 34.0597 20.7596 33.988 20.6948 33.9593Z" fill="#0C0A35"/>
<path d="M48.0668 32.4891C47.7787 33.2134 47.1232 33.6509 46.5758 34.1314C45.8987 34.7195 45.1279 35.4798 44.2492 35.7523C43.356 36.0248 42.4412 34.7697 42.967 34.0023C43.5 33.2278 44.458 32.7831 45.2576 32.3313C45.9347 31.9512 46.8207 31.5854 47.6851 31.8364C47.9516 31.9153 48.1677 32.238 48.0668 32.4891Z" fill="#141247"/>
<path d="M50.4726 35.9819C50.6743 36.9214 49.493 37.6601 48.9239 38.0402C48.0668 38.614 46.9863 39.3885 45.8338 39.0515C45.1783 38.8578 44.883 37.9183 45.2863 37.4593C45.6393 37.0577 46.1003 36.9286 46.5757 36.7277C47.1448 36.4839 47.6706 36.1612 48.2252 35.8814C48.643 35.6663 50.2421 34.8989 50.4726 35.9819Z" fill="#141247"/>
<path d="M44.0619 36.6488C43.1543 35.3292 45.9347 33.8589 47.3177 32.9768C49.2626 31.736 51.2434 34.7052 49.2986 35.946C48.074 36.7277 46.6118 37.6601 45.1352 37.6887C44.6669 37.7031 44.0619 37.158 44.0619 36.6488Z" fill="#222272"/>
<path d="M47.9803 33.1848C47.9731 33.192 47.9659 33.1991 47.9515 33.1991C47.7426 33.3354 47.9587 33.6581 48.1676 33.5219C48.1748 33.5147 48.182 33.5075 48.1892 33.5075C48.3981 33.3713 48.1892 33.0557 47.9803 33.1848Z" fill="#F70032"/>
<path d="M47.9804 33.9235C47.9155 33.9737 47.8867 34.0167 47.8867 34.1028C47.8867 34.1458 47.9227 34.196 47.9587 34.2176C48.038 34.2534 48.0884 34.2391 48.1604 34.2032C48.3549 34.1028 48.146 33.7872 47.9804 33.9235Z" fill="#F70032"/>
<path d="M47.0079 33.7442C47.0007 33.7514 47.0007 33.7586 46.9935 33.7586C46.9071 33.859 47.0079 34.0096 47.1376 33.9666C47.1448 33.9666 47.152 33.9594 47.1592 33.9594C47.3681 33.8877 47.1592 33.5721 47.0079 33.7442Z" fill="#F70032"/>
<path d="M49.0753 33.9235C49.0825 33.9306 49.0825 33.9378 49.0897 33.9378C49.1762 34.031 49.349 33.9163 49.2986 33.8015C49.2986 33.7944 49.2914 33.7872 49.2914 33.78C49.1978 33.5864 48.9312 33.7657 49.0753 33.9235Z" fill="#F70032"/>
<path d="M48.7944 34.7339C48.744 34.7769 48.7152 34.8128 48.7008 34.8773C48.6792 34.9419 48.7368 35.0351 48.8088 35.0423C48.8736 35.0495 48.9169 35.0351 48.9745 35.0064C49.169 34.9132 48.9529 34.5976 48.7944 34.7339Z" fill="#F70032"/>
<path d="M47.8364 35.0853C47.9876 34.9849 47.8292 34.7626 47.6851 34.8558C47.5338 34.9491 47.6851 35.1786 47.8364 35.0853Z" fill="#F70032"/>
<path d="M46.6693 34.7124C46.8638 34.5833 46.6621 34.2892 46.4748 34.4183C46.2804 34.5474 46.4748 34.8415 46.6693 34.7124Z" fill="#F70032"/>
<path d="M45.5169 35.0997C45.7113 34.9706 45.5097 34.6766 45.3152 34.7985C45.1207 34.9276 45.3224 35.2288 45.5169 35.0997Z" fill="#F70032"/>
<path d="M46.6406 35.5516C46.6262 35.5659 46.6118 35.5803 46.6046 35.5946C46.5254 35.6807 46.619 35.8313 46.7343 35.7882C46.7559 35.7811 46.7703 35.7739 46.7919 35.7667C46.9936 35.695 46.7919 35.3866 46.6406 35.5516Z" fill="#F70032"/>
<path d="M47.7498 36.154C47.7282 36.154 47.7066 36.1468 47.685 36.1397C47.6922 36.1397 47.6922 36.1468 47.6994 36.1468C47.757 36.1684 47.8219 36.1612 47.8651 36.111C47.9155 36.0608 47.9155 35.9604 47.8507 35.9173C47.7642 35.8528 47.685 35.8671 47.6058 35.9389C47.5121 36.0393 47.6274 36.1899 47.7498 36.154Z" fill="#F70032"/>
<path d="M46.5325 36.7062C46.6838 36.6058 46.5253 36.3763 46.3813 36.4767C46.2228 36.5699 46.3813 36.7994 46.5325 36.7062Z" fill="#F70032"/>
<path d="M45.6393 36.0966C45.7833 36.0034 45.6321 35.7882 45.4952 35.8814C45.3512 35.9747 45.4952 36.1898 45.6393 36.0966Z" fill="#F70032"/>
<path d="M44.5877 35.8169C44.5877 35.8169 44.5949 35.8169 44.5877 35.8169C44.5732 35.8026 44.5588 35.7882 44.5372 35.7739C44.5372 35.7739 44.5372 35.781 44.5444 35.781C44.6669 35.9173 44.8614 35.7882 44.7821 35.6233C44.7821 35.6233 44.7821 35.6161 44.7749 35.6161C44.7461 35.5659 44.6597 35.5372 44.6093 35.5587C44.5732 35.5731 44.5444 35.5946 44.5228 35.6233C44.458 35.695 44.5084 35.7882 44.5877 35.8169Z" fill="#F70032"/>
<path d="M44.6525 36.4911C44.6453 36.4982 44.6381 36.5054 44.6309 36.5126C44.5084 36.6345 44.6597 36.8568 44.8182 36.7923C44.8254 36.7851 44.8326 36.7851 44.847 36.778C44.955 36.7349 45.0127 36.613 44.9406 36.5054C44.8686 36.405 44.7317 36.4122 44.6525 36.4911Z" fill="#F70032"/>
<path d="M45.4017 37.2656C45.3944 37.2441 45.3872 37.2226 45.3728 37.1939C45.3368 37.3087 45.5025 37.3804 45.5745 37.2943C45.6178 37.2441 45.625 37.1867 45.6033 37.1294C45.5385 36.9429 45.2576 37.1078 45.4017 37.2656Z" fill="#F70032"/>
<path d="M46.6837 32.3887C46.7629 32.5178 46.8278 32.6971 46.9862 32.7401C47.0511 32.7616 47.1303 32.7043 47.1375 32.6397C47.1519 32.4819 47.0151 32.3457 46.9286 32.2309C46.8134 32.0875 46.5829 32.2309 46.6837 32.3887Z" fill="#0C0A35"/>
<path d="M45.7474 32.6325C45.7474 32.8692 45.9275 33.1417 46.1148 33.278C46.3309 33.4429 46.6478 33.1919 46.4822 32.9553C46.4245 32.8692 46.3453 32.7975 46.2805 32.7186C46.194 32.6253 46.1148 32.5249 45.9995 32.4676C45.8771 32.403 45.7474 32.5034 45.7474 32.6325Z" fill="#0C0A35"/>
<path d="M44.775 33.1131C44.811 33.3641 44.9623 33.5864 45.1423 33.7514C45.3368 33.9307 45.6682 33.651 45.4953 33.443C45.3656 33.278 45.2144 33.1131 45.0487 32.9768C44.9479 32.8908 44.7534 32.9625 44.775 33.1131Z" fill="#0C0A35"/>
<path d="M43.9898 33.7872C44.0979 33.9522 44.2203 34.1028 44.3428 34.2534C44.422 34.3538 44.5517 34.3897 44.6669 34.318C44.7677 34.2534 44.8038 34.1028 44.7317 33.9952C44.6021 33.8159 44.4292 33.6868 44.2563 33.5506C44.1051 33.4286 43.8818 33.6151 43.9898 33.7872Z" fill="#0C0A35"/>
<path d="M43.1687 34.2821C43.1759 34.5833 43.3343 34.8702 43.5 35.114C43.7089 35.4152 44.1771 35.1068 43.9754 34.7984C43.8242 34.5689 43.6369 34.3466 43.4496 34.1458C43.3415 34.031 43.1615 34.1458 43.1687 34.2821Z" fill="#0C0A35"/>
<path d="M49.3993 36.3333C49.4354 36.4696 49.4858 36.5915 49.5794 36.6919C49.6875 36.8138 49.918 36.6632 49.8459 36.5126C49.7883 36.3835 49.6947 36.2903 49.5866 36.2042C49.493 36.1325 49.3633 36.2185 49.3993 36.3333Z" fill="#0C0A35"/>
<path d="M48.5206 36.742C48.499 36.8424 48.5278 36.9644 48.5494 37.0648C48.5782 37.201 48.6142 37.3445 48.7511 37.409C48.8519 37.4521 48.9528 37.4306 49.0248 37.3517C49.2481 37.1365 48.9528 36.7492 48.7511 36.6273C48.6647 36.5699 48.5422 36.6488 48.5206 36.742Z" fill="#0C0A35"/>
<path d="M47.6346 37.366C47.5698 37.5023 47.649 37.6744 47.6778 37.8107C47.7138 37.9756 47.8219 38.1908 48.0308 38.1262C48.2469 38.0545 48.2108 37.7891 48.1316 37.6314C48.0668 37.4951 47.9731 37.3158 47.8147 37.2799C47.7426 37.2656 47.6634 37.3014 47.6346 37.366Z" fill="#0C0A35"/>
<path d="M46.7271 37.6816C46.547 37.99 46.7271 38.6211 47.1161 38.6713C47.2745 38.6929 47.3682 38.5638 47.3394 38.4203C47.3105 38.2697 47.1953 38.1478 47.1305 38.0115C47.0656 37.8753 47.0296 37.7533 46.9288 37.6386C46.8639 37.5812 46.7631 37.6171 46.7271 37.6816Z" fill="#0C0A35"/>
<path d="M45.7834 38.0115C45.7402 38.1621 45.8338 38.3557 45.9059 38.4848C45.9923 38.6426 46.0932 38.8076 46.2949 38.8076C46.3309 38.8076 46.3741 38.7789 46.3885 38.743C46.4677 38.5781 46.3813 38.4346 46.3021 38.2912C46.2156 38.1478 46.1004 37.9613 45.9275 37.9182C45.8555 37.8967 45.7978 37.9469 45.7834 38.0115Z" fill="#0C0A35"/>
<path d="M23.1295 45.8576C27.8547 46.3381 30.8369 46.79 34.2584 47.6936C36.1816 48.2028 37.6727 48.9702 38.5371 50.7561C39.4663 52.6853 37.8744 56.4147 35.7494 56.7518C34.6834 56.9239 33.8478 56.6586 32.8177 56.3287C30.3687 55.5469 28.1213 54.256 25.4489 52.8216C24.9158 52.5347 23.8426 51.9323 23.4752 52.0255C22.8341 52.1833 21.9337 54.1269 21.235 55.1094C19.463 57.5909 15.8975 59.1975 15.0403 61.0622C14.5361 62.1523 13.045 64.268 11.8421 64.3541C11.0353 64.4115 11.4099 63.5437 11.3234 62.7404C11.237 61.9372 11.8709 61.2558 12.2094 60.5243C14.3056 56.0705 16.553 51.5306 19.1965 47.3781C19.5855 46.7613 20.1113 46.3883 20.7452 46.0297C21.4799 45.6138 22.3011 45.7787 23.1295 45.8576Z" fill="#222272"/>
<path d="M16.0055 61.1625C14.7305 61.7578 13.8805 62.8838 13.2323 64.1317C14.0462 64.3326 14.1543 65.5231 13.7005 66.226C13.2467 66.9288 12.4687 67.3591 11.9429 68.0118C10.9633 69.2238 11.0137 70.9236 10.9561 72.4799C10.9128 73.778 11.0713 75.1694 10.5167 76.3456C10.034 77.364 9.33534 77.6294 8.40613 77.8804C9.26331 77.1704 9.58745 75.987 9.56584 74.8753C9.54423 73.7637 9.22009 72.6879 9.00399 71.5978C8.65824 69.8837 8.5718 68.1265 8.73747 66.3837C8.83832 65.3008 9.06162 64.1819 9.68829 63.2854C10.1637 62.6041 10.848 62.0877 11.345 61.4207C11.9501 60.6103 11.9861 59.8788 12.2526 58.5806C13.7005 59.2978 14.4712 60.6175 16.0055 61.1625Z" fill="#F70032"/>
<path d="M28.6326 80.9571C27.1128 81.1006 25.4776 81.3229 23.9506 81.2368C22.582 81.1651 21.2782 80.785 20.1257 80.0535C18.9732 79.3219 18.152 77.9019 18.5122 76.5894C19.3621 77.8373 19.9528 78.2892 21.5015 78.7912C22.0561 78.9705 23.4824 79.0279 24.0658 79.0063C25.0743 78.9561 26.4789 78.4541 27.0479 77.6293C27.6098 76.7974 27.8331 75.7646 27.7826 74.7677C28.5606 74.9829 29.2809 75.3917 29.8716 75.9439C30.2822 75.0833 30.9881 74.3733 31.8524 73.9501C32.0469 75.7574 31.9893 77.5289 32.9329 79.0852C33.1562 79.4582 33.4083 79.867 33.3219 80.2901C33.221 80.7993 32.6592 81.1006 32.1406 81.1221C31.6219 81.1508 31.1177 80.9786 30.5991 80.8926C29.7275 80.7635 29.497 80.8782 28.6326 80.9571Z" fill="#F70032"/>
<path d="M15.2852 15.1831C15.4725 15.5847 12.1662 17.8367 12.8577 18.1021C13.1314 18.2096 15.6309 15.6349 16.0343 16.4812C16.2144 16.8685 15.9479 16.9044 15.3932 17.1984C14.8386 17.4925 13.8734 18.4176 13.4484 18.8766C13.1314 19.2209 12.6848 19.5652 13.0738 19.8233C13.3475 20.0026 14.5937 18.7404 15.3428 19.2137C15.6309 19.393 14.9971 19.9022 14.1183 20.433C13.8446 20.5979 13.2035 20.7916 12.937 20.9709C12.3103 21.3868 12.3895 22.2044 12.4327 22.9575C11.7052 22.9431 10.8768 23.0005 10.1493 22.9862C9.1769 21.3653 9.12648 17.2845 10.9129 15.1329C11.3018 14.6667 12.087 13.7917 12.4183 14.179C12.6632 14.4659 11.698 15.2763 11.3234 15.8142C10.9417 16.3521 10.4158 16.9546 10.8408 17.1625C11.1074 17.2988 12.5768 14.43 13.6141 14.5304C14.2407 14.595 13.1891 15.6134 12.7065 16.015C12.2238 16.4167 11.5612 17.3132 11.8565 17.4781C12.2815 17.7076 12.8145 16.6175 13.1386 16.2589C13.7437 15.5847 14.889 14.344 15.2852 15.1831Z" fill="#F70032"/>
<path d="M43.644 58.0427C43.2119 57.7701 43.9682 57.1103 44.2995 56.723C45.2071 55.6544 45.6393 53.8399 45.6681 52.4414C46.5181 52.3123 47.4905 52.2764 48.3333 52.1473C47.7499 53.7682 48.3333 55.0089 48.4414 55.8911C48.6647 57.8203 48.4702 58.7097 47.5842 60.7537C47.3321 61.3418 46.9359 62.518 46.4605 62.0805C46.0859 61.7362 48.1172 58.8675 47.3393 58.9177C47.0728 58.9392 47.0223 59.7926 46.4029 60.9115C46.1507 61.3705 45.7474 62.5108 45.2792 62.2096C44.6885 61.8366 46.9935 59.097 46.5325 58.9392C46.0067 58.7599 45.2143 62.5108 44.0258 61.9227C43.3631 61.5928 45.8698 58.7742 45.7618 58.7025C45.4953 58.516 45.0559 59.434 44.6165 60.0078C44.1771 60.5816 43.4424 61.4924 43.1758 61.2055C42.5708 60.5457 43.9538 59.6851 44.5372 59.0037C45.2287 58.1933 45.9635 56.7732 45.877 56.4792C45.7186 55.9341 44.422 58.5304 43.644 58.0427Z" fill="#F70032"/>
<path d="M44.8687 49.795C45.2 50.211 45.8771 50.6341 46.1148 51.1146C46.2661 50.5839 46.4101 50.0532 46.5614 49.5224C46.7775 50.0747 46.9936 50.6269 47.2097 51.1792C47.3321 50.5624 47.7355 50.003 48.2902 49.6946C48.2902 50.1536 48.2902 50.6126 48.2902 51.0716C48.744 50.548 49.4499 50.254 50.1414 50.297C49.4859 51.1218 48.7151 52.0183 48.1821 52.9291C47.2673 52.8933 46.5326 52.8431 45.6178 52.8072C45.553 51.7888 45.0487 50.7991 44.8687 49.795Z" fill="#B70027"/>
<path d="M9.8396 26.149C10.1565 25.8191 10.5599 25.3959 10.776 24.9943C10.9489 25.4031 11.2658 25.7617 11.5179 26.1275C11.6548 26.1562 11.626 25.1879 11.7773 24.9082C12.1374 25.3242 12.6993 25.7115 13.1963 25.941C13.1387 25.4892 12.973 25.0015 12.9226 24.5496C13.4124 24.9369 13.7581 25.1162 14.3992 25.2812C13.9958 24.7218 13.859 24.4421 13.4124 24.0046C13.0234 23.6245 12.5192 23.0435 12.3967 22.5128C11.6836 22.7997 10.9057 22.7566 10.0557 22.814C10.0557 23.9113 9.95485 25.0445 9.8396 26.149Z" fill="#B70027"/>
<path d="M11.7627 60.7322C12.1877 59.3767 12.3606 57.8993 11.95 56.5079C11.5394 55.1166 10.4157 53.9619 8.96069 53.9045C9.58737 53.5172 10.4085 53.5531 11.0856 53.8471C11.7627 54.1483 12.303 54.6719 12.764 55.2456C13.7868 56.5151 15.0546 58.4874 14.752 60.0867C15.9982 59.599 17.4821 59.9218 18.6706 60.5386C17.8998 60.5672 17.2371 60.6605 16.5384 60.9115C16.0342 61.0908 15.3427 61.6359 15.2563 61.6789C15.0402 61.7865 14.1182 61.6 13.5131 61.3562C12.908 61.1195 12.1877 60.8685 11.7627 60.7322Z" fill="#B70027"/>
<path d="M27.0623 74.3732C24.8869 72.3938 22.8052 72.5014 21.6023 72.2647C22.373 71.9491 25.0454 71.5977 26.8822 72.4225C28.0203 72.9317 29.6483 73.9501 30.2677 75.0259C30.6135 74.2943 31.5931 73.1181 32.3711 72.903C31.9173 74.072 31.8668 75.4562 31.9893 75.9439C30.6423 76.4388 29.108 76.3886 27.797 75.8148C27.7178 75.7646 27.6818 74.9326 27.0623 74.3732Z" fill="#B70027"/>
<path d="M8.74456 77.5003C8.74456 77.8373 8.47084 78.1099 8.13229 78.1099C7.79374 78.1099 7.52002 77.8373 7.52002 77.5003C7.52002 77.1632 7.79374 76.8906 8.13229 76.8906C8.47084 76.8835 8.74456 77.156 8.74456 77.5003Z" fill="#222272"/>
<path d="M19.5494 76.2451C19.5494 76.5822 19.2756 76.8547 18.9371 76.8547C18.5985 76.8547 18.3248 76.5822 18.3248 76.2451C18.3248 75.908 18.5985 75.6355 18.9371 75.6355C19.2756 75.6355 19.5494 75.908 19.5494 76.2451Z" fill="#222272"/>
<path d="M22.0057 72.53C22.0057 72.7524 21.8256 72.9317 21.6024 72.9317C21.3791 72.9317 21.199 72.7524 21.199 72.53C21.199 72.3077 21.3791 72.1284 21.6024 72.1284C21.8256 72.1284 22.0057 72.3077 22.0057 72.53Z" fill="#0C0A35"/>
<path d="M9.30651 53.9332C9.30651 54.1555 9.12643 54.3348 8.90313 54.3348C8.67983 54.3348 8.49976 54.1555 8.49976 53.9332C8.49976 53.7109 8.67983 53.5316 8.90313 53.5316C9.12643 53.5387 9.30651 53.718 9.30651 53.9332Z" fill="#0C0A35"/>
<path d="M32.8898 72.8241C32.8898 73.0464 32.7097 73.2257 32.4864 73.2257C32.2631 73.2257 32.0902 73.0464 32.0902 72.8241C32.0902 72.6018 32.2703 72.4225 32.4864 72.4225C32.7097 72.4225 32.8898 72.6018 32.8898 72.8241Z" fill="#0C0A35"/>
<path d="M19.074 60.5529C19.074 60.7752 18.8939 60.9545 18.6706 60.9545C18.4473 60.9545 18.2672 60.7752 18.2672 60.5529C18.2672 60.3306 18.4473 60.1513 18.6706 60.1513C18.8939 60.1513 19.074 60.3306 19.074 60.5529Z" fill="#0C0A35"/>
<path d="M9.85392 26.565C10.0091 26.565 10.1348 26.4397 10.1348 26.2853C10.1348 26.1308 10.0091 26.0056 9.85392 26.0056C9.69877 26.0056 9.573 26.1308 9.573 26.2853C9.573 26.4397 9.69877 26.565 9.85392 26.565Z" fill="#0C0A35"/>
<path d="M13.4843 26.0199C13.4843 26.1777 13.3547 26.2996 13.2034 26.2996C13.0449 26.2996 12.9225 26.1777 12.9225 26.0199C12.9225 25.8621 13.0449 25.7402 13.2034 25.7402C13.3547 25.733 13.4843 25.8621 13.4843 26.0199Z" fill="#0C0A35"/>
<path d="M45.1495 49.7949C45.1495 49.9527 45.027 50.0746 44.8686 50.0746C44.7101 50.0746 44.5876 49.9527 44.5876 49.7949C44.5876 49.6371 44.7101 49.5152 44.8686 49.5152C45.027 49.508 45.1495 49.6371 45.1495 49.7949Z" fill="#222272"/>
<path d="M46.9359 49.4865C46.9359 49.6443 46.8134 49.7662 46.6549 49.7662C46.4965 49.7662 46.374 49.6443 46.374 49.4865C46.374 49.3288 46.4965 49.2068 46.6549 49.2068C46.8134 49.2068 46.9359 49.3288 46.9359 49.4865Z" fill="#222272"/>
<path d="M48.7006 49.6443C48.7006 49.8021 48.5782 49.924 48.4197 49.924C48.2612 49.924 48.1388 49.8021 48.1388 49.6443C48.1388 49.4865 48.2612 49.3646 48.4197 49.3646C48.571 49.3646 48.7006 49.4937 48.7006 49.6443Z" fill="#222272"/>
<path d="M50.415 50.297C50.415 50.4548 50.2925 50.5767 50.1341 50.5767C49.9756 50.5767 49.8531 50.4548 49.8531 50.297C49.8531 50.1392 49.9756 50.0173 50.1341 50.0173C50.2925 50.0173 50.415 50.1464 50.415 50.297Z" fill="#222272"/>
<path d="M11.8852 26.2565C11.8852 26.4143 11.7628 26.5362 11.6043 26.5362C11.4458 26.5362 11.3234 26.4072 11.3234 26.2565C11.3234 26.0988 11.4458 25.9768 11.6043 25.9768C11.7556 25.9768 11.8852 26.1059 11.8852 26.2565Z" fill="#0C0A35"/>
<path d="M14.7233 25.3816C14.7233 25.5394 14.5937 25.6613 14.4424 25.6613C14.284 25.6613 14.1615 25.5322 14.1615 25.3816C14.1615 25.2238 14.284 25.1019 14.4424 25.1019C14.6009 25.1019 14.7233 25.2238 14.7233 25.3816Z" fill="#0C0A35"/>
<path d="M26.8895 37.0432C27.1344 37.0432 27.1344 36.6703 26.8895 36.6703C26.6446 36.6703 26.6446 37.0432 26.8895 37.0432Z" fill="#B70027"/>
<path d="M28.0924 37.3516C28.3733 37.3516 28.3733 36.9213 28.0924 36.9213C27.8115 36.9213 27.8115 37.3516 28.0924 37.3516Z" fill="#B70027"/>
<path d="M30.1886 38.8864C30.4695 38.8864 30.4695 38.4561 30.1886 38.4561C29.9077 38.4489 29.9077 38.8864 30.1886 38.8864Z" fill="#B70027"/>
<path d="M29.497 37.6528C29.5114 37.6528 29.5258 37.6456 29.533 37.6456C29.6843 37.6169 29.6843 37.3731 29.533 37.3444C29.5186 37.3444 29.5042 37.3372 29.497 37.3372C29.2305 37.287 29.2305 37.703 29.497 37.6528Z" fill="#B70027"/>
<path d="M27.473 39.4028C27.4874 39.4028 27.5018 39.3956 27.509 39.3956C27.6602 39.3669 27.6602 39.1231 27.509 39.0944C27.4946 39.0944 27.4802 39.0872 27.473 39.0872C27.2064 39.037 27.2064 39.453 27.473 39.4028Z" fill="#B70027"/>
<path d="M27.4369 41.3966C27.4514 41.3966 27.4658 41.3894 27.473 41.3894C27.6242 41.3607 27.6242 41.1169 27.473 41.0882C27.4586 41.0882 27.4442 41.081 27.4369 41.081C27.1704 41.0308 27.1704 41.4468 27.4369 41.3966Z" fill="#B70027"/>
<path d="M30.808 37.9253C31.0097 37.9253 31.0097 37.6097 30.808 37.6097C30.6063 37.6169 30.6063 37.9253 30.808 37.9253Z" fill="#B70027"/>
<path d="M32.227 38.1477C32.2342 38.1405 32.2486 38.1334 32.2558 38.1262C32.3134 38.0903 32.3134 38.0114 32.2558 37.9684C32.2486 37.9612 32.2342 37.9541 32.227 37.9469C32.0181 37.8106 32.0181 38.2912 32.227 38.1477Z" fill="#B70027"/>
<path d="M33.4156 47.0983C33.4228 47.0911 33.4372 47.0839 33.4444 47.0768C33.502 47.0409 33.502 46.962 33.4444 46.919C33.4372 46.9118 33.4228 46.9046 33.4156 46.8975C33.2067 46.7684 33.2067 47.2417 33.4156 47.0983Z" fill="#B70027"/>
<path d="M30.3974 46.2735C30.4046 46.2663 30.419 46.2591 30.4262 46.252C30.4838 46.2161 30.4838 46.1372 30.4262 46.0942C30.419 46.087 30.4046 46.0798 30.3974 46.0727C30.1957 45.9436 30.1957 46.4169 30.3974 46.2735Z" fill="#B70027"/>
<path d="M33.7326 38.4919C33.9919 38.4919 33.9919 38.0903 33.7326 38.0903C33.4733 38.0903 33.4733 38.4919 33.7326 38.4919Z" fill="#B70027"/>
<path d="M32.011 40.3638C32.2703 40.3638 32.2703 39.9622 32.011 39.9622C31.7517 39.9622 31.7517 40.3638 32.011 40.3638Z" fill="#B70027"/>
<path d="M32.1695 42.2214C32.4288 42.2214 32.4288 41.8198 32.1695 41.8198C31.9101 41.8198 31.9101 42.2214 32.1695 42.2214Z" fill="#B70027"/>
<path d="M31.4779 41.2675C31.7372 41.2675 31.7372 40.8658 31.4779 40.8658C31.2186 40.8658 31.2186 41.2675 31.4779 41.2675Z" fill="#B70027"/>
<path d="M31.2907 46.1444C31.55 46.1444 31.55 45.7428 31.2907 45.7428C31.0314 45.7356 31.0314 46.1444 31.2907 46.1444Z" fill="#B70027"/>
<path d="M32.9329 39.4315C33.1922 39.4315 33.1922 39.0299 32.9329 39.0299C32.6736 39.0227 32.6736 39.4315 32.9329 39.4315Z" fill="#B70027"/>
<path d="M31.4707 39.288C31.73 39.288 31.73 38.8864 31.4707 38.8864C31.2114 38.8864 31.2114 39.288 31.4707 39.288Z" fill="#B70027"/>
<path d="M30.4118 40.0267C30.6711 40.0267 30.6711 39.6251 30.4118 39.6251C30.1525 39.6251 30.1525 40.0267 30.4118 40.0267Z" fill="#B70027"/>
<path d="M30.9953 43.0317C31.2546 43.0317 31.2546 42.6301 30.9953 42.6301C30.736 42.6301 30.736 43.0317 30.9953 43.0317Z" fill="#B70027"/>
<path d="M27.689 45.793C27.9483 45.793 27.9483 45.3914 27.689 45.3914C27.4297 45.3914 27.4297 45.793 27.689 45.793Z" fill="#B70027"/>
<path d="M33.5884 44.416C33.8478 44.416 33.8478 44.0143 33.5884 44.0143C33.3219 44.0143 33.3219 44.416 33.5884 44.416Z" fill="#B70027"/>
<path d="M32.544 45.3196C32.8033 45.3196 32.8033 44.918 32.544 44.918C32.2847 44.918 32.2847 45.3196 32.544 45.3196Z" fill="#B70027"/>
<path d="M30.1453 41.9703C30.4046 41.9703 30.4046 41.5687 30.1453 41.5687C29.886 41.5687 29.886 41.9703 30.1453 41.9703Z" fill="#B70027"/>
<path d="M26.839 42.5585C27.0984 42.5585 27.0984 42.1568 26.839 42.1568C26.5725 42.1497 26.5725 42.5585 26.839 42.5585Z" fill="#B70027"/>
<path d="M27.1056 43.5626C27.365 43.5626 27.365 43.1609 27.1056 43.1609C26.8391 43.1609 26.8391 43.5626 27.1056 43.5626Z" fill="#B70027"/>
<path d="M29.6914 40.8731C29.9507 40.8731 29.9507 40.4714 29.6914 40.4714C29.4321 40.4714 29.4321 40.8731 29.6914 40.8731Z" fill="#B70027"/>
<path d="M28.0132 42.4724C28.2726 42.4724 28.2726 42.0708 28.0132 42.0708C27.7467 42.0636 27.7467 42.4724 28.0132 42.4724Z" fill="#B70027"/>
<path d="M28.7838 44.7889C29.0432 44.7889 29.0432 44.3873 28.7838 44.3873C28.5245 44.3801 28.5245 44.7889 28.7838 44.7889Z" fill="#B70027"/>
<path d="M28.3805 43.6414C28.6398 43.6414 28.6398 43.2398 28.3805 43.2398C28.1212 43.2398 28.1212 43.6414 28.3805 43.6414Z" fill="#B70027"/>
<path d="M27.4514 44.7316C27.7107 44.7316 27.7107 44.33 27.4514 44.33C27.1848 44.33 27.1848 44.7316 27.4514 44.7316Z" fill="#B70027"/>
<path d="M35.5261 38.5206C35.6197 38.2983 35.2668 38.1764 35.2019 38.4059C35.1515 38.6067 35.454 38.7071 35.5261 38.5206Z" fill="#B70027"/>
<path d="M34.4672 39.4386C34.5609 39.2163 34.2079 39.0943 34.1431 39.3238C34.0927 39.5175 34.3952 39.6251 34.4672 39.4386Z" fill="#B70027"/>
<path d="M33.9053 40.3925C33.999 40.1702 33.646 40.0483 33.5812 40.2778C33.5308 40.4786 33.8333 40.579 33.9053 40.3925Z" fill="#B70027"/>
<path d="M33.9269 42.4006C34.0206 42.1783 33.6676 42.0564 33.6028 42.2859C33.5524 42.4795 33.8549 42.5871 33.9269 42.4006Z" fill="#B70027"/>
<path d="M32.969 46.3811C33.0626 46.1588 32.7096 46.0368 32.6448 46.2663C32.5872 46.4672 32.8897 46.5676 32.969 46.3811Z" fill="#B70027"/>
<path d="M34.3808 43.4621C34.4744 43.2398 34.1215 43.1179 34.0567 43.3474C34.0062 43.541 34.3016 43.6486 34.3808 43.4621Z" fill="#B70027"/>
<path d="M35.1299 44.6813C35.2235 44.459 34.8705 44.3371 34.8057 44.5666C34.7481 44.7674 35.0506 44.8678 35.1299 44.6813Z" fill="#B70027"/>
<path d="M34.46 46.546C34.5537 46.3237 34.2007 46.2018 34.1359 46.4313C34.0855 46.6249 34.388 46.7325 34.46 46.546Z" fill="#B70027"/>
<path d="M34.3159 45.4702C34.4095 45.2479 34.0566 45.126 33.9917 45.3555C33.9341 45.5491 34.2367 45.6567 34.3159 45.4702Z" fill="#B70027"/>
<path d="M33.4011 41.3751C33.4947 41.1527 33.1418 41.0308 33.0769 41.2603C33.0265 41.4611 33.3218 41.5615 33.4011 41.3751Z" fill="#B70027"/>
<path d="M32.0974 46.9046C32.191 46.6823 31.8381 46.5604 31.7732 46.7899C31.7156 46.9835 32.0181 47.0911 32.0974 46.9046Z" fill="#B70027"/>
<path d="M33.0842 43.1035C33.1778 42.8812 32.8249 42.7593 32.76 42.9888C32.7096 43.1824 33.0121 43.29 33.0842 43.1035Z" fill="#B70027"/>
<path d="M36.693 38.8219C36.9739 38.8219 36.9739 38.3915 36.693 38.3915C36.4121 38.3915 36.4121 38.8219 36.693 38.8219Z" fill="#B70027"/>
<path d="M35.9366 39.9192C36.2176 39.9192 36.2176 39.4889 35.9366 39.4889C35.6557 39.4889 35.6557 39.9192 35.9366 39.9192Z" fill="#B70027"/>
<path d="M35.2739 40.7942C35.5548 40.7942 35.5548 40.3638 35.2739 40.3638C34.993 40.3638 34.993 40.7942 35.2739 40.7942Z" fill="#B70027"/>
<path d="M34.8922 41.8771C35.1731 41.8771 35.1731 41.4468 34.8922 41.4468C34.6113 41.4468 34.6113 41.8771 34.8922 41.8771Z" fill="#B70027"/>
<path d="M35.3173 42.9959C35.5982 42.9959 35.5982 42.5656 35.3173 42.5656C35.0363 42.5656 35.0363 42.9959 35.3173 42.9959Z" fill="#B70027"/>
<path d="M38.0543 38.8648C38.2848 38.8648 38.2848 38.5062 38.0543 38.5062C37.8238 38.5062 37.8238 38.8648 38.0543 38.8648Z" fill="#B70027"/>
<path d="M37.1756 40.0268C37.4061 40.0268 37.4061 39.6682 37.1756 39.6682C36.9451 39.6682 36.9451 40.0268 37.1756 40.0268Z" fill="#B70027"/>
<path d="M36.6929 41.0164C36.9234 41.0164 36.9234 40.6578 36.6929 40.6578C36.4624 40.6578 36.4624 41.0164 36.6929 41.0164Z" fill="#B70027"/>
<path d="M31.838 44.1291C32.0685 44.1291 32.0685 43.7705 31.838 43.7705C31.6075 43.7705 31.6075 44.1291 31.838 44.1291Z" fill="#B70027"/>
<path d="M36.2824 42.164C36.5129 42.164 36.5129 41.8054 36.2824 41.8054C36.0447 41.8054 36.0447 42.164 36.2824 42.164Z" fill="#B70027"/>
<path d="M36.52 43.333C36.7505 43.333 36.7505 42.9744 36.52 42.9744C36.2895 42.9744 36.2895 43.333 36.52 43.333Z" fill="#B70027"/>
<path d="M35.9079 44.0717C36.1384 44.0717 36.1384 43.7131 35.9079 43.7131C35.6774 43.7131 35.6774 44.0717 35.9079 44.0717Z" fill="#B70027"/>
<path d="M36.0951 45.1117C36.3256 45.1117 36.3256 44.7531 36.0951 44.7531C35.8646 44.7531 35.8646 45.1117 36.0951 45.1117Z" fill="#B70027"/>
<path d="M39.0557 38.9581C39.2501 38.9581 39.2501 38.6569 39.0557 38.6569C38.8612 38.6569 38.8612 38.9581 39.0557 38.9581Z" fill="#B70027"/>
<path d="M38.4722 40.1558C38.6666 40.1558 38.6666 39.8546 38.4722 39.8546C38.2777 39.8546 38.2777 40.1558 38.4722 40.1558Z" fill="#B70027"/>
<path d="M38.1337 41.1313C38.3281 41.1313 38.3281 40.83 38.1337 40.83C37.9392 40.83 37.9392 41.1313 38.1337 41.1313Z" fill="#B70027"/>
<path d="M37.4925 42.2213C37.687 42.2213 37.687 41.9201 37.4925 41.9201C37.2981 41.9201 37.2981 42.2213 37.4925 42.2213Z" fill="#B70027"/>
<path d="M34.9714 47.6864C35.1659 47.6864 35.1659 47.3851 34.9714 47.3851C34.7769 47.3851 34.7769 47.6864 34.9714 47.6864Z" fill="#B70027"/>
<path d="M35.3963 46.1157C35.5908 46.1157 35.5908 45.8145 35.3963 45.8145C35.209 45.8145 35.209 46.1157 35.3963 46.1157Z" fill="#B70027"/>
<path d="M27.192 38.2624C27.4153 38.2624 27.4153 37.9182 27.192 37.9182C26.9687 37.9182 26.9687 38.2624 27.192 38.2624Z" fill="#B70027"/>
<path d="M25.9746 37.9325C25.9746 37.9469 25.9746 37.9612 25.9674 37.9756C25.9602 38.0473 26.061 38.076 26.1115 38.0329C26.1187 38.0258 26.1331 38.0114 26.1403 38.0043C26.2555 37.8823 25.9962 37.7389 25.9746 37.9325Z" fill="#B70027"/>
<path d="M28.6686 38.5924C28.8487 38.5924 28.8487 38.3055 28.6686 38.3055C28.4885 38.3055 28.4885 38.5924 28.6686 38.5924Z" fill="#B70027"/>
<path d="M26.4574 41.4898C26.6374 41.4898 26.6374 41.2029 26.4574 41.2029C26.2701 41.2029 26.2701 41.4898 26.4574 41.4898Z" fill="#B70027"/>
<path d="M28.9495 39.6896C29.1296 39.6896 29.1296 39.4027 28.9495 39.4027C28.7623 39.4027 28.7623 39.6896 28.9495 39.6896Z" fill="#B70027"/>
<path d="M28.7334 41.6261C28.9135 41.6261 28.9135 41.3392 28.7334 41.3392C28.5534 41.3392 28.5534 41.6261 28.7334 41.6261Z" fill="#B70027"/>
<path d="M28.8127 46.2448C28.9928 46.2448 28.9928 45.9579 28.8127 45.9579C28.6254 45.9579 28.6254 46.2448 28.8127 46.2448Z" fill="#B70027"/>
<path d="M29.2017 42.7377C29.3818 42.7377 29.3818 42.4508 29.2017 42.4508C29.0216 42.4508 29.0216 42.7377 29.2017 42.7377Z" fill="#B70027"/>
<path d="M29.8428 43.7705C30.0229 43.7705 30.0229 43.4836 29.8428 43.4836C29.6627 43.4836 29.6627 43.7705 29.8428 43.7705Z" fill="#B70027"/>
<path d="M29.6339 45.7069C29.8139 45.7069 29.8139 45.42 29.6339 45.42C29.4466 45.4272 29.4466 45.7069 29.6339 45.7069Z" fill="#B70027"/>
<path d="M30.4623 44.7818C30.6424 44.7818 30.6424 44.4949 30.4623 44.4949C30.2823 44.4949 30.2823 44.7818 30.4623 44.7818Z" fill="#B70027"/>
<path d="M26.8967 40.3782C27.0768 40.3782 27.0768 40.0913 26.8967 40.0913C26.7094 40.0913 26.7094 40.3782 26.8967 40.3782Z" fill="#B70027"/>
<path d="M28.1428 40.5288C28.3301 40.5288 28.3301 40.2419 28.1428 40.2419C27.9555 40.2491 27.9555 40.5288 28.1428 40.5288Z" fill="#B70027"/>
<path d="M35.9079 47.3565C36.088 47.3565 36.088 47.0696 35.9079 47.0696C35.7206 47.0696 35.7206 47.3565 35.9079 47.3565Z" fill="#B70027"/>
<path d="M36.5994 48.3103C36.7867 48.3103 36.7867 48.0234 36.5994 48.0234C36.4193 48.0306 36.4193 48.3103 36.5994 48.3103Z" fill="#B70027"/>
<path d="M26.3061 39.331C26.4862 39.331 26.4862 39.0441 26.3061 39.0441C26.126 39.0441 26.126 39.331 26.3061 39.331Z" fill="#B70027"/>
<path d="M21.4367 49.0634C22.0634 49.0634 22.5892 48.5398 22.5892 47.9159C22.5892 47.2919 22.0634 46.7684 21.4367 46.7684C20.81 46.7684 20.2842 47.2919 20.2842 47.9159C20.2842 48.5398 20.81 49.0634 21.4367 49.0634Z" fill="#141247"/>
<path d="M25.3839 47.6362C25.3767 47.6434 25.3767 47.6506 25.3695 47.6649C25.0814 48.1669 25.4415 48.8196 26.0322 48.8196C26.6229 48.8196 26.983 48.1741 26.6949 47.6649C26.6877 47.6577 26.6877 47.6506 26.6805 47.6362C26.4068 47.1485 25.6648 47.1485 25.3839 47.6362Z" fill="#141247"/>
<path d="M24.4332 51.8676C25.4705 51.8676 25.4705 50.2683 24.4332 50.2683C23.396 50.2683 23.396 51.8676 24.4332 51.8676Z" fill="#141247"/>
<path d="M19.2829 52.7785C19.2901 52.7928 19.2901 52.8072 19.2973 52.8215C19.4486 53.3594 20.0176 53.6893 20.5651 53.5387C21.1125 53.3881 21.4295 52.8215 21.2854 52.2764C21.2782 52.2621 21.2782 52.2477 21.271 52.2334C21.1269 51.6955 20.5435 51.3728 20.0032 51.5162C19.4702 51.6668 19.1316 52.2406 19.2829 52.7785Z" fill="#141247"/>
<path d="M16.9707 53.8829C16.9347 53.8901 16.8987 53.8901 16.8699 53.8973C16.5097 53.9475 16.5097 54.5643 16.8699 54.6145C16.9059 54.6216 16.9419 54.6216 16.9707 54.6288C17.5974 54.7149 17.5974 53.7897 16.9707 53.8829Z" fill="#141247"/>
<path d="M16.3223 58.2578C17.374 58.2578 17.374 56.6298 16.3223 56.6298C15.2707 56.6298 15.2707 58.2578 16.3223 58.2578Z" fill="#141247"/>
<path d="M28.4741 51.1576C28.5029 51.1792 28.5246 51.1935 28.5534 51.215C28.8559 51.423 29.2953 51.2724 29.4682 50.9783C29.7059 50.5695 29.461 50.1607 29.0648 49.9958C29.036 49.9814 29.0072 49.9743 28.9784 49.9599C28.7118 49.8523 28.3661 50.0316 28.2292 50.2611C28.0492 50.5839 28.186 50.9496 28.4741 51.1576Z" fill="#141247"/>
<path d="M32.868 49.5941C33.9917 49.5941 33.9917 47.8585 32.868 47.8585C31.7443 47.8657 31.7443 49.5941 32.868 49.5941Z" fill="#141247"/>
<path d="M32.7024 54.844C33.2859 54.844 33.7757 54.3563 33.7757 53.7754C33.7757 53.1945 33.2859 52.7068 32.7024 52.7068C32.119 52.7068 31.6292 53.1945 31.6292 53.7754C31.6292 54.3563 32.119 54.844 32.7024 54.844Z" fill="#141247"/>
<path d="M35.6486 52.1115C35.6486 52.1259 35.6486 52.1402 35.6486 52.1545C35.6486 52.8861 36.3689 53.4311 37.0748 53.2375C37.8023 53.0367 38.0832 52.2263 37.7447 51.588C37.7375 51.5736 37.7303 51.5593 37.7231 51.5449C37.1972 50.5552 35.6486 51.0429 35.6486 52.1115Z" fill="#141247"/>
<path d="M26.7021 57.3542C27.3432 57.3542 27.8835 56.8163 27.8835 56.178C27.8835 55.5325 27.3432 55.0018 26.7021 55.0018C26.0539 55.0018 25.5208 55.5397 25.5208 56.178C25.5136 56.8234 26.0539 57.3542 26.7021 57.3542Z" fill="#141247"/>
<path d="M30.9952 58.0929C32.1189 58.0929 32.1189 56.3573 30.9952 56.3573C29.8715 56.3644 29.8715 58.0929 30.9952 58.0929Z" fill="#141247"/>
<path d="M26.198 61.4781C26.8103 61.4781 27.3145 60.9689 27.3145 60.3664C27.3145 59.7568 26.8031 59.2548 26.198 59.2548C25.5857 59.2548 25.0815 59.764 25.0815 60.3664C25.0743 60.9689 25.5857 61.4781 26.198 61.4781Z" fill="#141247"/>
<path d="M22.085 62.3244C23.043 62.3244 23.043 60.8469 22.085 60.8469C21.1269 60.8469 21.1269 62.3244 22.085 62.3244Z" fill="#141247"/>
<path d="M25.6073 65.2075C26.1043 65.2075 26.5221 64.7915 26.5221 64.2967C26.5221 63.8018 26.1043 63.3858 25.6073 63.3858C25.1103 63.3858 24.6925 63.8018 24.6925 64.2967C24.6925 64.7915 25.1103 65.2075 25.6073 65.2075Z" fill="#141247"/>
<path d="M25.8019 68.4708C25.8163 68.4636 25.8379 68.4564 25.8523 68.4421C26.2197 68.2699 26.2413 67.7392 25.9748 67.4739C25.6434 67.1439 25.0672 67.3017 24.9375 67.7464C24.9303 67.7607 24.9303 67.7822 24.9231 67.7966C24.7718 68.3417 25.3553 68.6787 25.8019 68.4708Z" fill="#141247"/>
<path d="M28.5966 71.0957C29.2017 71.0957 29.7131 70.5865 29.7131 69.984C29.7131 69.3816 29.2017 68.8724 28.5966 68.8724C27.9843 68.8724 27.4801 69.3816 27.4801 69.984C27.4801 70.5865 27.9843 71.0957 28.5966 71.0957Z" fill="#141247"/>
<path d="M47.7283 40.0841C47.7283 40.0985 47.7283 40.1128 47.7355 40.1271C47.7931 40.7368 48.4054 41.1814 48.9816 40.8443C49.5435 40.5144 49.493 39.7542 48.9816 39.4171C48.9672 39.41 48.96 39.4028 48.9456 39.3956C48.463 39.0657 47.6778 39.4888 47.7283 40.0841Z" fill="#141247"/>
<path d="M50.343 42.96C51.1282 42.96 51.1282 41.748 50.343 41.748C49.5579 41.748 49.5579 42.96 50.343 42.96Z" fill="#141247"/>
<path d="M48.7367 45.7643C49.7451 45.7643 49.7451 44.208 48.7367 44.208C47.7282 44.208 47.7282 45.7643 48.7367 45.7643Z" fill="#141247"/>
<path d="M48.8159 47.2346C48.7943 47.2346 48.7727 47.2346 48.7511 47.2346C48.3693 47.2131 48.1172 47.6075 48.2037 47.9518C48.2037 47.959 48.2037 47.9661 48.2109 47.9733C48.3477 48.5112 49.1617 48.5112 49.2985 47.9733C49.2985 47.9661 49.3058 47.959 49.3058 47.9518C49.2553 48.0379 49.2121 48.1168 49.1617 48.2028C49.1761 48.1885 49.1905 48.1741 49.2049 48.1526C49.5363 47.8012 49.2841 47.2561 48.8159 47.2346Z" fill="#141247"/>
<path d="M12.2454 29.2544C13.3402 29.2544 13.3402 27.569 12.2454 27.569C11.1505 27.5618 11.1505 29.2544 12.2454 29.2544Z" fill="#141247"/>
<path d="M12.0797 32.8691C13.0089 32.8691 13.0089 31.4347 12.0797 31.4347C11.1505 31.4347 11.1505 32.8691 12.0797 32.8691Z" fill="#141247"/>
<path d="M13.5492 36.0893C14.4496 36.0893 14.4496 34.698 13.5492 34.698C12.6488 34.7051 12.6488 36.0893 13.5492 36.0893Z" fill="#141247"/>
<path d="M15.9262 33.8947C17.1436 33.8947 17.1436 32.0157 15.9262 32.0157C14.7017 32.0085 14.7017 33.8947 15.9262 33.8947Z" fill="#141247"/>
<path d="M17.7631 34.8557C18.577 34.8557 18.577 33.6006 17.7631 33.6006C16.9491 33.6006 16.9491 34.8557 17.7631 34.8557Z" fill="#141247"/>
<path d="M11.842 61.0262C12.2886 61.0262 12.2886 60.3377 11.842 60.3377C11.3954 60.3377 11.3954 61.0262 11.842 61.0262Z" fill="#141247"/>
<path d="M13.2034 61.851C13.8877 61.851 13.8877 60.7896 13.2034 60.7896C12.5191 60.7896 12.5191 61.851 13.2034 61.851Z" fill="#141247"/>
<path d="M14.8025 62.2956C15.3428 62.2956 15.3428 61.4565 14.8025 61.4565C14.2623 61.4565 14.2623 62.2956 14.8025 62.2956Z" fill="#141247"/>
<path d="M28.0276 76.4961C28.7119 76.4961 28.7119 75.4418 28.0276 75.4418C27.3433 75.4418 27.3433 76.4961 28.0276 76.4961Z" fill="#141247"/>
<path d="M30.0084 76.8691C30.7432 76.8691 30.7432 75.7359 30.0084 75.7359C29.2737 75.7359 29.2737 76.8691 30.0084 76.8691Z" fill="#141247"/>
<path d="M31.9317 76.3527C32.5152 76.3527 32.5152 75.4562 31.9317 75.4562C31.3483 75.4562 31.3483 76.3527 31.9317 76.3527Z" fill="#141247"/>
<path d="M31.5211 37.8321C31.4131 37.5667 31.4995 38.1477 31.4923 37.7173C31.4923 37.6098 31.4707 37.5022 31.4563 37.3946C31.4203 37.2081 31.3915 37.0217 31.3339 36.8424C31.1682 36.369 30.9233 35.8741 30.5559 35.5227C30.1237 35.1211 29.4394 35.0924 29.0144 35.5227C28.5318 36.0032 28.6039 36.8997 29.2377 37.2296C29.3746 37.3014 29.5115 37.3731 29.6411 37.4592C29.886 37.6241 29.5115 37.3516 29.7564 37.5452C29.814 37.5954 29.8788 37.6385 29.9364 37.6887C29.886 37.6456 29.9076 37.66 29.9941 37.7317C30.1453 37.8536 30.2966 37.9612 30.4623 38.0616C30.6135 38.1548 30.7864 38.205 30.9305 38.2983C31.2042 38.4919 31.6508 38.1692 31.5211 37.8321Z" fill="#222272"/>
<path d="M32.0685 38.4561C32.6808 39.1231 33.9918 38.3772 34.6545 38.119C35.1443 37.9326 35.4756 37.4879 35.3244 36.9428C35.1515 36.326 34.4672 36.0965 33.9198 36.3762C33.4011 36.6416 32.9401 37.0361 32.5367 37.452C32.3495 37.6528 31.7732 38.1405 32.0685 38.4561Z" fill="#222272"/>
<path d="M30.7504 38.7644C30.6928 38.7788 30.5055 38.7716 30.4118 38.7931C30.2173 38.8362 30.0157 38.8577 29.814 38.8935C29.3674 38.9724 28.9424 39.0011 28.539 39.2378C27.6746 39.747 28.2509 41.2531 29.2377 40.8873C29.7059 40.7152 30.0301 40.4283 30.3902 40.1056C30.6784 39.8474 31.0601 39.539 31.0961 39.1302C31.0601 39.2091 31.0313 39.2952 30.9953 39.3741C31.0169 39.3454 31.0457 39.3167 31.0673 39.288C31.2474 39.0585 31.0817 38.6712 30.7504 38.7644Z" fill="#222272"/>
<path d="M31.6003 39.3238C31.341 39.747 31.4995 40.3853 31.7084 40.8013C31.9821 41.3535 32.2198 41.8699 32.8393 42.0922C33.4299 42.3074 33.9846 41.7623 34.0062 41.2029C34.035 40.6435 33.6316 40.2634 33.3003 39.8617C33.0554 39.5605 32.6736 39.1087 32.2702 39.0513C32.0037 39.0083 31.7516 39.0728 31.6003 39.3238Z" fill="#222272"/>
</svg>
